<?xml version="1.0" encoding="utf-8" standalone="no"?>
<!DOCTYPE svg PUBLIC "-//W3C//DTD SVG 1.1//EN"
  "http://www.w3.org/Graphics/SVG/1.1/DTD/svg11.dtd">
<svg xmlns:xlink="http://www.w3.org/1999/xlink" width="891.165625pt" height="332.154375pt" viewBox="0 0 891.165625 332.154375" xmlns="http://www.w3.org/2000/svg" version="1.1">
 <metadata>
  <rdf:RDF xmlns:dc="http://purl.org/dc/elements/1.1/" xmlns:cc="http://creativecommons.org/ns#" xmlns:rdf="http://www.w3.org/1999/02/22-rdf-syntax-ns#">
   <cc:Work>
    <dc:type rdf:resource="http://purl.org/dc/dcmitype/StillImage"/>
    <dc:date>2022-06-21T21:13:41.933930</dc:date>
    <dc:format>image/svg+xml</dc:format>
    <dc:creator>
     <cc:Agent>
      <dc:title>Matplotlib v3.5.2, https://matplotlib.org/</dc:title>
     </cc:Agent>
    </dc:creator>
   </cc:Work>
  </rdf:RDF>
 </metadata>
 <defs>
  <style type="text/css">*{stroke-linejoin: round; stroke-linecap: butt}</style>
 </defs>
 <g id="figure_1">
  <g id="patch_1">
   <path d="M 0 332.154375 
L 891.165625 332.154375 
L 891.165625 0 
L 0 0 
L 0 332.154375 
z
" style="fill: none"/>
  </g>
  <g id="axes_1">
   <g id="patch_2">
    <path d="M 46.965625 294.598125 
L 883.965625 294.598125 
L 883.965625 22.798125 
L 46.965625 22.798125 
z
" style="fill: #ffffff"/>
   </g>
   <g id="matplotlib.axis_1">
    <g id="xtick_1">
     <g id="line2d_1">
      <defs>
       <path id="m5f8d488bce" d="M 0 0 
L 0 3.5 
" style="stroke: #000000; stroke-width: 0.8"/>
      </defs>
      <g>
       <use xlink:href="#m5f8d488bce" x="85.01108" y="294.598125" style="stroke: #000000; stroke-width: 0.8"/>
      </g>
     </g>
     <g id="text_1">
      <!-- 0 -->
      <g transform="translate(81.82983 309.196562)scale(0.1 -0.1)">
       <defs>
        <path id="DejaVuSans-30" d="M 2034 4250 
Q 1547 4250 1301 3770 
Q 1056 3291 1056 2328 
Q 1056 1369 1301 889 
Q 1547 409 2034 409 
Q 2525 409 2770 889 
Q 3016 1369 3016 2328 
Q 3016 3291 2770 3770 
Q 2525 4250 2034 4250 
z
M 2034 4750 
Q 2819 4750 3233 4129 
Q 3647 3509 3647 2328 
Q 3647 1150 3233 529 
Q 2819 -91 2034 -91 
Q 1250 -91 836 529 
Q 422 1150 422 2328 
Q 422 3509 836 4129 
Q 1250 4750 2034 4750 
z
" transform="scale(0.015625)"/>
       </defs>
       <use xlink:href="#DejaVuSans-30"/>
      </g>
     </g>
    </g>
    <g id="xtick_2">
     <g id="line2d_2">
      <g>
       <use xlink:href="#m5f8d488bce" x="212.253402" y="294.598125" style="stroke: #000000; stroke-width: 0.8"/>
      </g>
     </g>
     <g id="text_2">
      <!-- 50 -->
      <g transform="translate(205.890902 309.196562)scale(0.1 -0.1)">
       <defs>
        <path id="DejaVuSans-35" d="M 691 4666 
L 3169 4666 
L 3169 4134 
L 1269 4134 
L 1269 2991 
Q 1406 3038 1543 3061 
Q 1681 3084 1819 3084 
Q 2600 3084 3056 2656 
Q 3513 2228 3513 1497 
Q 3513 744 3044 326 
Q 2575 -91 1722 -91 
Q 1428 -91 1123 -41 
Q 819 9 494 109 
L 494 744 
Q 775 591 1075 516 
Q 1375 441 1709 441 
Q 2250 441 2565 725 
Q 2881 1009 2881 1497 
Q 2881 1984 2565 2268 
Q 2250 2553 1709 2553 
Q 1456 2553 1204 2497 
Q 953 2441 691 2322 
L 691 4666 
z
" transform="scale(0.015625)"/>
       </defs>
       <use xlink:href="#DejaVuSans-35"/>
       <use xlink:href="#DejaVuSans-30" x="63.623047"/>
      </g>
     </g>
    </g>
    <g id="xtick_3">
     <g id="line2d_3">
      <g>
       <use xlink:href="#m5f8d488bce" x="339.495725" y="294.598125" style="stroke: #000000; stroke-width: 0.8"/>
      </g>
     </g>
     <g id="text_3">
      <!-- 100 -->
      <g transform="translate(329.951975 309.196562)scale(0.1 -0.1)">
       <defs>
        <path id="DejaVuSans-31" d="M 794 531 
L 1825 531 
L 1825 4091 
L 703 3866 
L 703 4441 
L 1819 4666 
L 2450 4666 
L 2450 531 
L 3481 531 
L 3481 0 
L 794 0 
L 794 531 
z
" transform="scale(0.015625)"/>
       </defs>
       <use xlink:href="#DejaVuSans-31"/>
       <use xlink:href="#DejaVuSans-30" x="63.623047"/>
       <use xlink:href="#DejaVuSans-30" x="127.246094"/>
      </g>
     </g>
    </g>
    <g id="xtick_4">
     <g id="line2d_4">
      <g>
       <use xlink:href="#m5f8d488bce" x="466.738048" y="294.598125" style="stroke: #000000; stroke-width: 0.8"/>
      </g>
     </g>
     <g id="text_4">
      <!-- 150 -->
      <g transform="translate(457.194298 309.196562)scale(0.1 -0.1)">
       <use xlink:href="#DejaVuSans-31"/>
       <use xlink:href="#DejaVuSans-35" x="63.623047"/>
       <use xlink:href="#DejaVuSans-30" x="127.246094"/>
      </g>
     </g>
    </g>
    <g id="xtick_5">
     <g id="line2d_5">
      <g>
       <use xlink:href="#m5f8d488bce" x="593.980371" y="294.598125" style="stroke: #000000; stroke-width: 0.8"/>
      </g>
     </g>
     <g id="text_5">
      <!-- 200 -->
      <g transform="translate(584.436621 309.196562)scale(0.1 -0.1)">
       <defs>
        <path id="DejaVuSans-32" d="M 1228 531 
L 3431 531 
L 3431 0 
L 469 0 
L 469 531 
Q 828 903 1448 1529 
Q 2069 2156 2228 2338 
Q 2531 2678 2651 2914 
Q 2772 3150 2772 3378 
Q 2772 3750 2511 3984 
Q 2250 4219 1831 4219 
Q 1534 4219 1204 4116 
Q 875 4013 500 3803 
L 500 4441 
Q 881 4594 1212 4672 
Q 1544 4750 1819 4750 
Q 2544 4750 2975 4387 
Q 3406 4025 3406 3419 
Q 3406 3131 3298 2873 
Q 3191 2616 2906 2266 
Q 2828 2175 2409 1742 
Q 1991 1309 1228 531 
z
" transform="scale(0.015625)"/>
       </defs>
       <use xlink:href="#DejaVuSans-32"/>
       <use xlink:href="#DejaVuSans-30" x="63.623047"/>
       <use xlink:href="#DejaVuSans-30" x="127.246094"/>
      </g>
     </g>
    </g>
    <g id="xtick_6">
     <g id="line2d_6">
      <g>
       <use xlink:href="#m5f8d488bce" x="721.222694" y="294.598125" style="stroke: #000000; stroke-width: 0.8"/>
      </g>
     </g>
     <g id="text_6">
      <!-- 250 -->
      <g transform="translate(711.678944 309.196562)scale(0.1 -0.1)">
       <use xlink:href="#DejaVuSans-32"/>
       <use xlink:href="#DejaVuSans-35" x="63.623047"/>
       <use xlink:href="#DejaVuSans-30" x="127.246094"/>
      </g>
     </g>
    </g>
    <g id="xtick_7">
     <g id="line2d_7">
      <g>
       <use xlink:href="#m5f8d488bce" x="848.465017" y="294.598125" style="stroke: #000000; stroke-width: 0.8"/>
      </g>
     </g>
     <g id="text_7">
      <!-- 300 -->
      <g transform="translate(838.921267 309.196562)scale(0.1 -0.1)">
       <defs>
        <path id="DejaVuSans-33" d="M 2597 2516 
Q 3050 2419 3304 2112 
Q 3559 1806 3559 1356 
Q 3559 666 3084 287 
Q 2609 -91 1734 -91 
Q 1441 -91 1130 -33 
Q 819 25 488 141 
L 488 750 
Q 750 597 1062 519 
Q 1375 441 1716 441 
Q 2309 441 2620 675 
Q 2931 909 2931 1356 
Q 2931 1769 2642 2001 
Q 2353 2234 1838 2234 
L 1294 2234 
L 1294 2753 
L 1863 2753 
Q 2328 2753 2575 2939 
Q 2822 3125 2822 3475 
Q 2822 3834 2567 4026 
Q 2313 4219 1838 4219 
Q 1578 4219 1281 4162 
Q 984 4106 628 3988 
L 628 4550 
Q 988 4650 1302 4700 
Q 1616 4750 1894 4750 
Q 2613 4750 3031 4423 
Q 3450 4097 3450 3541 
Q 3450 3153 3228 2886 
Q 3006 2619 2597 2516 
z
" transform="scale(0.015625)"/>
       </defs>
       <use xlink:href="#DejaVuSans-33"/>
       <use xlink:href="#DejaVuSans-30" x="63.623047"/>
       <use xlink:href="#DejaVuSans-30" x="127.246094"/>
      </g>
     </g>
    </g>
    <g id="text_8">
     <!-- Próbka -->
     <g transform="translate(448.489844 322.874687)scale(0.1 -0.1)">
      <defs>
       <path id="DejaVuSans-50" d="M 1259 4147 
L 1259 2394 
L 2053 2394 
Q 2494 2394 2734 2622 
Q 2975 2850 2975 3272 
Q 2975 3691 2734 3919 
Q 2494 4147 2053 4147 
L 1259 4147 
z
M 628 4666 
L 2053 4666 
Q 2838 4666 3239 4311 
Q 3641 3956 3641 3272 
Q 3641 2581 3239 2228 
Q 2838 1875 2053 1875 
L 1259 1875 
L 1259 0 
L 628 0 
L 628 4666 
z
" transform="scale(0.015625)"/>
       <path id="DejaVuSans-72" d="M 2631 2963 
Q 2534 3019 2420 3045 
Q 2306 3072 2169 3072 
Q 1681 3072 1420 2755 
Q 1159 2438 1159 1844 
L 1159 0 
L 581 0 
L 581 3500 
L 1159 3500 
L 1159 2956 
Q 1341 3275 1631 3429 
Q 1922 3584 2338 3584 
Q 2397 3584 2469 3576 
Q 2541 3569 2628 3553 
L 2631 2963 
z
" transform="scale(0.015625)"/>
       <path id="DejaVuSans-f3" d="M 1959 3097 
Q 1497 3097 1228 2736 
Q 959 2375 959 1747 
Q 959 1119 1226 758 
Q 1494 397 1959 397 
Q 2419 397 2687 759 
Q 2956 1122 2956 1747 
Q 2956 2369 2687 2733 
Q 2419 3097 1959 3097 
z
M 1959 3584 
Q 2709 3584 3137 3096 
Q 3566 2609 3566 1747 
Q 3566 888 3137 398 
Q 2709 -91 1959 -91 
Q 1206 -91 779 398 
Q 353 888 353 1747 
Q 353 2609 779 3096 
Q 1206 3584 1959 3584 
z
M 2394 5119 
L 3016 5119 
L 1998 3944 
L 1519 3944 
L 2394 5119 
z
" transform="scale(0.015625)"/>
       <path id="DejaVuSans-62" d="M 3116 1747 
Q 3116 2381 2855 2742 
Q 2594 3103 2138 3103 
Q 1681 3103 1420 2742 
Q 1159 2381 1159 1747 
Q 1159 1113 1420 752 
Q 1681 391 2138 391 
Q 2594 391 2855 752 
Q 3116 1113 3116 1747 
z
M 1159 2969 
Q 1341 3281 1617 3432 
Q 1894 3584 2278 3584 
Q 2916 3584 3314 3078 
Q 3713 2572 3713 1747 
Q 3713 922 3314 415 
Q 2916 -91 2278 -91 
Q 1894 -91 1617 61 
Q 1341 213 1159 525 
L 1159 0 
L 581 0 
L 581 4863 
L 1159 4863 
L 1159 2969 
z
" transform="scale(0.015625)"/>
       <path id="DejaVuSans-6b" d="M 581 4863 
L 1159 4863 
L 1159 1991 
L 2875 3500 
L 3609 3500 
L 1753 1863 
L 3688 0 
L 2938 0 
L 1159 1709 
L 1159 0 
L 581 0 
L 581 4863 
z
" transform="scale(0.015625)"/>
       <path id="DejaVuSans-61" d="M 2194 1759 
Q 1497 1759 1228 1600 
Q 959 1441 959 1056 
Q 959 750 1161 570 
Q 1363 391 1709 391 
Q 2188 391 2477 730 
Q 2766 1069 2766 1631 
L 2766 1759 
L 2194 1759 
z
M 3341 1997 
L 3341 0 
L 2766 0 
L 2766 531 
Q 2569 213 2275 61 
Q 1981 -91 1556 -91 
Q 1019 -91 701 211 
Q 384 513 384 1019 
Q 384 1609 779 1909 
Q 1175 2209 1959 2209 
L 2766 2209 
L 2766 2266 
Q 2766 2663 2505 2880 
Q 2244 3097 1772 3097 
Q 1472 3097 1187 3025 
Q 903 2953 641 2809 
L 641 3341 
Q 956 3463 1253 3523 
Q 1550 3584 1831 3584 
Q 2591 3584 2966 3190 
Q 3341 2797 3341 1997 
z
" transform="scale(0.015625)"/>
      </defs>
      <use xlink:href="#DejaVuSans-50"/>
      <use xlink:href="#DejaVuSans-72" x="58.552734"/>
      <use xlink:href="#DejaVuSans-f3" x="97.416016"/>
      <use xlink:href="#DejaVuSans-62" x="158.597656"/>
      <use xlink:href="#DejaVuSans-6b" x="222.074219"/>
      <use xlink:href="#DejaVuSans-61" x="278.234375"/>
     </g>
    </g>
   </g>
   <g id="matplotlib.axis_2">
    <g id="ytick_1">
     <g id="line2d_8">
      <defs>
       <path id="mefb09c19b4" d="M 0 0 
L -3.5 0 
" style="stroke: #000000; stroke-width: 0.8"/>
      </defs>
      <g>
       <use xlink:href="#mefb09c19b4" x="46.965625" y="268.556328" style="stroke: #000000; stroke-width: 0.8"/>
      </g>
     </g>
     <g id="text_9">
      <!-- 300 -->
      <g transform="translate(20.878125 272.355547)scale(0.1 -0.1)">
       <use xlink:href="#DejaVuSans-33"/>
       <use xlink:href="#DejaVuSans-30" x="63.623047"/>
       <use xlink:href="#DejaVuSans-30" x="127.246094"/>
      </g>
     </g>
    </g>
    <g id="ytick_2">
     <g id="line2d_9">
      <g>
       <use xlink:href="#mefb09c19b4" x="46.965625" y="232.537245" style="stroke: #000000; stroke-width: 0.8"/>
      </g>
     </g>
     <g id="text_10">
      <!-- 400 -->
      <g transform="translate(20.878125 236.336464)scale(0.1 -0.1)">
       <defs>
        <path id="DejaVuSans-34" d="M 2419 4116 
L 825 1625 
L 2419 1625 
L 2419 4116 
z
M 2253 4666 
L 3047 4666 
L 3047 1625 
L 3713 1625 
L 3713 1100 
L 3047 1100 
L 3047 0 
L 2419 0 
L 2419 1100 
L 313 1100 
L 313 1709 
L 2253 4666 
z
" transform="scale(0.015625)"/>
       </defs>
       <use xlink:href="#DejaVuSans-34"/>
       <use xlink:href="#DejaVuSans-30" x="63.623047"/>
       <use xlink:href="#DejaVuSans-30" x="127.246094"/>
      </g>
     </g>
    </g>
    <g id="ytick_3">
     <g id="line2d_10">
      <g>
       <use xlink:href="#mefb09c19b4" x="46.965625" y="196.518162" style="stroke: #000000; stroke-width: 0.8"/>
      </g>
     </g>
     <g id="text_11">
      <!-- 500 -->
      <g transform="translate(20.878125 200.317381)scale(0.1 -0.1)">
       <use xlink:href="#DejaVuSans-35"/>
       <use xlink:href="#DejaVuSans-30" x="63.623047"/>
       <use xlink:href="#DejaVuSans-30" x="127.246094"/>
      </g>
     </g>
    </g>
    <g id="ytick_4">
     <g id="line2d_11">
      <g>
       <use xlink:href="#mefb09c19b4" x="46.965625" y="160.499079" style="stroke: #000000; stroke-width: 0.8"/>
      </g>
     </g>
     <g id="text_12">
      <!-- 600 -->
      <g transform="translate(20.878125 164.298298)scale(0.1 -0.1)">
       <defs>
        <path id="DejaVuSans-36" d="M 2113 2584 
Q 1688 2584 1439 2293 
Q 1191 2003 1191 1497 
Q 1191 994 1439 701 
Q 1688 409 2113 409 
Q 2538 409 2786 701 
Q 3034 994 3034 1497 
Q 3034 2003 2786 2293 
Q 2538 2584 2113 2584 
z
M 3366 4563 
L 3366 3988 
Q 3128 4100 2886 4159 
Q 2644 4219 2406 4219 
Q 1781 4219 1451 3797 
Q 1122 3375 1075 2522 
Q 1259 2794 1537 2939 
Q 1816 3084 2150 3084 
Q 2853 3084 3261 2657 
Q 3669 2231 3669 1497 
Q 3669 778 3244 343 
Q 2819 -91 2113 -91 
Q 1303 -91 875 529 
Q 447 1150 447 2328 
Q 447 3434 972 4092 
Q 1497 4750 2381 4750 
Q 2619 4750 2861 4703 
Q 3103 4656 3366 4563 
z
" transform="scale(0.015625)"/>
       </defs>
       <use xlink:href="#DejaVuSans-36"/>
       <use xlink:href="#DejaVuSans-30" x="63.623047"/>
       <use xlink:href="#DejaVuSans-30" x="127.246094"/>
      </g>
     </g>
    </g>
    <g id="ytick_5">
     <g id="line2d_12">
      <g>
       <use xlink:href="#mefb09c19b4" x="46.965625" y="124.479996" style="stroke: #000000; stroke-width: 0.8"/>
      </g>
     </g>
     <g id="text_13">
      <!-- 700 -->
      <g transform="translate(20.878125 128.279215)scale(0.1 -0.1)">
       <defs>
        <path id="DejaVuSans-37" d="M 525 4666 
L 3525 4666 
L 3525 4397 
L 1831 0 
L 1172 0 
L 2766 4134 
L 525 4134 
L 525 4666 
z
" transform="scale(0.015625)"/>
       </defs>
       <use xlink:href="#DejaVuSans-37"/>
       <use xlink:href="#DejaVuSans-30" x="63.623047"/>
       <use xlink:href="#DejaVuSans-30" x="127.246094"/>
      </g>
     </g>
    </g>
    <g id="ytick_6">
     <g id="line2d_13">
      <g>
       <use xlink:href="#mefb09c19b4" x="46.965625" y="88.460913" style="stroke: #000000; stroke-width: 0.8"/>
      </g>
     </g>
     <g id="text_14">
      <!-- 800 -->
      <g transform="translate(20.878125 92.260132)scale(0.1 -0.1)">
       <defs>
        <path id="DejaVuSans-38" d="M 2034 2216 
Q 1584 2216 1326 1975 
Q 1069 1734 1069 1313 
Q 1069 891 1326 650 
Q 1584 409 2034 409 
Q 2484 409 2743 651 
Q 3003 894 3003 1313 
Q 3003 1734 2745 1975 
Q 2488 2216 2034 2216 
z
M 1403 2484 
Q 997 2584 770 2862 
Q 544 3141 544 3541 
Q 544 4100 942 4425 
Q 1341 4750 2034 4750 
Q 2731 4750 3128 4425 
Q 3525 4100 3525 3541 
Q 3525 3141 3298 2862 
Q 3072 2584 2669 2484 
Q 3125 2378 3379 2068 
Q 3634 1759 3634 1313 
Q 3634 634 3220 271 
Q 2806 -91 2034 -91 
Q 1263 -91 848 271 
Q 434 634 434 1313 
Q 434 1759 690 2068 
Q 947 2378 1403 2484 
z
M 1172 3481 
Q 1172 3119 1398 2916 
Q 1625 2713 2034 2713 
Q 2441 2713 2670 2916 
Q 2900 3119 2900 3481 
Q 2900 3844 2670 4047 
Q 2441 4250 2034 4250 
Q 1625 4250 1398 4047 
Q 1172 3844 1172 3481 
z
" transform="scale(0.015625)"/>
       </defs>
       <use xlink:href="#DejaVuSans-38"/>
       <use xlink:href="#DejaVuSans-30" x="63.623047"/>
       <use xlink:href="#DejaVuSans-30" x="127.246094"/>
      </g>
     </g>
    </g>
    <g id="ytick_7">
     <g id="line2d_14">
      <g>
       <use xlink:href="#mefb09c19b4" x="46.965625" y="52.44183" style="stroke: #000000; stroke-width: 0.8"/>
      </g>
     </g>
     <g id="text_15">
      <!-- 900 -->
      <g transform="translate(20.878125 56.241049)scale(0.1 -0.1)">
       <defs>
        <path id="DejaVuSans-39" d="M 703 97 
L 703 672 
Q 941 559 1184 500 
Q 1428 441 1663 441 
Q 2288 441 2617 861 
Q 2947 1281 2994 2138 
Q 2813 1869 2534 1725 
Q 2256 1581 1919 1581 
Q 1219 1581 811 2004 
Q 403 2428 403 3163 
Q 403 3881 828 4315 
Q 1253 4750 1959 4750 
Q 2769 4750 3195 4129 
Q 3622 3509 3622 2328 
Q 3622 1225 3098 567 
Q 2575 -91 1691 -91 
Q 1453 -91 1209 -44 
Q 966 3 703 97 
z
M 1959 2075 
Q 2384 2075 2632 2365 
Q 2881 2656 2881 3163 
Q 2881 3666 2632 3958 
Q 2384 4250 1959 4250 
Q 1534 4250 1286 3958 
Q 1038 3666 1038 3163 
Q 1038 2656 1286 2365 
Q 1534 2075 1959 2075 
z
" transform="scale(0.015625)"/>
       </defs>
       <use xlink:href="#DejaVuSans-39"/>
       <use xlink:href="#DejaVuSans-30" x="63.623047"/>
       <use xlink:href="#DejaVuSans-30" x="127.246094"/>
      </g>
     </g>
    </g>
    <g id="text_16">
     <!-- Wartość -->
     <g transform="translate(14.798438 178.816094)rotate(-90)scale(0.1 -0.1)">
      <defs>
       <path id="DejaVuSans-57" d="M 213 4666 
L 850 4666 
L 1831 722 
L 2809 4666 
L 3519 4666 
L 4500 722 
L 5478 4666 
L 6119 4666 
L 4947 0 
L 4153 0 
L 3169 4050 
L 2175 0 
L 1381 0 
L 213 4666 
z
" transform="scale(0.015625)"/>
       <path id="DejaVuSans-74" d="M 1172 4494 
L 1172 3500 
L 2356 3500 
L 2356 3053 
L 1172 3053 
L 1172 1153 
Q 1172 725 1289 603 
Q 1406 481 1766 481 
L 2356 481 
L 2356 0 
L 1766 0 
Q 1100 0 847 248 
Q 594 497 594 1153 
L 594 3053 
L 172 3053 
L 172 3500 
L 594 3500 
L 594 4494 
L 1172 4494 
z
" transform="scale(0.015625)"/>
       <path id="DejaVuSans-6f" d="M 1959 3097 
Q 1497 3097 1228 2736 
Q 959 2375 959 1747 
Q 959 1119 1226 758 
Q 1494 397 1959 397 
Q 2419 397 2687 759 
Q 2956 1122 2956 1747 
Q 2956 2369 2687 2733 
Q 2419 3097 1959 3097 
z
M 1959 3584 
Q 2709 3584 3137 3096 
Q 3566 2609 3566 1747 
Q 3566 888 3137 398 
Q 2709 -91 1959 -91 
Q 1206 -91 779 398 
Q 353 888 353 1747 
Q 353 2609 779 3096 
Q 1206 3584 1959 3584 
z
" transform="scale(0.015625)"/>
       <path id="DejaVuSans-15b" d="M 2242 5119 
L 2864 5119 
L 1846 3944 
L 1367 3944 
L 2242 5119 
z
M 2834 3397 
L 2834 2853 
Q 2591 2978 2328 3040 
Q 2066 3103 1784 3103 
Q 1356 3103 1142 2972 
Q 928 2841 928 2578 
Q 928 2378 1081 2264 
Q 1234 2150 1697 2047 
L 1894 2003 
Q 2506 1872 2764 1633 
Q 3022 1394 3022 966 
Q 3022 478 2636 193 
Q 2250 -91 1575 -91 
Q 1294 -91 989 -36 
Q 684 19 347 128 
L 347 722 
Q 666 556 975 473 
Q 1284 391 1588 391 
Q 1994 391 2212 530 
Q 2431 669 2431 922 
Q 2431 1156 2273 1281 
Q 2116 1406 1581 1522 
L 1381 1569 
Q 847 1681 609 1914 
Q 372 2147 372 2553 
Q 372 3047 722 3315 
Q 1072 3584 1716 3584 
Q 2034 3584 2315 3537 
Q 2597 3491 2834 3397 
z
" transform="scale(0.015625)"/>
       <path id="DejaVuSans-107" d="M 3122 3366 
L 3122 2828 
Q 2878 2963 2633 3030 
Q 2388 3097 2138 3097 
Q 1578 3097 1268 2742 
Q 959 2388 959 1747 
Q 959 1106 1268 751 
Q 1578 397 2138 397 
Q 2388 397 2633 464 
Q 2878 531 3122 666 
L 3122 134 
Q 2881 22 2623 -34 
Q 2366 -91 2075 -91 
Q 1284 -91 818 406 
Q 353 903 353 1747 
Q 353 2603 823 3093 
Q 1294 3584 2113 3584 
Q 2378 3584 2631 3529 
Q 2884 3475 3122 3366 
z
M 2466 5119 
L 3088 5119 
L 2070 3944 
L 1591 3944 
L 2466 5119 
z
" transform="scale(0.015625)"/>
      </defs>
      <use xlink:href="#DejaVuSans-57"/>
      <use xlink:href="#DejaVuSans-61" x="92.501953"/>
      <use xlink:href="#DejaVuSans-72" x="153.78125"/>
      <use xlink:href="#DejaVuSans-74" x="194.894531"/>
      <use xlink:href="#DejaVuSans-6f" x="234.103516"/>
      <use xlink:href="#DejaVuSans-15b" x="295.285156"/>
      <use xlink:href="#DejaVuSans-107" x="347.384766"/>
     </g>
    </g>
   </g>
   <g id="line2d_15">
    <path d="M 85.01108 78.015379 
L 87.555926 49.200113 
L 90.100772 72.972708 
L 92.645619 66.489273 
L 95.190465 42.356487 
L 97.735312 65.4087 
L 100.280158 63.607746 
L 102.825005 65.768891 
L 107.914698 47.038968 
L 110.459544 78.37557 
L 113.004391 78.015379 
L 115.549237 76.214425 
L 118.094083 47.399159 
L 120.63893 49.560304 
L 123.183776 73.332898 
L 125.728623 81.977478 
L 130.818316 52.081639 
L 133.363162 55.683548 
L 135.908009 58.204884 
L 138.452855 84.498814 
L 140.997702 61.08641 
L 143.542548 66.129082 
L 146.087395 76.214425 
L 148.632241 68.290227 
L 151.177087 63.247555 
L 153.721934 70.451372 
L 156.26678 62.887364 
L 158.811627 68.650418 
L 161.356473 59.645647 
L 163.90132 75.494043 
L 166.446166 74.413471 
L 168.991013 74.05328 
L 171.535859 54.602975 
L 174.080706 78.735761 
L 176.625552 57.484502 
L 179.170398 80.536715 
L 181.715245 57.844693 
L 184.260091 65.048509 
L 186.804938 54.602975 
L 189.349784 53.882594 
L 191.894631 51.001067 
L 194.439477 71.892135 
L 196.984324 72.612517 
L 199.52917 70.811563 
L 202.074017 74.413471 
L 204.618863 65.768891 
L 207.16371 56.403929 
L 209.708556 83.058051 
L 212.253402 61.08641 
L 214.798249 67.569845 
L 217.343095 61.806792 
L 219.887942 64.328128 
L 222.432788 75.854234 
L 224.977635 77.294998 
L 227.522481 86.659959 
L 230.067328 68.290227 
L 232.612174 51.361258 
L 235.157021 75.133853 
L 237.701867 76.934807 
L 240.246713 77.294998 
L 242.79156 66.849463 
L 245.336406 51.001067 
L 247.881253 67.209654 
L 250.426099 41.275915 
L 252.970946 49.920494 
L 255.515792 63.607746 
L 258.060639 67.930036 
L 260.605485 81.617287 
L 263.150332 58.204884 
L 265.695178 61.806792 
L 268.240025 66.849463 
L 270.784871 65.048509 
L 273.329717 66.849463 
L 275.874564 72.972708 
L 278.41941 53.522403 
L 280.964257 70.451372 
L 283.509103 66.849463 
L 286.05395 53.882594 
L 288.598796 67.209654 
L 291.143643 55.323357 
L 293.688489 51.721449 
L 296.233336 39.47496 
L 298.778182 73.693089 
L 301.323028 55.323357 
L 303.867875 71.531944 
L 306.412721 66.849463 
L 308.957568 79.816333 
L 311.502414 74.773662 
L 314.047261 51.361258 
L 316.592107 56.043739 
L 319.136954 55.683548 
L 321.6818 56.043739 
L 324.226647 62.166983 
L 326.771493 61.08641 
L 329.31634 48.479731 
L 331.861186 63.247555 
L 334.406032 55.323357 
L 336.950879 49.200113 
L 339.495725 48.11954 
L 342.040572 63.607746 
L 344.585418 52.081639 
L 347.130265 74.773662 
L 349.675111 46.678777 
L 352.219958 52.44183 
L 354.764804 51.361258 
L 357.309651 65.048509 
L 359.854497 54.963166 
L 362.399343 58.925265 
L 364.94419 63.967937 
L 367.489036 54.602975 
L 370.033883 78.735761 
L 372.578729 52.802021 
L 375.123576 66.849463 
L 377.668422 56.76412 
L 380.213269 52.44183 
L 382.758115 60.366029 
L 385.302962 64.688318 
L 387.847808 43.79725 
L 390.392654 49.920494 
L 392.937501 55.323357 
L 395.482347 67.930036 
L 398.027194 56.403929 
L 400.57204 41.275915 
L 403.116887 56.403929 
L 405.661733 55.683548 
L 408.20658 64.328128 
L 410.751426 65.4087 
L 413.296273 70.811563 
L 415.841119 63.247555 
L 418.385966 61.446601 
L 420.930812 62.887364 
L 423.475658 56.76412 
L 426.020505 66.129082 
L 428.565351 59.285456 
L 431.110198 46.318586 
L 433.655044 43.076869 
L 436.199891 57.484502 
L 438.744737 50.640876 
L 441.289584 62.166983 
L 443.83443 44.877823 
L 446.379277 58.204884 
L 448.924123 42.356487 
L 451.468969 61.446601 
L 454.013816 51.361258 
L 456.558662 46.678777 
L 459.103509 35.15267 
L 461.648355 60.726219 
L 464.193202 50.280685 
L 466.738048 56.76412 
L 469.282895 41.275915 
L 471.827741 62.527174 
L 474.372588 57.844693 
L 476.917434 72.612517 
L 479.462281 57.844693 
L 482.007127 75.494043 
L 484.551973 78.735761 
L 487.09682 51.721449 
L 489.641666 55.323357 
L 492.186513 70.091181 
L 494.731359 62.887364 
L 497.276206 62.527174 
L 499.821052 46.678777 
L 502.365899 83.058051 
L 504.910745 68.290227 
L 507.455592 74.773662 
L 510.000438 60.005838 
L 512.545284 56.403929 
L 515.090131 55.683548 
L 517.634977 65.048509 
L 520.179824 61.806792 
L 522.72467 78.735761 
L 525.269517 83.058051 
L 527.814363 51.361258 
L 530.35921 62.166983 
L 532.904056 78.735761 
L 535.448903 67.569845 
L 537.993749 59.645647 
L 540.538596 71.531944 
L 543.083442 62.527174 
L 545.628288 72.612517 
L 548.173135 70.091181 
L 550.717981 62.166983 
L 553.262828 63.967937 
L 555.807674 72.252326 
L 558.352521 74.05328 
L 560.897367 44.157441 
L 563.442214 79.816333 
L 565.98706 70.811563 
L 568.531907 76.574616 
L 571.076753 59.285456 
L 573.621599 63.607746 
L 576.166446 70.091181 
L 578.711292 62.887364 
L 581.256139 66.129082 
L 583.800985 58.565074 
L 586.345832 51.721449 
L 591.435525 68.650418 
L 593.980371 51.001067 
L 596.525218 52.44183 
L 599.070064 67.569845 
L 601.61491 62.527174 
L 604.159757 52.44183 
L 606.704603 49.920494 
L 609.24945 48.11954 
L 611.794296 54.242784 
L 614.339143 44.877823 
L 616.883989 76.574616 
L 619.428836 91.34244 
L 621.973682 47.399159 
L 624.518529 49.920494 
L 627.063375 63.967937 
L 629.608222 67.930036 
L 632.153068 60.366029 
L 634.697914 58.925265 
L 637.242761 78.735761 
L 639.787607 63.247555 
L 642.332454 53.882594 
L 644.8773 57.484502 
L 647.422147 68.650418 
L 649.966993 76.934807 
L 652.51184 60.726219 
L 655.056686 63.607746 
L 657.601533 78.37557 
L 660.146379 54.963166 
L 662.691225 69.370799 
L 665.236072 60.005838 
L 667.780918 70.451372 
L 670.325765 88.821104 
L 672.870611 54.242784 
L 675.415458 52.081639 
L 677.960304 68.650418 
L 680.505151 67.930036 
L 683.049997 72.612517 
L 685.594844 86.299768 
L 688.13969 64.688318 
L 690.684537 67.209654 
L 693.229383 77.655188 
L 695.774229 78.37557 
L 698.319076 60.366029 
L 700.863922 69.73099 
L 703.408769 65.048509 
L 705.953615 63.967937 
L 708.498462 60.726219 
L 711.043308 55.683548 
L 713.588155 56.403929 
L 716.133001 79.816333 
L 718.677848 68.290227 
L 721.222694 86.299768 
L 723.76754 46.678777 
L 726.312387 57.844693 
L 728.857233 72.612517 
L 731.40208 79.456142 
L 733.946926 61.446601 
L 736.491773 75.854234 
L 739.036619 75.854234 
L 741.581466 65.768891 
L 744.126312 64.328128 
L 746.671159 75.133853 
L 749.216005 65.048509 
L 751.760852 67.930036 
L 754.305698 62.527174 
L 756.850544 60.005838 
L 759.395391 69.370799 
L 761.940237 59.285456 
L 764.485084 64.328128 
L 767.02993 77.294998 
L 769.574777 59.645647 
L 772.119623 53.162212 
L 774.66447 81.977478 
L 777.209316 81.257097 
L 779.754163 55.683548 
L 782.299009 52.44183 
L 784.843855 62.527174 
L 787.388702 57.484502 
L 789.933548 67.209654 
L 792.478395 57.484502 
L 795.023241 76.214425 
L 797.568088 66.129082 
L 800.112934 71.171753 
L 802.657781 88.821104 
L 805.202627 52.081639 
L 807.747474 56.403929 
L 810.29232 61.08641 
L 812.837167 45.238014 
L 815.382013 52.081639 
L 817.926859 84.859005 
L 820.471706 69.010608 
L 823.016552 73.332898 
L 825.561399 45.598205 
L 828.106245 66.129082 
L 830.651092 61.08641 
L 833.195938 75.133853 
L 835.740785 60.366029 
L 838.285631 58.925265 
L 840.830478 62.166983 
L 843.375324 56.76412 
L 845.92017 60.366029 
L 845.92017 60.366029 
" clip-path="url(#p0c5dd10de0)" style="fill: none; stroke: #ff00ff; stroke-width: 0.9; stroke-linecap: square"/>
   </g>
   <g id="line2d_16">
    <path d="M 85.01108 92.423012 
L 87.555926 113.674271 
L 90.100772 107.911218 
L 92.645619 123.399424 
L 95.190465 96.745302 
L 97.735312 110.792745 
L 100.280158 94.223967 
L 102.825005 122.318851 
L 105.369851 88.460913 
L 107.914698 110.072363 
L 110.459544 105.029691 
L 113.004391 103.949119 
L 115.549237 98.546256 
L 118.094083 106.110264 
L 120.63893 96.024921 
L 123.183776 156.897171 
L 125.728623 170.944613 
L 128.273469 143.930301 
L 130.818316 136.726484 
L 133.363162 130.60324 
L 135.908009 174.546522 
L 138.452855 130.963431 
L 140.997702 141.048774 
L 143.542548 168.063087 
L 146.087395 168.783468 
L 148.632241 147.8924 
L 151.177087 115.835416 
L 153.721934 137.807057 
L 156.26678 147.8924 
L 158.811627 169.50385 
L 161.356473 148.972973 
L 163.90132 166.262132 
L 166.446166 159.778697 
L 168.991013 168.423277 
L 171.535859 130.60324 
L 174.080706 133.844958 
L 176.625552 133.484767 
L 179.170398 145.731255 
L 181.715245 147.172018 
L 184.260091 140.688584 
L 186.804938 145.371064 
L 189.349784 131.683813 
L 191.894631 138.167248 
L 194.439477 129.162477 
L 196.984324 160.138888 
L 199.52917 138.527439 
L 202.074017 156.176789 
L 204.618863 145.010873 
L 207.16371 148.612782 
L 209.708556 160.85927 
L 212.253402 119.077134 
L 214.798249 132.764385 
L 217.343095 130.60324 
L 219.887942 159.418507 
L 222.432788 123.039233 
L 224.977635 135.285721 
L 227.522481 157.257362 
L 230.067328 160.138888 
L 232.612174 141.408965 
L 235.157021 152.21469 
L 237.701867 146.451637 
L 240.246713 151.494308 
L 242.79156 150.053545 
L 245.336406 145.731255 
L 247.881253 140.688584 
L 250.426099 173.82614 
L 252.970946 145.371064 
L 255.515792 134.92553 
L 258.060639 148.972973 
L 260.605485 116.555798 
L 263.150332 142.129347 
L 265.695178 158.698125 
L 268.240025 152.574881 
L 270.784871 133.484767 
L 273.329717 121.95866 
L 275.874564 143.930301 
L 278.41941 150.773927 
L 280.964257 149.693354 
L 283.509103 117.63637 
L 286.05395 103.949119 
L 288.598796 92.423012 
L 291.143643 108.271409 
L 293.688489 97.105493 
L 296.233336 90.622058 
L 298.778182 112.593699 
L 301.323028 100.347211 
L 303.867875 101.427783 
L 306.412721 97.825875 
L 308.957568 108.6316 
L 311.502414 96.745302 
L 314.047261 96.745302 
L 316.592107 111.513126 
L 319.136954 106.830646 
L 321.6818 107.911218 
L 324.226647 123.399424 
L 326.771493 102.148165 
L 329.31634 114.394653 
L 331.861186 127.721714 
L 334.406032 115.835416 
L 336.950879 106.110264 
L 339.495725 107.190836 
L 342.040572 119.437325 
L 344.585418 92.062822 
L 347.130265 108.6316 
L 349.675111 96.385111 
L 352.219958 116.555798 
L 354.764804 93.143394 
L 357.309651 116.555798 
L 359.854497 83.418242 
L 362.399343 105.750073 
L 364.94419 83.418242 
L 367.489036 98.186066 
L 370.033883 86.299768 
L 372.578729 105.389882 
L 375.123576 98.546256 
L 377.668422 114.034462 
L 380.213269 100.347211 
L 382.758115 120.157706 
L 385.302962 102.148165 
L 387.847808 85.219196 
L 390.392654 83.778432 
L 392.937501 99.626829 
L 395.482347 111.873317 
L 398.027194 98.186066 
L 400.57204 81.257097 
L 403.116887 106.110264 
L 405.661733 90.982249 
L 408.20658 98.546256 
L 410.751426 119.797515 
L 413.296273 92.783203 
L 415.841119 89.901677 
L 418.385966 126.28095 
L 420.930812 115.475225 
L 423.475658 84.138623 
L 426.020505 98.186066 
L 428.565351 60.726219 
L 431.110198 87.380341 
L 433.655044 92.423012 
L 436.199891 93.503585 
L 438.744737 93.143394 
L 441.289584 96.385111 
L 443.83443 88.100722 
L 446.379277 84.498814 
L 448.924123 94.223967 
L 451.468969 105.389882 
L 454.013816 91.34244 
L 456.558662 90.982249 
L 459.103509 111.513126 
L 461.648355 105.389882 
L 464.193202 92.783203 
L 466.738048 99.98702 
L 469.282895 84.498814 
L 471.827741 102.868546 
L 474.372588 88.821104 
L 476.917434 93.863776 
L 479.462281 108.6316 
L 482.007127 99.98702 
L 484.551973 113.31408 
L 487.09682 129.162477 
L 489.641666 108.991791 
L 492.186513 136.006103 
L 494.731359 154.375835 
L 497.276206 138.167248 
L 499.821052 137.446866 
L 502.365899 161.219461 
L 504.910745 155.096217 
L 507.455592 110.432554 
L 510.000438 139.608011 
L 512.545284 124.119805 
L 515.090131 130.60324 
L 517.634977 124.119805 
L 520.179824 161.939842 
L 522.72467 124.479996 
L 525.269517 121.59847 
L 527.814363 138.167248 
L 530.35921 149.693354 
L 532.904056 136.726484 
L 535.448903 152.21469 
L 537.993749 113.674271 
L 540.538596 130.963431 
L 543.083442 127.001332 
L 545.628288 111.513126 
L 548.173135 118.356752 
L 550.717981 126.28095 
L 553.262828 140.328393 
L 555.807674 150.053545 
L 558.352521 135.645912 
L 560.897367 102.148165 
L 563.442214 151.134118 
L 565.98706 141.408965 
L 568.531907 150.413736 
L 571.076753 116.555798 
L 573.621599 129.162477 
L 576.166446 128.802286 
L 578.711292 134.565339 
L 581.256139 117.27618 
L 583.800985 150.053545 
L 586.345832 149.693354 
L 588.890678 129.882859 
L 591.435525 121.95866 
L 593.980371 137.446866 
L 596.525218 108.271409 
L 599.070064 123.759615 
L 601.61491 137.446866 
L 604.159757 97.105493 
L 606.704603 119.437325 
L 609.24945 138.167248 
L 611.794296 147.532209 
L 614.339143 128.442095 
L 616.883989 132.044004 
L 619.428836 117.996561 
L 621.973682 134.565339 
L 624.518529 121.238279 
L 627.063375 125.560569 
L 629.608222 151.494308 
L 632.153068 129.882859 
L 634.697914 120.878088 
L 637.242761 136.726484 
L 639.787607 115.115035 
L 642.332454 125.200378 
L 644.8773 139.24782 
L 647.422147 124.840187 
L 649.966993 116.555798 
L 652.51184 146.451637 
L 655.056686 130.243049 
L 657.601533 139.608011 
L 660.146379 147.172018 
L 662.691225 129.882859 
L 665.236072 145.371064 
L 667.780918 136.726484 
L 670.325765 108.991791 
L 672.870611 141.408965 
L 675.415458 117.63637 
L 677.960304 142.129347 
L 680.505151 138.167248 
L 683.049997 149.333163 
L 685.594844 140.328393 
L 688.13969 139.24782 
L 690.684537 140.328393 
L 693.229383 121.238279 
L 695.774229 152.574881 
L 698.319076 134.92553 
L 700.863922 148.252591 
L 703.408769 100.707401 
L 705.953615 132.044004 
L 708.498462 123.399424 
L 711.043308 136.006103 
L 713.588155 104.669501 
L 716.133001 127.001332 
L 718.677848 114.754844 
L 721.222694 144.650683 
L 723.76754 92.423012 
L 726.312387 124.479996 
L 728.857233 115.115035 
L 731.40208 150.413736 
L 733.946926 125.560569 
L 736.491773 141.769156 
L 739.036619 136.726484 
L 741.581466 140.688584 
L 744.126312 113.31408 
L 746.671159 140.328393 
L 749.216005 104.30931 
L 751.760852 149.333163 
L 754.305698 123.039233 
L 756.850544 131.683813 
L 759.395391 142.489538 
L 761.940237 145.010873 
L 764.485084 144.650683 
L 767.02993 121.95866 
L 769.574777 146.811828 
L 772.119623 128.081904 
L 774.66447 153.295263 
L 777.209316 153.655453 
L 779.754163 133.484767 
L 782.299009 108.271409 
L 784.843855 126.641141 
L 787.388702 158.337934 
L 789.933548 143.209919 
L 792.478395 105.389882 
L 795.023241 126.28095 
L 797.568088 140.688584 
L 800.112934 131.323622 
L 802.657781 134.205149 
L 805.202627 90.982249 
L 807.747474 138.887629 
L 810.29232 111.152935 
L 812.837167 143.930301 
L 815.382013 113.31408 
L 817.926859 169.143659 
L 820.471706 134.565339 
L 823.016552 165.901942 
L 825.561399 117.27618 
L 828.106245 143.209919 
L 830.651092 133.484767 
L 833.195938 150.053545 
L 835.740785 133.124576 
L 838.285631 126.641141 
L 840.830478 149.333163 
L 843.375324 137.086675 
L 845.92017 151.134118 
L 845.92017 151.134118 
" clip-path="url(#p0c5dd10de0)" style="fill: none; stroke: #9400d3; stroke-width: 0.9; stroke-linecap: square"/>
   </g>
   <g id="line2d_17">
    <path d="M 85.01108 123.399424 
L 87.555926 107.551027 
L 92.645619 104.669501 
L 95.190465 76.214425 
L 97.735312 116.915989 
L 100.280158 88.460913 
L 102.825005 87.380341 
L 105.369851 74.773662 
L 107.914698 90.622058 
L 110.459544 99.626829 
L 113.004391 120.517897 
L 115.549237 94.944348 
L 118.094083 114.754844 
L 120.63893 120.878088 
L 123.183776 139.608011 
L 125.728623 143.57011 
L 128.273469 127.001332 
L 130.818316 129.162477 
L 133.363162 106.830646 
L 135.908009 165.541751 
L 138.452855 122.318851 
L 140.997702 141.769156 
L 143.542548 140.328393 
L 146.087395 136.366294 
L 148.632241 116.555798 
L 151.177087 109.712172 
L 153.721934 140.688584 
L 156.26678 109.712172 
L 158.811627 152.935072 
L 161.356473 145.731255 
L 163.90132 157.977743 
L 166.446166 131.683813 
L 168.991013 144.290492 
L 171.535859 93.863776 
L 174.080706 129.522668 
L 176.625552 104.669501 
L 179.170398 149.693354 
L 181.715245 139.24782 
L 184.260091 129.522668 
L 186.804938 140.688584 
L 189.349784 139.968202 
L 191.894631 114.394653 
L 194.439477 122.318851 
L 196.984324 126.641141 
L 199.52917 110.072363 
L 202.074017 153.655453 
L 204.618863 161.579652 
L 207.16371 133.484767 
L 209.708556 116.195607 
L 212.253402 144.290492 
L 214.798249 131.323622 
L 217.343095 128.442095 
L 219.887942 150.413736 
L 222.432788 115.115035 
L 224.977635 141.048774 
L 227.522481 157.257362 
L 230.067328 115.115035 
L 232.612174 129.162477 
L 235.157021 111.873317 
L 237.701867 116.555798 
L 240.246713 145.010873 
L 242.79156 142.849728 
L 245.336406 125.92076 
L 247.881253 124.479996 
L 250.426099 127.001332 
L 252.970946 145.371064 
L 255.515792 112.95389 
L 258.060639 139.24782 
L 260.605485 115.115035 
L 263.150332 127.001332 
L 265.695178 122.318851 
L 268.240025 133.484767 
L 270.784871 111.152935 
L 273.329717 126.28095 
L 275.874564 121.95866 
L 278.41941 134.565339 
L 280.964257 106.110264 
L 283.509103 98.186066 
L 286.05395 105.029691 
L 288.598796 92.062822 
L 291.143643 108.6316 
L 293.688489 98.546256 
L 296.233336 97.825875 
L 298.778182 99.266638 
L 301.323028 84.859005 
L 303.867875 71.892135 
L 306.412721 100.347211 
L 308.957568 98.186066 
L 311.502414 103.588928 
L 314.047261 104.669501 
L 316.592107 84.498814 
L 319.136954 104.30931 
L 321.6818 97.105493 
L 324.226647 112.95389 
L 326.771493 80.536715 
L 329.31634 99.98702 
L 331.861186 106.830646 
L 334.406032 93.143394 
L 336.950879 107.551027 
L 339.495725 108.991791 
L 342.040572 105.389882 
L 344.585418 87.740532 
L 347.130265 108.6316 
L 349.675111 87.380341 
L 352.219958 105.750073 
L 354.764804 107.190836 
L 357.309651 105.389882 
L 359.854497 96.385111 
L 362.399343 89.901677 
L 364.94419 60.726219 
L 367.489036 100.707401 
L 370.033883 94.223967 
L 372.578729 108.271409 
L 375.123576 100.347211 
L 377.668422 109.712172 
L 380.213269 90.622058 
L 382.758115 105.029691 
L 385.302962 103.228737 
L 387.847808 103.588928 
L 390.392654 92.423012 
L 392.937501 90.261867 
L 395.482347 103.228737 
L 398.027194 96.745302 
L 400.57204 73.693089 
L 403.116887 83.058051 
L 405.661733 105.389882 
L 408.20658 108.271409 
L 410.751426 113.31408 
L 413.296273 82.337669 
L 415.841119 98.906447 
L 418.385966 125.560569 
L 420.930812 116.915989 
L 423.475658 79.095952 
L 426.020505 93.143394 
L 428.565351 81.977478 
L 431.110198 109.351981 
L 433.655044 99.98702 
L 436.199891 117.63637 
L 438.744737 85.939577 
L 441.289584 105.389882 
L 443.83443 102.148165 
L 446.379277 88.821104 
L 448.924123 111.513126 
L 451.468969 103.588928 
L 454.013816 77.294998 
L 456.558662 100.707401 
L 459.103509 107.190836 
L 461.648355 108.991791 
L 464.193202 99.98702 
L 466.738048 89.541486 
L 469.282895 110.072363 
L 471.827741 103.949119 
L 474.372588 78.015379 
L 476.917434 86.659959 
L 479.462281 94.223967 
L 482.007127 90.622058 
L 484.551973 111.513126 
L 487.09682 123.399424 
L 489.641666 112.233508 
L 492.186513 112.95389 
L 494.731359 164.100987 
L 497.276206 113.674271 
L 499.821052 116.915989 
L 502.365899 118.716943 
L 504.910745 146.811828 
L 507.455592 107.911218 
L 510.000438 135.285721 
L 512.545284 121.95866 
L 515.090131 113.674271 
L 517.634977 92.062822 
L 520.179824 138.887629 
L 522.72467 111.513126 
L 525.269517 100.707401 
L 527.814363 97.465684 
L 530.35921 116.195607 
L 532.904056 125.92076 
L 535.448903 122.679042 
L 537.993749 114.034462 
L 540.538596 113.31408 
L 543.083442 123.399424 
L 545.628288 88.460913 
L 548.173135 96.024921 
L 550.717981 116.555798 
L 553.262828 122.318851 
L 555.807674 129.162477 
L 558.352521 129.882859 
L 560.897367 91.34244 
L 563.442214 121.59847 
L 565.98706 115.475225 
L 568.531907 125.200378 
L 571.076753 103.588928 
L 573.621599 129.882859 
L 576.166446 104.30931 
L 578.711292 118.356752 
L 581.256139 94.944348 
L 583.800985 140.688584 
L 586.345832 136.366294 
L 588.890678 126.28095 
L 591.435525 110.072363 
L 593.980371 117.996561 
L 596.525218 88.100722 
L 599.070064 129.522668 
L 601.61491 107.911218 
L 604.159757 101.787974 
L 606.704603 121.238279 
L 614.339143 112.593699 
L 616.883989 106.830646 
L 619.428836 108.6316 
L 621.973682 130.60324 
L 624.518529 119.077134 
L 627.063375 110.072363 
L 629.608222 125.92076 
L 632.153068 124.479996 
L 634.697914 110.792745 
L 637.242761 114.034462 
L 639.787607 112.593699 
L 642.332454 108.991791 
L 644.8773 122.318851 
L 647.422147 98.546256 
L 649.966993 114.394653 
L 652.51184 142.849728 
L 655.056686 94.223967 
L 657.601533 123.399424 
L 660.146379 125.200378 
L 662.691225 120.157706 
L 665.236072 114.394653 
L 667.780918 105.029691 
L 670.325765 91.34244 
L 672.870611 136.006103 
L 675.415458 126.28095 
L 677.960304 129.522668 
L 680.505151 116.915989 
L 683.049997 123.039233 
L 685.594844 101.067592 
L 688.13969 134.565339 
L 690.684537 145.371064 
L 693.229383 101.427783 
L 695.774229 129.162477 
L 698.319076 95.66473 
L 700.863922 133.124576 
L 703.408769 102.148165 
L 705.953615 117.63637 
L 708.498462 109.712172 
L 711.043308 145.371064 
L 713.588155 80.536715 
L 716.133001 133.844958 
L 718.677848 102.148165 
L 721.222694 126.28095 
L 723.76754 120.157706 
L 726.312387 103.949119 
L 728.857233 83.418242 
L 731.40208 116.195607 
L 733.946926 114.754844 
L 736.491773 124.840187 
L 739.036619 87.380341 
L 741.581466 105.029691 
L 744.126312 99.626829 
L 746.671159 96.745302 
L 749.216005 119.437325 
L 751.760852 133.124576 
L 754.305698 98.546256 
L 756.850544 108.6316 
L 759.395391 120.517897 
L 761.940237 108.271409 
L 764.485084 112.593699 
L 767.02993 88.460913 
L 769.574777 118.356752 
L 772.119623 110.072363 
L 774.66447 129.162477 
L 777.209316 131.323622 
L 779.754163 133.124576 
L 782.299009 93.863776 
L 784.843855 137.086675 
L 787.388702 130.60324 
L 789.933548 133.844958 
L 792.478395 102.868546 
L 795.023241 101.787974 
L 797.568088 124.840187 
L 800.112934 105.029691 
L 802.657781 119.797515 
L 805.202627 93.863776 
L 807.747474 137.086675 
L 810.29232 92.783203 
L 812.837167 106.470455 
L 815.382013 101.067592 
L 817.926859 116.555798 
L 820.471706 117.996561 
L 823.016552 122.318851 
L 825.561399 89.541486 
L 828.106245 129.882859 
L 830.651092 127.721714 
L 833.195938 120.157706 
L 835.740785 104.30931 
L 838.285631 125.560569 
L 840.830478 128.802286 
L 843.375324 112.593699 
L 845.92017 125.560569 
L 845.92017 125.560569 
" clip-path="url(#p0c5dd10de0)" style="fill: none; stroke: #00ffff; stroke-width: 0.9; stroke-linecap: square"/>
   </g>
   <g id="line2d_18">
    <path d="M 85.01108 98.546256 
L 87.555926 113.31408 
L 90.100772 92.423012 
L 92.645619 122.679042 
L 95.190465 85.579387 
L 97.735312 125.560569 
L 100.280158 85.939577 
L 102.825005 94.584157 
L 105.369851 74.413471 
L 107.914698 101.427783 
L 110.459544 95.304539 
L 113.004391 97.825875 
L 115.549237 95.304539 
L 118.094083 97.105493 
L 120.63893 118.356752 
L 123.183776 99.626829 
L 125.728623 119.797515 
L 128.273469 99.98702 
L 130.818316 113.31408 
L 133.363162 68.650418 
L 135.908009 119.437325 
L 138.452855 96.385111 
L 140.997702 136.006103 
L 143.542548 116.915989 
L 146.087395 118.716943 
L 148.632241 106.470455 
L 153.721934 114.394653 
L 156.26678 100.347211 
L 158.811627 157.617553 
L 161.356473 125.200378 
L 163.90132 150.053545 
L 166.446166 132.404194 
L 168.991013 134.205149 
L 171.535859 103.588928 
L 174.080706 116.195607 
L 176.625552 93.863776 
L 179.170398 134.565339 
L 181.715245 93.503585 
L 184.260091 94.584157 
L 186.804938 114.754844 
L 189.349784 106.110264 
L 191.894631 116.915989 
L 194.439477 94.944348 
L 196.984324 114.394653 
L 199.52917 108.991791 
L 202.074017 130.243049 
L 204.618863 129.522668 
L 207.16371 120.517897 
L 209.708556 118.716943 
L 212.253402 120.517897 
L 214.798249 102.148165 
L 217.343095 104.30931 
L 219.887942 118.356752 
L 222.432788 97.465684 
L 224.977635 104.30931 
L 227.522481 139.608011 
L 230.067328 112.233508 
L 232.612174 99.98702 
L 235.157021 113.31408 
L 237.701867 124.479996 
L 240.246713 115.835416 
L 242.79156 120.878088 
L 245.336406 103.228737 
L 247.881253 122.679042 
L 250.426099 113.674271 
L 252.970946 151.494308 
L 255.515792 97.105493 
L 258.060639 149.693354 
L 260.605485 90.261867 
L 263.150332 139.24782 
L 265.695178 92.783203 
L 268.240025 120.157706 
L 270.784871 100.347211 
L 273.329717 103.588928 
L 275.874564 103.228737 
L 278.41941 119.437325 
L 280.964257 104.30931 
L 283.509103 93.143394 
L 286.05395 84.859005 
L 288.598796 88.821104 
L 291.143643 99.266638 
L 293.688489 74.773662 
L 296.233336 95.304539 
L 298.778182 85.939577 
L 301.323028 113.674271 
L 303.867875 85.219196 
L 306.412721 96.385111 
L 308.957568 84.859005 
L 311.502414 111.152935 
L 314.047261 106.830646 
L 316.592107 81.617287 
L 319.136954 100.347211 
L 321.6818 99.626829 
L 324.226647 103.949119 
L 326.771493 87.740532 
L 329.31634 92.783203 
L 331.861186 104.30931 
L 334.406032 99.98702 
L 336.950879 101.067592 
L 339.495725 88.460913 
L 342.040572 112.95389 
L 344.585418 84.138623 
L 347.130265 105.029691 
L 349.675111 78.37557 
L 352.219958 92.423012 
L 354.764804 93.143394 
L 357.309651 94.944348 
L 359.854497 90.982249 
L 362.399343 82.69786 
L 364.94419 84.138623 
L 367.489036 75.494043 
L 370.033883 61.446601 
L 372.578729 114.394653 
L 375.123576 69.73099 
L 377.668422 79.456142 
L 380.213269 86.659959 
L 382.758115 106.110264 
L 385.302962 92.783203 
L 387.847808 102.148165 
L 390.392654 69.73099 
L 392.937501 100.707401 
L 395.482347 96.385111 
L 398.027194 87.740532 
L 400.57204 69.370799 
L 403.116887 72.972708 
L 405.661733 106.470455 
L 408.20658 90.622058 
L 410.751426 91.34244 
L 413.296273 79.456142 
L 415.841119 61.806792 
L 418.385966 111.873317 
L 420.930812 101.787974 
L 423.475658 74.05328 
L 426.020505 94.584157 
L 428.565351 61.806792 
L 431.110198 88.460913 
L 433.655044 74.773662 
L 436.199891 101.427783 
L 438.744737 79.456142 
L 441.289584 102.868546 
L 443.83443 86.659959 
L 446.379277 77.655188 
L 448.924123 99.626829 
L 451.468969 88.821104 
L 454.013816 99.266638 
L 456.558662 108.991791 
L 459.103509 98.906447 
L 461.648355 85.219196 
L 464.193202 90.982249 
L 466.738048 90.622058 
L 469.282895 70.811563 
L 471.827741 99.626829 
L 474.372588 80.536715 
L 476.917434 84.859005 
L 479.462281 91.702631 
L 482.007127 86.299768 
L 484.551973 107.911218 
L 487.09682 80.896906 
L 489.641666 104.669501 
L 492.186513 105.389882 
L 494.731359 127.721714 
L 497.276206 83.778432 
L 499.821052 125.560569 
L 502.365899 96.385111 
L 504.910745 132.404194 
L 507.455592 82.337669 
L 510.000438 101.067592 
L 512.545284 92.423012 
L 515.090131 84.859005 
L 517.634977 80.536715 
L 520.179824 145.010873 
L 522.72467 86.659959 
L 525.269517 106.470455 
L 527.814363 69.370799 
L 530.35921 117.996561 
L 532.904056 108.991791 
L 535.448903 111.873317 
L 537.993749 76.214425 
L 540.538596 127.001332 
L 543.083442 88.821104 
L 545.628288 98.906447 
L 548.173135 74.05328 
L 550.717981 81.617287 
L 553.262828 115.835416 
L 555.807674 112.95389 
L 558.352521 116.915989 
L 560.897367 76.214425 
L 563.442214 87.02015 
L 565.98706 114.034462 
L 568.531907 106.110264 
L 571.076753 88.460913 
L 573.621599 133.124576 
L 576.166446 88.821104 
L 581.256139 98.186066 
L 583.800985 132.764385 
L 586.345832 95.304539 
L 588.890678 112.95389 
L 591.435525 94.584157 
L 593.980371 112.593699 
L 596.525218 97.825875 
L 599.070064 67.569845 
L 601.61491 81.257097 
L 604.159757 92.062822 
L 606.704603 78.015379 
L 609.24945 90.261867 
L 611.794296 100.707401 
L 614.339143 94.584157 
L 616.883989 97.825875 
L 619.428836 93.503585 
L 621.973682 123.399424 
L 624.518529 95.66473 
L 627.063375 109.712172 
L 629.608222 115.475225 
L 632.153068 94.584157 
L 634.697914 100.347211 
L 637.242761 116.555798 
L 639.787607 97.825875 
L 642.332454 88.460913 
L 644.8773 85.219196 
L 647.422147 110.072363 
L 649.966993 95.304539 
L 652.51184 104.669501 
L 655.056686 74.413471 
L 657.601533 99.98702 
L 660.146379 98.546256 
L 662.691225 93.863776 
L 665.236072 106.110264 
L 667.780918 106.830646 
L 670.325765 63.247555 
L 672.870611 129.522668 
L 675.415458 84.498814 
L 677.960304 105.750073 
L 680.505151 110.072363 
L 683.049997 116.555798 
L 685.594844 95.66473 
L 688.13969 106.110264 
L 690.684537 138.527439 
L 693.229383 105.389882 
L 695.774229 117.996561 
L 698.319076 100.347211 
L 700.863922 110.792745 
L 703.408769 97.105493 
L 705.953615 123.759615 
L 708.498462 69.370799 
L 711.043308 113.31408 
L 713.588155 95.304539 
L 716.133001 87.02015 
L 718.677848 81.617287 
L 721.222694 115.475225 
L 723.76754 82.69786 
L 726.312387 83.778432 
L 728.857233 56.76412 
L 731.40208 100.707401 
L 733.946926 91.702631 
L 736.491773 114.034462 
L 739.036619 71.531944 
L 741.581466 107.551027 
L 744.126312 87.740532 
L 746.671159 103.588928 
L 749.216005 103.588928 
L 751.760852 128.081904 
L 754.305698 68.650418 
L 756.850544 81.617287 
L 759.395391 97.105493 
L 761.940237 68.290227 
L 764.485084 112.233508 
L 767.02993 70.091181 
L 769.574777 88.821104 
L 772.119623 101.067592 
L 774.66447 123.399424 
L 777.209316 107.190836 
L 779.754163 105.029691 
L 782.299009 71.531944 
L 784.843855 109.351981 
L 787.388702 128.802286 
L 789.933548 125.92076 
L 792.478395 87.740532 
L 795.023241 107.551027 
L 797.568088 89.901677 
L 800.112934 106.470455 
L 802.657781 115.475225 
L 805.202627 68.650418 
L 807.747474 125.92076 
L 810.29232 60.005838 
L 812.837167 115.835416 
L 815.382013 66.489273 
L 817.926859 99.98702 
L 820.471706 123.039233 
L 823.016552 131.323622 
L 825.561399 75.494043 
L 828.106245 107.551027 
L 830.651092 110.072363 
L 833.195938 128.081904 
L 835.740785 96.745302 
L 838.285631 111.513126 
L 840.830478 114.754844 
L 843.375324 58.565074 
L 845.92017 127.721714 
L 845.92017 127.721714 
" clip-path="url(#p0c5dd10de0)" style="fill: none; stroke: #ffa500; stroke-width: 0.9; stroke-linecap: square"/>
   </g>
   <g id="line2d_19">
    <path d="M 85.01108 220.650948 
L 87.555926 219.570375 
L 90.100772 221.371329 
L 92.645619 226.414001 
L 95.190465 206.603505 
L 97.735312 232.177054 
L 100.280158 221.011139 
L 102.825005 213.447131 
L 105.369851 189.314346 
L 107.914698 212.006368 
L 110.459544 225.693619 
L 113.004391 238.300298 
L 115.549237 212.726749 
L 118.094083 196.157971 
L 120.63893 216.328658 
L 123.183776 254.508886 
L 125.728623 260.63213 
L 128.273469 242.262397 
L 130.818316 244.063352 
L 133.363162 255.589458 
L 135.908009 260.63213 
L 138.452855 212.006368 
L 140.997702 267.835946 
L 143.542548 261.712702 
L 146.087395 239.741062 
L 148.632241 235.778963 
L 151.177087 236.499344 
L 153.721934 238.300298 
L 156.26678 244.063352 
L 158.811627 282.24358 
L 161.356473 249.466214 
L 163.90132 257.390412 
L 166.446166 239.02068 
L 168.991013 258.110794 
L 171.535859 212.366559 
L 174.080706 247.66526 
L 176.625552 231.456673 
L 179.170398 241.902207 
L 181.715245 243.703161 
L 184.260091 228.935337 
L 186.804938 235.418772 
L 189.349784 222.812093 
L 191.894631 234.69839 
L 194.439477 222.091711 
L 196.984324 252.347741 
L 199.52917 222.451902 
L 202.074017 257.390412 
L 204.618863 234.338199 
L 207.16371 237.579917 
L 209.708556 257.030221 
L 212.253402 236.499344 
L 214.798249 254.148695 
L 217.343095 240.101252 
L 219.887942 250.546787 
L 222.432788 205.522933 
L 224.977635 227.854764 
L 227.522481 255.229267 
L 230.067328 238.300298 
L 232.612174 224.973238 
L 235.157021 231.816863 
L 237.701867 241.902207 
L 240.246713 243.34297 
L 242.79156 224.973238 
L 245.336406 223.172283 
L 247.881253 218.849994 
L 250.426099 237.579917 
L 252.970946 235.418772 
L 255.515792 228.575146 
L 258.060639 240.101252 
L 260.605485 230.015909 
L 263.150332 250.906977 
L 265.695178 242.622588 
L 268.240025 239.380871 
L 270.784871 235.058581 
L 273.329717 238.660489 
L 275.874564 223.532474 
L 278.41941 228.575146 
L 280.964257 226.414001 
L 283.509103 212.726749 
L 286.05395 209.845223 
L 288.598796 212.726749 
L 291.143643 226.414001 
L 293.688489 223.532474 
L 296.233336 221.73152 
L 298.778182 207.684078 
L 301.323028 215.248085 
L 303.867875 196.878353 
L 306.412721 214.167513 
L 308.957568 204.802551 
L 311.502414 204.44236 
L 314.047261 230.736291 
L 316.592107 209.124841 
L 319.136954 217.049039 
L 321.6818 210.925795 
L 324.226647 245.504115 
L 326.771493 191.47549 
L 329.31634 204.08217 
L 331.861186 213.807322 
L 334.406032 197.598735 
L 336.950879 206.963696 
L 339.495725 210.565604 
L 342.040572 199.399689 
L 344.585418 186.432819 
L 347.130265 227.134383 
L 349.675111 184.271674 
L 352.219958 200.480261 
L 354.764804 215.608276 
L 357.309651 205.883124 
L 359.854497 203.001597 
L 362.399343 218.129612 
L 364.94419 175.627094 
L 367.489036 210.925795 
L 370.033883 193.636635 
L 372.578729 206.603505 
L 375.123576 199.039498 
L 377.668422 229.295528 
L 380.213269 205.522933 
L 382.758115 234.338199 
L 385.302962 227.494573 
L 387.847808 206.603505 
L 390.392654 177.067857 
L 392.937501 206.963696 
L 395.482347 201.560834 
L 398.027194 190.034727 
L 400.57204 150.773927 
L 403.116887 209.124841 
L 405.661733 212.726749 
L 408.20658 215.248085 
L 410.751426 208.76465 
L 413.296273 176.347476 
L 415.841119 231.816863 
L 418.385966 216.328658 
L 420.930812 259.191366 
L 423.475658 177.788239 
L 426.020505 181.750338 
L 428.565351 178.868811 
L 431.110198 220.650948 
L 433.655044 210.925795 
L 436.199891 220.290757 
L 438.744737 211.646177 
L 441.289584 230.736291 
L 443.83443 190.755109 
L 446.379277 194.357017 
L 448.924123 207.323887 
L 451.468969 216.328658 
L 454.013816 214.167513 
L 456.558662 220.650948 
L 459.103509 227.494573 
L 461.648355 217.40923 
L 464.193202 202.641406 
L 466.738048 201.200643 
L 469.282895 194.357017 
L 471.827741 193.996826 
L 474.372588 169.50385 
L 476.917434 178.868811 
L 479.462281 203.721979 
L 482.007127 176.707666 
L 484.551973 219.930566 
L 487.09682 206.243315 
L 489.641666 221.371329 
L 492.186513 224.613047 
L 494.731359 246.224497 
L 497.276206 230.736291 
L 499.821052 212.366559 
L 502.365899 248.745832 
L 504.910745 265.314611 
L 507.455592 210.565604 
L 510.000438 239.380871 
L 512.545284 233.978008 
L 515.090131 236.139153 
L 517.634977 190.394918 
L 520.179824 270.717473 
L 522.72467 230.015909 
L 525.269517 228.214955 
L 527.814363 217.40923 
L 530.35921 267.475756 
L 532.904056 237.579917 
L 535.448903 250.186596 
L 537.993749 192.195872 
L 540.538596 226.774192 
L 543.083442 209.485032 
L 545.628288 208.044269 
L 548.173135 184.271674 
L 550.717981 236.499344 
L 553.262828 247.66526 
L 555.807674 240.101252 
L 558.352521 246.944878 
L 560.897367 183.551292 
L 563.442214 210.205414 
L 565.98706 225.693619 
L 568.531907 267.475756 
L 571.076753 213.08694 
L 573.621599 252.347741 
L 576.166446 225.333428 
L 581.256139 203.361788 
L 583.800985 248.025451 
L 586.345832 230.736291 
L 588.890678 243.34297 
L 591.435525 227.134383 
L 593.980371 245.864306 
L 596.525218 203.721979 
L 599.070064 225.333428 
L 601.61491 218.129612 
L 604.159757 201.560834 
L 606.704603 209.845223 
L 609.24945 236.859535 
L 611.794296 257.030221 
L 614.339143 221.011139 
L 616.883989 225.333428 
L 619.428836 237.219726 
L 621.973682 245.504115 
L 624.518529 217.049039 
L 627.063375 208.044269 
L 629.608222 267.115565 
L 632.153068 221.73152 
L 634.697914 226.774192 
L 637.242761 218.849994 
L 639.787607 233.257627 
L 642.332454 232.897436 
L 644.8773 214.887894 
L 647.422147 216.688849 
L 649.966993 215.248085 
L 652.51184 240.821634 
L 655.056686 216.328658 
L 657.601533 231.096482 
L 660.146379 233.257627 
L 662.691225 212.006368 
L 665.236072 242.262397 
L 667.780918 221.011139 
L 670.325765 167.342705 
L 672.870611 237.940108 
L 675.415458 240.461443 
L 677.960304 234.69839 
L 680.505151 235.778963 
L 683.049997 235.058581 
L 685.594844 248.025451 
L 688.13969 235.058581 
L 690.684537 261.712702 
L 693.229383 224.252856 
L 695.774229 247.66526 
L 698.319076 218.129612 
L 700.863922 219.210184 
L 703.408769 205.162742 
L 705.953615 204.44236 
L 708.498462 208.044269 
L 711.043308 226.774192 
L 713.588155 220.290757 
L 716.133001 232.177054 
L 718.677848 224.973238 
L 721.222694 239.02068 
L 723.76754 210.205414 
L 726.312387 216.688849 
L 728.857233 183.911483 
L 731.40208 225.333428 
L 733.946926 210.205414 
L 736.491773 237.579917 
L 739.036619 197.238544 
L 741.581466 222.812093 
L 744.126312 181.750338 
L 746.671159 244.063352 
L 749.216005 190.755109 
L 751.760852 244.063352 
L 754.305698 188.233773 
L 756.850544 207.684078 
L 759.395391 224.613047 
L 761.940237 239.380871 
L 764.485084 245.504115 
L 767.02993 216.688849 
L 769.574777 224.613047 
L 772.119623 213.447131 
L 774.66447 278.28148 
L 777.209316 238.660489 
L 779.754163 227.134383 
L 782.299009 199.75988 
L 784.843855 251.627359 
L 787.388702 241.181825 
L 789.933548 221.371329 
L 792.478395 193.636635 
L 795.023241 230.015909 
L 797.568088 233.257627 
L 800.112934 217.049039 
L 802.657781 230.015909 
L 805.202627 159.778697 
L 807.747474 248.385642 
L 810.29232 227.494573 
L 812.837167 224.252856 
L 815.382013 187.153201 
L 817.926859 235.778963 
L 820.471706 231.096482 
L 823.016552 257.750603 
L 825.561399 186.072628 
L 828.106245 235.778963 
L 830.651092 224.973238 
L 833.195938 253.788504 
L 835.740785 235.058581 
L 838.285631 231.456673 
L 840.830478 242.982779 
L 843.375324 203.001597 
L 845.92017 244.063352 
L 845.92017 244.063352 
" clip-path="url(#p0c5dd10de0)" style="fill: none; stroke: #ff4500; stroke-width: 0.9; stroke-linecap: square"/>
   </g>
   <g id="patch_3">
    <path d="M 46.965625 294.598125 
L 46.965625 22.798125 
" style="fill: none; stroke: #000000; stroke-width: 0.8; stroke-linejoin: miter; stroke-linecap: square"/>
   </g>
   <g id="patch_4">
    <path d="M 883.965625 294.598125 
L 883.965625 22.798125 
" style="fill: none; stroke: #000000; stroke-width: 0.8; stroke-linejoin: miter; stroke-linecap: square"/>
   </g>
   <g id="patch_5">
    <path d="M 46.965625 294.598125 
L 883.965625 294.598125 
" style="fill: none; stroke: #000000; stroke-width: 0.8; stroke-linejoin: miter; stroke-linecap: square"/>
   </g>
   <g id="patch_6">
    <path d="M 46.965625 22.798125 
L 883.965625 22.798125 
" style="fill: none; stroke: #000000; stroke-width: 0.8; stroke-linejoin: miter; stroke-linecap: square"/>
   </g>
   <g id="text_17">
    <!-- Liczba przejść pochodnej przez 0 z próbki 1 sekunda -->
    <g transform="translate(307.827813 16.798125)scale(0.12 -0.12)">
     <defs>
      <path id="DejaVuSans-4c" d="M 628 4666 
L 1259 4666 
L 1259 531 
L 3531 531 
L 3531 0 
L 628 0 
L 628 4666 
z
" transform="scale(0.015625)"/>
      <path id="DejaVuSans-69" d="M 603 3500 
L 1178 3500 
L 1178 0 
L 603 0 
L 603 3500 
z
M 603 4863 
L 1178 4863 
L 1178 4134 
L 603 4134 
L 603 4863 
z
" transform="scale(0.015625)"/>
      <path id="DejaVuSans-63" d="M 3122 3366 
L 3122 2828 
Q 2878 2963 2633 3030 
Q 2388 3097 2138 3097 
Q 1578 3097 1268 2742 
Q 959 2388 959 1747 
Q 959 1106 1268 751 
Q 1578 397 2138 397 
Q 2388 397 2633 464 
Q 2878 531 3122 666 
L 3122 134 
Q 2881 22 2623 -34 
Q 2366 -91 2075 -91 
Q 1284 -91 818 406 
Q 353 903 353 1747 
Q 353 2603 823 3093 
Q 1294 3584 2113 3584 
Q 2378 3584 2631 3529 
Q 2884 3475 3122 3366 
z
" transform="scale(0.015625)"/>
      <path id="DejaVuSans-7a" d="M 353 3500 
L 3084 3500 
L 3084 2975 
L 922 459 
L 3084 459 
L 3084 0 
L 275 0 
L 275 525 
L 2438 3041 
L 353 3041 
L 353 3500 
z
" transform="scale(0.015625)"/>
      <path id="DejaVuSans-20" transform="scale(0.015625)"/>
      <path id="DejaVuSans-70" d="M 1159 525 
L 1159 -1331 
L 581 -1331 
L 581 3500 
L 1159 3500 
L 1159 2969 
Q 1341 3281 1617 3432 
Q 1894 3584 2278 3584 
Q 2916 3584 3314 3078 
Q 3713 2572 3713 1747 
Q 3713 922 3314 415 
Q 2916 -91 2278 -91 
Q 1894 -91 1617 61 
Q 1341 213 1159 525 
z
M 3116 1747 
Q 3116 2381 2855 2742 
Q 2594 3103 2138 3103 
Q 1681 3103 1420 2742 
Q 1159 2381 1159 1747 
Q 1159 1113 1420 752 
Q 1681 391 2138 391 
Q 2594 391 2855 752 
Q 3116 1113 3116 1747 
z
" transform="scale(0.015625)"/>
      <path id="DejaVuSans-65" d="M 3597 1894 
L 3597 1613 
L 953 1613 
Q 991 1019 1311 708 
Q 1631 397 2203 397 
Q 2534 397 2845 478 
Q 3156 559 3463 722 
L 3463 178 
Q 3153 47 2828 -22 
Q 2503 -91 2169 -91 
Q 1331 -91 842 396 
Q 353 884 353 1716 
Q 353 2575 817 3079 
Q 1281 3584 2069 3584 
Q 2775 3584 3186 3129 
Q 3597 2675 3597 1894 
z
M 3022 2063 
Q 3016 2534 2758 2815 
Q 2500 3097 2075 3097 
Q 1594 3097 1305 2825 
Q 1016 2553 972 2059 
L 3022 2063 
z
" transform="scale(0.015625)"/>
      <path id="DejaVuSans-6a" d="M 603 3500 
L 1178 3500 
L 1178 -63 
Q 1178 -731 923 -1031 
Q 669 -1331 103 -1331 
L -116 -1331 
L -116 -844 
L 38 -844 
Q 366 -844 484 -692 
Q 603 -541 603 -63 
L 603 3500 
z
M 603 4863 
L 1178 4863 
L 1178 4134 
L 603 4134 
L 603 4863 
z
" transform="scale(0.015625)"/>
      <path id="DejaVuSans-68" d="M 3513 2113 
L 3513 0 
L 2938 0 
L 2938 2094 
Q 2938 2591 2744 2837 
Q 2550 3084 2163 3084 
Q 1697 3084 1428 2787 
Q 1159 2491 1159 1978 
L 1159 0 
L 581 0 
L 581 4863 
L 1159 4863 
L 1159 2956 
Q 1366 3272 1645 3428 
Q 1925 3584 2291 3584 
Q 2894 3584 3203 3211 
Q 3513 2838 3513 2113 
z
" transform="scale(0.015625)"/>
      <path id="DejaVuSans-64" d="M 2906 2969 
L 2906 4863 
L 3481 4863 
L 3481 0 
L 2906 0 
L 2906 525 
Q 2725 213 2448 61 
Q 2172 -91 1784 -91 
Q 1150 -91 751 415 
Q 353 922 353 1747 
Q 353 2572 751 3078 
Q 1150 3584 1784 3584 
Q 2172 3584 2448 3432 
Q 2725 3281 2906 2969 
z
M 947 1747 
Q 947 1113 1208 752 
Q 1469 391 1925 391 
Q 2381 391 2643 752 
Q 2906 1113 2906 1747 
Q 2906 2381 2643 2742 
Q 2381 3103 1925 3103 
Q 1469 3103 1208 2742 
Q 947 2381 947 1747 
z
" transform="scale(0.015625)"/>
      <path id="DejaVuSans-6e" d="M 3513 2113 
L 3513 0 
L 2938 0 
L 2938 2094 
Q 2938 2591 2744 2837 
Q 2550 3084 2163 3084 
Q 1697 3084 1428 2787 
Q 1159 2491 1159 1978 
L 1159 0 
L 581 0 
L 581 3500 
L 1159 3500 
L 1159 2956 
Q 1366 3272 1645 3428 
Q 1925 3584 2291 3584 
Q 2894 3584 3203 3211 
Q 3513 2838 3513 2113 
z
" transform="scale(0.015625)"/>
      <path id="DejaVuSans-73" d="M 2834 3397 
L 2834 2853 
Q 2591 2978 2328 3040 
Q 2066 3103 1784 3103 
Q 1356 3103 1142 2972 
Q 928 2841 928 2578 
Q 928 2378 1081 2264 
Q 1234 2150 1697 2047 
L 1894 2003 
Q 2506 1872 2764 1633 
Q 3022 1394 3022 966 
Q 3022 478 2636 193 
Q 2250 -91 1575 -91 
Q 1294 -91 989 -36 
Q 684 19 347 128 
L 347 722 
Q 666 556 975 473 
Q 1284 391 1588 391 
Q 1994 391 2212 530 
Q 2431 669 2431 922 
Q 2431 1156 2273 1281 
Q 2116 1406 1581 1522 
L 1381 1569 
Q 847 1681 609 1914 
Q 372 2147 372 2553 
Q 372 3047 722 3315 
Q 1072 3584 1716 3584 
Q 2034 3584 2315 3537 
Q 2597 3491 2834 3397 
z
" transform="scale(0.015625)"/>
      <path id="DejaVuSans-75" d="M 544 1381 
L 544 3500 
L 1119 3500 
L 1119 1403 
Q 1119 906 1312 657 
Q 1506 409 1894 409 
Q 2359 409 2629 706 
Q 2900 1003 2900 1516 
L 2900 3500 
L 3475 3500 
L 3475 0 
L 2900 0 
L 2900 538 
Q 2691 219 2414 64 
Q 2138 -91 1772 -91 
Q 1169 -91 856 284 
Q 544 659 544 1381 
z
M 1991 3584 
L 1991 3584 
z
" transform="scale(0.015625)"/>
     </defs>
     <use xlink:href="#DejaVuSans-4c"/>
     <use xlink:href="#DejaVuSans-69" x="55.712891"/>
     <use xlink:href="#DejaVuSans-63" x="83.496094"/>
     <use xlink:href="#DejaVuSans-7a" x="138.476562"/>
     <use xlink:href="#DejaVuSans-62" x="190.966797"/>
     <use xlink:href="#DejaVuSans-61" x="254.443359"/>
     <use xlink:href="#DejaVuSans-20" x="315.722656"/>
     <use xlink:href="#DejaVuSans-70" x="347.509766"/>
     <use xlink:href="#DejaVuSans-72" x="410.986328"/>
     <use xlink:href="#DejaVuSans-7a" x="452.099609"/>
     <use xlink:href="#DejaVuSans-65" x="504.589844"/>
     <use xlink:href="#DejaVuSans-6a" x="566.113281"/>
     <use xlink:href="#DejaVuSans-15b" x="593.896484"/>
     <use xlink:href="#DejaVuSans-107" x="645.996094"/>
     <use xlink:href="#DejaVuSans-20" x="700.976562"/>
     <use xlink:href="#DejaVuSans-70" x="732.763672"/>
     <use xlink:href="#DejaVuSans-6f" x="796.240234"/>
     <use xlink:href="#DejaVuSans-63" x="857.421875"/>
     <use xlink:href="#DejaVuSans-68" x="912.402344"/>
     <use xlink:href="#DejaVuSans-6f" x="975.78125"/>
     <use xlink:href="#DejaVuSans-64" x="1036.962891"/>
     <use xlink:href="#DejaVuSans-6e" x="1100.439453"/>
     <use xlink:href="#DejaVuSans-65" x="1163.818359"/>
     <use xlink:href="#DejaVuSans-6a" x="1225.341797"/>
     <use xlink:href="#DejaVuSans-20" x="1253.125"/>
     <use xlink:href="#DejaVuSans-70" x="1284.912109"/>
     <use xlink:href="#DejaVuSans-72" x="1348.388672"/>
     <use xlink:href="#DejaVuSans-7a" x="1389.501953"/>
     <use xlink:href="#DejaVuSans-65" x="1441.992188"/>
     <use xlink:href="#DejaVuSans-7a" x="1503.515625"/>
     <use xlink:href="#DejaVuSans-20" x="1556.005859"/>
     <use xlink:href="#DejaVuSans-30" x="1587.792969"/>
     <use xlink:href="#DejaVuSans-20" x="1651.416016"/>
     <use xlink:href="#DejaVuSans-7a" x="1683.203125"/>
     <use xlink:href="#DejaVuSans-20" x="1735.693359"/>
     <use xlink:href="#DejaVuSans-70" x="1767.480469"/>
     <use xlink:href="#DejaVuSans-72" x="1830.957031"/>
     <use xlink:href="#DejaVuSans-f3" x="1869.820312"/>
     <use xlink:href="#DejaVuSans-62" x="1931.001953"/>
     <use xlink:href="#DejaVuSans-6b" x="1994.478516"/>
     <use xlink:href="#DejaVuSans-69" x="2052.388672"/>
     <use xlink:href="#DejaVuSans-20" x="2080.171875"/>
     <use xlink:href="#DejaVuSans-31" x="2111.958984"/>
     <use xlink:href="#DejaVuSans-20" x="2175.582031"/>
     <use xlink:href="#DejaVuSans-73" x="2207.369141"/>
     <use xlink:href="#DejaVuSans-65" x="2259.46875"/>
     <use xlink:href="#DejaVuSans-6b" x="2320.992188"/>
     <use xlink:href="#DejaVuSans-75" x="2375.777344"/>
     <use xlink:href="#DejaVuSans-6e" x="2439.15625"/>
     <use xlink:href="#DejaVuSans-64" x="2502.535156"/>
     <use xlink:href="#DejaVuSans-61" x="2566.011719"/>
    </g>
   </g>
   <g id="legend_1">
    <g id="patch_7">
     <path d="M 799.83125 105.579375 
L 876.965625 105.579375 
Q 878.965625 105.579375 878.965625 103.579375 
L 878.965625 29.798125 
Q 878.965625 27.798125 876.965625 27.798125 
L 799.83125 27.798125 
Q 797.83125 27.798125 797.83125 29.798125 
L 797.83125 103.579375 
Q 797.83125 105.579375 799.83125 105.579375 
z
" style="fill: #ffffff; opacity: 0.8; stroke: #cccccc; stroke-linejoin: miter"/>
    </g>
    <g id="line2d_20">
     <path d="M 801.83125 35.896563 
L 811.83125 35.896563 
L 821.83125 35.896563 
" style="fill: none; stroke: #ff00ff; stroke-width: 0.9; stroke-linecap: square"/>
    </g>
    <g id="text_18">
     <!-- CH1_2KS -->
     <g transform="translate(829.83125 39.396563)scale(0.1 -0.1)">
      <defs>
       <path id="DejaVuSans-43" d="M 4122 4306 
L 4122 3641 
Q 3803 3938 3442 4084 
Q 3081 4231 2675 4231 
Q 1875 4231 1450 3742 
Q 1025 3253 1025 2328 
Q 1025 1406 1450 917 
Q 1875 428 2675 428 
Q 3081 428 3442 575 
Q 3803 722 4122 1019 
L 4122 359 
Q 3791 134 3420 21 
Q 3050 -91 2638 -91 
Q 1578 -91 968 557 
Q 359 1206 359 2328 
Q 359 3453 968 4101 
Q 1578 4750 2638 4750 
Q 3056 4750 3426 4639 
Q 3797 4528 4122 4306 
z
" transform="scale(0.015625)"/>
       <path id="DejaVuSans-48" d="M 628 4666 
L 1259 4666 
L 1259 2753 
L 3553 2753 
L 3553 4666 
L 4184 4666 
L 4184 0 
L 3553 0 
L 3553 2222 
L 1259 2222 
L 1259 0 
L 628 0 
L 628 4666 
z
" transform="scale(0.015625)"/>
       <path id="DejaVuSans-5f" d="M 3263 -1063 
L 3263 -1509 
L -63 -1509 
L -63 -1063 
L 3263 -1063 
z
" transform="scale(0.015625)"/>
       <path id="DejaVuSans-4b" d="M 628 4666 
L 1259 4666 
L 1259 2694 
L 3353 4666 
L 4166 4666 
L 1850 2491 
L 4331 0 
L 3500 0 
L 1259 2247 
L 1259 0 
L 628 0 
L 628 4666 
z
" transform="scale(0.015625)"/>
       <path id="DejaVuSans-53" d="M 3425 4513 
L 3425 3897 
Q 3066 4069 2747 4153 
Q 2428 4238 2131 4238 
Q 1616 4238 1336 4038 
Q 1056 3838 1056 3469 
Q 1056 3159 1242 3001 
Q 1428 2844 1947 2747 
L 2328 2669 
Q 3034 2534 3370 2195 
Q 3706 1856 3706 1288 
Q 3706 609 3251 259 
Q 2797 -91 1919 -91 
Q 1588 -91 1214 -16 
Q 841 59 441 206 
L 441 856 
Q 825 641 1194 531 
Q 1563 422 1919 422 
Q 2459 422 2753 634 
Q 3047 847 3047 1241 
Q 3047 1584 2836 1778 
Q 2625 1972 2144 2069 
L 1759 2144 
Q 1053 2284 737 2584 
Q 422 2884 422 3419 
Q 422 4038 858 4394 
Q 1294 4750 2059 4750 
Q 2388 4750 2728 4690 
Q 3069 4631 3425 4513 
z
" transform="scale(0.015625)"/>
      </defs>
      <use xlink:href="#DejaVuSans-43"/>
      <use xlink:href="#DejaVuSans-48" x="69.824219"/>
      <use xlink:href="#DejaVuSans-31" x="145.019531"/>
      <use xlink:href="#DejaVuSans-5f" x="208.642578"/>
      <use xlink:href="#DejaVuSans-32" x="258.642578"/>
      <use xlink:href="#DejaVuSans-4b" x="322.265625"/>
      <use xlink:href="#DejaVuSans-53" x="387.841797"/>
     </g>
    </g>
    <g id="line2d_21">
     <path d="M 801.83125 50.852813 
L 811.83125 50.852813 
L 821.83125 50.852813 
" style="fill: none; stroke: #9400d3; stroke-width: 0.9; stroke-linecap: square"/>
    </g>
    <g id="text_19">
     <!-- CH2_2KS -->
     <g transform="translate(829.83125 54.352813)scale(0.1 -0.1)">
      <use xlink:href="#DejaVuSans-43"/>
      <use xlink:href="#DejaVuSans-48" x="69.824219"/>
      <use xlink:href="#DejaVuSans-32" x="145.019531"/>
      <use xlink:href="#DejaVuSans-5f" x="208.642578"/>
      <use xlink:href="#DejaVuSans-32" x="258.642578"/>
      <use xlink:href="#DejaVuSans-4b" x="322.265625"/>
      <use xlink:href="#DejaVuSans-53" x="387.841797"/>
     </g>
    </g>
    <g id="line2d_22">
     <path d="M 801.83125 65.809063 
L 811.83125 65.809063 
L 821.83125 65.809063 
" style="fill: none; stroke: #00ffff; stroke-width: 0.9; stroke-linecap: square"/>
    </g>
    <g id="text_20">
     <!-- CH3_2KS -->
     <g transform="translate(829.83125 69.309063)scale(0.1 -0.1)">
      <use xlink:href="#DejaVuSans-43"/>
      <use xlink:href="#DejaVuSans-48" x="69.824219"/>
      <use xlink:href="#DejaVuSans-33" x="145.019531"/>
      <use xlink:href="#DejaVuSans-5f" x="208.642578"/>
      <use xlink:href="#DejaVuSans-32" x="258.642578"/>
      <use xlink:href="#DejaVuSans-4b" x="322.265625"/>
      <use xlink:href="#DejaVuSans-53" x="387.841797"/>
     </g>
    </g>
    <g id="line2d_23">
     <path d="M 801.83125 80.765313 
L 811.83125 80.765313 
L 821.83125 80.765313 
" style="fill: none; stroke: #ffa500; stroke-width: 0.9; stroke-linecap: square"/>
    </g>
    <g id="text_21">
     <!-- CH4_2KS -->
     <g transform="translate(829.83125 84.265313)scale(0.1 -0.1)">
      <use xlink:href="#DejaVuSans-43"/>
      <use xlink:href="#DejaVuSans-48" x="69.824219"/>
      <use xlink:href="#DejaVuSans-34" x="145.019531"/>
      <use xlink:href="#DejaVuSans-5f" x="208.642578"/>
      <use xlink:href="#DejaVuSans-32" x="258.642578"/>
      <use xlink:href="#DejaVuSans-4b" x="322.265625"/>
      <use xlink:href="#DejaVuSans-53" x="387.841797"/>
     </g>
    </g>
    <g id="line2d_24">
     <path d="M 801.83125 95.721563 
L 811.83125 95.721563 
L 821.83125 95.721563 
" style="fill: none; stroke: #ff4500; stroke-width: 0.9; stroke-linecap: square"/>
    </g>
    <g id="text_22">
     <!-- CH5_2KS -->
     <g transform="translate(829.83125 99.221563)scale(0.1 -0.1)">
      <use xlink:href="#DejaVuSans-43"/>
      <use xlink:href="#DejaVuSans-48" x="69.824219"/>
      <use xlink:href="#DejaVuSans-35" x="145.019531"/>
      <use xlink:href="#DejaVuSans-5f" x="208.642578"/>
      <use xlink:href="#DejaVuSans-32" x="258.642578"/>
      <use xlink:href="#DejaVuSans-4b" x="322.265625"/>
      <use xlink:href="#DejaVuSans-53" x="387.841797"/>
     </g>
    </g>
   </g>
  </g>
 </g>
 <defs>
  <clipPath id="p0c5dd10de0">
   <rect x="46.965625" y="22.798125" width="837" height="271.8"/>
  </clipPath>
 </defs>
</svg>
