<?xml version="1.0" encoding="utf-8" standalone="no"?>
<!DOCTYPE svg PUBLIC "-//W3C//DTD SVG 1.1//EN"
  "http://www.w3.org/Graphics/SVG/1.1/DTD/svg11.dtd">
<svg xmlns:xlink="http://www.w3.org/1999/xlink" width="891.165625pt" height="332.154375pt" viewBox="0 0 891.165625 332.154375" xmlns="http://www.w3.org/2000/svg" version="1.1">
 <metadata>
  <rdf:RDF xmlns:dc="http://purl.org/dc/elements/1.1/" xmlns:cc="http://creativecommons.org/ns#" xmlns:rdf="http://www.w3.org/1999/02/22-rdf-syntax-ns#">
   <cc:Work>
    <dc:type rdf:resource="http://purl.org/dc/dcmitype/StillImage"/>
    <dc:date>2022-06-21T21:13:42.275112</dc:date>
    <dc:format>image/svg+xml</dc:format>
    <dc:creator>
     <cc:Agent>
      <dc:title>Matplotlib v3.5.2, https://matplotlib.org/</dc:title>
     </cc:Agent>
    </dc:creator>
   </cc:Work>
  </rdf:RDF>
 </metadata>
 <defs>
  <style type="text/css">*{stroke-linejoin: round; stroke-linecap: butt}</style>
 </defs>
 <g id="figure_1">
  <g id="patch_1">
   <path d="M 0 332.154375 
L 891.165625 332.154375 
L 891.165625 0 
L 0 0 
L 0 332.154375 
z
" style="fill: none"/>
  </g>
  <g id="axes_1">
   <g id="patch_2">
    <path d="M 46.965625 294.598125 
L 883.965625 294.598125 
L 883.965625 22.798125 
L 46.965625 22.798125 
z
" style="fill: #ffffff"/>
   </g>
   <g id="matplotlib.axis_1">
    <g id="xtick_1">
     <g id="line2d_1">
      <defs>
       <path id="mc43ccbb9bd" d="M 0 0 
L 0 3.5 
" style="stroke: #000000; stroke-width: 0.8"/>
      </defs>
      <g>
       <use xlink:href="#mc43ccbb9bd" x="85.01108" y="294.598125" style="stroke: #000000; stroke-width: 0.8"/>
      </g>
     </g>
     <g id="text_1">
      <!-- 0 -->
      <g transform="translate(81.82983 309.196562)scale(0.1 -0.1)">
       <defs>
        <path id="DejaVuSans-30" d="M 2034 4250 
Q 1547 4250 1301 3770 
Q 1056 3291 1056 2328 
Q 1056 1369 1301 889 
Q 1547 409 2034 409 
Q 2525 409 2770 889 
Q 3016 1369 3016 2328 
Q 3016 3291 2770 3770 
Q 2525 4250 2034 4250 
z
M 2034 4750 
Q 2819 4750 3233 4129 
Q 3647 3509 3647 2328 
Q 3647 1150 3233 529 
Q 2819 -91 2034 -91 
Q 1250 -91 836 529 
Q 422 1150 422 2328 
Q 422 3509 836 4129 
Q 1250 4750 2034 4750 
z
" transform="scale(0.015625)"/>
       </defs>
       <use xlink:href="#DejaVuSans-30"/>
      </g>
     </g>
    </g>
    <g id="xtick_2">
     <g id="line2d_2">
      <g>
       <use xlink:href="#mc43ccbb9bd" x="212.253402" y="294.598125" style="stroke: #000000; stroke-width: 0.8"/>
      </g>
     </g>
     <g id="text_2">
      <!-- 50 -->
      <g transform="translate(205.890902 309.196562)scale(0.1 -0.1)">
       <defs>
        <path id="DejaVuSans-35" d="M 691 4666 
L 3169 4666 
L 3169 4134 
L 1269 4134 
L 1269 2991 
Q 1406 3038 1543 3061 
Q 1681 3084 1819 3084 
Q 2600 3084 3056 2656 
Q 3513 2228 3513 1497 
Q 3513 744 3044 326 
Q 2575 -91 1722 -91 
Q 1428 -91 1123 -41 
Q 819 9 494 109 
L 494 744 
Q 775 591 1075 516 
Q 1375 441 1709 441 
Q 2250 441 2565 725 
Q 2881 1009 2881 1497 
Q 2881 1984 2565 2268 
Q 2250 2553 1709 2553 
Q 1456 2553 1204 2497 
Q 953 2441 691 2322 
L 691 4666 
z
" transform="scale(0.015625)"/>
       </defs>
       <use xlink:href="#DejaVuSans-35"/>
       <use xlink:href="#DejaVuSans-30" x="63.623047"/>
      </g>
     </g>
    </g>
    <g id="xtick_3">
     <g id="line2d_3">
      <g>
       <use xlink:href="#mc43ccbb9bd" x="339.495725" y="294.598125" style="stroke: #000000; stroke-width: 0.8"/>
      </g>
     </g>
     <g id="text_3">
      <!-- 100 -->
      <g transform="translate(329.951975 309.196562)scale(0.1 -0.1)">
       <defs>
        <path id="DejaVuSans-31" d="M 794 531 
L 1825 531 
L 1825 4091 
L 703 3866 
L 703 4441 
L 1819 4666 
L 2450 4666 
L 2450 531 
L 3481 531 
L 3481 0 
L 794 0 
L 794 531 
z
" transform="scale(0.015625)"/>
       </defs>
       <use xlink:href="#DejaVuSans-31"/>
       <use xlink:href="#DejaVuSans-30" x="63.623047"/>
       <use xlink:href="#DejaVuSans-30" x="127.246094"/>
      </g>
     </g>
    </g>
    <g id="xtick_4">
     <g id="line2d_4">
      <g>
       <use xlink:href="#mc43ccbb9bd" x="466.738048" y="294.598125" style="stroke: #000000; stroke-width: 0.8"/>
      </g>
     </g>
     <g id="text_4">
      <!-- 150 -->
      <g transform="translate(457.194298 309.196562)scale(0.1 -0.1)">
       <use xlink:href="#DejaVuSans-31"/>
       <use xlink:href="#DejaVuSans-35" x="63.623047"/>
       <use xlink:href="#DejaVuSans-30" x="127.246094"/>
      </g>
     </g>
    </g>
    <g id="xtick_5">
     <g id="line2d_5">
      <g>
       <use xlink:href="#mc43ccbb9bd" x="593.980371" y="294.598125" style="stroke: #000000; stroke-width: 0.8"/>
      </g>
     </g>
     <g id="text_5">
      <!-- 200 -->
      <g transform="translate(584.436621 309.196562)scale(0.1 -0.1)">
       <defs>
        <path id="DejaVuSans-32" d="M 1228 531 
L 3431 531 
L 3431 0 
L 469 0 
L 469 531 
Q 828 903 1448 1529 
Q 2069 2156 2228 2338 
Q 2531 2678 2651 2914 
Q 2772 3150 2772 3378 
Q 2772 3750 2511 3984 
Q 2250 4219 1831 4219 
Q 1534 4219 1204 4116 
Q 875 4013 500 3803 
L 500 4441 
Q 881 4594 1212 4672 
Q 1544 4750 1819 4750 
Q 2544 4750 2975 4387 
Q 3406 4025 3406 3419 
Q 3406 3131 3298 2873 
Q 3191 2616 2906 2266 
Q 2828 2175 2409 1742 
Q 1991 1309 1228 531 
z
" transform="scale(0.015625)"/>
       </defs>
       <use xlink:href="#DejaVuSans-32"/>
       <use xlink:href="#DejaVuSans-30" x="63.623047"/>
       <use xlink:href="#DejaVuSans-30" x="127.246094"/>
      </g>
     </g>
    </g>
    <g id="xtick_6">
     <g id="line2d_6">
      <g>
       <use xlink:href="#mc43ccbb9bd" x="721.222694" y="294.598125" style="stroke: #000000; stroke-width: 0.8"/>
      </g>
     </g>
     <g id="text_6">
      <!-- 250 -->
      <g transform="translate(711.678944 309.196562)scale(0.1 -0.1)">
       <use xlink:href="#DejaVuSans-32"/>
       <use xlink:href="#DejaVuSans-35" x="63.623047"/>
       <use xlink:href="#DejaVuSans-30" x="127.246094"/>
      </g>
     </g>
    </g>
    <g id="xtick_7">
     <g id="line2d_7">
      <g>
       <use xlink:href="#mc43ccbb9bd" x="848.465017" y="294.598125" style="stroke: #000000; stroke-width: 0.8"/>
      </g>
     </g>
     <g id="text_7">
      <!-- 300 -->
      <g transform="translate(838.921267 309.196562)scale(0.1 -0.1)">
       <defs>
        <path id="DejaVuSans-33" d="M 2597 2516 
Q 3050 2419 3304 2112 
Q 3559 1806 3559 1356 
Q 3559 666 3084 287 
Q 2609 -91 1734 -91 
Q 1441 -91 1130 -33 
Q 819 25 488 141 
L 488 750 
Q 750 597 1062 519 
Q 1375 441 1716 441 
Q 2309 441 2620 675 
Q 2931 909 2931 1356 
Q 2931 1769 2642 2001 
Q 2353 2234 1838 2234 
L 1294 2234 
L 1294 2753 
L 1863 2753 
Q 2328 2753 2575 2939 
Q 2822 3125 2822 3475 
Q 2822 3834 2567 4026 
Q 2313 4219 1838 4219 
Q 1578 4219 1281 4162 
Q 984 4106 628 3988 
L 628 4550 
Q 988 4650 1302 4700 
Q 1616 4750 1894 4750 
Q 2613 4750 3031 4423 
Q 3450 4097 3450 3541 
Q 3450 3153 3228 2886 
Q 3006 2619 2597 2516 
z
" transform="scale(0.015625)"/>
       </defs>
       <use xlink:href="#DejaVuSans-33"/>
       <use xlink:href="#DejaVuSans-30" x="63.623047"/>
       <use xlink:href="#DejaVuSans-30" x="127.246094"/>
      </g>
     </g>
    </g>
    <g id="text_8">
     <!-- Próbka -->
     <g transform="translate(448.489844 322.874687)scale(0.1 -0.1)">
      <defs>
       <path id="DejaVuSans-50" d="M 1259 4147 
L 1259 2394 
L 2053 2394 
Q 2494 2394 2734 2622 
Q 2975 2850 2975 3272 
Q 2975 3691 2734 3919 
Q 2494 4147 2053 4147 
L 1259 4147 
z
M 628 4666 
L 2053 4666 
Q 2838 4666 3239 4311 
Q 3641 3956 3641 3272 
Q 3641 2581 3239 2228 
Q 2838 1875 2053 1875 
L 1259 1875 
L 1259 0 
L 628 0 
L 628 4666 
z
" transform="scale(0.015625)"/>
       <path id="DejaVuSans-72" d="M 2631 2963 
Q 2534 3019 2420 3045 
Q 2306 3072 2169 3072 
Q 1681 3072 1420 2755 
Q 1159 2438 1159 1844 
L 1159 0 
L 581 0 
L 581 3500 
L 1159 3500 
L 1159 2956 
Q 1341 3275 1631 3429 
Q 1922 3584 2338 3584 
Q 2397 3584 2469 3576 
Q 2541 3569 2628 3553 
L 2631 2963 
z
" transform="scale(0.015625)"/>
       <path id="DejaVuSans-f3" d="M 1959 3097 
Q 1497 3097 1228 2736 
Q 959 2375 959 1747 
Q 959 1119 1226 758 
Q 1494 397 1959 397 
Q 2419 397 2687 759 
Q 2956 1122 2956 1747 
Q 2956 2369 2687 2733 
Q 2419 3097 1959 3097 
z
M 1959 3584 
Q 2709 3584 3137 3096 
Q 3566 2609 3566 1747 
Q 3566 888 3137 398 
Q 2709 -91 1959 -91 
Q 1206 -91 779 398 
Q 353 888 353 1747 
Q 353 2609 779 3096 
Q 1206 3584 1959 3584 
z
M 2394 5119 
L 3016 5119 
L 1998 3944 
L 1519 3944 
L 2394 5119 
z
" transform="scale(0.015625)"/>
       <path id="DejaVuSans-62" d="M 3116 1747 
Q 3116 2381 2855 2742 
Q 2594 3103 2138 3103 
Q 1681 3103 1420 2742 
Q 1159 2381 1159 1747 
Q 1159 1113 1420 752 
Q 1681 391 2138 391 
Q 2594 391 2855 752 
Q 3116 1113 3116 1747 
z
M 1159 2969 
Q 1341 3281 1617 3432 
Q 1894 3584 2278 3584 
Q 2916 3584 3314 3078 
Q 3713 2572 3713 1747 
Q 3713 922 3314 415 
Q 2916 -91 2278 -91 
Q 1894 -91 1617 61 
Q 1341 213 1159 525 
L 1159 0 
L 581 0 
L 581 4863 
L 1159 4863 
L 1159 2969 
z
" transform="scale(0.015625)"/>
       <path id="DejaVuSans-6b" d="M 581 4863 
L 1159 4863 
L 1159 1991 
L 2875 3500 
L 3609 3500 
L 1753 1863 
L 3688 0 
L 2938 0 
L 1159 1709 
L 1159 0 
L 581 0 
L 581 4863 
z
" transform="scale(0.015625)"/>
       <path id="DejaVuSans-61" d="M 2194 1759 
Q 1497 1759 1228 1600 
Q 959 1441 959 1056 
Q 959 750 1161 570 
Q 1363 391 1709 391 
Q 2188 391 2477 730 
Q 2766 1069 2766 1631 
L 2766 1759 
L 2194 1759 
z
M 3341 1997 
L 3341 0 
L 2766 0 
L 2766 531 
Q 2569 213 2275 61 
Q 1981 -91 1556 -91 
Q 1019 -91 701 211 
Q 384 513 384 1019 
Q 384 1609 779 1909 
Q 1175 2209 1959 2209 
L 2766 2209 
L 2766 2266 
Q 2766 2663 2505 2880 
Q 2244 3097 1772 3097 
Q 1472 3097 1187 3025 
Q 903 2953 641 2809 
L 641 3341 
Q 956 3463 1253 3523 
Q 1550 3584 1831 3584 
Q 2591 3584 2966 3190 
Q 3341 2797 3341 1997 
z
" transform="scale(0.015625)"/>
      </defs>
      <use xlink:href="#DejaVuSans-50"/>
      <use xlink:href="#DejaVuSans-72" x="58.552734"/>
      <use xlink:href="#DejaVuSans-f3" x="97.416016"/>
      <use xlink:href="#DejaVuSans-62" x="158.597656"/>
      <use xlink:href="#DejaVuSans-6b" x="222.074219"/>
      <use xlink:href="#DejaVuSans-61" x="278.234375"/>
     </g>
    </g>
   </g>
   <g id="matplotlib.axis_2">
    <g id="ytick_1">
     <g id="line2d_8">
      <defs>
       <path id="mb9fde3c1e6" d="M 0 0 
L -3.5 0 
" style="stroke: #000000; stroke-width: 0.8"/>
      </defs>
      <g>
       <use xlink:href="#mb9fde3c1e6" x="46.965625" y="292.625551" style="stroke: #000000; stroke-width: 0.8"/>
      </g>
     </g>
     <g id="text_9">
      <!-- 60 -->
      <g transform="translate(27.240625 296.424769)scale(0.1 -0.1)">
       <defs>
        <path id="DejaVuSans-36" d="M 2113 2584 
Q 1688 2584 1439 2293 
Q 1191 2003 1191 1497 
Q 1191 994 1439 701 
Q 1688 409 2113 409 
Q 2538 409 2786 701 
Q 3034 994 3034 1497 
Q 3034 2003 2786 2293 
Q 2538 2584 2113 2584 
z
M 3366 4563 
L 3366 3988 
Q 3128 4100 2886 4159 
Q 2644 4219 2406 4219 
Q 1781 4219 1451 3797 
Q 1122 3375 1075 2522 
Q 1259 2794 1537 2939 
Q 1816 3084 2150 3084 
Q 2853 3084 3261 2657 
Q 3669 2231 3669 1497 
Q 3669 778 3244 343 
Q 2819 -91 2113 -91 
Q 1303 -91 875 529 
Q 447 1150 447 2328 
Q 447 3434 972 4092 
Q 1497 4750 2381 4750 
Q 2619 4750 2861 4703 
Q 3103 4656 3366 4563 
z
" transform="scale(0.015625)"/>
       </defs>
       <use xlink:href="#DejaVuSans-36"/>
       <use xlink:href="#DejaVuSans-30" x="63.623047"/>
      </g>
     </g>
    </g>
    <g id="ytick_2">
     <g id="line2d_9">
      <g>
       <use xlink:href="#mb9fde3c1e6" x="46.965625" y="251.097667" style="stroke: #000000; stroke-width: 0.8"/>
      </g>
     </g>
     <g id="text_10">
      <!-- 80 -->
      <g transform="translate(27.240625 254.896885)scale(0.1 -0.1)">
       <defs>
        <path id="DejaVuSans-38" d="M 2034 2216 
Q 1584 2216 1326 1975 
Q 1069 1734 1069 1313 
Q 1069 891 1326 650 
Q 1584 409 2034 409 
Q 2484 409 2743 651 
Q 3003 894 3003 1313 
Q 3003 1734 2745 1975 
Q 2488 2216 2034 2216 
z
M 1403 2484 
Q 997 2584 770 2862 
Q 544 3141 544 3541 
Q 544 4100 942 4425 
Q 1341 4750 2034 4750 
Q 2731 4750 3128 4425 
Q 3525 4100 3525 3541 
Q 3525 3141 3298 2862 
Q 3072 2584 2669 2484 
Q 3125 2378 3379 2068 
Q 3634 1759 3634 1313 
Q 3634 634 3220 271 
Q 2806 -91 2034 -91 
Q 1263 -91 848 271 
Q 434 634 434 1313 
Q 434 1759 690 2068 
Q 947 2378 1403 2484 
z
M 1172 3481 
Q 1172 3119 1398 2916 
Q 1625 2713 2034 2713 
Q 2441 2713 2670 2916 
Q 2900 3119 2900 3481 
Q 2900 3844 2670 4047 
Q 2441 4250 2034 4250 
Q 1625 4250 1398 4047 
Q 1172 3844 1172 3481 
z
" transform="scale(0.015625)"/>
       </defs>
       <use xlink:href="#DejaVuSans-38"/>
       <use xlink:href="#DejaVuSans-30" x="63.623047"/>
      </g>
     </g>
    </g>
    <g id="ytick_3">
     <g id="line2d_10">
      <g>
       <use xlink:href="#mb9fde3c1e6" x="46.965625" y="209.569783" style="stroke: #000000; stroke-width: 0.8"/>
      </g>
     </g>
     <g id="text_11">
      <!-- 100 -->
      <g transform="translate(20.878125 213.369002)scale(0.1 -0.1)">
       <use xlink:href="#DejaVuSans-31"/>
       <use xlink:href="#DejaVuSans-30" x="63.623047"/>
       <use xlink:href="#DejaVuSans-30" x="127.246094"/>
      </g>
     </g>
    </g>
    <g id="ytick_4">
     <g id="line2d_11">
      <g>
       <use xlink:href="#mb9fde3c1e6" x="46.965625" y="168.041899" style="stroke: #000000; stroke-width: 0.8"/>
      </g>
     </g>
     <g id="text_12">
      <!-- 120 -->
      <g transform="translate(20.878125 171.841118)scale(0.1 -0.1)">
       <use xlink:href="#DejaVuSans-31"/>
       <use xlink:href="#DejaVuSans-32" x="63.623047"/>
       <use xlink:href="#DejaVuSans-30" x="127.246094"/>
      </g>
     </g>
    </g>
    <g id="ytick_5">
     <g id="line2d_12">
      <g>
       <use xlink:href="#mb9fde3c1e6" x="46.965625" y="126.514015" style="stroke: #000000; stroke-width: 0.8"/>
      </g>
     </g>
     <g id="text_13">
      <!-- 140 -->
      <g transform="translate(20.878125 130.313234)scale(0.1 -0.1)">
       <defs>
        <path id="DejaVuSans-34" d="M 2419 4116 
L 825 1625 
L 2419 1625 
L 2419 4116 
z
M 2253 4666 
L 3047 4666 
L 3047 1625 
L 3713 1625 
L 3713 1100 
L 3047 1100 
L 3047 0 
L 2419 0 
L 2419 1100 
L 313 1100 
L 313 1709 
L 2253 4666 
z
" transform="scale(0.015625)"/>
       </defs>
       <use xlink:href="#DejaVuSans-31"/>
       <use xlink:href="#DejaVuSans-34" x="63.623047"/>
       <use xlink:href="#DejaVuSans-30" x="127.246094"/>
      </g>
     </g>
    </g>
    <g id="ytick_6">
     <g id="line2d_13">
      <g>
       <use xlink:href="#mb9fde3c1e6" x="46.965625" y="84.986131" style="stroke: #000000; stroke-width: 0.8"/>
      </g>
     </g>
     <g id="text_14">
      <!-- 160 -->
      <g transform="translate(20.878125 88.78535)scale(0.1 -0.1)">
       <use xlink:href="#DejaVuSans-31"/>
       <use xlink:href="#DejaVuSans-36" x="63.623047"/>
       <use xlink:href="#DejaVuSans-30" x="127.246094"/>
      </g>
     </g>
    </g>
    <g id="ytick_7">
     <g id="line2d_14">
      <g>
       <use xlink:href="#mb9fde3c1e6" x="46.965625" y="43.458247" style="stroke: #000000; stroke-width: 0.8"/>
      </g>
     </g>
     <g id="text_15">
      <!-- 180 -->
      <g transform="translate(20.878125 47.257466)scale(0.1 -0.1)">
       <use xlink:href="#DejaVuSans-31"/>
       <use xlink:href="#DejaVuSans-38" x="63.623047"/>
       <use xlink:href="#DejaVuSans-30" x="127.246094"/>
      </g>
     </g>
    </g>
    <g id="text_16">
     <!-- Wartość -->
     <g transform="translate(14.798438 178.816094)rotate(-90)scale(0.1 -0.1)">
      <defs>
       <path id="DejaVuSans-57" d="M 213 4666 
L 850 4666 
L 1831 722 
L 2809 4666 
L 3519 4666 
L 4500 722 
L 5478 4666 
L 6119 4666 
L 4947 0 
L 4153 0 
L 3169 4050 
L 2175 0 
L 1381 0 
L 213 4666 
z
" transform="scale(0.015625)"/>
       <path id="DejaVuSans-74" d="M 1172 4494 
L 1172 3500 
L 2356 3500 
L 2356 3053 
L 1172 3053 
L 1172 1153 
Q 1172 725 1289 603 
Q 1406 481 1766 481 
L 2356 481 
L 2356 0 
L 1766 0 
Q 1100 0 847 248 
Q 594 497 594 1153 
L 594 3053 
L 172 3053 
L 172 3500 
L 594 3500 
L 594 4494 
L 1172 4494 
z
" transform="scale(0.015625)"/>
       <path id="DejaVuSans-6f" d="M 1959 3097 
Q 1497 3097 1228 2736 
Q 959 2375 959 1747 
Q 959 1119 1226 758 
Q 1494 397 1959 397 
Q 2419 397 2687 759 
Q 2956 1122 2956 1747 
Q 2956 2369 2687 2733 
Q 2419 3097 1959 3097 
z
M 1959 3584 
Q 2709 3584 3137 3096 
Q 3566 2609 3566 1747 
Q 3566 888 3137 398 
Q 2709 -91 1959 -91 
Q 1206 -91 779 398 
Q 353 888 353 1747 
Q 353 2609 779 3096 
Q 1206 3584 1959 3584 
z
" transform="scale(0.015625)"/>
       <path id="DejaVuSans-15b" d="M 2242 5119 
L 2864 5119 
L 1846 3944 
L 1367 3944 
L 2242 5119 
z
M 2834 3397 
L 2834 2853 
Q 2591 2978 2328 3040 
Q 2066 3103 1784 3103 
Q 1356 3103 1142 2972 
Q 928 2841 928 2578 
Q 928 2378 1081 2264 
Q 1234 2150 1697 2047 
L 1894 2003 
Q 2506 1872 2764 1633 
Q 3022 1394 3022 966 
Q 3022 478 2636 193 
Q 2250 -91 1575 -91 
Q 1294 -91 989 -36 
Q 684 19 347 128 
L 347 722 
Q 666 556 975 473 
Q 1284 391 1588 391 
Q 1994 391 2212 530 
Q 2431 669 2431 922 
Q 2431 1156 2273 1281 
Q 2116 1406 1581 1522 
L 1381 1569 
Q 847 1681 609 1914 
Q 372 2147 372 2553 
Q 372 3047 722 3315 
Q 1072 3584 1716 3584 
Q 2034 3584 2315 3537 
Q 2597 3491 2834 3397 
z
" transform="scale(0.015625)"/>
       <path id="DejaVuSans-107" d="M 3122 3366 
L 3122 2828 
Q 2878 2963 2633 3030 
Q 2388 3097 2138 3097 
Q 1578 3097 1268 2742 
Q 959 2388 959 1747 
Q 959 1106 1268 751 
Q 1578 397 2138 397 
Q 2388 397 2633 464 
Q 2878 531 3122 666 
L 3122 134 
Q 2881 22 2623 -34 
Q 2366 -91 2075 -91 
Q 1284 -91 818 406 
Q 353 903 353 1747 
Q 353 2603 823 3093 
Q 1294 3584 2113 3584 
Q 2378 3584 2631 3529 
Q 2884 3475 3122 3366 
z
M 2466 5119 
L 3088 5119 
L 2070 3944 
L 1591 3944 
L 2466 5119 
z
" transform="scale(0.015625)"/>
      </defs>
      <use xlink:href="#DejaVuSans-57"/>
      <use xlink:href="#DejaVuSans-61" x="92.501953"/>
      <use xlink:href="#DejaVuSans-72" x="153.78125"/>
      <use xlink:href="#DejaVuSans-74" x="194.894531"/>
      <use xlink:href="#DejaVuSans-6f" x="234.103516"/>
      <use xlink:href="#DejaVuSans-15b" x="295.285156"/>
      <use xlink:href="#DejaVuSans-107" x="347.384766"/>
     </g>
    </g>
   </g>
   <g id="line2d_15">
    <path d="M 85.01108 72.527766 
L 87.555926 93.291708 
L 90.100772 72.527766 
L 92.645619 103.673679 
L 95.190465 132.743198 
L 97.735312 95.368102 
L 100.280158 93.291708 
L 102.825005 99.52089 
L 105.369851 66.298583 
L 107.914698 105.750073 
L 110.459544 62.145795 
L 113.004391 89.138919 
L 115.549237 72.527766 
L 118.094083 109.902861 
L 120.63893 149.354351 
L 123.183776 128.590409 
L 125.728623 105.750073 
L 128.273469 172.194687 
L 130.818316 109.902861 
L 133.363162 101.597285 
L 135.908009 120.284832 
L 138.452855 143.125169 
L 140.997702 124.437621 
L 143.542548 118.208438 
L 146.087395 95.368102 
L 151.177087 132.743198 
L 153.721934 87.062525 
L 156.26678 82.909737 
L 158.811627 111.979256 
L 161.356473 107.826467 
L 163.90132 91.215314 
L 166.446166 35.15267 
L 168.991013 114.05565 
L 171.535859 66.298583 
L 174.080706 64.222189 
L 176.625552 118.208438 
L 179.170398 97.444496 
L 181.715245 120.284832 
L 186.804938 91.215314 
L 189.349784 118.208438 
L 191.894631 99.52089 
L 194.439477 128.590409 
L 196.984324 114.05565 
L 199.52917 93.291708 
L 202.074017 87.062525 
L 204.618863 118.208438 
L 207.16371 122.361227 
L 209.708556 107.826467 
L 212.253402 74.60416 
L 214.798249 103.673679 
L 217.343095 109.902861 
L 219.887942 97.444496 
L 222.432788 93.291708 
L 224.977635 122.361227 
L 227.522481 114.05565 
L 230.067328 91.215314 
L 232.612174 91.215314 
L 235.157021 120.284832 
L 237.701867 143.125169 
L 240.246713 103.673679 
L 242.79156 130.666803 
L 245.336406 120.284832 
L 247.881253 70.451372 
L 250.426099 132.743198 
L 252.970946 93.291708 
L 255.515792 120.284832 
L 258.060639 116.132044 
L 260.605485 114.05565 
L 263.150332 97.444496 
L 265.695178 122.361227 
L 268.240025 84.986131 
L 270.784871 118.208438 
L 273.329717 136.895986 
L 275.874564 136.895986 
L 278.41941 97.444496 
L 280.964257 89.138919 
L 283.509103 82.909737 
L 286.05395 80.833343 
L 288.598796 89.138919 
L 291.143643 60.069401 
L 293.688489 136.895986 
L 296.233336 76.680554 
L 298.778182 111.979256 
L 301.323028 87.062525 
L 303.867875 93.291708 
L 306.412721 84.986131 
L 308.957568 78.756949 
L 311.502414 45.534641 
L 314.047261 60.069401 
L 316.592107 107.826467 
L 319.136954 87.062525 
L 321.6818 97.444496 
L 324.226647 143.125169 
L 326.771493 51.763824 
L 329.31634 80.833343 
L 331.861186 97.444496 
L 334.406032 66.298583 
L 336.950879 74.60416 
L 339.495725 78.756949 
L 342.040572 93.291708 
L 344.585418 76.680554 
L 347.130265 107.826467 
L 349.675111 68.374978 
L 352.219958 97.444496 
L 354.764804 53.840218 
L 359.854497 107.826467 
L 362.399343 49.68743 
L 364.94419 116.132044 
L 367.489036 84.986131 
L 370.033883 72.527766 
L 372.578729 103.673679 
L 375.123576 35.15267 
L 377.668422 107.826467 
L 380.213269 80.833343 
L 382.758115 74.60416 
L 385.302962 122.361227 
L 387.847808 114.05565 
L 390.392654 57.993007 
L 392.937501 97.444496 
L 395.482347 87.062525 
L 398.027194 99.52089 
L 400.57204 68.374978 
L 403.116887 72.527766 
L 405.661733 116.132044 
L 408.20658 87.062525 
L 410.751426 143.125169 
L 413.296273 89.138919 
L 415.841119 99.52089 
L 418.385966 68.374978 
L 420.930812 128.590409 
L 423.475658 60.069401 
L 426.020505 109.902861 
L 428.565351 97.444496 
L 431.110198 87.062525 
L 433.655044 82.909737 
L 436.199891 118.208438 
L 438.744737 87.062525 
L 441.289584 97.444496 
L 443.83443 103.673679 
L 446.379277 128.590409 
L 448.924123 101.597285 
L 451.468969 89.138919 
L 454.013816 114.05565 
L 456.558662 128.590409 
L 459.103509 93.291708 
L 461.648355 107.826467 
L 464.193202 72.527766 
L 466.738048 122.361227 
L 469.282895 80.833343 
L 471.827741 95.368102 
L 474.372588 74.60416 
L 476.917434 68.374978 
L 479.462281 76.680554 
L 482.007127 64.222189 
L 484.551973 136.895986 
L 487.09682 114.05565 
L 489.641666 80.833343 
L 492.186513 80.833343 
L 494.731359 153.50714 
L 497.276206 80.833343 
L 499.821052 99.52089 
L 502.365899 87.062525 
L 504.910745 136.895986 
L 507.455592 99.52089 
L 510.000438 93.291708 
L 512.545284 116.132044 
L 515.090131 116.132044 
L 517.634977 93.291708 
L 520.179824 124.437621 
L 522.72467 95.368102 
L 525.269517 87.062525 
L 527.814363 99.52089 
L 530.35921 124.437621 
L 532.904056 120.284832 
L 535.448903 91.215314 
L 537.993749 78.756949 
L 540.538596 80.833343 
L 543.083442 151.430745 
L 545.628288 95.368102 
L 548.173135 76.680554 
L 550.717981 97.444496 
L 553.262828 87.062525 
L 555.807674 101.597285 
L 558.352521 87.062525 
L 560.897367 93.291708 
L 563.442214 43.458247 
L 565.98706 80.833343 
L 568.531907 124.437621 
L 571.076753 118.208438 
L 573.621599 116.132044 
L 576.166446 57.993007 
L 578.711292 116.132044 
L 581.256139 82.909737 
L 583.800985 126.514015 
L 586.345832 132.743198 
L 588.890678 97.444496 
L 591.435525 89.138919 
L 593.980371 120.284832 
L 596.525218 91.215314 
L 599.070064 159.736322 
L 601.61491 132.743198 
L 604.159757 91.215314 
L 606.704603 126.514015 
L 609.24945 103.673679 
L 611.794296 118.208438 
L 614.339143 147.277957 
L 616.883989 120.284832 
L 619.428836 78.756949 
L 621.973682 122.361227 
L 624.518529 103.673679 
L 627.063375 118.208438 
L 629.608222 118.208438 
L 632.153068 74.60416 
L 634.697914 74.60416 
L 637.242761 62.145795 
L 639.787607 134.819592 
L 644.8773 64.222189 
L 647.422147 62.145795 
L 649.966993 132.743198 
L 652.51184 76.680554 
L 655.056686 57.993007 
L 657.601533 103.673679 
L 660.146379 111.979256 
L 662.691225 122.361227 
L 665.236072 124.437621 
L 667.780918 74.60416 
L 670.325765 143.125169 
L 672.870611 101.597285 
L 675.415458 136.895986 
L 677.960304 76.680554 
L 680.505151 109.902861 
L 683.049997 89.138919 
L 685.594844 134.819592 
L 688.13969 101.597285 
L 690.684537 153.50714 
L 693.229383 99.52089 
L 695.774229 41.381853 
L 698.319076 124.437621 
L 700.863922 107.826467 
L 703.408769 84.986131 
L 705.953615 80.833343 
L 708.498462 101.597285 
L 711.043308 84.986131 
L 713.588155 84.986131 
L 716.133001 99.52089 
L 718.677848 57.993007 
L 721.222694 111.979256 
L 723.76754 84.986131 
L 726.312387 124.437621 
L 728.857233 95.368102 
L 731.40208 87.062525 
L 733.946926 111.979256 
L 736.491773 82.909737 
L 739.036619 82.909737 
L 741.581466 64.222189 
L 744.126312 68.374978 
L 746.671159 145.201563 
L 749.216005 80.833343 
L 751.760852 145.201563 
L 754.305698 84.986131 
L 756.850544 124.437621 
L 759.395391 76.680554 
L 761.940237 116.132044 
L 764.485084 107.826467 
L 767.02993 126.514015 
L 769.574777 124.437621 
L 772.119623 70.451372 
L 774.66447 99.52089 
L 777.209316 80.833343 
L 779.754163 78.756949 
L 782.299009 99.52089 
L 784.843855 126.514015 
L 787.388702 68.374978 
L 789.933548 116.132044 
L 792.478395 118.208438 
L 795.023241 82.909737 
L 797.568088 101.597285 
L 800.112934 87.062525 
L 802.657781 103.673679 
L 805.202627 62.145795 
L 807.747474 111.979256 
L 810.29232 72.527766 
L 812.837167 82.909737 
L 815.382013 91.215314 
L 817.926859 84.986131 
L 820.471706 109.902861 
L 823.016552 143.125169 
L 825.561399 103.673679 
L 828.106245 107.826467 
L 830.651092 68.374978 
L 833.195938 105.750073 
L 835.740785 136.895986 
L 838.285631 72.527766 
L 840.830478 134.819592 
L 843.375324 124.437621 
L 845.92017 143.125169 
L 845.92017 143.125169 
" clip-path="url(#p6c4a5c39da)" style="fill: none; stroke: #ff00ff; stroke-width: 0.9; stroke-linecap: square"/>
   </g>
   <g id="line2d_16">
    <path d="M 85.01108 153.50714 
L 87.555926 180.500264 
L 90.100772 168.041899 
L 92.645619 103.673679 
L 95.190465 172.194687 
L 97.735312 126.514015 
L 100.280158 155.583534 
L 102.825005 109.902861 
L 105.369851 134.819592 
L 107.914698 132.743198 
L 110.459544 170.118293 
L 113.004391 147.277957 
L 115.549237 170.118293 
L 118.094083 66.298583 
L 120.63893 168.041899 
L 123.183776 211.646177 
L 125.728623 174.271081 
L 128.273469 180.500264 
L 130.818316 165.965505 
L 133.363162 190.882235 
L 135.908009 178.42387 
L 138.452855 180.500264 
L 140.997702 159.736322 
L 143.542548 201.264206 
L 146.087395 174.271081 
L 148.632241 155.583534 
L 151.177087 138.97238 
L 153.721934 165.965505 
L 156.26678 128.590409 
L 158.811627 178.42387 
L 161.356473 161.812716 
L 163.90132 111.979256 
L 166.446166 143.125169 
L 168.991013 138.97238 
L 171.535859 151.430745 
L 174.080706 147.277957 
L 176.625552 205.416994 
L 179.170398 192.958629 
L 181.715245 195.035023 
L 184.260091 176.347476 
L 186.804938 111.979256 
L 189.349784 147.277957 
L 191.894631 155.583534 
L 194.439477 157.659928 
L 196.984324 153.50714 
L 199.52917 132.743198 
L 202.074017 120.284832 
L 204.618863 159.736322 
L 207.16371 116.132044 
L 209.708556 155.583534 
L 212.253402 143.125169 
L 214.798249 184.653052 
L 217.343095 172.194687 
L 219.887942 163.88911 
L 222.432788 147.277957 
L 224.977635 128.590409 
L 227.522481 151.430745 
L 230.067328 149.354351 
L 232.612174 195.035023 
L 235.157021 157.659928 
L 237.701867 190.882235 
L 240.246713 132.743198 
L 242.79156 176.347476 
L 247.881253 147.277957 
L 250.426099 170.118293 
L 252.970946 176.347476 
L 255.515792 186.729447 
L 258.060639 130.666803 
L 260.605485 136.895986 
L 263.150332 132.743198 
L 265.695178 192.958629 
L 268.240025 145.201563 
L 270.784871 180.500264 
L 273.329717 161.812716 
L 275.874564 188.805841 
L 278.41941 143.125169 
L 280.964257 155.583534 
L 283.509103 136.895986 
L 286.05395 141.048774 
L 288.598796 134.819592 
L 291.143643 149.354351 
L 293.688489 165.965505 
L 296.233336 157.659928 
L 298.778182 105.750073 
L 301.323028 114.05565 
L 303.867875 97.444496 
L 306.412721 99.52089 
L 308.957568 170.118293 
L 311.502414 122.361227 
L 314.047261 122.361227 
L 316.592107 163.88911 
L 319.136954 132.743198 
L 321.6818 159.736322 
L 324.226647 151.430745 
L 326.771493 120.284832 
L 329.31634 120.284832 
L 331.861186 157.659928 
L 334.406032 109.902861 
L 336.950879 136.895986 
L 339.495725 138.97238 
L 342.040572 124.437621 
L 344.585418 114.05565 
L 347.130265 95.368102 
L 349.675111 168.041899 
L 352.219958 199.187812 
L 354.764804 178.42387 
L 357.309651 143.125169 
L 359.854497 153.50714 
L 362.399343 141.048774 
L 364.94419 143.125169 
L 367.489036 84.986131 
L 370.033883 157.659928 
L 372.578729 107.826467 
L 375.123576 126.514015 
L 377.668422 188.805841 
L 380.213269 161.812716 
L 382.758115 201.264206 
L 385.302962 172.194687 
L 387.847808 155.583534 
L 390.392654 180.500264 
L 392.937501 155.583534 
L 395.482347 128.590409 
L 398.027194 103.673679 
L 400.57204 138.97238 
L 403.116887 122.361227 
L 405.661733 178.42387 
L 408.20658 153.50714 
L 410.751426 168.041899 
L 413.296273 126.514015 
L 415.841119 161.812716 
L 418.385966 184.653052 
L 423.475658 126.514015 
L 426.020505 168.041899 
L 428.565351 157.659928 
L 431.110198 124.437621 
L 433.655044 151.430745 
L 436.199891 132.743198 
L 438.744737 126.514015 
L 441.289584 149.354351 
L 443.83443 109.902861 
L 446.379277 153.50714 
L 448.924123 188.805841 
L 451.468969 134.819592 
L 454.013816 190.882235 
L 456.558662 159.736322 
L 459.103509 153.50714 
L 461.648355 134.819592 
L 464.193202 159.736322 
L 466.738048 192.958629 
L 469.282895 178.42387 
L 471.827741 95.368102 
L 474.372588 118.208438 
L 476.917434 118.208438 
L 479.462281 157.659928 
L 482.007127 120.284832 
L 484.551973 147.277957 
L 487.09682 145.201563 
L 489.641666 170.118293 
L 492.186513 172.194687 
L 494.731359 118.208438 
L 497.276206 147.277957 
L 499.821052 147.277957 
L 502.365899 161.812716 
L 504.910745 136.895986 
L 507.455592 178.42387 
L 510.000438 178.42387 
L 512.545284 155.583534 
L 515.090131 134.819592 
L 517.634977 153.50714 
L 520.179824 157.659928 
L 522.72467 145.201563 
L 525.269517 188.805841 
L 527.814363 178.42387 
L 530.35921 190.882235 
L 532.904056 190.882235 
L 535.448903 199.187812 
L 537.993749 159.736322 
L 540.538596 97.444496 
L 543.083442 163.88911 
L 545.628288 147.277957 
L 548.173135 128.590409 
L 550.717981 192.958629 
L 553.262828 165.965505 
L 555.807674 163.88911 
L 558.352521 203.3406 
L 560.897367 149.354351 
L 563.442214 126.514015 
L 565.98706 141.048774 
L 568.531907 199.187812 
L 571.076753 136.895986 
L 573.621599 178.42387 
L 576.166446 188.805841 
L 578.711292 120.284832 
L 581.256139 163.88911 
L 583.800985 174.271081 
L 586.345832 147.277957 
L 588.890678 188.805841 
L 591.435525 190.882235 
L 593.980371 168.041899 
L 596.525218 138.97238 
L 599.070064 192.958629 
L 601.61491 168.041899 
L 604.159757 151.430745 
L 606.704603 149.354351 
L 609.24945 201.264206 
L 611.794296 168.041899 
L 614.339143 74.60416 
L 616.883989 157.659928 
L 619.428836 170.118293 
L 621.973682 211.646177 
L 624.518529 155.583534 
L 627.063375 138.97238 
L 629.608222 209.569783 
L 632.153068 201.264206 
L 634.697914 143.125169 
L 637.242761 147.277957 
L 639.787607 159.736322 
L 642.332454 178.42387 
L 644.8773 176.347476 
L 647.422147 161.812716 
L 649.966993 165.965505 
L 652.51184 180.500264 
L 655.056686 130.666803 
L 657.601533 197.111418 
L 660.146379 151.430745 
L 662.691225 176.347476 
L 665.236072 190.882235 
L 667.780918 124.437621 
L 670.325765 147.277957 
L 672.870611 130.666803 
L 675.415458 178.42387 
L 677.960304 124.437621 
L 680.505151 151.430745 
L 683.049997 126.514015 
L 685.594844 188.805841 
L 688.13969 149.354351 
L 690.684537 128.590409 
L 693.229383 136.895986 
L 695.774229 141.048774 
L 698.319076 134.819592 
L 700.863922 159.736322 
L 703.408769 149.354351 
L 705.953615 155.583534 
L 708.498462 153.50714 
L 711.043308 149.354351 
L 713.588155 126.514015 
L 716.133001 184.653052 
L 718.677848 153.50714 
L 721.222694 163.88911 
L 723.76754 172.194687 
L 726.312387 163.88911 
L 728.857233 122.361227 
L 731.40208 178.42387 
L 733.946926 132.743198 
L 736.491773 174.271081 
L 739.036619 149.354351 
L 741.581466 143.125169 
L 744.126312 165.965505 
L 746.671159 141.048774 
L 749.216005 157.659928 
L 751.760852 172.194687 
L 754.305698 138.97238 
L 756.850544 130.666803 
L 759.395391 134.819592 
L 761.940237 201.264206 
L 764.485084 165.965505 
L 767.02993 145.201563 
L 769.574777 165.965505 
L 772.119623 155.583534 
L 774.66447 147.277957 
L 777.209316 159.736322 
L 779.754163 161.812716 
L 782.299009 124.437621 
L 784.843855 147.277957 
L 787.388702 188.805841 
L 789.933548 136.895986 
L 792.478395 136.895986 
L 795.023241 153.50714 
L 797.568088 126.514015 
L 800.112934 132.743198 
L 802.657781 151.430745 
L 805.202627 99.52089 
L 807.747474 182.576658 
L 810.29232 165.965505 
L 812.837167 151.430745 
L 815.382013 134.819592 
L 817.926859 178.42387 
L 820.471706 172.194687 
L 823.016552 126.514015 
L 825.561399 118.208438 
L 828.106245 172.194687 
L 830.651092 118.208438 
L 833.195938 195.035023 
L 835.740785 184.653052 
L 838.285631 165.965505 
L 840.830478 151.430745 
L 843.375324 159.736322 
L 845.92017 174.271081 
L 845.92017 174.271081 
" clip-path="url(#p6c4a5c39da)" style="fill: none; stroke: #9400d3; stroke-width: 0.9; stroke-linecap: square"/>
   </g>
   <g id="line2d_17">
    <path d="M 85.01108 176.347476 
L 87.555926 180.500264 
L 90.100772 168.041899 
L 92.645619 132.743198 
L 95.190465 176.347476 
L 97.735312 126.514015 
L 100.280158 178.42387 
L 102.825005 147.277957 
L 105.369851 132.743198 
L 107.914698 145.201563 
L 110.459544 155.583534 
L 113.004391 111.979256 
L 115.549237 219.951754 
L 118.094083 99.52089 
L 120.63893 199.187812 
L 123.183776 228.257331 
L 125.728623 178.42387 
L 128.273469 203.3406 
L 130.818316 190.882235 
L 133.363162 234.486513 
L 135.908009 253.174061 
L 138.452855 209.569783 
L 140.997702 172.194687 
L 143.542548 230.333725 
L 146.087395 222.028148 
L 148.632241 172.194687 
L 151.177087 188.805841 
L 153.721934 188.805841 
L 156.26678 170.118293 
L 158.811627 197.111418 
L 161.356473 232.410119 
L 163.90132 195.035023 
L 166.446166 197.111418 
L 168.991013 178.42387 
L 171.535859 163.88911 
L 174.080706 211.646177 
L 176.625552 201.264206 
L 179.170398 209.569783 
L 181.715245 228.257331 
L 186.804938 199.187812 
L 189.349784 186.729447 
L 191.894631 240.715696 
L 194.439477 207.493389 
L 196.984324 184.653052 
L 199.52917 155.583534 
L 202.074017 149.354351 
L 204.618863 205.416994 
L 207.16371 190.882235 
L 209.708556 182.576658 
L 212.253402 244.868484 
L 214.798249 178.42387 
L 217.343095 207.493389 
L 219.887942 230.333725 
L 222.432788 197.111418 
L 224.977635 159.736322 
L 227.522481 203.3406 
L 230.067328 168.041899 
L 232.612174 203.3406 
L 235.157021 188.805841 
L 237.701867 232.410119 
L 240.246713 197.111418 
L 242.79156 226.180936 
L 245.336406 226.180936 
L 247.881253 201.264206 
L 250.426099 209.569783 
L 252.970946 222.028148 
L 255.515792 215.798965 
L 258.060639 197.111418 
L 260.605485 203.3406 
L 263.150332 207.493389 
L 265.695178 219.951754 
L 268.240025 197.111418 
L 270.784871 226.180936 
L 273.329717 232.410119 
L 275.874564 234.486513 
L 278.41941 161.812716 
L 280.964257 226.180936 
L 283.509103 163.88911 
L 286.05395 124.437621 
L 288.598796 170.118293 
L 291.143643 147.277957 
L 293.688489 155.583534 
L 296.233336 157.659928 
L 298.778182 178.42387 
L 301.323028 159.736322 
L 303.867875 116.132044 
L 306.412721 136.895986 
L 308.957568 186.729447 
L 311.502414 151.430745 
L 314.047261 147.277957 
L 316.592107 170.118293 
L 319.136954 114.05565 
L 321.6818 153.50714 
L 324.226647 159.736322 
L 326.771493 114.05565 
L 329.31634 195.035023 
L 331.861186 130.666803 
L 334.406032 134.819592 
L 336.950879 143.125169 
L 339.495725 197.111418 
L 342.040572 89.138919 
L 344.585418 161.812716 
L 347.130265 134.819592 
L 349.675111 180.500264 
L 352.219958 176.347476 
L 354.764804 157.659928 
L 357.309651 165.965505 
L 359.854497 163.88911 
L 362.399343 149.354351 
L 364.94419 128.590409 
L 367.489036 159.736322 
L 370.033883 155.583534 
L 372.578729 145.201563 
L 375.123576 107.826467 
L 377.668422 157.659928 
L 380.213269 161.812716 
L 382.758115 174.271081 
L 385.302962 165.965505 
L 387.847808 151.430745 
L 390.392654 99.52089 
L 392.937501 120.284832 
L 395.482347 128.590409 
L 398.027194 99.52089 
L 400.57204 201.264206 
L 403.116887 155.583534 
L 405.661733 170.118293 
L 408.20658 130.666803 
L 410.751426 132.743198 
L 413.296273 174.271081 
L 415.841119 145.201563 
L 418.385966 174.271081 
L 420.930812 199.187812 
L 423.475658 168.041899 
L 426.020505 205.416994 
L 428.565351 111.979256 
L 431.110198 176.347476 
L 433.655044 153.50714 
L 436.199891 195.035023 
L 438.744737 186.729447 
L 441.289584 172.194687 
L 443.83443 147.277957 
L 446.379277 178.42387 
L 448.924123 157.659928 
L 451.468969 165.965505 
L 454.013816 207.493389 
L 456.558662 180.500264 
L 459.103509 195.035023 
L 461.648355 107.826467 
L 464.193202 151.430745 
L 466.738048 184.653052 
L 469.282895 134.819592 
L 471.827741 180.500264 
L 474.372588 155.583534 
L 476.917434 105.750073 
L 479.462281 178.42387 
L 482.007127 138.97238 
L 484.551973 120.284832 
L 487.09682 199.187812 
L 489.641666 176.347476 
L 492.186513 184.653052 
L 494.731359 211.646177 
L 497.276206 217.87536 
L 499.821052 199.187812 
L 502.365899 190.882235 
L 504.910745 157.659928 
L 510.000438 207.493389 
L 512.545284 205.416994 
L 515.090131 207.493389 
L 517.634977 174.271081 
L 520.179824 265.632426 
L 522.72467 172.194687 
L 525.269517 203.3406 
L 527.814363 211.646177 
L 532.904056 190.882235 
L 535.448903 217.87536 
L 537.993749 145.201563 
L 540.538596 184.653052 
L 545.628288 184.653052 
L 548.173135 151.430745 
L 550.717981 215.798965 
L 553.262828 217.87536 
L 555.807674 168.041899 
L 558.352521 165.965505 
L 560.897367 165.965505 
L 563.442214 197.111418 
L 565.98706 207.493389 
L 568.531907 246.944878 
L 571.076753 195.035023 
L 573.621599 188.805841 
L 576.166446 192.958629 
L 578.711292 205.416994 
L 581.256139 222.028148 
L 583.800985 195.035023 
L 586.345832 184.653052 
L 588.890678 192.958629 
L 591.435525 178.42387 
L 593.980371 188.805841 
L 596.525218 151.430745 
L 599.070064 182.576658 
L 601.61491 153.50714 
L 604.159757 176.347476 
L 606.704603 170.118293 
L 609.24945 199.187812 
L 611.794296 165.965505 
L 614.339143 165.965505 
L 616.883989 261.479638 
L 619.428836 203.3406 
L 621.973682 217.87536 
L 624.518529 205.416994 
L 627.063375 255.250455 
L 629.608222 224.104542 
L 632.153068 201.264206 
L 634.697914 209.569783 
L 637.242761 184.653052 
L 639.787607 207.493389 
L 642.332454 219.951754 
L 644.8773 207.493389 
L 647.422147 186.729447 
L 649.966993 176.347476 
L 652.51184 219.951754 
L 655.056686 168.041899 
L 657.601533 195.035023 
L 660.146379 232.410119 
L 662.691225 195.035023 
L 665.236072 211.646177 
L 667.780918 205.416994 
L 670.325765 130.666803 
L 672.870611 201.264206 
L 675.415458 213.722571 
L 677.960304 184.653052 
L 680.505151 197.111418 
L 683.049997 184.653052 
L 685.594844 211.646177 
L 688.13969 211.646177 
L 690.684537 215.798965 
L 693.229383 211.646177 
L 695.774229 224.104542 
L 698.319076 199.187812 
L 700.863922 178.42387 
L 703.408769 192.958629 
L 705.953615 186.729447 
L 708.498462 151.430745 
L 711.043308 195.035023 
L 713.588155 172.194687 
L 716.133001 161.812716 
L 718.677848 201.264206 
L 721.222694 226.180936 
L 723.76754 176.347476 
L 726.312387 182.576658 
L 728.857233 224.104542 
L 731.40208 199.187812 
L 733.946926 186.729447 
L 736.491773 163.88911 
L 739.036619 136.895986 
L 741.581466 207.493389 
L 744.126312 163.88911 
L 746.671159 153.50714 
L 749.216005 157.659928 
L 751.760852 197.111418 
L 754.305698 122.361227 
L 756.850544 141.048774 
L 759.395391 182.576658 
L 761.940237 240.715696 
L 764.485084 222.028148 
L 767.02993 180.500264 
L 769.574777 224.104542 
L 772.119623 197.111418 
L 774.66447 242.79209 
L 777.209316 182.576658 
L 779.754163 197.111418 
L 782.299009 182.576658 
L 784.843855 201.264206 
L 787.388702 230.333725 
L 789.933548 172.194687 
L 792.478395 170.118293 
L 795.023241 170.118293 
L 797.568088 201.264206 
L 800.112934 163.88911 
L 802.657781 203.3406 
L 805.202627 126.514015 
L 807.747474 199.187812 
L 810.29232 222.028148 
L 812.837167 199.187812 
L 815.382013 165.965505 
L 817.926859 207.493389 
L 820.471706 203.3406 
L 823.016552 178.42387 
L 825.561399 197.111418 
L 828.106245 201.264206 
L 830.651092 176.347476 
L 833.195938 215.798965 
L 835.740785 246.944878 
L 838.285631 207.493389 
L 840.830478 195.035023 
L 843.375324 161.812716 
L 845.92017 192.958629 
L 845.92017 192.958629 
" clip-path="url(#p6c4a5c39da)" style="fill: none; stroke: #00ffff; stroke-width: 0.9; stroke-linecap: square"/>
   </g>
   <g id="line2d_18">
    <path d="M 85.01108 170.118293 
L 87.555926 209.569783 
L 90.100772 116.132044 
L 92.645619 145.201563 
L 95.190465 143.125169 
L 97.735312 143.125169 
L 100.280158 151.430745 
L 102.825005 165.965505 
L 105.369851 138.97238 
L 107.914698 95.368102 
L 110.459544 116.132044 
L 113.004391 130.666803 
L 115.549237 168.041899 
L 118.094083 82.909737 
L 120.63893 170.118293 
L 123.183776 195.035023 
L 125.728623 211.646177 
L 128.273469 188.805841 
L 130.818316 226.180936 
L 133.363162 236.562907 
L 135.908009 226.180936 
L 138.452855 182.576658 
L 140.997702 147.277957 
L 143.542548 195.035023 
L 146.087395 197.111418 
L 148.632241 168.041899 
L 151.177087 157.659928 
L 153.721934 199.187812 
L 156.26678 199.187812 
L 158.811627 230.333725 
L 161.356473 228.257331 
L 163.90132 205.416994 
L 166.446166 228.257331 
L 168.991013 192.958629 
L 171.535859 203.3406 
L 174.080706 184.653052 
L 176.625552 163.88911 
L 179.170398 215.798965 
L 181.715245 190.882235 
L 186.804938 174.271081 
L 189.349784 176.347476 
L 191.894631 236.562907 
L 194.439477 203.3406 
L 196.984324 176.347476 
L 199.52917 136.895986 
L 202.074017 149.354351 
L 204.618863 178.42387 
L 207.16371 226.180936 
L 209.708556 205.416994 
L 212.253402 192.958629 
L 214.798249 201.264206 
L 217.343095 199.187812 
L 219.887942 201.264206 
L 222.432788 199.187812 
L 224.977635 186.729447 
L 227.522481 192.958629 
L 230.067328 178.42387 
L 232.612174 230.333725 
L 235.157021 178.42387 
L 237.701867 217.87536 
L 240.246713 176.347476 
L 242.79156 174.271081 
L 245.336406 203.3406 
L 247.881253 219.951754 
L 250.426099 217.87536 
L 252.970946 224.104542 
L 255.515792 226.180936 
L 258.060639 192.958629 
L 260.605485 197.111418 
L 263.150332 246.944878 
L 265.695178 176.347476 
L 268.240025 174.271081 
L 270.784871 178.42387 
L 273.329717 184.653052 
L 275.874564 217.87536 
L 278.41941 205.416994 
L 280.964257 205.416994 
L 283.509103 186.729447 
L 288.598796 107.826467 
L 291.143643 153.50714 
L 293.688489 99.52089 
L 296.233336 111.979256 
L 298.778182 64.222189 
L 301.323028 103.673679 
L 303.867875 118.208438 
L 306.412721 163.88911 
L 308.957568 111.979256 
L 311.502414 143.125169 
L 316.592107 151.430745 
L 319.136954 107.826467 
L 321.6818 114.05565 
L 324.226647 136.895986 
L 326.771493 111.979256 
L 329.31634 161.812716 
L 331.861186 120.284832 
L 334.406032 116.132044 
L 336.950879 155.583534 
L 339.495725 168.041899 
L 342.040572 128.590409 
L 344.585418 180.500264 
L 347.130265 126.514015 
L 349.675111 159.736322 
L 352.219958 161.812716 
L 354.764804 134.819592 
L 357.309651 141.048774 
L 359.854497 122.361227 
L 362.399343 136.895986 
L 364.94419 82.909737 
L 367.489036 82.909737 
L 370.033883 120.284832 
L 372.578729 134.819592 
L 375.123576 93.291708 
L 377.668422 163.88911 
L 380.213269 120.284832 
L 382.758115 153.50714 
L 385.302962 153.50714 
L 387.847808 99.52089 
L 390.392654 74.60416 
L 392.937501 130.666803 
L 395.482347 126.514015 
L 398.027194 95.368102 
L 400.57204 68.374978 
L 403.116887 130.666803 
L 405.661733 178.42387 
L 408.20658 134.819592 
L 410.751426 114.05565 
L 413.296273 145.201563 
L 415.841119 163.88911 
L 418.385966 153.50714 
L 420.930812 168.041899 
L 423.475658 80.833343 
L 426.020505 132.743198 
L 428.565351 84.986131 
L 431.110198 101.597285 
L 433.655044 147.277957 
L 436.199891 153.50714 
L 438.744737 161.812716 
L 441.289584 157.659928 
L 443.83443 170.118293 
L 446.379277 122.361227 
L 448.924123 132.743198 
L 451.468969 128.590409 
L 454.013816 149.354351 
L 456.558662 153.50714 
L 459.103509 190.882235 
L 461.648355 149.354351 
L 464.193202 149.354351 
L 466.738048 114.05565 
L 469.282895 107.826467 
L 471.827741 105.750073 
L 474.372588 116.132044 
L 476.917434 120.284832 
L 479.462281 197.111418 
L 482.007127 111.979256 
L 484.551973 93.291708 
L 487.09682 176.347476 
L 489.641666 172.194687 
L 492.186513 161.812716 
L 494.731359 209.569783 
L 497.276206 205.416994 
L 499.821052 199.187812 
L 502.365899 184.653052 
L 504.910745 199.187812 
L 507.455592 153.50714 
L 510.000438 184.653052 
L 512.545284 132.743198 
L 515.090131 176.347476 
L 517.634977 130.666803 
L 520.179824 207.493389 
L 522.72467 147.277957 
L 525.269517 192.958629 
L 527.814363 155.583534 
L 530.35921 153.50714 
L 532.904056 180.500264 
L 535.448903 159.736322 
L 537.993749 130.666803 
L 540.538596 153.50714 
L 543.083442 205.416994 
L 545.628288 141.048774 
L 548.173135 161.812716 
L 550.717981 155.583534 
L 553.262828 188.805841 
L 555.807674 151.430745 
L 558.352521 186.729447 
L 560.897367 180.500264 
L 563.442214 192.958629 
L 565.98706 161.812716 
L 568.531907 226.180936 
L 571.076753 203.3406 
L 573.621599 195.035023 
L 578.711292 190.882235 
L 581.256139 226.180936 
L 583.800985 205.416994 
L 586.345832 159.736322 
L 588.890678 163.88911 
L 591.435525 170.118293 
L 593.980371 168.041899 
L 596.525218 157.659928 
L 599.070064 182.576658 
L 601.61491 174.271081 
L 604.159757 217.87536 
L 606.704603 159.736322 
L 609.24945 174.271081 
L 611.794296 219.951754 
L 614.339143 184.653052 
L 616.883989 192.958629 
L 619.428836 203.3406 
L 621.973682 197.111418 
L 624.518529 192.958629 
L 629.608222 217.87536 
L 632.153068 209.569783 
L 634.697914 217.87536 
L 637.242761 149.354351 
L 639.787607 184.653052 
L 642.332454 182.576658 
L 644.8773 153.50714 
L 647.422147 201.264206 
L 649.966993 184.653052 
L 652.51184 184.653052 
L 655.056686 176.347476 
L 657.601533 124.437621 
L 660.146379 195.035023 
L 662.691225 168.041899 
L 665.236072 199.187812 
L 667.780918 176.347476 
L 670.325765 124.437621 
L 672.870611 178.42387 
L 675.415458 209.569783 
L 677.960304 188.805841 
L 680.505151 161.812716 
L 683.049997 215.798965 
L 685.594844 207.493389 
L 688.13969 184.653052 
L 690.684537 170.118293 
L 693.229383 199.187812 
L 695.774229 211.646177 
L 698.319076 168.041899 
L 700.863922 192.958629 
L 703.408769 186.729447 
L 705.953615 159.736322 
L 708.498462 147.277957 
L 711.043308 145.201563 
L 713.588155 176.347476 
L 716.133001 151.430745 
L 721.222694 176.347476 
L 723.76754 161.812716 
L 726.312387 155.583534 
L 728.857233 157.659928 
L 731.40208 182.576658 
L 733.946926 159.736322 
L 736.491773 174.271081 
L 739.036619 134.819592 
L 741.581466 195.035023 
L 744.126312 172.194687 
L 746.671159 176.347476 
L 749.216005 182.576658 
L 751.760852 184.653052 
L 754.305698 168.041899 
L 756.850544 141.048774 
L 761.940237 190.882235 
L 764.485084 209.569783 
L 767.02993 170.118293 
L 769.574777 182.576658 
L 772.119623 170.118293 
L 774.66447 226.180936 
L 777.209316 170.118293 
L 779.754163 215.798965 
L 782.299009 172.194687 
L 784.843855 209.569783 
L 787.388702 228.257331 
L 789.933548 186.729447 
L 792.478395 182.576658 
L 795.023241 197.111418 
L 797.568088 197.111418 
L 800.112934 165.965505 
L 802.657781 197.111418 
L 805.202627 165.965505 
L 807.747474 228.257331 
L 810.29232 174.271081 
L 812.837167 209.569783 
L 815.382013 157.659928 
L 817.926859 203.3406 
L 820.471706 209.569783 
L 823.016552 205.416994 
L 825.561399 122.361227 
L 828.106245 190.882235 
L 830.651092 174.271081 
L 833.195938 242.79209 
L 835.740785 184.653052 
L 838.285631 213.722571 
L 840.830478 207.493389 
L 843.375324 178.42387 
L 845.92017 211.646177 
L 845.92017 211.646177 
" clip-path="url(#p6c4a5c39da)" style="fill: none; stroke: #ffa500; stroke-width: 0.9; stroke-linecap: square"/>
   </g>
   <g id="line2d_19">
    <path d="M 85.01108 246.944878 
L 87.555926 236.562907 
L 90.100772 190.882235 
L 92.645619 134.819592 
L 95.190465 188.805841 
L 97.735312 151.430745 
L 100.280158 230.333725 
L 102.825005 145.201563 
L 105.369851 174.271081 
L 107.914698 153.50714 
L 110.459544 192.958629 
L 113.004391 201.264206 
L 115.549237 201.264206 
L 118.094083 132.743198 
L 120.63893 186.729447 
L 123.183776 249.021272 
L 125.728623 195.035023 
L 128.273469 230.333725 
L 130.818316 180.500264 
L 133.363162 269.785214 
L 135.908009 236.562907 
L 138.452855 207.493389 
L 140.997702 217.87536 
L 143.542548 215.798965 
L 146.087395 251.097667 
L 148.632241 234.486513 
L 151.177087 178.42387 
L 153.721934 209.569783 
L 156.26678 234.486513 
L 158.811627 242.79209 
L 161.356473 215.798965 
L 163.90132 228.257331 
L 166.446166 190.882235 
L 168.991013 236.562907 
L 171.535859 197.111418 
L 176.625552 234.486513 
L 179.170398 226.180936 
L 181.715245 280.167185 
L 184.260091 190.882235 
L 186.804938 199.187812 
L 189.349784 222.028148 
L 191.894631 259.403243 
L 194.439477 224.104542 
L 196.984324 215.798965 
L 199.52917 246.944878 
L 202.074017 201.264206 
L 204.618863 230.333725 
L 207.16371 249.021272 
L 209.708556 228.257331 
L 212.253402 215.798965 
L 214.798249 232.410119 
L 217.343095 217.87536 
L 219.887942 209.569783 
L 222.432788 199.187812 
L 224.977635 199.187812 
L 227.522481 226.180936 
L 230.067328 230.333725 
L 232.612174 230.333725 
L 235.157021 201.264206 
L 237.701867 232.410119 
L 240.246713 188.805841 
L 242.79156 222.028148 
L 245.336406 178.42387 
L 247.881253 234.486513 
L 250.426099 209.569783 
L 252.970946 232.410119 
L 255.515792 253.174061 
L 258.060639 242.79209 
L 260.605485 209.569783 
L 263.150332 255.250455 
L 265.695178 236.562907 
L 268.240025 234.486513 
L 270.784871 267.70882 
L 273.329717 228.257331 
L 275.874564 251.097667 
L 278.41941 219.951754 
L 280.964257 205.416994 
L 283.509103 228.257331 
L 286.05395 203.3406 
L 288.598796 176.347476 
L 291.143643 161.812716 
L 293.688489 211.646177 
L 296.233336 201.264206 
L 298.778182 172.194687 
L 301.323028 170.118293 
L 303.867875 170.118293 
L 306.412721 182.576658 
L 308.957568 232.410119 
L 311.502414 176.347476 
L 314.047261 165.965505 
L 316.592107 182.576658 
L 319.136954 149.354351 
L 321.6818 176.347476 
L 324.226647 188.805841 
L 326.771493 172.194687 
L 329.31634 170.118293 
L 331.861186 180.500264 
L 334.406032 170.118293 
L 336.950879 163.88911 
L 339.495725 219.951754 
L 342.040572 97.444496 
L 344.585418 182.576658 
L 347.130265 143.125169 
L 349.675111 195.035023 
L 352.219958 205.416994 
L 354.764804 201.264206 
L 357.309651 192.958629 
L 359.854497 236.562907 
L 362.399343 190.882235 
L 364.94419 207.493389 
L 367.489036 145.201563 
L 370.033883 209.569783 
L 372.578729 155.583534 
L 375.123576 186.729447 
L 377.668422 172.194687 
L 380.213269 226.180936 
L 385.302962 217.87536 
L 387.847808 215.798965 
L 390.392654 190.882235 
L 392.937501 209.569783 
L 395.482347 159.736322 
L 398.027194 180.500264 
L 400.57204 170.118293 
L 403.116887 182.576658 
L 405.661733 228.257331 
L 408.20658 141.048774 
L 410.751426 180.500264 
L 413.296273 197.111418 
L 415.841119 244.868484 
L 418.385966 195.035023 
L 420.930812 222.028148 
L 423.475658 226.180936 
L 426.020505 207.493389 
L 428.565351 180.500264 
L 431.110198 174.271081 
L 433.655044 197.111418 
L 436.199891 184.653052 
L 438.744737 182.576658 
L 441.289584 192.958629 
L 443.83443 197.111418 
L 446.379277 238.639301 
L 448.924123 203.3406 
L 451.468969 249.021272 
L 454.013816 228.257331 
L 456.558662 240.715696 
L 459.103509 240.715696 
L 461.648355 155.583534 
L 464.193202 188.805841 
L 466.738048 263.556032 
L 469.282895 195.035023 
L 471.827741 211.646177 
L 474.372588 192.958629 
L 476.917434 178.42387 
L 479.462281 205.416994 
L 482.007127 182.576658 
L 484.551973 170.118293 
L 487.09682 217.87536 
L 489.641666 211.646177 
L 492.186513 217.87536 
L 494.731359 222.028148 
L 497.276206 234.486513 
L 499.821052 195.035023 
L 502.365899 209.569783 
L 504.910745 217.87536 
L 507.455592 190.882235 
L 510.000438 230.333725 
L 512.545284 263.556032 
L 515.090131 215.798965 
L 517.634977 199.187812 
L 520.179824 261.479638 
L 522.72467 201.264206 
L 525.269517 217.87536 
L 527.814363 213.722571 
L 530.35921 269.785214 
L 532.904056 213.722571 
L 535.448903 246.944878 
L 537.993749 203.3406 
L 540.538596 217.87536 
L 543.083442 170.118293 
L 545.628288 203.3406 
L 548.173135 180.500264 
L 550.717981 234.486513 
L 553.262828 215.798965 
L 555.807674 226.180936 
L 558.352521 234.486513 
L 560.897367 197.111418 
L 563.442214 195.035023 
L 565.98706 219.951754 
L 568.531907 261.479638 
L 571.076753 207.493389 
L 573.621599 213.722571 
L 576.166446 222.028148 
L 578.711292 207.493389 
L 581.256139 186.729447 
L 583.800985 259.403243 
L 586.345832 278.090791 
L 588.890678 222.028148 
L 591.435525 224.104542 
L 593.980371 230.333725 
L 596.525218 215.798965 
L 599.070064 222.028148 
L 601.61491 203.3406 
L 604.159757 217.87536 
L 606.704603 170.118293 
L 609.24945 215.798965 
L 611.794296 219.951754 
L 614.339143 168.041899 
L 616.883989 242.79209 
L 619.428836 263.556032 
L 621.973682 226.180936 
L 624.518529 255.250455 
L 627.063375 209.569783 
L 629.608222 271.861609 
L 632.153068 209.569783 
L 634.697914 211.646177 
L 637.242761 205.416994 
L 639.787607 238.639301 
L 642.332454 209.569783 
L 644.8773 240.715696 
L 647.422147 190.882235 
L 649.966993 224.104542 
L 652.51184 230.333725 
L 655.056686 228.257331 
L 657.601533 209.569783 
L 660.146379 226.180936 
L 662.691225 192.958629 
L 665.236072 278.090791 
L 667.780918 197.111418 
L 670.325765 207.493389 
L 672.870611 182.576658 
L 675.415458 205.416994 
L 677.960304 184.653052 
L 680.505151 215.798965 
L 683.049997 201.264206 
L 685.594844 242.79209 
L 688.13969 178.42387 
L 690.684537 209.569783 
L 693.229383 222.028148 
L 695.774229 195.035023 
L 698.319076 209.569783 
L 700.863922 172.194687 
L 703.408769 209.569783 
L 705.953615 195.035023 
L 708.498462 263.556032 
L 711.043308 217.87536 
L 713.588155 228.257331 
L 716.133001 226.180936 
L 718.677848 253.174061 
L 721.222694 234.486513 
L 723.76754 222.028148 
L 726.312387 199.187812 
L 728.857233 213.722571 
L 731.40208 236.562907 
L 733.946926 190.882235 
L 736.491773 203.3406 
L 739.036619 180.500264 
L 741.581466 222.028148 
L 744.126312 190.882235 
L 746.671159 207.493389 
L 749.216005 195.035023 
L 751.760852 251.097667 
L 754.305698 219.951754 
L 756.850544 190.882235 
L 759.395391 153.50714 
L 761.940237 282.24358 
L 764.485084 219.951754 
L 767.02993 203.3406 
L 769.574777 261.479638 
L 772.119623 209.569783 
L 774.66447 257.326849 
L 777.209316 222.028148 
L 779.754163 238.639301 
L 782.299009 190.882235 
L 784.843855 219.951754 
L 787.388702 230.333725 
L 789.933548 230.333725 
L 792.478395 217.87536 
L 795.023241 261.479638 
L 797.568088 186.729447 
L 800.112934 238.639301 
L 802.657781 213.722571 
L 805.202627 163.88911 
L 807.747474 224.104542 
L 810.29232 246.944878 
L 812.837167 207.493389 
L 815.382013 188.805841 
L 817.926859 203.3406 
L 820.471706 228.257331 
L 823.016552 217.87536 
L 825.561399 186.729447 
L 828.106245 197.111418 
L 830.651092 188.805841 
L 833.195938 236.562907 
L 835.740785 255.250455 
L 838.285631 211.646177 
L 840.830478 232.410119 
L 843.375324 267.70882 
L 845.92017 219.951754 
L 845.92017 219.951754 
" clip-path="url(#p6c4a5c39da)" style="fill: none; stroke: #ff4500; stroke-width: 0.9; stroke-linecap: square"/>
   </g>
   <g id="patch_3">
    <path d="M 46.965625 294.598125 
L 46.965625 22.798125 
" style="fill: none; stroke: #000000; stroke-width: 0.8; stroke-linejoin: miter; stroke-linecap: square"/>
   </g>
   <g id="patch_4">
    <path d="M 883.965625 294.598125 
L 883.965625 22.798125 
" style="fill: none; stroke: #000000; stroke-width: 0.8; stroke-linejoin: miter; stroke-linecap: square"/>
   </g>
   <g id="patch_5">
    <path d="M 46.965625 294.598125 
L 883.965625 294.598125 
" style="fill: none; stroke: #000000; stroke-width: 0.8; stroke-linejoin: miter; stroke-linecap: square"/>
   </g>
   <g id="patch_6">
    <path d="M 46.965625 22.798125 
L 883.965625 22.798125 
" style="fill: none; stroke: #000000; stroke-width: 0.8; stroke-linejoin: miter; stroke-linecap: square"/>
   </g>
   <g id="text_17">
    <!-- Liczba przejść pochodnej przez 0 z próbki 1 sekunda -->
    <g transform="translate(307.827813 16.798125)scale(0.12 -0.12)">
     <defs>
      <path id="DejaVuSans-4c" d="M 628 4666 
L 1259 4666 
L 1259 531 
L 3531 531 
L 3531 0 
L 628 0 
L 628 4666 
z
" transform="scale(0.015625)"/>
      <path id="DejaVuSans-69" d="M 603 3500 
L 1178 3500 
L 1178 0 
L 603 0 
L 603 3500 
z
M 603 4863 
L 1178 4863 
L 1178 4134 
L 603 4134 
L 603 4863 
z
" transform="scale(0.015625)"/>
      <path id="DejaVuSans-63" d="M 3122 3366 
L 3122 2828 
Q 2878 2963 2633 3030 
Q 2388 3097 2138 3097 
Q 1578 3097 1268 2742 
Q 959 2388 959 1747 
Q 959 1106 1268 751 
Q 1578 397 2138 397 
Q 2388 397 2633 464 
Q 2878 531 3122 666 
L 3122 134 
Q 2881 22 2623 -34 
Q 2366 -91 2075 -91 
Q 1284 -91 818 406 
Q 353 903 353 1747 
Q 353 2603 823 3093 
Q 1294 3584 2113 3584 
Q 2378 3584 2631 3529 
Q 2884 3475 3122 3366 
z
" transform="scale(0.015625)"/>
      <path id="DejaVuSans-7a" d="M 353 3500 
L 3084 3500 
L 3084 2975 
L 922 459 
L 3084 459 
L 3084 0 
L 275 0 
L 275 525 
L 2438 3041 
L 353 3041 
L 353 3500 
z
" transform="scale(0.015625)"/>
      <path id="DejaVuSans-20" transform="scale(0.015625)"/>
      <path id="DejaVuSans-70" d="M 1159 525 
L 1159 -1331 
L 581 -1331 
L 581 3500 
L 1159 3500 
L 1159 2969 
Q 1341 3281 1617 3432 
Q 1894 3584 2278 3584 
Q 2916 3584 3314 3078 
Q 3713 2572 3713 1747 
Q 3713 922 3314 415 
Q 2916 -91 2278 -91 
Q 1894 -91 1617 61 
Q 1341 213 1159 525 
z
M 3116 1747 
Q 3116 2381 2855 2742 
Q 2594 3103 2138 3103 
Q 1681 3103 1420 2742 
Q 1159 2381 1159 1747 
Q 1159 1113 1420 752 
Q 1681 391 2138 391 
Q 2594 391 2855 752 
Q 3116 1113 3116 1747 
z
" transform="scale(0.015625)"/>
      <path id="DejaVuSans-65" d="M 3597 1894 
L 3597 1613 
L 953 1613 
Q 991 1019 1311 708 
Q 1631 397 2203 397 
Q 2534 397 2845 478 
Q 3156 559 3463 722 
L 3463 178 
Q 3153 47 2828 -22 
Q 2503 -91 2169 -91 
Q 1331 -91 842 396 
Q 353 884 353 1716 
Q 353 2575 817 3079 
Q 1281 3584 2069 3584 
Q 2775 3584 3186 3129 
Q 3597 2675 3597 1894 
z
M 3022 2063 
Q 3016 2534 2758 2815 
Q 2500 3097 2075 3097 
Q 1594 3097 1305 2825 
Q 1016 2553 972 2059 
L 3022 2063 
z
" transform="scale(0.015625)"/>
      <path id="DejaVuSans-6a" d="M 603 3500 
L 1178 3500 
L 1178 -63 
Q 1178 -731 923 -1031 
Q 669 -1331 103 -1331 
L -116 -1331 
L -116 -844 
L 38 -844 
Q 366 -844 484 -692 
Q 603 -541 603 -63 
L 603 3500 
z
M 603 4863 
L 1178 4863 
L 1178 4134 
L 603 4134 
L 603 4863 
z
" transform="scale(0.015625)"/>
      <path id="DejaVuSans-68" d="M 3513 2113 
L 3513 0 
L 2938 0 
L 2938 2094 
Q 2938 2591 2744 2837 
Q 2550 3084 2163 3084 
Q 1697 3084 1428 2787 
Q 1159 2491 1159 1978 
L 1159 0 
L 581 0 
L 581 4863 
L 1159 4863 
L 1159 2956 
Q 1366 3272 1645 3428 
Q 1925 3584 2291 3584 
Q 2894 3584 3203 3211 
Q 3513 2838 3513 2113 
z
" transform="scale(0.015625)"/>
      <path id="DejaVuSans-64" d="M 2906 2969 
L 2906 4863 
L 3481 4863 
L 3481 0 
L 2906 0 
L 2906 525 
Q 2725 213 2448 61 
Q 2172 -91 1784 -91 
Q 1150 -91 751 415 
Q 353 922 353 1747 
Q 353 2572 751 3078 
Q 1150 3584 1784 3584 
Q 2172 3584 2448 3432 
Q 2725 3281 2906 2969 
z
M 947 1747 
Q 947 1113 1208 752 
Q 1469 391 1925 391 
Q 2381 391 2643 752 
Q 2906 1113 2906 1747 
Q 2906 2381 2643 2742 
Q 2381 3103 1925 3103 
Q 1469 3103 1208 2742 
Q 947 2381 947 1747 
z
" transform="scale(0.015625)"/>
      <path id="DejaVuSans-6e" d="M 3513 2113 
L 3513 0 
L 2938 0 
L 2938 2094 
Q 2938 2591 2744 2837 
Q 2550 3084 2163 3084 
Q 1697 3084 1428 2787 
Q 1159 2491 1159 1978 
L 1159 0 
L 581 0 
L 581 3500 
L 1159 3500 
L 1159 2956 
Q 1366 3272 1645 3428 
Q 1925 3584 2291 3584 
Q 2894 3584 3203 3211 
Q 3513 2838 3513 2113 
z
" transform="scale(0.015625)"/>
      <path id="DejaVuSans-73" d="M 2834 3397 
L 2834 2853 
Q 2591 2978 2328 3040 
Q 2066 3103 1784 3103 
Q 1356 3103 1142 2972 
Q 928 2841 928 2578 
Q 928 2378 1081 2264 
Q 1234 2150 1697 2047 
L 1894 2003 
Q 2506 1872 2764 1633 
Q 3022 1394 3022 966 
Q 3022 478 2636 193 
Q 2250 -91 1575 -91 
Q 1294 -91 989 -36 
Q 684 19 347 128 
L 347 722 
Q 666 556 975 473 
Q 1284 391 1588 391 
Q 1994 391 2212 530 
Q 2431 669 2431 922 
Q 2431 1156 2273 1281 
Q 2116 1406 1581 1522 
L 1381 1569 
Q 847 1681 609 1914 
Q 372 2147 372 2553 
Q 372 3047 722 3315 
Q 1072 3584 1716 3584 
Q 2034 3584 2315 3537 
Q 2597 3491 2834 3397 
z
" transform="scale(0.015625)"/>
      <path id="DejaVuSans-75" d="M 544 1381 
L 544 3500 
L 1119 3500 
L 1119 1403 
Q 1119 906 1312 657 
Q 1506 409 1894 409 
Q 2359 409 2629 706 
Q 2900 1003 2900 1516 
L 2900 3500 
L 3475 3500 
L 3475 0 
L 2900 0 
L 2900 538 
Q 2691 219 2414 64 
Q 2138 -91 1772 -91 
Q 1169 -91 856 284 
Q 544 659 544 1381 
z
M 1991 3584 
L 1991 3584 
z
" transform="scale(0.015625)"/>
     </defs>
     <use xlink:href="#DejaVuSans-4c"/>
     <use xlink:href="#DejaVuSans-69" x="55.712891"/>
     <use xlink:href="#DejaVuSans-63" x="83.496094"/>
     <use xlink:href="#DejaVuSans-7a" x="138.476562"/>
     <use xlink:href="#DejaVuSans-62" x="190.966797"/>
     <use xlink:href="#DejaVuSans-61" x="254.443359"/>
     <use xlink:href="#DejaVuSans-20" x="315.722656"/>
     <use xlink:href="#DejaVuSans-70" x="347.509766"/>
     <use xlink:href="#DejaVuSans-72" x="410.986328"/>
     <use xlink:href="#DejaVuSans-7a" x="452.099609"/>
     <use xlink:href="#DejaVuSans-65" x="504.589844"/>
     <use xlink:href="#DejaVuSans-6a" x="566.113281"/>
     <use xlink:href="#DejaVuSans-15b" x="593.896484"/>
     <use xlink:href="#DejaVuSans-107" x="645.996094"/>
     <use xlink:href="#DejaVuSans-20" x="700.976562"/>
     <use xlink:href="#DejaVuSans-70" x="732.763672"/>
     <use xlink:href="#DejaVuSans-6f" x="796.240234"/>
     <use xlink:href="#DejaVuSans-63" x="857.421875"/>
     <use xlink:href="#DejaVuSans-68" x="912.402344"/>
     <use xlink:href="#DejaVuSans-6f" x="975.78125"/>
     <use xlink:href="#DejaVuSans-64" x="1036.962891"/>
     <use xlink:href="#DejaVuSans-6e" x="1100.439453"/>
     <use xlink:href="#DejaVuSans-65" x="1163.818359"/>
     <use xlink:href="#DejaVuSans-6a" x="1225.341797"/>
     <use xlink:href="#DejaVuSans-20" x="1253.125"/>
     <use xlink:href="#DejaVuSans-70" x="1284.912109"/>
     <use xlink:href="#DejaVuSans-72" x="1348.388672"/>
     <use xlink:href="#DejaVuSans-7a" x="1389.501953"/>
     <use xlink:href="#DejaVuSans-65" x="1441.992188"/>
     <use xlink:href="#DejaVuSans-7a" x="1503.515625"/>
     <use xlink:href="#DejaVuSans-20" x="1556.005859"/>
     <use xlink:href="#DejaVuSans-30" x="1587.792969"/>
     <use xlink:href="#DejaVuSans-20" x="1651.416016"/>
     <use xlink:href="#DejaVuSans-7a" x="1683.203125"/>
     <use xlink:href="#DejaVuSans-20" x="1735.693359"/>
     <use xlink:href="#DejaVuSans-70" x="1767.480469"/>
     <use xlink:href="#DejaVuSans-72" x="1830.957031"/>
     <use xlink:href="#DejaVuSans-f3" x="1869.820312"/>
     <use xlink:href="#DejaVuSans-62" x="1931.001953"/>
     <use xlink:href="#DejaVuSans-6b" x="1994.478516"/>
     <use xlink:href="#DejaVuSans-69" x="2052.388672"/>
     <use xlink:href="#DejaVuSans-20" x="2080.171875"/>
     <use xlink:href="#DejaVuSans-31" x="2111.958984"/>
     <use xlink:href="#DejaVuSans-20" x="2175.582031"/>
     <use xlink:href="#DejaVuSans-73" x="2207.369141"/>
     <use xlink:href="#DejaVuSans-65" x="2259.46875"/>
     <use xlink:href="#DejaVuSans-6b" x="2320.992188"/>
     <use xlink:href="#DejaVuSans-75" x="2375.777344"/>
     <use xlink:href="#DejaVuSans-6e" x="2439.15625"/>
     <use xlink:href="#DejaVuSans-64" x="2502.535156"/>
     <use xlink:href="#DejaVuSans-61" x="2566.011719"/>
    </g>
   </g>
   <g id="legend_1">
    <g id="patch_7">
     <path d="M 790.290625 105.579375 
L 876.965625 105.579375 
Q 878.965625 105.579375 878.965625 103.579375 
L 878.965625 29.798125 
Q 878.965625 27.798125 876.965625 27.798125 
L 790.290625 27.798125 
Q 788.290625 27.798125 788.290625 29.798125 
L 788.290625 103.579375 
Q 788.290625 105.579375 790.290625 105.579375 
z
" style="fill: #ffffff; opacity: 0.8; stroke: #cccccc; stroke-linejoin: miter"/>
    </g>
    <g id="line2d_20">
     <path d="M 792.290625 35.896563 
L 802.290625 35.896563 
L 812.290625 35.896563 
" style="fill: none; stroke: #ff00ff; stroke-width: 0.9; stroke-linecap: square"/>
    </g>
    <g id="text_18">
     <!-- CH1_0.5KS -->
     <g transform="translate(820.290625 39.396563)scale(0.1 -0.1)">
      <defs>
       <path id="DejaVuSans-43" d="M 4122 4306 
L 4122 3641 
Q 3803 3938 3442 4084 
Q 3081 4231 2675 4231 
Q 1875 4231 1450 3742 
Q 1025 3253 1025 2328 
Q 1025 1406 1450 917 
Q 1875 428 2675 428 
Q 3081 428 3442 575 
Q 3803 722 4122 1019 
L 4122 359 
Q 3791 134 3420 21 
Q 3050 -91 2638 -91 
Q 1578 -91 968 557 
Q 359 1206 359 2328 
Q 359 3453 968 4101 
Q 1578 4750 2638 4750 
Q 3056 4750 3426 4639 
Q 3797 4528 4122 4306 
z
" transform="scale(0.015625)"/>
       <path id="DejaVuSans-48" d="M 628 4666 
L 1259 4666 
L 1259 2753 
L 3553 2753 
L 3553 4666 
L 4184 4666 
L 4184 0 
L 3553 0 
L 3553 2222 
L 1259 2222 
L 1259 0 
L 628 0 
L 628 4666 
z
" transform="scale(0.015625)"/>
       <path id="DejaVuSans-5f" d="M 3263 -1063 
L 3263 -1509 
L -63 -1509 
L -63 -1063 
L 3263 -1063 
z
" transform="scale(0.015625)"/>
       <path id="DejaVuSans-2e" d="M 684 794 
L 1344 794 
L 1344 0 
L 684 0 
L 684 794 
z
" transform="scale(0.015625)"/>
       <path id="DejaVuSans-4b" d="M 628 4666 
L 1259 4666 
L 1259 2694 
L 3353 4666 
L 4166 4666 
L 1850 2491 
L 4331 0 
L 3500 0 
L 1259 2247 
L 1259 0 
L 628 0 
L 628 4666 
z
" transform="scale(0.015625)"/>
       <path id="DejaVuSans-53" d="M 3425 4513 
L 3425 3897 
Q 3066 4069 2747 4153 
Q 2428 4238 2131 4238 
Q 1616 4238 1336 4038 
Q 1056 3838 1056 3469 
Q 1056 3159 1242 3001 
Q 1428 2844 1947 2747 
L 2328 2669 
Q 3034 2534 3370 2195 
Q 3706 1856 3706 1288 
Q 3706 609 3251 259 
Q 2797 -91 1919 -91 
Q 1588 -91 1214 -16 
Q 841 59 441 206 
L 441 856 
Q 825 641 1194 531 
Q 1563 422 1919 422 
Q 2459 422 2753 634 
Q 3047 847 3047 1241 
Q 3047 1584 2836 1778 
Q 2625 1972 2144 2069 
L 1759 2144 
Q 1053 2284 737 2584 
Q 422 2884 422 3419 
Q 422 4038 858 4394 
Q 1294 4750 2059 4750 
Q 2388 4750 2728 4690 
Q 3069 4631 3425 4513 
z
" transform="scale(0.015625)"/>
      </defs>
      <use xlink:href="#DejaVuSans-43"/>
      <use xlink:href="#DejaVuSans-48" x="69.824219"/>
      <use xlink:href="#DejaVuSans-31" x="145.019531"/>
      <use xlink:href="#DejaVuSans-5f" x="208.642578"/>
      <use xlink:href="#DejaVuSans-30" x="258.642578"/>
      <use xlink:href="#DejaVuSans-2e" x="322.265625"/>
      <use xlink:href="#DejaVuSans-35" x="354.052734"/>
      <use xlink:href="#DejaVuSans-4b" x="417.675781"/>
      <use xlink:href="#DejaVuSans-53" x="483.251953"/>
     </g>
    </g>
    <g id="line2d_21">
     <path d="M 792.290625 50.852813 
L 802.290625 50.852813 
L 812.290625 50.852813 
" style="fill: none; stroke: #9400d3; stroke-width: 0.9; stroke-linecap: square"/>
    </g>
    <g id="text_19">
     <!-- CH2_0.5KS -->
     <g transform="translate(820.290625 54.352813)scale(0.1 -0.1)">
      <use xlink:href="#DejaVuSans-43"/>
      <use xlink:href="#DejaVuSans-48" x="69.824219"/>
      <use xlink:href="#DejaVuSans-32" x="145.019531"/>
      <use xlink:href="#DejaVuSans-5f" x="208.642578"/>
      <use xlink:href="#DejaVuSans-30" x="258.642578"/>
      <use xlink:href="#DejaVuSans-2e" x="322.265625"/>
      <use xlink:href="#DejaVuSans-35" x="354.052734"/>
      <use xlink:href="#DejaVuSans-4b" x="417.675781"/>
      <use xlink:href="#DejaVuSans-53" x="483.251953"/>
     </g>
    </g>
    <g id="line2d_22">
     <path d="M 792.290625 65.809063 
L 802.290625 65.809063 
L 812.290625 65.809063 
" style="fill: none; stroke: #00ffff; stroke-width: 0.9; stroke-linecap: square"/>
    </g>
    <g id="text_20">
     <!-- CH3_0.5KS -->
     <g transform="translate(820.290625 69.309063)scale(0.1 -0.1)">
      <use xlink:href="#DejaVuSans-43"/>
      <use xlink:href="#DejaVuSans-48" x="69.824219"/>
      <use xlink:href="#DejaVuSans-33" x="145.019531"/>
      <use xlink:href="#DejaVuSans-5f" x="208.642578"/>
      <use xlink:href="#DejaVuSans-30" x="258.642578"/>
      <use xlink:href="#DejaVuSans-2e" x="322.265625"/>
      <use xlink:href="#DejaVuSans-35" x="354.052734"/>
      <use xlink:href="#DejaVuSans-4b" x="417.675781"/>
      <use xlink:href="#DejaVuSans-53" x="483.251953"/>
     </g>
    </g>
    <g id="line2d_23">
     <path d="M 792.290625 80.765313 
L 802.290625 80.765313 
L 812.290625 80.765313 
" style="fill: none; stroke: #ffa500; stroke-width: 0.9; stroke-linecap: square"/>
    </g>
    <g id="text_21">
     <!-- CH4_0.5KS -->
     <g transform="translate(820.290625 84.265313)scale(0.1 -0.1)">
      <use xlink:href="#DejaVuSans-43"/>
      <use xlink:href="#DejaVuSans-48" x="69.824219"/>
      <use xlink:href="#DejaVuSans-34" x="145.019531"/>
      <use xlink:href="#DejaVuSans-5f" x="208.642578"/>
      <use xlink:href="#DejaVuSans-30" x="258.642578"/>
      <use xlink:href="#DejaVuSans-2e" x="322.265625"/>
      <use xlink:href="#DejaVuSans-35" x="354.052734"/>
      <use xlink:href="#DejaVuSans-4b" x="417.675781"/>
      <use xlink:href="#DejaVuSans-53" x="483.251953"/>
     </g>
    </g>
    <g id="line2d_24">
     <path d="M 792.290625 95.721563 
L 802.290625 95.721563 
L 812.290625 95.721563 
" style="fill: none; stroke: #ff4500; stroke-width: 0.9; stroke-linecap: square"/>
    </g>
    <g id="text_22">
     <!-- CH5_0.5KS -->
     <g transform="translate(820.290625 99.221563)scale(0.1 -0.1)">
      <use xlink:href="#DejaVuSans-43"/>
      <use xlink:href="#DejaVuSans-48" x="69.824219"/>
      <use xlink:href="#DejaVuSans-35" x="145.019531"/>
      <use xlink:href="#DejaVuSans-5f" x="208.642578"/>
      <use xlink:href="#DejaVuSans-30" x="258.642578"/>
      <use xlink:href="#DejaVuSans-2e" x="322.265625"/>
      <use xlink:href="#DejaVuSans-35" x="354.052734"/>
      <use xlink:href="#DejaVuSans-4b" x="417.675781"/>
      <use xlink:href="#DejaVuSans-53" x="483.251953"/>
     </g>
    </g>
   </g>
  </g>
 </g>
 <defs>
  <clipPath id="p6c4a5c39da">
   <rect x="46.965625" y="22.798125" width="837" height="271.8"/>
  </clipPath>
 </defs>
</svg>
