<?xml version="1.0" encoding="utf-8" standalone="no"?>
<!DOCTYPE svg PUBLIC "-//W3C//DTD SVG 1.1//EN"
  "http://www.w3.org/Graphics/SVG/1.1/DTD/svg11.dtd">
<svg xmlns:xlink="http://www.w3.org/1999/xlink" width="897.528125pt" height="332.154375pt" viewBox="0 0 897.528125 332.154375" xmlns="http://www.w3.org/2000/svg" version="1.1">
 <metadata>
  <rdf:RDF xmlns:dc="http://purl.org/dc/elements/1.1/" xmlns:cc="http://creativecommons.org/ns#" xmlns:rdf="http://www.w3.org/1999/02/22-rdf-syntax-ns#">
   <cc:Work>
    <dc:type rdf:resource="http://purl.org/dc/dcmitype/StillImage"/>
    <dc:date>2022-06-21T21:13:41.626640</dc:date>
    <dc:format>image/svg+xml</dc:format>
    <dc:creator>
     <cc:Agent>
      <dc:title>Matplotlib v3.5.2, https://matplotlib.org/</dc:title>
     </cc:Agent>
    </dc:creator>
   </cc:Work>
  </rdf:RDF>
 </metadata>
 <defs>
  <style type="text/css">*{stroke-linejoin: round; stroke-linecap: butt}</style>
 </defs>
 <g id="figure_1">
  <g id="patch_1">
   <path d="M 0 332.154375 
L 897.528125 332.154375 
L 897.528125 0 
L 0 0 
L 0 332.154375 
z
" style="fill: none"/>
  </g>
  <g id="axes_1">
   <g id="patch_2">
    <path d="M 53.328125 294.598125 
L 890.328125 294.598125 
L 890.328125 22.798125 
L 53.328125 22.798125 
z
" style="fill: #ffffff"/>
   </g>
   <g id="matplotlib.axis_1">
    <g id="xtick_1">
     <g id="line2d_1">
      <defs>
       <path id="m60504881c4" d="M 0 0 
L 0 3.5 
" style="stroke: #000000; stroke-width: 0.8"/>
      </defs>
      <g>
       <use xlink:href="#m60504881c4" x="91.37358" y="294.598125" style="stroke: #000000; stroke-width: 0.8"/>
      </g>
     </g>
     <g id="text_1">
      <!-- 0 -->
      <g transform="translate(88.19233 309.196562)scale(0.1 -0.1)">
       <defs>
        <path id="DejaVuSans-30" d="M 2034 4250 
Q 1547 4250 1301 3770 
Q 1056 3291 1056 2328 
Q 1056 1369 1301 889 
Q 1547 409 2034 409 
Q 2525 409 2770 889 
Q 3016 1369 3016 2328 
Q 3016 3291 2770 3770 
Q 2525 4250 2034 4250 
z
M 2034 4750 
Q 2819 4750 3233 4129 
Q 3647 3509 3647 2328 
Q 3647 1150 3233 529 
Q 2819 -91 2034 -91 
Q 1250 -91 836 529 
Q 422 1150 422 2328 
Q 422 3509 836 4129 
Q 1250 4750 2034 4750 
z
" transform="scale(0.015625)"/>
       </defs>
       <use xlink:href="#DejaVuSans-30"/>
      </g>
     </g>
    </g>
    <g id="xtick_2">
     <g id="line2d_2">
      <g>
       <use xlink:href="#m60504881c4" x="218.615902" y="294.598125" style="stroke: #000000; stroke-width: 0.8"/>
      </g>
     </g>
     <g id="text_2">
      <!-- 50 -->
      <g transform="translate(212.253402 309.196562)scale(0.1 -0.1)">
       <defs>
        <path id="DejaVuSans-35" d="M 691 4666 
L 3169 4666 
L 3169 4134 
L 1269 4134 
L 1269 2991 
Q 1406 3038 1543 3061 
Q 1681 3084 1819 3084 
Q 2600 3084 3056 2656 
Q 3513 2228 3513 1497 
Q 3513 744 3044 326 
Q 2575 -91 1722 -91 
Q 1428 -91 1123 -41 
Q 819 9 494 109 
L 494 744 
Q 775 591 1075 516 
Q 1375 441 1709 441 
Q 2250 441 2565 725 
Q 2881 1009 2881 1497 
Q 2881 1984 2565 2268 
Q 2250 2553 1709 2553 
Q 1456 2553 1204 2497 
Q 953 2441 691 2322 
L 691 4666 
z
" transform="scale(0.015625)"/>
       </defs>
       <use xlink:href="#DejaVuSans-35"/>
       <use xlink:href="#DejaVuSans-30" x="63.623047"/>
      </g>
     </g>
    </g>
    <g id="xtick_3">
     <g id="line2d_3">
      <g>
       <use xlink:href="#m60504881c4" x="345.858225" y="294.598125" style="stroke: #000000; stroke-width: 0.8"/>
      </g>
     </g>
     <g id="text_3">
      <!-- 100 -->
      <g transform="translate(336.314475 309.196562)scale(0.1 -0.1)">
       <defs>
        <path id="DejaVuSans-31" d="M 794 531 
L 1825 531 
L 1825 4091 
L 703 3866 
L 703 4441 
L 1819 4666 
L 2450 4666 
L 2450 531 
L 3481 531 
L 3481 0 
L 794 0 
L 794 531 
z
" transform="scale(0.015625)"/>
       </defs>
       <use xlink:href="#DejaVuSans-31"/>
       <use xlink:href="#DejaVuSans-30" x="63.623047"/>
       <use xlink:href="#DejaVuSans-30" x="127.246094"/>
      </g>
     </g>
    </g>
    <g id="xtick_4">
     <g id="line2d_4">
      <g>
       <use xlink:href="#m60504881c4" x="473.100548" y="294.598125" style="stroke: #000000; stroke-width: 0.8"/>
      </g>
     </g>
     <g id="text_4">
      <!-- 150 -->
      <g transform="translate(463.556798 309.196562)scale(0.1 -0.1)">
       <use xlink:href="#DejaVuSans-31"/>
       <use xlink:href="#DejaVuSans-35" x="63.623047"/>
       <use xlink:href="#DejaVuSans-30" x="127.246094"/>
      </g>
     </g>
    </g>
    <g id="xtick_5">
     <g id="line2d_5">
      <g>
       <use xlink:href="#m60504881c4" x="600.342871" y="294.598125" style="stroke: #000000; stroke-width: 0.8"/>
      </g>
     </g>
     <g id="text_5">
      <!-- 200 -->
      <g transform="translate(590.799121 309.196562)scale(0.1 -0.1)">
       <defs>
        <path id="DejaVuSans-32" d="M 1228 531 
L 3431 531 
L 3431 0 
L 469 0 
L 469 531 
Q 828 903 1448 1529 
Q 2069 2156 2228 2338 
Q 2531 2678 2651 2914 
Q 2772 3150 2772 3378 
Q 2772 3750 2511 3984 
Q 2250 4219 1831 4219 
Q 1534 4219 1204 4116 
Q 875 4013 500 3803 
L 500 4441 
Q 881 4594 1212 4672 
Q 1544 4750 1819 4750 
Q 2544 4750 2975 4387 
Q 3406 4025 3406 3419 
Q 3406 3131 3298 2873 
Q 3191 2616 2906 2266 
Q 2828 2175 2409 1742 
Q 1991 1309 1228 531 
z
" transform="scale(0.015625)"/>
       </defs>
       <use xlink:href="#DejaVuSans-32"/>
       <use xlink:href="#DejaVuSans-30" x="63.623047"/>
       <use xlink:href="#DejaVuSans-30" x="127.246094"/>
      </g>
     </g>
    </g>
    <g id="xtick_6">
     <g id="line2d_6">
      <g>
       <use xlink:href="#m60504881c4" x="727.585194" y="294.598125" style="stroke: #000000; stroke-width: 0.8"/>
      </g>
     </g>
     <g id="text_6">
      <!-- 250 -->
      <g transform="translate(718.041444 309.196562)scale(0.1 -0.1)">
       <use xlink:href="#DejaVuSans-32"/>
       <use xlink:href="#DejaVuSans-35" x="63.623047"/>
       <use xlink:href="#DejaVuSans-30" x="127.246094"/>
      </g>
     </g>
    </g>
    <g id="xtick_7">
     <g id="line2d_7">
      <g>
       <use xlink:href="#m60504881c4" x="854.827517" y="294.598125" style="stroke: #000000; stroke-width: 0.8"/>
      </g>
     </g>
     <g id="text_7">
      <!-- 300 -->
      <g transform="translate(845.283767 309.196562)scale(0.1 -0.1)">
       <defs>
        <path id="DejaVuSans-33" d="M 2597 2516 
Q 3050 2419 3304 2112 
Q 3559 1806 3559 1356 
Q 3559 666 3084 287 
Q 2609 -91 1734 -91 
Q 1441 -91 1130 -33 
Q 819 25 488 141 
L 488 750 
Q 750 597 1062 519 
Q 1375 441 1716 441 
Q 2309 441 2620 675 
Q 2931 909 2931 1356 
Q 2931 1769 2642 2001 
Q 2353 2234 1838 2234 
L 1294 2234 
L 1294 2753 
L 1863 2753 
Q 2328 2753 2575 2939 
Q 2822 3125 2822 3475 
Q 2822 3834 2567 4026 
Q 2313 4219 1838 4219 
Q 1578 4219 1281 4162 
Q 984 4106 628 3988 
L 628 4550 
Q 988 4650 1302 4700 
Q 1616 4750 1894 4750 
Q 2613 4750 3031 4423 
Q 3450 4097 3450 3541 
Q 3450 3153 3228 2886 
Q 3006 2619 2597 2516 
z
" transform="scale(0.015625)"/>
       </defs>
       <use xlink:href="#DejaVuSans-33"/>
       <use xlink:href="#DejaVuSans-30" x="63.623047"/>
       <use xlink:href="#DejaVuSans-30" x="127.246094"/>
      </g>
     </g>
    </g>
    <g id="text_8">
     <!-- Próbka -->
     <g transform="translate(454.852344 322.874687)scale(0.1 -0.1)">
      <defs>
       <path id="DejaVuSans-50" d="M 1259 4147 
L 1259 2394 
L 2053 2394 
Q 2494 2394 2734 2622 
Q 2975 2850 2975 3272 
Q 2975 3691 2734 3919 
Q 2494 4147 2053 4147 
L 1259 4147 
z
M 628 4666 
L 2053 4666 
Q 2838 4666 3239 4311 
Q 3641 3956 3641 3272 
Q 3641 2581 3239 2228 
Q 2838 1875 2053 1875 
L 1259 1875 
L 1259 0 
L 628 0 
L 628 4666 
z
" transform="scale(0.015625)"/>
       <path id="DejaVuSans-72" d="M 2631 2963 
Q 2534 3019 2420 3045 
Q 2306 3072 2169 3072 
Q 1681 3072 1420 2755 
Q 1159 2438 1159 1844 
L 1159 0 
L 581 0 
L 581 3500 
L 1159 3500 
L 1159 2956 
Q 1341 3275 1631 3429 
Q 1922 3584 2338 3584 
Q 2397 3584 2469 3576 
Q 2541 3569 2628 3553 
L 2631 2963 
z
" transform="scale(0.015625)"/>
       <path id="DejaVuSans-f3" d="M 1959 3097 
Q 1497 3097 1228 2736 
Q 959 2375 959 1747 
Q 959 1119 1226 758 
Q 1494 397 1959 397 
Q 2419 397 2687 759 
Q 2956 1122 2956 1747 
Q 2956 2369 2687 2733 
Q 2419 3097 1959 3097 
z
M 1959 3584 
Q 2709 3584 3137 3096 
Q 3566 2609 3566 1747 
Q 3566 888 3137 398 
Q 2709 -91 1959 -91 
Q 1206 -91 779 398 
Q 353 888 353 1747 
Q 353 2609 779 3096 
Q 1206 3584 1959 3584 
z
M 2394 5119 
L 3016 5119 
L 1998 3944 
L 1519 3944 
L 2394 5119 
z
" transform="scale(0.015625)"/>
       <path id="DejaVuSans-62" d="M 3116 1747 
Q 3116 2381 2855 2742 
Q 2594 3103 2138 3103 
Q 1681 3103 1420 2742 
Q 1159 2381 1159 1747 
Q 1159 1113 1420 752 
Q 1681 391 2138 391 
Q 2594 391 2855 752 
Q 3116 1113 3116 1747 
z
M 1159 2969 
Q 1341 3281 1617 3432 
Q 1894 3584 2278 3584 
Q 2916 3584 3314 3078 
Q 3713 2572 3713 1747 
Q 3713 922 3314 415 
Q 2916 -91 2278 -91 
Q 1894 -91 1617 61 
Q 1341 213 1159 525 
L 1159 0 
L 581 0 
L 581 4863 
L 1159 4863 
L 1159 2969 
z
" transform="scale(0.015625)"/>
       <path id="DejaVuSans-6b" d="M 581 4863 
L 1159 4863 
L 1159 1991 
L 2875 3500 
L 3609 3500 
L 1753 1863 
L 3688 0 
L 2938 0 
L 1159 1709 
L 1159 0 
L 581 0 
L 581 4863 
z
" transform="scale(0.015625)"/>
       <path id="DejaVuSans-61" d="M 2194 1759 
Q 1497 1759 1228 1600 
Q 959 1441 959 1056 
Q 959 750 1161 570 
Q 1363 391 1709 391 
Q 2188 391 2477 730 
Q 2766 1069 2766 1631 
L 2766 1759 
L 2194 1759 
z
M 3341 1997 
L 3341 0 
L 2766 0 
L 2766 531 
Q 2569 213 2275 61 
Q 1981 -91 1556 -91 
Q 1019 -91 701 211 
Q 384 513 384 1019 
Q 384 1609 779 1909 
Q 1175 2209 1959 2209 
L 2766 2209 
L 2766 2266 
Q 2766 2663 2505 2880 
Q 2244 3097 1772 3097 
Q 1472 3097 1187 3025 
Q 903 2953 641 2809 
L 641 3341 
Q 956 3463 1253 3523 
Q 1550 3584 1831 3584 
Q 2591 3584 2966 3190 
Q 3341 2797 3341 1997 
z
" transform="scale(0.015625)"/>
      </defs>
      <use xlink:href="#DejaVuSans-50"/>
      <use xlink:href="#DejaVuSans-72" x="58.552734"/>
      <use xlink:href="#DejaVuSans-f3" x="97.416016"/>
      <use xlink:href="#DejaVuSans-62" x="158.597656"/>
      <use xlink:href="#DejaVuSans-6b" x="222.074219"/>
      <use xlink:href="#DejaVuSans-61" x="278.234375"/>
     </g>
    </g>
   </g>
   <g id="matplotlib.axis_2">
    <g id="ytick_1">
     <g id="line2d_8">
      <defs>
       <path id="mabdceeea5d" d="M 0 0 
L -3.5 0 
" style="stroke: #000000; stroke-width: 0.8"/>
      </defs>
      <g>
       <use xlink:href="#mabdceeea5d" x="53.328125" y="260.802887" style="stroke: #000000; stroke-width: 0.8"/>
      </g>
     </g>
     <g id="text_9">
      <!-- 2600 -->
      <g transform="translate(20.878125 264.602106)scale(0.1 -0.1)">
       <defs>
        <path id="DejaVuSans-36" d="M 2113 2584 
Q 1688 2584 1439 2293 
Q 1191 2003 1191 1497 
Q 1191 994 1439 701 
Q 1688 409 2113 409 
Q 2538 409 2786 701 
Q 3034 994 3034 1497 
Q 3034 2003 2786 2293 
Q 2538 2584 2113 2584 
z
M 3366 4563 
L 3366 3988 
Q 3128 4100 2886 4159 
Q 2644 4219 2406 4219 
Q 1781 4219 1451 3797 
Q 1122 3375 1075 2522 
Q 1259 2794 1537 2939 
Q 1816 3084 2150 3084 
Q 2853 3084 3261 2657 
Q 3669 2231 3669 1497 
Q 3669 778 3244 343 
Q 2819 -91 2113 -91 
Q 1303 -91 875 529 
Q 447 1150 447 2328 
Q 447 3434 972 4092 
Q 1497 4750 2381 4750 
Q 2619 4750 2861 4703 
Q 3103 4656 3366 4563 
z
" transform="scale(0.015625)"/>
       </defs>
       <use xlink:href="#DejaVuSans-32"/>
       <use xlink:href="#DejaVuSans-36" x="63.623047"/>
       <use xlink:href="#DejaVuSans-30" x="127.246094"/>
       <use xlink:href="#DejaVuSans-30" x="190.869141"/>
      </g>
     </g>
    </g>
    <g id="ytick_2">
     <g id="line2d_9">
      <g>
       <use xlink:href="#mabdceeea5d" x="53.328125" y="208.508515" style="stroke: #000000; stroke-width: 0.8"/>
      </g>
     </g>
     <g id="text_10">
      <!-- 2800 -->
      <g transform="translate(20.878125 212.307733)scale(0.1 -0.1)">
       <defs>
        <path id="DejaVuSans-38" d="M 2034 2216 
Q 1584 2216 1326 1975 
Q 1069 1734 1069 1313 
Q 1069 891 1326 650 
Q 1584 409 2034 409 
Q 2484 409 2743 651 
Q 3003 894 3003 1313 
Q 3003 1734 2745 1975 
Q 2488 2216 2034 2216 
z
M 1403 2484 
Q 997 2584 770 2862 
Q 544 3141 544 3541 
Q 544 4100 942 4425 
Q 1341 4750 2034 4750 
Q 2731 4750 3128 4425 
Q 3525 4100 3525 3541 
Q 3525 3141 3298 2862 
Q 3072 2584 2669 2484 
Q 3125 2378 3379 2068 
Q 3634 1759 3634 1313 
Q 3634 634 3220 271 
Q 2806 -91 2034 -91 
Q 1263 -91 848 271 
Q 434 634 434 1313 
Q 434 1759 690 2068 
Q 947 2378 1403 2484 
z
M 1172 3481 
Q 1172 3119 1398 2916 
Q 1625 2713 2034 2713 
Q 2441 2713 2670 2916 
Q 2900 3119 2900 3481 
Q 2900 3844 2670 4047 
Q 2441 4250 2034 4250 
Q 1625 4250 1398 4047 
Q 1172 3844 1172 3481 
z
" transform="scale(0.015625)"/>
       </defs>
       <use xlink:href="#DejaVuSans-32"/>
       <use xlink:href="#DejaVuSans-38" x="63.623047"/>
       <use xlink:href="#DejaVuSans-30" x="127.246094"/>
       <use xlink:href="#DejaVuSans-30" x="190.869141"/>
      </g>
     </g>
    </g>
    <g id="ytick_3">
     <g id="line2d_10">
      <g>
       <use xlink:href="#mabdceeea5d" x="53.328125" y="156.214142" style="stroke: #000000; stroke-width: 0.8"/>
      </g>
     </g>
     <g id="text_11">
      <!-- 3000 -->
      <g transform="translate(20.878125 160.013361)scale(0.1 -0.1)">
       <use xlink:href="#DejaVuSans-33"/>
       <use xlink:href="#DejaVuSans-30" x="63.623047"/>
       <use xlink:href="#DejaVuSans-30" x="127.246094"/>
       <use xlink:href="#DejaVuSans-30" x="190.869141"/>
      </g>
     </g>
    </g>
    <g id="ytick_4">
     <g id="line2d_11">
      <g>
       <use xlink:href="#mabdceeea5d" x="53.328125" y="103.91977" style="stroke: #000000; stroke-width: 0.8"/>
      </g>
     </g>
     <g id="text_12">
      <!-- 3200 -->
      <g transform="translate(20.878125 107.718989)scale(0.1 -0.1)">
       <use xlink:href="#DejaVuSans-33"/>
       <use xlink:href="#DejaVuSans-32" x="63.623047"/>
       <use xlink:href="#DejaVuSans-30" x="127.246094"/>
       <use xlink:href="#DejaVuSans-30" x="190.869141"/>
      </g>
     </g>
    </g>
    <g id="ytick_5">
     <g id="line2d_12">
      <g>
       <use xlink:href="#mabdceeea5d" x="53.328125" y="51.625398" style="stroke: #000000; stroke-width: 0.8"/>
      </g>
     </g>
     <g id="text_13">
      <!-- 3400 -->
      <g transform="translate(20.878125 55.424616)scale(0.1 -0.1)">
       <defs>
        <path id="DejaVuSans-34" d="M 2419 4116 
L 825 1625 
L 2419 1625 
L 2419 4116 
z
M 2253 4666 
L 3047 4666 
L 3047 1625 
L 3713 1625 
L 3713 1100 
L 3047 1100 
L 3047 0 
L 2419 0 
L 2419 1100 
L 313 1100 
L 313 1709 
L 2253 4666 
z
" transform="scale(0.015625)"/>
       </defs>
       <use xlink:href="#DejaVuSans-33"/>
       <use xlink:href="#DejaVuSans-34" x="63.623047"/>
       <use xlink:href="#DejaVuSans-30" x="127.246094"/>
       <use xlink:href="#DejaVuSans-30" x="190.869141"/>
      </g>
     </g>
    </g>
    <g id="text_14">
     <!-- Wartość -->
     <g transform="translate(14.798438 178.816094)rotate(-90)scale(0.1 -0.1)">
      <defs>
       <path id="DejaVuSans-57" d="M 213 4666 
L 850 4666 
L 1831 722 
L 2809 4666 
L 3519 4666 
L 4500 722 
L 5478 4666 
L 6119 4666 
L 4947 0 
L 4153 0 
L 3169 4050 
L 2175 0 
L 1381 0 
L 213 4666 
z
" transform="scale(0.015625)"/>
       <path id="DejaVuSans-74" d="M 1172 4494 
L 1172 3500 
L 2356 3500 
L 2356 3053 
L 1172 3053 
L 1172 1153 
Q 1172 725 1289 603 
Q 1406 481 1766 481 
L 2356 481 
L 2356 0 
L 1766 0 
Q 1100 0 847 248 
Q 594 497 594 1153 
L 594 3053 
L 172 3053 
L 172 3500 
L 594 3500 
L 594 4494 
L 1172 4494 
z
" transform="scale(0.015625)"/>
       <path id="DejaVuSans-6f" d="M 1959 3097 
Q 1497 3097 1228 2736 
Q 959 2375 959 1747 
Q 959 1119 1226 758 
Q 1494 397 1959 397 
Q 2419 397 2687 759 
Q 2956 1122 2956 1747 
Q 2956 2369 2687 2733 
Q 2419 3097 1959 3097 
z
M 1959 3584 
Q 2709 3584 3137 3096 
Q 3566 2609 3566 1747 
Q 3566 888 3137 398 
Q 2709 -91 1959 -91 
Q 1206 -91 779 398 
Q 353 888 353 1747 
Q 353 2609 779 3096 
Q 1206 3584 1959 3584 
z
" transform="scale(0.015625)"/>
       <path id="DejaVuSans-15b" d="M 2242 5119 
L 2864 5119 
L 1846 3944 
L 1367 3944 
L 2242 5119 
z
M 2834 3397 
L 2834 2853 
Q 2591 2978 2328 3040 
Q 2066 3103 1784 3103 
Q 1356 3103 1142 2972 
Q 928 2841 928 2578 
Q 928 2378 1081 2264 
Q 1234 2150 1697 2047 
L 1894 2003 
Q 2506 1872 2764 1633 
Q 3022 1394 3022 966 
Q 3022 478 2636 193 
Q 2250 -91 1575 -91 
Q 1294 -91 989 -36 
Q 684 19 347 128 
L 347 722 
Q 666 556 975 473 
Q 1284 391 1588 391 
Q 1994 391 2212 530 
Q 2431 669 2431 922 
Q 2431 1156 2273 1281 
Q 2116 1406 1581 1522 
L 1381 1569 
Q 847 1681 609 1914 
Q 372 2147 372 2553 
Q 372 3047 722 3315 
Q 1072 3584 1716 3584 
Q 2034 3584 2315 3537 
Q 2597 3491 2834 3397 
z
" transform="scale(0.015625)"/>
       <path id="DejaVuSans-107" d="M 3122 3366 
L 3122 2828 
Q 2878 2963 2633 3030 
Q 2388 3097 2138 3097 
Q 1578 3097 1268 2742 
Q 959 2388 959 1747 
Q 959 1106 1268 751 
Q 1578 397 2138 397 
Q 2388 397 2633 464 
Q 2878 531 3122 666 
L 3122 134 
Q 2881 22 2623 -34 
Q 2366 -91 2075 -91 
Q 1284 -91 818 406 
Q 353 903 353 1747 
Q 353 2603 823 3093 
Q 1294 3584 2113 3584 
Q 2378 3584 2631 3529 
Q 2884 3475 3122 3366 
z
M 2466 5119 
L 3088 5119 
L 2070 3944 
L 1591 3944 
L 2466 5119 
z
" transform="scale(0.015625)"/>
      </defs>
      <use xlink:href="#DejaVuSans-57"/>
      <use xlink:href="#DejaVuSans-61" x="92.501953"/>
      <use xlink:href="#DejaVuSans-72" x="153.78125"/>
      <use xlink:href="#DejaVuSans-74" x="194.894531"/>
      <use xlink:href="#DejaVuSans-6f" x="234.103516"/>
      <use xlink:href="#DejaVuSans-15b" x="295.285156"/>
      <use xlink:href="#DejaVuSans-107" x="347.384766"/>
     </g>
    </g>
   </g>
   <g id="line2d_13">
    <path d="M 91.37358 91.107649 
L 93.918426 94.768255 
L 96.463272 90.846177 
L 99.008119 103.396826 
L 101.552965 74.634922 
L 104.097812 92.153536 
L 106.642658 65.483406 
L 109.187505 52.671285 
L 111.732351 60.253969 
L 116.822044 110.97951 
L 119.366891 95.291199 
L 121.911737 84.047909 
L 124.456583 79.341415 
L 127.00143 86.924099 
L 129.546276 103.91977 
L 132.091123 74.896393 
L 134.635969 81.171718 
L 137.180816 70.974315 
L 139.725662 85.355268 
L 142.270509 93.983839 
L 144.815355 99.73622 
L 147.360202 96.598558 
L 149.905048 77.511112 
L 152.449895 89.538818 
L 154.994741 99.474748 
L 157.539587 66.529294 
L 160.084434 89.277346 
L 162.62928 75.942281 
L 165.174127 108.626264 
L 167.718973 130.851372 
L 170.26382 95.814142 
L 172.808666 50.056567 
L 175.353513 83.524965 
L 177.898359 72.543147 
L 180.443206 64.437519 
L 182.988052 76.203753 
L 185.532898 103.91977 
L 188.077745 109.672151 
L 190.622591 98.951805 
L 193.167438 97.905917 
L 195.712284 89.80029 
L 198.257131 102.350939 
L 200.801977 86.401155 
L 203.346824 68.098125 
L 205.89167 74.111978 
L 208.436517 35.15267 
L 210.981363 87.969986 
L 213.52621 55.808948 
L 216.071056 97.644445 
L 218.615902 114.117173 
L 221.160749 106.011545 
L 223.705595 78.034056 
L 226.250442 84.570852 
L 228.795288 90.323233 
L 231.340135 73.06609 
L 233.884981 81.171718 
L 236.429828 86.401155 
L 238.974674 114.901588 
L 241.519521 102.089467 
L 244.064367 78.034056 
L 246.609213 72.020203 
L 249.15406 84.832324 
L 251.698906 66.00635 
L 254.243753 90.584705 
L 256.788599 110.97951 
L 259.333446 79.864359 
L 261.878292 76.465225 
L 264.423139 80.648774 
L 266.967985 91.369121 
L 269.512832 66.267822 
L 272.057678 70.712844 
L 274.602525 67.836653 
L 277.147371 71.758731 
L 279.692217 94.768255 
L 282.237064 98.951805 
L 284.78191 89.538818 
L 287.326757 105.227129 
L 289.871603 89.277346 
L 292.41645 90.584705 
L 294.961296 65.744878 
L 300.050989 94.245311 
L 302.595836 102.873883 
L 305.140682 81.43319 
L 307.685528 72.543147 
L 310.230375 96.337086 
L 312.775221 53.717173 
L 315.320068 49.272151 
L 317.864914 55.547476 
L 320.409761 52.409813 
L 322.954607 73.06609 
L 325.499454 82.217606 
L 328.0443 85.878212 
L 330.589147 77.511112 
L 333.133993 74.896393 
L 335.67884 43.51977 
L 338.223686 68.098125 
L 340.768532 126.667822 
L 343.313379 123.007216 
L 345.858225 97.644445 
L 348.403072 62.868688 
L 350.947918 74.896393 
L 353.492765 82.740549 
L 356.037611 109.672151 
L 358.582458 111.240982 
L 361.127304 91.630593 
L 363.672151 64.176047 
L 366.216997 84.047909 
L 368.761843 84.30938 
L 371.30669 49.533623 
L 373.851536 82.479077 
L 376.396383 71.758731 
L 378.941229 94.506783 
L 381.486076 123.791631 
L 384.030922 90.061761 
L 386.575769 70.451372 
L 389.120615 73.06609 
L 391.665462 84.047909 
L 394.210308 98.951805 
L 396.755154 80.125831 
L 399.300001 69.405484 
L 401.844847 71.497259 
L 404.389694 75.680809 
L 406.93454 42.473883 
L 409.479387 52.409813 
L 412.024233 80.910246 
L 414.56908 60.515441 
L 417.113926 62.868688 
L 419.658773 112.548341 
L 422.203619 124.576047 
L 424.748466 92.415008 
L 427.293312 83.524965 
L 429.838158 61.8228 
L 432.383005 76.726696 
L 434.927851 101.04358 
L 437.472698 95.814142 
L 440.017544 93.199424 
L 442.562391 83.263493 
L 445.107237 92.937952 
L 447.652084 90.846177 
L 450.19693 68.882541 
L 452.741777 89.277346 
L 455.286623 111.240982 
L 457.831469 112.809813 
L 460.376316 95.55267 
L 462.921162 85.878212 
L 465.466009 105.227129 
L 468.010855 114.378644 
L 470.555702 66.790766 
L 473.100548 65.221935 
L 475.645395 86.924099 
L 478.190241 129.282541 
L 480.735088 61.038385 
L 483.279934 97.382973 
L 485.824781 72.543147 
L 488.369627 101.566523 
L 490.914473 135.034922 
L 493.45932 90.846177 
L 496.004166 92.153536 
L 498.549013 111.763926 
L 501.093859 98.428861 
L 503.638706 89.538818 
L 506.183552 83.002021 
L 508.728399 63.13016 
L 511.273245 96.075614 
L 513.818092 100.259164 
L 516.362938 99.213277 
L 518.907784 119.085138 
L 521.452631 110.195095 
L 523.997477 139.479943 
L 526.542324 104.965657 
L 529.08717 108.10332 
L 531.632017 133.46609 
L 534.176863 85.878212 
L 536.72171 67.313709 
L 539.266556 99.997692 
L 541.811403 90.323233 
L 544.356249 78.556999 
L 546.901096 84.047909 
L 549.445942 75.419337 
L 551.990788 87.969986 
L 554.535635 96.075614 
L 557.080481 82.217606 
L 559.625328 71.758731 
L 562.170174 76.726696 
L 564.715021 90.061761 
L 567.259867 107.057432 
L 569.804714 103.135354 
L 572.34956 98.428861 
L 574.894407 91.892064 
L 577.439253 80.910246 
L 579.984099 86.924099 
L 582.528946 130.851372 
L 585.073792 118.823666 
L 587.618639 99.73622 
L 590.163485 112.28687 
L 592.708332 119.085138 
L 595.253178 121.176913 
L 597.798025 126.144878 
L 600.342871 106.273017 
L 602.887718 127.452238 
L 605.432564 86.401155 
L 607.97741 73.06609 
L 610.522257 101.04358 
L 613.067103 73.06609 
L 615.61195 116.470419 
L 618.156796 112.025398 
L 620.701643 95.029727 
L 623.246489 86.139683 
L 625.791336 92.937952 
L 628.336182 82.740549 
L 630.881029 101.04358 
L 633.425875 93.460896 
L 635.970722 116.993363 
L 638.515568 131.374315 
L 641.060414 97.382973 
L 643.605261 61.299857 
L 646.150107 90.846177 
L 648.694954 69.405484 
L 651.2398 80.648774 
L 653.784647 81.694662 
L 656.329493 99.73622 
L 658.87434 69.405484 
L 661.419186 49.533623 
L 663.964033 49.533623 
L 666.508879 80.648774 
L 669.053725 88.231458 
L 671.598572 79.079943 
L 674.143418 82.217606 
L 676.688265 78.556999 
L 679.233111 72.804619 
L 681.777958 65.744878 
L 684.322804 93.460896 
L 686.867651 115.424532 
L 689.412497 76.726696 
L 691.957344 87.969986 
L 694.50219 97.905917 
L 697.047037 114.117173 
L 699.591883 110.718038 
L 702.136729 71.758731 
L 704.681576 65.221935 
L 707.226422 63.391631 
L 709.771269 69.666956 
L 712.316115 107.580376 
L 714.860962 67.313709 
L 717.405808 68.359597 
L 719.950655 85.878212 
L 722.495501 86.139683 
L 725.040348 93.983839 
L 727.585194 53.455701 
L 730.13004 55.547476 
L 732.674887 79.341415 
L 735.219733 63.653103 
L 737.76458 98.951805 
L 740.309426 84.047909 
L 742.854273 84.30938 
L 745.399119 91.892064 
L 750.488812 117.254835 
L 753.033659 103.658298 
L 755.578505 77.772584 
L 758.123352 88.754402 
L 760.668198 62.345744 
L 763.213044 47.441848 
L 765.757891 71.497259 
L 768.302737 82.217606 
L 770.847584 94.506783 
L 773.39243 60.515441 
L 775.937277 113.855701 
L 778.482123 125.883406 
L 781.02697 68.359597 
L 783.571816 65.221935 
L 786.116663 94.768255 
L 788.661509 131.897259 
L 791.206355 99.474748 
L 793.751202 88.231458 
L 796.296048 113.071285 
L 798.840895 53.978644 
L 801.385741 101.827995 
L 803.930588 61.299857 
L 806.475434 69.928428 
L 809.020281 64.176047 
L 811.565127 70.974315 
L 814.109974 64.960463 
L 816.65482 69.405484 
L 819.199667 86.662627 
L 821.744513 41.689467 
L 824.289359 81.171718 
L 826.834206 91.630593 
L 829.379052 66.529294 
L 831.923899 59.469554 
L 834.468745 59.992497 
L 837.013592 65.483406 
L 839.558438 89.015874 
L 842.103285 111.240982 
L 844.648131 106.011545 
L 847.192978 143.402021 
L 849.737824 108.10332 
L 852.28267 112.025398 
L 852.28267 112.025398 
" clip-path="url(#p844cc1c0b8)" style="fill: none; stroke: #ff00ff; stroke-width: 0.9; stroke-linecap: square"/>
   </g>
   <g id="line2d_14">
    <path d="M 91.37358 101.04358 
L 93.918426 112.548341 
L 96.463272 117.516307 
L 99.008119 118.823666 
L 101.552965 101.566523 
L 104.097812 98.951805 
L 106.642658 101.566523 
L 109.187505 95.029727 
L 111.732351 74.111978 
L 114.277198 101.827995 
L 116.822044 99.997692 
L 119.366891 100.520636 
L 121.911737 112.025398 
L 124.456583 117.254835 
L 127.00143 95.029727 
L 129.546276 121.176913 
L 132.091123 134.250506 
L 134.635969 119.34661 
L 137.180816 139.218471 
L 139.725662 115.947476 
L 142.270509 125.621935 
L 144.815355 89.277346 
L 149.905048 147.847043 
L 152.449895 125.621935 
L 154.994741 121.961328 
L 157.539587 106.79596 
L 160.084434 99.213277 
L 162.62928 87.969986 
L 165.174127 123.268688 
L 167.718973 160.397692 
L 170.26382 98.690333 
L 172.808666 122.745744 
L 175.353513 108.887735 
L 177.898359 83.786437 
L 180.443206 82.740549 
L 182.988052 88.231458 
L 185.532898 137.64964 
L 188.077745 126.667822 
L 190.622591 129.282541 
L 193.167438 107.580376 
L 195.712284 105.227129 
L 198.257131 97.905917 
L 200.801977 104.442714 
L 203.346824 101.04358 
L 205.89167 73.06609 
L 208.436517 90.323233 
L 210.981363 96.337086 
L 213.52621 85.61674 
L 216.071056 141.048774 
L 218.615902 143.924965 
L 223.705595 112.548341 
L 226.250442 109.410679 
L 228.795288 122.484272 
L 231.340135 120.392497 
L 233.884981 145.232324 
L 236.429828 134.511978 
L 238.974674 150.723233 
L 241.519521 112.809813 
L 244.064367 94.245311 
L 246.609213 106.534489 
L 249.15406 107.841848 
L 251.698906 80.910246 
L 254.243753 96.337086 
L 256.788599 116.208948 
L 259.333446 92.937952 
L 261.878292 118.562194 
L 264.423139 112.025398 
L 266.967985 82.479077 
L 269.512832 104.704186 
L 272.057678 94.768255 
L 274.602525 87.447043 
L 277.147371 74.37345 
L 279.692217 136.603753 
L 282.237064 152.292064 
L 284.78191 132.943147 
L 287.326757 132.681675 
L 289.871603 93.460896 
L 292.41645 112.28687 
L 294.961296 100.782108 
L 297.506143 95.291199 
L 300.050989 156.475614 
L 302.595836 142.617606 
L 305.140682 109.410679 
L 307.685528 96.86003 
L 310.230375 110.718038 
L 312.775221 71.497259 
L 315.320068 41.427995 
L 317.864914 44.042714 
L 320.409761 48.487735 
L 322.954607 90.846177 
L 325.499454 84.047909 
L 328.0443 123.791631 
L 330.589147 90.061761 
L 333.133993 70.451372 
L 335.67884 72.804619 
L 338.223686 71.235787 
L 340.768532 117.254835 
L 343.313379 131.897259 
L 345.858225 95.029727 
L 348.403072 100.259164 
L 350.947918 84.047909 
L 353.492765 119.608082 
L 356.037611 117.254835 
L 358.582458 113.594229 
L 361.127304 115.947476 
L 363.672151 104.965657 
L 366.216997 86.924099 
L 368.761843 105.488601 
L 371.30669 63.391631 
L 373.851536 84.047909 
L 376.396383 81.956134 
L 378.941229 104.442714 
L 381.486076 110.456567 
L 384.030922 75.157865 
L 386.575769 95.55267 
L 389.120615 105.488601 
L 391.665462 121.699857 
L 394.210308 107.580376 
L 396.755154 96.598558 
L 399.300001 104.704186 
L 401.844847 84.570852 
L 404.389694 98.951805 
L 406.93454 45.611545 
L 409.479387 67.052238 
L 412.024233 83.263493 
L 414.56908 101.04358 
L 417.113926 71.758731 
L 419.658773 129.282541 
L 422.203619 137.64964 
L 424.748466 129.282541 
L 427.293312 84.047909 
L 429.838158 98.690333 
L 432.383005 87.708515 
L 434.927851 101.305051 
L 437.472698 121.438385 
L 440.017544 121.699857 
L 442.562391 97.121502 
L 445.107237 123.268688 
L 447.652084 106.534489 
L 450.19693 86.924099 
L 452.741777 85.61674 
L 455.286623 118.823666 
L 457.831469 109.672151 
L 460.376316 99.213277 
L 462.921162 108.626264 
L 465.466009 132.420203 
L 468.010855 120.653969 
L 470.555702 80.910246 
L 473.100548 118.562194 
L 475.645395 104.181242 
L 478.190241 104.704186 
L 480.735088 108.10332 
L 483.279934 83.524965 
L 485.824781 117.777779 
L 488.369627 75.942281 
L 490.914473 153.337952 
L 493.45932 137.126696 
L 496.004166 122.2228 
L 498.549013 101.04358 
L 501.093859 97.121502 
L 503.638706 104.704186 
L 506.183552 96.598558 
L 508.728399 110.97951 
L 511.273245 140.002887 
L 513.818092 124.837519 
L 516.362938 130.328428 
L 518.907784 143.924965 
L 521.452631 129.805484 
L 523.997477 131.374315 
L 526.542324 143.663493 
L 529.08717 146.539683 
L 531.632017 120.131025 
L 534.176863 147.585571 
L 536.72171 132.420203 
L 539.266556 120.915441 
L 541.811403 97.382973 
L 544.356249 118.039251 
L 546.901096 101.305051 
L 549.445942 107.318904 
L 551.990788 107.580376 
L 554.535635 93.460896 
L 557.080481 78.295528 
L 559.625328 101.04358 
L 562.170174 104.181242 
L 564.715021 135.819337 
L 567.259867 114.378644 
L 569.804714 124.314575 
L 572.34956 108.887735 
L 574.894407 137.388168 
L 577.439253 118.300722 
L 579.984099 144.186437 
L 582.528946 139.479943 
L 585.073792 137.911112 
L 587.618639 154.122367 
L 590.163485 126.929294 
L 592.708332 160.920636 
L 595.253178 127.713709 
L 597.798025 140.264359 
L 600.342871 139.741415 
L 602.887718 120.131025 
L 605.432564 133.989034 
L 607.97741 137.388168 
L 610.522257 102.873883 
L 615.61195 119.869554 
L 618.156796 124.053103 
L 620.701643 143.140549 
L 623.246489 119.869554 
L 625.791336 106.79596 
L 628.336182 115.947476 
L 630.881029 129.282541 
L 633.425875 127.975181 
L 635.970722 142.094662 
L 638.515568 134.511978 
L 641.060414 122.484272 
L 643.605261 126.929294 
L 646.150107 100.520636 
L 648.694954 78.295528 
L 651.2398 77.24964 
L 653.784647 97.121502 
L 656.329493 89.80029 
L 658.87434 61.561328 
L 661.419186 55.547476 
L 663.964033 66.267822 
L 666.508879 94.245311 
L 669.053725 78.818471 
L 671.598572 115.947476 
L 674.143418 98.690333 
L 676.688265 70.712844 
L 679.233111 102.089467 
L 681.777958 75.680809 
L 684.322804 138.695528 
L 686.867651 160.659164 
L 689.412497 110.718038 
L 691.957344 133.204619 
L 694.50219 126.144878 
L 697.047037 133.727562 
L 699.591883 101.04358 
L 702.136729 118.562194 
L 704.681576 57.377779 
L 707.226422 101.827995 
L 709.771269 87.969986 
L 712.316115 133.204619 
L 714.860962 79.864359 
L 717.405808 131.112844 
L 722.495501 118.823666 
L 725.040348 100.782108 
L 727.585194 90.323233 
L 730.13004 65.744878 
L 732.674887 86.662627 
L 735.219733 91.630593 
L 737.76458 113.855701 
L 740.309426 84.832324 
L 742.854273 87.185571 
L 745.399119 110.97951 
L 747.943966 142.879077 
L 750.488812 131.635787 
L 753.033659 111.502454 
L 755.578505 101.305051 
L 758.123352 92.937952 
L 760.668198 80.648774 
L 763.213044 47.441848 
L 765.757891 102.089467 
L 768.302737 117.254835 
L 770.847584 71.497259 
L 773.39243 58.685138 
L 775.937277 158.567389 
L 778.482123 127.452238 
L 781.02697 109.672151 
L 783.571816 120.131025 
L 786.116663 90.584705 
L 788.661509 118.300722 
L 791.206355 154.383839 
L 793.751202 117.777779 
L 796.296048 104.181242 
L 798.840895 61.038385 
L 801.385741 108.626264 
L 803.930588 58.423666 
L 806.475434 62.868688 
L 809.020281 89.015874 
L 811.565127 80.387302 
L 814.109974 89.277346 
L 816.65482 81.694662 
L 819.199667 75.942281 
L 821.744513 87.969986 
L 824.289359 106.273017 
L 826.834206 104.704186 
L 829.379052 84.30938 
L 831.923899 73.327562 
L 834.468745 82.479077 
L 837.013592 88.231458 
L 839.558438 127.713709 
L 842.103285 127.713709 
L 844.648131 136.865225 
L 847.192978 149.415874 
L 849.737824 147.062627 
L 852.28267 164.581242 
L 852.28267 164.581242 
" clip-path="url(#p844cc1c0b8)" style="fill: none; stroke: #9400d3; stroke-width: 0.9; stroke-linecap: square"/>
   </g>
   <g id="line2d_15">
    <path d="M 91.37358 105.227129 
L 93.918426 113.594229 
L 96.463272 104.442714 
L 99.008119 129.282541 
L 101.552965 101.827995 
L 104.097812 108.887735 
L 106.642658 83.786437 
L 109.187505 90.323233 
L 111.732351 115.16306 
L 114.277198 87.447043 
L 116.822044 115.947476 
L 119.366891 86.924099 
L 121.911737 98.428861 
L 124.456583 104.704186 
L 127.00143 96.598558 
L 129.546276 138.434056 
L 132.091123 133.204619 
L 134.635969 86.401155 
L 137.180816 114.117173 
L 139.725662 87.969986 
L 142.270509 105.227129 
L 144.815355 108.364792 
L 147.360202 132.420203 
L 149.905048 146.801155 
L 152.449895 123.007216 
L 154.994741 104.442714 
L 157.539587 130.066956 
L 160.084434 112.025398 
L 162.62928 112.28687 
L 165.174127 109.410679 
L 167.718973 143.140549 
L 170.26382 126.40635 
L 172.808666 93.983839 
L 175.353513 113.594229 
L 177.898359 98.690333 
L 180.443206 73.850506 
L 182.988052 101.04358 
L 185.532898 109.672151 
L 188.077745 136.342281 
L 190.622591 114.378644 
L 193.167438 99.997692 
L 195.712284 107.057432 
L 198.257131 114.901588 
L 200.801977 100.520636 
L 203.346824 105.488601 
L 205.89167 104.181242 
L 208.436517 78.818471 
L 210.981363 86.924099 
L 213.52621 102.612411 
L 216.071056 127.452238 
L 218.615902 138.172584 
L 221.160749 124.053103 
L 223.705595 121.961328 
L 226.250442 137.64964 
L 228.795288 92.67648 
L 231.340135 117.516307 
L 233.884981 131.897259 
L 236.429828 125.621935 
L 238.974674 115.947476 
L 241.519521 117.516307 
L 244.064367 107.057432 
L 246.609213 87.969986 
L 249.15406 104.442714 
L 251.698906 95.814142 
L 254.243753 85.093796 
L 256.788599 109.933623 
L 259.333446 125.883406 
L 261.878292 133.727562 
L 264.423139 115.16306 
L 266.967985 80.910246 
L 269.512832 120.131025 
L 272.057678 104.181242 
L 274.602525 102.873883 
L 277.147371 101.04358 
L 279.692217 119.608082 
L 282.237064 121.699857 
L 284.78191 134.511978 
L 287.326757 120.131025 
L 289.871603 113.855701 
L 292.41645 97.382973 
L 294.961296 100.782108 
L 297.506143 101.827995 
L 300.050989 85.355268 
L 302.595836 117.254835 
L 305.140682 106.273017 
L 307.685528 106.534489 
L 310.230375 81.694662 
L 312.775221 106.534489 
L 315.320068 84.30938 
L 317.864914 91.892064 
L 320.409761 80.387302 
L 322.954607 93.722367 
L 325.499454 129.805484 
L 328.0443 119.608082 
L 330.589147 86.662627 
L 333.133993 84.570852 
L 335.67884 83.263493 
L 338.223686 107.841848 
L 340.768532 99.73622 
L 343.313379 107.841848 
L 345.858225 102.873883 
L 348.403072 94.768255 
L 350.947918 88.754402 
L 353.492765 109.410679 
L 356.037611 107.841848 
L 358.582458 118.039251 
L 361.127304 118.823666 
L 363.672151 96.86003 
L 366.216997 76.465225 
L 368.761843 99.213277 
L 371.30669 81.694662 
L 373.851536 72.020203 
L 376.396383 97.121502 
L 378.941229 108.364792 
L 381.486076 121.438385 
L 384.030922 101.566523 
L 386.575769 101.566523 
L 389.120615 109.149207 
L 391.665462 97.905917 
L 394.210308 135.557865 
L 396.755154 100.259164 
L 399.300001 103.658298 
L 401.844847 97.644445 
L 404.389694 105.488601 
L 406.93454 82.740549 
L 409.479387 91.369121 
L 412.024233 81.43319 
L 414.56908 108.10332 
L 417.113926 118.300722 
L 419.658773 150.984705 
L 422.203619 120.392497 
L 424.748466 109.410679 
L 427.293312 81.43319 
L 429.838158 87.185571 
L 432.383005 96.598558 
L 434.927851 117.777779 
L 437.472698 107.580376 
L 440.017544 113.071285 
L 442.562391 93.199424 
L 445.107237 81.956134 
L 447.652084 127.975181 
L 450.19693 97.644445 
L 452.741777 99.213277 
L 455.286623 94.245311 
L 457.831469 122.2228 
L 460.376316 86.662627 
L 462.921162 87.447043 
L 465.466009 110.718038 
L 468.010855 104.965657 
L 470.555702 101.04358 
L 473.100548 109.149207 
L 475.645395 92.415008 
L 478.190241 112.548341 
L 480.735088 89.015874 
L 483.279934 125.883406 
L 485.824781 62.607216 
L 488.369627 63.13016 
L 490.914473 125.621935 
L 493.45932 130.328428 
L 496.004166 116.731891 
L 498.549013 88.231458 
L 501.093859 131.374315 
L 503.638706 112.548341 
L 506.183552 109.410679 
L 508.728399 99.213277 
L 511.273245 136.342281 
L 513.818092 97.905917 
L 516.362938 148.369986 
L 518.907784 120.653969 
L 521.452631 117.254835 
L 523.997477 107.841848 
L 526.542324 121.699857 
L 529.08717 141.571718 
L 531.632017 124.576047 
L 534.176863 85.093796 
L 536.72171 103.135354 
L 539.266556 79.341415 
L 541.811403 86.662627 
L 544.356249 101.566523 
L 546.901096 98.167389 
L 549.445942 140.002887 
L 551.990788 102.350939 
L 554.535635 104.704186 
L 557.080481 92.415008 
L 559.625328 100.520636 
L 562.170174 115.16306 
L 564.715021 106.011545 
L 567.259867 91.369121 
L 569.804714 102.089467 
L 572.34956 87.708515 
L 574.894407 92.415008 
L 577.439253 125.883406 
L 579.984099 121.176913 
L 582.528946 108.364792 
L 585.073792 104.704186 
L 587.618639 126.40635 
L 590.163485 159.613277 
L 592.708332 106.534489 
L 595.253178 136.603753 
L 597.798025 126.929294 
L 600.342871 106.79596 
L 602.887718 111.240982 
L 605.432564 119.608082 
L 607.97741 125.883406 
L 610.522257 112.548341 
L 613.067103 96.598558 
L 615.61195 110.718038 
L 618.156796 101.566523 
L 620.701643 85.878212 
L 623.246489 116.993363 
L 625.791336 107.057432 
L 628.336182 111.763926 
L 630.881029 120.653969 
L 633.425875 118.562194 
L 635.970722 123.53016 
L 638.515568 104.442714 
L 643.605261 90.846177 
L 646.150107 97.121502 
L 648.694954 102.612411 
L 651.2398 98.690333 
L 653.784647 99.213277 
L 656.329493 84.30938 
L 658.87434 95.814142 
L 661.419186 66.529294 
L 663.964033 79.864359 
L 666.508879 104.704186 
L 669.053725 83.002021 
L 671.598572 118.562194 
L 674.143418 129.544012 
L 676.688265 88.754402 
L 679.233111 89.80029 
L 681.777958 106.534489 
L 684.322804 151.246177 
L 686.867651 121.438385 
L 689.412497 104.442714 
L 691.957344 132.420203 
L 694.50219 122.2228 
L 697.047037 121.961328 
L 699.591883 106.011545 
L 702.136729 92.67648 
L 704.681576 89.80029 
L 707.226422 110.718038 
L 709.771269 94.506783 
L 712.316115 115.424532 
L 714.860962 94.506783 
L 717.405808 133.727562 
L 719.950655 112.28687 
L 722.495501 117.516307 
L 725.040348 106.273017 
L 727.585194 75.419337 
L 732.674887 116.470419 
L 735.219733 80.125831 
L 737.76458 143.663493 
L 740.309426 115.686004 
L 742.854273 99.73622 
L 745.399119 103.135354 
L 747.943966 98.690333 
L 750.488812 126.144878 
L 753.033659 117.516307 
L 755.578505 78.556999 
L 758.123352 101.827995 
L 760.668198 91.892064 
L 763.213044 65.483406 
L 765.757891 66.00635 
L 768.302737 95.291199 
L 770.847584 91.630593 
L 773.39243 74.37345 
L 775.937277 109.933623 
L 778.482123 115.686004 
L 781.02697 92.415008 
L 783.571816 152.815008 
L 786.116663 104.965657 
L 788.661509 92.153536 
L 791.206355 115.16306 
L 793.751202 119.34661 
L 796.296048 113.594229 
L 798.840895 83.524965 
L 801.385741 89.538818 
L 803.930588 59.731025 
L 806.475434 79.079943 
L 809.020281 99.997692 
L 811.565127 65.221935 
L 814.109974 84.047909 
L 816.65482 100.520636 
L 819.199667 93.983839 
L 821.744513 104.704186 
L 824.289359 86.662627 
L 826.834206 102.873883 
L 829.379052 123.791631 
L 831.923899 88.754402 
L 834.468745 95.55267 
L 837.013592 93.983839 
L 839.558438 118.039251 
L 842.103285 99.997692 
L 844.648131 137.64964 
L 847.192978 151.246177 
L 849.737824 140.002887 
L 852.28267 108.364792 
L 852.28267 108.364792 
" clip-path="url(#p844cc1c0b8)" style="fill: none; stroke: #00ffff; stroke-width: 0.9; stroke-linecap: square"/>
   </g>
   <g id="line2d_16">
    <path d="M 91.37358 116.208948 
L 93.918426 106.011545 
L 96.463272 117.777779 
L 99.008119 102.350939 
L 101.552965 114.901588 
L 104.097812 103.658298 
L 106.642658 97.644445 
L 109.187505 89.80029 
L 111.732351 106.273017 
L 114.277198 142.879077 
L 116.822044 97.905917 
L 119.366891 93.460896 
L 121.911737 107.841848 
L 124.456583 97.121502 
L 127.00143 102.350939 
L 132.091123 124.576047 
L 134.635969 116.993363 
L 137.180816 96.86003 
L 139.725662 67.052238 
L 142.270509 96.86003 
L 144.815355 95.291199 
L 147.360202 118.823666 
L 149.905048 98.428861 
L 152.449895 99.474748 
L 154.994741 113.594229 
L 157.539587 84.047909 
L 160.084434 103.658298 
L 162.62928 68.098125 
L 165.174127 163.273883 
L 167.718973 127.975181 
L 170.26382 125.098991 
L 172.808666 119.869554 
L 175.353513 118.300722 
L 177.898359 78.295528 
L 180.443206 97.382973 
L 182.988052 85.093796 
L 188.077745 104.704186 
L 190.622591 110.456567 
L 193.167438 97.644445 
L 195.712284 112.548341 
L 198.257131 108.887735 
L 200.801977 91.892064 
L 203.346824 105.488601 
L 205.89167 80.910246 
L 208.436517 102.612411 
L 210.981363 108.10332 
L 213.52621 116.208948 
L 216.071056 111.240982 
L 218.615902 137.911112 
L 221.160749 114.378644 
L 223.705595 91.892064 
L 226.250442 125.883406 
L 228.795288 108.10332 
L 231.340135 103.135354 
L 233.884981 113.071285 
L 236.429828 149.154402 
L 238.974674 136.342281 
L 241.519521 91.630593 
L 244.064367 115.947476 
L 246.609213 87.708515 
L 249.15406 96.075614 
L 251.698906 61.299857 
L 254.243753 104.704186 
L 256.788599 91.107649 
L 259.333446 94.506783 
L 261.878292 99.474748 
L 264.423139 111.502454 
L 266.967985 89.015874 
L 269.512832 103.91977 
L 272.057678 70.451372 
L 274.602525 92.415008 
L 277.147371 88.754402 
L 279.692217 140.264359 
L 282.237064 120.392497 
L 284.78191 112.809813 
L 287.326757 116.470419 
L 289.871603 100.259164 
L 292.41645 97.905917 
L 294.961296 109.410679 
L 297.506143 87.185571 
L 300.050989 101.305051 
L 302.595836 100.520636 
L 305.140682 116.993363 
L 307.685528 116.208948 
L 310.230375 75.942281 
L 312.775221 59.469554 
L 315.320068 107.318904 
L 317.864914 78.295528 
L 320.409761 76.726696 
L 322.954607 126.40635 
L 325.499454 115.424532 
L 328.0443 83.524965 
L 330.589147 101.04358 
L 333.133993 97.905917 
L 335.67884 65.744878 
L 338.223686 97.644445 
L 343.313379 140.264359 
L 345.858225 83.263493 
L 348.403072 103.396826 
L 350.947918 94.506783 
L 353.492765 101.305051 
L 356.037611 124.837519 
L 358.582458 105.750073 
L 361.127304 112.548341 
L 363.672151 86.662627 
L 366.216997 84.832324 
L 368.761843 91.630593 
L 371.30669 55.024532 
L 373.851536 103.91977 
L 376.396383 62.084272 
L 378.941229 101.566523 
L 381.486076 119.869554 
L 384.030922 82.740549 
L 386.575769 102.612411 
L 389.120615 101.827995 
L 391.665462 122.484272 
L 394.210308 103.396826 
L 396.755154 88.754402 
L 399.300001 104.965657 
L 401.844847 96.075614 
L 404.389694 111.502454 
L 406.93454 58.162194 
L 409.479387 86.662627 
L 412.024233 91.892064 
L 414.56908 38.290333 
L 417.113926 82.217606 
L 419.658773 115.686004 
L 422.203619 115.947476 
L 424.748466 89.538818 
L 427.293312 119.869554 
L 429.838158 109.933623 
L 432.383005 106.273017 
L 434.927851 109.672151 
L 437.472698 89.277346 
L 440.017544 122.2228 
L 442.562391 85.878212 
L 445.107237 90.584705 
L 447.652084 113.594229 
L 450.19693 111.763926 
L 452.741777 117.254835 
L 455.286623 131.374315 
L 457.831469 129.544012 
L 460.376316 96.075614 
L 462.921162 103.91977 
L 465.466009 110.97951 
L 468.010855 108.10332 
L 473.100548 80.125831 
L 475.645395 97.382973 
L 478.190241 127.452238 
L 480.735088 78.556999 
L 483.279934 109.149207 
L 485.824781 84.570852 
L 488.369627 126.667822 
L 490.914473 136.603753 
L 493.45932 117.777779 
L 496.004166 117.516307 
L 498.549013 119.34661 
L 501.093859 127.452238 
L 503.638706 108.887735 
L 506.183552 99.213277 
L 511.273245 124.576047 
L 513.818092 116.208948 
L 516.362938 122.745744 
L 518.907784 146.801155 
L 521.452631 119.085138 
L 523.997477 126.40635 
L 526.542324 152.553536 
L 529.08717 124.576047 
L 531.632017 137.126696 
L 534.176863 110.456567 
L 536.72171 95.814142 
L 539.266556 102.873883 
L 541.811403 101.827995 
L 544.356249 107.318904 
L 546.901096 104.181242 
L 549.445942 123.268688 
L 551.990788 108.626264 
L 554.535635 85.093796 
L 557.080481 89.80029 
L 559.625328 102.612411 
L 562.170174 97.121502 
L 564.715021 108.887735 
L 567.259867 123.791631 
L 569.804714 90.846177 
L 572.34956 84.570852 
L 574.894407 69.144012 
L 577.439253 98.951805 
L 579.984099 113.594229 
L 582.528946 107.057432 
L 585.073792 113.332757 
L 587.618639 104.965657 
L 590.163485 114.640116 
L 592.708332 97.644445 
L 595.253178 122.2228 
L 597.798025 149.677346 
L 600.342871 125.883406 
L 602.887718 142.094662 
L 605.432564 124.576047 
L 607.97741 101.305051 
L 610.522257 104.704186 
L 613.067103 95.029727 
L 615.61195 97.905917 
L 618.156796 93.199424 
L 620.701643 113.855701 
L 623.246489 112.548341 
L 625.791336 94.768255 
L 628.336182 95.55267 
L 630.881029 122.745744 
L 633.425875 116.470419 
L 635.970722 130.851372 
L 638.515568 99.213277 
L 641.060414 89.80029 
L 643.605261 109.149207 
L 646.150107 72.543147 
L 648.694954 96.86003 
L 651.2398 87.185571 
L 653.784647 118.039251 
L 656.329493 113.071285 
L 658.87434 83.263493 
L 661.419186 70.974315 
L 663.964033 69.928428 
L 666.508879 83.786437 
L 669.053725 83.002021 
L 671.598572 120.392497 
L 674.143418 101.04358 
L 676.688265 98.690333 
L 679.233111 113.594229 
L 681.777958 74.896393 
L 684.322804 112.809813 
L 686.867651 114.117173 
L 689.412497 112.025398 
L 691.957344 114.378644 
L 694.50219 109.149207 
L 697.047037 96.337086 
L 699.591883 91.630593 
L 702.136729 130.328428 
L 704.681576 69.666956 
L 707.226422 126.144878 
L 709.771269 77.24964 
L 712.316115 131.635787 
L 714.860962 93.722367 
L 717.405808 104.442714 
L 719.950655 81.956134 
L 722.495501 99.73622 
L 725.040348 86.139683 
L 727.585194 85.093796 
L 730.13004 64.960463 
L 732.674887 83.786437 
L 735.219733 76.726696 
L 737.76458 118.562194 
L 740.309426 92.67648 
L 742.854273 112.28687 
L 745.399119 75.942281 
L 747.943966 115.16306 
L 750.488812 105.488601 
L 753.033659 98.428861 
L 755.578505 108.10332 
L 758.123352 118.300722 
L 760.668198 85.61674 
L 763.213044 67.575181 
L 765.757891 92.937952 
L 768.302737 99.73622 
L 770.847584 62.607216 
L 773.39243 91.107649 
L 775.937277 118.039251 
L 778.482123 131.112844 
L 781.02697 103.658298 
L 783.571816 103.658298 
L 786.116663 113.594229 
L 788.661509 112.809813 
L 791.206355 127.452238 
L 793.751202 117.516307 
L 796.296048 80.648774 
L 798.840895 84.570852 
L 801.385741 103.396826 
L 803.930588 64.698991 
L 806.475434 82.479077 
L 809.020281 80.125831 
L 811.565127 61.299857 
L 814.109974 104.181242 
L 816.65482 95.291199 
L 819.199667 116.993363 
L 821.744513 79.864359 
L 824.289359 83.002021 
L 826.834206 47.70332 
L 829.379052 124.053103 
L 831.923899 79.079943 
L 837.013592 99.73622 
L 839.558438 127.190766 
L 842.103285 112.548341 
L 844.648131 121.176913 
L 847.192978 131.635787 
L 849.737824 130.851372 
L 852.28267 117.516307 
L 852.28267 117.516307 
" clip-path="url(#p844cc1c0b8)" style="fill: none; stroke: #ffa500; stroke-width: 0.9; stroke-linecap: square"/>
   </g>
   <g id="line2d_17">
    <path d="M 91.37358 178.962194 
L 93.918426 195.696393 
L 96.463272 169.287735 
L 99.008119 249.036653 
L 101.552965 180.792497 
L 104.097812 236.747476 
L 106.642658 171.118038 
L 109.187505 197.265225 
L 111.732351 165.365657 
L 114.277198 166.673017 
L 116.822044 207.724099 
L 119.366891 200.925831 
L 121.911737 170.333623 
L 124.456583 176.608948 
L 127.00143 192.035787 
L 129.546276 230.210679 
L 132.091123 245.114575 
L 134.635969 190.9899 
L 137.180816 205.10938 
L 139.725662 181.315441 
L 142.270509 217.921502 
L 144.815355 196.742281 
L 147.360202 240.14661 
L 149.905048 223.935354 
L 152.449895 193.604619 
L 154.994741 188.636653 
L 157.539587 191.774315 
L 160.084434 217.66003 
L 162.62928 212.953536 
L 165.174127 267.862627 
L 167.718973 231.77951 
L 170.26382 231.518038 
L 172.808666 197.526696 
L 175.353513 221.582108 
L 177.898359 162.489467 
L 180.443206 192.035787 
L 182.988052 178.962194 
L 185.532898 225.504186 
L 188.077745 214.260896 
L 190.622591 172.425398 
L 193.167438 220.274748 
L 195.712284 191.512844 
L 198.257131 200.141415 
L 200.801977 176.608948 
L 203.346824 201.710246 
L 205.89167 165.365657 
L 208.436517 201.448774 
L 210.981363 210.338818 
L 213.52621 197.003753 
L 216.071056 213.737952 
L 218.615902 238.839251 
L 221.160749 201.448774 
L 223.705595 207.201155 
L 226.250442 224.71977 
L 228.795288 192.297259 
L 231.340135 195.17345 
L 233.884981 225.242714 
L 236.429828 215.306783 
L 238.974674 194.389034 
L 241.519521 228.118904 
L 244.064367 199.618471 
L 246.609213 228.641848 
L 249.15406 186.021935 
L 251.698906 194.911978 
L 254.243753 156.214142 
L 256.788599 183.145744 
L 259.333446 201.710246 
L 261.878292 171.37951 
L 264.423139 211.907649 
L 266.967985 206.939683 
L 269.512832 186.283406 
L 272.057678 185.237519 
L 274.602525 221.059164 
L 277.147371 197.788168 
L 279.692217 241.715441 
L 282.237064 226.811545 
L 284.78191 192.035787 
L 287.326757 184.976047 
L 289.871603 177.131891 
L 292.41645 176.347476 
L 294.961296 180.792497 
L 297.506143 193.604619 
L 300.050989 201.971718 
L 302.595836 183.93016 
L 305.140682 195.17345 
L 307.685528 156.737086 
L 310.230375 161.966523 
L 312.775221 184.453103 
L 315.320068 143.402021 
L 317.864914 172.163926 
L 320.409761 206.678212 
L 322.954607 166.411545 
L 325.499454 204.847909 
L 328.0443 158.305917 
L 330.589147 212.953536 
L 333.133993 153.860896 
L 335.67884 155.95267 
L 338.223686 161.705051 
L 340.768532 192.297259 
L 343.313379 205.370852 
L 345.858225 187.590766 
L 348.403072 155.95267 
L 350.947918 153.07648 
L 353.492765 210.338818 
L 356.037611 165.627129 
L 358.582458 187.590766 
L 361.127304 186.283406 
L 363.672151 154.645311 
L 366.216997 145.755268 
L 368.761843 174.778644 
L 371.30669 122.484272 
L 373.851536 171.37951 
L 376.396383 137.388168 
L 378.941229 191.251372 
L 381.486076 165.888601 
L 384.030922 176.870419 
L 386.575769 159.874748 
L 389.120615 193.86609 
L 391.665462 188.636653 
L 394.210308 163.535354 
L 396.755154 135.296393 
L 399.300001 171.37951 
L 401.844847 153.599424 
L 404.389694 154.383839 
L 406.93454 98.951805 
L 409.479387 158.567389 
L 412.024233 190.728428 
L 414.56908 163.535354 
L 417.113926 175.040116 
L 419.658773 153.860896 
L 422.203619 177.131891 
L 424.748466 201.710246 
L 427.293312 202.756134 
L 429.838158 141.571718 
L 432.383005 158.828861 
L 434.927851 153.599424 
L 437.472698 207.985571 
L 440.017544 176.870419 
L 442.562391 179.74661 
L 445.107237 172.163926 
L 447.652084 205.632324 
L 450.19693 167.19596 
L 452.741777 163.535354 
L 455.286623 177.393363 
L 457.831469 182.6228 
L 460.376316 200.141415 
L 462.921162 199.879943 
L 465.466009 197.265225 
L 468.010855 210.338818 
L 470.555702 163.012411 
L 473.100548 162.489467 
L 475.645395 156.475614 
L 478.190241 160.920636 
L 480.735088 145.755268 
L 483.279934 135.557865 
L 485.824781 159.613277 
L 488.369627 178.439251 
L 490.914473 235.440116 
L 493.45932 209.554402 
L 496.004166 204.847909 
L 498.549013 200.925831 
L 501.093859 256.096393 
L 503.638706 202.494662 
L 506.183552 185.498991 
L 508.728399 203.802021 
L 511.273245 249.821069 
L 513.818092 167.19596 
L 516.362938 211.646177 
L 518.907784 191.251372 
L 521.452631 228.641848 
L 523.997477 180.008082 
L 526.542324 271.00029 
L 529.08717 207.724099 
L 531.632017 200.141415 
L 534.176863 183.93016 
L 536.72171 223.935354 
L 539.266556 173.471285 
L 541.811403 220.274748 
L 544.356249 142.094662 
L 546.901096 182.361328 
L 549.445942 173.732757 
L 551.990788 187.067822 
L 554.535635 144.186437 
L 557.080481 184.453103 
L 559.625328 226.811545 
L 562.170174 184.714575 
L 564.715021 211.384705 
L 567.259867 167.19596 
L 569.804714 206.678212 
L 572.34956 196.219337 
L 574.894407 282.24358 
L 577.439253 180.792497 
L 579.984099 229.164792 
L 582.528946 209.29293 
L 585.073792 200.664359 
L 587.618639 191.251372 
L 590.163485 223.150939 
L 592.708332 224.981242 
L 595.253178 210.338818 
L 597.798025 196.742281 
L 600.342871 230.472151 
L 602.887718 217.398558 
L 605.432564 219.751805 
L 607.97741 181.576913 
L 610.522257 173.209813 
L 613.067103 188.113709 
L 615.61195 204.586437 
L 618.156796 230.210679 
L 620.701643 176.347476 
L 623.246489 183.668688 
L 625.791336 194.911978 
L 628.336182 229.164792 
L 630.881029 193.86609 
L 633.425875 176.086004 
L 635.970722 245.637519 
L 638.515568 212.430593 
L 641.060414 197.526696 
L 643.605261 194.911978 
L 646.150107 173.471285 
L 648.694954 206.41674 
L 651.2398 183.668688 
L 653.784647 203.279077 
L 656.329493 189.421069 
L 658.87434 212.692064 
L 661.419186 135.819337 
L 663.964033 201.971718 
L 666.508879 171.902454 
L 669.053725 166.411545 
L 671.598572 219.751805 
L 674.143418 193.604619 
L 676.688265 126.40635 
L 679.233111 206.155268 
L 681.777958 167.19596 
L 684.322804 236.486004 
L 686.867651 214.522367 
L 689.412497 221.84358 
L 691.957344 237.270419 
L 694.50219 196.219337 
L 697.047037 256.096393 
L 699.591883 175.301588 
L 702.136729 226.550073 
L 704.681576 161.44358 
L 707.226422 180.008082 
L 709.771269 179.485138 
L 712.316115 211.907649 
L 714.860962 152.815008 
L 717.405808 205.632324 
L 719.950655 188.375181 
L 722.495501 206.41674 
L 725.040348 165.888601 
L 727.585194 207.201155 
L 730.13004 158.567389 
L 732.674887 178.962194 
L 735.219733 126.40635 
L 737.76458 199.095528 
L 740.309426 170.333623 
L 742.854273 199.095528 
L 745.399119 160.397692 
L 747.943966 179.223666 
L 750.488812 181.315441 
L 753.033659 209.29293 
L 755.578505 143.402021 
L 758.123352 229.426264 
L 760.668198 142.617606 
L 763.213044 161.182108 
L 765.757891 186.283406 
L 768.302737 185.760463 
L 770.847584 205.893796 
L 773.39243 147.847043 
L 775.937277 222.889467 
L 778.482123 184.453103 
L 781.02697 243.807216 
L 783.571816 220.274748 
L 786.116663 226.027129 
L 788.661509 149.415874 
L 791.206355 227.857432 
L 793.751202 207.201155 
L 796.296048 195.696393 
L 798.840895 151.507649 
L 801.385741 185.237519 
L 803.930588 181.838385 
L 806.475434 175.040116 
L 809.020281 184.976047 
L 811.565127 117.254835 
L 814.109974 224.458298 
L 816.65482 180.269554 
L 819.199667 218.967389 
L 821.744513 139.479943 
L 824.289359 207.985571 
L 826.834206 204.847909 
L 829.379052 208.769986 
L 831.923899 117.254835 
L 834.468745 189.159597 
L 837.013592 173.471285 
L 839.558438 247.729294 
L 842.103285 209.29293 
L 844.648131 213.999424 
L 847.192978 238.054835 
L 849.737824 188.898125 
L 852.28267 255.57345 
L 852.28267 255.57345 
" clip-path="url(#p844cc1c0b8)" style="fill: none; stroke: #ff4500; stroke-width: 0.9; stroke-linecap: square"/>
   </g>
   <g id="patch_3">
    <path d="M 53.328125 294.598125 
L 53.328125 22.798125 
" style="fill: none; stroke: #000000; stroke-width: 0.8; stroke-linejoin: miter; stroke-linecap: square"/>
   </g>
   <g id="patch_4">
    <path d="M 890.328125 294.598125 
L 890.328125 22.798125 
" style="fill: none; stroke: #000000; stroke-width: 0.8; stroke-linejoin: miter; stroke-linecap: square"/>
   </g>
   <g id="patch_5">
    <path d="M 53.328125 294.598125 
L 890.328125 294.598125 
" style="fill: none; stroke: #000000; stroke-width: 0.8; stroke-linejoin: miter; stroke-linecap: square"/>
   </g>
   <g id="patch_6">
    <path d="M 53.328125 22.798125 
L 890.328125 22.798125 
" style="fill: none; stroke: #000000; stroke-width: 0.8; stroke-linejoin: miter; stroke-linecap: square"/>
   </g>
   <g id="text_15">
    <!-- Liczba przejść pochodnej przez 0 z próbki 1 sekunda -->
    <g transform="translate(314.190313 16.798125)scale(0.12 -0.12)">
     <defs>
      <path id="DejaVuSans-4c" d="M 628 4666 
L 1259 4666 
L 1259 531 
L 3531 531 
L 3531 0 
L 628 0 
L 628 4666 
z
" transform="scale(0.015625)"/>
      <path id="DejaVuSans-69" d="M 603 3500 
L 1178 3500 
L 1178 0 
L 603 0 
L 603 3500 
z
M 603 4863 
L 1178 4863 
L 1178 4134 
L 603 4134 
L 603 4863 
z
" transform="scale(0.015625)"/>
      <path id="DejaVuSans-63" d="M 3122 3366 
L 3122 2828 
Q 2878 2963 2633 3030 
Q 2388 3097 2138 3097 
Q 1578 3097 1268 2742 
Q 959 2388 959 1747 
Q 959 1106 1268 751 
Q 1578 397 2138 397 
Q 2388 397 2633 464 
Q 2878 531 3122 666 
L 3122 134 
Q 2881 22 2623 -34 
Q 2366 -91 2075 -91 
Q 1284 -91 818 406 
Q 353 903 353 1747 
Q 353 2603 823 3093 
Q 1294 3584 2113 3584 
Q 2378 3584 2631 3529 
Q 2884 3475 3122 3366 
z
" transform="scale(0.015625)"/>
      <path id="DejaVuSans-7a" d="M 353 3500 
L 3084 3500 
L 3084 2975 
L 922 459 
L 3084 459 
L 3084 0 
L 275 0 
L 275 525 
L 2438 3041 
L 353 3041 
L 353 3500 
z
" transform="scale(0.015625)"/>
      <path id="DejaVuSans-20" transform="scale(0.015625)"/>
      <path id="DejaVuSans-70" d="M 1159 525 
L 1159 -1331 
L 581 -1331 
L 581 3500 
L 1159 3500 
L 1159 2969 
Q 1341 3281 1617 3432 
Q 1894 3584 2278 3584 
Q 2916 3584 3314 3078 
Q 3713 2572 3713 1747 
Q 3713 922 3314 415 
Q 2916 -91 2278 -91 
Q 1894 -91 1617 61 
Q 1341 213 1159 525 
z
M 3116 1747 
Q 3116 2381 2855 2742 
Q 2594 3103 2138 3103 
Q 1681 3103 1420 2742 
Q 1159 2381 1159 1747 
Q 1159 1113 1420 752 
Q 1681 391 2138 391 
Q 2594 391 2855 752 
Q 3116 1113 3116 1747 
z
" transform="scale(0.015625)"/>
      <path id="DejaVuSans-65" d="M 3597 1894 
L 3597 1613 
L 953 1613 
Q 991 1019 1311 708 
Q 1631 397 2203 397 
Q 2534 397 2845 478 
Q 3156 559 3463 722 
L 3463 178 
Q 3153 47 2828 -22 
Q 2503 -91 2169 -91 
Q 1331 -91 842 396 
Q 353 884 353 1716 
Q 353 2575 817 3079 
Q 1281 3584 2069 3584 
Q 2775 3584 3186 3129 
Q 3597 2675 3597 1894 
z
M 3022 2063 
Q 3016 2534 2758 2815 
Q 2500 3097 2075 3097 
Q 1594 3097 1305 2825 
Q 1016 2553 972 2059 
L 3022 2063 
z
" transform="scale(0.015625)"/>
      <path id="DejaVuSans-6a" d="M 603 3500 
L 1178 3500 
L 1178 -63 
Q 1178 -731 923 -1031 
Q 669 -1331 103 -1331 
L -116 -1331 
L -116 -844 
L 38 -844 
Q 366 -844 484 -692 
Q 603 -541 603 -63 
L 603 3500 
z
M 603 4863 
L 1178 4863 
L 1178 4134 
L 603 4134 
L 603 4863 
z
" transform="scale(0.015625)"/>
      <path id="DejaVuSans-68" d="M 3513 2113 
L 3513 0 
L 2938 0 
L 2938 2094 
Q 2938 2591 2744 2837 
Q 2550 3084 2163 3084 
Q 1697 3084 1428 2787 
Q 1159 2491 1159 1978 
L 1159 0 
L 581 0 
L 581 4863 
L 1159 4863 
L 1159 2956 
Q 1366 3272 1645 3428 
Q 1925 3584 2291 3584 
Q 2894 3584 3203 3211 
Q 3513 2838 3513 2113 
z
" transform="scale(0.015625)"/>
      <path id="DejaVuSans-64" d="M 2906 2969 
L 2906 4863 
L 3481 4863 
L 3481 0 
L 2906 0 
L 2906 525 
Q 2725 213 2448 61 
Q 2172 -91 1784 -91 
Q 1150 -91 751 415 
Q 353 922 353 1747 
Q 353 2572 751 3078 
Q 1150 3584 1784 3584 
Q 2172 3584 2448 3432 
Q 2725 3281 2906 2969 
z
M 947 1747 
Q 947 1113 1208 752 
Q 1469 391 1925 391 
Q 2381 391 2643 752 
Q 2906 1113 2906 1747 
Q 2906 2381 2643 2742 
Q 2381 3103 1925 3103 
Q 1469 3103 1208 2742 
Q 947 2381 947 1747 
z
" transform="scale(0.015625)"/>
      <path id="DejaVuSans-6e" d="M 3513 2113 
L 3513 0 
L 2938 0 
L 2938 2094 
Q 2938 2591 2744 2837 
Q 2550 3084 2163 3084 
Q 1697 3084 1428 2787 
Q 1159 2491 1159 1978 
L 1159 0 
L 581 0 
L 581 3500 
L 1159 3500 
L 1159 2956 
Q 1366 3272 1645 3428 
Q 1925 3584 2291 3584 
Q 2894 3584 3203 3211 
Q 3513 2838 3513 2113 
z
" transform="scale(0.015625)"/>
      <path id="DejaVuSans-73" d="M 2834 3397 
L 2834 2853 
Q 2591 2978 2328 3040 
Q 2066 3103 1784 3103 
Q 1356 3103 1142 2972 
Q 928 2841 928 2578 
Q 928 2378 1081 2264 
Q 1234 2150 1697 2047 
L 1894 2003 
Q 2506 1872 2764 1633 
Q 3022 1394 3022 966 
Q 3022 478 2636 193 
Q 2250 -91 1575 -91 
Q 1294 -91 989 -36 
Q 684 19 347 128 
L 347 722 
Q 666 556 975 473 
Q 1284 391 1588 391 
Q 1994 391 2212 530 
Q 2431 669 2431 922 
Q 2431 1156 2273 1281 
Q 2116 1406 1581 1522 
L 1381 1569 
Q 847 1681 609 1914 
Q 372 2147 372 2553 
Q 372 3047 722 3315 
Q 1072 3584 1716 3584 
Q 2034 3584 2315 3537 
Q 2597 3491 2834 3397 
z
" transform="scale(0.015625)"/>
      <path id="DejaVuSans-75" d="M 544 1381 
L 544 3500 
L 1119 3500 
L 1119 1403 
Q 1119 906 1312 657 
Q 1506 409 1894 409 
Q 2359 409 2629 706 
Q 2900 1003 2900 1516 
L 2900 3500 
L 3475 3500 
L 3475 0 
L 2900 0 
L 2900 538 
Q 2691 219 2414 64 
Q 2138 -91 1772 -91 
Q 1169 -91 856 284 
Q 544 659 544 1381 
z
M 1991 3584 
L 1991 3584 
z
" transform="scale(0.015625)"/>
     </defs>
     <use xlink:href="#DejaVuSans-4c"/>
     <use xlink:href="#DejaVuSans-69" x="55.712891"/>
     <use xlink:href="#DejaVuSans-63" x="83.496094"/>
     <use xlink:href="#DejaVuSans-7a" x="138.476562"/>
     <use xlink:href="#DejaVuSans-62" x="190.966797"/>
     <use xlink:href="#DejaVuSans-61" x="254.443359"/>
     <use xlink:href="#DejaVuSans-20" x="315.722656"/>
     <use xlink:href="#DejaVuSans-70" x="347.509766"/>
     <use xlink:href="#DejaVuSans-72" x="410.986328"/>
     <use xlink:href="#DejaVuSans-7a" x="452.099609"/>
     <use xlink:href="#DejaVuSans-65" x="504.589844"/>
     <use xlink:href="#DejaVuSans-6a" x="566.113281"/>
     <use xlink:href="#DejaVuSans-15b" x="593.896484"/>
     <use xlink:href="#DejaVuSans-107" x="645.996094"/>
     <use xlink:href="#DejaVuSans-20" x="700.976562"/>
     <use xlink:href="#DejaVuSans-70" x="732.763672"/>
     <use xlink:href="#DejaVuSans-6f" x="796.240234"/>
     <use xlink:href="#DejaVuSans-63" x="857.421875"/>
     <use xlink:href="#DejaVuSans-68" x="912.402344"/>
     <use xlink:href="#DejaVuSans-6f" x="975.78125"/>
     <use xlink:href="#DejaVuSans-64" x="1036.962891"/>
     <use xlink:href="#DejaVuSans-6e" x="1100.439453"/>
     <use xlink:href="#DejaVuSans-65" x="1163.818359"/>
     <use xlink:href="#DejaVuSans-6a" x="1225.341797"/>
     <use xlink:href="#DejaVuSans-20" x="1253.125"/>
     <use xlink:href="#DejaVuSans-70" x="1284.912109"/>
     <use xlink:href="#DejaVuSans-72" x="1348.388672"/>
     <use xlink:href="#DejaVuSans-7a" x="1389.501953"/>
     <use xlink:href="#DejaVuSans-65" x="1441.992188"/>
     <use xlink:href="#DejaVuSans-7a" x="1503.515625"/>
     <use xlink:href="#DejaVuSans-20" x="1556.005859"/>
     <use xlink:href="#DejaVuSans-30" x="1587.792969"/>
     <use xlink:href="#DejaVuSans-20" x="1651.416016"/>
     <use xlink:href="#DejaVuSans-7a" x="1683.203125"/>
     <use xlink:href="#DejaVuSans-20" x="1735.693359"/>
     <use xlink:href="#DejaVuSans-70" x="1767.480469"/>
     <use xlink:href="#DejaVuSans-72" x="1830.957031"/>
     <use xlink:href="#DejaVuSans-f3" x="1869.820312"/>
     <use xlink:href="#DejaVuSans-62" x="1931.001953"/>
     <use xlink:href="#DejaVuSans-6b" x="1994.478516"/>
     <use xlink:href="#DejaVuSans-69" x="2052.388672"/>
     <use xlink:href="#DejaVuSans-20" x="2080.171875"/>
     <use xlink:href="#DejaVuSans-31" x="2111.958984"/>
     <use xlink:href="#DejaVuSans-20" x="2175.582031"/>
     <use xlink:href="#DejaVuSans-73" x="2207.369141"/>
     <use xlink:href="#DejaVuSans-65" x="2259.46875"/>
     <use xlink:href="#DejaVuSans-6b" x="2320.992188"/>
     <use xlink:href="#DejaVuSans-75" x="2375.777344"/>
     <use xlink:href="#DejaVuSans-6e" x="2439.15625"/>
     <use xlink:href="#DejaVuSans-64" x="2502.535156"/>
     <use xlink:href="#DejaVuSans-61" x="2566.011719"/>
    </g>
   </g>
   <g id="legend_1">
    <g id="patch_7">
     <path d="M 806.19375 105.579375 
L 883.328125 105.579375 
Q 885.328125 105.579375 885.328125 103.579375 
L 885.328125 29.798125 
Q 885.328125 27.798125 883.328125 27.798125 
L 806.19375 27.798125 
Q 804.19375 27.798125 804.19375 29.798125 
L 804.19375 103.579375 
Q 804.19375 105.579375 806.19375 105.579375 
z
" style="fill: #ffffff; opacity: 0.8; stroke: #cccccc; stroke-linejoin: miter"/>
    </g>
    <g id="line2d_18">
     <path d="M 808.19375 35.896563 
L 818.19375 35.896563 
L 828.19375 35.896563 
" style="fill: none; stroke: #ff00ff; stroke-width: 0.9; stroke-linecap: square"/>
    </g>
    <g id="text_16">
     <!-- CH1_8KS -->
     <g transform="translate(836.19375 39.396563)scale(0.1 -0.1)">
      <defs>
       <path id="DejaVuSans-43" d="M 4122 4306 
L 4122 3641 
Q 3803 3938 3442 4084 
Q 3081 4231 2675 4231 
Q 1875 4231 1450 3742 
Q 1025 3253 1025 2328 
Q 1025 1406 1450 917 
Q 1875 428 2675 428 
Q 3081 428 3442 575 
Q 3803 722 4122 1019 
L 4122 359 
Q 3791 134 3420 21 
Q 3050 -91 2638 -91 
Q 1578 -91 968 557 
Q 359 1206 359 2328 
Q 359 3453 968 4101 
Q 1578 4750 2638 4750 
Q 3056 4750 3426 4639 
Q 3797 4528 4122 4306 
z
" transform="scale(0.015625)"/>
       <path id="DejaVuSans-48" d="M 628 4666 
L 1259 4666 
L 1259 2753 
L 3553 2753 
L 3553 4666 
L 4184 4666 
L 4184 0 
L 3553 0 
L 3553 2222 
L 1259 2222 
L 1259 0 
L 628 0 
L 628 4666 
z
" transform="scale(0.015625)"/>
       <path id="DejaVuSans-5f" d="M 3263 -1063 
L 3263 -1509 
L -63 -1509 
L -63 -1063 
L 3263 -1063 
z
" transform="scale(0.015625)"/>
       <path id="DejaVuSans-4b" d="M 628 4666 
L 1259 4666 
L 1259 2694 
L 3353 4666 
L 4166 4666 
L 1850 2491 
L 4331 0 
L 3500 0 
L 1259 2247 
L 1259 0 
L 628 0 
L 628 4666 
z
" transform="scale(0.015625)"/>
       <path id="DejaVuSans-53" d="M 3425 4513 
L 3425 3897 
Q 3066 4069 2747 4153 
Q 2428 4238 2131 4238 
Q 1616 4238 1336 4038 
Q 1056 3838 1056 3469 
Q 1056 3159 1242 3001 
Q 1428 2844 1947 2747 
L 2328 2669 
Q 3034 2534 3370 2195 
Q 3706 1856 3706 1288 
Q 3706 609 3251 259 
Q 2797 -91 1919 -91 
Q 1588 -91 1214 -16 
Q 841 59 441 206 
L 441 856 
Q 825 641 1194 531 
Q 1563 422 1919 422 
Q 2459 422 2753 634 
Q 3047 847 3047 1241 
Q 3047 1584 2836 1778 
Q 2625 1972 2144 2069 
L 1759 2144 
Q 1053 2284 737 2584 
Q 422 2884 422 3419 
Q 422 4038 858 4394 
Q 1294 4750 2059 4750 
Q 2388 4750 2728 4690 
Q 3069 4631 3425 4513 
z
" transform="scale(0.015625)"/>
      </defs>
      <use xlink:href="#DejaVuSans-43"/>
      <use xlink:href="#DejaVuSans-48" x="69.824219"/>
      <use xlink:href="#DejaVuSans-31" x="145.019531"/>
      <use xlink:href="#DejaVuSans-5f" x="208.642578"/>
      <use xlink:href="#DejaVuSans-38" x="258.642578"/>
      <use xlink:href="#DejaVuSans-4b" x="322.265625"/>
      <use xlink:href="#DejaVuSans-53" x="387.841797"/>
     </g>
    </g>
    <g id="line2d_19">
     <path d="M 808.19375 50.852813 
L 818.19375 50.852813 
L 828.19375 50.852813 
" style="fill: none; stroke: #9400d3; stroke-width: 0.9; stroke-linecap: square"/>
    </g>
    <g id="text_17">
     <!-- CH2_8KS -->
     <g transform="translate(836.19375 54.352813)scale(0.1 -0.1)">
      <use xlink:href="#DejaVuSans-43"/>
      <use xlink:href="#DejaVuSans-48" x="69.824219"/>
      <use xlink:href="#DejaVuSans-32" x="145.019531"/>
      <use xlink:href="#DejaVuSans-5f" x="208.642578"/>
      <use xlink:href="#DejaVuSans-38" x="258.642578"/>
      <use xlink:href="#DejaVuSans-4b" x="322.265625"/>
      <use xlink:href="#DejaVuSans-53" x="387.841797"/>
     </g>
    </g>
    <g id="line2d_20">
     <path d="M 808.19375 65.809063 
L 818.19375 65.809063 
L 828.19375 65.809063 
" style="fill: none; stroke: #00ffff; stroke-width: 0.9; stroke-linecap: square"/>
    </g>
    <g id="text_18">
     <!-- CH3_8KS -->
     <g transform="translate(836.19375 69.309063)scale(0.1 -0.1)">
      <use xlink:href="#DejaVuSans-43"/>
      <use xlink:href="#DejaVuSans-48" x="69.824219"/>
      <use xlink:href="#DejaVuSans-33" x="145.019531"/>
      <use xlink:href="#DejaVuSans-5f" x="208.642578"/>
      <use xlink:href="#DejaVuSans-38" x="258.642578"/>
      <use xlink:href="#DejaVuSans-4b" x="322.265625"/>
      <use xlink:href="#DejaVuSans-53" x="387.841797"/>
     </g>
    </g>
    <g id="line2d_21">
     <path d="M 808.19375 80.765313 
L 818.19375 80.765313 
L 828.19375 80.765313 
" style="fill: none; stroke: #ffa500; stroke-width: 0.9; stroke-linecap: square"/>
    </g>
    <g id="text_19">
     <!-- CH4_8KS -->
     <g transform="translate(836.19375 84.265313)scale(0.1 -0.1)">
      <use xlink:href="#DejaVuSans-43"/>
      <use xlink:href="#DejaVuSans-48" x="69.824219"/>
      <use xlink:href="#DejaVuSans-34" x="145.019531"/>
      <use xlink:href="#DejaVuSans-5f" x="208.642578"/>
      <use xlink:href="#DejaVuSans-38" x="258.642578"/>
      <use xlink:href="#DejaVuSans-4b" x="322.265625"/>
      <use xlink:href="#DejaVuSans-53" x="387.841797"/>
     </g>
    </g>
    <g id="line2d_22">
     <path d="M 808.19375 95.721563 
L 818.19375 95.721563 
L 828.19375 95.721563 
" style="fill: none; stroke: #ff4500; stroke-width: 0.9; stroke-linecap: square"/>
    </g>
    <g id="text_20">
     <!-- CH5_8KS -->
     <g transform="translate(836.19375 99.221563)scale(0.1 -0.1)">
      <use xlink:href="#DejaVuSans-43"/>
      <use xlink:href="#DejaVuSans-48" x="69.824219"/>
      <use xlink:href="#DejaVuSans-35" x="145.019531"/>
      <use xlink:href="#DejaVuSans-5f" x="208.642578"/>
      <use xlink:href="#DejaVuSans-38" x="258.642578"/>
      <use xlink:href="#DejaVuSans-4b" x="322.265625"/>
      <use xlink:href="#DejaVuSans-53" x="387.841797"/>
     </g>
    </g>
   </g>
  </g>
 </g>
 <defs>
  <clipPath id="p844cc1c0b8">
   <rect x="53.328125" y="22.798125" width="837" height="271.8"/>
  </clipPath>
 </defs>
</svg>
