<?xml version="1.0" encoding="utf-8" standalone="no"?>
<!DOCTYPE svg PUBLIC "-//W3C//DTD SVG 1.1//EN"
  "http://www.w3.org/Graphics/SVG/1.1/DTD/svg11.dtd">
<svg xmlns:xlink="http://www.w3.org/1999/xlink" width="884.803125pt" height="332.154375pt" viewBox="0 0 884.803125 332.154375" xmlns="http://www.w3.org/2000/svg" version="1.1">
 <metadata>
  <rdf:RDF xmlns:dc="http://purl.org/dc/elements/1.1/" xmlns:cc="http://creativecommons.org/ns#" xmlns:rdf="http://www.w3.org/1999/02/22-rdf-syntax-ns#">
   <cc:Work>
    <dc:type rdf:resource="http://purl.org/dc/dcmitype/StillImage"/>
    <dc:date>2022-06-21T21:13:43.236768</dc:date>
    <dc:format>image/svg+xml</dc:format>
    <dc:creator>
     <cc:Agent>
      <dc:title>Matplotlib v3.5.2, https://matplotlib.org/</dc:title>
     </cc:Agent>
    </dc:creator>
   </cc:Work>
  </rdf:RDF>
 </metadata>
 <defs>
  <style type="text/css">*{stroke-linejoin: round; stroke-linecap: butt}</style>
 </defs>
 <g id="figure_1">
  <g id="patch_1">
   <path d="M 0 332.154375 
L 884.803125 332.154375 
L 884.803125 0 
L 0 0 
L 0 332.154375 
z
" style="fill: none"/>
  </g>
  <g id="axes_1">
   <g id="patch_2">
    <path d="M 40.603125 294.598125 
L 877.603125 294.598125 
L 877.603125 22.798125 
L 40.603125 22.798125 
z
" style="fill: #ffffff"/>
   </g>
   <g id="matplotlib.axis_1">
    <g id="xtick_1">
     <g id="line2d_1">
      <defs>
       <path id="m77052ea5e9" d="M 0 0 
L 0 3.5 
" style="stroke: #000000; stroke-width: 0.8"/>
      </defs>
      <g>
       <use xlink:href="#m77052ea5e9" x="78.64858" y="294.598125" style="stroke: #000000; stroke-width: 0.8"/>
      </g>
     </g>
     <g id="text_1">
      <!-- 0 -->
      <g transform="translate(75.46733 309.196562)scale(0.1 -0.1)">
       <defs>
        <path id="DejaVuSans-30" d="M 2034 4250 
Q 1547 4250 1301 3770 
Q 1056 3291 1056 2328 
Q 1056 1369 1301 889 
Q 1547 409 2034 409 
Q 2525 409 2770 889 
Q 3016 1369 3016 2328 
Q 3016 3291 2770 3770 
Q 2525 4250 2034 4250 
z
M 2034 4750 
Q 2819 4750 3233 4129 
Q 3647 3509 3647 2328 
Q 3647 1150 3233 529 
Q 2819 -91 2034 -91 
Q 1250 -91 836 529 
Q 422 1150 422 2328 
Q 422 3509 836 4129 
Q 1250 4750 2034 4750 
z
" transform="scale(0.015625)"/>
       </defs>
       <use xlink:href="#DejaVuSans-30"/>
      </g>
     </g>
    </g>
    <g id="xtick_2">
     <g id="line2d_2">
      <g>
       <use xlink:href="#m77052ea5e9" x="205.890902" y="294.598125" style="stroke: #000000; stroke-width: 0.8"/>
      </g>
     </g>
     <g id="text_2">
      <!-- 50 -->
      <g transform="translate(199.528402 309.196562)scale(0.1 -0.1)">
       <defs>
        <path id="DejaVuSans-35" d="M 691 4666 
L 3169 4666 
L 3169 4134 
L 1269 4134 
L 1269 2991 
Q 1406 3038 1543 3061 
Q 1681 3084 1819 3084 
Q 2600 3084 3056 2656 
Q 3513 2228 3513 1497 
Q 3513 744 3044 326 
Q 2575 -91 1722 -91 
Q 1428 -91 1123 -41 
Q 819 9 494 109 
L 494 744 
Q 775 591 1075 516 
Q 1375 441 1709 441 
Q 2250 441 2565 725 
Q 2881 1009 2881 1497 
Q 2881 1984 2565 2268 
Q 2250 2553 1709 2553 
Q 1456 2553 1204 2497 
Q 953 2441 691 2322 
L 691 4666 
z
" transform="scale(0.015625)"/>
       </defs>
       <use xlink:href="#DejaVuSans-35"/>
       <use xlink:href="#DejaVuSans-30" x="63.623047"/>
      </g>
     </g>
    </g>
    <g id="xtick_3">
     <g id="line2d_3">
      <g>
       <use xlink:href="#m77052ea5e9" x="333.133225" y="294.598125" style="stroke: #000000; stroke-width: 0.8"/>
      </g>
     </g>
     <g id="text_3">
      <!-- 100 -->
      <g transform="translate(323.589475 309.196562)scale(0.1 -0.1)">
       <defs>
        <path id="DejaVuSans-31" d="M 794 531 
L 1825 531 
L 1825 4091 
L 703 3866 
L 703 4441 
L 1819 4666 
L 2450 4666 
L 2450 531 
L 3481 531 
L 3481 0 
L 794 0 
L 794 531 
z
" transform="scale(0.015625)"/>
       </defs>
       <use xlink:href="#DejaVuSans-31"/>
       <use xlink:href="#DejaVuSans-30" x="63.623047"/>
       <use xlink:href="#DejaVuSans-30" x="127.246094"/>
      </g>
     </g>
    </g>
    <g id="xtick_4">
     <g id="line2d_4">
      <g>
       <use xlink:href="#m77052ea5e9" x="460.375548" y="294.598125" style="stroke: #000000; stroke-width: 0.8"/>
      </g>
     </g>
     <g id="text_4">
      <!-- 150 -->
      <g transform="translate(450.831798 309.196562)scale(0.1 -0.1)">
       <use xlink:href="#DejaVuSans-31"/>
       <use xlink:href="#DejaVuSans-35" x="63.623047"/>
       <use xlink:href="#DejaVuSans-30" x="127.246094"/>
      </g>
     </g>
    </g>
    <g id="xtick_5">
     <g id="line2d_5">
      <g>
       <use xlink:href="#m77052ea5e9" x="587.617871" y="294.598125" style="stroke: #000000; stroke-width: 0.8"/>
      </g>
     </g>
     <g id="text_5">
      <!-- 200 -->
      <g transform="translate(578.074121 309.196562)scale(0.1 -0.1)">
       <defs>
        <path id="DejaVuSans-32" d="M 1228 531 
L 3431 531 
L 3431 0 
L 469 0 
L 469 531 
Q 828 903 1448 1529 
Q 2069 2156 2228 2338 
Q 2531 2678 2651 2914 
Q 2772 3150 2772 3378 
Q 2772 3750 2511 3984 
Q 2250 4219 1831 4219 
Q 1534 4219 1204 4116 
Q 875 4013 500 3803 
L 500 4441 
Q 881 4594 1212 4672 
Q 1544 4750 1819 4750 
Q 2544 4750 2975 4387 
Q 3406 4025 3406 3419 
Q 3406 3131 3298 2873 
Q 3191 2616 2906 2266 
Q 2828 2175 2409 1742 
Q 1991 1309 1228 531 
z
" transform="scale(0.015625)"/>
       </defs>
       <use xlink:href="#DejaVuSans-32"/>
       <use xlink:href="#DejaVuSans-30" x="63.623047"/>
       <use xlink:href="#DejaVuSans-30" x="127.246094"/>
      </g>
     </g>
    </g>
    <g id="xtick_6">
     <g id="line2d_6">
      <g>
       <use xlink:href="#m77052ea5e9" x="714.860194" y="294.598125" style="stroke: #000000; stroke-width: 0.8"/>
      </g>
     </g>
     <g id="text_6">
      <!-- 250 -->
      <g transform="translate(705.316444 309.196562)scale(0.1 -0.1)">
       <use xlink:href="#DejaVuSans-32"/>
       <use xlink:href="#DejaVuSans-35" x="63.623047"/>
       <use xlink:href="#DejaVuSans-30" x="127.246094"/>
      </g>
     </g>
    </g>
    <g id="xtick_7">
     <g id="line2d_7">
      <g>
       <use xlink:href="#m77052ea5e9" x="842.102517" y="294.598125" style="stroke: #000000; stroke-width: 0.8"/>
      </g>
     </g>
     <g id="text_7">
      <!-- 300 -->
      <g transform="translate(832.558767 309.196562)scale(0.1 -0.1)">
       <defs>
        <path id="DejaVuSans-33" d="M 2597 2516 
Q 3050 2419 3304 2112 
Q 3559 1806 3559 1356 
Q 3559 666 3084 287 
Q 2609 -91 1734 -91 
Q 1441 -91 1130 -33 
Q 819 25 488 141 
L 488 750 
Q 750 597 1062 519 
Q 1375 441 1716 441 
Q 2309 441 2620 675 
Q 2931 909 2931 1356 
Q 2931 1769 2642 2001 
Q 2353 2234 1838 2234 
L 1294 2234 
L 1294 2753 
L 1863 2753 
Q 2328 2753 2575 2939 
Q 2822 3125 2822 3475 
Q 2822 3834 2567 4026 
Q 2313 4219 1838 4219 
Q 1578 4219 1281 4162 
Q 984 4106 628 3988 
L 628 4550 
Q 988 4650 1302 4700 
Q 1616 4750 1894 4750 
Q 2613 4750 3031 4423 
Q 3450 4097 3450 3541 
Q 3450 3153 3228 2886 
Q 3006 2619 2597 2516 
z
" transform="scale(0.015625)"/>
       </defs>
       <use xlink:href="#DejaVuSans-33"/>
       <use xlink:href="#DejaVuSans-30" x="63.623047"/>
       <use xlink:href="#DejaVuSans-30" x="127.246094"/>
      </g>
     </g>
    </g>
    <g id="text_8">
     <!-- Próbka -->
     <g transform="translate(442.127344 322.874687)scale(0.1 -0.1)">
      <defs>
       <path id="DejaVuSans-50" d="M 1259 4147 
L 1259 2394 
L 2053 2394 
Q 2494 2394 2734 2622 
Q 2975 2850 2975 3272 
Q 2975 3691 2734 3919 
Q 2494 4147 2053 4147 
L 1259 4147 
z
M 628 4666 
L 2053 4666 
Q 2838 4666 3239 4311 
Q 3641 3956 3641 3272 
Q 3641 2581 3239 2228 
Q 2838 1875 2053 1875 
L 1259 1875 
L 1259 0 
L 628 0 
L 628 4666 
z
" transform="scale(0.015625)"/>
       <path id="DejaVuSans-72" d="M 2631 2963 
Q 2534 3019 2420 3045 
Q 2306 3072 2169 3072 
Q 1681 3072 1420 2755 
Q 1159 2438 1159 1844 
L 1159 0 
L 581 0 
L 581 3500 
L 1159 3500 
L 1159 2956 
Q 1341 3275 1631 3429 
Q 1922 3584 2338 3584 
Q 2397 3584 2469 3576 
Q 2541 3569 2628 3553 
L 2631 2963 
z
" transform="scale(0.015625)"/>
       <path id="DejaVuSans-f3" d="M 1959 3097 
Q 1497 3097 1228 2736 
Q 959 2375 959 1747 
Q 959 1119 1226 758 
Q 1494 397 1959 397 
Q 2419 397 2687 759 
Q 2956 1122 2956 1747 
Q 2956 2369 2687 2733 
Q 2419 3097 1959 3097 
z
M 1959 3584 
Q 2709 3584 3137 3096 
Q 3566 2609 3566 1747 
Q 3566 888 3137 398 
Q 2709 -91 1959 -91 
Q 1206 -91 779 398 
Q 353 888 353 1747 
Q 353 2609 779 3096 
Q 1206 3584 1959 3584 
z
M 2394 5119 
L 3016 5119 
L 1998 3944 
L 1519 3944 
L 2394 5119 
z
" transform="scale(0.015625)"/>
       <path id="DejaVuSans-62" d="M 3116 1747 
Q 3116 2381 2855 2742 
Q 2594 3103 2138 3103 
Q 1681 3103 1420 2742 
Q 1159 2381 1159 1747 
Q 1159 1113 1420 752 
Q 1681 391 2138 391 
Q 2594 391 2855 752 
Q 3116 1113 3116 1747 
z
M 1159 2969 
Q 1341 3281 1617 3432 
Q 1894 3584 2278 3584 
Q 2916 3584 3314 3078 
Q 3713 2572 3713 1747 
Q 3713 922 3314 415 
Q 2916 -91 2278 -91 
Q 1894 -91 1617 61 
Q 1341 213 1159 525 
L 1159 0 
L 581 0 
L 581 4863 
L 1159 4863 
L 1159 2969 
z
" transform="scale(0.015625)"/>
       <path id="DejaVuSans-6b" d="M 581 4863 
L 1159 4863 
L 1159 1991 
L 2875 3500 
L 3609 3500 
L 1753 1863 
L 3688 0 
L 2938 0 
L 1159 1709 
L 1159 0 
L 581 0 
L 581 4863 
z
" transform="scale(0.015625)"/>
       <path id="DejaVuSans-61" d="M 2194 1759 
Q 1497 1759 1228 1600 
Q 959 1441 959 1056 
Q 959 750 1161 570 
Q 1363 391 1709 391 
Q 2188 391 2477 730 
Q 2766 1069 2766 1631 
L 2766 1759 
L 2194 1759 
z
M 3341 1997 
L 3341 0 
L 2766 0 
L 2766 531 
Q 2569 213 2275 61 
Q 1981 -91 1556 -91 
Q 1019 -91 701 211 
Q 384 513 384 1019 
Q 384 1609 779 1909 
Q 1175 2209 1959 2209 
L 2766 2209 
L 2766 2266 
Q 2766 2663 2505 2880 
Q 2244 3097 1772 3097 
Q 1472 3097 1187 3025 
Q 903 2953 641 2809 
L 641 3341 
Q 956 3463 1253 3523 
Q 1550 3584 1831 3584 
Q 2591 3584 2966 3190 
Q 3341 2797 3341 1997 
z
" transform="scale(0.015625)"/>
      </defs>
      <use xlink:href="#DejaVuSans-50"/>
      <use xlink:href="#DejaVuSans-72" x="58.552734"/>
      <use xlink:href="#DejaVuSans-f3" x="97.416016"/>
      <use xlink:href="#DejaVuSans-62" x="158.597656"/>
      <use xlink:href="#DejaVuSans-6b" x="222.074219"/>
      <use xlink:href="#DejaVuSans-61" x="278.234375"/>
     </g>
    </g>
   </g>
   <g id="matplotlib.axis_2">
    <g id="ytick_1">
     <g id="line2d_8">
      <defs>
       <path id="m6b61a20601" d="M 0 0 
L -3.5 0 
" style="stroke: #000000; stroke-width: 0.8"/>
      </defs>
      <g>
       <use xlink:href="#m6b61a20601" x="40.603125" y="289.30332" style="stroke: #000000; stroke-width: 0.8"/>
      </g>
     </g>
     <g id="text_9">
      <!-- 0 -->
      <g transform="translate(27.240625 293.102539)scale(0.1 -0.1)">
       <use xlink:href="#DejaVuSans-30"/>
      </g>
     </g>
    </g>
    <g id="ytick_2">
     <g id="line2d_9">
      <g>
       <use xlink:href="#m6b61a20601" x="40.603125" y="254.004619" style="stroke: #000000; stroke-width: 0.8"/>
      </g>
     </g>
     <g id="text_10">
      <!-- 10 -->
      <g transform="translate(20.878125 257.803837)scale(0.1 -0.1)">
       <use xlink:href="#DejaVuSans-31"/>
       <use xlink:href="#DejaVuSans-30" x="63.623047"/>
      </g>
     </g>
    </g>
    <g id="ytick_3">
     <g id="line2d_10">
      <g>
       <use xlink:href="#m6b61a20601" x="40.603125" y="218.705917" style="stroke: #000000; stroke-width: 0.8"/>
      </g>
     </g>
     <g id="text_11">
      <!-- 20 -->
      <g transform="translate(20.878125 222.505136)scale(0.1 -0.1)">
       <use xlink:href="#DejaVuSans-32"/>
       <use xlink:href="#DejaVuSans-30" x="63.623047"/>
      </g>
     </g>
    </g>
    <g id="ytick_4">
     <g id="line2d_11">
      <g>
       <use xlink:href="#m6b61a20601" x="40.603125" y="183.407216" style="stroke: #000000; stroke-width: 0.8"/>
      </g>
     </g>
     <g id="text_12">
      <!-- 30 -->
      <g transform="translate(20.878125 187.206435)scale(0.1 -0.1)">
       <use xlink:href="#DejaVuSans-33"/>
       <use xlink:href="#DejaVuSans-30" x="63.623047"/>
      </g>
     </g>
    </g>
    <g id="ytick_5">
     <g id="line2d_12">
      <g>
       <use xlink:href="#m6b61a20601" x="40.603125" y="148.108515" style="stroke: #000000; stroke-width: 0.8"/>
      </g>
     </g>
     <g id="text_13">
      <!-- 40 -->
      <g transform="translate(20.878125 151.907733)scale(0.1 -0.1)">
       <defs>
        <path id="DejaVuSans-34" d="M 2419 4116 
L 825 1625 
L 2419 1625 
L 2419 4116 
z
M 2253 4666 
L 3047 4666 
L 3047 1625 
L 3713 1625 
L 3713 1100 
L 3047 1100 
L 3047 0 
L 2419 0 
L 2419 1100 
L 313 1100 
L 313 1709 
L 2253 4666 
z
" transform="scale(0.015625)"/>
       </defs>
       <use xlink:href="#DejaVuSans-34"/>
       <use xlink:href="#DejaVuSans-30" x="63.623047"/>
      </g>
     </g>
    </g>
    <g id="ytick_6">
     <g id="line2d_13">
      <g>
       <use xlink:href="#m6b61a20601" x="40.603125" y="112.809813" style="stroke: #000000; stroke-width: 0.8"/>
      </g>
     </g>
     <g id="text_14">
      <!-- 50 -->
      <g transform="translate(20.878125 116.609032)scale(0.1 -0.1)">
       <use xlink:href="#DejaVuSans-35"/>
       <use xlink:href="#DejaVuSans-30" x="63.623047"/>
      </g>
     </g>
    </g>
    <g id="ytick_7">
     <g id="line2d_14">
      <g>
       <use xlink:href="#m6b61a20601" x="40.603125" y="77.511112" style="stroke: #000000; stroke-width: 0.8"/>
      </g>
     </g>
     <g id="text_15">
      <!-- 60 -->
      <g transform="translate(20.878125 81.310331)scale(0.1 -0.1)">
       <defs>
        <path id="DejaVuSans-36" d="M 2113 2584 
Q 1688 2584 1439 2293 
Q 1191 2003 1191 1497 
Q 1191 994 1439 701 
Q 1688 409 2113 409 
Q 2538 409 2786 701 
Q 3034 994 3034 1497 
Q 3034 2003 2786 2293 
Q 2538 2584 2113 2584 
z
M 3366 4563 
L 3366 3988 
Q 3128 4100 2886 4159 
Q 2644 4219 2406 4219 
Q 1781 4219 1451 3797 
Q 1122 3375 1075 2522 
Q 1259 2794 1537 2939 
Q 1816 3084 2150 3084 
Q 2853 3084 3261 2657 
Q 3669 2231 3669 1497 
Q 3669 778 3244 343 
Q 2819 -91 2113 -91 
Q 1303 -91 875 529 
Q 447 1150 447 2328 
Q 447 3434 972 4092 
Q 1497 4750 2381 4750 
Q 2619 4750 2861 4703 
Q 3103 4656 3366 4563 
z
" transform="scale(0.015625)"/>
       </defs>
       <use xlink:href="#DejaVuSans-36"/>
       <use xlink:href="#DejaVuSans-30" x="63.623047"/>
      </g>
     </g>
    </g>
    <g id="ytick_8">
     <g id="line2d_15">
      <g>
       <use xlink:href="#m6b61a20601" x="40.603125" y="42.212411" style="stroke: #000000; stroke-width: 0.8"/>
      </g>
     </g>
     <g id="text_16">
      <!-- 70 -->
      <g transform="translate(20.878125 46.011629)scale(0.1 -0.1)">
       <defs>
        <path id="DejaVuSans-37" d="M 525 4666 
L 3525 4666 
L 3525 4397 
L 1831 0 
L 1172 0 
L 2766 4134 
L 525 4134 
L 525 4666 
z
" transform="scale(0.015625)"/>
       </defs>
       <use xlink:href="#DejaVuSans-37"/>
       <use xlink:href="#DejaVuSans-30" x="63.623047"/>
      </g>
     </g>
    </g>
    <g id="text_17">
     <!-- Wartość -->
     <g transform="translate(14.798438 178.816094)rotate(-90)scale(0.1 -0.1)">
      <defs>
       <path id="DejaVuSans-57" d="M 213 4666 
L 850 4666 
L 1831 722 
L 2809 4666 
L 3519 4666 
L 4500 722 
L 5478 4666 
L 6119 4666 
L 4947 0 
L 4153 0 
L 3169 4050 
L 2175 0 
L 1381 0 
L 213 4666 
z
" transform="scale(0.015625)"/>
       <path id="DejaVuSans-74" d="M 1172 4494 
L 1172 3500 
L 2356 3500 
L 2356 3053 
L 1172 3053 
L 1172 1153 
Q 1172 725 1289 603 
Q 1406 481 1766 481 
L 2356 481 
L 2356 0 
L 1766 0 
Q 1100 0 847 248 
Q 594 497 594 1153 
L 594 3053 
L 172 3053 
L 172 3500 
L 594 3500 
L 594 4494 
L 1172 4494 
z
" transform="scale(0.015625)"/>
       <path id="DejaVuSans-6f" d="M 1959 3097 
Q 1497 3097 1228 2736 
Q 959 2375 959 1747 
Q 959 1119 1226 758 
Q 1494 397 1959 397 
Q 2419 397 2687 759 
Q 2956 1122 2956 1747 
Q 2956 2369 2687 2733 
Q 2419 3097 1959 3097 
z
M 1959 3584 
Q 2709 3584 3137 3096 
Q 3566 2609 3566 1747 
Q 3566 888 3137 398 
Q 2709 -91 1959 -91 
Q 1206 -91 779 398 
Q 353 888 353 1747 
Q 353 2609 779 3096 
Q 1206 3584 1959 3584 
z
" transform="scale(0.015625)"/>
       <path id="DejaVuSans-15b" d="M 2242 5119 
L 2864 5119 
L 1846 3944 
L 1367 3944 
L 2242 5119 
z
M 2834 3397 
L 2834 2853 
Q 2591 2978 2328 3040 
Q 2066 3103 1784 3103 
Q 1356 3103 1142 2972 
Q 928 2841 928 2578 
Q 928 2378 1081 2264 
Q 1234 2150 1697 2047 
L 1894 2003 
Q 2506 1872 2764 1633 
Q 3022 1394 3022 966 
Q 3022 478 2636 193 
Q 2250 -91 1575 -91 
Q 1294 -91 989 -36 
Q 684 19 347 128 
L 347 722 
Q 666 556 975 473 
Q 1284 391 1588 391 
Q 1994 391 2212 530 
Q 2431 669 2431 922 
Q 2431 1156 2273 1281 
Q 2116 1406 1581 1522 
L 1381 1569 
Q 847 1681 609 1914 
Q 372 2147 372 2553 
Q 372 3047 722 3315 
Q 1072 3584 1716 3584 
Q 2034 3584 2315 3537 
Q 2597 3491 2834 3397 
z
" transform="scale(0.015625)"/>
       <path id="DejaVuSans-107" d="M 3122 3366 
L 3122 2828 
Q 2878 2963 2633 3030 
Q 2388 3097 2138 3097 
Q 1578 3097 1268 2742 
Q 959 2388 959 1747 
Q 959 1106 1268 751 
Q 1578 397 2138 397 
Q 2388 397 2633 464 
Q 2878 531 3122 666 
L 3122 134 
Q 2881 22 2623 -34 
Q 2366 -91 2075 -91 
Q 1284 -91 818 406 
Q 353 903 353 1747 
Q 353 2603 823 3093 
Q 1294 3584 2113 3584 
Q 2378 3584 2631 3529 
Q 2884 3475 3122 3366 
z
M 2466 5119 
L 3088 5119 
L 2070 3944 
L 1591 3944 
L 2466 5119 
z
" transform="scale(0.015625)"/>
      </defs>
      <use xlink:href="#DejaVuSans-57"/>
      <use xlink:href="#DejaVuSans-61" x="92.501953"/>
      <use xlink:href="#DejaVuSans-72" x="153.78125"/>
      <use xlink:href="#DejaVuSans-74" x="194.894531"/>
      <use xlink:href="#DejaVuSans-6f" x="234.103516"/>
      <use xlink:href="#DejaVuSans-15b" x="295.285156"/>
      <use xlink:href="#DejaVuSans-107" x="347.384766"/>
     </g>
    </g>
   </g>
   <g id="line2d_16">
    <path d="M 78.64858 148.108515 
L 81.193426 102.220203 
L 83.738272 133.989034 
L 86.283119 102.220203 
L 88.827965 172.817606 
L 91.372812 162.227995 
L 93.917658 204.586437 
L 96.462505 112.809813 
L 99.007351 172.817606 
L 101.552198 112.809813 
L 104.097044 204.586437 
L 106.641891 155.168255 
L 109.186737 84.570852 
L 111.731583 169.287735 
L 114.27643 98.690333 
L 116.821276 141.048774 
L 119.366123 144.578644 
L 121.910969 126.929294 
L 124.455816 183.407216 
L 127.000662 126.929294 
L 129.545509 56.331891 
L 132.090355 126.929294 
L 134.635202 105.750073 
L 137.180048 162.227995 
L 139.724895 105.750073 
L 142.269741 246.944878 
L 144.814587 197.526696 
L 147.359434 169.287735 
L 149.90428 126.929294 
L 152.449127 70.451372 
L 154.993973 112.809813 
L 157.53882 141.048774 
L 160.083666 112.809813 
L 162.628513 112.809813 
L 165.173359 169.287735 
L 167.718206 155.168255 
L 170.263052 225.765657 
L 172.807898 162.227995 
L 175.352745 144.578644 
L 177.897591 141.048774 
L 180.442438 162.227995 
L 182.987284 148.108515 
L 185.532131 148.108515 
L 188.076977 169.287735 
L 190.621824 119.869554 
L 193.16667 190.466956 
L 195.711517 63.391631 
L 198.256363 190.466956 
L 200.80121 211.646177 
L 203.346056 197.526696 
L 205.890902 211.646177 
L 208.435749 211.646177 
L 210.980595 183.407216 
L 213.525442 84.570852 
L 216.070288 162.227995 
L 218.615135 222.235787 
L 221.159981 148.108515 
L 223.704828 211.646177 
L 226.249674 176.347476 
L 228.794521 204.586437 
L 231.339367 119.869554 
L 233.884213 197.526696 
L 236.42906 218.705917 
L 238.973906 162.227995 
L 241.518753 246.944878 
L 244.063599 133.989034 
L 246.608446 35.15267 
L 249.153292 148.108515 
L 251.698139 141.048774 
L 254.242985 141.048774 
L 256.787832 98.690333 
L 259.332678 155.168255 
L 261.877525 176.347476 
L 266.967217 162.227995 
L 269.512064 239.885138 
L 272.05691 218.705917 
L 274.601757 155.168255 
L 277.146603 176.347476 
L 279.69145 133.989034 
L 282.236296 126.929294 
L 284.781143 105.750073 
L 287.325989 169.287735 
L 289.870836 119.869554 
L 292.415682 133.989034 
L 294.960528 84.570852 
L 297.505375 49.272151 
L 300.050221 119.869554 
L 302.595068 133.989034 
L 305.139914 218.705917 
L 307.684761 148.108515 
L 310.229607 155.168255 
L 312.774454 105.750073 
L 315.3193 169.287735 
L 317.864147 155.168255 
L 320.408993 116.339683 
L 322.95384 38.682541 
L 325.498686 105.750073 
L 330.588379 126.929294 
L 333.133225 141.048774 
L 335.678072 169.287735 
L 338.222918 119.869554 
L 340.767765 148.108515 
L 343.312611 197.526696 
L 345.857458 77.511112 
L 348.402304 155.168255 
L 353.491997 112.809813 
L 356.036843 176.347476 
L 358.58169 126.929294 
L 361.126536 133.989034 
L 363.671383 246.944878 
L 366.216229 133.989034 
L 368.761076 225.765657 
L 371.305922 179.877346 
L 373.850769 84.570852 
L 376.395615 172.817606 
L 378.940462 126.929294 
L 381.485308 225.765657 
L 384.030154 77.511112 
L 386.575001 148.108515 
L 389.119847 148.108515 
L 391.664694 190.466956 
L 394.20954 73.981242 
L 396.754387 119.869554 
L 399.299233 84.570852 
L 401.84408 162.227995 
L 404.388926 144.578644 
L 406.933773 176.347476 
L 409.478619 169.287735 
L 412.023466 155.168255 
L 414.568312 98.690333 
L 417.113158 218.705917 
L 419.658005 225.765657 
L 422.202851 197.526696 
L 424.747698 66.921502 
L 427.292544 133.989034 
L 429.837391 35.15267 
L 432.382237 172.817606 
L 434.927084 155.168255 
L 437.47193 119.869554 
L 440.016777 119.869554 
L 442.561623 183.407216 
L 445.106469 119.869554 
L 447.651316 119.869554 
L 450.196162 169.287735 
L 452.741009 183.407216 
L 455.285855 176.347476 
L 457.830702 197.526696 
L 460.375548 190.466956 
L 462.920395 176.347476 
L 465.465241 126.929294 
L 468.010088 126.929294 
L 470.554934 176.347476 
L 473.099781 197.526696 
L 475.644627 116.339683 
L 478.189473 179.877346 
L 480.73432 155.168255 
L 483.279166 176.347476 
L 485.824013 190.466956 
L 488.368859 225.765657 
L 490.913706 144.578644 
L 493.458552 165.757865 
L 496.003399 112.809813 
L 498.548245 141.048774 
L 501.093092 176.347476 
L 503.637938 141.048774 
L 506.182784 215.176047 
L 508.727631 162.227995 
L 511.272477 91.630593 
L 513.817324 148.108515 
L 516.36217 77.511112 
L 518.907017 215.176047 
L 521.451863 186.937086 
L 523.99671 183.407216 
L 526.541556 183.407216 
L 529.086403 211.646177 
L 531.631249 176.347476 
L 534.176096 204.586437 
L 536.720942 169.287735 
L 539.265788 190.466956 
L 541.810635 98.690333 
L 544.355481 211.646177 
L 546.900328 183.407216 
L 549.445174 102.220203 
L 551.990021 141.048774 
L 554.534867 126.929294 
L 557.079714 190.466956 
L 559.62456 183.407216 
L 562.169407 155.168255 
L 564.714253 116.339683 
L 567.259099 169.287735 
L 569.803946 183.407216 
L 572.348792 112.809813 
L 574.893639 232.825398 
L 577.438485 91.630593 
L 579.983332 148.108515 
L 582.528178 197.526696 
L 585.073025 183.407216 
L 587.617871 183.407216 
L 590.162718 246.944878 
L 592.707564 169.287735 
L 595.25241 183.407216 
L 597.797257 162.227995 
L 600.342103 155.168255 
L 602.88695 165.757865 
L 605.431796 211.646177 
L 607.976643 197.526696 
L 610.521489 239.885138 
L 613.066336 176.347476 
L 615.611182 197.526696 
L 618.156029 190.466956 
L 620.700875 232.825398 
L 623.245722 162.227995 
L 625.790568 197.526696 
L 628.335414 183.407216 
L 630.880261 155.168255 
L 633.425107 148.108515 
L 635.969954 155.168255 
L 641.059647 126.929294 
L 643.604493 133.989034 
L 646.14934 169.287735 
L 648.694186 183.407216 
L 653.783879 84.570852 
L 656.328725 183.407216 
L 658.873572 204.586437 
L 661.418418 218.705917 
L 663.963265 133.989034 
L 666.508111 190.466956 
L 669.052958 148.108515 
L 671.597804 141.048774 
L 674.142651 91.630593 
L 676.687497 155.168255 
L 679.232344 239.885138 
L 681.77719 137.518904 
L 684.322037 148.108515 
L 686.866883 204.586437 
L 689.411729 204.586437 
L 691.956576 190.466956 
L 694.501422 133.989034 
L 697.046269 176.347476 
L 699.591115 155.168255 
L 702.135962 232.825398 
L 704.680808 133.989034 
L 707.225655 109.279943 
L 709.770501 155.168255 
L 712.315348 141.048774 
L 714.860194 112.809813 
L 717.40504 176.347476 
L 719.949887 176.347476 
L 722.494733 35.15267 
L 725.03958 197.526696 
L 727.584426 211.646177 
L 730.129273 183.407216 
L 732.674119 183.407216 
L 735.218966 91.630593 
L 737.763812 158.698125 
L 740.308659 141.048774 
L 742.853505 218.705917 
L 745.398352 197.526696 
L 747.943198 77.511112 
L 750.488044 133.989034 
L 753.032891 63.391631 
L 755.577737 162.227995 
L 758.122584 162.227995 
L 760.66743 218.705917 
L 763.212277 155.168255 
L 768.30197 183.407216 
L 770.846816 169.287735 
L 773.391663 169.287735 
L 775.936509 141.048774 
L 778.481355 119.869554 
L 781.026202 105.750073 
L 783.571048 162.227995 
L 786.115895 261.064359 
L 788.660741 162.227995 
L 791.205588 112.809813 
L 793.750434 105.750073 
L 796.295281 162.227995 
L 798.840127 176.347476 
L 801.384974 155.168255 
L 803.92982 148.108515 
L 806.474667 204.586437 
L 809.019513 183.407216 
L 811.564359 183.407216 
L 814.109206 169.287735 
L 816.654052 211.646177 
L 819.198899 141.048774 
L 821.743745 133.989034 
L 824.288592 162.227995 
L 826.833438 176.347476 
L 829.378285 91.630593 
L 831.923131 77.511112 
L 834.467978 162.227995 
L 837.012824 190.466956 
L 839.55767 102.220203 
L 839.55767 102.220203 
" clip-path="url(#p0e7d660aad)" style="fill: none; stroke: #ff00ff; stroke-width: 0.9; stroke-linecap: square"/>
   </g>
   <g id="line2d_17">
    <path d="M 78.64858 211.646177 
L 81.193426 204.586437 
L 83.738272 169.287735 
L 86.283119 176.347476 
L 88.827965 162.227995 
L 91.372812 190.466956 
L 93.917658 162.227995 
L 96.462505 218.705917 
L 99.007351 190.466956 
L 101.552198 112.809813 
L 104.097044 218.705917 
L 109.186737 162.227995 
L 111.731583 105.750073 
L 114.27643 225.765657 
L 116.821276 183.407216 
L 121.910969 197.526696 
L 124.455816 261.064359 
L 127.000662 183.407216 
L 129.545509 155.168255 
L 132.090355 190.466956 
L 134.635202 176.347476 
L 137.180048 183.407216 
L 139.724895 169.287735 
L 142.269741 246.944878 
L 144.814587 225.765657 
L 147.359434 190.466956 
L 149.90428 141.048774 
L 152.449127 155.168255 
L 154.993973 218.705917 
L 157.53882 176.347476 
L 160.083666 162.227995 
L 162.628513 141.048774 
L 167.718206 239.885138 
L 170.263052 246.944878 
L 172.807898 183.407216 
L 175.352745 155.168255 
L 177.897591 218.705917 
L 180.442438 204.586437 
L 182.987284 176.347476 
L 185.532131 211.646177 
L 188.076977 183.407216 
L 190.621824 162.227995 
L 193.16667 239.885138 
L 195.711517 112.809813 
L 198.256363 169.287735 
L 200.80121 232.825398 
L 203.346056 254.004619 
L 205.890902 204.586437 
L 208.435749 239.885138 
L 210.980595 204.586437 
L 213.525442 176.347476 
L 216.070288 155.168255 
L 218.615135 239.885138 
L 221.159981 151.638385 
L 223.704828 232.825398 
L 226.249674 197.526696 
L 228.794521 246.944878 
L 231.339367 183.407216 
L 233.884213 268.124099 
L 236.42906 239.885138 
L 238.973906 261.064359 
L 241.518753 254.004619 
L 244.063599 162.227995 
L 246.608446 190.466956 
L 249.153292 197.526696 
L 251.698139 165.757865 
L 254.242985 239.885138 
L 256.787832 204.586437 
L 259.332678 176.347476 
L 261.877525 225.765657 
L 264.422371 211.646177 
L 266.967217 204.586437 
L 269.512064 225.765657 
L 274.601757 239.885138 
L 277.146603 268.124099 
L 279.69145 176.347476 
L 282.236296 218.705917 
L 284.781143 204.586437 
L 287.325989 225.765657 
L 289.870836 197.526696 
L 292.415682 204.586437 
L 294.960528 105.750073 
L 297.505375 162.227995 
L 300.050221 183.407216 
L 302.595068 116.339683 
L 305.139914 261.064359 
L 307.684761 218.705917 
L 310.229607 162.227995 
L 312.774454 176.347476 
L 315.3193 197.526696 
L 317.864147 133.989034 
L 320.408993 183.407216 
L 322.95384 141.048774 
L 325.498686 169.287735 
L 328.043532 169.287735 
L 330.588379 148.108515 
L 333.133225 239.885138 
L 335.678072 162.227995 
L 338.222918 204.586437 
L 340.767765 169.287735 
L 343.312611 268.124099 
L 345.857458 183.407216 
L 348.402304 162.227995 
L 350.947151 155.168255 
L 353.491997 225.765657 
L 356.036843 261.064359 
L 358.58169 239.885138 
L 361.126536 204.586437 
L 363.671383 268.124099 
L 366.216229 133.989034 
L 368.761076 232.825398 
L 371.305922 190.466956 
L 373.850769 176.347476 
L 376.395615 204.586437 
L 378.940462 204.586437 
L 381.485308 239.885138 
L 386.575001 141.048774 
L 389.119847 204.586437 
L 391.664694 254.004619 
L 394.20954 162.227995 
L 396.754387 211.646177 
L 399.299233 141.048774 
L 401.84408 186.937086 
L 404.388926 218.705917 
L 406.933773 254.004619 
L 409.478619 190.466956 
L 412.023466 197.526696 
L 414.568312 133.989034 
L 417.113158 268.124099 
L 419.658005 254.004619 
L 422.202851 204.586437 
L 424.747698 176.347476 
L 427.292544 204.586437 
L 429.837391 133.989034 
L 432.382237 176.347476 
L 437.47193 232.825398 
L 440.016777 190.466956 
L 442.561623 218.705917 
L 445.106469 176.347476 
L 447.651316 232.825398 
L 455.285855 169.287735 
L 457.830702 211.646177 
L 460.375548 218.705917 
L 462.920395 254.004619 
L 465.465241 204.586437 
L 468.010088 197.526696 
L 470.554934 204.586437 
L 473.099781 232.825398 
L 475.644627 155.168255 
L 478.189473 183.407216 
L 480.73432 169.287735 
L 483.279166 225.765657 
L 485.824013 176.347476 
L 488.368859 225.765657 
L 490.913706 148.108515 
L 493.458552 239.885138 
L 496.003399 162.227995 
L 498.548245 133.989034 
L 501.093092 218.705917 
L 503.637938 183.407216 
L 506.182784 236.355268 
L 508.727631 204.586437 
L 511.272477 98.690333 
L 513.817324 176.347476 
L 516.36217 148.108515 
L 518.907017 232.825398 
L 521.451863 176.347476 
L 523.99671 197.526696 
L 526.541556 197.526696 
L 529.086403 218.705917 
L 531.631249 183.407216 
L 534.176096 204.586437 
L 536.720942 133.989034 
L 539.265788 239.885138 
L 541.810635 211.646177 
L 544.355481 261.064359 
L 546.900328 246.944878 
L 549.445174 155.168255 
L 551.990021 211.646177 
L 554.534867 204.586437 
L 557.079714 218.705917 
L 559.62456 225.765657 
L 562.169407 176.347476 
L 564.714253 155.168255 
L 567.259099 197.526696 
L 569.803946 183.407216 
L 572.348792 162.227995 
L 574.893639 204.586437 
L 577.438485 162.227995 
L 579.983332 211.646177 
L 582.528178 246.944878 
L 585.073025 211.646177 
L 590.162718 246.944878 
L 592.707564 239.885138 
L 595.25241 183.407216 
L 597.797257 246.944878 
L 600.342103 218.705917 
L 602.88695 133.989034 
L 605.431796 211.646177 
L 607.976643 254.004619 
L 610.521489 218.705917 
L 613.066336 190.466956 
L 615.611182 211.646177 
L 618.156029 190.466956 
L 620.700875 268.124099 
L 623.245722 183.407216 
L 625.790568 218.705917 
L 628.335414 190.466956 
L 630.880261 197.526696 
L 633.425107 169.287735 
L 635.969954 176.347476 
L 638.5148 169.287735 
L 641.059647 197.526696 
L 643.604493 176.347476 
L 646.14934 183.407216 
L 648.694186 176.347476 
L 651.239033 204.586437 
L 653.783879 162.227995 
L 656.328725 225.765657 
L 658.873572 211.646177 
L 661.418418 246.944878 
L 663.963265 246.944878 
L 666.508111 218.705917 
L 669.052958 155.168255 
L 671.597804 218.705917 
L 674.142651 218.705917 
L 676.687497 176.347476 
L 679.232344 183.407216 
L 681.77719 169.287735 
L 684.322037 204.586437 
L 686.866883 197.526696 
L 689.411729 204.586437 
L 691.956576 239.885138 
L 694.501422 218.705917 
L 697.046269 169.287735 
L 699.591115 218.705917 
L 702.135962 246.944878 
L 704.680808 211.646177 
L 707.225655 105.750073 
L 709.770501 204.586437 
L 712.315348 155.168255 
L 714.860194 190.466956 
L 717.40504 183.407216 
L 719.949887 126.929294 
L 722.494733 141.048774 
L 725.03958 133.989034 
L 727.584426 176.347476 
L 730.129273 211.646177 
L 732.674119 254.004619 
L 735.218966 148.108515 
L 737.763812 218.705917 
L 740.308659 193.996826 
L 742.853505 261.064359 
L 745.398352 239.885138 
L 747.943198 141.048774 
L 750.488044 204.586437 
L 753.032891 141.048774 
L 755.577737 218.705917 
L 758.122584 208.116307 
L 760.66743 218.705917 
L 763.212277 211.646177 
L 765.757123 169.287735 
L 770.846816 183.407216 
L 773.391663 239.885138 
L 775.936509 148.108515 
L 778.481355 176.347476 
L 781.026202 169.287735 
L 783.571048 176.347476 
L 786.115895 239.885138 
L 788.660741 190.466956 
L 791.205588 204.586437 
L 793.750434 183.407216 
L 796.295281 176.347476 
L 798.840127 197.526696 
L 801.384974 225.765657 
L 803.92982 204.586437 
L 809.019513 204.586437 
L 811.564359 197.526696 
L 814.109206 176.347476 
L 816.654052 239.885138 
L 819.198899 141.048774 
L 821.743745 204.586437 
L 824.288592 261.064359 
L 826.833438 183.407216 
L 829.378285 141.048774 
L 831.923131 155.168255 
L 834.467978 162.227995 
L 837.012824 239.885138 
L 839.55767 148.108515 
L 839.55767 148.108515 
" clip-path="url(#p0e7d660aad)" style="fill: none; stroke: #9400d3; stroke-width: 0.9; stroke-linecap: square"/>
   </g>
   <g id="line2d_18">
    <path d="M 78.64858 183.407216 
L 81.193426 246.944878 
L 83.738272 183.407216 
L 86.283119 218.705917 
L 88.827965 218.705917 
L 91.372812 169.287735 
L 93.917658 151.638385 
L 96.462505 254.004619 
L 99.007351 211.646177 
L 101.552198 190.466956 
L 104.097044 246.944878 
L 106.641891 232.825398 
L 111.731583 133.989034 
L 114.27643 268.124099 
L 116.821276 225.765657 
L 119.366123 169.287735 
L 121.910969 211.646177 
L 124.455816 261.064359 
L 127.000662 190.466956 
L 129.545509 126.929294 
L 132.090355 169.287735 
L 134.635202 197.526696 
L 137.180048 197.526696 
L 139.724895 225.765657 
L 142.269741 275.183839 
L 144.814587 268.124099 
L 147.359434 211.646177 
L 149.90428 197.526696 
L 152.449127 141.048774 
L 154.993973 218.705917 
L 157.53882 232.825398 
L 160.083666 141.048774 
L 162.628513 176.347476 
L 165.173359 225.765657 
L 167.718206 261.064359 
L 170.263052 261.064359 
L 172.807898 232.825398 
L 175.352745 197.526696 
L 180.442438 254.004619 
L 182.987284 211.646177 
L 185.532131 239.885138 
L 188.076977 197.526696 
L 190.621824 261.064359 
L 193.16667 261.064359 
L 195.711517 176.347476 
L 198.256363 190.466956 
L 200.80121 254.004619 
L 203.346056 268.124099 
L 205.890902 225.765657 
L 208.435749 268.124099 
L 210.980595 218.705917 
L 213.525442 204.586437 
L 216.070288 183.407216 
L 218.615135 254.004619 
L 221.159981 225.765657 
L 226.249674 225.765657 
L 228.794521 268.124099 
L 231.339367 172.817606 
L 233.884213 275.183839 
L 236.42906 254.004619 
L 238.973906 282.24358 
L 241.518753 268.124099 
L 244.063599 211.646177 
L 246.608446 183.407216 
L 249.153292 239.885138 
L 251.698139 218.705917 
L 254.242985 261.064359 
L 256.787832 197.526696 
L 259.332678 190.466956 
L 261.877525 246.944878 
L 264.422371 211.646177 
L 266.967217 246.944878 
L 269.512064 254.004619 
L 272.05691 211.646177 
L 274.601757 268.124099 
L 277.146603 268.124099 
L 279.69145 218.705917 
L 282.236296 197.526696 
L 284.781143 218.705917 
L 287.325989 197.526696 
L 292.415682 225.765657 
L 294.960528 169.287735 
L 297.505375 211.646177 
L 300.050221 197.526696 
L 302.595068 162.227995 
L 305.139914 239.885138 
L 307.684761 190.466956 
L 310.229607 183.407216 
L 312.774454 218.705917 
L 315.3193 232.825398 
L 317.864147 190.466956 
L 320.408993 225.765657 
L 322.95384 239.885138 
L 325.498686 218.705917 
L 330.588379 162.227995 
L 333.133225 239.885138 
L 335.678072 169.287735 
L 338.222918 246.944878 
L 340.767765 169.287735 
L 343.312611 261.064359 
L 345.857458 268.124099 
L 348.402304 197.526696 
L 350.947151 148.108515 
L 356.036843 261.064359 
L 358.58169 261.064359 
L 361.126536 232.825398 
L 363.671383 275.183839 
L 366.216229 162.227995 
L 368.761076 204.586437 
L 371.305922 218.705917 
L 373.850769 148.108515 
L 376.395615 232.825398 
L 378.940462 225.765657 
L 381.485308 268.124099 
L 384.030154 144.578644 
L 386.575001 197.526696 
L 389.119847 218.705917 
L 391.664694 282.24358 
L 394.20954 204.586437 
L 396.754387 225.765657 
L 399.299233 197.526696 
L 401.84408 204.586437 
L 406.933773 246.944878 
L 409.478619 197.526696 
L 412.023466 183.407216 
L 414.568312 190.466956 
L 417.113158 268.124099 
L 419.658005 268.124099 
L 422.202851 239.885138 
L 424.747698 169.287735 
L 427.292544 193.996826 
L 429.837391 148.108515 
L 432.382237 162.227995 
L 434.927084 232.825398 
L 437.47193 176.347476 
L 440.016777 190.466956 
L 442.561623 232.825398 
L 445.106469 176.347476 
L 447.651316 232.825398 
L 450.196162 218.705917 
L 452.741009 232.825398 
L 455.285855 218.705917 
L 457.830702 239.885138 
L 460.375548 218.705917 
L 462.920395 268.124099 
L 470.554934 183.407216 
L 473.099781 246.944878 
L 475.644627 222.235787 
L 478.189473 239.885138 
L 480.73432 148.108515 
L 483.279166 246.944878 
L 485.824013 155.168255 
L 488.368859 243.415008 
L 490.913706 190.466956 
L 493.458552 225.765657 
L 498.548245 169.287735 
L 501.093092 239.885138 
L 503.637938 169.287735 
L 506.182784 246.944878 
L 508.727631 197.526696 
L 511.272477 176.347476 
L 513.817324 211.646177 
L 516.36217 190.466956 
L 518.907017 268.124099 
L 521.451863 183.407216 
L 523.99671 239.885138 
L 526.541556 232.825398 
L 529.086403 239.885138 
L 531.631249 197.526696 
L 534.176096 225.765657 
L 536.720942 133.989034 
L 539.265788 268.124099 
L 541.810635 254.004619 
L 544.355481 268.124099 
L 546.900328 268.124099 
L 549.445174 169.287735 
L 551.990021 239.885138 
L 554.534867 211.646177 
L 557.079714 246.944878 
L 559.62456 268.124099 
L 562.169407 204.586437 
L 564.714253 169.287735 
L 567.259099 232.825398 
L 569.803946 197.526696 
L 572.348792 204.586437 
L 574.893639 218.705917 
L 577.438485 183.407216 
L 579.983332 232.825398 
L 582.528178 261.064359 
L 585.073025 225.765657 
L 587.617871 254.004619 
L 592.707564 254.004619 
L 595.25241 211.646177 
L 597.797257 246.944878 
L 600.342103 232.825398 
L 602.88695 151.638385 
L 605.431796 239.885138 
L 607.976643 254.004619 
L 615.611182 211.646177 
L 618.156029 215.176047 
L 620.700875 282.24358 
L 623.245722 183.407216 
L 625.790568 275.183839 
L 628.335414 218.705917 
L 630.880261 232.825398 
L 633.425107 169.287735 
L 635.969954 197.526696 
L 638.5148 197.526696 
L 641.059647 211.646177 
L 643.604493 176.347476 
L 646.14934 211.646177 
L 648.694186 211.646177 
L 651.239033 246.944878 
L 653.783879 183.407216 
L 656.328725 254.004619 
L 658.873572 239.885138 
L 661.418418 246.944878 
L 663.963265 232.825398 
L 666.508111 232.825398 
L 669.052958 176.347476 
L 671.597804 239.885138 
L 674.142651 218.705917 
L 676.687497 211.646177 
L 679.232344 211.646177 
L 681.77719 197.526696 
L 684.322037 225.765657 
L 686.866883 218.705917 
L 689.411729 254.004619 
L 691.956576 254.004619 
L 694.501422 225.765657 
L 697.046269 204.586437 
L 699.591115 218.705917 
L 704.680808 218.705917 
L 707.225655 183.407216 
L 709.770501 232.825398 
L 712.315348 204.586437 
L 717.40504 204.586437 
L 719.949887 176.347476 
L 722.494733 169.287735 
L 725.03958 155.168255 
L 727.584426 218.705917 
L 730.129273 218.705917 
L 732.674119 268.124099 
L 735.218966 169.287735 
L 737.763812 211.646177 
L 740.308659 176.347476 
L 742.853505 261.064359 
L 745.398352 239.885138 
L 747.943198 169.287735 
L 750.488044 225.765657 
L 753.032891 190.466956 
L 755.577737 246.944878 
L 758.122584 225.765657 
L 763.212277 268.124099 
L 765.757123 218.705917 
L 768.30197 218.705917 
L 770.846816 190.466956 
L 773.391663 254.004619 
L 775.936509 183.407216 
L 778.481355 197.526696 
L 781.026202 232.825398 
L 783.571048 197.526696 
L 786.115895 254.004619 
L 788.660741 225.765657 
L 791.205588 232.825398 
L 793.750434 183.407216 
L 796.295281 176.347476 
L 798.840127 197.526696 
L 801.384974 211.646177 
L 803.92982 218.705917 
L 806.474667 232.825398 
L 809.019513 218.705917 
L 811.564359 218.705917 
L 814.109206 204.586437 
L 816.654052 261.064359 
L 819.198899 215.176047 
L 821.743745 225.765657 
L 824.288592 257.534489 
L 826.833438 183.407216 
L 829.378285 204.586437 
L 831.923131 176.347476 
L 834.467978 232.825398 
L 837.012824 275.183839 
L 839.55767 183.407216 
L 839.55767 183.407216 
" clip-path="url(#p0e7d660aad)" style="fill: none; stroke: #00ffff; stroke-width: 0.9; stroke-linecap: square"/>
   </g>
   <g id="line2d_19">
    <path d="M 78.64858 176.347476 
L 81.193426 261.064359 
L 83.738272 190.466956 
L 86.283119 261.064359 
L 88.827965 218.705917 
L 91.372812 183.407216 
L 96.462505 239.885138 
L 99.007351 183.407216 
L 101.552198 183.407216 
L 104.097044 211.646177 
L 106.641891 197.526696 
L 109.186737 222.235787 
L 111.731583 126.929294 
L 114.27643 268.124099 
L 116.821276 211.646177 
L 119.366123 218.705917 
L 121.910969 232.825398 
L 124.455816 261.064359 
L 127.000662 190.466956 
L 129.545509 176.347476 
L 132.090355 190.466956 
L 134.635202 218.705917 
L 137.180048 176.347476 
L 139.724895 261.064359 
L 142.269741 282.24358 
L 144.814587 268.124099 
L 147.359434 239.885138 
L 149.90428 225.765657 
L 152.449127 190.466956 
L 154.993973 246.944878 
L 157.53882 246.944878 
L 160.083666 148.108515 
L 162.628513 155.168255 
L 165.173359 232.825398 
L 167.718206 261.064359 
L 170.263052 261.064359 
L 172.807898 204.586437 
L 175.352745 225.765657 
L 177.897591 239.885138 
L 180.442438 239.885138 
L 182.987284 197.526696 
L 185.532131 239.885138 
L 188.076977 239.885138 
L 190.621824 282.24358 
L 193.16667 261.064359 
L 195.711517 218.705917 
L 198.256363 211.646177 
L 200.80121 268.124099 
L 203.346056 268.124099 
L 205.890902 254.004619 
L 208.435749 268.124099 
L 210.980595 246.944878 
L 213.525442 254.004619 
L 216.070288 211.646177 
L 218.615135 254.004619 
L 221.159981 211.646177 
L 223.704828 232.825398 
L 226.249674 225.765657 
L 228.794521 254.004619 
L 231.339367 183.407216 
L 233.884213 261.064359 
L 236.42906 268.124099 
L 238.973906 282.24358 
L 241.518753 268.124099 
L 244.063599 239.885138 
L 246.608446 197.526696 
L 249.153292 239.885138 
L 251.698139 218.705917 
L 254.242985 261.064359 
L 256.787832 211.646177 
L 259.332678 148.108515 
L 261.877525 261.064359 
L 264.422371 225.765657 
L 266.967217 246.944878 
L 269.512064 254.004619 
L 272.05691 239.885138 
L 274.601757 268.124099 
L 277.146603 282.24358 
L 279.69145 232.825398 
L 282.236296 155.168255 
L 284.781143 232.825398 
L 287.325989 176.347476 
L 289.870836 204.586437 
L 292.415682 183.407216 
L 294.960528 239.885138 
L 297.505375 197.526696 
L 302.595068 225.765657 
L 305.139914 254.004619 
L 307.684761 183.407216 
L 310.229607 190.466956 
L 312.774454 246.944878 
L 315.3193 225.765657 
L 317.864147 211.646177 
L 320.408993 225.765657 
L 322.95384 211.646177 
L 325.498686 239.885138 
L 328.043532 246.944878 
L 330.588379 190.466956 
L 333.133225 225.765657 
L 335.678072 218.705917 
L 338.222918 254.004619 
L 340.767765 211.646177 
L 343.312611 246.944878 
L 345.857458 268.124099 
L 348.402304 211.646177 
L 350.947151 190.466956 
L 353.491997 239.885138 
L 356.036843 239.885138 
L 358.58169 246.944878 
L 361.126536 225.765657 
L 363.671383 268.124099 
L 366.216229 190.466956 
L 368.761076 211.646177 
L 371.305922 261.064359 
L 373.850769 190.466956 
L 376.395615 155.168255 
L 378.940462 225.765657 
L 381.485308 261.064359 
L 384.030154 151.638385 
L 386.575001 190.466956 
L 389.119847 211.646177 
L 391.664694 264.594229 
L 394.20954 232.825398 
L 396.754387 218.705917 
L 399.299233 176.347476 
L 401.84408 172.817606 
L 404.388926 218.705917 
L 406.933773 225.765657 
L 409.478619 197.526696 
L 412.023466 218.705917 
L 414.568312 211.646177 
L 417.113158 254.004619 
L 419.658005 282.24358 
L 422.202851 218.705917 
L 424.747698 148.108515 
L 427.292544 197.526696 
L 429.837391 148.108515 
L 432.382237 183.407216 
L 434.927084 246.944878 
L 437.47193 183.407216 
L 440.016777 183.407216 
L 442.561623 232.825398 
L 445.106469 211.646177 
L 447.651316 225.765657 
L 450.196162 211.646177 
L 452.741009 211.646177 
L 455.285855 204.586437 
L 457.830702 254.004619 
L 460.375548 218.705917 
L 462.920395 282.24358 
L 465.465241 239.885138 
L 468.010088 225.765657 
L 470.554934 218.705917 
L 473.099781 254.004619 
L 478.189473 254.004619 
L 480.73432 197.526696 
L 483.279166 254.004619 
L 485.824013 197.526696 
L 488.368859 246.944878 
L 490.913706 211.646177 
L 493.458552 239.885138 
L 496.003399 211.646177 
L 498.548245 204.586437 
L 501.093092 246.944878 
L 503.637938 169.287735 
L 506.182784 239.885138 
L 508.727631 211.646177 
L 511.272477 158.698125 
L 513.817324 211.646177 
L 516.36217 246.944878 
L 518.907017 268.124099 
L 521.451863 169.287735 
L 523.99671 239.885138 
L 526.541556 225.765657 
L 529.086403 254.004619 
L 531.631249 218.705917 
L 534.176096 232.825398 
L 536.720942 141.048774 
L 539.265788 268.124099 
L 544.355481 254.004619 
L 546.900328 275.183839 
L 549.445174 183.407216 
L 551.990021 275.183839 
L 554.534867 190.466956 
L 557.079714 232.825398 
L 559.62456 254.004619 
L 562.169407 232.825398 
L 564.714253 169.287735 
L 567.259099 218.705917 
L 569.803946 211.646177 
L 572.348792 211.646177 
L 574.893639 218.705917 
L 577.438485 211.646177 
L 579.983332 232.825398 
L 582.528178 261.064359 
L 585.073025 239.885138 
L 587.617871 268.124099 
L 590.162718 261.064359 
L 592.707564 268.124099 
L 595.25241 254.004619 
L 597.797257 232.825398 
L 600.342103 204.586437 
L 602.88695 169.287735 
L 605.431796 232.825398 
L 607.976643 261.064359 
L 610.521489 232.825398 
L 613.066336 254.004619 
L 615.611182 239.885138 
L 618.156029 239.885138 
L 620.700875 282.24358 
L 623.245722 204.586437 
L 625.790568 275.183839 
L 628.335414 254.004619 
L 630.880261 239.885138 
L 633.425107 183.407216 
L 635.969954 218.705917 
L 638.5148 183.407216 
L 641.059647 239.885138 
L 643.604493 204.586437 
L 646.14934 225.765657 
L 648.694186 204.586437 
L 651.239033 254.004619 
L 653.783879 197.526696 
L 656.328725 268.124099 
L 658.873572 239.885138 
L 661.418418 275.183839 
L 663.963265 246.944878 
L 666.508111 197.526696 
L 669.052958 133.989034 
L 671.597804 261.064359 
L 674.142651 218.705917 
L 676.687497 246.944878 
L 679.232344 215.176047 
L 681.77719 211.646177 
L 684.322037 204.586437 
L 686.866883 218.705917 
L 689.411729 246.944878 
L 691.956576 254.004619 
L 694.501422 232.825398 
L 697.046269 186.937086 
L 699.591115 232.825398 
L 702.135962 275.183839 
L 704.680808 197.526696 
L 707.225655 218.705917 
L 709.770501 232.825398 
L 712.315348 204.586437 
L 714.860194 218.705917 
L 719.949887 176.347476 
L 725.03958 232.825398 
L 727.584426 193.996826 
L 730.129273 218.705917 
L 732.674119 239.885138 
L 735.218966 176.347476 
L 737.763812 211.646177 
L 740.308659 239.885138 
L 742.853505 261.064359 
L 745.398352 225.765657 
L 747.943198 225.765657 
L 750.488044 239.885138 
L 753.032891 197.526696 
L 755.577737 254.004619 
L 758.122584 264.594229 
L 760.66743 246.944878 
L 763.212277 261.064359 
L 765.757123 225.765657 
L 768.30197 232.825398 
L 770.846816 254.004619 
L 773.391663 246.944878 
L 775.936509 218.705917 
L 778.481355 197.526696 
L 781.026202 232.825398 
L 783.571048 197.526696 
L 786.115895 254.004619 
L 788.660741 225.765657 
L 793.750434 211.646177 
L 796.295281 183.407216 
L 798.840127 268.124099 
L 801.384974 232.825398 
L 803.92982 232.825398 
L 806.474667 246.944878 
L 809.019513 268.124099 
L 811.564359 218.705917 
L 814.109206 211.646177 
L 816.654052 254.004619 
L 819.198899 211.646177 
L 821.743745 246.944878 
L 824.288592 254.004619 
L 826.833438 197.526696 
L 829.378285 225.765657 
L 831.923131 176.347476 
L 834.467978 232.825398 
L 837.012824 275.183839 
L 839.55767 197.526696 
L 839.55767 197.526696 
" clip-path="url(#p0e7d660aad)" style="fill: none; stroke: #ffa500; stroke-width: 0.9; stroke-linecap: square"/>
   </g>
   <g id="line2d_20">
    <path d="M 78.64858 225.765657 
L 81.193426 239.885138 
L 83.738272 169.287735 
L 86.283119 232.825398 
L 88.827965 176.347476 
L 91.372812 162.227995 
L 96.462505 218.705917 
L 99.007351 204.586437 
L 101.552198 176.347476 
L 104.097044 246.944878 
L 106.641891 204.586437 
L 109.186737 190.466956 
L 111.731583 158.698125 
L 114.27643 254.004619 
L 116.821276 218.705917 
L 119.366123 197.526696 
L 121.910969 268.124099 
L 124.455816 275.183839 
L 127.000662 190.466956 
L 129.545509 190.466956 
L 132.090355 232.825398 
L 134.635202 218.705917 
L 137.180048 225.765657 
L 139.724895 225.765657 
L 142.269741 275.183839 
L 144.814587 282.24358 
L 147.359434 225.765657 
L 149.90428 239.885138 
L 152.449127 183.407216 
L 154.993973 246.944878 
L 157.53882 232.825398 
L 160.083666 179.877346 
L 162.628513 204.586437 
L 167.718206 261.064359 
L 170.263052 246.944878 
L 172.807898 239.885138 
L 175.352745 225.765657 
L 177.897591 246.944878 
L 180.442438 261.064359 
L 182.987284 239.885138 
L 185.532131 239.885138 
L 190.621824 268.124099 
L 193.16667 261.064359 
L 195.711517 211.646177 
L 198.256363 190.466956 
L 200.80121 254.004619 
L 203.346056 268.124099 
L 205.890902 239.885138 
L 208.435749 268.124099 
L 210.980595 225.765657 
L 213.525442 232.825398 
L 216.070288 225.765657 
L 218.615135 254.004619 
L 221.159981 218.705917 
L 223.704828 246.944878 
L 226.249674 225.765657 
L 228.794521 268.124099 
L 231.339367 229.295528 
L 233.884213 282.24358 
L 236.42906 268.124099 
L 238.973906 282.24358 
L 241.518753 282.24358 
L 244.063599 232.825398 
L 246.608446 239.885138 
L 249.153292 268.124099 
L 251.698139 218.705917 
L 254.242985 261.064359 
L 256.787832 204.586437 
L 259.332678 211.646177 
L 261.877525 232.825398 
L 264.422371 225.765657 
L 266.967217 225.765657 
L 269.512064 254.004619 
L 272.05691 225.765657 
L 274.601757 268.124099 
L 277.146603 268.124099 
L 279.69145 232.825398 
L 282.236296 190.466956 
L 287.325989 218.705917 
L 289.870836 211.646177 
L 292.415682 211.646177 
L 294.960528 190.466956 
L 297.505375 239.885138 
L 300.050221 197.526696 
L 302.595068 211.646177 
L 305.139914 254.004619 
L 307.684761 225.765657 
L 310.229607 169.287735 
L 312.774454 218.705917 
L 315.3193 225.765657 
L 317.864147 176.347476 
L 320.408993 190.466956 
L 322.95384 239.885138 
L 325.498686 239.885138 
L 328.043532 218.705917 
L 330.588379 162.227995 
L 333.133225 239.885138 
L 335.678072 197.526696 
L 338.222918 232.825398 
L 340.767765 190.466956 
L 343.312611 268.124099 
L 345.857458 254.004619 
L 348.402304 232.825398 
L 350.947151 162.227995 
L 353.491997 218.705917 
L 356.036843 261.064359 
L 358.58169 254.004619 
L 361.126536 239.885138 
L 363.671383 275.183839 
L 366.216229 126.929294 
L 368.761076 208.116307 
L 371.305922 204.586437 
L 373.850769 155.168255 
L 376.395615 232.825398 
L 378.940462 232.825398 
L 381.485308 254.004619 
L 384.030154 183.407216 
L 386.575001 155.168255 
L 389.119847 218.705917 
L 391.664694 275.183839 
L 394.20954 204.586437 
L 396.754387 218.705917 
L 399.299233 204.586437 
L 401.84408 208.116307 
L 404.388926 239.885138 
L 406.933773 254.004619 
L 409.478619 190.466956 
L 412.023466 218.705917 
L 414.568312 183.407216 
L 417.113158 268.124099 
L 422.202851 239.885138 
L 424.747698 155.168255 
L 427.292544 218.705917 
L 429.837391 112.809813 
L 432.382237 190.466956 
L 434.927084 232.825398 
L 437.47193 246.944878 
L 440.016777 204.586437 
L 442.561623 232.825398 
L 445.106469 197.526696 
L 447.651316 232.825398 
L 450.196162 254.004619 
L 452.741009 232.825398 
L 455.285855 197.526696 
L 457.830702 225.765657 
L 460.375548 246.944878 
L 462.920395 254.004619 
L 468.010088 225.765657 
L 470.554934 246.944878 
L 473.099781 254.004619 
L 475.644627 197.526696 
L 478.189473 218.705917 
L 480.73432 232.825398 
L 483.279166 254.004619 
L 485.824013 218.705917 
L 488.368859 261.064359 
L 490.913706 204.586437 
L 493.458552 254.004619 
L 496.003399 197.526696 
L 498.548245 204.586437 
L 501.093092 261.064359 
L 503.637938 211.646177 
L 506.182784 246.944878 
L 508.727631 211.646177 
L 511.272477 162.227995 
L 513.817324 225.765657 
L 516.36217 197.526696 
L 518.907017 268.124099 
L 521.451863 190.466956 
L 523.99671 268.124099 
L 526.541556 225.765657 
L 529.086403 254.004619 
L 531.631249 225.765657 
L 534.176096 246.944878 
L 536.720942 225.765657 
L 539.265788 268.124099 
L 541.810635 254.004619 
L 544.355481 268.124099 
L 546.900328 275.183839 
L 549.445174 197.526696 
L 551.990021 246.944878 
L 554.534867 218.705917 
L 559.62456 246.944878 
L 562.169407 218.705917 
L 564.714253 169.287735 
L 567.259099 218.705917 
L 569.803946 211.646177 
L 572.348792 190.466956 
L 574.893639 239.885138 
L 577.438485 197.526696 
L 579.983332 232.825398 
L 582.528178 261.064359 
L 585.073025 239.885138 
L 587.617871 254.004619 
L 590.162718 261.064359 
L 592.707564 254.004619 
L 595.25241 232.825398 
L 597.797257 268.124099 
L 600.342103 225.765657 
L 602.88695 148.108515 
L 605.431796 239.885138 
L 607.976643 268.124099 
L 610.521489 239.885138 
L 613.066336 239.885138 
L 615.611182 211.646177 
L 618.156029 239.885138 
L 620.700875 282.24358 
L 623.245722 211.646177 
L 625.790568 246.944878 
L 628.335414 246.944878 
L 630.880261 232.825398 
L 633.425107 215.176047 
L 635.969954 190.466956 
L 638.5148 211.646177 
L 641.059647 229.295528 
L 643.604493 190.466956 
L 646.14934 218.705917 
L 648.694186 211.646177 
L 651.239033 211.646177 
L 653.783879 197.526696 
L 656.328725 268.124099 
L 658.873572 225.765657 
L 661.418418 261.064359 
L 663.963265 261.064359 
L 666.508111 232.825398 
L 669.052958 183.407216 
L 671.597804 232.825398 
L 674.142651 254.004619 
L 676.687497 232.825398 
L 679.232344 239.885138 
L 681.77719 232.825398 
L 684.322037 232.825398 
L 686.866883 225.765657 
L 689.411729 254.004619 
L 691.956576 254.004619 
L 694.501422 204.586437 
L 697.046269 232.825398 
L 699.591115 225.765657 
L 702.135962 246.944878 
L 704.680808 211.646177 
L 707.225655 169.287735 
L 709.770501 246.944878 
L 712.315348 218.705917 
L 714.860194 218.705917 
L 717.40504 204.586437 
L 719.949887 162.227995 
L 725.03958 204.586437 
L 727.584426 239.885138 
L 730.129273 225.765657 
L 732.674119 268.124099 
L 735.218966 204.586437 
L 737.763812 232.825398 
L 740.308659 197.526696 
L 742.853505 261.064359 
L 747.943198 218.705917 
L 750.488044 225.765657 
L 753.032891 218.705917 
L 755.577737 239.885138 
L 758.122584 239.885138 
L 760.66743 246.944878 
L 763.212277 268.124099 
L 765.757123 218.705917 
L 768.30197 232.825398 
L 770.846816 232.825398 
L 773.391663 268.124099 
L 775.936509 197.526696 
L 778.481355 218.705917 
L 783.571048 239.885138 
L 786.115895 268.124099 
L 788.660741 225.765657 
L 791.205588 218.705917 
L 793.750434 197.526696 
L 798.840127 225.765657 
L 801.384974 246.944878 
L 803.92982 232.825398 
L 806.474667 246.944878 
L 809.019513 232.825398 
L 811.564359 215.176047 
L 814.109206 201.056567 
L 816.654052 268.124099 
L 819.198899 225.765657 
L 821.743745 239.885138 
L 824.288592 261.064359 
L 826.833438 211.646177 
L 829.378285 239.885138 
L 831.923131 155.168255 
L 834.467978 246.944878 
L 837.012824 275.183839 
L 839.55767 204.586437 
L 839.55767 204.586437 
" clip-path="url(#p0e7d660aad)" style="fill: none; stroke: #ff4500; stroke-width: 0.9; stroke-linecap: square"/>
   </g>
   <g id="patch_3">
    <path d="M 40.603125 294.598125 
L 40.603125 22.798125 
" style="fill: none; stroke: #000000; stroke-width: 0.8; stroke-linejoin: miter; stroke-linecap: square"/>
   </g>
   <g id="patch_4">
    <path d="M 877.603125 294.598125 
L 877.603125 22.798125 
" style="fill: none; stroke: #000000; stroke-width: 0.8; stroke-linejoin: miter; stroke-linecap: square"/>
   </g>
   <g id="patch_5">
    <path d="M 40.603125 294.598125 
L 877.603125 294.598125 
" style="fill: none; stroke: #000000; stroke-width: 0.8; stroke-linejoin: miter; stroke-linecap: square"/>
   </g>
   <g id="patch_6">
    <path d="M 40.603125 22.798125 
L 877.603125 22.798125 
" style="fill: none; stroke: #000000; stroke-width: 0.8; stroke-linejoin: miter; stroke-linecap: square"/>
   </g>
   <g id="text_18">
    <!-- Liczba przejść przez średnią wartość z próbki 1 sekunda -->
    <g transform="translate(290.903438 16.798125)scale(0.12 -0.12)">
     <defs>
      <path id="DejaVuSans-4c" d="M 628 4666 
L 1259 4666 
L 1259 531 
L 3531 531 
L 3531 0 
L 628 0 
L 628 4666 
z
" transform="scale(0.015625)"/>
      <path id="DejaVuSans-69" d="M 603 3500 
L 1178 3500 
L 1178 0 
L 603 0 
L 603 3500 
z
M 603 4863 
L 1178 4863 
L 1178 4134 
L 603 4134 
L 603 4863 
z
" transform="scale(0.015625)"/>
      <path id="DejaVuSans-63" d="M 3122 3366 
L 3122 2828 
Q 2878 2963 2633 3030 
Q 2388 3097 2138 3097 
Q 1578 3097 1268 2742 
Q 959 2388 959 1747 
Q 959 1106 1268 751 
Q 1578 397 2138 397 
Q 2388 397 2633 464 
Q 2878 531 3122 666 
L 3122 134 
Q 2881 22 2623 -34 
Q 2366 -91 2075 -91 
Q 1284 -91 818 406 
Q 353 903 353 1747 
Q 353 2603 823 3093 
Q 1294 3584 2113 3584 
Q 2378 3584 2631 3529 
Q 2884 3475 3122 3366 
z
" transform="scale(0.015625)"/>
      <path id="DejaVuSans-7a" d="M 353 3500 
L 3084 3500 
L 3084 2975 
L 922 459 
L 3084 459 
L 3084 0 
L 275 0 
L 275 525 
L 2438 3041 
L 353 3041 
L 353 3500 
z
" transform="scale(0.015625)"/>
      <path id="DejaVuSans-20" transform="scale(0.015625)"/>
      <path id="DejaVuSans-70" d="M 1159 525 
L 1159 -1331 
L 581 -1331 
L 581 3500 
L 1159 3500 
L 1159 2969 
Q 1341 3281 1617 3432 
Q 1894 3584 2278 3584 
Q 2916 3584 3314 3078 
Q 3713 2572 3713 1747 
Q 3713 922 3314 415 
Q 2916 -91 2278 -91 
Q 1894 -91 1617 61 
Q 1341 213 1159 525 
z
M 3116 1747 
Q 3116 2381 2855 2742 
Q 2594 3103 2138 3103 
Q 1681 3103 1420 2742 
Q 1159 2381 1159 1747 
Q 1159 1113 1420 752 
Q 1681 391 2138 391 
Q 2594 391 2855 752 
Q 3116 1113 3116 1747 
z
" transform="scale(0.015625)"/>
      <path id="DejaVuSans-65" d="M 3597 1894 
L 3597 1613 
L 953 1613 
Q 991 1019 1311 708 
Q 1631 397 2203 397 
Q 2534 397 2845 478 
Q 3156 559 3463 722 
L 3463 178 
Q 3153 47 2828 -22 
Q 2503 -91 2169 -91 
Q 1331 -91 842 396 
Q 353 884 353 1716 
Q 353 2575 817 3079 
Q 1281 3584 2069 3584 
Q 2775 3584 3186 3129 
Q 3597 2675 3597 1894 
z
M 3022 2063 
Q 3016 2534 2758 2815 
Q 2500 3097 2075 3097 
Q 1594 3097 1305 2825 
Q 1016 2553 972 2059 
L 3022 2063 
z
" transform="scale(0.015625)"/>
      <path id="DejaVuSans-6a" d="M 603 3500 
L 1178 3500 
L 1178 -63 
Q 1178 -731 923 -1031 
Q 669 -1331 103 -1331 
L -116 -1331 
L -116 -844 
L 38 -844 
Q 366 -844 484 -692 
Q 603 -541 603 -63 
L 603 3500 
z
M 603 4863 
L 1178 4863 
L 1178 4134 
L 603 4134 
L 603 4863 
z
" transform="scale(0.015625)"/>
      <path id="DejaVuSans-64" d="M 2906 2969 
L 2906 4863 
L 3481 4863 
L 3481 0 
L 2906 0 
L 2906 525 
Q 2725 213 2448 61 
Q 2172 -91 1784 -91 
Q 1150 -91 751 415 
Q 353 922 353 1747 
Q 353 2572 751 3078 
Q 1150 3584 1784 3584 
Q 2172 3584 2448 3432 
Q 2725 3281 2906 2969 
z
M 947 1747 
Q 947 1113 1208 752 
Q 1469 391 1925 391 
Q 2381 391 2643 752 
Q 2906 1113 2906 1747 
Q 2906 2381 2643 2742 
Q 2381 3103 1925 3103 
Q 1469 3103 1208 2742 
Q 947 2381 947 1747 
z
" transform="scale(0.015625)"/>
      <path id="DejaVuSans-6e" d="M 3513 2113 
L 3513 0 
L 2938 0 
L 2938 2094 
Q 2938 2591 2744 2837 
Q 2550 3084 2163 3084 
Q 1697 3084 1428 2787 
Q 1159 2491 1159 1978 
L 1159 0 
L 581 0 
L 581 3500 
L 1159 3500 
L 1159 2956 
Q 1366 3272 1645 3428 
Q 1925 3584 2291 3584 
Q 2894 3584 3203 3211 
Q 3513 2838 3513 2113 
z
" transform="scale(0.015625)"/>
      <path id="DejaVuSans-105" d="M 2194 1759 
Q 1497 1759 1228 1600 
Q 959 1441 959 1056 
Q 959 750 1161 570 
Q 1363 391 1709 391 
Q 2188 391 2477 730 
Q 2766 1069 2766 1631 
L 2766 1759 
L 2194 1759 
z
M 3341 1997 
L 3341 0 
L 2766 0 
L 2766 531 
Q 2569 213 2275 61 
Q 1981 -91 1556 -91 
Q 1019 -91 701 211 
Q 384 513 384 1019 
Q 384 1609 779 1909 
Q 1175 2209 1959 2209 
L 2766 2209 
L 2766 2266 
Q 2766 2663 2505 2880 
Q 2244 3097 1772 3097 
Q 1472 3097 1187 3025 
Q 903 2953 641 2809 
L 641 3341 
Q 956 3463 1253 3523 
Q 1550 3584 1831 3584 
Q 2591 3584 2966 3190 
Q 3341 2797 3341 1997 
z
M 2775 0 
L 3147 0 
Q 3006 -191 2939 -328 
Q 2872 -466 2872 -563 
Q 2872 -706 2958 -778 
Q 3044 -850 3213 -850 
Q 3313 -850 3409 -826 
Q 3506 -803 3603 -756 
L 3603 -1172 
Q 3484 -1203 3378 -1218 
Q 3272 -1234 3178 -1234 
Q 2797 -1234 2617 -1098 
Q 2438 -963 2438 -672 
Q 2438 -522 2520 -358 
Q 2603 -194 2775 0 
z
" transform="scale(0.015625)"/>
      <path id="DejaVuSans-77" d="M 269 3500 
L 844 3500 
L 1563 769 
L 2278 3500 
L 2956 3500 
L 3675 769 
L 4391 3500 
L 4966 3500 
L 4050 0 
L 3372 0 
L 2619 2869 
L 1863 0 
L 1184 0 
L 269 3500 
z
" transform="scale(0.015625)"/>
      <path id="DejaVuSans-73" d="M 2834 3397 
L 2834 2853 
Q 2591 2978 2328 3040 
Q 2066 3103 1784 3103 
Q 1356 3103 1142 2972 
Q 928 2841 928 2578 
Q 928 2378 1081 2264 
Q 1234 2150 1697 2047 
L 1894 2003 
Q 2506 1872 2764 1633 
Q 3022 1394 3022 966 
Q 3022 478 2636 193 
Q 2250 -91 1575 -91 
Q 1294 -91 989 -36 
Q 684 19 347 128 
L 347 722 
Q 666 556 975 473 
Q 1284 391 1588 391 
Q 1994 391 2212 530 
Q 2431 669 2431 922 
Q 2431 1156 2273 1281 
Q 2116 1406 1581 1522 
L 1381 1569 
Q 847 1681 609 1914 
Q 372 2147 372 2553 
Q 372 3047 722 3315 
Q 1072 3584 1716 3584 
Q 2034 3584 2315 3537 
Q 2597 3491 2834 3397 
z
" transform="scale(0.015625)"/>
      <path id="DejaVuSans-75" d="M 544 1381 
L 544 3500 
L 1119 3500 
L 1119 1403 
Q 1119 906 1312 657 
Q 1506 409 1894 409 
Q 2359 409 2629 706 
Q 2900 1003 2900 1516 
L 2900 3500 
L 3475 3500 
L 3475 0 
L 2900 0 
L 2900 538 
Q 2691 219 2414 64 
Q 2138 -91 1772 -91 
Q 1169 -91 856 284 
Q 544 659 544 1381 
z
M 1991 3584 
L 1991 3584 
z
" transform="scale(0.015625)"/>
     </defs>
     <use xlink:href="#DejaVuSans-4c"/>
     <use xlink:href="#DejaVuSans-69" x="55.712891"/>
     <use xlink:href="#DejaVuSans-63" x="83.496094"/>
     <use xlink:href="#DejaVuSans-7a" x="138.476562"/>
     <use xlink:href="#DejaVuSans-62" x="190.966797"/>
     <use xlink:href="#DejaVuSans-61" x="254.443359"/>
     <use xlink:href="#DejaVuSans-20" x="315.722656"/>
     <use xlink:href="#DejaVuSans-70" x="347.509766"/>
     <use xlink:href="#DejaVuSans-72" x="410.986328"/>
     <use xlink:href="#DejaVuSans-7a" x="452.099609"/>
     <use xlink:href="#DejaVuSans-65" x="504.589844"/>
     <use xlink:href="#DejaVuSans-6a" x="566.113281"/>
     <use xlink:href="#DejaVuSans-15b" x="593.896484"/>
     <use xlink:href="#DejaVuSans-107" x="645.996094"/>
     <use xlink:href="#DejaVuSans-20" x="700.976562"/>
     <use xlink:href="#DejaVuSans-70" x="732.763672"/>
     <use xlink:href="#DejaVuSans-72" x="796.240234"/>
     <use xlink:href="#DejaVuSans-7a" x="837.353516"/>
     <use xlink:href="#DejaVuSans-65" x="889.84375"/>
     <use xlink:href="#DejaVuSans-7a" x="951.367188"/>
     <use xlink:href="#DejaVuSans-20" x="1003.857422"/>
     <use xlink:href="#DejaVuSans-15b" x="1035.644531"/>
     <use xlink:href="#DejaVuSans-72" x="1087.744141"/>
     <use xlink:href="#DejaVuSans-65" x="1126.607422"/>
     <use xlink:href="#DejaVuSans-64" x="1188.130859"/>
     <use xlink:href="#DejaVuSans-6e" x="1251.607422"/>
     <use xlink:href="#DejaVuSans-69" x="1314.986328"/>
     <use xlink:href="#DejaVuSans-105" x="1342.769531"/>
     <use xlink:href="#DejaVuSans-20" x="1404.048828"/>
     <use xlink:href="#DejaVuSans-77" x="1435.835938"/>
     <use xlink:href="#DejaVuSans-61" x="1517.623047"/>
     <use xlink:href="#DejaVuSans-72" x="1578.902344"/>
     <use xlink:href="#DejaVuSans-74" x="1620.015625"/>
     <use xlink:href="#DejaVuSans-6f" x="1659.224609"/>
     <use xlink:href="#DejaVuSans-15b" x="1720.40625"/>
     <use xlink:href="#DejaVuSans-107" x="1772.505859"/>
     <use xlink:href="#DejaVuSans-20" x="1827.486328"/>
     <use xlink:href="#DejaVuSans-7a" x="1859.273438"/>
     <use xlink:href="#DejaVuSans-20" x="1911.763672"/>
     <use xlink:href="#DejaVuSans-70" x="1943.550781"/>
     <use xlink:href="#DejaVuSans-72" x="2007.027344"/>
     <use xlink:href="#DejaVuSans-f3" x="2045.890625"/>
     <use xlink:href="#DejaVuSans-62" x="2107.072266"/>
     <use xlink:href="#DejaVuSans-6b" x="2170.548828"/>
     <use xlink:href="#DejaVuSans-69" x="2228.458984"/>
     <use xlink:href="#DejaVuSans-20" x="2256.242188"/>
     <use xlink:href="#DejaVuSans-31" x="2288.029297"/>
     <use xlink:href="#DejaVuSans-20" x="2351.652344"/>
     <use xlink:href="#DejaVuSans-73" x="2383.439453"/>
     <use xlink:href="#DejaVuSans-65" x="2435.539062"/>
     <use xlink:href="#DejaVuSans-6b" x="2497.0625"/>
     <use xlink:href="#DejaVuSans-75" x="2551.847656"/>
     <use xlink:href="#DejaVuSans-6e" x="2615.226562"/>
     <use xlink:href="#DejaVuSans-64" x="2678.605469"/>
     <use xlink:href="#DejaVuSans-61" x="2742.082031"/>
    </g>
   </g>
   <g id="legend_1">
    <g id="patch_7">
     <path d="M 783.928125 105.579375 
L 870.603125 105.579375 
Q 872.603125 105.579375 872.603125 103.579375 
L 872.603125 29.798125 
Q 872.603125 27.798125 870.603125 27.798125 
L 783.928125 27.798125 
Q 781.928125 27.798125 781.928125 29.798125 
L 781.928125 103.579375 
Q 781.928125 105.579375 783.928125 105.579375 
z
" style="fill: #ffffff; opacity: 0.8; stroke: #cccccc; stroke-linejoin: miter"/>
    </g>
    <g id="line2d_21">
     <path d="M 785.928125 35.896563 
L 795.928125 35.896563 
L 805.928125 35.896563 
" style="fill: none; stroke: #ff00ff; stroke-width: 0.9; stroke-linecap: square"/>
    </g>
    <g id="text_19">
     <!-- CH1_0.5KS -->
     <g transform="translate(813.928125 39.396563)scale(0.1 -0.1)">
      <defs>
       <path id="DejaVuSans-43" d="M 4122 4306 
L 4122 3641 
Q 3803 3938 3442 4084 
Q 3081 4231 2675 4231 
Q 1875 4231 1450 3742 
Q 1025 3253 1025 2328 
Q 1025 1406 1450 917 
Q 1875 428 2675 428 
Q 3081 428 3442 575 
Q 3803 722 4122 1019 
L 4122 359 
Q 3791 134 3420 21 
Q 3050 -91 2638 -91 
Q 1578 -91 968 557 
Q 359 1206 359 2328 
Q 359 3453 968 4101 
Q 1578 4750 2638 4750 
Q 3056 4750 3426 4639 
Q 3797 4528 4122 4306 
z
" transform="scale(0.015625)"/>
       <path id="DejaVuSans-48" d="M 628 4666 
L 1259 4666 
L 1259 2753 
L 3553 2753 
L 3553 4666 
L 4184 4666 
L 4184 0 
L 3553 0 
L 3553 2222 
L 1259 2222 
L 1259 0 
L 628 0 
L 628 4666 
z
" transform="scale(0.015625)"/>
       <path id="DejaVuSans-5f" d="M 3263 -1063 
L 3263 -1509 
L -63 -1509 
L -63 -1063 
L 3263 -1063 
z
" transform="scale(0.015625)"/>
       <path id="DejaVuSans-2e" d="M 684 794 
L 1344 794 
L 1344 0 
L 684 0 
L 684 794 
z
" transform="scale(0.015625)"/>
       <path id="DejaVuSans-4b" d="M 628 4666 
L 1259 4666 
L 1259 2694 
L 3353 4666 
L 4166 4666 
L 1850 2491 
L 4331 0 
L 3500 0 
L 1259 2247 
L 1259 0 
L 628 0 
L 628 4666 
z
" transform="scale(0.015625)"/>
       <path id="DejaVuSans-53" d="M 3425 4513 
L 3425 3897 
Q 3066 4069 2747 4153 
Q 2428 4238 2131 4238 
Q 1616 4238 1336 4038 
Q 1056 3838 1056 3469 
Q 1056 3159 1242 3001 
Q 1428 2844 1947 2747 
L 2328 2669 
Q 3034 2534 3370 2195 
Q 3706 1856 3706 1288 
Q 3706 609 3251 259 
Q 2797 -91 1919 -91 
Q 1588 -91 1214 -16 
Q 841 59 441 206 
L 441 856 
Q 825 641 1194 531 
Q 1563 422 1919 422 
Q 2459 422 2753 634 
Q 3047 847 3047 1241 
Q 3047 1584 2836 1778 
Q 2625 1972 2144 2069 
L 1759 2144 
Q 1053 2284 737 2584 
Q 422 2884 422 3419 
Q 422 4038 858 4394 
Q 1294 4750 2059 4750 
Q 2388 4750 2728 4690 
Q 3069 4631 3425 4513 
z
" transform="scale(0.015625)"/>
      </defs>
      <use xlink:href="#DejaVuSans-43"/>
      <use xlink:href="#DejaVuSans-48" x="69.824219"/>
      <use xlink:href="#DejaVuSans-31" x="145.019531"/>
      <use xlink:href="#DejaVuSans-5f" x="208.642578"/>
      <use xlink:href="#DejaVuSans-30" x="258.642578"/>
      <use xlink:href="#DejaVuSans-2e" x="322.265625"/>
      <use xlink:href="#DejaVuSans-35" x="354.052734"/>
      <use xlink:href="#DejaVuSans-4b" x="417.675781"/>
      <use xlink:href="#DejaVuSans-53" x="483.251953"/>
     </g>
    </g>
    <g id="line2d_22">
     <path d="M 785.928125 50.852813 
L 795.928125 50.852813 
L 805.928125 50.852813 
" style="fill: none; stroke: #9400d3; stroke-width: 0.9; stroke-linecap: square"/>
    </g>
    <g id="text_20">
     <!-- CH2_0.5KS -->
     <g transform="translate(813.928125 54.352813)scale(0.1 -0.1)">
      <use xlink:href="#DejaVuSans-43"/>
      <use xlink:href="#DejaVuSans-48" x="69.824219"/>
      <use xlink:href="#DejaVuSans-32" x="145.019531"/>
      <use xlink:href="#DejaVuSans-5f" x="208.642578"/>
      <use xlink:href="#DejaVuSans-30" x="258.642578"/>
      <use xlink:href="#DejaVuSans-2e" x="322.265625"/>
      <use xlink:href="#DejaVuSans-35" x="354.052734"/>
      <use xlink:href="#DejaVuSans-4b" x="417.675781"/>
      <use xlink:href="#DejaVuSans-53" x="483.251953"/>
     </g>
    </g>
    <g id="line2d_23">
     <path d="M 785.928125 65.809063 
L 795.928125 65.809063 
L 805.928125 65.809063 
" style="fill: none; stroke: #00ffff; stroke-width: 0.9; stroke-linecap: square"/>
    </g>
    <g id="text_21">
     <!-- CH3_0.5KS -->
     <g transform="translate(813.928125 69.309063)scale(0.1 -0.1)">
      <use xlink:href="#DejaVuSans-43"/>
      <use xlink:href="#DejaVuSans-48" x="69.824219"/>
      <use xlink:href="#DejaVuSans-33" x="145.019531"/>
      <use xlink:href="#DejaVuSans-5f" x="208.642578"/>
      <use xlink:href="#DejaVuSans-30" x="258.642578"/>
      <use xlink:href="#DejaVuSans-2e" x="322.265625"/>
      <use xlink:href="#DejaVuSans-35" x="354.052734"/>
      <use xlink:href="#DejaVuSans-4b" x="417.675781"/>
      <use xlink:href="#DejaVuSans-53" x="483.251953"/>
     </g>
    </g>
    <g id="line2d_24">
     <path d="M 785.928125 80.765313 
L 795.928125 80.765313 
L 805.928125 80.765313 
" style="fill: none; stroke: #ffa500; stroke-width: 0.9; stroke-linecap: square"/>
    </g>
    <g id="text_22">
     <!-- CH4_0.5KS -->
     <g transform="translate(813.928125 84.265313)scale(0.1 -0.1)">
      <use xlink:href="#DejaVuSans-43"/>
      <use xlink:href="#DejaVuSans-48" x="69.824219"/>
      <use xlink:href="#DejaVuSans-34" x="145.019531"/>
      <use xlink:href="#DejaVuSans-5f" x="208.642578"/>
      <use xlink:href="#DejaVuSans-30" x="258.642578"/>
      <use xlink:href="#DejaVuSans-2e" x="322.265625"/>
      <use xlink:href="#DejaVuSans-35" x="354.052734"/>
      <use xlink:href="#DejaVuSans-4b" x="417.675781"/>
      <use xlink:href="#DejaVuSans-53" x="483.251953"/>
     </g>
    </g>
    <g id="line2d_25">
     <path d="M 785.928125 95.721563 
L 795.928125 95.721563 
L 805.928125 95.721563 
" style="fill: none; stroke: #ff4500; stroke-width: 0.9; stroke-linecap: square"/>
    </g>
    <g id="text_23">
     <!-- CH5_0.5KS -->
     <g transform="translate(813.928125 99.221563)scale(0.1 -0.1)">
      <use xlink:href="#DejaVuSans-43"/>
      <use xlink:href="#DejaVuSans-48" x="69.824219"/>
      <use xlink:href="#DejaVuSans-35" x="145.019531"/>
      <use xlink:href="#DejaVuSans-5f" x="208.642578"/>
      <use xlink:href="#DejaVuSans-30" x="258.642578"/>
      <use xlink:href="#DejaVuSans-2e" x="322.265625"/>
      <use xlink:href="#DejaVuSans-35" x="354.052734"/>
      <use xlink:href="#DejaVuSans-4b" x="417.675781"/>
      <use xlink:href="#DejaVuSans-53" x="483.251953"/>
     </g>
    </g>
   </g>
  </g>
 </g>
 <defs>
  <clipPath id="p0e7d660aad">
   <rect x="40.603125" y="22.798125" width="837" height="271.8"/>
  </clipPath>
 </defs>
</svg>
