<?xml version="1.0" encoding="utf-8" standalone="no"?>
<!DOCTYPE svg PUBLIC "-//W3C//DTD SVG 1.1//EN"
  "http://www.w3.org/Graphics/SVG/1.1/DTD/svg11.dtd">
<svg xmlns:xlink="http://www.w3.org/1999/xlink" width="891.165625pt" height="332.154375pt" viewBox="0 0 891.165625 332.154375" xmlns="http://www.w3.org/2000/svg" version="1.1">
 <metadata>
  <rdf:RDF xmlns:dc="http://purl.org/dc/elements/1.1/" xmlns:cc="http://creativecommons.org/ns#" xmlns:rdf="http://www.w3.org/1999/02/22-rdf-syntax-ns#">
   <cc:Work>
    <dc:type rdf:resource="http://purl.org/dc/dcmitype/StillImage"/>
    <dc:date>2022-06-21T21:13:42.939945</dc:date>
    <dc:format>image/svg+xml</dc:format>
    <dc:creator>
     <cc:Agent>
      <dc:title>Matplotlib v3.5.2, https://matplotlib.org/</dc:title>
     </cc:Agent>
    </dc:creator>
   </cc:Work>
  </rdf:RDF>
 </metadata>
 <defs>
  <style type="text/css">*{stroke-linejoin: round; stroke-linecap: butt}</style>
 </defs>
 <g id="figure_1">
  <g id="patch_1">
   <path d="M 0 332.154375 
L 891.165625 332.154375 
L 891.165625 0 
L 0 0 
L 0 332.154375 
z
" style="fill: none"/>
  </g>
  <g id="axes_1">
   <g id="patch_2">
    <path d="M 46.965625 294.598125 
L 883.965625 294.598125 
L 883.965625 22.798125 
L 46.965625 22.798125 
z
" style="fill: #ffffff"/>
   </g>
   <g id="matplotlib.axis_1">
    <g id="xtick_1">
     <g id="line2d_1">
      <defs>
       <path id="ma30f18a833" d="M 0 0 
L 0 3.5 
" style="stroke: #000000; stroke-width: 0.8"/>
      </defs>
      <g>
       <use xlink:href="#ma30f18a833" x="85.01108" y="294.598125" style="stroke: #000000; stroke-width: 0.8"/>
      </g>
     </g>
     <g id="text_1">
      <!-- 0 -->
      <g transform="translate(81.82983 309.196562)scale(0.1 -0.1)">
       <defs>
        <path id="DejaVuSans-30" d="M 2034 4250 
Q 1547 4250 1301 3770 
Q 1056 3291 1056 2328 
Q 1056 1369 1301 889 
Q 1547 409 2034 409 
Q 2525 409 2770 889 
Q 3016 1369 3016 2328 
Q 3016 3291 2770 3770 
Q 2525 4250 2034 4250 
z
M 2034 4750 
Q 2819 4750 3233 4129 
Q 3647 3509 3647 2328 
Q 3647 1150 3233 529 
Q 2819 -91 2034 -91 
Q 1250 -91 836 529 
Q 422 1150 422 2328 
Q 422 3509 836 4129 
Q 1250 4750 2034 4750 
z
" transform="scale(0.015625)"/>
       </defs>
       <use xlink:href="#DejaVuSans-30"/>
      </g>
     </g>
    </g>
    <g id="xtick_2">
     <g id="line2d_2">
      <g>
       <use xlink:href="#ma30f18a833" x="212.253402" y="294.598125" style="stroke: #000000; stroke-width: 0.8"/>
      </g>
     </g>
     <g id="text_2">
      <!-- 50 -->
      <g transform="translate(205.890902 309.196562)scale(0.1 -0.1)">
       <defs>
        <path id="DejaVuSans-35" d="M 691 4666 
L 3169 4666 
L 3169 4134 
L 1269 4134 
L 1269 2991 
Q 1406 3038 1543 3061 
Q 1681 3084 1819 3084 
Q 2600 3084 3056 2656 
Q 3513 2228 3513 1497 
Q 3513 744 3044 326 
Q 2575 -91 1722 -91 
Q 1428 -91 1123 -41 
Q 819 9 494 109 
L 494 744 
Q 775 591 1075 516 
Q 1375 441 1709 441 
Q 2250 441 2565 725 
Q 2881 1009 2881 1497 
Q 2881 1984 2565 2268 
Q 2250 2553 1709 2553 
Q 1456 2553 1204 2497 
Q 953 2441 691 2322 
L 691 4666 
z
" transform="scale(0.015625)"/>
       </defs>
       <use xlink:href="#DejaVuSans-35"/>
       <use xlink:href="#DejaVuSans-30" x="63.623047"/>
      </g>
     </g>
    </g>
    <g id="xtick_3">
     <g id="line2d_3">
      <g>
       <use xlink:href="#ma30f18a833" x="339.495725" y="294.598125" style="stroke: #000000; stroke-width: 0.8"/>
      </g>
     </g>
     <g id="text_3">
      <!-- 100 -->
      <g transform="translate(329.951975 309.196562)scale(0.1 -0.1)">
       <defs>
        <path id="DejaVuSans-31" d="M 794 531 
L 1825 531 
L 1825 4091 
L 703 3866 
L 703 4441 
L 1819 4666 
L 2450 4666 
L 2450 531 
L 3481 531 
L 3481 0 
L 794 0 
L 794 531 
z
" transform="scale(0.015625)"/>
       </defs>
       <use xlink:href="#DejaVuSans-31"/>
       <use xlink:href="#DejaVuSans-30" x="63.623047"/>
       <use xlink:href="#DejaVuSans-30" x="127.246094"/>
      </g>
     </g>
    </g>
    <g id="xtick_4">
     <g id="line2d_4">
      <g>
       <use xlink:href="#ma30f18a833" x="466.738048" y="294.598125" style="stroke: #000000; stroke-width: 0.8"/>
      </g>
     </g>
     <g id="text_4">
      <!-- 150 -->
      <g transform="translate(457.194298 309.196562)scale(0.1 -0.1)">
       <use xlink:href="#DejaVuSans-31"/>
       <use xlink:href="#DejaVuSans-35" x="63.623047"/>
       <use xlink:href="#DejaVuSans-30" x="127.246094"/>
      </g>
     </g>
    </g>
    <g id="xtick_5">
     <g id="line2d_5">
      <g>
       <use xlink:href="#ma30f18a833" x="593.980371" y="294.598125" style="stroke: #000000; stroke-width: 0.8"/>
      </g>
     </g>
     <g id="text_5">
      <!-- 200 -->
      <g transform="translate(584.436621 309.196562)scale(0.1 -0.1)">
       <defs>
        <path id="DejaVuSans-32" d="M 1228 531 
L 3431 531 
L 3431 0 
L 469 0 
L 469 531 
Q 828 903 1448 1529 
Q 2069 2156 2228 2338 
Q 2531 2678 2651 2914 
Q 2772 3150 2772 3378 
Q 2772 3750 2511 3984 
Q 2250 4219 1831 4219 
Q 1534 4219 1204 4116 
Q 875 4013 500 3803 
L 500 4441 
Q 881 4594 1212 4672 
Q 1544 4750 1819 4750 
Q 2544 4750 2975 4387 
Q 3406 4025 3406 3419 
Q 3406 3131 3298 2873 
Q 3191 2616 2906 2266 
Q 2828 2175 2409 1742 
Q 1991 1309 1228 531 
z
" transform="scale(0.015625)"/>
       </defs>
       <use xlink:href="#DejaVuSans-32"/>
       <use xlink:href="#DejaVuSans-30" x="63.623047"/>
       <use xlink:href="#DejaVuSans-30" x="127.246094"/>
      </g>
     </g>
    </g>
    <g id="xtick_6">
     <g id="line2d_6">
      <g>
       <use xlink:href="#ma30f18a833" x="721.222694" y="294.598125" style="stroke: #000000; stroke-width: 0.8"/>
      </g>
     </g>
     <g id="text_6">
      <!-- 250 -->
      <g transform="translate(711.678944 309.196562)scale(0.1 -0.1)">
       <use xlink:href="#DejaVuSans-32"/>
       <use xlink:href="#DejaVuSans-35" x="63.623047"/>
       <use xlink:href="#DejaVuSans-30" x="127.246094"/>
      </g>
     </g>
    </g>
    <g id="xtick_7">
     <g id="line2d_7">
      <g>
       <use xlink:href="#ma30f18a833" x="848.465017" y="294.598125" style="stroke: #000000; stroke-width: 0.8"/>
      </g>
     </g>
     <g id="text_7">
      <!-- 300 -->
      <g transform="translate(838.921267 309.196562)scale(0.1 -0.1)">
       <defs>
        <path id="DejaVuSans-33" d="M 2597 2516 
Q 3050 2419 3304 2112 
Q 3559 1806 3559 1356 
Q 3559 666 3084 287 
Q 2609 -91 1734 -91 
Q 1441 -91 1130 -33 
Q 819 25 488 141 
L 488 750 
Q 750 597 1062 519 
Q 1375 441 1716 441 
Q 2309 441 2620 675 
Q 2931 909 2931 1356 
Q 2931 1769 2642 2001 
Q 2353 2234 1838 2234 
L 1294 2234 
L 1294 2753 
L 1863 2753 
Q 2328 2753 2575 2939 
Q 2822 3125 2822 3475 
Q 2822 3834 2567 4026 
Q 2313 4219 1838 4219 
Q 1578 4219 1281 4162 
Q 984 4106 628 3988 
L 628 4550 
Q 988 4650 1302 4700 
Q 1616 4750 1894 4750 
Q 2613 4750 3031 4423 
Q 3450 4097 3450 3541 
Q 3450 3153 3228 2886 
Q 3006 2619 2597 2516 
z
" transform="scale(0.015625)"/>
       </defs>
       <use xlink:href="#DejaVuSans-33"/>
       <use xlink:href="#DejaVuSans-30" x="63.623047"/>
       <use xlink:href="#DejaVuSans-30" x="127.246094"/>
      </g>
     </g>
    </g>
    <g id="text_8">
     <!-- Próbka -->
     <g transform="translate(448.489844 322.874687)scale(0.1 -0.1)">
      <defs>
       <path id="DejaVuSans-50" d="M 1259 4147 
L 1259 2394 
L 2053 2394 
Q 2494 2394 2734 2622 
Q 2975 2850 2975 3272 
Q 2975 3691 2734 3919 
Q 2494 4147 2053 4147 
L 1259 4147 
z
M 628 4666 
L 2053 4666 
Q 2838 4666 3239 4311 
Q 3641 3956 3641 3272 
Q 3641 2581 3239 2228 
Q 2838 1875 2053 1875 
L 1259 1875 
L 1259 0 
L 628 0 
L 628 4666 
z
" transform="scale(0.015625)"/>
       <path id="DejaVuSans-72" d="M 2631 2963 
Q 2534 3019 2420 3045 
Q 2306 3072 2169 3072 
Q 1681 3072 1420 2755 
Q 1159 2438 1159 1844 
L 1159 0 
L 581 0 
L 581 3500 
L 1159 3500 
L 1159 2956 
Q 1341 3275 1631 3429 
Q 1922 3584 2338 3584 
Q 2397 3584 2469 3576 
Q 2541 3569 2628 3553 
L 2631 2963 
z
" transform="scale(0.015625)"/>
       <path id="DejaVuSans-f3" d="M 1959 3097 
Q 1497 3097 1228 2736 
Q 959 2375 959 1747 
Q 959 1119 1226 758 
Q 1494 397 1959 397 
Q 2419 397 2687 759 
Q 2956 1122 2956 1747 
Q 2956 2369 2687 2733 
Q 2419 3097 1959 3097 
z
M 1959 3584 
Q 2709 3584 3137 3096 
Q 3566 2609 3566 1747 
Q 3566 888 3137 398 
Q 2709 -91 1959 -91 
Q 1206 -91 779 398 
Q 353 888 353 1747 
Q 353 2609 779 3096 
Q 1206 3584 1959 3584 
z
M 2394 5119 
L 3016 5119 
L 1998 3944 
L 1519 3944 
L 2394 5119 
z
" transform="scale(0.015625)"/>
       <path id="DejaVuSans-62" d="M 3116 1747 
Q 3116 2381 2855 2742 
Q 2594 3103 2138 3103 
Q 1681 3103 1420 2742 
Q 1159 2381 1159 1747 
Q 1159 1113 1420 752 
Q 1681 391 2138 391 
Q 2594 391 2855 752 
Q 3116 1113 3116 1747 
z
M 1159 2969 
Q 1341 3281 1617 3432 
Q 1894 3584 2278 3584 
Q 2916 3584 3314 3078 
Q 3713 2572 3713 1747 
Q 3713 922 3314 415 
Q 2916 -91 2278 -91 
Q 1894 -91 1617 61 
Q 1341 213 1159 525 
L 1159 0 
L 581 0 
L 581 4863 
L 1159 4863 
L 1159 2969 
z
" transform="scale(0.015625)"/>
       <path id="DejaVuSans-6b" d="M 581 4863 
L 1159 4863 
L 1159 1991 
L 2875 3500 
L 3609 3500 
L 1753 1863 
L 3688 0 
L 2938 0 
L 1159 1709 
L 1159 0 
L 581 0 
L 581 4863 
z
" transform="scale(0.015625)"/>
       <path id="DejaVuSans-61" d="M 2194 1759 
Q 1497 1759 1228 1600 
Q 959 1441 959 1056 
Q 959 750 1161 570 
Q 1363 391 1709 391 
Q 2188 391 2477 730 
Q 2766 1069 2766 1631 
L 2766 1759 
L 2194 1759 
z
M 3341 1997 
L 3341 0 
L 2766 0 
L 2766 531 
Q 2569 213 2275 61 
Q 1981 -91 1556 -91 
Q 1019 -91 701 211 
Q 384 513 384 1019 
Q 384 1609 779 1909 
Q 1175 2209 1959 2209 
L 2766 2209 
L 2766 2266 
Q 2766 2663 2505 2880 
Q 2244 3097 1772 3097 
Q 1472 3097 1187 3025 
Q 903 2953 641 2809 
L 641 3341 
Q 956 3463 1253 3523 
Q 1550 3584 1831 3584 
Q 2591 3584 2966 3190 
Q 3341 2797 3341 1997 
z
" transform="scale(0.015625)"/>
      </defs>
      <use xlink:href="#DejaVuSans-50"/>
      <use xlink:href="#DejaVuSans-72" x="58.552734"/>
      <use xlink:href="#DejaVuSans-f3" x="97.416016"/>
      <use xlink:href="#DejaVuSans-62" x="158.597656"/>
      <use xlink:href="#DejaVuSans-6b" x="222.074219"/>
      <use xlink:href="#DejaVuSans-61" x="278.234375"/>
     </g>
    </g>
   </g>
   <g id="matplotlib.axis_2">
    <g id="ytick_1">
     <g id="line2d_8">
      <defs>
       <path id="m4c095e390a" d="M 0 0 
L -3.5 0 
" style="stroke: #000000; stroke-width: 0.8"/>
      </defs>
      <g>
       <use xlink:href="#m4c095e390a" x="46.965625" y="284.469624" style="stroke: #000000; stroke-width: 0.8"/>
      </g>
     </g>
     <g id="text_9">
      <!-- 0 -->
      <g transform="translate(33.603125 288.268843)scale(0.1 -0.1)">
       <use xlink:href="#DejaVuSans-30"/>
      </g>
     </g>
    </g>
    <g id="ytick_2">
     <g id="line2d_9">
      <g>
       <use xlink:href="#m4c095e390a" x="46.965625" y="228.818518" style="stroke: #000000; stroke-width: 0.8"/>
      </g>
     </g>
     <g id="text_10">
      <!-- 50 -->
      <g transform="translate(27.240625 232.617737)scale(0.1 -0.1)">
       <use xlink:href="#DejaVuSans-35"/>
       <use xlink:href="#DejaVuSans-30" x="63.623047"/>
      </g>
     </g>
    </g>
    <g id="ytick_3">
     <g id="line2d_10">
      <g>
       <use xlink:href="#m4c095e390a" x="46.965625" y="173.167412" style="stroke: #000000; stroke-width: 0.8"/>
      </g>
     </g>
     <g id="text_11">
      <!-- 100 -->
      <g transform="translate(20.878125 176.966631)scale(0.1 -0.1)">
       <use xlink:href="#DejaVuSans-31"/>
       <use xlink:href="#DejaVuSans-30" x="63.623047"/>
       <use xlink:href="#DejaVuSans-30" x="127.246094"/>
      </g>
     </g>
    </g>
    <g id="ytick_4">
     <g id="line2d_11">
      <g>
       <use xlink:href="#m4c095e390a" x="46.965625" y="117.516307" style="stroke: #000000; stroke-width: 0.8"/>
      </g>
     </g>
     <g id="text_12">
      <!-- 150 -->
      <g transform="translate(20.878125 121.315526)scale(0.1 -0.1)">
       <use xlink:href="#DejaVuSans-31"/>
       <use xlink:href="#DejaVuSans-35" x="63.623047"/>
       <use xlink:href="#DejaVuSans-30" x="127.246094"/>
      </g>
     </g>
    </g>
    <g id="ytick_5">
     <g id="line2d_12">
      <g>
       <use xlink:href="#m4c095e390a" x="46.965625" y="61.865201" style="stroke: #000000; stroke-width: 0.8"/>
      </g>
     </g>
     <g id="text_13">
      <!-- 200 -->
      <g transform="translate(20.878125 65.66442)scale(0.1 -0.1)">
       <use xlink:href="#DejaVuSans-32"/>
       <use xlink:href="#DejaVuSans-30" x="63.623047"/>
       <use xlink:href="#DejaVuSans-30" x="127.246094"/>
      </g>
     </g>
    </g>
    <g id="text_14">
     <!-- Wartość -->
     <g transform="translate(14.798438 178.816094)rotate(-90)scale(0.1 -0.1)">
      <defs>
       <path id="DejaVuSans-57" d="M 213 4666 
L 850 4666 
L 1831 722 
L 2809 4666 
L 3519 4666 
L 4500 722 
L 5478 4666 
L 6119 4666 
L 4947 0 
L 4153 0 
L 3169 4050 
L 2175 0 
L 1381 0 
L 213 4666 
z
" transform="scale(0.015625)"/>
       <path id="DejaVuSans-74" d="M 1172 4494 
L 1172 3500 
L 2356 3500 
L 2356 3053 
L 1172 3053 
L 1172 1153 
Q 1172 725 1289 603 
Q 1406 481 1766 481 
L 2356 481 
L 2356 0 
L 1766 0 
Q 1100 0 847 248 
Q 594 497 594 1153 
L 594 3053 
L 172 3053 
L 172 3500 
L 594 3500 
L 594 4494 
L 1172 4494 
z
" transform="scale(0.015625)"/>
       <path id="DejaVuSans-6f" d="M 1959 3097 
Q 1497 3097 1228 2736 
Q 959 2375 959 1747 
Q 959 1119 1226 758 
Q 1494 397 1959 397 
Q 2419 397 2687 759 
Q 2956 1122 2956 1747 
Q 2956 2369 2687 2733 
Q 2419 3097 1959 3097 
z
M 1959 3584 
Q 2709 3584 3137 3096 
Q 3566 2609 3566 1747 
Q 3566 888 3137 398 
Q 2709 -91 1959 -91 
Q 1206 -91 779 398 
Q 353 888 353 1747 
Q 353 2609 779 3096 
Q 1206 3584 1959 3584 
z
" transform="scale(0.015625)"/>
       <path id="DejaVuSans-15b" d="M 2242 5119 
L 2864 5119 
L 1846 3944 
L 1367 3944 
L 2242 5119 
z
M 2834 3397 
L 2834 2853 
Q 2591 2978 2328 3040 
Q 2066 3103 1784 3103 
Q 1356 3103 1142 2972 
Q 928 2841 928 2578 
Q 928 2378 1081 2264 
Q 1234 2150 1697 2047 
L 1894 2003 
Q 2506 1872 2764 1633 
Q 3022 1394 3022 966 
Q 3022 478 2636 193 
Q 2250 -91 1575 -91 
Q 1294 -91 989 -36 
Q 684 19 347 128 
L 347 722 
Q 666 556 975 473 
Q 1284 391 1588 391 
Q 1994 391 2212 530 
Q 2431 669 2431 922 
Q 2431 1156 2273 1281 
Q 2116 1406 1581 1522 
L 1381 1569 
Q 847 1681 609 1914 
Q 372 2147 372 2553 
Q 372 3047 722 3315 
Q 1072 3584 1716 3584 
Q 2034 3584 2315 3537 
Q 2597 3491 2834 3397 
z
" transform="scale(0.015625)"/>
       <path id="DejaVuSans-107" d="M 3122 3366 
L 3122 2828 
Q 2878 2963 2633 3030 
Q 2388 3097 2138 3097 
Q 1578 3097 1268 2742 
Q 959 2388 959 1747 
Q 959 1106 1268 751 
Q 1578 397 2138 397 
Q 2388 397 2633 464 
Q 2878 531 3122 666 
L 3122 134 
Q 2881 22 2623 -34 
Q 2366 -91 2075 -91 
Q 1284 -91 818 406 
Q 353 903 353 1747 
Q 353 2603 823 3093 
Q 1294 3584 2113 3584 
Q 2378 3584 2631 3529 
Q 2884 3475 3122 3366 
z
M 2466 5119 
L 3088 5119 
L 2070 3944 
L 1591 3944 
L 2466 5119 
z
" transform="scale(0.015625)"/>
      </defs>
      <use xlink:href="#DejaVuSans-57"/>
      <use xlink:href="#DejaVuSans-61" x="92.501953"/>
      <use xlink:href="#DejaVuSans-72" x="153.78125"/>
      <use xlink:href="#DejaVuSans-74" x="194.894531"/>
      <use xlink:href="#DejaVuSans-6f" x="234.103516"/>
      <use xlink:href="#DejaVuSans-15b" x="295.285156"/>
      <use xlink:href="#DejaVuSans-107" x="347.384766"/>
     </g>
    </g>
   </g>
   <g id="line2d_13">
    <path d="M 85.01108 168.715324 
L 87.555926 93.02982 
L 90.100772 146.454882 
L 92.645619 111.951196 
L 95.190465 184.297634 
L 97.735312 177.619501 
L 100.280158 206.558076 
L 102.825005 148.680926 
L 105.369851 160.924169 
L 107.914698 93.02982 
L 110.459544 195.427855 
L 113.004391 182.071589 
L 115.549237 106.386086 
L 118.094083 150.90697 
L 120.63893 79.673555 
L 123.183776 175.393457 
L 125.728623 195.427855 
L 128.273469 115.290263 
L 130.818316 206.558076 
L 133.363162 159.811147 
L 135.908009 135.324661 
L 138.452855 169.828346 
L 140.997702 119.742351 
L 143.542548 190.975766 
L 146.087395 152.019992 
L 148.632241 233.270607 
L 151.177087 222.140385 
L 153.721934 188.749722 
L 156.26678 133.098616 
L 158.811627 159.811147 
L 161.356473 133.098616 
L 163.90132 179.845545 
L 166.446166 142.002793 
L 168.991013 170.941368 
L 171.535859 135.324661 
L 174.080706 177.619501 
L 176.625552 228.818518 
L 179.170398 217.688297 
L 181.715245 156.472081 
L 184.260091 177.619501 
L 186.804938 182.071589 
L 189.349784 166.48928 
L 194.439477 193.201811 
L 196.984324 159.811147 
L 199.52917 222.140385 
L 202.074017 128.646528 
L 204.618863 206.558076 
L 207.16371 228.818518 
L 209.708556 208.78412 
L 212.253402 237.722695 
L 214.798249 202.105987 
L 217.343095 211.010164 
L 219.887942 90.803776 
L 222.432788 186.523678 
L 224.977635 204.332032 
L 227.522481 166.48928 
L 232.612174 206.558076 
L 235.157021 211.010164 
L 237.701867 139.776749 
L 240.246713 215.462253 
L 242.79156 217.688297 
L 245.336406 193.201811 
L 247.881253 222.140385 
L 250.426099 130.872572 
L 252.970946 113.064218 
L 255.515792 199.879943 
L 258.060639 155.359059 
L 260.605485 144.228838 
L 263.150332 150.90697 
L 265.695178 188.749722 
L 268.240025 197.653899 
L 273.329717 170.941368 
L 275.874564 259.983137 
L 278.41941 211.010164 
L 280.964257 186.523678 
L 283.509103 142.002793 
L 286.05395 124.194439 
L 288.598796 135.324661 
L 291.143643 135.324661 
L 293.688489 126.420484 
L 296.233336 111.951196 
L 298.778182 124.194439 
L 301.323028 35.15267 
L 303.867875 77.447511 
L 306.412721 90.803776 
L 308.957568 139.776749 
L 311.502414 233.270607 
L 314.047261 146.454882 
L 316.592107 135.324661 
L 319.136954 108.61213 
L 321.6818 169.828346 
L 324.226647 163.150213 
L 326.771493 101.933997 
L 329.31634 44.056847 
L 331.861186 148.680926 
L 334.406032 72.995422 
L 336.950879 115.290263 
L 339.495725 168.715324 
L 342.040572 162.037191 
L 344.585418 115.290263 
L 347.130265 104.160041 
L 349.675111 188.749722 
L 352.219958 101.933997 
L 354.764804 157.585103 
L 357.309651 106.386086 
L 359.854497 128.646528 
L 362.399343 168.715324 
L 364.94419 130.872572 
L 367.489036 106.386086 
L 370.033883 235.496651 
L 372.578729 105.273064 
L 375.123576 222.140385 
L 377.668422 182.071589 
L 380.213269 68.543334 
L 382.758115 193.201811 
L 385.302962 135.324661 
L 387.847808 222.140385 
L 390.392654 108.61213 
L 392.937501 99.707953 
L 395.482347 144.228838 
L 398.027194 177.619501 
L 400.57204 81.899599 
L 403.116887 106.386086 
L 405.661733 90.803776 
L 408.20658 166.48928 
L 410.751426 108.61213 
L 413.296273 159.811147 
L 415.841119 164.263236 
L 418.385966 159.811147 
L 420.930812 117.516307 
L 423.475658 190.975766 
L 426.020505 173.167412 
L 428.565351 185.410656 
L 431.110198 58.526135 
L 433.655044 124.194439 
L 436.199891 48.508936 
L 438.744737 150.90697 
L 441.289584 182.071589 
L 443.83443 95.255865 
L 446.379277 137.550705 
L 448.924123 182.071589 
L 451.468969 113.064218 
L 454.013816 144.228838 
L 456.558662 177.619501 
L 459.103509 186.523678 
L 461.648355 168.715324 
L 464.193202 186.523678 
L 466.738048 186.523678 
L 469.282895 173.167412 
L 471.827741 101.933997 
L 474.372588 130.872572 
L 476.917434 162.037191 
L 479.462281 186.523678 
L 482.007127 88.577732 
L 484.551973 170.941368 
L 487.09682 173.167412 
L 489.641666 195.427855 
L 492.186513 213.236209 
L 494.731359 235.496651 
L 497.276206 168.715324 
L 499.821052 184.297634 
L 502.365899 159.811147 
L 504.910745 172.05439 
L 507.455592 211.010164 
L 510.000438 184.297634 
L 512.545284 166.48928 
L 517.634977 108.61213 
L 520.179824 188.749722 
L 522.72467 145.34186 
L 525.269517 223.253408 
L 527.814363 206.558076 
L 530.35921 155.359059 
L 532.904056 190.975766 
L 535.448903 219.914341 
L 537.993749 168.715324 
L 540.538596 186.523678 
L 543.083442 146.454882 
L 545.628288 175.393457 
L 548.173135 81.899599 
L 550.717981 211.010164 
L 553.262828 177.619501 
L 555.807674 139.776749 
L 558.352521 170.941368 
L 560.897367 124.194439 
L 563.442214 226.592474 
L 568.531907 182.071589 
L 571.076753 90.803776 
L 573.621599 173.167412 
L 576.166446 190.975766 
L 578.711292 164.263236 
L 581.256139 219.914341 
L 583.800985 148.680926 
L 586.345832 193.201811 
L 588.890678 231.044562 
L 591.435525 188.749722 
L 593.980371 215.462253 
L 596.525218 257.757093 
L 599.070064 177.619501 
L 601.61491 213.236209 
L 604.159757 179.845545 
L 606.704603 166.48928 
L 609.24945 158.698125 
L 611.794296 242.174783 
L 614.339143 217.688297 
L 616.883989 248.852916 
L 619.428836 179.845545 
L 621.973682 211.010164 
L 624.518529 182.071589 
L 627.063375 215.462253 
L 629.608222 198.766921 
L 632.153068 195.427855 
L 634.697914 175.393457 
L 637.242761 179.845545 
L 639.787607 168.715324 
L 642.332454 170.941368 
L 644.8773 182.071589 
L 647.422147 133.098616 
L 649.966993 137.550705 
L 652.51184 188.749722 
L 655.056686 199.879943 
L 657.601533 195.427855 
L 660.146379 137.550705 
L 662.691225 206.558076 
L 665.236072 222.140385 
L 667.780918 238.835717 
L 670.325765 146.454882 
L 672.870611 219.914341 
L 675.415458 173.167412 
L 677.960304 164.263236 
L 680.505151 148.680926 
L 683.049997 186.523678 
L 685.594844 235.496651 
L 688.13969 182.071589 
L 690.684537 184.297634 
L 693.229383 219.914341 
L 695.774229 222.140385 
L 698.319076 219.914341 
L 700.863922 164.263236 
L 703.408769 164.263236 
L 705.953615 168.715324 
L 708.498462 251.07896 
L 711.043308 128.646528 
L 713.588155 179.845545 
L 716.133001 188.749722 
L 718.677848 159.811147 
L 721.222694 179.845545 
L 723.76754 208.78412 
L 726.312387 177.619501 
L 728.857233 50.73498 
L 731.40208 199.879943 
L 733.946926 219.914341 
L 736.491773 188.749722 
L 739.036619 190.975766 
L 741.581466 75.221467 
L 744.126312 168.715324 
L 746.671159 159.811147 
L 749.216005 231.044562 
L 751.760852 215.462253 
L 754.305698 106.386086 
L 756.850544 115.290263 
L 759.395391 106.386086 
L 761.940237 197.653899 
L 764.485084 190.975766 
L 767.02993 208.78412 
L 769.574777 184.297634 
L 772.119623 184.297634 
L 774.66447 213.236209 
L 777.209316 169.828346 
L 779.754163 187.6367 
L 782.299009 148.680926 
L 784.843855 169.828346 
L 787.388702 142.002793 
L 789.933548 188.749722 
L 792.478395 268.887314 
L 795.023241 177.619501 
L 797.568088 142.002793 
L 800.112934 153.133014 
L 802.657781 182.071589 
L 805.202627 175.393457 
L 807.747474 166.48928 
L 810.29232 217.688297 
L 812.837167 208.78412 
L 815.382013 177.619501 
L 817.926859 197.653899 
L 820.471706 153.133014 
L 823.016552 237.722695 
L 825.561399 142.002793 
L 830.651092 155.359059 
L 833.195938 202.105987 
L 835.740785 148.680926 
L 838.285631 108.61213 
L 840.830478 168.715324 
L 843.375324 173.167412 
L 845.92017 135.324661 
L 845.92017 135.324661 
" clip-path="url(#p1039aa94d2)" style="fill: none; stroke: #ff00ff; stroke-width: 0.9; stroke-linecap: square"/>
   </g>
   <g id="line2d_14">
    <path d="M 85.01108 248.852916 
L 87.555926 233.270607 
L 92.645619 233.270607 
L 95.190465 226.592474 
L 97.735312 246.626872 
L 100.280158 215.462253 
L 102.825005 251.07896 
L 105.369851 233.270607 
L 107.914698 190.975766 
L 110.459544 255.531049 
L 113.004391 242.174783 
L 115.549237 226.592474 
L 118.094083 186.523678 
L 120.63893 251.07896 
L 123.183776 244.400828 
L 125.728623 255.531049 
L 128.273469 251.07896 
L 130.818316 275.565447 
L 133.363162 237.722695 
L 135.908009 237.722695 
L 143.542548 231.044562 
L 146.087395 238.835717 
L 148.632241 271.113358 
L 151.177087 237.722695 
L 153.721934 251.07896 
L 156.26678 224.36643 
L 158.811627 233.270607 
L 161.356473 257.757093 
L 163.90132 246.626872 
L 166.446166 217.688297 
L 168.991013 233.270607 
L 171.535859 229.93154 
L 174.080706 266.66127 
L 176.625552 271.113358 
L 179.170398 246.626872 
L 181.715245 237.722695 
L 184.260091 253.305005 
L 186.804938 251.07896 
L 189.349784 237.722695 
L 191.894631 255.531049 
L 194.439477 246.626872 
L 196.984324 233.270607 
L 199.52917 264.435226 
L 202.074017 222.140385 
L 204.618863 237.722695 
L 207.16371 266.66127 
L 209.708556 273.339403 
L 212.253402 242.174783 
L 214.798249 268.887314 
L 217.343095 248.852916 
L 219.887942 242.174783 
L 222.432788 213.236209 
L 224.977635 268.887314 
L 227.522481 228.818518 
L 230.067328 264.435226 
L 232.612174 248.852916 
L 235.157021 268.887314 
L 237.701867 233.270607 
L 240.246713 271.113358 
L 242.79156 264.435226 
L 245.336406 273.339403 
L 247.881253 273.339403 
L 250.426099 231.044562 
L 252.970946 251.07896 
L 255.515792 246.626872 
L 258.060639 233.270607 
L 260.605485 262.209182 
L 263.150332 251.07896 
L 265.695178 246.626872 
L 268.240025 253.305005 
L 270.784871 242.174783 
L 273.329717 246.626872 
L 275.874564 262.209182 
L 278.41941 264.435226 
L 280.964257 262.209182 
L 283.509103 275.565447 
L 286.05395 226.592474 
L 288.598796 242.174783 
L 291.143643 228.818518 
L 293.688489 266.66127 
L 296.233336 246.626872 
L 298.778182 237.722695 
L 301.323028 182.071589 
L 303.867875 213.236209 
L 306.412721 233.270607 
L 308.957568 212.123186 
L 311.502414 264.435226 
L 314.047261 248.852916 
L 316.592107 235.496651 
L 319.136954 244.400828 
L 321.6818 224.36643 
L 324.226647 208.78412 
L 326.771493 233.270607 
L 329.31634 197.653899 
L 331.861186 226.592474 
L 334.406032 224.36643 
L 336.950879 206.558076 
L 339.495725 268.887314 
L 342.040572 233.270607 
L 344.585418 224.36643 
L 347.130265 222.140385 
L 349.675111 277.791491 
L 352.219958 231.044562 
L 354.764804 226.592474 
L 357.309651 215.462253 
L 359.854497 248.852916 
L 362.399343 275.565447 
L 364.94419 257.757093 
L 367.489036 237.722695 
L 370.033883 271.113358 
L 372.578729 206.558076 
L 375.123576 257.757093 
L 377.668422 237.722695 
L 380.213269 226.592474 
L 382.758115 246.626872 
L 385.302962 244.400828 
L 387.847808 262.209182 
L 390.392654 226.592474 
L 392.937501 197.653899 
L 395.482347 246.626872 
L 398.027194 264.435226 
L 400.57204 190.975766 
L 403.116887 251.07896 
L 405.661733 204.332032 
L 408.20658 243.287806 
L 410.751426 251.07896 
L 413.296273 251.07896 
L 415.841119 235.496651 
L 418.385966 253.305005 
L 420.930812 224.36643 
L 423.475658 264.435226 
L 426.020505 271.113358 
L 428.565351 231.044562 
L 433.655044 248.852916 
L 436.199891 222.140385 
L 438.744737 231.044562 
L 441.289584 246.626872 
L 443.83443 257.757093 
L 446.379277 237.722695 
L 448.924123 262.209182 
L 451.468969 239.948739 
L 454.013816 257.757093 
L 459.103509 231.044562 
L 461.648355 233.270607 
L 464.193202 255.531049 
L 466.738048 246.626872 
L 469.282895 271.113358 
L 471.827741 239.948739 
L 474.372588 233.270607 
L 476.917434 246.626872 
L 479.462281 246.626872 
L 482.007127 221.027363 
L 484.551973 239.948739 
L 487.09682 233.270607 
L 489.641666 259.983137 
L 492.186513 242.174783 
L 494.731359 262.209182 
L 497.276206 233.270607 
L 499.821052 266.66127 
L 502.365899 236.609673 
L 504.910745 233.270607 
L 507.455592 257.757093 
L 510.000438 246.626872 
L 512.545284 267.774292 
L 515.090131 257.757093 
L 517.634977 219.914341 
L 520.179824 233.270607 
L 522.72467 219.914341 
L 525.269517 264.435226 
L 527.814363 239.948739 
L 530.35921 251.07896 
L 532.904056 246.626872 
L 535.448903 259.983137 
L 537.993749 237.722695 
L 540.538596 255.531049 
L 543.083442 215.462253 
L 545.628288 259.983137 
L 548.173135 253.305005 
L 550.717981 271.113358 
L 553.262828 268.887314 
L 555.807674 228.818518 
L 558.352521 253.305005 
L 560.897367 251.07896 
L 563.442214 259.983137 
L 565.98706 259.983137 
L 568.531907 228.818518 
L 571.076753 233.270607 
L 573.621599 235.496651 
L 576.166446 239.948739 
L 578.711292 235.496651 
L 581.256139 242.174783 
L 583.800985 231.044562 
L 586.345832 246.626872 
L 588.890678 266.66127 
L 591.435525 259.983137 
L 593.980371 257.757093 
L 596.525218 268.887314 
L 601.61491 237.722695 
L 604.159757 266.66127 
L 606.704603 253.305005 
L 609.24945 219.914341 
L 611.794296 259.983137 
L 614.339143 273.339403 
L 616.883989 253.305005 
L 619.428836 242.174783 
L 624.518529 246.626872 
L 627.063375 277.791491 
L 629.608222 251.07896 
L 632.153068 255.531049 
L 634.697914 244.400828 
L 637.242761 242.174783 
L 639.787607 235.496651 
L 642.332454 242.174783 
L 644.8773 239.948739 
L 647.422147 246.626872 
L 649.966993 235.496651 
L 652.51184 242.174783 
L 655.056686 244.400828 
L 657.601533 244.400828 
L 660.146379 228.818518 
L 662.691225 264.435226 
L 665.236072 257.757093 
L 667.780918 271.113358 
L 670.325765 266.66127 
L 675.415458 222.140385 
L 677.960304 259.983137 
L 680.505151 255.531049 
L 683.049997 231.044562 
L 685.594844 246.626872 
L 688.13969 226.592474 
L 690.684537 255.531049 
L 693.229383 242.174783 
L 695.774229 251.07896 
L 698.319076 257.757093 
L 700.863922 259.983137 
L 703.408769 206.558076 
L 705.953615 262.209182 
L 708.498462 262.209182 
L 711.043308 255.531049 
L 713.588155 184.297634 
L 716.133001 244.400828 
L 718.677848 228.818518 
L 721.222694 246.626872 
L 723.76754 235.496651 
L 726.312387 202.105987 
L 728.857233 219.914341 
L 731.40208 224.36643 
L 733.946926 237.722695 
L 736.491773 257.757093 
L 739.036619 273.339403 
L 741.581466 226.592474 
L 744.126312 259.983137 
L 746.671159 253.305005 
L 749.216005 275.565447 
L 751.760852 266.66127 
L 754.305698 219.914341 
L 756.850544 251.07896 
L 759.395391 211.010164 
L 761.940237 255.531049 
L 764.485084 248.852916 
L 767.02993 255.531049 
L 769.574777 246.626872 
L 772.119623 226.592474 
L 774.66447 237.722695 
L 777.209316 244.400828 
L 779.754163 266.66127 
L 782.299009 226.592474 
L 784.843855 233.270607 
L 787.388702 231.044562 
L 792.478395 262.209182 
L 795.023241 233.270607 
L 797.568088 255.531049 
L 800.112934 237.722695 
L 802.657781 239.948739 
L 805.202627 244.400828 
L 807.747474 251.07896 
L 810.29232 248.852916 
L 812.837167 251.07896 
L 815.382013 255.531049 
L 817.926859 257.757093 
L 820.471706 235.496651 
L 823.016552 268.887314 
L 825.561399 215.462253 
L 828.106245 253.305005 
L 830.651092 273.339403 
L 833.195938 251.07896 
L 835.740785 211.010164 
L 838.285631 218.801319 
L 840.830478 233.270607 
L 843.375324 266.66127 
L 845.92017 219.914341 
L 845.92017 219.914341 
" clip-path="url(#p1039aa94d2)" style="fill: none; stroke: #9400d3; stroke-width: 0.9; stroke-linecap: square"/>
   </g>
   <g id="line2d_15">
    <path d="M 85.01108 206.558076 
L 87.555926 257.757093 
L 90.100772 237.722695 
L 92.645619 248.852916 
L 95.190465 253.305005 
L 97.735312 239.948739 
L 100.280158 199.879943 
L 102.825005 257.757093 
L 105.369851 235.496651 
L 110.459544 248.852916 
L 113.004391 261.096159 
L 115.549237 226.592474 
L 118.094083 199.879943 
L 120.63893 275.565447 
L 123.183776 253.305005 
L 125.728623 242.174783 
L 128.273469 251.07896 
L 130.818316 275.565447 
L 133.363162 237.722695 
L 135.908009 215.462253 
L 138.452855 226.592474 
L 140.997702 239.948739 
L 143.542548 237.722695 
L 146.087395 264.435226 
L 148.632241 280.017535 
L 151.177087 275.565447 
L 153.721934 253.305005 
L 156.26678 244.400828 
L 158.811627 226.592474 
L 161.356473 259.983137 
L 163.90132 266.66127 
L 166.446166 217.688297 
L 168.991013 244.400828 
L 171.535859 251.07896 
L 174.080706 275.565447 
L 176.625552 273.339403 
L 179.170398 266.66127 
L 181.715245 253.305005 
L 184.260091 259.983137 
L 186.804938 273.339403 
L 189.349784 259.983137 
L 191.894631 268.887314 
L 194.439477 248.852916 
L 196.984324 275.565447 
L 199.52917 275.565447 
L 202.074017 246.626872 
L 204.618863 251.07896 
L 207.16371 273.339403 
L 209.708556 273.339403 
L 212.253402 262.209182 
L 214.798249 271.113358 
L 217.343095 253.305005 
L 219.887942 255.531049 
L 222.432788 231.044562 
L 224.977635 264.435226 
L 227.522481 262.209182 
L 230.067328 257.757093 
L 232.612174 264.435226 
L 235.157021 277.791491 
L 237.701867 217.688297 
L 240.246713 275.565447 
L 242.79156 271.113358 
L 245.336406 282.24358 
L 247.881253 273.339403 
L 250.426099 251.07896 
L 252.970946 244.400828 
L 255.515792 262.209182 
L 258.060639 257.757093 
L 260.605485 275.565447 
L 263.150332 251.07896 
L 265.695178 244.400828 
L 268.240025 262.209182 
L 270.784871 246.626872 
L 273.329717 266.66127 
L 275.874564 273.339403 
L 278.41941 257.757093 
L 280.964257 277.791491 
L 283.509103 277.791491 
L 286.05395 255.531049 
L 288.598796 239.948739 
L 291.143643 251.07896 
L 293.688489 239.948739 
L 296.233336 253.305005 
L 298.778182 255.531049 
L 301.323028 226.592474 
L 303.867875 228.818518 
L 306.412721 248.852916 
L 308.957568 224.36643 
L 311.502414 262.209182 
L 314.047261 244.400828 
L 316.592107 237.722695 
L 319.136954 257.757093 
L 321.6818 253.305005 
L 324.226647 246.626872 
L 326.771493 253.305005 
L 329.31634 262.209182 
L 331.861186 246.626872 
L 334.406032 222.140385 
L 336.950879 219.914341 
L 339.495725 266.66127 
L 342.040572 226.592474 
L 344.585418 266.66127 
L 347.130265 235.496651 
L 349.675111 273.339403 
L 352.219958 273.339403 
L 354.764804 235.496651 
L 357.309651 213.236209 
L 359.854497 244.400828 
L 362.399343 273.339403 
L 364.94419 262.209182 
L 367.489036 259.983137 
L 370.033883 277.791491 
L 372.578729 211.010164 
L 375.123576 224.36643 
L 377.668422 251.07896 
L 380.213269 206.558076 
L 382.758115 259.983137 
L 385.302962 242.174783 
L 387.847808 273.339403 
L 390.392654 188.749722 
L 392.937501 231.044562 
L 395.482347 246.626872 
L 398.027194 273.339403 
L 400.57204 190.975766 
L 403.116887 257.757093 
L 405.661733 224.36643 
L 408.20658 235.496651 
L 410.751426 264.435226 
L 413.296273 255.531049 
L 415.841119 239.948739 
L 418.385966 235.496651 
L 420.930812 242.174783 
L 423.475658 266.66127 
L 426.020505 275.565447 
L 428.565351 246.626872 
L 431.110198 235.496651 
L 433.655044 228.818518 
L 436.199891 208.78412 
L 438.744737 231.044562 
L 441.289584 257.757093 
L 443.83443 215.462253 
L 446.379277 235.496651 
L 448.924123 262.209182 
L 451.468969 217.688297 
L 454.013816 253.305005 
L 456.558662 248.852916 
L 459.103509 262.209182 
L 461.648355 255.531049 
L 464.193202 257.757093 
L 466.738048 244.400828 
L 469.282895 271.113358 
L 471.827741 257.757093 
L 474.372588 215.462253 
L 476.917434 231.044562 
L 479.462281 255.531049 
L 482.007127 239.948739 
L 484.551973 259.983137 
L 487.09682 222.140385 
L 489.641666 266.66127 
L 492.186513 231.044562 
L 494.731359 265.548248 
L 497.276206 235.496651 
L 499.821052 262.209182 
L 502.365899 244.400828 
L 504.910745 233.270607 
L 507.455592 255.531049 
L 510.000438 239.948739 
L 512.545284 259.983137 
L 515.090131 251.07896 
L 517.634977 239.948739 
L 520.179824 255.531049 
L 522.72467 228.818518 
L 525.269517 277.791491 
L 527.814363 246.626872 
L 530.35921 262.209182 
L 532.904056 262.209182 
L 535.448903 268.887314 
L 537.993749 239.948739 
L 540.538596 255.531049 
L 543.083442 224.36643 
L 545.628288 277.791491 
L 548.173135 262.209182 
L 550.717981 277.791491 
L 553.262828 273.339403 
L 555.807674 213.236209 
L 558.352521 262.209182 
L 560.897367 239.948739 
L 563.442214 268.887314 
L 565.98706 273.339403 
L 568.531907 251.07896 
L 571.076753 237.722695 
L 573.621599 266.66127 
L 576.166446 246.626872 
L 578.711292 253.305005 
L 581.256139 253.305005 
L 583.800985 246.626872 
L 586.345832 262.209182 
L 588.890678 266.66127 
L 591.435525 255.531049 
L 593.980371 271.113358 
L 596.525218 266.66127 
L 599.070064 273.339403 
L 601.61491 257.757093 
L 604.159757 264.435226 
L 606.704603 262.209182 
L 609.24945 228.818518 
L 611.794296 264.435226 
L 614.339143 271.113358 
L 616.883989 255.531049 
L 619.428836 244.400828 
L 621.973682 253.305005 
L 624.518529 244.400828 
L 627.063375 282.24358 
L 629.608222 239.948739 
L 632.153068 275.565447 
L 634.697914 246.626872 
L 637.242761 262.209182 
L 639.787607 233.270607 
L 642.332454 248.852916 
L 644.8773 251.07896 
L 647.422147 237.722695 
L 649.966993 233.270607 
L 652.51184 248.852916 
L 655.056686 255.531049 
L 657.601533 271.113358 
L 660.146379 239.948739 
L 662.691225 264.435226 
L 665.236072 264.435226 
L 667.780918 268.887314 
L 670.325765 237.722695 
L 672.870611 264.435226 
L 675.415458 233.270607 
L 677.960304 266.66127 
L 680.505151 257.757093 
L 683.049997 257.757093 
L 685.594844 244.400828 
L 688.13969 246.626872 
L 690.684537 262.209182 
L 693.229383 253.305005 
L 695.774229 268.887314 
L 698.319076 271.113358 
L 700.863922 264.435226 
L 703.408769 237.722695 
L 705.953615 257.757093 
L 708.498462 231.044562 
L 711.043308 259.983137 
L 713.588155 221.027363 
L 716.133001 266.66127 
L 718.677848 244.400828 
L 721.222694 257.757093 
L 723.76754 244.400828 
L 726.312387 224.36643 
L 728.857233 197.653899 
L 731.40208 219.914341 
L 733.946926 239.948739 
L 736.491773 262.209182 
L 739.036619 275.565447 
L 741.581466 226.592474 
L 744.126312 257.757093 
L 746.671159 222.140385 
L 749.216005 275.565447 
L 751.760852 268.887314 
L 754.305698 235.496651 
L 756.850544 262.209182 
L 759.395391 239.948739 
L 761.940237 262.209182 
L 764.485084 244.400828 
L 767.02993 259.983137 
L 769.574777 277.791491 
L 772.119623 253.305005 
L 774.66447 262.209182 
L 777.209316 231.044562 
L 779.754163 268.887314 
L 782.299009 211.010164 
L 784.843855 253.305005 
L 787.388702 263.322204 
L 789.933548 251.07896 
L 792.478395 264.435226 
L 795.023241 257.757093 
L 797.568088 262.209182 
L 800.112934 239.948739 
L 805.202627 226.592474 
L 807.747474 251.07896 
L 810.29232 248.852916 
L 812.837167 255.531049 
L 815.382013 239.948739 
L 817.926859 255.531049 
L 820.471706 253.305005 
L 823.016552 277.791491 
L 825.561399 237.722695 
L 828.106245 257.757093 
L 830.651092 271.113358 
L 833.195938 251.07896 
L 835.740785 246.626872 
L 838.285631 233.270607 
L 840.830478 257.757093 
L 843.375324 273.339403 
L 845.92017 246.626872 
L 845.92017 246.626872 
" clip-path="url(#p1039aa94d2)" style="fill: none; stroke: #00ffff; stroke-width: 0.9; stroke-linecap: square"/>
   </g>
   <g id="line2d_16">
    <path d="M 85.01108 211.010164 
L 87.555926 273.339403 
L 90.100772 217.688297 
L 92.645619 273.339403 
L 95.190465 246.626872 
L 97.735312 231.044562 
L 100.280158 239.948739 
L 102.825005 264.435226 
L 105.369851 208.78412 
L 107.914698 233.270607 
L 110.459544 242.174783 
L 113.004391 237.722695 
L 115.549237 245.51385 
L 118.094083 190.975766 
L 120.63893 277.791491 
L 123.183776 253.305005 
L 125.728623 253.305005 
L 128.273469 255.531049 
L 130.818316 271.113358 
L 133.363162 224.36643 
L 135.908009 226.592474 
L 138.452855 237.722695 
L 140.997702 259.983137 
L 143.542548 217.688297 
L 146.087395 273.339403 
L 148.632241 282.24358 
L 151.177087 268.887314 
L 153.721934 264.435226 
L 156.26678 262.209182 
L 158.811627 253.305005 
L 161.356473 268.887314 
L 163.90132 271.113358 
L 166.446166 228.818518 
L 168.991013 239.948739 
L 171.535859 248.852916 
L 174.080706 266.66127 
L 176.625552 275.565447 
L 179.170398 246.626872 
L 181.715245 245.51385 
L 184.260091 253.305005 
L 186.804938 259.983137 
L 189.349784 231.044562 
L 191.894631 268.887314 
L 194.439477 262.209182 
L 196.984324 282.24358 
L 199.52917 275.565447 
L 202.074017 255.531049 
L 204.618863 257.757093 
L 207.16371 277.791491 
L 209.708556 275.565447 
L 212.253402 271.113358 
L 214.798249 277.791491 
L 217.343095 255.531049 
L 219.887942 268.887314 
L 222.432788 244.400828 
L 224.977635 273.339403 
L 227.522481 253.305005 
L 230.067328 259.983137 
L 232.612174 259.983137 
L 235.157021 264.435226 
L 237.701867 228.818518 
L 240.246713 264.435226 
L 242.79156 277.791491 
L 245.336406 282.24358 
L 247.881253 273.339403 
L 250.426099 268.887314 
L 252.970946 237.722695 
L 255.515792 251.07896 
L 258.060639 253.305005 
L 260.605485 271.113358 
L 263.150332 251.07896 
L 265.695178 188.749722 
L 268.240025 273.339403 
L 270.784871 251.07896 
L 273.329717 268.887314 
L 275.874564 271.113358 
L 278.41941 266.66127 
L 280.964257 277.791491 
L 283.509103 280.017535 
L 286.05395 264.435226 
L 288.598796 206.558076 
L 291.143643 255.531049 
L 293.688489 206.558076 
L 296.233336 231.044562 
L 298.778182 224.36643 
L 301.323028 259.983137 
L 303.867875 248.852916 
L 306.412721 255.531049 
L 308.957568 244.400828 
L 311.502414 271.113358 
L 314.047261 239.948739 
L 316.592107 233.270607 
L 319.136954 271.113358 
L 321.6818 253.305005 
L 324.226647 255.531049 
L 326.771493 259.983137 
L 329.31634 248.852916 
L 331.861186 257.757093 
L 334.406032 259.983137 
L 336.950879 248.852916 
L 339.495725 233.270607 
L 342.040572 257.757093 
L 344.585418 262.209182 
L 347.130265 248.852916 
L 349.675111 266.66127 
L 352.219958 273.339403 
L 354.764804 246.626872 
L 357.309651 208.78412 
L 359.854497 242.174783 
L 362.399343 253.305005 
L 364.94419 233.270607 
L 367.489036 242.174783 
L 370.033883 273.339403 
L 372.578729 233.270607 
L 375.123576 228.818518 
L 377.668422 271.113358 
L 380.213269 213.236209 
L 382.758115 204.332032 
L 385.302962 242.174783 
L 387.847808 273.339403 
L 390.392654 138.663727 
L 392.937501 226.592474 
L 395.482347 242.174783 
L 398.027194 273.339403 
L 400.57204 206.558076 
L 403.116887 248.852916 
L 405.661733 231.044562 
L 408.20658 218.801319 
L 410.751426 246.626872 
L 413.296273 239.948739 
L 415.841119 231.044562 
L 418.385966 235.496651 
L 420.930812 253.305005 
L 423.475658 268.887314 
L 426.020505 280.017535 
L 428.565351 235.496651 
L 431.110198 228.818518 
L 433.655044 244.400828 
L 436.199891 213.236209 
L 438.744737 228.818518 
L 441.289584 271.113358 
L 443.83443 224.36643 
L 446.379277 215.462253 
L 448.924123 259.983137 
L 451.468969 237.722695 
L 454.013816 248.852916 
L 456.558662 242.174783 
L 459.103509 259.983137 
L 461.648355 253.305005 
L 464.193202 271.113358 
L 466.738048 237.722695 
L 469.282895 282.24358 
L 471.827741 248.852916 
L 474.372588 235.496651 
L 476.917434 237.722695 
L 479.462281 271.113358 
L 482.007127 255.531049 
L 484.551973 273.339403 
L 487.09682 246.626872 
L 489.641666 268.887314 
L 492.186513 228.818518 
L 494.731359 264.435226 
L 497.276206 246.626872 
L 499.821052 255.531049 
L 502.365899 244.400828 
L 504.910745 253.305005 
L 507.455592 257.757093 
L 510.000438 215.462253 
L 512.545284 248.852916 
L 515.090131 253.305005 
L 517.634977 197.653899 
L 520.179824 251.07896 
L 522.72467 242.174783 
L 525.269517 277.791491 
L 527.814363 217.688297 
L 530.35921 262.209182 
L 532.904056 242.174783 
L 535.448903 271.113358 
L 537.993749 237.722695 
L 540.538596 253.305005 
L 543.083442 208.78412 
L 545.628288 277.791491 
L 548.173135 259.983137 
L 550.717981 268.887314 
L 553.262828 275.565447 
L 555.807674 202.105987 
L 558.352521 280.017535 
L 560.897367 215.462253 
L 563.442214 259.983137 
L 565.98706 273.339403 
L 568.531907 262.209182 
L 571.076753 213.236209 
L 573.621599 255.531049 
L 576.166446 242.174783 
L 578.711292 259.983137 
L 581.256139 244.400828 
L 583.800985 259.983137 
L 586.345832 259.983137 
L 588.890678 273.339403 
L 591.435525 253.305005 
L 593.980371 273.339403 
L 596.525218 257.757093 
L 599.070064 273.339403 
L 601.61491 271.113358 
L 604.159757 242.174783 
L 606.704603 217.688297 
L 609.24945 215.462253 
L 611.794296 253.305005 
L 614.339143 266.66127 
L 616.883989 255.531049 
L 619.428836 257.757093 
L 621.973682 257.757093 
L 624.518529 259.983137 
L 627.063375 282.24358 
L 629.608222 255.531049 
L 632.153068 280.017535 
L 634.697914 262.209182 
L 637.242761 257.757093 
L 639.787607 242.174783 
L 642.332454 246.626872 
L 644.8773 211.010164 
L 647.422147 264.435226 
L 649.966993 224.36643 
L 652.51184 262.209182 
L 655.056686 248.852916 
L 657.601533 268.887314 
L 660.146379 237.722695 
L 662.691225 273.339403 
L 665.236072 266.66127 
L 667.780918 280.017535 
L 670.325765 266.66127 
L 672.870611 226.592474 
L 675.415458 215.462253 
L 677.960304 275.565447 
L 680.505151 246.626872 
L 683.049997 259.983137 
L 685.594844 257.757093 
L 688.13969 248.852916 
L 690.684537 242.174783 
L 693.229383 253.305005 
L 695.774229 266.66127 
L 698.319076 268.887314 
L 700.863922 262.209182 
L 703.408769 217.688297 
L 705.953615 262.209182 
L 708.498462 277.791491 
L 711.043308 231.044562 
L 713.588155 233.270607 
L 716.133001 259.983137 
L 718.677848 231.044562 
L 721.222694 253.305005 
L 723.76754 226.592474 
L 726.312387 224.36643 
L 728.857233 237.722695 
L 731.40208 248.852916 
L 733.946926 225.479452 
L 736.491773 255.531049 
L 739.036619 251.07896 
L 744.126312 228.818518 
L 746.671159 266.66127 
L 749.216005 273.339403 
L 751.760852 264.435226 
L 754.305698 253.305005 
L 756.850544 248.852916 
L 759.395391 233.270607 
L 761.940237 266.66127 
L 764.485084 262.209182 
L 767.02993 259.983137 
L 769.574777 271.113358 
L 772.119623 251.07896 
L 774.66447 237.722695 
L 777.209316 268.887314 
L 779.754163 266.66127 
L 782.299009 233.270607 
L 784.843855 251.07896 
L 787.388702 264.435226 
L 789.933548 237.722695 
L 792.478395 273.339403 
L 795.023241 253.305005 
L 797.568088 255.531049 
L 800.112934 244.400828 
L 802.657781 237.722695 
L 805.202627 271.113358 
L 810.29232 248.852916 
L 812.837167 262.209182 
L 817.926859 257.757093 
L 820.471706 253.305005 
L 823.016552 268.887314 
L 825.561399 222.140385 
L 828.106245 268.887314 
L 830.651092 268.887314 
L 833.195938 253.305005 
L 835.740785 255.531049 
L 838.285631 213.236209 
L 840.830478 251.07896 
L 843.375324 280.017535 
L 845.92017 242.174783 
L 845.92017 242.174783 
" clip-path="url(#p1039aa94d2)" style="fill: none; stroke: #ffa500; stroke-width: 0.9; stroke-linecap: square"/>
   </g>
   <g id="line2d_17">
    <path d="M 85.01108 259.983137 
L 87.555926 268.887314 
L 90.100772 239.948739 
L 92.645619 266.66127 
L 95.190465 244.400828 
L 97.735312 242.174783 
L 102.825005 259.983137 
L 105.369851 257.757093 
L 107.914698 246.626872 
L 110.459544 271.113358 
L 113.004391 255.531049 
L 115.549237 251.07896 
L 118.094083 239.948739 
L 120.63893 273.339403 
L 123.183776 264.435226 
L 125.728623 254.418027 
L 128.273469 277.791491 
L 130.818316 280.017535 
L 133.363162 246.626872 
L 135.908009 251.07896 
L 138.452855 262.209182 
L 143.542548 262.209182 
L 146.087395 264.435226 
L 148.632241 280.017535 
L 151.177087 282.24358 
L 153.721934 264.435226 
L 156.26678 268.887314 
L 158.811627 251.07896 
L 161.356473 271.113358 
L 163.90132 266.66127 
L 166.446166 247.739894 
L 168.991013 257.757093 
L 171.535859 259.983137 
L 174.080706 275.565447 
L 176.625552 271.113358 
L 179.170398 268.887314 
L 181.715245 264.435226 
L 184.260091 271.113358 
L 186.804938 275.565447 
L 189.349784 268.887314 
L 191.894631 268.887314 
L 194.439477 266.66127 
L 196.984324 277.791491 
L 199.52917 275.565447 
L 202.074017 259.983137 
L 204.618863 253.305005 
L 207.16371 273.339403 
L 209.708556 277.791491 
L 212.253402 268.887314 
L 214.798249 277.791491 
L 217.343095 262.209182 
L 219.887942 266.66127 
L 222.432788 264.435226 
L 224.977635 273.339403 
L 227.522481 259.983137 
L 230.067328 271.113358 
L 232.612174 264.435226 
L 235.157021 276.678469 
L 237.701867 265.548248 
L 240.246713 282.24358 
L 242.79156 277.791491 
L 245.336406 282.24358 
L 247.881253 282.24358 
L 250.426099 264.435226 
L 252.970946 268.887314 
L 255.515792 277.791491 
L 258.060639 262.209182 
L 260.605485 275.565447 
L 263.150332 257.757093 
L 265.695178 259.983137 
L 268.240025 266.66127 
L 270.784871 262.209182 
L 273.329717 262.209182 
L 275.874564 273.339403 
L 278.41941 264.435226 
L 280.964257 277.791491 
L 283.509103 277.791491 
L 286.05395 266.66127 
L 288.598796 244.400828 
L 291.143643 253.305005 
L 293.688489 259.983137 
L 296.233336 259.983137 
L 298.778182 257.757093 
L 301.323028 251.07896 
L 303.867875 262.209182 
L 306.412721 253.305005 
L 308.957568 259.983137 
L 311.502414 273.339403 
L 314.047261 264.435226 
L 316.592107 239.948739 
L 319.136954 262.209182 
L 324.226647 248.852916 
L 326.771493 248.852916 
L 329.31634 266.66127 
L 331.861186 264.435226 
L 334.406032 259.983137 
L 336.950879 237.722695 
L 339.495725 268.887314 
L 342.040572 253.305005 
L 344.585418 259.983137 
L 347.130265 248.852916 
L 349.675111 277.791491 
L 352.219958 273.339403 
L 354.764804 266.66127 
L 357.309651 233.270607 
L 359.854497 257.757093 
L 362.399343 275.565447 
L 367.489036 266.66127 
L 370.033883 280.017535 
L 372.578729 228.818518 
L 375.123576 255.531049 
L 377.668422 257.757093 
L 380.213269 233.270607 
L 382.758115 266.66127 
L 385.302962 266.66127 
L 387.847808 273.339403 
L 390.392654 251.07896 
L 392.937501 237.722695 
L 395.482347 259.983137 
L 398.027194 275.565447 
L 400.57204 248.852916 
L 403.116887 257.757093 
L 405.661733 246.626872 
L 408.20658 254.418027 
L 410.751426 268.887314 
L 413.296273 273.339403 
L 415.841119 251.07896 
L 418.385966 255.531049 
L 420.930812 244.400828 
L 423.475658 277.791491 
L 428.565351 259.983137 
L 431.110198 242.174783 
L 433.655044 262.209182 
L 436.199891 226.592474 
L 438.744737 251.07896 
L 441.289584 264.435226 
L 443.83443 271.113358 
L 446.379277 257.757093 
L 448.924123 266.66127 
L 451.468969 246.626872 
L 454.013816 266.66127 
L 456.558662 273.339403 
L 459.103509 264.435226 
L 461.648355 248.852916 
L 464.193202 264.435226 
L 466.738048 271.113358 
L 469.282895 271.113358 
L 471.827741 264.435226 
L 474.372588 262.209182 
L 476.917434 264.435226 
L 479.462281 271.113358 
L 482.007127 251.07896 
L 484.551973 251.07896 
L 489.641666 273.339403 
L 492.186513 262.209182 
L 494.731359 275.565447 
L 497.276206 257.757093 
L 499.821052 273.339403 
L 502.365899 255.531049 
L 504.910745 257.757093 
L 507.455592 275.565447 
L 510.000438 259.983137 
L 512.545284 271.113358 
L 515.090131 259.983137 
L 517.634977 237.722695 
L 520.179824 264.435226 
L 522.72467 248.852916 
L 525.269517 277.791491 
L 527.814363 248.852916 
L 530.35921 277.791491 
L 532.904056 257.757093 
L 535.448903 273.339403 
L 537.993749 262.209182 
L 540.538596 266.66127 
L 543.083442 262.209182 
L 545.628288 277.791491 
L 548.173135 273.339403 
L 550.717981 277.791491 
L 553.262828 280.017535 
L 555.807674 255.531049 
L 558.352521 271.113358 
L 560.897367 259.983137 
L 563.442214 266.66127 
L 565.98706 271.113358 
L 568.531907 257.757093 
L 571.076753 242.174783 
L 573.621599 262.209182 
L 576.166446 259.983137 
L 578.711292 253.305005 
L 581.256139 266.66127 
L 583.800985 255.531049 
L 586.345832 266.66127 
L 588.890678 275.565447 
L 591.435525 268.887314 
L 593.980371 273.339403 
L 596.525218 273.339403 
L 599.070064 266.66127 
L 601.61491 266.66127 
L 604.159757 277.791491 
L 606.704603 264.435226 
L 609.24945 239.948739 
L 611.794296 268.887314 
L 614.339143 277.791491 
L 616.883989 264.435226 
L 619.428836 268.887314 
L 621.973682 253.305005 
L 624.518529 266.66127 
L 627.063375 282.24358 
L 629.608222 259.983137 
L 632.153068 268.887314 
L 634.697914 271.113358 
L 637.242761 266.66127 
L 639.787607 259.983137 
L 642.332454 248.852916 
L 644.8773 259.983137 
L 647.422147 264.435226 
L 649.966993 246.626872 
L 652.51184 262.209182 
L 655.056686 257.757093 
L 657.601533 257.757093 
L 660.146379 253.305005 
L 662.691225 275.565447 
L 665.236072 264.435226 
L 667.780918 275.565447 
L 670.325765 275.565447 
L 672.870611 266.66127 
L 675.415458 248.852916 
L 677.960304 266.66127 
L 680.505151 273.339403 
L 683.049997 266.66127 
L 685.594844 268.887314 
L 690.684537 264.435226 
L 693.229383 264.435226 
L 695.774229 271.113358 
L 698.319076 273.339403 
L 700.863922 255.531049 
L 703.408769 266.66127 
L 705.953615 262.209182 
L 708.498462 271.113358 
L 711.043308 259.983137 
L 713.588155 242.174783 
L 716.133001 271.113358 
L 718.677848 262.209182 
L 721.222694 255.531049 
L 723.76754 255.531049 
L 726.312387 244.400828 
L 728.857233 248.852916 
L 731.40208 255.531049 
L 733.946926 268.887314 
L 736.491773 264.435226 
L 739.036619 277.791491 
L 741.581466 257.757093 
L 744.126312 266.66127 
L 746.671159 253.305005 
L 749.216005 275.565447 
L 754.305698 262.209182 
L 756.850544 262.209182 
L 759.395391 255.531049 
L 761.940237 268.887314 
L 764.485084 264.435226 
L 767.02993 271.113358 
L 769.574777 275.565447 
L 772.119623 262.209182 
L 774.66447 266.66127 
L 777.209316 264.435226 
L 779.754163 277.791491 
L 782.299009 246.626872 
L 784.843855 262.209182 
L 787.388702 264.435226 
L 789.933548 268.887314 
L 792.478395 277.791491 
L 795.023241 264.435226 
L 797.568088 259.983137 
L 800.112934 253.305005 
L 802.657781 255.531049 
L 805.202627 255.531049 
L 807.747474 268.887314 
L 810.29232 266.66127 
L 812.837167 271.113358 
L 815.382013 266.66127 
L 820.471706 253.305005 
L 823.016552 277.791491 
L 825.561399 259.983137 
L 828.106245 268.887314 
L 830.651092 275.565447 
L 833.195938 259.983137 
L 835.740785 268.887314 
L 838.285631 242.174783 
L 840.830478 271.113358 
L 843.375324 280.017535 
L 845.92017 255.531049 
L 845.92017 255.531049 
" clip-path="url(#p1039aa94d2)" style="fill: none; stroke: #ff4500; stroke-width: 0.9; stroke-linecap: square"/>
   </g>
   <g id="patch_3">
    <path d="M 46.965625 294.598125 
L 46.965625 22.798125 
" style="fill: none; stroke: #000000; stroke-width: 0.8; stroke-linejoin: miter; stroke-linecap: square"/>
   </g>
   <g id="patch_4">
    <path d="M 883.965625 294.598125 
L 883.965625 22.798125 
" style="fill: none; stroke: #000000; stroke-width: 0.8; stroke-linejoin: miter; stroke-linecap: square"/>
   </g>
   <g id="patch_5">
    <path d="M 46.965625 294.598125 
L 883.965625 294.598125 
" style="fill: none; stroke: #000000; stroke-width: 0.8; stroke-linejoin: miter; stroke-linecap: square"/>
   </g>
   <g id="patch_6">
    <path d="M 46.965625 22.798125 
L 883.965625 22.798125 
" style="fill: none; stroke: #000000; stroke-width: 0.8; stroke-linejoin: miter; stroke-linecap: square"/>
   </g>
   <g id="text_15">
    <!-- Liczba przejść przez średnią wartość z próbki 1 sekunda -->
    <g transform="translate(297.265938 16.798125)scale(0.12 -0.12)">
     <defs>
      <path id="DejaVuSans-4c" d="M 628 4666 
L 1259 4666 
L 1259 531 
L 3531 531 
L 3531 0 
L 628 0 
L 628 4666 
z
" transform="scale(0.015625)"/>
      <path id="DejaVuSans-69" d="M 603 3500 
L 1178 3500 
L 1178 0 
L 603 0 
L 603 3500 
z
M 603 4863 
L 1178 4863 
L 1178 4134 
L 603 4134 
L 603 4863 
z
" transform="scale(0.015625)"/>
      <path id="DejaVuSans-63" d="M 3122 3366 
L 3122 2828 
Q 2878 2963 2633 3030 
Q 2388 3097 2138 3097 
Q 1578 3097 1268 2742 
Q 959 2388 959 1747 
Q 959 1106 1268 751 
Q 1578 397 2138 397 
Q 2388 397 2633 464 
Q 2878 531 3122 666 
L 3122 134 
Q 2881 22 2623 -34 
Q 2366 -91 2075 -91 
Q 1284 -91 818 406 
Q 353 903 353 1747 
Q 353 2603 823 3093 
Q 1294 3584 2113 3584 
Q 2378 3584 2631 3529 
Q 2884 3475 3122 3366 
z
" transform="scale(0.015625)"/>
      <path id="DejaVuSans-7a" d="M 353 3500 
L 3084 3500 
L 3084 2975 
L 922 459 
L 3084 459 
L 3084 0 
L 275 0 
L 275 525 
L 2438 3041 
L 353 3041 
L 353 3500 
z
" transform="scale(0.015625)"/>
      <path id="DejaVuSans-20" transform="scale(0.015625)"/>
      <path id="DejaVuSans-70" d="M 1159 525 
L 1159 -1331 
L 581 -1331 
L 581 3500 
L 1159 3500 
L 1159 2969 
Q 1341 3281 1617 3432 
Q 1894 3584 2278 3584 
Q 2916 3584 3314 3078 
Q 3713 2572 3713 1747 
Q 3713 922 3314 415 
Q 2916 -91 2278 -91 
Q 1894 -91 1617 61 
Q 1341 213 1159 525 
z
M 3116 1747 
Q 3116 2381 2855 2742 
Q 2594 3103 2138 3103 
Q 1681 3103 1420 2742 
Q 1159 2381 1159 1747 
Q 1159 1113 1420 752 
Q 1681 391 2138 391 
Q 2594 391 2855 752 
Q 3116 1113 3116 1747 
z
" transform="scale(0.015625)"/>
      <path id="DejaVuSans-65" d="M 3597 1894 
L 3597 1613 
L 953 1613 
Q 991 1019 1311 708 
Q 1631 397 2203 397 
Q 2534 397 2845 478 
Q 3156 559 3463 722 
L 3463 178 
Q 3153 47 2828 -22 
Q 2503 -91 2169 -91 
Q 1331 -91 842 396 
Q 353 884 353 1716 
Q 353 2575 817 3079 
Q 1281 3584 2069 3584 
Q 2775 3584 3186 3129 
Q 3597 2675 3597 1894 
z
M 3022 2063 
Q 3016 2534 2758 2815 
Q 2500 3097 2075 3097 
Q 1594 3097 1305 2825 
Q 1016 2553 972 2059 
L 3022 2063 
z
" transform="scale(0.015625)"/>
      <path id="DejaVuSans-6a" d="M 603 3500 
L 1178 3500 
L 1178 -63 
Q 1178 -731 923 -1031 
Q 669 -1331 103 -1331 
L -116 -1331 
L -116 -844 
L 38 -844 
Q 366 -844 484 -692 
Q 603 -541 603 -63 
L 603 3500 
z
M 603 4863 
L 1178 4863 
L 1178 4134 
L 603 4134 
L 603 4863 
z
" transform="scale(0.015625)"/>
      <path id="DejaVuSans-64" d="M 2906 2969 
L 2906 4863 
L 3481 4863 
L 3481 0 
L 2906 0 
L 2906 525 
Q 2725 213 2448 61 
Q 2172 -91 1784 -91 
Q 1150 -91 751 415 
Q 353 922 353 1747 
Q 353 2572 751 3078 
Q 1150 3584 1784 3584 
Q 2172 3584 2448 3432 
Q 2725 3281 2906 2969 
z
M 947 1747 
Q 947 1113 1208 752 
Q 1469 391 1925 391 
Q 2381 391 2643 752 
Q 2906 1113 2906 1747 
Q 2906 2381 2643 2742 
Q 2381 3103 1925 3103 
Q 1469 3103 1208 2742 
Q 947 2381 947 1747 
z
" transform="scale(0.015625)"/>
      <path id="DejaVuSans-6e" d="M 3513 2113 
L 3513 0 
L 2938 0 
L 2938 2094 
Q 2938 2591 2744 2837 
Q 2550 3084 2163 3084 
Q 1697 3084 1428 2787 
Q 1159 2491 1159 1978 
L 1159 0 
L 581 0 
L 581 3500 
L 1159 3500 
L 1159 2956 
Q 1366 3272 1645 3428 
Q 1925 3584 2291 3584 
Q 2894 3584 3203 3211 
Q 3513 2838 3513 2113 
z
" transform="scale(0.015625)"/>
      <path id="DejaVuSans-105" d="M 2194 1759 
Q 1497 1759 1228 1600 
Q 959 1441 959 1056 
Q 959 750 1161 570 
Q 1363 391 1709 391 
Q 2188 391 2477 730 
Q 2766 1069 2766 1631 
L 2766 1759 
L 2194 1759 
z
M 3341 1997 
L 3341 0 
L 2766 0 
L 2766 531 
Q 2569 213 2275 61 
Q 1981 -91 1556 -91 
Q 1019 -91 701 211 
Q 384 513 384 1019 
Q 384 1609 779 1909 
Q 1175 2209 1959 2209 
L 2766 2209 
L 2766 2266 
Q 2766 2663 2505 2880 
Q 2244 3097 1772 3097 
Q 1472 3097 1187 3025 
Q 903 2953 641 2809 
L 641 3341 
Q 956 3463 1253 3523 
Q 1550 3584 1831 3584 
Q 2591 3584 2966 3190 
Q 3341 2797 3341 1997 
z
M 2775 0 
L 3147 0 
Q 3006 -191 2939 -328 
Q 2872 -466 2872 -563 
Q 2872 -706 2958 -778 
Q 3044 -850 3213 -850 
Q 3313 -850 3409 -826 
Q 3506 -803 3603 -756 
L 3603 -1172 
Q 3484 -1203 3378 -1218 
Q 3272 -1234 3178 -1234 
Q 2797 -1234 2617 -1098 
Q 2438 -963 2438 -672 
Q 2438 -522 2520 -358 
Q 2603 -194 2775 0 
z
" transform="scale(0.015625)"/>
      <path id="DejaVuSans-77" d="M 269 3500 
L 844 3500 
L 1563 769 
L 2278 3500 
L 2956 3500 
L 3675 769 
L 4391 3500 
L 4966 3500 
L 4050 0 
L 3372 0 
L 2619 2869 
L 1863 0 
L 1184 0 
L 269 3500 
z
" transform="scale(0.015625)"/>
      <path id="DejaVuSans-73" d="M 2834 3397 
L 2834 2853 
Q 2591 2978 2328 3040 
Q 2066 3103 1784 3103 
Q 1356 3103 1142 2972 
Q 928 2841 928 2578 
Q 928 2378 1081 2264 
Q 1234 2150 1697 2047 
L 1894 2003 
Q 2506 1872 2764 1633 
Q 3022 1394 3022 966 
Q 3022 478 2636 193 
Q 2250 -91 1575 -91 
Q 1294 -91 989 -36 
Q 684 19 347 128 
L 347 722 
Q 666 556 975 473 
Q 1284 391 1588 391 
Q 1994 391 2212 530 
Q 2431 669 2431 922 
Q 2431 1156 2273 1281 
Q 2116 1406 1581 1522 
L 1381 1569 
Q 847 1681 609 1914 
Q 372 2147 372 2553 
Q 372 3047 722 3315 
Q 1072 3584 1716 3584 
Q 2034 3584 2315 3537 
Q 2597 3491 2834 3397 
z
" transform="scale(0.015625)"/>
      <path id="DejaVuSans-75" d="M 544 1381 
L 544 3500 
L 1119 3500 
L 1119 1403 
Q 1119 906 1312 657 
Q 1506 409 1894 409 
Q 2359 409 2629 706 
Q 2900 1003 2900 1516 
L 2900 3500 
L 3475 3500 
L 3475 0 
L 2900 0 
L 2900 538 
Q 2691 219 2414 64 
Q 2138 -91 1772 -91 
Q 1169 -91 856 284 
Q 544 659 544 1381 
z
M 1991 3584 
L 1991 3584 
z
" transform="scale(0.015625)"/>
     </defs>
     <use xlink:href="#DejaVuSans-4c"/>
     <use xlink:href="#DejaVuSans-69" x="55.712891"/>
     <use xlink:href="#DejaVuSans-63" x="83.496094"/>
     <use xlink:href="#DejaVuSans-7a" x="138.476562"/>
     <use xlink:href="#DejaVuSans-62" x="190.966797"/>
     <use xlink:href="#DejaVuSans-61" x="254.443359"/>
     <use xlink:href="#DejaVuSans-20" x="315.722656"/>
     <use xlink:href="#DejaVuSans-70" x="347.509766"/>
     <use xlink:href="#DejaVuSans-72" x="410.986328"/>
     <use xlink:href="#DejaVuSans-7a" x="452.099609"/>
     <use xlink:href="#DejaVuSans-65" x="504.589844"/>
     <use xlink:href="#DejaVuSans-6a" x="566.113281"/>
     <use xlink:href="#DejaVuSans-15b" x="593.896484"/>
     <use xlink:href="#DejaVuSans-107" x="645.996094"/>
     <use xlink:href="#DejaVuSans-20" x="700.976562"/>
     <use xlink:href="#DejaVuSans-70" x="732.763672"/>
     <use xlink:href="#DejaVuSans-72" x="796.240234"/>
     <use xlink:href="#DejaVuSans-7a" x="837.353516"/>
     <use xlink:href="#DejaVuSans-65" x="889.84375"/>
     <use xlink:href="#DejaVuSans-7a" x="951.367188"/>
     <use xlink:href="#DejaVuSans-20" x="1003.857422"/>
     <use xlink:href="#DejaVuSans-15b" x="1035.644531"/>
     <use xlink:href="#DejaVuSans-72" x="1087.744141"/>
     <use xlink:href="#DejaVuSans-65" x="1126.607422"/>
     <use xlink:href="#DejaVuSans-64" x="1188.130859"/>
     <use xlink:href="#DejaVuSans-6e" x="1251.607422"/>
     <use xlink:href="#DejaVuSans-69" x="1314.986328"/>
     <use xlink:href="#DejaVuSans-105" x="1342.769531"/>
     <use xlink:href="#DejaVuSans-20" x="1404.048828"/>
     <use xlink:href="#DejaVuSans-77" x="1435.835938"/>
     <use xlink:href="#DejaVuSans-61" x="1517.623047"/>
     <use xlink:href="#DejaVuSans-72" x="1578.902344"/>
     <use xlink:href="#DejaVuSans-74" x="1620.015625"/>
     <use xlink:href="#DejaVuSans-6f" x="1659.224609"/>
     <use xlink:href="#DejaVuSans-15b" x="1720.40625"/>
     <use xlink:href="#DejaVuSans-107" x="1772.505859"/>
     <use xlink:href="#DejaVuSans-20" x="1827.486328"/>
     <use xlink:href="#DejaVuSans-7a" x="1859.273438"/>
     <use xlink:href="#DejaVuSans-20" x="1911.763672"/>
     <use xlink:href="#DejaVuSans-70" x="1943.550781"/>
     <use xlink:href="#DejaVuSans-72" x="2007.027344"/>
     <use xlink:href="#DejaVuSans-f3" x="2045.890625"/>
     <use xlink:href="#DejaVuSans-62" x="2107.072266"/>
     <use xlink:href="#DejaVuSans-6b" x="2170.548828"/>
     <use xlink:href="#DejaVuSans-69" x="2228.458984"/>
     <use xlink:href="#DejaVuSans-20" x="2256.242188"/>
     <use xlink:href="#DejaVuSans-31" x="2288.029297"/>
     <use xlink:href="#DejaVuSans-20" x="2351.652344"/>
     <use xlink:href="#DejaVuSans-73" x="2383.439453"/>
     <use xlink:href="#DejaVuSans-65" x="2435.539062"/>
     <use xlink:href="#DejaVuSans-6b" x="2497.0625"/>
     <use xlink:href="#DejaVuSans-75" x="2551.847656"/>
     <use xlink:href="#DejaVuSans-6e" x="2615.226562"/>
     <use xlink:href="#DejaVuSans-64" x="2678.605469"/>
     <use xlink:href="#DejaVuSans-61" x="2742.082031"/>
    </g>
   </g>
   <g id="legend_1">
    <g id="patch_7">
     <path d="M 799.83125 105.579375 
L 876.965625 105.579375 
Q 878.965625 105.579375 878.965625 103.579375 
L 878.965625 29.798125 
Q 878.965625 27.798125 876.965625 27.798125 
L 799.83125 27.798125 
Q 797.83125 27.798125 797.83125 29.798125 
L 797.83125 103.579375 
Q 797.83125 105.579375 799.83125 105.579375 
z
" style="fill: #ffffff; opacity: 0.8; stroke: #cccccc; stroke-linejoin: miter"/>
    </g>
    <g id="line2d_18">
     <path d="M 801.83125 35.896563 
L 811.83125 35.896563 
L 821.83125 35.896563 
" style="fill: none; stroke: #ff00ff; stroke-width: 0.9; stroke-linecap: square"/>
    </g>
    <g id="text_16">
     <!-- CH1_2KS -->
     <g transform="translate(829.83125 39.396563)scale(0.1 -0.1)">
      <defs>
       <path id="DejaVuSans-43" d="M 4122 4306 
L 4122 3641 
Q 3803 3938 3442 4084 
Q 3081 4231 2675 4231 
Q 1875 4231 1450 3742 
Q 1025 3253 1025 2328 
Q 1025 1406 1450 917 
Q 1875 428 2675 428 
Q 3081 428 3442 575 
Q 3803 722 4122 1019 
L 4122 359 
Q 3791 134 3420 21 
Q 3050 -91 2638 -91 
Q 1578 -91 968 557 
Q 359 1206 359 2328 
Q 359 3453 968 4101 
Q 1578 4750 2638 4750 
Q 3056 4750 3426 4639 
Q 3797 4528 4122 4306 
z
" transform="scale(0.015625)"/>
       <path id="DejaVuSans-48" d="M 628 4666 
L 1259 4666 
L 1259 2753 
L 3553 2753 
L 3553 4666 
L 4184 4666 
L 4184 0 
L 3553 0 
L 3553 2222 
L 1259 2222 
L 1259 0 
L 628 0 
L 628 4666 
z
" transform="scale(0.015625)"/>
       <path id="DejaVuSans-5f" d="M 3263 -1063 
L 3263 -1509 
L -63 -1509 
L -63 -1063 
L 3263 -1063 
z
" transform="scale(0.015625)"/>
       <path id="DejaVuSans-4b" d="M 628 4666 
L 1259 4666 
L 1259 2694 
L 3353 4666 
L 4166 4666 
L 1850 2491 
L 4331 0 
L 3500 0 
L 1259 2247 
L 1259 0 
L 628 0 
L 628 4666 
z
" transform="scale(0.015625)"/>
       <path id="DejaVuSans-53" d="M 3425 4513 
L 3425 3897 
Q 3066 4069 2747 4153 
Q 2428 4238 2131 4238 
Q 1616 4238 1336 4038 
Q 1056 3838 1056 3469 
Q 1056 3159 1242 3001 
Q 1428 2844 1947 2747 
L 2328 2669 
Q 3034 2534 3370 2195 
Q 3706 1856 3706 1288 
Q 3706 609 3251 259 
Q 2797 -91 1919 -91 
Q 1588 -91 1214 -16 
Q 841 59 441 206 
L 441 856 
Q 825 641 1194 531 
Q 1563 422 1919 422 
Q 2459 422 2753 634 
Q 3047 847 3047 1241 
Q 3047 1584 2836 1778 
Q 2625 1972 2144 2069 
L 1759 2144 
Q 1053 2284 737 2584 
Q 422 2884 422 3419 
Q 422 4038 858 4394 
Q 1294 4750 2059 4750 
Q 2388 4750 2728 4690 
Q 3069 4631 3425 4513 
z
" transform="scale(0.015625)"/>
      </defs>
      <use xlink:href="#DejaVuSans-43"/>
      <use xlink:href="#DejaVuSans-48" x="69.824219"/>
      <use xlink:href="#DejaVuSans-31" x="145.019531"/>
      <use xlink:href="#DejaVuSans-5f" x="208.642578"/>
      <use xlink:href="#DejaVuSans-32" x="258.642578"/>
      <use xlink:href="#DejaVuSans-4b" x="322.265625"/>
      <use xlink:href="#DejaVuSans-53" x="387.841797"/>
     </g>
    </g>
    <g id="line2d_19">
     <path d="M 801.83125 50.852813 
L 811.83125 50.852813 
L 821.83125 50.852813 
" style="fill: none; stroke: #9400d3; stroke-width: 0.9; stroke-linecap: square"/>
    </g>
    <g id="text_17">
     <!-- CH2_2KS -->
     <g transform="translate(829.83125 54.352813)scale(0.1 -0.1)">
      <use xlink:href="#DejaVuSans-43"/>
      <use xlink:href="#DejaVuSans-48" x="69.824219"/>
      <use xlink:href="#DejaVuSans-32" x="145.019531"/>
      <use xlink:href="#DejaVuSans-5f" x="208.642578"/>
      <use xlink:href="#DejaVuSans-32" x="258.642578"/>
      <use xlink:href="#DejaVuSans-4b" x="322.265625"/>
      <use xlink:href="#DejaVuSans-53" x="387.841797"/>
     </g>
    </g>
    <g id="line2d_20">
     <path d="M 801.83125 65.809063 
L 811.83125 65.809063 
L 821.83125 65.809063 
" style="fill: none; stroke: #00ffff; stroke-width: 0.9; stroke-linecap: square"/>
    </g>
    <g id="text_18">
     <!-- CH3_2KS -->
     <g transform="translate(829.83125 69.309063)scale(0.1 -0.1)">
      <use xlink:href="#DejaVuSans-43"/>
      <use xlink:href="#DejaVuSans-48" x="69.824219"/>
      <use xlink:href="#DejaVuSans-33" x="145.019531"/>
      <use xlink:href="#DejaVuSans-5f" x="208.642578"/>
      <use xlink:href="#DejaVuSans-32" x="258.642578"/>
      <use xlink:href="#DejaVuSans-4b" x="322.265625"/>
      <use xlink:href="#DejaVuSans-53" x="387.841797"/>
     </g>
    </g>
    <g id="line2d_21">
     <path d="M 801.83125 80.765313 
L 811.83125 80.765313 
L 821.83125 80.765313 
" style="fill: none; stroke: #ffa500; stroke-width: 0.9; stroke-linecap: square"/>
    </g>
    <g id="text_19">
     <!-- CH4_2KS -->
     <g transform="translate(829.83125 84.265313)scale(0.1 -0.1)">
      <defs>
       <path id="DejaVuSans-34" d="M 2419 4116 
L 825 1625 
L 2419 1625 
L 2419 4116 
z
M 2253 4666 
L 3047 4666 
L 3047 1625 
L 3713 1625 
L 3713 1100 
L 3047 1100 
L 3047 0 
L 2419 0 
L 2419 1100 
L 313 1100 
L 313 1709 
L 2253 4666 
z
" transform="scale(0.015625)"/>
      </defs>
      <use xlink:href="#DejaVuSans-43"/>
      <use xlink:href="#DejaVuSans-48" x="69.824219"/>
      <use xlink:href="#DejaVuSans-34" x="145.019531"/>
      <use xlink:href="#DejaVuSans-5f" x="208.642578"/>
      <use xlink:href="#DejaVuSans-32" x="258.642578"/>
      <use xlink:href="#DejaVuSans-4b" x="322.265625"/>
      <use xlink:href="#DejaVuSans-53" x="387.841797"/>
     </g>
    </g>
    <g id="line2d_22">
     <path d="M 801.83125 95.721563 
L 811.83125 95.721563 
L 821.83125 95.721563 
" style="fill: none; stroke: #ff4500; stroke-width: 0.9; stroke-linecap: square"/>
    </g>
    <g id="text_20">
     <!-- CH5_2KS -->
     <g transform="translate(829.83125 99.221563)scale(0.1 -0.1)">
      <use xlink:href="#DejaVuSans-43"/>
      <use xlink:href="#DejaVuSans-48" x="69.824219"/>
      <use xlink:href="#DejaVuSans-35" x="145.019531"/>
      <use xlink:href="#DejaVuSans-5f" x="208.642578"/>
      <use xlink:href="#DejaVuSans-32" x="258.642578"/>
      <use xlink:href="#DejaVuSans-4b" x="322.265625"/>
      <use xlink:href="#DejaVuSans-53" x="387.841797"/>
     </g>
    </g>
   </g>
  </g>
 </g>
 <defs>
  <clipPath id="p1039aa94d2">
   <rect x="46.965625" y="22.798125" width="837" height="271.8"/>
  </clipPath>
 </defs>
</svg>
