<?xml version="1.0" encoding="utf-8" standalone="no"?>
<!DOCTYPE svg PUBLIC "-//W3C//DTD SVG 1.1//EN"
  "http://www.w3.org/Graphics/SVG/1.1/DTD/svg11.dtd">
<svg xmlns:xlink="http://www.w3.org/1999/xlink" width="891.165625pt" height="332.154375pt" viewBox="0 0 891.165625 332.154375" xmlns="http://www.w3.org/2000/svg" version="1.1">
 <metadata>
  <rdf:RDF xmlns:dc="http://purl.org/dc/elements/1.1/" xmlns:cc="http://creativecommons.org/ns#" xmlns:rdf="http://www.w3.org/1999/02/22-rdf-syntax-ns#">
   <cc:Work>
    <dc:type rdf:resource="http://purl.org/dc/dcmitype/StillImage"/>
    <dc:date>2022-06-21T21:13:42.629859</dc:date>
    <dc:format>image/svg+xml</dc:format>
    <dc:creator>
     <cc:Agent>
      <dc:title>Matplotlib v3.5.2, https://matplotlib.org/</dc:title>
     </cc:Agent>
    </dc:creator>
   </cc:Work>
  </rdf:RDF>
 </metadata>
 <defs>
  <style type="text/css">*{stroke-linejoin: round; stroke-linecap: butt}</style>
 </defs>
 <g id="figure_1">
  <g id="patch_1">
   <path d="M 0 332.154375 
L 891.165625 332.154375 
L 891.165625 0 
L 0 0 
L 0 332.154375 
z
" style="fill: none"/>
  </g>
  <g id="axes_1">
   <g id="patch_2">
    <path d="M 46.965625 294.598125 
L 883.965625 294.598125 
L 883.965625 22.798125 
L 46.965625 22.798125 
z
" style="fill: #ffffff"/>
   </g>
   <g id="matplotlib.axis_1">
    <g id="xtick_1">
     <g id="line2d_1">
      <defs>
       <path id="m7c688bee53" d="M 0 0 
L 0 3.5 
" style="stroke: #000000; stroke-width: 0.8"/>
      </defs>
      <g>
       <use xlink:href="#m7c688bee53" x="85.01108" y="294.598125" style="stroke: #000000; stroke-width: 0.8"/>
      </g>
     </g>
     <g id="text_1">
      <!-- 0 -->
      <g transform="translate(81.82983 309.196562)scale(0.1 -0.1)">
       <defs>
        <path id="DejaVuSans-30" d="M 2034 4250 
Q 1547 4250 1301 3770 
Q 1056 3291 1056 2328 
Q 1056 1369 1301 889 
Q 1547 409 2034 409 
Q 2525 409 2770 889 
Q 3016 1369 3016 2328 
Q 3016 3291 2770 3770 
Q 2525 4250 2034 4250 
z
M 2034 4750 
Q 2819 4750 3233 4129 
Q 3647 3509 3647 2328 
Q 3647 1150 3233 529 
Q 2819 -91 2034 -91 
Q 1250 -91 836 529 
Q 422 1150 422 2328 
Q 422 3509 836 4129 
Q 1250 4750 2034 4750 
z
" transform="scale(0.015625)"/>
       </defs>
       <use xlink:href="#DejaVuSans-30"/>
      </g>
     </g>
    </g>
    <g id="xtick_2">
     <g id="line2d_2">
      <g>
       <use xlink:href="#m7c688bee53" x="212.253402" y="294.598125" style="stroke: #000000; stroke-width: 0.8"/>
      </g>
     </g>
     <g id="text_2">
      <!-- 50 -->
      <g transform="translate(205.890902 309.196562)scale(0.1 -0.1)">
       <defs>
        <path id="DejaVuSans-35" d="M 691 4666 
L 3169 4666 
L 3169 4134 
L 1269 4134 
L 1269 2991 
Q 1406 3038 1543 3061 
Q 1681 3084 1819 3084 
Q 2600 3084 3056 2656 
Q 3513 2228 3513 1497 
Q 3513 744 3044 326 
Q 2575 -91 1722 -91 
Q 1428 -91 1123 -41 
Q 819 9 494 109 
L 494 744 
Q 775 591 1075 516 
Q 1375 441 1709 441 
Q 2250 441 2565 725 
Q 2881 1009 2881 1497 
Q 2881 1984 2565 2268 
Q 2250 2553 1709 2553 
Q 1456 2553 1204 2497 
Q 953 2441 691 2322 
L 691 4666 
z
" transform="scale(0.015625)"/>
       </defs>
       <use xlink:href="#DejaVuSans-35"/>
       <use xlink:href="#DejaVuSans-30" x="63.623047"/>
      </g>
     </g>
    </g>
    <g id="xtick_3">
     <g id="line2d_3">
      <g>
       <use xlink:href="#m7c688bee53" x="339.495725" y="294.598125" style="stroke: #000000; stroke-width: 0.8"/>
      </g>
     </g>
     <g id="text_3">
      <!-- 100 -->
      <g transform="translate(329.951975 309.196562)scale(0.1 -0.1)">
       <defs>
        <path id="DejaVuSans-31" d="M 794 531 
L 1825 531 
L 1825 4091 
L 703 3866 
L 703 4441 
L 1819 4666 
L 2450 4666 
L 2450 531 
L 3481 531 
L 3481 0 
L 794 0 
L 794 531 
z
" transform="scale(0.015625)"/>
       </defs>
       <use xlink:href="#DejaVuSans-31"/>
       <use xlink:href="#DejaVuSans-30" x="63.623047"/>
       <use xlink:href="#DejaVuSans-30" x="127.246094"/>
      </g>
     </g>
    </g>
    <g id="xtick_4">
     <g id="line2d_4">
      <g>
       <use xlink:href="#m7c688bee53" x="466.738048" y="294.598125" style="stroke: #000000; stroke-width: 0.8"/>
      </g>
     </g>
     <g id="text_4">
      <!-- 150 -->
      <g transform="translate(457.194298 309.196562)scale(0.1 -0.1)">
       <use xlink:href="#DejaVuSans-31"/>
       <use xlink:href="#DejaVuSans-35" x="63.623047"/>
       <use xlink:href="#DejaVuSans-30" x="127.246094"/>
      </g>
     </g>
    </g>
    <g id="xtick_5">
     <g id="line2d_5">
      <g>
       <use xlink:href="#m7c688bee53" x="593.980371" y="294.598125" style="stroke: #000000; stroke-width: 0.8"/>
      </g>
     </g>
     <g id="text_5">
      <!-- 200 -->
      <g transform="translate(584.436621 309.196562)scale(0.1 -0.1)">
       <defs>
        <path id="DejaVuSans-32" d="M 1228 531 
L 3431 531 
L 3431 0 
L 469 0 
L 469 531 
Q 828 903 1448 1529 
Q 2069 2156 2228 2338 
Q 2531 2678 2651 2914 
Q 2772 3150 2772 3378 
Q 2772 3750 2511 3984 
Q 2250 4219 1831 4219 
Q 1534 4219 1204 4116 
Q 875 4013 500 3803 
L 500 4441 
Q 881 4594 1212 4672 
Q 1544 4750 1819 4750 
Q 2544 4750 2975 4387 
Q 3406 4025 3406 3419 
Q 3406 3131 3298 2873 
Q 3191 2616 2906 2266 
Q 2828 2175 2409 1742 
Q 1991 1309 1228 531 
z
" transform="scale(0.015625)"/>
       </defs>
       <use xlink:href="#DejaVuSans-32"/>
       <use xlink:href="#DejaVuSans-30" x="63.623047"/>
       <use xlink:href="#DejaVuSans-30" x="127.246094"/>
      </g>
     </g>
    </g>
    <g id="xtick_6">
     <g id="line2d_6">
      <g>
       <use xlink:href="#m7c688bee53" x="721.222694" y="294.598125" style="stroke: #000000; stroke-width: 0.8"/>
      </g>
     </g>
     <g id="text_6">
      <!-- 250 -->
      <g transform="translate(711.678944 309.196562)scale(0.1 -0.1)">
       <use xlink:href="#DejaVuSans-32"/>
       <use xlink:href="#DejaVuSans-35" x="63.623047"/>
       <use xlink:href="#DejaVuSans-30" x="127.246094"/>
      </g>
     </g>
    </g>
    <g id="xtick_7">
     <g id="line2d_7">
      <g>
       <use xlink:href="#m7c688bee53" x="848.465017" y="294.598125" style="stroke: #000000; stroke-width: 0.8"/>
      </g>
     </g>
     <g id="text_7">
      <!-- 300 -->
      <g transform="translate(838.921267 309.196562)scale(0.1 -0.1)">
       <defs>
        <path id="DejaVuSans-33" d="M 2597 2516 
Q 3050 2419 3304 2112 
Q 3559 1806 3559 1356 
Q 3559 666 3084 287 
Q 2609 -91 1734 -91 
Q 1441 -91 1130 -33 
Q 819 25 488 141 
L 488 750 
Q 750 597 1062 519 
Q 1375 441 1716 441 
Q 2309 441 2620 675 
Q 2931 909 2931 1356 
Q 2931 1769 2642 2001 
Q 2353 2234 1838 2234 
L 1294 2234 
L 1294 2753 
L 1863 2753 
Q 2328 2753 2575 2939 
Q 2822 3125 2822 3475 
Q 2822 3834 2567 4026 
Q 2313 4219 1838 4219 
Q 1578 4219 1281 4162 
Q 984 4106 628 3988 
L 628 4550 
Q 988 4650 1302 4700 
Q 1616 4750 1894 4750 
Q 2613 4750 3031 4423 
Q 3450 4097 3450 3541 
Q 3450 3153 3228 2886 
Q 3006 2619 2597 2516 
z
" transform="scale(0.015625)"/>
       </defs>
       <use xlink:href="#DejaVuSans-33"/>
       <use xlink:href="#DejaVuSans-30" x="63.623047"/>
       <use xlink:href="#DejaVuSans-30" x="127.246094"/>
      </g>
     </g>
    </g>
    <g id="text_8">
     <!-- Próbka -->
     <g transform="translate(448.489844 322.874687)scale(0.1 -0.1)">
      <defs>
       <path id="DejaVuSans-50" d="M 1259 4147 
L 1259 2394 
L 2053 2394 
Q 2494 2394 2734 2622 
Q 2975 2850 2975 3272 
Q 2975 3691 2734 3919 
Q 2494 4147 2053 4147 
L 1259 4147 
z
M 628 4666 
L 2053 4666 
Q 2838 4666 3239 4311 
Q 3641 3956 3641 3272 
Q 3641 2581 3239 2228 
Q 2838 1875 2053 1875 
L 1259 1875 
L 1259 0 
L 628 0 
L 628 4666 
z
" transform="scale(0.015625)"/>
       <path id="DejaVuSans-72" d="M 2631 2963 
Q 2534 3019 2420 3045 
Q 2306 3072 2169 3072 
Q 1681 3072 1420 2755 
Q 1159 2438 1159 1844 
L 1159 0 
L 581 0 
L 581 3500 
L 1159 3500 
L 1159 2956 
Q 1341 3275 1631 3429 
Q 1922 3584 2338 3584 
Q 2397 3584 2469 3576 
Q 2541 3569 2628 3553 
L 2631 2963 
z
" transform="scale(0.015625)"/>
       <path id="DejaVuSans-f3" d="M 1959 3097 
Q 1497 3097 1228 2736 
Q 959 2375 959 1747 
Q 959 1119 1226 758 
Q 1494 397 1959 397 
Q 2419 397 2687 759 
Q 2956 1122 2956 1747 
Q 2956 2369 2687 2733 
Q 2419 3097 1959 3097 
z
M 1959 3584 
Q 2709 3584 3137 3096 
Q 3566 2609 3566 1747 
Q 3566 888 3137 398 
Q 2709 -91 1959 -91 
Q 1206 -91 779 398 
Q 353 888 353 1747 
Q 353 2609 779 3096 
Q 1206 3584 1959 3584 
z
M 2394 5119 
L 3016 5119 
L 1998 3944 
L 1519 3944 
L 2394 5119 
z
" transform="scale(0.015625)"/>
       <path id="DejaVuSans-62" d="M 3116 1747 
Q 3116 2381 2855 2742 
Q 2594 3103 2138 3103 
Q 1681 3103 1420 2742 
Q 1159 2381 1159 1747 
Q 1159 1113 1420 752 
Q 1681 391 2138 391 
Q 2594 391 2855 752 
Q 3116 1113 3116 1747 
z
M 1159 2969 
Q 1341 3281 1617 3432 
Q 1894 3584 2278 3584 
Q 2916 3584 3314 3078 
Q 3713 2572 3713 1747 
Q 3713 922 3314 415 
Q 2916 -91 2278 -91 
Q 1894 -91 1617 61 
Q 1341 213 1159 525 
L 1159 0 
L 581 0 
L 581 4863 
L 1159 4863 
L 1159 2969 
z
" transform="scale(0.015625)"/>
       <path id="DejaVuSans-6b" d="M 581 4863 
L 1159 4863 
L 1159 1991 
L 2875 3500 
L 3609 3500 
L 1753 1863 
L 3688 0 
L 2938 0 
L 1159 1709 
L 1159 0 
L 581 0 
L 581 4863 
z
" transform="scale(0.015625)"/>
       <path id="DejaVuSans-61" d="M 2194 1759 
Q 1497 1759 1228 1600 
Q 959 1441 959 1056 
Q 959 750 1161 570 
Q 1363 391 1709 391 
Q 2188 391 2477 730 
Q 2766 1069 2766 1631 
L 2766 1759 
L 2194 1759 
z
M 3341 1997 
L 3341 0 
L 2766 0 
L 2766 531 
Q 2569 213 2275 61 
Q 1981 -91 1556 -91 
Q 1019 -91 701 211 
Q 384 513 384 1019 
Q 384 1609 779 1909 
Q 1175 2209 1959 2209 
L 2766 2209 
L 2766 2266 
Q 2766 2663 2505 2880 
Q 2244 3097 1772 3097 
Q 1472 3097 1187 3025 
Q 903 2953 641 2809 
L 641 3341 
Q 956 3463 1253 3523 
Q 1550 3584 1831 3584 
Q 2591 3584 2966 3190 
Q 3341 2797 3341 1997 
z
" transform="scale(0.015625)"/>
      </defs>
      <use xlink:href="#DejaVuSans-50"/>
      <use xlink:href="#DejaVuSans-72" x="58.552734"/>
      <use xlink:href="#DejaVuSans-f3" x="97.416016"/>
      <use xlink:href="#DejaVuSans-62" x="158.597656"/>
      <use xlink:href="#DejaVuSans-6b" x="222.074219"/>
      <use xlink:href="#DejaVuSans-61" x="278.234375"/>
     </g>
    </g>
   </g>
   <g id="matplotlib.axis_2">
    <g id="ytick_1">
     <g id="line2d_8">
      <defs>
       <path id="m85b532c1ec" d="M 0 0 
L -3.5 0 
" style="stroke: #000000; stroke-width: 0.8"/>
      </defs>
      <g>
       <use xlink:href="#m85b532c1ec" x="46.965625" y="282.849195" style="stroke: #000000; stroke-width: 0.8"/>
      </g>
     </g>
     <g id="text_9">
      <!-- 0 -->
      <g transform="translate(33.603125 286.648413)scale(0.1 -0.1)">
       <use xlink:href="#DejaVuSans-30"/>
      </g>
     </g>
    </g>
    <g id="ytick_2">
     <g id="line2d_9">
      <g>
       <use xlink:href="#m85b532c1ec" x="46.965625" y="252.568446" style="stroke: #000000; stroke-width: 0.8"/>
      </g>
     </g>
     <g id="text_10">
      <!-- 100 -->
      <g transform="translate(20.878125 256.367665)scale(0.1 -0.1)">
       <use xlink:href="#DejaVuSans-31"/>
       <use xlink:href="#DejaVuSans-30" x="63.623047"/>
       <use xlink:href="#DejaVuSans-30" x="127.246094"/>
      </g>
     </g>
    </g>
    <g id="ytick_3">
     <g id="line2d_10">
      <g>
       <use xlink:href="#m85b532c1ec" x="46.965625" y="222.287697" style="stroke: #000000; stroke-width: 0.8"/>
      </g>
     </g>
     <g id="text_11">
      <!-- 200 -->
      <g transform="translate(20.878125 226.086916)scale(0.1 -0.1)">
       <use xlink:href="#DejaVuSans-32"/>
       <use xlink:href="#DejaVuSans-30" x="63.623047"/>
       <use xlink:href="#DejaVuSans-30" x="127.246094"/>
      </g>
     </g>
    </g>
    <g id="ytick_4">
     <g id="line2d_11">
      <g>
       <use xlink:href="#m85b532c1ec" x="46.965625" y="192.006949" style="stroke: #000000; stroke-width: 0.8"/>
      </g>
     </g>
     <g id="text_12">
      <!-- 300 -->
      <g transform="translate(20.878125 195.806167)scale(0.1 -0.1)">
       <use xlink:href="#DejaVuSans-33"/>
       <use xlink:href="#DejaVuSans-30" x="63.623047"/>
       <use xlink:href="#DejaVuSans-30" x="127.246094"/>
      </g>
     </g>
    </g>
    <g id="ytick_5">
     <g id="line2d_12">
      <g>
       <use xlink:href="#m85b532c1ec" x="46.965625" y="161.7262" style="stroke: #000000; stroke-width: 0.8"/>
      </g>
     </g>
     <g id="text_13">
      <!-- 400 -->
      <g transform="translate(20.878125 165.525419)scale(0.1 -0.1)">
       <defs>
        <path id="DejaVuSans-34" d="M 2419 4116 
L 825 1625 
L 2419 1625 
L 2419 4116 
z
M 2253 4666 
L 3047 4666 
L 3047 1625 
L 3713 1625 
L 3713 1100 
L 3047 1100 
L 3047 0 
L 2419 0 
L 2419 1100 
L 313 1100 
L 313 1709 
L 2253 4666 
z
" transform="scale(0.015625)"/>
       </defs>
       <use xlink:href="#DejaVuSans-34"/>
       <use xlink:href="#DejaVuSans-30" x="63.623047"/>
       <use xlink:href="#DejaVuSans-30" x="127.246094"/>
      </g>
     </g>
    </g>
    <g id="ytick_6">
     <g id="line2d_13">
      <g>
       <use xlink:href="#m85b532c1ec" x="46.965625" y="131.445451" style="stroke: #000000; stroke-width: 0.8"/>
      </g>
     </g>
     <g id="text_14">
      <!-- 500 -->
      <g transform="translate(20.878125 135.24467)scale(0.1 -0.1)">
       <use xlink:href="#DejaVuSans-35"/>
       <use xlink:href="#DejaVuSans-30" x="63.623047"/>
       <use xlink:href="#DejaVuSans-30" x="127.246094"/>
      </g>
     </g>
    </g>
    <g id="ytick_7">
     <g id="line2d_14">
      <g>
       <use xlink:href="#m85b532c1ec" x="46.965625" y="101.164703" style="stroke: #000000; stroke-width: 0.8"/>
      </g>
     </g>
     <g id="text_15">
      <!-- 600 -->
      <g transform="translate(20.878125 104.963921)scale(0.1 -0.1)">
       <defs>
        <path id="DejaVuSans-36" d="M 2113 2584 
Q 1688 2584 1439 2293 
Q 1191 2003 1191 1497 
Q 1191 994 1439 701 
Q 1688 409 2113 409 
Q 2538 409 2786 701 
Q 3034 994 3034 1497 
Q 3034 2003 2786 2293 
Q 2538 2584 2113 2584 
z
M 3366 4563 
L 3366 3988 
Q 3128 4100 2886 4159 
Q 2644 4219 2406 4219 
Q 1781 4219 1451 3797 
Q 1122 3375 1075 2522 
Q 1259 2794 1537 2939 
Q 1816 3084 2150 3084 
Q 2853 3084 3261 2657 
Q 3669 2231 3669 1497 
Q 3669 778 3244 343 
Q 2819 -91 2113 -91 
Q 1303 -91 875 529 
Q 447 1150 447 2328 
Q 447 3434 972 4092 
Q 1497 4750 2381 4750 
Q 2619 4750 2861 4703 
Q 3103 4656 3366 4563 
z
" transform="scale(0.015625)"/>
       </defs>
       <use xlink:href="#DejaVuSans-36"/>
       <use xlink:href="#DejaVuSans-30" x="63.623047"/>
       <use xlink:href="#DejaVuSans-30" x="127.246094"/>
      </g>
     </g>
    </g>
    <g id="ytick_8">
     <g id="line2d_15">
      <g>
       <use xlink:href="#m85b532c1ec" x="46.965625" y="70.883954" style="stroke: #000000; stroke-width: 0.8"/>
      </g>
     </g>
     <g id="text_16">
      <!-- 700 -->
      <g transform="translate(20.878125 74.683173)scale(0.1 -0.1)">
       <defs>
        <path id="DejaVuSans-37" d="M 525 4666 
L 3525 4666 
L 3525 4397 
L 1831 0 
L 1172 0 
L 2766 4134 
L 525 4134 
L 525 4666 
z
" transform="scale(0.015625)"/>
       </defs>
       <use xlink:href="#DejaVuSans-37"/>
       <use xlink:href="#DejaVuSans-30" x="63.623047"/>
       <use xlink:href="#DejaVuSans-30" x="127.246094"/>
      </g>
     </g>
    </g>
    <g id="ytick_9">
     <g id="line2d_16">
      <g>
       <use xlink:href="#m85b532c1ec" x="46.965625" y="40.603205" style="stroke: #000000; stroke-width: 0.8"/>
      </g>
     </g>
     <g id="text_17">
      <!-- 800 -->
      <g transform="translate(20.878125 44.402424)scale(0.1 -0.1)">
       <defs>
        <path id="DejaVuSans-38" d="M 2034 2216 
Q 1584 2216 1326 1975 
Q 1069 1734 1069 1313 
Q 1069 891 1326 650 
Q 1584 409 2034 409 
Q 2484 409 2743 651 
Q 3003 894 3003 1313 
Q 3003 1734 2745 1975 
Q 2488 2216 2034 2216 
z
M 1403 2484 
Q 997 2584 770 2862 
Q 544 3141 544 3541 
Q 544 4100 942 4425 
Q 1341 4750 2034 4750 
Q 2731 4750 3128 4425 
Q 3525 4100 3525 3541 
Q 3525 3141 3298 2862 
Q 3072 2584 2669 2484 
Q 3125 2378 3379 2068 
Q 3634 1759 3634 1313 
Q 3634 634 3220 271 
Q 2806 -91 2034 -91 
Q 1263 -91 848 271 
Q 434 634 434 1313 
Q 434 1759 690 2068 
Q 947 2378 1403 2484 
z
M 1172 3481 
Q 1172 3119 1398 2916 
Q 1625 2713 2034 2713 
Q 2441 2713 2670 2916 
Q 2900 3119 2900 3481 
Q 2900 3844 2670 4047 
Q 2441 4250 2034 4250 
Q 1625 4250 1398 4047 
Q 1172 3844 1172 3481 
z
" transform="scale(0.015625)"/>
       </defs>
       <use xlink:href="#DejaVuSans-38"/>
       <use xlink:href="#DejaVuSans-30" x="63.623047"/>
       <use xlink:href="#DejaVuSans-30" x="127.246094"/>
      </g>
     </g>
    </g>
    <g id="text_18">
     <!-- Wartość -->
     <g transform="translate(14.798438 178.816094)rotate(-90)scale(0.1 -0.1)">
      <defs>
       <path id="DejaVuSans-57" d="M 213 4666 
L 850 4666 
L 1831 722 
L 2809 4666 
L 3519 4666 
L 4500 722 
L 5478 4666 
L 6119 4666 
L 4947 0 
L 4153 0 
L 3169 4050 
L 2175 0 
L 1381 0 
L 213 4666 
z
" transform="scale(0.015625)"/>
       <path id="DejaVuSans-74" d="M 1172 4494 
L 1172 3500 
L 2356 3500 
L 2356 3053 
L 1172 3053 
L 1172 1153 
Q 1172 725 1289 603 
Q 1406 481 1766 481 
L 2356 481 
L 2356 0 
L 1766 0 
Q 1100 0 847 248 
Q 594 497 594 1153 
L 594 3053 
L 172 3053 
L 172 3500 
L 594 3500 
L 594 4494 
L 1172 4494 
z
" transform="scale(0.015625)"/>
       <path id="DejaVuSans-6f" d="M 1959 3097 
Q 1497 3097 1228 2736 
Q 959 2375 959 1747 
Q 959 1119 1226 758 
Q 1494 397 1959 397 
Q 2419 397 2687 759 
Q 2956 1122 2956 1747 
Q 2956 2369 2687 2733 
Q 2419 3097 1959 3097 
z
M 1959 3584 
Q 2709 3584 3137 3096 
Q 3566 2609 3566 1747 
Q 3566 888 3137 398 
Q 2709 -91 1959 -91 
Q 1206 -91 779 398 
Q 353 888 353 1747 
Q 353 2609 779 3096 
Q 1206 3584 1959 3584 
z
" transform="scale(0.015625)"/>
       <path id="DejaVuSans-15b" d="M 2242 5119 
L 2864 5119 
L 1846 3944 
L 1367 3944 
L 2242 5119 
z
M 2834 3397 
L 2834 2853 
Q 2591 2978 2328 3040 
Q 2066 3103 1784 3103 
Q 1356 3103 1142 2972 
Q 928 2841 928 2578 
Q 928 2378 1081 2264 
Q 1234 2150 1697 2047 
L 1894 2003 
Q 2506 1872 2764 1633 
Q 3022 1394 3022 966 
Q 3022 478 2636 193 
Q 2250 -91 1575 -91 
Q 1294 -91 989 -36 
Q 684 19 347 128 
L 347 722 
Q 666 556 975 473 
Q 1284 391 1588 391 
Q 1994 391 2212 530 
Q 2431 669 2431 922 
Q 2431 1156 2273 1281 
Q 2116 1406 1581 1522 
L 1381 1569 
Q 847 1681 609 1914 
Q 372 2147 372 2553 
Q 372 3047 722 3315 
Q 1072 3584 1716 3584 
Q 2034 3584 2315 3537 
Q 2597 3491 2834 3397 
z
" transform="scale(0.015625)"/>
       <path id="DejaVuSans-107" d="M 3122 3366 
L 3122 2828 
Q 2878 2963 2633 3030 
Q 2388 3097 2138 3097 
Q 1578 3097 1268 2742 
Q 959 2388 959 1747 
Q 959 1106 1268 751 
Q 1578 397 2138 397 
Q 2388 397 2633 464 
Q 2878 531 3122 666 
L 3122 134 
Q 2881 22 2623 -34 
Q 2366 -91 2075 -91 
Q 1284 -91 818 406 
Q 353 903 353 1747 
Q 353 2603 823 3093 
Q 1294 3584 2113 3584 
Q 2378 3584 2631 3529 
Q 2884 3475 3122 3366 
z
M 2466 5119 
L 3088 5119 
L 2070 3944 
L 1591 3944 
L 2466 5119 
z
" transform="scale(0.015625)"/>
      </defs>
      <use xlink:href="#DejaVuSans-57"/>
      <use xlink:href="#DejaVuSans-61" x="92.501953"/>
      <use xlink:href="#DejaVuSans-72" x="153.78125"/>
      <use xlink:href="#DejaVuSans-74" x="194.894531"/>
      <use xlink:href="#DejaVuSans-6f" x="234.103516"/>
      <use xlink:href="#DejaVuSans-15b" x="295.285156"/>
      <use xlink:href="#DejaVuSans-107" x="347.384766"/>
     </g>
    </g>
   </g>
   <g id="line2d_17">
    <path d="M 85.01108 159.30374 
L 87.555926 115.093847 
L 90.100772 138.107216 
L 92.645619 112.065772 
L 95.190465 162.331815 
L 97.735312 177.472189 
L 100.280158 190.795719 
L 102.825005 133.867911 
L 105.369851 161.120585 
L 107.914698 93.897323 
L 110.459544 193.218178 
L 113.004391 175.049729 
L 115.549237 95.108553 
L 118.094083 143.557751 
L 120.63893 91.172055 
L 123.183776 170.810424 
L 125.728623 193.823793 
L 128.273469 125.994916 
L 130.818316 213.809088 
L 133.363162 167.78235 
L 135.908009 149.008285 
L 138.452855 176.563767 
L 140.997702 127.811761 
L 143.542548 185.950799 
L 146.087395 154.156013 
L 148.632241 226.527002 
L 151.177087 221.076467 
L 153.721934 176.866574 
L 156.26678 140.529676 
L 158.811627 165.965505 
L 161.356473 141.740906 
L 163.90132 179.894649 
L 166.446166 144.163366 
L 168.991013 179.894649 
L 171.535859 147.797055 
L 174.080706 176.563767 
L 176.625552 230.766307 
L 179.170398 214.414703 
L 181.715245 145.071788 
L 184.260091 195.640638 
L 186.804938 169.599195 
L 189.349784 172.021654 
L 191.894631 168.085157 
L 194.439477 193.823793 
L 196.984324 163.543045 
L 199.52917 222.893312 
L 202.074017 129.022991 
L 204.618863 197.457483 
L 207.16371 218.048392 
L 209.708556 205.330478 
L 212.253402 235.005612 
L 214.798249 205.330478 
L 217.343095 213.809088 
L 219.887942 102.375932 
L 222.432788 184.133954 
L 224.977635 219.259622 
L 227.522481 167.78235 
L 230.067328 187.162029 
L 232.612174 201.696788 
L 235.157021 205.936093 
L 237.701867 159.30374 
L 240.246713 207.752938 
L 242.79156 199.274328 
L 245.336406 194.429408 
L 247.881253 228.343847 
L 250.426099 114.488232 
L 252.970946 110.248927 
L 255.515792 199.274328 
L 258.060639 174.444114 
L 260.605485 159.909355 
L 263.150332 154.45882 
L 265.695178 192.006949 
L 268.240025 197.457483 
L 270.784871 190.190104 
L 273.329717 177.472189 
L 275.874564 260.441441 
L 278.41941 205.936093 
L 280.964257 194.429408 
L 283.509103 142.952136 
L 286.05395 110.248927 
L 288.598796 113.882617 
L 291.143643 120.544382 
L 293.688489 141.740906 
L 296.233336 113.277002 
L 298.778182 117.516307 
L 301.323028 42.42005 
L 303.867875 61.799729 
L 306.412721 87.841173 
L 308.957568 116.305077 
L 311.502414 230.160692 
L 314.047261 154.45882 
L 316.592107 119.030344 
L 319.136954 99.953473 
L 321.6818 166.268312 
L 324.226647 168.690772 
L 326.771493 83.601868 
L 329.31634 37.877938 
L 331.861186 130.839836 
L 334.406032 70.883954 
L 336.950879 125.994916 
L 339.495725 172.021654 
L 342.040572 163.543045 
L 344.585418 106.009622 
L 347.130265 104.192777 
L 349.675111 186.556414 
L 352.219958 108.432082 
L 354.764804 153.853205 
L 357.309651 105.404007 
L 359.854497 129.628606 
L 362.399343 168.99358 
L 364.94419 115.093847 
L 367.489036 104.192777 
L 370.033883 236.216842 
L 372.578729 104.798392 
L 375.123576 218.654007 
L 377.668422 182.922724 
L 380.213269 59.377269 
L 382.758115 185.950799 
L 385.302962 124.178072 
L 387.847808 222.287697 
L 390.392654 106.615237 
L 392.937501 90.869248 
L 395.482347 142.952136 
L 398.027194 177.472189 
L 400.57204 52.10989 
L 403.116887 99.953473 
L 405.661733 107.220852 
L 408.20658 170.507617 
L 410.751426 112.671387 
L 413.296273 164.14866 
L 415.841119 172.627269 
L 418.385966 158.698125 
L 420.930812 112.671387 
L 423.475658 195.640638 
L 426.020505 181.105879 
L 428.565351 190.190104 
L 431.110198 71.489569 
L 433.655044 107.826467 
L 436.199891 61.799729 
L 438.744737 158.09251 
L 441.289584 165.35989 
L 443.83443 89.355211 
L 446.379277 122.966842 
L 448.924123 179.894649 
L 451.468969 72.700799 
L 454.013816 121.755612 
L 456.558662 177.472189 
L 459.103509 183.528339 
L 461.648355 157.486895 
L 464.193202 171.416039 
L 466.738048 177.472189 
L 469.282895 182.317109 
L 471.827741 91.474863 
L 474.372588 132.051066 
L 476.917434 170.204809 
L 479.462281 184.133954 
L 482.007127 91.474863 
L 484.551973 177.472189 
L 487.09682 173.838499 
L 489.641666 204.119248 
L 494.731359 239.244916 
L 497.276206 168.99358 
L 499.821052 175.655344 
L 502.365899 159.909355 
L 507.455592 218.654007 
L 510.000438 193.823793 
L 512.545284 187.162029 
L 515.090131 146.888633 
L 517.634977 122.361227 
L 520.179824 194.429408 
L 522.72467 160.51497 
L 525.269517 220.470852 
L 527.814363 216.837162 
L 530.35921 177.472189 
L 532.904056 183.528339 
L 535.448903 228.343847 
L 537.993749 168.387965 
L 540.538596 184.739569 
L 543.083442 147.797055 
L 545.628288 182.922724 
L 548.173135 95.714168 
L 550.717981 227.738232 
L 553.262828 188.978874 
L 555.807674 137.501601 
L 558.352521 182.922724 
L 560.897367 132.656681 
L 563.442214 227.132617 
L 565.98706 213.50628 
L 568.531907 188.978874 
L 571.076753 99.953473 
L 573.621599 179.289034 
L 576.166446 193.218178 
L 578.711292 172.021654 
L 581.256139 217.442777 
L 583.800985 154.45882 
L 586.345832 203.210826 
L 588.890678 230.160692 
L 591.435525 192.612564 
L 593.980371 227.738232 
L 596.525218 260.441441 
L 599.070064 182.317109 
L 601.61491 216.837162 
L 604.159757 202.302403 
L 606.704603 163.543045 
L 609.24945 154.761628 
L 611.794296 242.878606 
L 614.339143 221.076467 
L 616.883989 247.117911 
L 619.428836 177.472189 
L 621.973682 210.175398 
L 624.518529 188.373259 
L 627.063375 224.104542 
L 629.608222 208.358553 
L 632.153068 197.457483 
L 634.697914 187.767644 
L 637.242761 172.627269 
L 639.787607 170.810424 
L 642.332454 175.655344 
L 644.8773 169.599195 
L 647.422147 147.191441 
L 649.966993 145.677403 
L 652.51184 193.218178 
L 655.056686 186.253606 
L 657.601533 184.739569 
L 660.146379 147.797055 
L 662.691225 207.147323 
L 665.236072 212.597858 
L 667.780918 235.611227 
L 670.325765 141.135291 
L 672.870611 226.527002 
L 675.415458 182.922724 
L 677.960304 173.838499 
L 680.505151 152.641975 
L 683.049997 205.936093 
L 685.594844 232.583152 
L 688.13969 180.197457 
L 690.684537 190.795719 
L 693.229383 215.020318 
L 695.774229 224.710157 
L 698.319076 204.724863 
L 700.863922 164.14866 
L 703.408769 167.176735 
L 705.953615 172.021654 
L 708.498462 245.906681 
L 711.043308 141.740906 
L 713.588155 162.93743 
L 716.133001 185.345184 
L 718.677848 158.698125 
L 721.222694 168.99358 
L 723.76754 204.724863 
L 726.312387 182.922724 
L 728.857233 35.15267 
L 731.40208 198.668713 
L 733.946926 218.654007 
L 736.491773 184.133954 
L 739.036619 181.711494 
L 741.581466 95.108553 
L 744.126312 167.78235 
L 746.671159 158.09251 
L 749.216005 236.216842 
L 751.760852 218.654007 
L 754.305698 106.009622 
L 756.850544 118.727537 
L 759.395391 113.882617 
L 761.940237 190.190104 
L 764.485084 193.218178 
L 767.02993 205.633285 
L 769.574777 185.950799 
L 772.119623 185.345184 
L 774.66447 215.020318 
L 777.209316 176.260959 
L 779.754163 201.091173 
L 782.299009 164.754275 
L 784.843855 165.35989 
L 787.388702 130.234221 
L 789.933548 187.767644 
L 792.478395 265.28636 
L 795.023241 182.922724 
L 797.568088 146.585826 
L 800.112934 142.346521 
L 802.657781 176.866574 
L 805.202627 161.7262 
L 807.747474 160.51497 
L 810.29232 207.147323 
L 812.837167 205.936093 
L 815.382013 198.063098 
L 817.926859 181.711494 
L 820.471706 162.331815 
L 823.016552 228.949462 
L 825.561399 133.867911 
L 828.106245 163.543045 
L 830.651092 173.838499 
L 833.195938 208.358553 
L 835.740785 143.557751 
L 838.285631 119.333152 
L 840.830478 165.965505 
L 843.375324 195.640638 
L 845.92017 132.656681 
L 845.92017 132.656681 
" clip-path="url(#p0c2d0f7dcb)" style="fill: none; stroke: #ff00ff; stroke-width: 0.9; stroke-linecap: square"/>
   </g>
   <g id="line2d_18">
    <path d="M 85.01108 255.596521 
L 87.555926 245.301066 
L 90.100772 246.512296 
L 92.645619 247.117911 
L 95.190465 228.949462 
L 97.735312 253.779676 
L 100.280158 233.188767 
L 102.825005 248.934756 
L 107.914698 202.908018 
L 110.459544 261.047055 
L 113.004391 250.751601 
L 115.549237 228.343847 
L 118.094083 213.203473 
L 120.63893 257.413366 
L 123.183776 256.202136 
L 125.728623 270.736895 
L 128.273469 261.65267 
L 130.818316 278.60989 
L 133.363162 253.779676 
L 135.908009 262.258285 
L 138.452855 247.117911 
L 140.997702 245.906681 
L 143.542548 241.667376 
L 146.087395 253.174061 
L 148.632241 273.76497 
L 151.177087 247.117911 
L 153.721934 263.469515 
L 156.26678 245.301066 
L 158.811627 250.751601 
L 161.356473 269.525665 
L 163.90132 261.65267 
L 166.446166 239.850531 
L 168.991013 251.962831 
L 171.535859 235.005612 
L 174.080706 271.948125 
L 176.625552 275.581815 
L 179.170398 261.047055 
L 181.715245 263.469515 
L 184.260091 267.103205 
L 186.804938 262.8639 
L 189.349784 245.301066 
L 191.894631 262.258285 
L 194.439477 254.385291 
L 196.984324 250.751601 
L 199.52917 271.948125 
L 202.074017 250.145986 
L 204.618863 242.878606 
L 207.16371 273.76497 
L 209.708556 276.793045 
L 212.253402 256.807751 
L 214.798249 273.159355 
L 217.343095 262.8639 
L 219.887942 261.047055 
L 222.432788 231.977537 
L 224.977635 276.18743 
L 227.522481 244.089836 
L 230.067328 270.736895 
L 232.612174 265.891975 
L 235.157021 274.9762 
L 237.701867 248.329141 
L 240.246713 274.370585 
L 242.79156 267.103205 
L 245.336406 279.215505 
L 247.881253 275.581815 
L 250.426099 252.568446 
L 252.970946 262.8639 
L 255.515792 256.202136 
L 258.060639 250.145986 
L 260.605485 261.047055 
L 263.150332 261.65267 
L 265.695178 260.441441 
L 268.240025 264.680745 
L 270.784871 259.835826 
L 273.329717 256.202136 
L 275.874564 271.34251 
L 278.41941 273.159355 
L 280.964257 262.8639 
L 283.509103 278.004275 
L 286.05395 235.005612 
L 288.598796 252.568446 
L 291.143643 233.794382 
L 293.688489 270.13128 
L 296.233336 250.751601 
L 298.778182 245.906681 
L 301.323028 195.640638 
L 303.867875 221.076467 
L 306.412721 248.329141 
L 308.957568 227.738232 
L 311.502414 267.103205 
L 314.047261 255.596521 
L 316.592107 245.906681 
L 319.136954 261.65267 
L 321.6818 235.611227 
L 324.226647 222.893312 
L 326.771493 244.089836 
L 329.31634 212.597858 
L 331.861186 240.456146 
L 334.406032 232.583152 
L 336.950879 213.203473 
L 339.495725 267.103205 
L 342.040572 244.695451 
L 344.585418 219.259622 
L 347.130265 241.061761 
L 349.675111 280.426735 
L 352.219958 245.301066 
L 354.764804 228.343847 
L 357.309651 228.949462 
L 359.854497 250.145986 
L 362.399343 278.60989 
L 364.94419 264.07513 
L 367.489036 250.751601 
L 370.033883 267.70882 
L 372.578729 221.682082 
L 375.123576 258.018981 
L 377.668422 251.962831 
L 380.213269 238.639301 
L 382.758115 255.596521 
L 385.302962 252.568446 
L 387.847808 268.314435 
L 390.392654 228.949462 
L 392.937501 205.330478 
L 395.482347 246.512296 
L 398.027194 266.49759 
L 400.57204 201.091173 
L 403.116887 254.385291 
L 405.661733 223.498927 
L 408.20658 254.385291 
L 410.751426 261.65267 
L 413.296273 261.65267 
L 415.841119 244.089836 
L 418.385966 265.891975 
L 420.930812 231.977537 
L 423.475658 256.807751 
L 426.020505 274.370585 
L 428.565351 234.399997 
L 431.110198 250.751601 
L 433.655044 258.624596 
L 436.199891 237.428072 
L 438.744737 240.456146 
L 441.289584 253.779676 
L 443.83443 262.258285 
L 446.379277 247.723526 
L 448.924123 265.891975 
L 451.468969 246.512296 
L 454.013816 267.70882 
L 456.558662 254.990906 
L 459.103509 233.188767 
L 464.193202 259.835826 
L 466.738048 250.145986 
L 469.282895 270.736895 
L 471.827741 251.962831 
L 474.372588 235.005612 
L 476.917434 253.174061 
L 479.462281 249.540371 
L 482.007127 222.590505 
L 484.551973 253.779676 
L 487.09682 245.906681 
L 489.641666 268.92005 
L 492.186513 260.441441 
L 494.731359 273.76497 
L 497.276206 254.990906 
L 499.821052 273.76497 
L 502.365899 255.596521 
L 504.910745 261.65267 
L 507.455592 265.28636 
L 510.000438 261.047055 
L 512.545284 272.856547 
L 515.090131 270.13128 
L 517.634977 245.906681 
L 520.179824 251.962831 
L 522.72467 239.244916 
L 525.269517 270.13128 
L 527.814363 248.329141 
L 530.35921 258.624596 
L 532.904056 251.962831 
L 535.448903 271.948125 
L 537.993749 251.962831 
L 540.538596 263.469515 
L 543.083442 240.456146 
L 545.628288 262.258285 
L 548.173135 260.441441 
L 550.717981 274.9762 
L 553.262828 273.76497 
L 555.807674 247.117911 
L 558.352521 264.680745 
L 560.897367 265.891975 
L 563.442214 270.13128 
L 565.98706 268.314435 
L 568.531907 243.484221 
L 571.076753 251.357216 
L 573.621599 246.512296 
L 576.166446 256.202136 
L 578.711292 256.807751 
L 581.256139 256.202136 
L 583.800985 249.540371 
L 586.345832 259.835826 
L 588.890678 269.525665 
L 593.980371 267.103205 
L 596.525218 273.159355 
L 599.070064 266.49759 
L 601.61491 253.174061 
L 604.159757 271.948125 
L 606.704603 253.779676 
L 609.24945 241.667376 
L 611.794296 272.55374 
L 614.339143 277.39866 
L 619.428836 245.301066 
L 621.973682 249.540371 
L 624.518529 261.047055 
L 627.063375 279.215505 
L 629.608222 267.103205 
L 632.153068 261.65267 
L 634.697914 256.807751 
L 637.242761 248.934756 
L 639.787607 257.716173 
L 642.332454 251.962831 
L 644.8773 261.047055 
L 647.422147 259.835826 
L 649.966993 241.061761 
L 652.51184 256.807751 
L 655.056686 248.329141 
L 657.601533 255.596521 
L 660.146379 242.878606 
L 662.691225 268.314435 
L 665.236072 264.07513 
L 667.780918 275.581815 
L 670.325765 271.34251 
L 672.870611 254.990906 
L 675.415458 236.216842 
L 677.960304 268.314435 
L 680.505151 263.469515 
L 683.049997 247.117911 
L 685.594844 254.990906 
L 688.13969 251.357216 
L 690.684537 262.258285 
L 693.229383 251.962831 
L 695.774229 256.202136 
L 698.319076 267.103205 
L 700.863922 270.736895 
L 703.408769 227.132617 
L 705.953615 270.736895 
L 708.498462 263.469515 
L 711.043308 261.65267 
L 713.588155 218.048392 
L 716.133001 253.779676 
L 718.677848 245.301066 
L 721.222694 251.962831 
L 723.76754 256.807751 
L 726.312387 215.625932 
L 728.857233 233.794382 
L 731.40208 245.906681 
L 733.946926 247.723526 
L 736.491773 266.49759 
L 739.036619 278.60989 
L 741.581466 248.329141 
L 744.126312 265.891975 
L 746.671159 265.891975 
L 749.216005 278.60989 
L 751.760852 273.76497 
L 754.305698 232.583152 
L 756.850544 253.174061 
L 759.395391 225.921387 
L 761.940237 268.92005 
L 764.485084 254.385291 
L 767.02993 256.807751 
L 769.574777 256.807751 
L 772.119623 248.329141 
L 774.66447 256.202136 
L 777.209316 253.174061 
L 779.754163 272.55374 
L 782.299009 234.399997 
L 784.843855 251.357216 
L 787.388702 245.301066 
L 789.933548 261.047055 
L 792.478395 270.13128 
L 795.023241 251.357216 
L 797.568088 262.258285 
L 800.112934 250.145986 
L 805.202627 253.779676 
L 807.747474 258.018981 
L 810.29232 260.441441 
L 812.837167 261.047055 
L 815.382013 261.047055 
L 817.926859 264.680745 
L 820.471706 259.230211 
L 823.016552 274.370585 
L 825.561399 229.555077 
L 828.106245 261.047055 
L 830.651092 273.159355 
L 833.195938 262.8639 
L 835.740785 234.399997 
L 838.285631 233.794382 
L 840.830478 250.751601 
L 843.375324 273.159355 
L 845.92017 231.371922 
L 845.92017 231.371922 
" clip-path="url(#p0c2d0f7dcb)" style="fill: none; stroke: #9400d3; stroke-width: 0.9; stroke-linecap: square"/>
   </g>
   <g id="line2d_19">
    <path d="M 85.01108 216.231547 
L 87.555926 261.65267 
L 90.100772 251.962831 
L 92.645619 251.962831 
L 95.190465 259.835826 
L 97.735312 250.145986 
L 100.280158 216.231547 
L 102.825005 255.596521 
L 105.369851 238.639301 
L 107.914698 250.751601 
L 110.459544 254.990906 
L 113.004391 265.891975 
L 115.549237 232.583152 
L 118.094083 215.020318 
L 120.63893 276.793045 
L 123.183776 258.018981 
L 125.728623 259.835826 
L 128.273469 262.258285 
L 130.818316 276.793045 
L 133.363162 250.145986 
L 135.908009 231.977537 
L 138.452855 238.033686 
L 140.997702 256.202136 
L 143.542548 253.174061 
L 146.087395 273.159355 
L 148.632241 278.60989 
L 151.177087 275.581815 
L 153.721934 256.807751 
L 156.26678 255.596521 
L 158.811627 246.512296 
L 161.356473 271.34251 
L 163.90132 271.948125 
L 166.446166 239.850531 
L 168.991013 255.596521 
L 171.535859 255.596521 
L 174.080706 278.004275 
L 176.625552 278.004275 
L 179.170398 273.159355 
L 181.715245 266.49759 
L 184.260091 269.525665 
L 186.804938 274.370585 
L 189.349784 264.07513 
L 191.894631 274.370585 
L 194.439477 255.596521 
L 196.984324 279.215505 
L 199.52917 279.215505 
L 202.074017 259.230211 
L 204.618863 262.258285 
L 207.16371 276.793045 
L 209.708556 277.39866 
L 212.253402 274.9762 
L 214.798249 275.581815 
L 217.343095 265.891975 
L 219.887942 266.49759 
L 222.432788 245.906681 
L 224.977635 265.891975 
L 227.522481 268.92005 
L 230.067328 269.525665 
L 232.612174 270.736895 
L 235.157021 278.60989 
L 237.701867 235.611227 
L 240.246713 276.793045 
L 242.79156 273.76497 
L 245.336406 277.39866 
L 247.881253 273.159355 
L 250.426099 258.624596 
L 252.970946 248.934756 
L 255.515792 263.469515 
L 258.060639 268.314435 
L 260.605485 278.004275 
L 263.150332 255.596521 
L 265.695178 261.047055 
L 268.240025 267.70882 
L 270.784871 250.145986 
L 273.329717 271.34251 
L 275.874564 275.581815 
L 278.41941 265.28636 
L 280.964257 278.60989 
L 283.509103 277.39866 
L 286.05395 257.413366 
L 288.598796 241.061761 
L 291.143643 265.28636 
L 293.688489 241.667376 
L 296.233336 259.835826 
L 298.778182 260.441441 
L 301.323028 230.766307 
L 303.867875 241.667376 
L 306.412721 253.174061 
L 308.957568 228.343847 
L 311.502414 262.8639 
L 316.592107 248.329141 
L 319.136954 269.525665 
L 321.6818 255.596521 
L 324.226647 258.018981 
L 326.771493 256.202136 
L 329.31634 266.49759 
L 331.861186 261.65267 
L 334.406032 224.104542 
L 336.950879 237.428072 
L 339.495725 270.13128 
L 342.040572 247.117911 
L 344.585418 270.736895 
L 347.130265 254.385291 
L 349.675111 274.9762 
L 352.219958 274.9762 
L 354.764804 245.301066 
L 357.309651 225.921387 
L 359.854497 243.484221 
L 362.399343 278.004275 
L 364.94419 247.117911 
L 367.489036 265.891975 
L 370.033883 278.004275 
L 372.578729 223.498927 
L 375.123576 228.949462 
L 377.668422 258.624596 
L 380.213269 218.654007 
L 382.758115 267.103205 
L 385.302962 245.301066 
L 387.847808 274.370585 
L 390.392654 187.464836 
L 392.937501 239.244916 
L 395.482347 243.484221 
L 398.027194 268.92005 
L 400.57204 205.330478 
L 403.116887 259.230211 
L 405.661733 237.428072 
L 408.20658 243.484221 
L 410.751426 270.736895 
L 415.841119 243.484221 
L 418.385966 244.695451 
L 420.930812 251.357216 
L 423.475658 266.49759 
L 426.020505 270.13128 
L 428.565351 248.329141 
L 433.655044 238.639301 
L 436.199891 225.315772 
L 438.744737 236.216842 
L 441.289584 259.230211 
L 443.83443 222.287697 
L 446.379277 235.005612 
L 448.924123 270.13128 
L 451.468969 236.822457 
L 454.013816 265.891975 
L 456.558662 258.018981 
L 459.103509 270.13128 
L 461.648355 264.680745 
L 464.193202 264.680745 
L 466.738048 248.934756 
L 469.282895 273.159355 
L 471.827741 264.07513 
L 474.372588 206.541708 
L 476.917434 239.244916 
L 479.462281 252.568446 
L 482.007127 247.117911 
L 484.551973 263.469515 
L 487.09682 234.399997 
L 489.641666 267.103205 
L 492.186513 235.611227 
L 494.731359 273.159355 
L 497.276206 252.568446 
L 499.821052 270.13128 
L 502.365899 254.990906 
L 504.910745 255.596521 
L 507.455592 257.413366 
L 510.000438 251.357216 
L 512.545284 268.314435 
L 515.090131 263.469515 
L 517.634977 240.456146 
L 520.179824 268.314435 
L 522.72467 241.667376 
L 525.269517 278.004275 
L 527.814363 250.145986 
L 530.35921 268.92005 
L 532.904056 270.736895 
L 535.448903 273.159355 
L 537.993749 246.512296 
L 540.538596 253.779676 
L 543.083442 238.033686 
L 545.628288 279.82112 
L 548.173135 264.07513 
L 550.717981 278.004275 
L 553.262828 275.581815 
L 555.807674 219.259622 
L 558.352521 270.736895 
L 560.897367 239.850531 
L 563.442214 275.581815 
L 565.98706 273.76497 
L 568.531907 255.596521 
L 571.076753 247.723526 
L 573.621599 271.948125 
L 576.166446 258.018981 
L 578.711292 263.469515 
L 581.256139 257.413366 
L 583.800985 264.07513 
L 586.345832 267.70882 
L 588.890678 270.736895 
L 591.435525 259.835826 
L 593.980371 274.370585 
L 596.525218 269.525665 
L 599.070064 274.9762 
L 601.61491 261.65267 
L 604.159757 270.736895 
L 606.704603 268.314435 
L 609.24945 247.117911 
L 611.794296 270.736895 
L 614.339143 271.948125 
L 616.883989 251.357216 
L 619.428836 240.456146 
L 621.973682 259.230211 
L 624.518529 248.934756 
L 627.063375 282.24358 
L 629.608222 250.751601 
L 632.153068 273.159355 
L 634.697914 242.878606 
L 637.242761 267.103205 
L 639.787607 250.145986 
L 642.332454 253.779676 
L 644.8773 259.230211 
L 647.422147 254.990906 
L 649.966993 236.216842 
L 652.51184 251.962831 
L 655.056686 261.65267 
L 657.601533 277.39866 
L 660.146379 248.934756 
L 662.691225 269.525665 
L 665.236072 270.736895 
L 667.780918 273.159355 
L 670.325765 229.555077 
L 672.870611 268.92005 
L 675.415458 241.667376 
L 677.960304 271.948125 
L 680.505151 261.047055 
L 683.049997 267.70882 
L 685.594844 259.230211 
L 688.13969 253.779676 
L 690.684537 266.49759 
L 693.229383 264.07513 
L 695.774229 268.92005 
L 698.319076 274.9762 
L 700.863922 274.370585 
L 703.408769 231.977537 
L 705.953615 262.258285 
L 708.498462 239.850531 
L 711.043308 268.92005 
L 713.588155 226.224195 
L 716.133001 274.370585 
L 718.677848 250.145986 
L 721.222694 260.441441 
L 723.76754 250.751601 
L 726.312387 243.484221 
L 728.857233 202.302403 
L 731.40208 241.667376 
L 733.946926 244.695451 
L 736.491773 268.314435 
L 739.036619 278.60989 
L 741.581466 237.428072 
L 744.126312 257.413366 
L 746.671159 243.484221 
L 749.216005 278.004275 
L 751.760852 275.581815 
L 754.305698 234.399997 
L 756.850544 259.230211 
L 759.395391 251.962831 
L 761.940237 261.047055 
L 764.485084 252.568446 
L 767.02993 261.65267 
L 769.574777 279.215505 
L 772.119623 256.807751 
L 774.66447 268.92005 
L 777.209316 245.301066 
L 779.754163 265.891975 
L 782.299009 223.498927 
L 784.843855 260.441441 
L 787.388702 271.34251 
L 789.933548 258.018981 
L 792.478395 264.07513 
L 795.023241 262.8639 
L 797.568088 266.49759 
L 800.112934 250.751601 
L 802.657781 245.906681 
L 805.202627 234.399997 
L 807.747474 253.174061 
L 810.29232 247.117911 
L 812.837167 267.70882 
L 815.382013 250.751601 
L 817.926859 265.28636 
L 820.471706 262.258285 
L 823.016552 276.793045 
L 825.561399 244.089836 
L 828.106245 264.680745 
L 830.651092 274.9762 
L 833.195938 262.258285 
L 835.740785 250.145986 
L 838.285631 240.758954 
L 840.830478 270.13128 
L 843.375324 277.39866 
L 845.92017 261.047055 
L 845.92017 261.047055 
" clip-path="url(#p0c2d0f7dcb)" style="fill: none; stroke: #00ffff; stroke-width: 0.9; stroke-linecap: square"/>
   </g>
   <g id="line2d_20">
    <path d="M 85.01108 214.414703 
L 87.555926 273.159355 
L 90.100772 212.597858 
L 92.645619 275.581815 
L 95.190465 247.117911 
L 97.735312 244.089836 
L 100.280158 243.484221 
L 102.825005 256.807751 
L 105.369851 203.513633 
L 107.914698 248.329141 
L 110.459544 239.244916 
L 113.004391 236.216842 
L 115.549237 249.540371 
L 118.094083 198.063098 
L 120.63893 279.215505 
L 123.183776 261.047055 
L 125.728623 261.047055 
L 128.273469 261.65267 
L 130.818316 273.159355 
L 133.363162 228.949462 
L 135.908009 240.456146 
L 138.452855 247.117911 
L 140.997702 270.736895 
L 143.542548 230.160692 
L 146.087395 276.18743 
L 148.632241 279.215505 
L 151.177087 270.13128 
L 153.721934 269.525665 
L 156.26678 265.28636 
L 158.811627 266.49759 
L 161.356473 273.76497 
L 163.90132 272.55374 
L 166.446166 241.061761 
L 168.991013 245.301066 
L 171.535859 259.230211 
L 174.080706 270.736895 
L 176.625552 276.18743 
L 179.170398 248.934756 
L 181.715245 247.117911 
L 184.260091 257.413366 
L 186.804938 260.441441 
L 189.349784 233.188767 
L 191.894631 274.9762 
L 194.439477 262.8639 
L 196.984324 281.637965 
L 199.52917 277.39866 
L 202.074017 266.49759 
L 204.618863 265.891975 
L 207.16371 278.004275 
L 214.798249 278.004275 
L 217.343095 262.561093 
L 219.887942 267.70882 
L 222.432788 247.117911 
L 224.977635 277.39866 
L 227.522481 268.92005 
L 230.067328 267.70882 
L 232.612174 259.835826 
L 235.157021 273.76497 
L 237.701867 225.921387 
L 240.246713 271.34251 
L 242.79156 276.18743 
L 245.336406 282.24358 
L 247.881253 274.9762 
L 250.426099 272.55374 
L 252.970946 251.357216 
L 255.515792 252.568446 
L 258.060639 262.8639 
L 260.605485 276.18743 
L 263.150332 257.413366 
L 265.695178 205.936093 
L 268.240025 279.82112 
L 270.784871 255.596521 
L 273.329717 274.9762 
L 275.874564 275.581815 
L 278.41941 271.948125 
L 280.964257 279.82112 
L 283.509103 279.82112 
L 286.05395 268.314435 
L 288.598796 202.908018 
L 291.143643 251.962831 
L 293.688489 210.175398 
L 296.233336 239.850531 
L 298.778182 239.244916 
L 301.323028 265.28636 
L 303.867875 255.596521 
L 306.412721 264.07513 
L 308.957568 251.962831 
L 311.502414 267.70882 
L 314.047261 251.357216 
L 316.592107 244.089836 
L 319.136954 274.9762 
L 321.6818 256.202136 
L 324.226647 261.65267 
L 326.771493 265.891975 
L 329.31634 256.202136 
L 331.861186 267.70882 
L 334.406032 264.680745 
L 336.950879 255.596521 
L 339.495725 244.695451 
L 342.040572 268.92005 
L 344.585418 265.28636 
L 347.130265 256.807751 
L 349.675111 267.70882 
L 352.219958 273.159355 
L 354.764804 249.540371 
L 357.309651 219.865237 
L 359.854497 244.089836 
L 362.399343 257.413366 
L 364.94419 227.738232 
L 367.489036 240.456146 
L 370.033883 273.159355 
L 372.578729 241.061761 
L 375.123576 231.977537 
L 377.668422 271.948125 
L 380.213269 212.597858 
L 382.758115 213.203473 
L 385.302962 244.695451 
L 387.847808 274.370585 
L 390.392654 141.438098 
L 392.937501 231.977537 
L 395.482347 244.695451 
L 398.027194 274.9762 
L 400.57204 211.992243 
L 403.116887 245.301066 
L 405.661733 237.428072 
L 408.20658 222.893312 
L 410.751426 254.990906 
L 413.296273 243.484221 
L 415.841119 238.033686 
L 418.385966 243.484221 
L 420.930812 255.596521 
L 423.475658 262.258285 
L 426.020505 278.004275 
L 428.565351 232.583152 
L 431.110198 231.371922 
L 433.655044 245.603874 
L 436.199891 238.033686 
L 438.744737 229.555077 
L 441.289584 276.18743 
L 443.83443 230.160692 
L 446.379277 221.076467 
L 448.924123 267.70882 
L 451.468969 239.244916 
L 454.013816 254.990906 
L 456.558662 254.990906 
L 459.103509 267.103205 
L 461.648355 262.258285 
L 464.193202 270.13128 
L 466.738048 251.357216 
L 469.282895 281.03235 
L 471.827741 250.751601 
L 474.372588 235.005612 
L 476.917434 244.695451 
L 479.462281 274.370585 
L 482.007127 261.047055 
L 484.551973 274.9762 
L 487.09682 252.568446 
L 489.641666 262.8639 
L 492.186513 225.921387 
L 494.731359 270.736895 
L 497.276206 251.357216 
L 499.821052 258.018981 
L 502.365899 248.329141 
L 504.910745 269.525665 
L 507.455592 259.835826 
L 510.000438 226.527002 
L 512.545284 248.934756 
L 515.090131 255.596521 
L 517.634977 199.879943 
L 520.179824 261.65267 
L 522.72467 251.357216 
L 525.269517 278.004275 
L 527.814363 220.470852 
L 530.35921 267.103205 
L 532.904056 248.934756 
L 535.448903 275.581815 
L 537.993749 234.399997 
L 540.538596 264.07513 
L 543.083442 207.752938 
L 545.628288 278.60989 
L 548.173135 253.174061 
L 550.717981 269.525665 
L 553.262828 276.793045 
L 555.807674 211.386628 
L 558.352521 281.03235 
L 560.897367 230.766307 
L 563.442214 259.835826 
L 565.98706 275.581815 
L 568.531907 267.70882 
L 571.076753 216.837162 
L 573.621599 266.49759 
L 576.166446 246.512296 
L 578.711292 265.891975 
L 581.256139 248.934756 
L 583.800985 270.13128 
L 586.345832 263.469515 
L 588.890678 278.004275 
L 591.435525 260.441441 
L 593.980371 275.581815 
L 596.525218 261.047055 
L 599.070064 276.793045 
L 601.61491 271.948125 
L 606.704603 215.020318 
L 609.24945 227.738232 
L 611.794296 262.8639 
L 614.339143 274.9762 
L 619.428836 258.018981 
L 621.973682 267.103205 
L 624.518529 264.07513 
L 627.063375 280.426735 
L 629.608222 260.441441 
L 632.153068 278.004275 
L 634.697914 262.258285 
L 637.242761 254.990906 
L 639.787607 251.357216 
L 642.332454 245.906681 
L 644.8773 216.231547 
L 647.422147 267.70882 
L 649.966993 224.710157 
L 652.51184 267.70882 
L 655.056686 250.145986 
L 657.601533 269.525665 
L 660.146379 251.962831 
L 662.691225 274.9762 
L 665.236072 268.92005 
L 667.780918 279.82112 
L 670.325765 259.230211 
L 672.870611 236.216842 
L 675.415458 222.893312 
L 677.960304 275.581815 
L 680.505151 254.990906 
L 683.049997 267.70882 
L 685.594844 264.07513 
L 688.13969 255.596521 
L 690.684537 250.145986 
L 693.229383 254.990906 
L 695.774229 268.92005 
L 698.319076 273.76497 
L 700.863922 271.34251 
L 703.408769 220.470852 
L 705.953615 265.891975 
L 708.498462 278.60989 
L 711.043308 242.272991 
L 713.588155 247.723526 
L 716.133001 267.70882 
L 718.677848 239.244916 
L 721.222694 256.807751 
L 723.76754 238.033686 
L 726.312387 228.949462 
L 728.857233 241.061761 
L 731.40208 256.807751 
L 733.946926 217.13997 
L 736.491773 268.314435 
L 739.036619 262.258285 
L 741.581466 252.568446 
L 744.126312 232.583152 
L 746.671159 271.34251 
L 749.216005 274.9762 
L 751.760852 266.800398 
L 754.305698 256.807751 
L 756.850544 254.385291 
L 759.395391 248.329141 
L 761.940237 261.65267 
L 764.485084 265.891975 
L 767.02993 259.835826 
L 769.574777 273.159355 
L 772.119623 262.8639 
L 774.66447 249.540371 
L 777.209316 271.948125 
L 779.754163 269.828473 
L 782.299009 241.061761 
L 784.843855 262.8639 
L 787.388702 265.891975 
L 789.933548 235.005612 
L 792.478395 274.370585 
L 795.023241 260.441441 
L 797.568088 257.413366 
L 800.112934 247.723526 
L 802.657781 234.399997 
L 805.202627 269.525665 
L 807.747474 264.07513 
L 810.29232 248.329141 
L 812.837167 264.680745 
L 815.382013 254.385291 
L 817.926859 256.807751 
L 820.471706 262.258285 
L 823.016552 268.314435 
L 825.561399 216.837162 
L 828.106245 274.370585 
L 830.651092 276.18743 
L 833.195938 267.70882 
L 835.740785 260.441441 
L 838.285631 212.597858 
L 840.830478 260.441441 
L 843.375324 278.60989 
L 845.92017 247.117911 
L 845.92017 247.117911 
" clip-path="url(#p0c2d0f7dcb)" style="fill: none; stroke: #ffa500; stroke-width: 0.9; stroke-linecap: square"/>
   </g>
   <g id="line2d_21">
    <path d="M 85.01108 271.34251 
L 87.555926 278.004275 
L 90.100772 264.680745 
L 92.645619 278.004275 
L 95.190465 265.891975 
L 97.735312 268.314435 
L 100.280158 271.039703 
L 102.825005 271.948125 
L 105.369851 271.948125 
L 107.914698 265.28636 
L 110.459544 279.215505 
L 113.004391 272.55374 
L 115.549237 262.8639 
L 118.094083 262.258285 
L 120.63893 279.82112 
L 123.183776 276.793045 
L 125.728623 271.948125 
L 128.273469 280.426735 
L 130.818316 281.637965 
L 133.363162 266.49759 
L 135.908009 273.76497 
L 140.997702 276.18743 
L 143.542548 272.55374 
L 146.087395 276.18743 
L 148.632241 281.637965 
L 151.177087 281.637965 
L 153.721934 276.793045 
L 156.26678 278.60989 
L 158.811627 273.76497 
L 161.356473 279.215505 
L 163.90132 276.793045 
L 166.446166 269.828473 
L 168.991013 272.55374 
L 171.535859 271.34251 
L 174.080706 280.426735 
L 176.625552 278.60989 
L 179.170398 275.581815 
L 181.715245 276.18743 
L 184.260091 278.60989 
L 186.804938 279.82112 
L 189.349784 278.004275 
L 191.894631 278.004275 
L 194.439477 273.76497 
L 196.984324 279.215505 
L 199.52917 280.426735 
L 202.074017 270.736895 
L 204.618863 273.76497 
L 207.16371 278.004275 
L 209.708556 278.004275 
L 212.253402 278.60989 
L 214.798249 279.82112 
L 217.343095 273.159355 
L 219.887942 276.18743 
L 222.432788 274.9762 
L 224.977635 279.215505 
L 227.522481 273.76497 
L 230.067328 278.004275 
L 232.612174 275.581815 
L 235.157021 280.426735 
L 237.701867 276.490237 
L 240.246713 282.24358 
L 242.79156 281.03235 
L 245.336406 282.24358 
L 247.881253 281.03235 
L 250.426099 271.948125 
L 252.970946 278.004275 
L 255.515792 281.03235 
L 258.060639 273.76497 
L 260.605485 280.426735 
L 263.150332 274.9762 
L 265.695178 273.159355 
L 268.240025 276.793045 
L 270.784871 274.9762 
L 273.329717 273.76497 
L 275.874564 279.215505 
L 278.41941 276.18743 
L 280.964257 281.03235 
L 283.509103 281.03235 
L 286.05395 276.793045 
L 288.598796 259.835826 
L 291.143643 268.92005 
L 293.688489 272.55374 
L 296.233336 272.55374 
L 301.323028 267.70882 
L 303.867875 269.525665 
L 306.412721 262.8639 
L 308.957568 271.34251 
L 311.502414 276.18743 
L 314.047261 274.9762 
L 316.592107 256.807751 
L 319.136954 275.581815 
L 321.6818 264.680745 
L 324.226647 272.55374 
L 326.771493 268.92005 
L 329.31634 273.159355 
L 331.861186 275.581815 
L 334.406032 273.159355 
L 336.950879 258.624596 
L 339.495725 277.39866 
L 342.040572 270.13128 
L 344.585418 269.525665 
L 347.130265 272.55374 
L 349.675111 281.03235 
L 352.219958 278.60989 
L 354.764804 278.004275 
L 357.309651 262.8639 
L 359.854497 269.525665 
L 362.399343 280.426735 
L 364.94419 272.55374 
L 367.489036 278.004275 
L 370.033883 281.03235 
L 372.578729 257.413366 
L 375.123576 266.49759 
L 377.668422 273.159355 
L 380.213269 252.568446 
L 382.758115 276.793045 
L 385.302962 274.370585 
L 387.847808 279.82112 
L 390.392654 264.07513 
L 392.937501 255.596521 
L 395.482347 270.13128 
L 398.027194 277.39866 
L 400.57204 256.202136 
L 403.116887 263.469515 
L 405.661733 267.70882 
L 408.20658 268.314435 
L 410.751426 277.39866 
L 413.296273 277.39866 
L 415.841119 270.13128 
L 418.385966 272.55374 
L 420.930812 266.49759 
L 423.475658 279.215505 
L 426.020505 271.34251 
L 428.565351 267.70882 
L 431.110198 267.103205 
L 433.655044 271.948125 
L 436.199891 261.047055 
L 438.744737 268.92005 
L 443.83443 278.60989 
L 446.379277 270.13128 
L 448.924123 278.004275 
L 451.468969 263.469515 
L 454.013816 276.18743 
L 456.558662 279.82112 
L 459.103509 272.55374 
L 461.648355 269.525665 
L 464.193202 274.9762 
L 466.738048 276.793045 
L 469.282895 271.34251 
L 471.827741 273.159355 
L 474.372588 270.736895 
L 476.917434 271.948125 
L 479.462281 278.004275 
L 482.007127 262.258285 
L 484.551973 267.103205 
L 487.09682 270.13128 
L 489.641666 279.82112 
L 492.186513 274.9762 
L 494.731359 279.82112 
L 497.276206 273.159355 
L 499.821052 279.215505 
L 502.365899 269.525665 
L 504.910745 274.370585 
L 507.455592 280.426735 
L 510.000438 274.9762 
L 512.545284 278.60989 
L 515.090131 275.581815 
L 517.634977 261.047055 
L 520.179824 276.793045 
L 522.72467 265.891975 
L 525.269517 281.03235 
L 527.814363 266.49759 
L 530.35921 281.03235 
L 532.904056 271.34251 
L 535.448903 277.39866 
L 537.993749 269.525665 
L 540.538596 273.159355 
L 543.083442 271.948125 
L 545.628288 281.03235 
L 548.173135 279.82112 
L 553.262828 281.03235 
L 555.807674 268.92005 
L 558.352521 278.60989 
L 560.897367 272.55374 
L 563.442214 276.793045 
L 565.98706 278.60989 
L 568.531907 271.948125 
L 571.076753 264.07513 
L 573.621599 274.9762 
L 576.166446 273.76497 
L 578.711292 273.159355 
L 581.256139 277.39866 
L 583.800985 274.370585 
L 586.345832 276.18743 
L 588.890678 280.426735 
L 591.435525 278.60989 
L 593.980371 279.82112 
L 596.525218 274.9762 
L 599.070064 270.736895 
L 601.61491 275.581815 
L 604.159757 281.03235 
L 606.704603 271.34251 
L 609.24945 256.807751 
L 611.794296 278.60989 
L 614.339143 280.426735 
L 616.883989 271.34251 
L 619.428836 278.004275 
L 621.973682 267.70882 
L 627.063375 282.24358 
L 629.608222 273.76497 
L 632.153068 276.793045 
L 634.697914 278.60989 
L 637.242761 274.9762 
L 639.787607 274.9762 
L 642.332454 267.70882 
L 644.8773 273.159355 
L 647.422147 274.9762 
L 649.966993 262.8639 
L 652.51184 276.793045 
L 655.056686 271.34251 
L 657.601533 270.13128 
L 660.146379 273.159355 
L 662.691225 278.004275 
L 665.236072 273.76497 
L 667.780918 280.426735 
L 670.325765 277.39866 
L 672.870611 277.39866 
L 675.415458 266.49759 
L 677.960304 277.39866 
L 680.505151 279.215505 
L 683.049997 272.55374 
L 685.594844 277.39866 
L 688.13969 278.004275 
L 693.229383 275.581815 
L 695.774229 274.9762 
L 698.319076 279.215505 
L 700.863922 265.891975 
L 703.408769 276.793045 
L 705.953615 273.76497 
L 708.498462 279.215505 
L 711.043308 274.9762 
L 713.588155 259.230211 
L 716.133001 278.60989 
L 718.677848 274.370585 
L 721.222694 274.370585 
L 726.312387 265.891975 
L 728.857233 264.680745 
L 731.40208 270.736895 
L 733.946926 278.60989 
L 736.491773 276.18743 
L 739.036619 281.03235 
L 741.581466 272.55374 
L 744.126312 274.9762 
L 746.671159 270.736895 
L 749.216005 280.426735 
L 751.760852 277.39866 
L 754.305698 271.948125 
L 756.850544 273.159355 
L 759.395391 270.13128 
L 761.940237 276.793045 
L 764.485084 272.55374 
L 767.02993 278.60989 
L 769.574777 276.793045 
L 772.119623 274.370585 
L 774.66447 278.004275 
L 777.209316 275.581815 
L 779.754163 281.03235 
L 782.299009 262.8639 
L 784.843855 276.793045 
L 787.388702 274.9762 
L 789.933548 278.60989 
L 792.478395 281.03235 
L 795.023241 274.370585 
L 797.568088 273.159355 
L 800.112934 269.525665 
L 802.657781 270.736895 
L 805.202627 261.65267 
L 807.747474 274.9762 
L 810.29232 276.18743 
L 812.837167 279.215505 
L 815.382013 276.18743 
L 817.926859 272.55374 
L 820.471706 269.525665 
L 823.016552 281.03235 
L 825.561399 271.34251 
L 828.106245 278.60989 
L 830.651092 279.82112 
L 833.195938 272.55374 
L 835.740785 277.39866 
L 838.285631 262.258285 
L 840.830478 279.215505 
L 843.375324 281.637965 
L 845.92017 270.13128 
L 845.92017 270.13128 
" clip-path="url(#p0c2d0f7dcb)" style="fill: none; stroke: #ff4500; stroke-width: 0.9; stroke-linecap: square"/>
   </g>
   <g id="patch_3">
    <path d="M 46.965625 294.598125 
L 46.965625 22.798125 
" style="fill: none; stroke: #000000; stroke-width: 0.8; stroke-linejoin: miter; stroke-linecap: square"/>
   </g>
   <g id="patch_4">
    <path d="M 883.965625 294.598125 
L 883.965625 22.798125 
" style="fill: none; stroke: #000000; stroke-width: 0.8; stroke-linejoin: miter; stroke-linecap: square"/>
   </g>
   <g id="patch_5">
    <path d="M 46.965625 294.598125 
L 883.965625 294.598125 
" style="fill: none; stroke: #000000; stroke-width: 0.8; stroke-linejoin: miter; stroke-linecap: square"/>
   </g>
   <g id="patch_6">
    <path d="M 46.965625 22.798125 
L 883.965625 22.798125 
" style="fill: none; stroke: #000000; stroke-width: 0.8; stroke-linejoin: miter; stroke-linecap: square"/>
   </g>
   <g id="text_19">
    <!-- Liczba przejść przez średnią wartość z próbki 1 sekunda -->
    <g transform="translate(297.265938 16.798125)scale(0.12 -0.12)">
     <defs>
      <path id="DejaVuSans-4c" d="M 628 4666 
L 1259 4666 
L 1259 531 
L 3531 531 
L 3531 0 
L 628 0 
L 628 4666 
z
" transform="scale(0.015625)"/>
      <path id="DejaVuSans-69" d="M 603 3500 
L 1178 3500 
L 1178 0 
L 603 0 
L 603 3500 
z
M 603 4863 
L 1178 4863 
L 1178 4134 
L 603 4134 
L 603 4863 
z
" transform="scale(0.015625)"/>
      <path id="DejaVuSans-63" d="M 3122 3366 
L 3122 2828 
Q 2878 2963 2633 3030 
Q 2388 3097 2138 3097 
Q 1578 3097 1268 2742 
Q 959 2388 959 1747 
Q 959 1106 1268 751 
Q 1578 397 2138 397 
Q 2388 397 2633 464 
Q 2878 531 3122 666 
L 3122 134 
Q 2881 22 2623 -34 
Q 2366 -91 2075 -91 
Q 1284 -91 818 406 
Q 353 903 353 1747 
Q 353 2603 823 3093 
Q 1294 3584 2113 3584 
Q 2378 3584 2631 3529 
Q 2884 3475 3122 3366 
z
" transform="scale(0.015625)"/>
      <path id="DejaVuSans-7a" d="M 353 3500 
L 3084 3500 
L 3084 2975 
L 922 459 
L 3084 459 
L 3084 0 
L 275 0 
L 275 525 
L 2438 3041 
L 353 3041 
L 353 3500 
z
" transform="scale(0.015625)"/>
      <path id="DejaVuSans-20" transform="scale(0.015625)"/>
      <path id="DejaVuSans-70" d="M 1159 525 
L 1159 -1331 
L 581 -1331 
L 581 3500 
L 1159 3500 
L 1159 2969 
Q 1341 3281 1617 3432 
Q 1894 3584 2278 3584 
Q 2916 3584 3314 3078 
Q 3713 2572 3713 1747 
Q 3713 922 3314 415 
Q 2916 -91 2278 -91 
Q 1894 -91 1617 61 
Q 1341 213 1159 525 
z
M 3116 1747 
Q 3116 2381 2855 2742 
Q 2594 3103 2138 3103 
Q 1681 3103 1420 2742 
Q 1159 2381 1159 1747 
Q 1159 1113 1420 752 
Q 1681 391 2138 391 
Q 2594 391 2855 752 
Q 3116 1113 3116 1747 
z
" transform="scale(0.015625)"/>
      <path id="DejaVuSans-65" d="M 3597 1894 
L 3597 1613 
L 953 1613 
Q 991 1019 1311 708 
Q 1631 397 2203 397 
Q 2534 397 2845 478 
Q 3156 559 3463 722 
L 3463 178 
Q 3153 47 2828 -22 
Q 2503 -91 2169 -91 
Q 1331 -91 842 396 
Q 353 884 353 1716 
Q 353 2575 817 3079 
Q 1281 3584 2069 3584 
Q 2775 3584 3186 3129 
Q 3597 2675 3597 1894 
z
M 3022 2063 
Q 3016 2534 2758 2815 
Q 2500 3097 2075 3097 
Q 1594 3097 1305 2825 
Q 1016 2553 972 2059 
L 3022 2063 
z
" transform="scale(0.015625)"/>
      <path id="DejaVuSans-6a" d="M 603 3500 
L 1178 3500 
L 1178 -63 
Q 1178 -731 923 -1031 
Q 669 -1331 103 -1331 
L -116 -1331 
L -116 -844 
L 38 -844 
Q 366 -844 484 -692 
Q 603 -541 603 -63 
L 603 3500 
z
M 603 4863 
L 1178 4863 
L 1178 4134 
L 603 4134 
L 603 4863 
z
" transform="scale(0.015625)"/>
      <path id="DejaVuSans-64" d="M 2906 2969 
L 2906 4863 
L 3481 4863 
L 3481 0 
L 2906 0 
L 2906 525 
Q 2725 213 2448 61 
Q 2172 -91 1784 -91 
Q 1150 -91 751 415 
Q 353 922 353 1747 
Q 353 2572 751 3078 
Q 1150 3584 1784 3584 
Q 2172 3584 2448 3432 
Q 2725 3281 2906 2969 
z
M 947 1747 
Q 947 1113 1208 752 
Q 1469 391 1925 391 
Q 2381 391 2643 752 
Q 2906 1113 2906 1747 
Q 2906 2381 2643 2742 
Q 2381 3103 1925 3103 
Q 1469 3103 1208 2742 
Q 947 2381 947 1747 
z
" transform="scale(0.015625)"/>
      <path id="DejaVuSans-6e" d="M 3513 2113 
L 3513 0 
L 2938 0 
L 2938 2094 
Q 2938 2591 2744 2837 
Q 2550 3084 2163 3084 
Q 1697 3084 1428 2787 
Q 1159 2491 1159 1978 
L 1159 0 
L 581 0 
L 581 3500 
L 1159 3500 
L 1159 2956 
Q 1366 3272 1645 3428 
Q 1925 3584 2291 3584 
Q 2894 3584 3203 3211 
Q 3513 2838 3513 2113 
z
" transform="scale(0.015625)"/>
      <path id="DejaVuSans-105" d="M 2194 1759 
Q 1497 1759 1228 1600 
Q 959 1441 959 1056 
Q 959 750 1161 570 
Q 1363 391 1709 391 
Q 2188 391 2477 730 
Q 2766 1069 2766 1631 
L 2766 1759 
L 2194 1759 
z
M 3341 1997 
L 3341 0 
L 2766 0 
L 2766 531 
Q 2569 213 2275 61 
Q 1981 -91 1556 -91 
Q 1019 -91 701 211 
Q 384 513 384 1019 
Q 384 1609 779 1909 
Q 1175 2209 1959 2209 
L 2766 2209 
L 2766 2266 
Q 2766 2663 2505 2880 
Q 2244 3097 1772 3097 
Q 1472 3097 1187 3025 
Q 903 2953 641 2809 
L 641 3341 
Q 956 3463 1253 3523 
Q 1550 3584 1831 3584 
Q 2591 3584 2966 3190 
Q 3341 2797 3341 1997 
z
M 2775 0 
L 3147 0 
Q 3006 -191 2939 -328 
Q 2872 -466 2872 -563 
Q 2872 -706 2958 -778 
Q 3044 -850 3213 -850 
Q 3313 -850 3409 -826 
Q 3506 -803 3603 -756 
L 3603 -1172 
Q 3484 -1203 3378 -1218 
Q 3272 -1234 3178 -1234 
Q 2797 -1234 2617 -1098 
Q 2438 -963 2438 -672 
Q 2438 -522 2520 -358 
Q 2603 -194 2775 0 
z
" transform="scale(0.015625)"/>
      <path id="DejaVuSans-77" d="M 269 3500 
L 844 3500 
L 1563 769 
L 2278 3500 
L 2956 3500 
L 3675 769 
L 4391 3500 
L 4966 3500 
L 4050 0 
L 3372 0 
L 2619 2869 
L 1863 0 
L 1184 0 
L 269 3500 
z
" transform="scale(0.015625)"/>
      <path id="DejaVuSans-73" d="M 2834 3397 
L 2834 2853 
Q 2591 2978 2328 3040 
Q 2066 3103 1784 3103 
Q 1356 3103 1142 2972 
Q 928 2841 928 2578 
Q 928 2378 1081 2264 
Q 1234 2150 1697 2047 
L 1894 2003 
Q 2506 1872 2764 1633 
Q 3022 1394 3022 966 
Q 3022 478 2636 193 
Q 2250 -91 1575 -91 
Q 1294 -91 989 -36 
Q 684 19 347 128 
L 347 722 
Q 666 556 975 473 
Q 1284 391 1588 391 
Q 1994 391 2212 530 
Q 2431 669 2431 922 
Q 2431 1156 2273 1281 
Q 2116 1406 1581 1522 
L 1381 1569 
Q 847 1681 609 1914 
Q 372 2147 372 2553 
Q 372 3047 722 3315 
Q 1072 3584 1716 3584 
Q 2034 3584 2315 3537 
Q 2597 3491 2834 3397 
z
" transform="scale(0.015625)"/>
      <path id="DejaVuSans-75" d="M 544 1381 
L 544 3500 
L 1119 3500 
L 1119 1403 
Q 1119 906 1312 657 
Q 1506 409 1894 409 
Q 2359 409 2629 706 
Q 2900 1003 2900 1516 
L 2900 3500 
L 3475 3500 
L 3475 0 
L 2900 0 
L 2900 538 
Q 2691 219 2414 64 
Q 2138 -91 1772 -91 
Q 1169 -91 856 284 
Q 544 659 544 1381 
z
M 1991 3584 
L 1991 3584 
z
" transform="scale(0.015625)"/>
     </defs>
     <use xlink:href="#DejaVuSans-4c"/>
     <use xlink:href="#DejaVuSans-69" x="55.712891"/>
     <use xlink:href="#DejaVuSans-63" x="83.496094"/>
     <use xlink:href="#DejaVuSans-7a" x="138.476562"/>
     <use xlink:href="#DejaVuSans-62" x="190.966797"/>
     <use xlink:href="#DejaVuSans-61" x="254.443359"/>
     <use xlink:href="#DejaVuSans-20" x="315.722656"/>
     <use xlink:href="#DejaVuSans-70" x="347.509766"/>
     <use xlink:href="#DejaVuSans-72" x="410.986328"/>
     <use xlink:href="#DejaVuSans-7a" x="452.099609"/>
     <use xlink:href="#DejaVuSans-65" x="504.589844"/>
     <use xlink:href="#DejaVuSans-6a" x="566.113281"/>
     <use xlink:href="#DejaVuSans-15b" x="593.896484"/>
     <use xlink:href="#DejaVuSans-107" x="645.996094"/>
     <use xlink:href="#DejaVuSans-20" x="700.976562"/>
     <use xlink:href="#DejaVuSans-70" x="732.763672"/>
     <use xlink:href="#DejaVuSans-72" x="796.240234"/>
     <use xlink:href="#DejaVuSans-7a" x="837.353516"/>
     <use xlink:href="#DejaVuSans-65" x="889.84375"/>
     <use xlink:href="#DejaVuSans-7a" x="951.367188"/>
     <use xlink:href="#DejaVuSans-20" x="1003.857422"/>
     <use xlink:href="#DejaVuSans-15b" x="1035.644531"/>
     <use xlink:href="#DejaVuSans-72" x="1087.744141"/>
     <use xlink:href="#DejaVuSans-65" x="1126.607422"/>
     <use xlink:href="#DejaVuSans-64" x="1188.130859"/>
     <use xlink:href="#DejaVuSans-6e" x="1251.607422"/>
     <use xlink:href="#DejaVuSans-69" x="1314.986328"/>
     <use xlink:href="#DejaVuSans-105" x="1342.769531"/>
     <use xlink:href="#DejaVuSans-20" x="1404.048828"/>
     <use xlink:href="#DejaVuSans-77" x="1435.835938"/>
     <use xlink:href="#DejaVuSans-61" x="1517.623047"/>
     <use xlink:href="#DejaVuSans-72" x="1578.902344"/>
     <use xlink:href="#DejaVuSans-74" x="1620.015625"/>
     <use xlink:href="#DejaVuSans-6f" x="1659.224609"/>
     <use xlink:href="#DejaVuSans-15b" x="1720.40625"/>
     <use xlink:href="#DejaVuSans-107" x="1772.505859"/>
     <use xlink:href="#DejaVuSans-20" x="1827.486328"/>
     <use xlink:href="#DejaVuSans-7a" x="1859.273438"/>
     <use xlink:href="#DejaVuSans-20" x="1911.763672"/>
     <use xlink:href="#DejaVuSans-70" x="1943.550781"/>
     <use xlink:href="#DejaVuSans-72" x="2007.027344"/>
     <use xlink:href="#DejaVuSans-f3" x="2045.890625"/>
     <use xlink:href="#DejaVuSans-62" x="2107.072266"/>
     <use xlink:href="#DejaVuSans-6b" x="2170.548828"/>
     <use xlink:href="#DejaVuSans-69" x="2228.458984"/>
     <use xlink:href="#DejaVuSans-20" x="2256.242188"/>
     <use xlink:href="#DejaVuSans-31" x="2288.029297"/>
     <use xlink:href="#DejaVuSans-20" x="2351.652344"/>
     <use xlink:href="#DejaVuSans-73" x="2383.439453"/>
     <use xlink:href="#DejaVuSans-65" x="2435.539062"/>
     <use xlink:href="#DejaVuSans-6b" x="2497.0625"/>
     <use xlink:href="#DejaVuSans-75" x="2551.847656"/>
     <use xlink:href="#DejaVuSans-6e" x="2615.226562"/>
     <use xlink:href="#DejaVuSans-64" x="2678.605469"/>
     <use xlink:href="#DejaVuSans-61" x="2742.082031"/>
    </g>
   </g>
   <g id="legend_1">
    <g id="patch_7">
     <path d="M 799.83125 105.579375 
L 876.965625 105.579375 
Q 878.965625 105.579375 878.965625 103.579375 
L 878.965625 29.798125 
Q 878.965625 27.798125 876.965625 27.798125 
L 799.83125 27.798125 
Q 797.83125 27.798125 797.83125 29.798125 
L 797.83125 103.579375 
Q 797.83125 105.579375 799.83125 105.579375 
z
" style="fill: #ffffff; opacity: 0.8; stroke: #cccccc; stroke-linejoin: miter"/>
    </g>
    <g id="line2d_22">
     <path d="M 801.83125 35.896563 
L 811.83125 35.896563 
L 821.83125 35.896563 
" style="fill: none; stroke: #ff00ff; stroke-width: 0.9; stroke-linecap: square"/>
    </g>
    <g id="text_20">
     <!-- CH1_8KS -->
     <g transform="translate(829.83125 39.396563)scale(0.1 -0.1)">
      <defs>
       <path id="DejaVuSans-43" d="M 4122 4306 
L 4122 3641 
Q 3803 3938 3442 4084 
Q 3081 4231 2675 4231 
Q 1875 4231 1450 3742 
Q 1025 3253 1025 2328 
Q 1025 1406 1450 917 
Q 1875 428 2675 428 
Q 3081 428 3442 575 
Q 3803 722 4122 1019 
L 4122 359 
Q 3791 134 3420 21 
Q 3050 -91 2638 -91 
Q 1578 -91 968 557 
Q 359 1206 359 2328 
Q 359 3453 968 4101 
Q 1578 4750 2638 4750 
Q 3056 4750 3426 4639 
Q 3797 4528 4122 4306 
z
" transform="scale(0.015625)"/>
       <path id="DejaVuSans-48" d="M 628 4666 
L 1259 4666 
L 1259 2753 
L 3553 2753 
L 3553 4666 
L 4184 4666 
L 4184 0 
L 3553 0 
L 3553 2222 
L 1259 2222 
L 1259 0 
L 628 0 
L 628 4666 
z
" transform="scale(0.015625)"/>
       <path id="DejaVuSans-5f" d="M 3263 -1063 
L 3263 -1509 
L -63 -1509 
L -63 -1063 
L 3263 -1063 
z
" transform="scale(0.015625)"/>
       <path id="DejaVuSans-4b" d="M 628 4666 
L 1259 4666 
L 1259 2694 
L 3353 4666 
L 4166 4666 
L 1850 2491 
L 4331 0 
L 3500 0 
L 1259 2247 
L 1259 0 
L 628 0 
L 628 4666 
z
" transform="scale(0.015625)"/>
       <path id="DejaVuSans-53" d="M 3425 4513 
L 3425 3897 
Q 3066 4069 2747 4153 
Q 2428 4238 2131 4238 
Q 1616 4238 1336 4038 
Q 1056 3838 1056 3469 
Q 1056 3159 1242 3001 
Q 1428 2844 1947 2747 
L 2328 2669 
Q 3034 2534 3370 2195 
Q 3706 1856 3706 1288 
Q 3706 609 3251 259 
Q 2797 -91 1919 -91 
Q 1588 -91 1214 -16 
Q 841 59 441 206 
L 441 856 
Q 825 641 1194 531 
Q 1563 422 1919 422 
Q 2459 422 2753 634 
Q 3047 847 3047 1241 
Q 3047 1584 2836 1778 
Q 2625 1972 2144 2069 
L 1759 2144 
Q 1053 2284 737 2584 
Q 422 2884 422 3419 
Q 422 4038 858 4394 
Q 1294 4750 2059 4750 
Q 2388 4750 2728 4690 
Q 3069 4631 3425 4513 
z
" transform="scale(0.015625)"/>
      </defs>
      <use xlink:href="#DejaVuSans-43"/>
      <use xlink:href="#DejaVuSans-48" x="69.824219"/>
      <use xlink:href="#DejaVuSans-31" x="145.019531"/>
      <use xlink:href="#DejaVuSans-5f" x="208.642578"/>
      <use xlink:href="#DejaVuSans-38" x="258.642578"/>
      <use xlink:href="#DejaVuSans-4b" x="322.265625"/>
      <use xlink:href="#DejaVuSans-53" x="387.841797"/>
     </g>
    </g>
    <g id="line2d_23">
     <path d="M 801.83125 50.852813 
L 811.83125 50.852813 
L 821.83125 50.852813 
" style="fill: none; stroke: #9400d3; stroke-width: 0.9; stroke-linecap: square"/>
    </g>
    <g id="text_21">
     <!-- CH2_8KS -->
     <g transform="translate(829.83125 54.352813)scale(0.1 -0.1)">
      <use xlink:href="#DejaVuSans-43"/>
      <use xlink:href="#DejaVuSans-48" x="69.824219"/>
      <use xlink:href="#DejaVuSans-32" x="145.019531"/>
      <use xlink:href="#DejaVuSans-5f" x="208.642578"/>
      <use xlink:href="#DejaVuSans-38" x="258.642578"/>
      <use xlink:href="#DejaVuSans-4b" x="322.265625"/>
      <use xlink:href="#DejaVuSans-53" x="387.841797"/>
     </g>
    </g>
    <g id="line2d_24">
     <path d="M 801.83125 65.809063 
L 811.83125 65.809063 
L 821.83125 65.809063 
" style="fill: none; stroke: #00ffff; stroke-width: 0.9; stroke-linecap: square"/>
    </g>
    <g id="text_22">
     <!-- CH3_8KS -->
     <g transform="translate(829.83125 69.309063)scale(0.1 -0.1)">
      <use xlink:href="#DejaVuSans-43"/>
      <use xlink:href="#DejaVuSans-48" x="69.824219"/>
      <use xlink:href="#DejaVuSans-33" x="145.019531"/>
      <use xlink:href="#DejaVuSans-5f" x="208.642578"/>
      <use xlink:href="#DejaVuSans-38" x="258.642578"/>
      <use xlink:href="#DejaVuSans-4b" x="322.265625"/>
      <use xlink:href="#DejaVuSans-53" x="387.841797"/>
     </g>
    </g>
    <g id="line2d_25">
     <path d="M 801.83125 80.765313 
L 811.83125 80.765313 
L 821.83125 80.765313 
" style="fill: none; stroke: #ffa500; stroke-width: 0.9; stroke-linecap: square"/>
    </g>
    <g id="text_23">
     <!-- CH4_8KS -->
     <g transform="translate(829.83125 84.265313)scale(0.1 -0.1)">
      <use xlink:href="#DejaVuSans-43"/>
      <use xlink:href="#DejaVuSans-48" x="69.824219"/>
      <use xlink:href="#DejaVuSans-34" x="145.019531"/>
      <use xlink:href="#DejaVuSans-5f" x="208.642578"/>
      <use xlink:href="#DejaVuSans-38" x="258.642578"/>
      <use xlink:href="#DejaVuSans-4b" x="322.265625"/>
      <use xlink:href="#DejaVuSans-53" x="387.841797"/>
     </g>
    </g>
    <g id="line2d_26">
     <path d="M 801.83125 95.721563 
L 811.83125 95.721563 
L 821.83125 95.721563 
" style="fill: none; stroke: #ff4500; stroke-width: 0.9; stroke-linecap: square"/>
    </g>
    <g id="text_24">
     <!-- CH5_8KS -->
     <g transform="translate(829.83125 99.221563)scale(0.1 -0.1)">
      <use xlink:href="#DejaVuSans-43"/>
      <use xlink:href="#DejaVuSans-48" x="69.824219"/>
      <use xlink:href="#DejaVuSans-35" x="145.019531"/>
      <use xlink:href="#DejaVuSans-5f" x="208.642578"/>
      <use xlink:href="#DejaVuSans-38" x="258.642578"/>
      <use xlink:href="#DejaVuSans-4b" x="322.265625"/>
      <use xlink:href="#DejaVuSans-53" x="387.841797"/>
     </g>
    </g>
   </g>
  </g>
 </g>
 <defs>
  <clipPath id="p0c2d0f7dcb">
   <rect x="46.965625" y="22.798125" width="837" height="271.8"/>
  </clipPath>
 </defs>
</svg>
