<?xml version="1.0" encoding="utf-8" standalone="no"?>
<!DOCTYPE svg PUBLIC "-//W3C//DTD SVG 1.1//EN"
  "http://www.w3.org/Graphics/SVG/1.1/DTD/svg11.dtd">
<svg xmlns:xlink="http://www.w3.org/1999/xlink" width="900.70625pt" height="332.154375pt" viewBox="0 0 900.70625 332.154375" xmlns="http://www.w3.org/2000/svg" version="1.1">
 <metadata>
  <rdf:RDF xmlns:dc="http://purl.org/dc/elements/1.1/" xmlns:cc="http://creativecommons.org/ns#" xmlns:rdf="http://www.w3.org/1999/02/22-rdf-syntax-ns#">
   <cc:Work>
    <dc:type rdf:resource="http://purl.org/dc/dcmitype/StillImage"/>
    <dc:date>2022-06-21T21:13:41.329979</dc:date>
    <dc:format>image/svg+xml</dc:format>
    <dc:creator>
     <cc:Agent>
      <dc:title>Matplotlib v3.5.2, https://matplotlib.org/</dc:title>
     </cc:Agent>
    </dc:creator>
   </cc:Work>
  </rdf:RDF>
 </metadata>
 <defs>
  <style type="text/css">*{stroke-linejoin: round; stroke-linecap: butt}</style>
 </defs>
 <g id="figure_1">
  <g id="patch_1">
   <path d="M 0 332.154375 
L 900.70625 332.154375 
L 900.70625 0 
L 0 0 
L 0 332.154375 
z
" style="fill: none"/>
  </g>
  <g id="axes_1">
   <g id="patch_2">
    <path d="M 56.50625 294.598125 
L 893.50625 294.598125 
L 893.50625 22.798125 
L 56.50625 22.798125 
z
" style="fill: #ffffff"/>
   </g>
   <g id="matplotlib.axis_1">
    <g id="xtick_1">
     <g id="line2d_1">
      <defs>
       <path id="m5432fd3481" d="M 0 0 
L 0 3.5 
" style="stroke: #000000; stroke-width: 0.8"/>
      </defs>
      <g>
       <use xlink:href="#m5432fd3481" x="94.551705" y="294.598125" style="stroke: #000000; stroke-width: 0.8"/>
      </g>
     </g>
     <g id="text_1">
      <!-- 0 -->
      <g transform="translate(91.370455 309.196562)scale(0.1 -0.1)">
       <defs>
        <path id="DejaVuSans-30" d="M 2034 4250 
Q 1547 4250 1301 3770 
Q 1056 3291 1056 2328 
Q 1056 1369 1301 889 
Q 1547 409 2034 409 
Q 2525 409 2770 889 
Q 3016 1369 3016 2328 
Q 3016 3291 2770 3770 
Q 2525 4250 2034 4250 
z
M 2034 4750 
Q 2819 4750 3233 4129 
Q 3647 3509 3647 2328 
Q 3647 1150 3233 529 
Q 2819 -91 2034 -91 
Q 1250 -91 836 529 
Q 422 1150 422 2328 
Q 422 3509 836 4129 
Q 1250 4750 2034 4750 
z
" transform="scale(0.015625)"/>
       </defs>
       <use xlink:href="#DejaVuSans-30"/>
      </g>
     </g>
    </g>
    <g id="xtick_2">
     <g id="line2d_2">
      <g>
       <use xlink:href="#m5432fd3481" x="221.794027" y="294.598125" style="stroke: #000000; stroke-width: 0.8"/>
      </g>
     </g>
     <g id="text_2">
      <!-- 50 -->
      <g transform="translate(215.431527 309.196562)scale(0.1 -0.1)">
       <defs>
        <path id="DejaVuSans-35" d="M 691 4666 
L 3169 4666 
L 3169 4134 
L 1269 4134 
L 1269 2991 
Q 1406 3038 1543 3061 
Q 1681 3084 1819 3084 
Q 2600 3084 3056 2656 
Q 3513 2228 3513 1497 
Q 3513 744 3044 326 
Q 2575 -91 1722 -91 
Q 1428 -91 1123 -41 
Q 819 9 494 109 
L 494 744 
Q 775 591 1075 516 
Q 1375 441 1709 441 
Q 2250 441 2565 725 
Q 2881 1009 2881 1497 
Q 2881 1984 2565 2268 
Q 2250 2553 1709 2553 
Q 1456 2553 1204 2497 
Q 953 2441 691 2322 
L 691 4666 
z
" transform="scale(0.015625)"/>
       </defs>
       <use xlink:href="#DejaVuSans-35"/>
       <use xlink:href="#DejaVuSans-30" x="63.623047"/>
      </g>
     </g>
    </g>
    <g id="xtick_3">
     <g id="line2d_3">
      <g>
       <use xlink:href="#m5432fd3481" x="349.03635" y="294.598125" style="stroke: #000000; stroke-width: 0.8"/>
      </g>
     </g>
     <g id="text_3">
      <!-- 100 -->
      <g transform="translate(339.4926 309.196562)scale(0.1 -0.1)">
       <defs>
        <path id="DejaVuSans-31" d="M 794 531 
L 1825 531 
L 1825 4091 
L 703 3866 
L 703 4441 
L 1819 4666 
L 2450 4666 
L 2450 531 
L 3481 531 
L 3481 0 
L 794 0 
L 794 531 
z
" transform="scale(0.015625)"/>
       </defs>
       <use xlink:href="#DejaVuSans-31"/>
       <use xlink:href="#DejaVuSans-30" x="63.623047"/>
       <use xlink:href="#DejaVuSans-30" x="127.246094"/>
      </g>
     </g>
    </g>
    <g id="xtick_4">
     <g id="line2d_4">
      <g>
       <use xlink:href="#m5432fd3481" x="476.278673" y="294.598125" style="stroke: #000000; stroke-width: 0.8"/>
      </g>
     </g>
     <g id="text_4">
      <!-- 150 -->
      <g transform="translate(466.734923 309.196562)scale(0.1 -0.1)">
       <use xlink:href="#DejaVuSans-31"/>
       <use xlink:href="#DejaVuSans-35" x="63.623047"/>
       <use xlink:href="#DejaVuSans-30" x="127.246094"/>
      </g>
     </g>
    </g>
    <g id="xtick_5">
     <g id="line2d_5">
      <g>
       <use xlink:href="#m5432fd3481" x="603.520996" y="294.598125" style="stroke: #000000; stroke-width: 0.8"/>
      </g>
     </g>
     <g id="text_5">
      <!-- 200 -->
      <g transform="translate(593.977246 309.196562)scale(0.1 -0.1)">
       <defs>
        <path id="DejaVuSans-32" d="M 1228 531 
L 3431 531 
L 3431 0 
L 469 0 
L 469 531 
Q 828 903 1448 1529 
Q 2069 2156 2228 2338 
Q 2531 2678 2651 2914 
Q 2772 3150 2772 3378 
Q 2772 3750 2511 3984 
Q 2250 4219 1831 4219 
Q 1534 4219 1204 4116 
Q 875 4013 500 3803 
L 500 4441 
Q 881 4594 1212 4672 
Q 1544 4750 1819 4750 
Q 2544 4750 2975 4387 
Q 3406 4025 3406 3419 
Q 3406 3131 3298 2873 
Q 3191 2616 2906 2266 
Q 2828 2175 2409 1742 
Q 1991 1309 1228 531 
z
" transform="scale(0.015625)"/>
       </defs>
       <use xlink:href="#DejaVuSans-32"/>
       <use xlink:href="#DejaVuSans-30" x="63.623047"/>
       <use xlink:href="#DejaVuSans-30" x="127.246094"/>
      </g>
     </g>
    </g>
    <g id="xtick_6">
     <g id="line2d_6">
      <g>
       <use xlink:href="#m5432fd3481" x="730.763319" y="294.598125" style="stroke: #000000; stroke-width: 0.8"/>
      </g>
     </g>
     <g id="text_6">
      <!-- 250 -->
      <g transform="translate(721.219569 309.196562)scale(0.1 -0.1)">
       <use xlink:href="#DejaVuSans-32"/>
       <use xlink:href="#DejaVuSans-35" x="63.623047"/>
       <use xlink:href="#DejaVuSans-30" x="127.246094"/>
      </g>
     </g>
    </g>
    <g id="xtick_7">
     <g id="line2d_7">
      <g>
       <use xlink:href="#m5432fd3481" x="858.005642" y="294.598125" style="stroke: #000000; stroke-width: 0.8"/>
      </g>
     </g>
     <g id="text_7">
      <!-- 300 -->
      <g transform="translate(848.461892 309.196562)scale(0.1 -0.1)">
       <defs>
        <path id="DejaVuSans-33" d="M 2597 2516 
Q 3050 2419 3304 2112 
Q 3559 1806 3559 1356 
Q 3559 666 3084 287 
Q 2609 -91 1734 -91 
Q 1441 -91 1130 -33 
Q 819 25 488 141 
L 488 750 
Q 750 597 1062 519 
Q 1375 441 1716 441 
Q 2309 441 2620 675 
Q 2931 909 2931 1356 
Q 2931 1769 2642 2001 
Q 2353 2234 1838 2234 
L 1294 2234 
L 1294 2753 
L 1863 2753 
Q 2328 2753 2575 2939 
Q 2822 3125 2822 3475 
Q 2822 3834 2567 4026 
Q 2313 4219 1838 4219 
Q 1578 4219 1281 4162 
Q 984 4106 628 3988 
L 628 4550 
Q 988 4650 1302 4700 
Q 1616 4750 1894 4750 
Q 2613 4750 3031 4423 
Q 3450 4097 3450 3541 
Q 3450 3153 3228 2886 
Q 3006 2619 2597 2516 
z
" transform="scale(0.015625)"/>
       </defs>
       <use xlink:href="#DejaVuSans-33"/>
       <use xlink:href="#DejaVuSans-30" x="63.623047"/>
       <use xlink:href="#DejaVuSans-30" x="127.246094"/>
      </g>
     </g>
    </g>
    <g id="text_8">
     <!-- Próbka -->
     <g transform="translate(458.030469 322.874687)scale(0.1 -0.1)">
      <defs>
       <path id="DejaVuSans-50" d="M 1259 4147 
L 1259 2394 
L 2053 2394 
Q 2494 2394 2734 2622 
Q 2975 2850 2975 3272 
Q 2975 3691 2734 3919 
Q 2494 4147 2053 4147 
L 1259 4147 
z
M 628 4666 
L 2053 4666 
Q 2838 4666 3239 4311 
Q 3641 3956 3641 3272 
Q 3641 2581 3239 2228 
Q 2838 1875 2053 1875 
L 1259 1875 
L 1259 0 
L 628 0 
L 628 4666 
z
" transform="scale(0.015625)"/>
       <path id="DejaVuSans-72" d="M 2631 2963 
Q 2534 3019 2420 3045 
Q 2306 3072 2169 3072 
Q 1681 3072 1420 2755 
Q 1159 2438 1159 1844 
L 1159 0 
L 581 0 
L 581 3500 
L 1159 3500 
L 1159 2956 
Q 1341 3275 1631 3429 
Q 1922 3584 2338 3584 
Q 2397 3584 2469 3576 
Q 2541 3569 2628 3553 
L 2631 2963 
z
" transform="scale(0.015625)"/>
       <path id="DejaVuSans-f3" d="M 1959 3097 
Q 1497 3097 1228 2736 
Q 959 2375 959 1747 
Q 959 1119 1226 758 
Q 1494 397 1959 397 
Q 2419 397 2687 759 
Q 2956 1122 2956 1747 
Q 2956 2369 2687 2733 
Q 2419 3097 1959 3097 
z
M 1959 3584 
Q 2709 3584 3137 3096 
Q 3566 2609 3566 1747 
Q 3566 888 3137 398 
Q 2709 -91 1959 -91 
Q 1206 -91 779 398 
Q 353 888 353 1747 
Q 353 2609 779 3096 
Q 1206 3584 1959 3584 
z
M 2394 5119 
L 3016 5119 
L 1998 3944 
L 1519 3944 
L 2394 5119 
z
" transform="scale(0.015625)"/>
       <path id="DejaVuSans-62" d="M 3116 1747 
Q 3116 2381 2855 2742 
Q 2594 3103 2138 3103 
Q 1681 3103 1420 2742 
Q 1159 2381 1159 1747 
Q 1159 1113 1420 752 
Q 1681 391 2138 391 
Q 2594 391 2855 752 
Q 3116 1113 3116 1747 
z
M 1159 2969 
Q 1341 3281 1617 3432 
Q 1894 3584 2278 3584 
Q 2916 3584 3314 3078 
Q 3713 2572 3713 1747 
Q 3713 922 3314 415 
Q 2916 -91 2278 -91 
Q 1894 -91 1617 61 
Q 1341 213 1159 525 
L 1159 0 
L 581 0 
L 581 4863 
L 1159 4863 
L 1159 2969 
z
" transform="scale(0.015625)"/>
       <path id="DejaVuSans-6b" d="M 581 4863 
L 1159 4863 
L 1159 1991 
L 2875 3500 
L 3609 3500 
L 1753 1863 
L 3688 0 
L 2938 0 
L 1159 1709 
L 1159 0 
L 581 0 
L 581 4863 
z
" transform="scale(0.015625)"/>
       <path id="DejaVuSans-61" d="M 2194 1759 
Q 1497 1759 1228 1600 
Q 959 1441 959 1056 
Q 959 750 1161 570 
Q 1363 391 1709 391 
Q 2188 391 2477 730 
Q 2766 1069 2766 1631 
L 2766 1759 
L 2194 1759 
z
M 3341 1997 
L 3341 0 
L 2766 0 
L 2766 531 
Q 2569 213 2275 61 
Q 1981 -91 1556 -91 
Q 1019 -91 701 211 
Q 384 513 384 1019 
Q 384 1609 779 1909 
Q 1175 2209 1959 2209 
L 2766 2209 
L 2766 2266 
Q 2766 2663 2505 2880 
Q 2244 3097 1772 3097 
Q 1472 3097 1187 3025 
Q 903 2953 641 2809 
L 641 3341 
Q 956 3463 1253 3523 
Q 1550 3584 1831 3584 
Q 2591 3584 2966 3190 
Q 3341 2797 3341 1997 
z
" transform="scale(0.015625)"/>
      </defs>
      <use xlink:href="#DejaVuSans-50"/>
      <use xlink:href="#DejaVuSans-72" x="58.552734"/>
      <use xlink:href="#DejaVuSans-f3" x="97.416016"/>
      <use xlink:href="#DejaVuSans-62" x="158.597656"/>
      <use xlink:href="#DejaVuSans-6b" x="222.074219"/>
      <use xlink:href="#DejaVuSans-61" x="278.234375"/>
     </g>
    </g>
   </g>
   <g id="matplotlib.axis_2">
    <g id="ytick_1">
     <g id="line2d_8">
      <defs>
       <path id="m81733374ef" d="M 0 0 
L -3.5 0 
" style="stroke: #000000; stroke-width: 0.8"/>
      </defs>
      <g>
       <use xlink:href="#m81733374ef" x="56.50625" y="282.311345" style="stroke: #000000; stroke-width: 0.8"/>
      </g>
     </g>
     <g id="text_9">
      <!-- 0.000 -->
      <g transform="translate(20.878125 286.110564)scale(0.1 -0.1)">
       <defs>
        <path id="DejaVuSans-2e" d="M 684 794 
L 1344 794 
L 1344 0 
L 684 0 
L 684 794 
z
" transform="scale(0.015625)"/>
       </defs>
       <use xlink:href="#DejaVuSans-30"/>
       <use xlink:href="#DejaVuSans-2e" x="63.623047"/>
       <use xlink:href="#DejaVuSans-30" x="95.410156"/>
       <use xlink:href="#DejaVuSans-30" x="159.033203"/>
       <use xlink:href="#DejaVuSans-30" x="222.65625"/>
      </g>
     </g>
    </g>
    <g id="ytick_2">
     <g id="line2d_9">
      <g>
       <use xlink:href="#m81733374ef" x="56.50625" y="233.229875" style="stroke: #000000; stroke-width: 0.8"/>
      </g>
     </g>
     <g id="text_10">
      <!-- 0.005 -->
      <g transform="translate(20.878125 237.029094)scale(0.1 -0.1)">
       <use xlink:href="#DejaVuSans-30"/>
       <use xlink:href="#DejaVuSans-2e" x="63.623047"/>
       <use xlink:href="#DejaVuSans-30" x="95.410156"/>
       <use xlink:href="#DejaVuSans-30" x="159.033203"/>
       <use xlink:href="#DejaVuSans-35" x="222.65625"/>
      </g>
     </g>
    </g>
    <g id="ytick_3">
     <g id="line2d_10">
      <g>
       <use xlink:href="#m81733374ef" x="56.50625" y="184.148405" style="stroke: #000000; stroke-width: 0.8"/>
      </g>
     </g>
     <g id="text_11">
      <!-- 0.010 -->
      <g transform="translate(20.878125 187.947624)scale(0.1 -0.1)">
       <use xlink:href="#DejaVuSans-30"/>
       <use xlink:href="#DejaVuSans-2e" x="63.623047"/>
       <use xlink:href="#DejaVuSans-30" x="95.410156"/>
       <use xlink:href="#DejaVuSans-31" x="159.033203"/>
       <use xlink:href="#DejaVuSans-30" x="222.65625"/>
      </g>
     </g>
    </g>
    <g id="ytick_4">
     <g id="line2d_11">
      <g>
       <use xlink:href="#m81733374ef" x="56.50625" y="135.066935" style="stroke: #000000; stroke-width: 0.8"/>
      </g>
     </g>
     <g id="text_12">
      <!-- 0.015 -->
      <g transform="translate(20.878125 138.866154)scale(0.1 -0.1)">
       <use xlink:href="#DejaVuSans-30"/>
       <use xlink:href="#DejaVuSans-2e" x="63.623047"/>
       <use xlink:href="#DejaVuSans-30" x="95.410156"/>
       <use xlink:href="#DejaVuSans-31" x="159.033203"/>
       <use xlink:href="#DejaVuSans-35" x="222.65625"/>
      </g>
     </g>
    </g>
    <g id="ytick_5">
     <g id="line2d_12">
      <g>
       <use xlink:href="#m81733374ef" x="56.50625" y="85.985466" style="stroke: #000000; stroke-width: 0.8"/>
      </g>
     </g>
     <g id="text_13">
      <!-- 0.020 -->
      <g transform="translate(20.878125 89.784684)scale(0.1 -0.1)">
       <use xlink:href="#DejaVuSans-30"/>
       <use xlink:href="#DejaVuSans-2e" x="63.623047"/>
       <use xlink:href="#DejaVuSans-30" x="95.410156"/>
       <use xlink:href="#DejaVuSans-32" x="159.033203"/>
       <use xlink:href="#DejaVuSans-30" x="222.65625"/>
      </g>
     </g>
    </g>
    <g id="ytick_6">
     <g id="line2d_13">
      <g>
       <use xlink:href="#m81733374ef" x="56.50625" y="36.903996" style="stroke: #000000; stroke-width: 0.8"/>
      </g>
     </g>
     <g id="text_14">
      <!-- 0.025 -->
      <g transform="translate(20.878125 40.703214)scale(0.1 -0.1)">
       <use xlink:href="#DejaVuSans-30"/>
       <use xlink:href="#DejaVuSans-2e" x="63.623047"/>
       <use xlink:href="#DejaVuSans-30" x="95.410156"/>
       <use xlink:href="#DejaVuSans-32" x="159.033203"/>
       <use xlink:href="#DejaVuSans-35" x="222.65625"/>
      </g>
     </g>
    </g>
    <g id="text_15">
     <!-- Wartość -->
     <g transform="translate(14.798438 178.816094)rotate(-90)scale(0.1 -0.1)">
      <defs>
       <path id="DejaVuSans-57" d="M 213 4666 
L 850 4666 
L 1831 722 
L 2809 4666 
L 3519 4666 
L 4500 722 
L 5478 4666 
L 6119 4666 
L 4947 0 
L 4153 0 
L 3169 4050 
L 2175 0 
L 1381 0 
L 213 4666 
z
" transform="scale(0.015625)"/>
       <path id="DejaVuSans-74" d="M 1172 4494 
L 1172 3500 
L 2356 3500 
L 2356 3053 
L 1172 3053 
L 1172 1153 
Q 1172 725 1289 603 
Q 1406 481 1766 481 
L 2356 481 
L 2356 0 
L 1766 0 
Q 1100 0 847 248 
Q 594 497 594 1153 
L 594 3053 
L 172 3053 
L 172 3500 
L 594 3500 
L 594 4494 
L 1172 4494 
z
" transform="scale(0.015625)"/>
       <path id="DejaVuSans-6f" d="M 1959 3097 
Q 1497 3097 1228 2736 
Q 959 2375 959 1747 
Q 959 1119 1226 758 
Q 1494 397 1959 397 
Q 2419 397 2687 759 
Q 2956 1122 2956 1747 
Q 2956 2369 2687 2733 
Q 2419 3097 1959 3097 
z
M 1959 3584 
Q 2709 3584 3137 3096 
Q 3566 2609 3566 1747 
Q 3566 888 3137 398 
Q 2709 -91 1959 -91 
Q 1206 -91 779 398 
Q 353 888 353 1747 
Q 353 2609 779 3096 
Q 1206 3584 1959 3584 
z
" transform="scale(0.015625)"/>
       <path id="DejaVuSans-15b" d="M 2242 5119 
L 2864 5119 
L 1846 3944 
L 1367 3944 
L 2242 5119 
z
M 2834 3397 
L 2834 2853 
Q 2591 2978 2328 3040 
Q 2066 3103 1784 3103 
Q 1356 3103 1142 2972 
Q 928 2841 928 2578 
Q 928 2378 1081 2264 
Q 1234 2150 1697 2047 
L 1894 2003 
Q 2506 1872 2764 1633 
Q 3022 1394 3022 966 
Q 3022 478 2636 193 
Q 2250 -91 1575 -91 
Q 1294 -91 989 -36 
Q 684 19 347 128 
L 347 722 
Q 666 556 975 473 
Q 1284 391 1588 391 
Q 1994 391 2212 530 
Q 2431 669 2431 922 
Q 2431 1156 2273 1281 
Q 2116 1406 1581 1522 
L 1381 1569 
Q 847 1681 609 1914 
Q 372 2147 372 2553 
Q 372 3047 722 3315 
Q 1072 3584 1716 3584 
Q 2034 3584 2315 3537 
Q 2597 3491 2834 3397 
z
" transform="scale(0.015625)"/>
       <path id="DejaVuSans-107" d="M 3122 3366 
L 3122 2828 
Q 2878 2963 2633 3030 
Q 2388 3097 2138 3097 
Q 1578 3097 1268 2742 
Q 959 2388 959 1747 
Q 959 1106 1268 751 
Q 1578 397 2138 397 
Q 2388 397 2633 464 
Q 2878 531 3122 666 
L 3122 134 
Q 2881 22 2623 -34 
Q 2366 -91 2075 -91 
Q 1284 -91 818 406 
Q 353 903 353 1747 
Q 353 2603 823 3093 
Q 1294 3584 2113 3584 
Q 2378 3584 2631 3529 
Q 2884 3475 3122 3366 
z
M 2466 5119 
L 3088 5119 
L 2070 3944 
L 1591 3944 
L 2466 5119 
z
" transform="scale(0.015625)"/>
      </defs>
      <use xlink:href="#DejaVuSans-57"/>
      <use xlink:href="#DejaVuSans-61" x="92.501953"/>
      <use xlink:href="#DejaVuSans-72" x="153.78125"/>
      <use xlink:href="#DejaVuSans-74" x="194.894531"/>
      <use xlink:href="#DejaVuSans-6f" x="234.103516"/>
      <use xlink:href="#DejaVuSans-15b" x="295.285156"/>
      <use xlink:href="#DejaVuSans-107" x="347.384766"/>
     </g>
    </g>
   </g>
   <g id="line2d_14">
    <path d="M 94.551705 282.168813 
L 99.641397 282.214416 
L 104.73109 281.891536 
L 107.275937 282.197336 
L 114.910476 282.202806 
L 117.455323 282.238446 
L 120.000169 282.07608 
L 122.545016 282.219385 
L 130.179555 282.101214 
L 132.724401 281.976149 
L 135.269248 282.104861 
L 137.814094 282.051521 
L 140.358941 281.840038 
L 142.903787 282.101101 
L 147.99348 282.197533 
L 153.083173 282.065025 
L 155.62802 281.927622 
L 158.172866 281.932736 
L 160.717712 281.813707 
L 163.262559 282.128918 
L 168.352252 282.080177 
L 170.897098 282.161949 
L 173.441945 282.028894 
L 175.986791 282.175662 
L 178.531638 282.089513 
L 181.076484 282.170641 
L 183.621331 281.916904 
L 191.25587 282.075219 
L 196.345563 281.951658 
L 201.435256 282.053769 
L 203.980102 281.968719 
L 206.524949 282.142602 
L 209.069795 281.919902 
L 211.614642 282.131133 
L 216.704335 281.813036 
L 219.249181 281.783074 
L 221.794027 281.532537 
L 229.428567 282.014826 
L 237.063106 282.140286 
L 239.607953 281.970677 
L 242.152799 282.030872 
L 244.697646 281.772462 
L 247.242492 282.097367 
L 252.332185 281.935655 
L 257.421878 281.88249 
L 262.511571 282.139772 
L 265.056417 281.993959 
L 275.235803 282.078893 
L 277.78065 281.994958 
L 280.325496 282.07585 
L 282.870342 281.889012 
L 285.415189 281.886205 
L 287.960035 282.098133 
L 293.049728 282.100423 
L 300.684268 282.230372 
L 303.229114 282.13812 
L 310.863653 282.22397 
L 336.312118 282.117591 
L 338.856965 282.238138 
L 354.126043 282.204952 
L 356.67089 282.20098 
L 359.215736 282.060445 
L 361.760583 282.200765 
L 371.939968 282.024421 
L 374.484815 282.206178 
L 377.029661 282.17826 
L 379.574508 282.017335 
L 382.119354 282.188006 
L 387.209047 282.083341 
L 389.753894 282.182931 
L 392.29874 282.12461 
L 394.843587 282.202339 
L 397.388433 282.061757 
L 399.933279 282.223594 
L 415.202358 282.24358 
L 417.747205 282.138389 
L 420.292051 282.179428 
L 422.836898 281.90158 
L 425.381744 282.180712 
L 430.471437 282.108531 
L 433.016283 281.724362 
L 440.650823 282.224817 
L 450.830209 282.14569 
L 455.919902 282.211117 
L 458.464748 282.070668 
L 461.009594 282.201933 
L 471.18898 282.154492 
L 496.637445 282.123274 
L 499.182291 281.950786 
L 501.727138 281.999647 
L 504.271984 281.93057 
L 506.816831 282.115319 
L 509.361677 282.003972 
L 514.45137 281.98563 
L 516.996217 281.905479 
L 519.541063 282.019771 
L 522.085909 281.793386 
L 524.630756 282.131177 
L 527.175602 282.143029 
L 529.720449 281.956969 
L 532.265295 282.09817 
L 534.810142 281.831458 
L 537.354988 282.102522 
L 539.899835 281.874736 
L 542.444681 282.069836 
L 544.989528 281.871782 
L 547.534374 281.877232 
L 552.624067 282.097871 
L 555.168913 281.834981 
L 557.71376 282.131048 
L 560.258606 281.733835 
L 562.803453 281.858089 
L 565.348299 282.128807 
L 567.893146 282.004274 
L 570.437992 282.116083 
L 572.982839 281.98799 
L 575.527685 282.149328 
L 578.072532 281.939005 
L 580.617378 282.102186 
L 583.162224 281.946632 
L 585.707071 282.114376 
L 588.251917 281.957244 
L 590.796764 281.91508 
L 593.34161 282.158277 
L 595.886457 281.875793 
L 600.97615 282.017941 
L 603.520996 281.775139 
L 606.065843 281.66015 
L 611.155535 282.02623 
L 613.700382 281.806219 
L 618.790075 282.158763 
L 626.424614 281.658951 
L 628.969461 282.101686 
L 631.514307 281.868996 
L 634.059154 282.000247 
L 636.604 281.880589 
L 639.148847 281.999094 
L 641.693693 281.373033 
L 644.238539 281.824813 
L 646.783386 281.906256 
L 649.328232 282.14747 
L 651.873079 282.075041 
L 654.417925 282.157947 
L 656.962772 282.031305 
L 659.507618 282.122392 
L 662.052465 281.946403 
L 664.597311 282.149503 
L 667.142158 281.996842 
L 669.687004 282.167639 
L 672.23185 281.876793 
L 674.776697 281.985504 
L 677.321543 281.825357 
L 679.86639 282.164531 
L 682.411236 281.86668 
L 687.500929 282.095568 
L 700.225162 281.893774 
L 702.770008 282.022198 
L 705.314854 281.872555 
L 710.404547 282.089581 
L 712.949394 281.976007 
L 715.49424 281.990228 
L 718.039087 281.831836 
L 720.583933 282.091464 
L 723.12878 282.159013 
L 725.673626 281.904017 
L 728.218473 282.109751 
L 735.853012 282.053167 
L 738.397858 282.189484 
L 746.032398 281.962065 
L 753.666937 282.084139 
L 756.211784 282.130886 
L 758.75663 281.829642 
L 761.301477 281.817858 
L 763.846323 282.181472 
L 768.936016 282.117583 
L 771.480862 281.869256 
L 774.025709 282.022618 
L 776.570555 282.00974 
L 779.115402 281.880146 
L 781.660248 282.051809 
L 784.205095 281.962772 
L 786.749941 281.985185 
L 789.294788 281.86825 
L 791.839634 282.058807 
L 799.474173 282.027331 
L 802.01902 281.716759 
L 804.563866 282.056685 
L 809.653559 282.122461 
L 812.198406 282.176605 
L 817.288099 281.934017 
L 819.832945 282.069431 
L 822.377792 281.92317 
L 824.922638 282.111417 
L 827.467484 281.969384 
L 830.012331 282.080076 
L 832.557177 281.582909 
L 835.102024 282.163865 
L 840.191717 281.875081 
L 847.826256 282.089979 
L 850.371103 281.885634 
L 852.915949 281.870065 
L 855.460795 282.078089 
L 855.460795 282.078089 
" clip-path="url(#p010e6c96fd)" style="fill: none; stroke: #ff00ff; stroke-width: 0.9; stroke-linecap: square"/>
   </g>
   <g id="line2d_15">
    <path d="M 94.551705 279.502274 
L 97.096551 278.918726 
L 99.641397 279.923874 
L 102.186244 278.51513 
L 104.73109 276.268794 
L 107.275937 280.686876 
L 109.820783 280.271827 
L 112.36563 278.733888 
L 114.910476 280.559084 
L 117.455323 281.33726 
L 120.000169 277.182013 
L 122.545016 280.219172 
L 125.089862 279.817882 
L 127.634708 281.28703 
L 130.179555 275.524056 
L 132.724401 274.967563 
L 135.269248 277.958988 
L 137.814094 275.877928 
L 140.358941 270.971879 
L 142.903787 279.244579 
L 145.448634 279.124599 
L 147.99348 279.652451 
L 150.538327 279.746845 
L 153.083173 277.030658 
L 155.62802 273.277237 
L 158.172866 272.371315 
L 160.717712 269.874387 
L 163.262559 276.630604 
L 165.807405 276.616718 
L 168.352252 277.187714 
L 170.897098 277.997339 
L 173.441945 276.273099 
L 175.986791 280.274081 
L 178.531638 278.205326 
L 181.076484 278.985059 
L 183.621331 272.428912 
L 186.166177 276.374842 
L 191.25587 276.956225 
L 193.800716 274.620385 
L 196.345563 272.979234 
L 198.890409 276.951324 
L 203.980102 274.027815 
L 206.524949 276.694466 
L 209.069795 273.472365 
L 211.614642 278.779488 
L 214.159488 275.282174 
L 216.704335 270.29291 
L 219.249181 269.238577 
L 221.794027 265.465055 
L 224.338874 266.606308 
L 226.88372 275.605266 
L 229.428567 274.962737 
L 231.973413 277.329281 
L 234.51826 275.823969 
L 237.063106 277.157215 
L 239.607953 274.468612 
L 242.152799 275.619157 
L 244.697646 271.028013 
L 247.242492 276.0597 
L 249.787338 270.717388 
L 252.332185 272.333943 
L 254.877031 269.721315 
L 257.421878 272.973443 
L 259.966724 278.411014 
L 262.511571 278.193741 
L 265.056417 276.150235 
L 267.601264 275.877114 
L 270.14611 274.063187 
L 272.690957 276.847921 
L 275.235803 277.741683 
L 277.78065 274.306496 
L 280.325496 277.602048 
L 282.870342 273.379331 
L 285.415189 271.623543 
L 287.960035 276.479254 
L 290.504882 274.289283 
L 293.049728 273.055988 
L 295.594575 278.228254 
L 298.139421 280.959342 
L 300.684268 280.505648 
L 303.229114 278.63543 
L 305.773961 280.579761 
L 308.318807 280.355096 
L 310.863653 281.511764 
L 313.4085 280.204323 
L 315.953346 280.798185 
L 318.498193 280.959891 
L 321.043039 277.793214 
L 323.587886 278.400123 
L 326.132732 280.577611 
L 328.677579 279.139318 
L 331.222425 280.383649 
L 333.767272 279.831683 
L 336.312118 279.850627 
L 338.856965 280.746253 
L 341.401811 280.567676 
L 343.946657 280.749898 
L 346.491504 281.227533 
L 349.03635 278.806908 
L 351.581197 280.579909 
L 354.126043 279.71477 
L 356.67089 278.97128 
L 359.215736 277.543282 
L 361.760583 278.149882 
L 364.305429 279.879684 
L 366.850276 281.170971 
L 369.395122 279.376066 
L 371.939968 275.574527 
L 374.484815 280.929728 
L 377.029661 279.163689 
L 379.574508 277.6948 
L 382.119354 280.208781 
L 384.664201 278.974866 
L 387.209047 277.614291 
L 389.753894 279.303379 
L 394.843587 279.626668 
L 397.388433 276.463821 
L 399.933279 281.127538 
L 402.478126 280.973634 
L 405.022972 280.047664 
L 407.567819 277.568592 
L 410.112665 280.813575 
L 412.657512 278.547509 
L 415.202358 280.507862 
L 417.747205 279.174751 
L 420.292051 279.186078 
L 422.836898 274.084136 
L 425.381744 279.872889 
L 427.926591 278.459443 
L 430.471437 279.208505 
L 433.016283 271.176675 
L 435.56113 274.137411 
L 438.105976 280.273146 
L 440.650823 280.575834 
L 443.195669 280.161115 
L 445.740516 281.065048 
L 448.285362 280.170704 
L 450.830209 278.215058 
L 453.375055 279.954137 
L 455.919902 280.797429 
L 458.464748 276.201696 
L 461.009594 280.274523 
L 463.554441 279.303889 
L 466.099287 279.091373 
L 468.644134 279.114697 
L 471.18898 279.005085 
L 473.733827 279.014016 
L 476.278673 278.065358 
L 478.82352 277.299133 
L 481.368366 280.181473 
L 483.913213 281.450077 
L 486.458059 280.694992 
L 489.002906 276.735035 
L 491.547752 280.48947 
L 494.092598 276.805877 
L 496.637445 279.920801 
L 499.182291 275.544936 
L 501.727138 276.721214 
L 504.271984 271.702692 
L 506.816831 278.157121 
L 509.361677 275.786011 
L 511.906524 276.86975 
L 514.45137 277.124962 
L 516.996217 276.110474 
L 519.541063 277.671629 
L 522.085909 273.440488 
L 524.630756 278.328325 
L 527.175602 280.228197 
L 529.720449 276.561927 
L 532.265295 277.83357 
L 534.810142 272.487339 
L 537.354988 279.71624 
L 539.899835 271.910161 
L 542.444681 277.523885 
L 544.989528 273.186037 
L 547.534374 276.866557 
L 550.079221 277.166707 
L 552.624067 278.628146 
L 555.168913 271.717346 
L 557.71376 279.357782 
L 560.258606 269.911551 
L 562.803453 272.128615 
L 565.348299 278.805079 
L 567.893146 273.52317 
L 570.437992 279.173349 
L 572.982839 276.495292 
L 575.527685 277.935044 
L 578.072532 276.005064 
L 580.617378 278.086113 
L 583.162224 272.579603 
L 585.707071 278.687516 
L 588.251917 277.040614 
L 590.796764 274.669067 
L 593.34161 279.141177 
L 595.886457 275.054216 
L 598.431303 272.616084 
L 600.97615 275.334088 
L 603.520996 272.148565 
L 606.065843 267.854851 
L 608.610689 273.224424 
L 611.155535 276.727247 
L 613.700382 273.655718 
L 616.245228 276.580085 
L 618.790075 279.232103 
L 621.334921 275.829066 
L 623.879768 272.877983 
L 626.424614 267.734806 
L 628.969461 277.397766 
L 631.514307 271.984759 
L 634.059154 276.285431 
L 636.604 274.033254 
L 639.148847 275.994329 
L 641.693693 265.031491 
L 644.238539 270.667762 
L 646.783386 269.191155 
L 649.328232 279.120575 
L 651.873079 278.304656 
L 654.417925 278.78727 
L 656.962772 275.120961 
L 659.507618 279.490831 
L 662.052465 276.207708 
L 664.597311 278.447084 
L 667.142158 274.025462 
L 669.687004 278.67624 
L 672.23185 273.424917 
L 674.776697 276.268613 
L 677.321543 273.196939 
L 679.86639 280.129313 
L 682.411236 274.613005 
L 684.956083 278.405931 
L 687.500929 276.676716 
L 690.045776 275.951104 
L 692.590622 277.870757 
L 695.135469 275.494943 
L 697.680315 275.224634 
L 700.225162 271.510421 
L 702.770008 277.574255 
L 705.314854 272.289913 
L 707.859701 275.859179 
L 710.404547 277.266874 
L 712.949394 278.351681 
L 715.49424 274.709596 
L 718.039087 274.984587 
L 720.583933 276.395431 
L 723.12878 280.433388 
L 725.673626 274.535715 
L 728.218473 279.190916 
L 730.763319 277.442842 
L 733.308165 277.105653 
L 735.853012 276.127134 
L 738.397858 280.765822 
L 740.942705 278.130883 
L 743.487551 278.206793 
L 746.032398 276.411706 
L 748.577244 276.86744 
L 751.122091 277.620061 
L 753.666937 278.205351 
L 756.211784 279.127623 
L 758.75663 274.472538 
L 761.301477 273.374149 
L 763.846323 280.511632 
L 766.391169 278.856882 
L 768.936016 278.606944 
L 771.480862 272.580983 
L 774.025709 275.212513 
L 776.570555 276.94664 
L 779.115402 273.647197 
L 781.660248 277.235215 
L 784.205095 274.566683 
L 786.749941 277.267298 
L 789.294788 271.441137 
L 791.839634 278.463868 
L 794.38448 276.614587 
L 796.929327 276.636248 
L 799.474173 275.109103 
L 802.01902 268.937304 
L 804.563866 276.713329 
L 807.108713 275.662755 
L 809.653559 278.406308 
L 812.198406 279.158037 
L 814.743252 276.854977 
L 817.288099 273.385972 
L 819.832945 277.8125 
L 822.377792 275.039787 
L 824.922638 278.912644 
L 827.467484 276.13888 
L 830.012331 277.530578 
L 832.557177 264.36624 
L 835.102024 280.128245 
L 840.191717 272.382261 
L 842.736563 272.901436 
L 845.28141 276.819248 
L 847.826256 278.867771 
L 850.371103 274.256859 
L 852.915949 274.800942 
L 855.460795 277.432668 
L 855.460795 277.432668 
" clip-path="url(#p010e6c96fd)" style="fill: none; stroke: #9400d3; stroke-width: 0.9; stroke-linecap: square"/>
   </g>
   <g id="line2d_16">
    <path d="M 94.551705 280.047462 
L 97.096551 277.513756 
L 99.641397 280.045033 
L 102.186244 276.998619 
L 104.73109 278.461764 
L 107.275937 280.622383 
L 109.820783 280.803951 
L 112.36563 278.502809 
L 114.910476 281.367072 
L 117.455323 281.278164 
L 120.000169 278.560401 
L 122.545016 279.779775 
L 125.089862 279.421452 
L 127.634708 281.507216 
L 130.179555 274.404093 
L 132.724401 276.043445 
L 135.269248 277.854227 
L 137.814094 275.326932 
L 140.358941 270.732937 
L 142.903787 280.048258 
L 145.448634 278.971666 
L 147.99348 279.399359 
L 150.538327 278.737843 
L 153.083173 277.079717 
L 155.62802 272.696091 
L 158.172866 271.47802 
L 160.717712 269.309981 
L 163.262559 275.71044 
L 165.807405 275.84197 
L 168.352252 276.758849 
L 170.897098 277.155413 
L 173.441945 274.800883 
L 175.986791 280.466637 
L 178.531638 276.53788 
L 181.076484 279.380478 
L 183.621331 271.395528 
L 186.166177 277.505231 
L 188.711023 276.478111 
L 191.25587 278.010793 
L 193.800716 274.18311 
L 196.345563 271.850551 
L 198.890409 277.243779 
L 201.435256 275.254985 
L 203.980102 273.964226 
L 209.069795 272.829862 
L 211.614642 278.615778 
L 214.159488 274.876676 
L 216.704335 269.383637 
L 219.249181 268.744578 
L 221.794027 263.61001 
L 224.338874 266.832867 
L 226.88372 276.008403 
L 229.428567 274.797762 
L 231.973413 276.285719 
L 234.51826 274.265114 
L 237.063106 276.205757 
L 239.607953 273.3941 
L 242.152799 275.893397 
L 244.697646 270.238913 
L 247.242492 275.954553 
L 249.787338 265.842267 
L 252.332185 272.5268 
L 254.877031 268.486368 
L 257.421878 272.916389 
L 259.966724 278.409744 
L 262.511571 278.04199 
L 265.056417 277.493322 
L 267.601264 274.000179 
L 270.14611 274.806497 
L 272.690957 276.507178 
L 275.235803 278.523622 
L 277.78065 273.364117 
L 280.325496 279.028577 
L 282.870342 272.952144 
L 285.415189 271.971162 
L 287.960035 274.497423 
L 290.504882 272.751043 
L 293.049728 270.851585 
L 295.594575 278.675405 
L 298.139421 281.114483 
L 300.684268 280.78813 
L 303.229114 278.806243 
L 305.773961 280.427788 
L 308.318807 280.503014 
L 310.863653 281.308839 
L 313.4085 280.178835 
L 315.953346 280.050607 
L 318.498193 281.131062 
L 321.043039 277.678526 
L 323.587886 278.280043 
L 326.132732 280.816936 
L 328.677579 278.050558 
L 331.222425 280.599019 
L 333.767272 280.3242 
L 336.312118 280.212267 
L 338.856965 279.731904 
L 341.401811 279.075301 
L 343.946657 280.519268 
L 346.491504 281.119443 
L 349.03635 277.872332 
L 351.581197 280.652986 
L 354.126043 279.710216 
L 356.67089 278.218478 
L 359.215736 278.593807 
L 361.760583 276.255842 
L 364.305429 280.497628 
L 366.850276 281.047033 
L 369.395122 279.925024 
L 371.939968 276.920738 
L 374.484815 281.496802 
L 377.029661 279.977288 
L 379.574508 279.233279 
L 382.119354 280.063085 
L 384.664201 279.988915 
L 387.209047 277.969718 
L 389.753894 280.890965 
L 392.29874 279.879148 
L 394.843587 279.526111 
L 397.388433 276.151636 
L 399.933279 281.799458 
L 402.478126 280.977419 
L 405.022972 280.795298 
L 407.567819 277.839061 
L 410.112665 281.423587 
L 412.657512 279.725645 
L 415.202358 279.853357 
L 417.747205 279.528248 
L 420.292051 279.517861 
L 422.836898 275.430632 
L 425.381744 280.647694 
L 427.926591 277.962193 
L 430.471437 279.157885 
L 433.016283 274.834541 
L 435.56113 276.321922 
L 438.105976 280.648683 
L 440.650823 280.991747 
L 443.195669 280.161557 
L 445.740516 281.137414 
L 448.285362 280.315127 
L 450.830209 276.158497 
L 453.375055 279.882131 
L 455.919902 280.973525 
L 458.464748 277.50493 
L 461.009594 279.60422 
L 463.554441 279.07287 
L 466.099287 278.167639 
L 468.644134 279.79248 
L 471.18898 278.675292 
L 473.733827 279.559277 
L 476.278673 279.29348 
L 478.82352 278.365864 
L 481.368366 279.661448 
L 483.913213 281.875292 
L 486.458059 281.400034 
L 489.002906 277.473378 
L 491.547752 280.22546 
L 494.092598 275.322766 
L 496.637445 280.015507 
L 499.182291 275.923858 
L 501.727138 278.104592 
L 504.271984 270.070473 
L 506.816831 278.838484 
L 509.361677 276.321797 
L 511.906524 277.733903 
L 514.45137 277.745552 
L 516.996217 278.319158 
L 519.541063 278.757468 
L 522.085909 275.163985 
L 524.630756 279.588347 
L 527.175602 280.968273 
L 529.720449 277.133337 
L 532.265295 279.036368 
L 534.810142 273.426641 
L 537.354988 281.145695 
L 539.899835 272.163031 
L 542.444681 278.470386 
L 544.989528 273.78475 
L 547.534374 278.704065 
L 550.079221 277.384425 
L 552.624067 279.195244 
L 555.168913 274.159224 
L 557.71376 280.075234 
L 560.258606 272.177416 
L 562.803453 271.197555 
L 565.348299 279.13633 
L 567.893146 271.212109 
L 570.437992 280.180523 
L 572.982839 276.856588 
L 575.527685 278.103402 
L 578.072532 277.40643 
L 580.617378 279.326837 
L 583.162224 271.193422 
L 585.707071 279.405945 
L 588.251917 277.820855 
L 590.796764 274.452711 
L 593.34161 278.81871 
L 595.886457 276.684321 
L 598.431303 273.112406 
L 600.97615 275.937825 
L 603.520996 274.120037 
L 606.065843 271.094694 
L 608.610689 275.065168 
L 611.155535 278.113457 
L 613.700382 276.200991 
L 616.245228 277.727026 
L 618.790075 279.834164 
L 621.334921 276.605607 
L 623.879768 273.819394 
L 626.424614 267.651749 
L 628.969461 277.457382 
L 631.514307 271.908404 
L 634.059154 277.298617 
L 636.604 274.986028 
L 639.148847 276.271025 
L 641.693693 269.00105 
L 644.238539 271.127934 
L 646.783386 268.305065 
L 649.328232 279.402607 
L 651.873079 279.290984 
L 654.417925 279.950624 
L 656.962772 273.790523 
L 659.507618 280.398993 
L 662.052465 277.546268 
L 664.597311 278.9444 
L 667.142158 273.977496 
L 669.687004 279.159616 
L 672.23185 274.872385 
L 674.776697 277.56104 
L 677.321543 274.820792 
L 679.86639 280.949532 
L 682.411236 275.163299 
L 684.956083 279.784718 
L 687.500929 276.523918 
L 690.045776 275.634632 
L 692.590622 277.889953 
L 695.135469 276.87246 
L 697.680315 275.392789 
L 700.225162 271.526782 
L 702.770008 277.710853 
L 705.314854 273.317785 
L 707.859701 276.935813 
L 710.404547 276.849994 
L 712.949394 279.620336 
L 715.49424 274.103251 
L 718.039087 277.635582 
L 720.583933 276.793699 
L 723.12878 280.80301 
L 725.673626 275.723553 
L 728.218473 280.140813 
L 730.763319 278.105332 
L 733.308165 278.661651 
L 735.853012 277.559463 
L 738.397858 281.421766 
L 740.942705 279.383343 
L 743.487551 279.565925 
L 746.032398 276.572744 
L 748.577244 278.690217 
L 751.122091 278.724091 
L 753.666937 279.575426 
L 756.211784 278.676686 
L 758.75663 276.472228 
L 761.301477 273.759533 
L 763.846323 281.214285 
L 766.391169 279.822232 
L 768.936016 279.014858 
L 771.480862 274.461128 
L 774.025709 276.462307 
L 776.570555 278.922016 
L 779.115402 275.364086 
L 781.660248 278.315607 
L 784.205095 274.876396 
L 786.749941 278.320601 
L 789.294788 270.899405 
L 791.839634 279.922797 
L 794.38448 277.607612 
L 796.929327 276.559927 
L 799.474173 276.034993 
L 802.01902 271.300646 
L 804.563866 277.68642 
L 807.108713 276.149485 
L 809.653559 278.748451 
L 812.198406 279.367366 
L 814.743252 278.188682 
L 817.288099 273.351243 
L 819.832945 279.258774 
L 822.377792 275.533875 
L 824.922638 280.09461 
L 827.467484 277.719227 
L 830.012331 277.68014 
L 832.557177 263.139018 
L 835.102024 280.772964 
L 837.64687 277.299169 
L 840.191717 271.95038 
L 842.736563 273.276486 
L 845.28141 276.633561 
L 847.826256 279.798276 
L 850.371103 274.244398 
L 852.915949 277.468608 
L 855.460795 276.660818 
L 855.460795 276.660818 
" clip-path="url(#p010e6c96fd)" style="fill: none; stroke: #00ffff; stroke-width: 0.9; stroke-linecap: square"/>
   </g>
   <g id="line2d_17">
    <path d="M 94.551705 280.382315 
L 97.096551 276.3628 
L 99.641397 280.632027 
L 102.186244 272.77718 
L 104.73109 280.075396 
L 107.275937 279.827193 
L 109.820783 281.21422 
L 112.36563 279.01088 
L 114.910476 281.880804 
L 117.455323 281.437381 
L 120.000169 279.321915 
L 122.545016 279.92538 
L 125.089862 279.107552 
L 127.634708 281.471646 
L 130.179555 273.914557 
L 132.724401 277.919106 
L 135.269248 277.076215 
L 137.814094 275.668997 
L 140.358941 272.725057 
L 142.903787 280.817116 
L 145.448634 279.331118 
L 147.99348 279.511091 
L 150.538327 278.132432 
L 153.083173 277.752364 
L 155.62802 272.285112 
L 158.172866 271.98978 
L 160.717712 270.755608 
L 163.262559 276.40598 
L 165.807405 274.688477 
L 168.352252 276.500012 
L 170.897098 277.29078 
L 173.441945 271.652316 
L 175.986791 280.995049 
L 178.531638 273.546172 
L 181.076484 280.155526 
L 183.621331 271.64959 
L 186.166177 278.662775 
L 188.711023 277.175476 
L 191.25587 279.586864 
L 193.800716 275.708192 
L 196.345563 272.974659 
L 198.890409 278.521718 
L 201.435256 276.453134 
L 203.980102 275.872958 
L 206.524949 269.791814 
L 209.069795 272.771783 
L 211.614642 277.108298 
L 214.159488 275.417746 
L 216.704335 270.46262 
L 219.249181 269.889379 
L 221.794027 264.317447 
L 224.338874 269.54609 
L 226.88372 277.515873 
L 229.428567 276.176001 
L 231.973413 275.674655 
L 234.51826 273.261422 
L 237.063106 276.795611 
L 239.607953 274.052303 
L 242.152799 277.64318 
L 244.697646 270.753702 
L 247.242492 275.69173 
L 249.787338 261.733693 
L 252.332185 273.128346 
L 254.877031 269.571581 
L 259.966724 279.002246 
L 262.511571 277.354961 
L 265.056417 279.24272 
L 267.601264 273.458381 
L 270.14611 276.930799 
L 272.690957 276.509304 
L 275.235803 280.070792 
L 277.78065 273.805488 
L 280.325496 280.462204 
L 282.870342 273.997936 
L 285.415189 273.484948 
L 287.960035 273.85812 
L 290.504882 270.946398 
L 293.049728 271.274808 
L 295.594575 279.05652 
L 298.139421 281.239265 
L 300.684268 280.858568 
L 303.229114 278.494186 
L 305.773961 280.330426 
L 308.318807 280.943009 
L 310.863653 281.058066 
L 313.4085 279.944016 
L 315.953346 279.491814 
L 318.498193 281.504851 
L 321.043039 278.069759 
L 323.587886 278.247942 
L 326.132732 281.300604 
L 328.677579 276.311366 
L 331.222425 280.936415 
L 333.767272 279.291568 
L 336.312118 280.321608 
L 338.856965 279.014505 
L 341.401811 276.09375 
L 343.946657 279.10699 
L 346.491504 281.019499 
L 349.03635 278.68179 
L 351.581197 280.13522 
L 354.126043 280.308153 
L 356.67089 276.624504 
L 359.215736 279.822778 
L 361.760583 275.382804 
L 364.305429 280.75914 
L 366.850276 280.897894 
L 369.395122 280.488895 
L 371.939968 278.355939 
L 374.484815 281.700217 
L 377.029661 280.524221 
L 382.119354 280.02411 
L 384.664201 280.998254 
L 387.209047 278.518757 
L 389.753894 281.627279 
L 392.29874 280.096659 
L 394.843587 280.111925 
L 397.388433 276.465895 
L 399.933279 282.092311 
L 402.478126 281.143288 
L 405.022972 281.294764 
L 407.567819 278.581976 
L 410.112665 281.708079 
L 412.657512 280.687411 
L 415.202358 279.204519 
L 417.747205 279.574585 
L 420.292051 280.241009 
L 422.836898 276.117279 
L 425.381744 281.310311 
L 427.926591 277.957862 
L 430.471437 279.252587 
L 433.016283 277.797095 
L 435.56113 277.745162 
L 438.105976 281.150601 
L 440.650823 281.530347 
L 443.195669 280.443065 
L 445.740516 281.410135 
L 448.285362 280.71356 
L 450.830209 274.915948 
L 453.375055 280.391084 
L 455.919902 281.369622 
L 458.464748 279.145196 
L 461.009594 279.034759 
L 463.554441 279.265988 
L 466.099287 277.683469 
L 468.644134 280.690359 
L 471.18898 278.505559 
L 473.733827 280.269983 
L 476.278673 280.331808 
L 478.82352 279.459988 
L 481.368366 279.838961 
L 483.913213 281.991243 
L 486.458059 281.715458 
L 489.002906 278.764259 
L 491.547752 280.625068 
L 494.092598 271.508367 
L 496.637445 280.276415 
L 499.182291 277.006396 
L 501.727138 279.639841 
L 504.271984 269.512988 
L 506.816831 279.812391 
L 509.361677 277.429528 
L 511.906524 278.924894 
L 514.45137 278.027671 
L 516.996217 279.785421 
L 519.541063 279.654374 
L 522.085909 277.032435 
L 524.630756 280.615352 
L 527.175602 281.479486 
L 529.720449 278.323514 
L 532.265295 279.795961 
L 534.810142 275.203828 
L 537.354988 281.710155 
L 539.899835 273.483158 
L 542.444681 279.302343 
L 544.989528 274.395253 
L 547.534374 280.213171 
L 550.079221 278.083226 
L 552.624067 279.905952 
L 555.168913 276.188695 
L 557.71376 280.776387 
L 560.258606 275.712329 
L 562.803453 271.2926 
L 565.348299 279.707362 
L 567.893146 269.940025 
L 570.437992 281.014352 
L 572.982839 277.359416 
L 575.527685 279.199862 
L 578.072532 279.439521 
L 580.617378 280.359726 
L 583.162224 270.787284 
L 585.707071 280.190518 
L 588.251917 278.458643 
L 590.796764 275.3317 
L 593.34161 278.741415 
L 595.886457 278.315992 
L 598.431303 274.131031 
L 600.97615 277.12922 
L 603.520996 275.740749 
L 606.065843 274.095042 
L 608.610689 277.33237 
L 611.155535 279.451968 
L 613.700382 277.567064 
L 616.245228 279.080031 
L 618.790075 280.895856 
L 621.334921 278.546242 
L 623.879768 276.024445 
L 626.424614 269.50599 
L 628.969461 277.141232 
L 631.514307 272.769196 
L 634.059154 277.990316 
L 636.604 275.849208 
L 639.148847 277.579603 
L 641.693693 272.240434 
L 644.238539 273.045336 
L 646.783386 268.937314 
L 649.328232 279.485101 
L 654.417925 281.009593 
L 656.962772 274.000657 
L 659.507618 281.147975 
L 662.052465 278.769531 
L 664.597311 279.230965 
L 667.142158 274.278571 
L 669.687004 279.836008 
L 672.23185 276.666323 
L 674.776697 279.003265 
L 677.321543 277.228093 
L 679.86639 281.360123 
L 682.411236 276.207536 
L 684.956083 281.105535 
L 687.500929 276.889102 
L 690.045776 277.018407 
L 692.590622 278.308846 
L 695.135469 278.706957 
L 697.680315 277.016782 
L 700.225162 271.584423 
L 702.770008 278.03677 
L 705.314854 274.925575 
L 707.859701 278.393121 
L 710.404547 277.574809 
L 712.949394 280.174957 
L 715.49424 273.855748 
L 718.039087 279.418517 
L 720.583933 277.619383 
L 723.12878 280.844896 
L 725.673626 277.789185 
L 728.218473 281.064863 
L 730.763319 279.352083 
L 733.308165 279.891484 
L 735.853012 279.016551 
L 738.397858 281.618021 
L 740.942705 280.595987 
L 743.487551 280.538122 
L 746.032398 276.837574 
L 748.577244 280.076355 
L 751.122091 279.782773 
L 753.666937 280.685657 
L 756.211784 278.592399 
L 758.75663 277.932529 
L 761.301477 275.176352 
L 763.846323 281.526413 
L 766.391169 280.524561 
L 768.936016 279.960351 
L 771.480862 276.306174 
L 774.025709 277.681194 
L 776.570555 280.572499 
L 779.115402 277.946941 
L 781.660248 279.686183 
L 784.205095 275.445229 
L 786.749941 279.715041 
L 789.294788 273.091008 
L 791.839634 280.953436 
L 794.38448 278.923051 
L 796.929327 277.724876 
L 799.474173 278.111372 
L 802.01902 274.274752 
L 804.563866 279.162403 
L 807.108713 277.515606 
L 809.653559 279.524281 
L 812.198406 280.232846 
L 814.743252 279.152141 
L 817.288099 274.34119 
L 819.832945 280.411635 
L 822.377792 276.231256 
L 824.922638 280.799874 
L 827.467484 279.067303 
L 830.012331 278.569804 
L 832.557177 262.76459 
L 835.102024 281.429008 
L 837.64687 278.362233 
L 840.191717 272.262446 
L 845.28141 276.627776 
L 847.826256 280.290492 
L 850.371103 274.75805 
L 852.915949 279.497726 
L 855.460795 276.405076 
L 855.460795 276.405076 
" clip-path="url(#p010e6c96fd)" style="fill: none; stroke: #ffa500; stroke-width: 0.9; stroke-linecap: square"/>
   </g>
   <g id="line2d_18">
    <path d="M 94.551705 247.677055 
L 97.096551 227.334276 
L 99.641397 252.857958 
L 102.186244 212.231501 
L 104.73109 211.946414 
L 107.275937 260.366984 
L 109.820783 258.206593 
L 112.36563 233.143237 
L 114.910476 266.728872 
L 117.455323 270.76942 
L 120.000169 220.222645 
L 122.545016 255.421663 
L 125.089862 246.812806 
L 127.634708 270.3616 
L 130.179555 203.551456 
L 132.724401 201.972455 
L 135.269248 226.6154 
L 137.814094 201.603112 
L 140.358941 134.766345 
L 142.903787 252.70484 
L 145.448634 246.532834 
L 147.99348 253.968052 
L 150.538327 237.572866 
L 153.083173 223.838937 
L 155.62802 169.083015 
L 158.172866 157.510321 
L 160.717712 127.943935 
L 163.262559 209.110668 
L 165.807405 210.446218 
L 168.352252 222.418134 
L 170.897098 222.241874 
L 173.441945 197.261035 
L 175.986791 257.849001 
L 178.531638 215.519519 
L 181.076484 250.214324 
L 183.621331 147.108528 
L 186.166177 221.110638 
L 188.711023 210.310081 
L 191.25587 233.259215 
L 193.800716 186.34224 
L 196.345563 151.649837 
L 198.890409 221.547377 
L 203.980102 174.784892 
L 206.524949 187.069343 
L 209.069795 160.845048 
L 211.614642 240.031597 
L 214.159488 188.244803 
L 216.704335 119.455069 
L 219.249181 111.585496 
L 221.794027 35.15267 
L 224.338874 80.78244 
L 226.88372 199.003039 
L 229.428567 194.468217 
L 231.973413 199.609249 
L 234.51826 184.187967 
L 237.063106 218.151643 
L 239.607953 170.660536 
L 242.152799 200.878576 
L 244.697646 129.99541 
L 247.242492 211.472735 
L 249.787338 91.724308 
L 252.332185 165.584727 
L 254.877031 121.610886 
L 257.421878 168.419361 
L 259.966724 235.99189 
L 262.511571 235.988539 
L 265.056417 216.087388 
L 267.601264 183.276202 
L 270.14611 188.95238 
L 272.690957 212.805113 
L 275.235803 239.221918 
L 277.78065 172.105508 
L 280.325496 234.835468 
L 282.870342 159.035613 
L 285.415189 146.358242 
L 287.960035 198.221448 
L 290.504882 180.786796 
L 293.049728 157.043081 
L 295.594575 228.040853 
L 298.139421 265.750329 
L 300.684268 262.470074 
L 303.229114 232.713256 
L 305.773961 256.994496 
L 308.318807 257.732365 
L 310.863653 270.224737 
L 313.4085 250.920821 
L 315.953346 257.253827 
L 318.498193 266.330309 
L 321.043039 215.153103 
L 323.587886 223.417338 
L 326.132732 264.580509 
L 328.677579 230.187413 
L 331.222425 258.833137 
L 333.767272 255.278065 
L 336.312118 250.29457 
L 338.856965 252.495269 
L 341.401811 243.297324 
L 343.946657 263.321691 
L 346.491504 266.832777 
L 349.03635 233.487678 
L 351.581197 259.554093 
L 354.126043 243.055143 
L 356.67089 229.70341 
L 359.215736 226.27425 
L 361.760583 216.969391 
L 364.305429 255.594267 
L 366.850276 269.750721 
L 369.395122 245.359072 
L 371.939968 195.416866 
L 374.484815 268.12737 
L 377.029661 243.561162 
L 379.574508 225.740179 
L 382.119354 251.699871 
L 384.664201 246.208238 
L 387.209047 220.689563 
L 389.753894 256.361796 
L 392.29874 246.126728 
L 394.843587 245.432964 
L 397.388433 198.669555 
L 399.933279 272.660734 
L 402.478126 263.051056 
L 405.022972 255.973276 
L 407.567819 215.780103 
L 410.112665 264.863462 
L 412.657512 240.217547 
L 415.202358 255.37609 
L 417.747205 243.886356 
L 420.292051 244.574137 
L 422.836898 172.246004 
L 425.381744 256.621695 
L 427.926591 225.948429 
L 430.471437 235.663866 
L 433.016283 155.910341 
L 435.56113 182.982559 
L 438.105976 257.989636 
L 440.650823 263.679013 
L 443.195669 252.676702 
L 445.740516 268.251335 
L 448.285362 255.408471 
L 450.830209 213.697461 
L 453.375055 248.291956 
L 455.919902 264.364932 
L 458.464748 215.200436 
L 461.009594 250.6124 
L 463.554441 237.622707 
L 466.099287 228.331526 
L 468.644134 246.260367 
L 471.18898 235.924042 
L 473.733827 244.248783 
L 476.278673 236.729779 
L 478.82352 219.357734 
L 483.913213 274.009076 
L 486.458059 267.227804 
L 489.002906 213.158378 
L 491.547752 258.886039 
L 494.092598 189.740735 
L 496.637445 245.937067 
L 499.182291 201.476742 
L 501.727138 220.995874 
L 504.271984 139.560753 
L 506.816831 238.456468 
L 509.361677 205.271906 
L 511.906524 224.646223 
L 514.45137 220.594139 
L 516.996217 218.886778 
L 519.541063 232.151615 
L 522.085909 186.509892 
L 524.630756 245.852461 
L 527.175602 265.416403 
L 529.720449 212.859205 
L 532.265295 238.309971 
L 534.810142 165.677812 
L 537.354988 263.797732 
L 539.899835 160.553086 
L 542.444681 232.016191 
L 544.989528 172.572962 
L 547.534374 223.168054 
L 550.079221 219.63949 
L 552.624067 245.511553 
L 555.168913 171.879903 
L 557.71376 252.799861 
L 560.258606 146.936827 
L 562.803453 136.03201 
L 565.348299 244.260071 
L 567.893146 154.291783 
L 570.437992 255.039408 
L 572.982839 211.644638 
L 575.527685 233.970213 
L 578.072532 208.228043 
L 580.617378 245.817725 
L 583.162224 153.546933 
L 585.707071 245.015341 
L 588.251917 217.386516 
L 590.796764 187.880826 
L 593.34161 245.473105 
L 598.431303 162.54738 
L 600.97615 199.945517 
L 603.520996 174.199605 
L 606.065843 128.662236 
L 608.610689 179.814722 
L 611.155535 225.142468 
L 613.700382 194.681329 
L 616.245228 216.908407 
L 618.790075 248.730021 
L 621.334921 209.765442 
L 623.879768 156.202807 
L 626.424614 89.562755 
L 628.969461 219.398887 
L 631.514307 156.700841 
L 634.059154 216.260226 
L 636.604 181.721345 
L 639.148847 211.568718 
L 641.693693 102.408747 
L 644.238539 133.568073 
L 646.783386 123.3609 
L 649.328232 246.144568 
L 651.873079 245.207144 
L 654.417925 253.303897 
L 656.962772 170.328605 
L 659.507618 259.139105 
L 662.052465 219.069065 
L 664.597311 241.391604 
L 667.142158 175.563267 
L 669.687004 248.207582 
L 672.23185 171.630994 
L 674.776697 216.171864 
L 677.321543 175.460729 
L 679.86639 262.876917 
L 682.411236 171.308503 
L 684.956083 243.299074 
L 687.500929 212.394396 
L 690.045776 204.814795 
L 692.590622 227.503818 
L 695.135469 202.559442 
L 697.680315 203.139446 
L 700.225162 141.450006 
L 702.770008 219.749558 
L 705.314854 164.275567 
L 707.859701 207.145225 
L 710.404547 218.164198 
L 712.949394 240.237813 
L 715.49424 172.834218 
L 718.039087 208.666206 
L 720.583933 218.455948 
L 723.12878 263.07194 
L 725.673626 192.897957 
L 728.218473 252.483493 
L 730.763319 227.768428 
L 733.308165 230.753634 
L 735.853012 223.735036 
L 738.397858 270.150161 
L 740.942705 244.315322 
L 743.487551 234.163526 
L 746.032398 212.499945 
L 748.577244 231.697495 
L 751.122091 233.756998 
L 753.666937 243.626379 
L 756.211784 236.305214 
L 761.301477 162.097192 
L 763.846323 266.545056 
L 766.391169 248.889552 
L 768.936016 239.300708 
L 771.480862 179.67573 
L 774.025709 201.627773 
L 776.570555 231.222204 
L 779.115402 182.757821 
L 781.660248 224.954682 
L 784.205095 189.578838 
L 786.749941 225.038808 
L 789.294788 139.023261 
L 791.839634 244.980012 
L 794.38448 227.940233 
L 796.929327 215.648165 
L 799.474173 207.854857 
L 802.01902 130.309941 
L 804.563866 223.168066 
L 807.108713 207.083378 
L 809.653559 236.719451 
L 812.198406 247.120403 
L 814.743252 219.124358 
L 817.288099 166.742638 
L 819.832945 237.695629 
L 822.377792 191.998702 
L 824.922638 250.337884 
L 827.467484 213.868381 
L 830.012331 229.270198 
L 832.557177 36.073209 
L 835.102024 261.53847 
L 837.64687 215.535309 
L 840.191717 150.277507 
L 842.736563 168.963522 
L 845.28141 206.82406 
L 847.826256 249.949382 
L 850.371103 178.448179 
L 852.915949 209.555965 
L 855.460795 214.125292 
L 855.460795 214.125292 
" clip-path="url(#p010e6c96fd)" style="fill: none; stroke: #ff4500; stroke-width: 0.9; stroke-linecap: square"/>
   </g>
   <g id="patch_3">
    <path d="M 56.50625 294.598125 
L 56.50625 22.798125 
" style="fill: none; stroke: #000000; stroke-width: 0.8; stroke-linejoin: miter; stroke-linecap: square"/>
   </g>
   <g id="patch_4">
    <path d="M 893.50625 294.598125 
L 893.50625 22.798125 
" style="fill: none; stroke: #000000; stroke-width: 0.8; stroke-linejoin: miter; stroke-linecap: square"/>
   </g>
   <g id="patch_5">
    <path d="M 56.50625 294.598125 
L 893.50625 294.598125 
" style="fill: none; stroke: #000000; stroke-width: 0.8; stroke-linejoin: miter; stroke-linecap: square"/>
   </g>
   <g id="patch_6">
    <path d="M 56.50625 22.798125 
L 893.50625 22.798125 
" style="fill: none; stroke: #000000; stroke-width: 0.8; stroke-linejoin: miter; stroke-linecap: square"/>
   </g>
   <g id="text_16">
    <!-- Wariancja z próbki 1 sekunda -->
    <g transform="translate(386.972188 16.798125)scale(0.12 -0.12)">
     <defs>
      <path id="DejaVuSans-69" d="M 603 3500 
L 1178 3500 
L 1178 0 
L 603 0 
L 603 3500 
z
M 603 4863 
L 1178 4863 
L 1178 4134 
L 603 4134 
L 603 4863 
z
" transform="scale(0.015625)"/>
      <path id="DejaVuSans-6e" d="M 3513 2113 
L 3513 0 
L 2938 0 
L 2938 2094 
Q 2938 2591 2744 2837 
Q 2550 3084 2163 3084 
Q 1697 3084 1428 2787 
Q 1159 2491 1159 1978 
L 1159 0 
L 581 0 
L 581 3500 
L 1159 3500 
L 1159 2956 
Q 1366 3272 1645 3428 
Q 1925 3584 2291 3584 
Q 2894 3584 3203 3211 
Q 3513 2838 3513 2113 
z
" transform="scale(0.015625)"/>
      <path id="DejaVuSans-63" d="M 3122 3366 
L 3122 2828 
Q 2878 2963 2633 3030 
Q 2388 3097 2138 3097 
Q 1578 3097 1268 2742 
Q 959 2388 959 1747 
Q 959 1106 1268 751 
Q 1578 397 2138 397 
Q 2388 397 2633 464 
Q 2878 531 3122 666 
L 3122 134 
Q 2881 22 2623 -34 
Q 2366 -91 2075 -91 
Q 1284 -91 818 406 
Q 353 903 353 1747 
Q 353 2603 823 3093 
Q 1294 3584 2113 3584 
Q 2378 3584 2631 3529 
Q 2884 3475 3122 3366 
z
" transform="scale(0.015625)"/>
      <path id="DejaVuSans-6a" d="M 603 3500 
L 1178 3500 
L 1178 -63 
Q 1178 -731 923 -1031 
Q 669 -1331 103 -1331 
L -116 -1331 
L -116 -844 
L 38 -844 
Q 366 -844 484 -692 
Q 603 -541 603 -63 
L 603 3500 
z
M 603 4863 
L 1178 4863 
L 1178 4134 
L 603 4134 
L 603 4863 
z
" transform="scale(0.015625)"/>
      <path id="DejaVuSans-20" transform="scale(0.015625)"/>
      <path id="DejaVuSans-7a" d="M 353 3500 
L 3084 3500 
L 3084 2975 
L 922 459 
L 3084 459 
L 3084 0 
L 275 0 
L 275 525 
L 2438 3041 
L 353 3041 
L 353 3500 
z
" transform="scale(0.015625)"/>
      <path id="DejaVuSans-70" d="M 1159 525 
L 1159 -1331 
L 581 -1331 
L 581 3500 
L 1159 3500 
L 1159 2969 
Q 1341 3281 1617 3432 
Q 1894 3584 2278 3584 
Q 2916 3584 3314 3078 
Q 3713 2572 3713 1747 
Q 3713 922 3314 415 
Q 2916 -91 2278 -91 
Q 1894 -91 1617 61 
Q 1341 213 1159 525 
z
M 3116 1747 
Q 3116 2381 2855 2742 
Q 2594 3103 2138 3103 
Q 1681 3103 1420 2742 
Q 1159 2381 1159 1747 
Q 1159 1113 1420 752 
Q 1681 391 2138 391 
Q 2594 391 2855 752 
Q 3116 1113 3116 1747 
z
" transform="scale(0.015625)"/>
      <path id="DejaVuSans-73" d="M 2834 3397 
L 2834 2853 
Q 2591 2978 2328 3040 
Q 2066 3103 1784 3103 
Q 1356 3103 1142 2972 
Q 928 2841 928 2578 
Q 928 2378 1081 2264 
Q 1234 2150 1697 2047 
L 1894 2003 
Q 2506 1872 2764 1633 
Q 3022 1394 3022 966 
Q 3022 478 2636 193 
Q 2250 -91 1575 -91 
Q 1294 -91 989 -36 
Q 684 19 347 128 
L 347 722 
Q 666 556 975 473 
Q 1284 391 1588 391 
Q 1994 391 2212 530 
Q 2431 669 2431 922 
Q 2431 1156 2273 1281 
Q 2116 1406 1581 1522 
L 1381 1569 
Q 847 1681 609 1914 
Q 372 2147 372 2553 
Q 372 3047 722 3315 
Q 1072 3584 1716 3584 
Q 2034 3584 2315 3537 
Q 2597 3491 2834 3397 
z
" transform="scale(0.015625)"/>
      <path id="DejaVuSans-65" d="M 3597 1894 
L 3597 1613 
L 953 1613 
Q 991 1019 1311 708 
Q 1631 397 2203 397 
Q 2534 397 2845 478 
Q 3156 559 3463 722 
L 3463 178 
Q 3153 47 2828 -22 
Q 2503 -91 2169 -91 
Q 1331 -91 842 396 
Q 353 884 353 1716 
Q 353 2575 817 3079 
Q 1281 3584 2069 3584 
Q 2775 3584 3186 3129 
Q 3597 2675 3597 1894 
z
M 3022 2063 
Q 3016 2534 2758 2815 
Q 2500 3097 2075 3097 
Q 1594 3097 1305 2825 
Q 1016 2553 972 2059 
L 3022 2063 
z
" transform="scale(0.015625)"/>
      <path id="DejaVuSans-75" d="M 544 1381 
L 544 3500 
L 1119 3500 
L 1119 1403 
Q 1119 906 1312 657 
Q 1506 409 1894 409 
Q 2359 409 2629 706 
Q 2900 1003 2900 1516 
L 2900 3500 
L 3475 3500 
L 3475 0 
L 2900 0 
L 2900 538 
Q 2691 219 2414 64 
Q 2138 -91 1772 -91 
Q 1169 -91 856 284 
Q 544 659 544 1381 
z
M 1991 3584 
L 1991 3584 
z
" transform="scale(0.015625)"/>
      <path id="DejaVuSans-64" d="M 2906 2969 
L 2906 4863 
L 3481 4863 
L 3481 0 
L 2906 0 
L 2906 525 
Q 2725 213 2448 61 
Q 2172 -91 1784 -91 
Q 1150 -91 751 415 
Q 353 922 353 1747 
Q 353 2572 751 3078 
Q 1150 3584 1784 3584 
Q 2172 3584 2448 3432 
Q 2725 3281 2906 2969 
z
M 947 1747 
Q 947 1113 1208 752 
Q 1469 391 1925 391 
Q 2381 391 2643 752 
Q 2906 1113 2906 1747 
Q 2906 2381 2643 2742 
Q 2381 3103 1925 3103 
Q 1469 3103 1208 2742 
Q 947 2381 947 1747 
z
" transform="scale(0.015625)"/>
     </defs>
     <use xlink:href="#DejaVuSans-57"/>
     <use xlink:href="#DejaVuSans-61" x="92.501953"/>
     <use xlink:href="#DejaVuSans-72" x="153.78125"/>
     <use xlink:href="#DejaVuSans-69" x="194.894531"/>
     <use xlink:href="#DejaVuSans-61" x="222.677734"/>
     <use xlink:href="#DejaVuSans-6e" x="283.957031"/>
     <use xlink:href="#DejaVuSans-63" x="347.335938"/>
     <use xlink:href="#DejaVuSans-6a" x="402.316406"/>
     <use xlink:href="#DejaVuSans-61" x="430.099609"/>
     <use xlink:href="#DejaVuSans-20" x="491.378906"/>
     <use xlink:href="#DejaVuSans-7a" x="523.166016"/>
     <use xlink:href="#DejaVuSans-20" x="575.65625"/>
     <use xlink:href="#DejaVuSans-70" x="607.443359"/>
     <use xlink:href="#DejaVuSans-72" x="670.919922"/>
     <use xlink:href="#DejaVuSans-f3" x="709.783203"/>
     <use xlink:href="#DejaVuSans-62" x="770.964844"/>
     <use xlink:href="#DejaVuSans-6b" x="834.441406"/>
     <use xlink:href="#DejaVuSans-69" x="892.351562"/>
     <use xlink:href="#DejaVuSans-20" x="920.134766"/>
     <use xlink:href="#DejaVuSans-31" x="951.921875"/>
     <use xlink:href="#DejaVuSans-20" x="1015.544922"/>
     <use xlink:href="#DejaVuSans-73" x="1047.332031"/>
     <use xlink:href="#DejaVuSans-65" x="1099.431641"/>
     <use xlink:href="#DejaVuSans-6b" x="1160.955078"/>
     <use xlink:href="#DejaVuSans-75" x="1215.740234"/>
     <use xlink:href="#DejaVuSans-6e" x="1279.119141"/>
     <use xlink:href="#DejaVuSans-64" x="1342.498047"/>
     <use xlink:href="#DejaVuSans-61" x="1405.974609"/>
    </g>
   </g>
   <g id="legend_1">
    <g id="patch_7">
     <path d="M 799.83125 105.579375 
L 886.50625 105.579375 
Q 888.50625 105.579375 888.50625 103.579375 
L 888.50625 29.798125 
Q 888.50625 27.798125 886.50625 27.798125 
L 799.83125 27.798125 
Q 797.83125 27.798125 797.83125 29.798125 
L 797.83125 103.579375 
Q 797.83125 105.579375 799.83125 105.579375 
z
" style="fill: #ffffff; opacity: 0.8; stroke: #cccccc; stroke-linejoin: miter"/>
    </g>
    <g id="line2d_19">
     <path d="M 801.83125 35.896563 
L 811.83125 35.896563 
L 821.83125 35.896563 
" style="fill: none; stroke: #ff00ff; stroke-width: 0.9; stroke-linecap: square"/>
    </g>
    <g id="text_17">
     <!-- CH1_0.5KS -->
     <g transform="translate(829.83125 39.396563)scale(0.1 -0.1)">
      <defs>
       <path id="DejaVuSans-43" d="M 4122 4306 
L 4122 3641 
Q 3803 3938 3442 4084 
Q 3081 4231 2675 4231 
Q 1875 4231 1450 3742 
Q 1025 3253 1025 2328 
Q 1025 1406 1450 917 
Q 1875 428 2675 428 
Q 3081 428 3442 575 
Q 3803 722 4122 1019 
L 4122 359 
Q 3791 134 3420 21 
Q 3050 -91 2638 -91 
Q 1578 -91 968 557 
Q 359 1206 359 2328 
Q 359 3453 968 4101 
Q 1578 4750 2638 4750 
Q 3056 4750 3426 4639 
Q 3797 4528 4122 4306 
z
" transform="scale(0.015625)"/>
       <path id="DejaVuSans-48" d="M 628 4666 
L 1259 4666 
L 1259 2753 
L 3553 2753 
L 3553 4666 
L 4184 4666 
L 4184 0 
L 3553 0 
L 3553 2222 
L 1259 2222 
L 1259 0 
L 628 0 
L 628 4666 
z
" transform="scale(0.015625)"/>
       <path id="DejaVuSans-5f" d="M 3263 -1063 
L 3263 -1509 
L -63 -1509 
L -63 -1063 
L 3263 -1063 
z
" transform="scale(0.015625)"/>
       <path id="DejaVuSans-4b" d="M 628 4666 
L 1259 4666 
L 1259 2694 
L 3353 4666 
L 4166 4666 
L 1850 2491 
L 4331 0 
L 3500 0 
L 1259 2247 
L 1259 0 
L 628 0 
L 628 4666 
z
" transform="scale(0.015625)"/>
       <path id="DejaVuSans-53" d="M 3425 4513 
L 3425 3897 
Q 3066 4069 2747 4153 
Q 2428 4238 2131 4238 
Q 1616 4238 1336 4038 
Q 1056 3838 1056 3469 
Q 1056 3159 1242 3001 
Q 1428 2844 1947 2747 
L 2328 2669 
Q 3034 2534 3370 2195 
Q 3706 1856 3706 1288 
Q 3706 609 3251 259 
Q 2797 -91 1919 -91 
Q 1588 -91 1214 -16 
Q 841 59 441 206 
L 441 856 
Q 825 641 1194 531 
Q 1563 422 1919 422 
Q 2459 422 2753 634 
Q 3047 847 3047 1241 
Q 3047 1584 2836 1778 
Q 2625 1972 2144 2069 
L 1759 2144 
Q 1053 2284 737 2584 
Q 422 2884 422 3419 
Q 422 4038 858 4394 
Q 1294 4750 2059 4750 
Q 2388 4750 2728 4690 
Q 3069 4631 3425 4513 
z
" transform="scale(0.015625)"/>
      </defs>
      <use xlink:href="#DejaVuSans-43"/>
      <use xlink:href="#DejaVuSans-48" x="69.824219"/>
      <use xlink:href="#DejaVuSans-31" x="145.019531"/>
      <use xlink:href="#DejaVuSans-5f" x="208.642578"/>
      <use xlink:href="#DejaVuSans-30" x="258.642578"/>
      <use xlink:href="#DejaVuSans-2e" x="322.265625"/>
      <use xlink:href="#DejaVuSans-35" x="354.052734"/>
      <use xlink:href="#DejaVuSans-4b" x="417.675781"/>
      <use xlink:href="#DejaVuSans-53" x="483.251953"/>
     </g>
    </g>
    <g id="line2d_20">
     <path d="M 801.83125 50.852813 
L 811.83125 50.852813 
L 821.83125 50.852813 
" style="fill: none; stroke: #9400d3; stroke-width: 0.9; stroke-linecap: square"/>
    </g>
    <g id="text_18">
     <!-- CH2_0.5KS -->
     <g transform="translate(829.83125 54.352813)scale(0.1 -0.1)">
      <use xlink:href="#DejaVuSans-43"/>
      <use xlink:href="#DejaVuSans-48" x="69.824219"/>
      <use xlink:href="#DejaVuSans-32" x="145.019531"/>
      <use xlink:href="#DejaVuSans-5f" x="208.642578"/>
      <use xlink:href="#DejaVuSans-30" x="258.642578"/>
      <use xlink:href="#DejaVuSans-2e" x="322.265625"/>
      <use xlink:href="#DejaVuSans-35" x="354.052734"/>
      <use xlink:href="#DejaVuSans-4b" x="417.675781"/>
      <use xlink:href="#DejaVuSans-53" x="483.251953"/>
     </g>
    </g>
    <g id="line2d_21">
     <path d="M 801.83125 65.809063 
L 811.83125 65.809063 
L 821.83125 65.809063 
" style="fill: none; stroke: #00ffff; stroke-width: 0.9; stroke-linecap: square"/>
    </g>
    <g id="text_19">
     <!-- CH3_0.5KS -->
     <g transform="translate(829.83125 69.309063)scale(0.1 -0.1)">
      <use xlink:href="#DejaVuSans-43"/>
      <use xlink:href="#DejaVuSans-48" x="69.824219"/>
      <use xlink:href="#DejaVuSans-33" x="145.019531"/>
      <use xlink:href="#DejaVuSans-5f" x="208.642578"/>
      <use xlink:href="#DejaVuSans-30" x="258.642578"/>
      <use xlink:href="#DejaVuSans-2e" x="322.265625"/>
      <use xlink:href="#DejaVuSans-35" x="354.052734"/>
      <use xlink:href="#DejaVuSans-4b" x="417.675781"/>
      <use xlink:href="#DejaVuSans-53" x="483.251953"/>
     </g>
    </g>
    <g id="line2d_22">
     <path d="M 801.83125 80.765313 
L 811.83125 80.765313 
L 821.83125 80.765313 
" style="fill: none; stroke: #ffa500; stroke-width: 0.9; stroke-linecap: square"/>
    </g>
    <g id="text_20">
     <!-- CH4_0.5KS -->
     <g transform="translate(829.83125 84.265313)scale(0.1 -0.1)">
      <defs>
       <path id="DejaVuSans-34" d="M 2419 4116 
L 825 1625 
L 2419 1625 
L 2419 4116 
z
M 2253 4666 
L 3047 4666 
L 3047 1625 
L 3713 1625 
L 3713 1100 
L 3047 1100 
L 3047 0 
L 2419 0 
L 2419 1100 
L 313 1100 
L 313 1709 
L 2253 4666 
z
" transform="scale(0.015625)"/>
      </defs>
      <use xlink:href="#DejaVuSans-43"/>
      <use xlink:href="#DejaVuSans-48" x="69.824219"/>
      <use xlink:href="#DejaVuSans-34" x="145.019531"/>
      <use xlink:href="#DejaVuSans-5f" x="208.642578"/>
      <use xlink:href="#DejaVuSans-30" x="258.642578"/>
      <use xlink:href="#DejaVuSans-2e" x="322.265625"/>
      <use xlink:href="#DejaVuSans-35" x="354.052734"/>
      <use xlink:href="#DejaVuSans-4b" x="417.675781"/>
      <use xlink:href="#DejaVuSans-53" x="483.251953"/>
     </g>
    </g>
    <g id="line2d_23">
     <path d="M 801.83125 95.721563 
L 811.83125 95.721563 
L 821.83125 95.721563 
" style="fill: none; stroke: #ff4500; stroke-width: 0.9; stroke-linecap: square"/>
    </g>
    <g id="text_21">
     <!-- CH5_0.5KS -->
     <g transform="translate(829.83125 99.221563)scale(0.1 -0.1)">
      <use xlink:href="#DejaVuSans-43"/>
      <use xlink:href="#DejaVuSans-48" x="69.824219"/>
      <use xlink:href="#DejaVuSans-35" x="145.019531"/>
      <use xlink:href="#DejaVuSans-5f" x="208.642578"/>
      <use xlink:href="#DejaVuSans-30" x="258.642578"/>
      <use xlink:href="#DejaVuSans-2e" x="322.265625"/>
      <use xlink:href="#DejaVuSans-35" x="354.052734"/>
      <use xlink:href="#DejaVuSans-4b" x="417.675781"/>
      <use xlink:href="#DejaVuSans-53" x="483.251953"/>
     </g>
    </g>
   </g>
  </g>
 </g>
 <defs>
  <clipPath id="p010e6c96fd">
   <rect x="56.50625" y="22.798125" width="837" height="271.8"/>
  </clipPath>
 </defs>
</svg>
