<?xml version="1.0" encoding="utf-8" standalone="no"?>
<!DOCTYPE svg PUBLIC "-//W3C//DTD SVG 1.1//EN"
  "http://www.w3.org/Graphics/SVG/1.1/DTD/svg11.dtd">
<svg xmlns:xlink="http://www.w3.org/1999/xlink" width="900.70625pt" height="332.154375pt" viewBox="0 0 900.70625 332.154375" xmlns="http://www.w3.org/2000/svg" version="1.1">
 <metadata>
  <rdf:RDF xmlns:dc="http://purl.org/dc/elements/1.1/" xmlns:cc="http://creativecommons.org/ns#" xmlns:rdf="http://www.w3.org/1999/02/22-rdf-syntax-ns#">
   <cc:Work>
    <dc:type rdf:resource="http://purl.org/dc/dcmitype/StillImage"/>
    <dc:date>2022-06-21T21:13:40.753443</dc:date>
    <dc:format>image/svg+xml</dc:format>
    <dc:creator>
     <cc:Agent>
      <dc:title>Matplotlib v3.5.2, https://matplotlib.org/</dc:title>
     </cc:Agent>
    </dc:creator>
   </cc:Work>
  </rdf:RDF>
 </metadata>
 <defs>
  <style type="text/css">*{stroke-linejoin: round; stroke-linecap: butt}</style>
 </defs>
 <g id="figure_1">
  <g id="patch_1">
   <path d="M 0 332.154375 
L 900.70625 332.154375 
L 900.70625 0 
L 0 0 
L 0 332.154375 
z
" style="fill: none"/>
  </g>
  <g id="axes_1">
   <g id="patch_2">
    <path d="M 56.50625 294.598125 
L 893.50625 294.598125 
L 893.50625 22.798125 
L 56.50625 22.798125 
z
" style="fill: #ffffff"/>
   </g>
   <g id="matplotlib.axis_1">
    <g id="xtick_1">
     <g id="line2d_1">
      <defs>
       <path id="maed800c0c2" d="M 0 0 
L 0 3.5 
" style="stroke: #000000; stroke-width: 0.8"/>
      </defs>
      <g>
       <use xlink:href="#maed800c0c2" x="94.551705" y="294.598125" style="stroke: #000000; stroke-width: 0.8"/>
      </g>
     </g>
     <g id="text_1">
      <!-- 0 -->
      <g transform="translate(91.370455 309.196562)scale(0.1 -0.1)">
       <defs>
        <path id="DejaVuSans-30" d="M 2034 4250 
Q 1547 4250 1301 3770 
Q 1056 3291 1056 2328 
Q 1056 1369 1301 889 
Q 1547 409 2034 409 
Q 2525 409 2770 889 
Q 3016 1369 3016 2328 
Q 3016 3291 2770 3770 
Q 2525 4250 2034 4250 
z
M 2034 4750 
Q 2819 4750 3233 4129 
Q 3647 3509 3647 2328 
Q 3647 1150 3233 529 
Q 2819 -91 2034 -91 
Q 1250 -91 836 529 
Q 422 1150 422 2328 
Q 422 3509 836 4129 
Q 1250 4750 2034 4750 
z
" transform="scale(0.015625)"/>
       </defs>
       <use xlink:href="#DejaVuSans-30"/>
      </g>
     </g>
    </g>
    <g id="xtick_2">
     <g id="line2d_2">
      <g>
       <use xlink:href="#maed800c0c2" x="221.794027" y="294.598125" style="stroke: #000000; stroke-width: 0.8"/>
      </g>
     </g>
     <g id="text_2">
      <!-- 50 -->
      <g transform="translate(215.431527 309.196562)scale(0.1 -0.1)">
       <defs>
        <path id="DejaVuSans-35" d="M 691 4666 
L 3169 4666 
L 3169 4134 
L 1269 4134 
L 1269 2991 
Q 1406 3038 1543 3061 
Q 1681 3084 1819 3084 
Q 2600 3084 3056 2656 
Q 3513 2228 3513 1497 
Q 3513 744 3044 326 
Q 2575 -91 1722 -91 
Q 1428 -91 1123 -41 
Q 819 9 494 109 
L 494 744 
Q 775 591 1075 516 
Q 1375 441 1709 441 
Q 2250 441 2565 725 
Q 2881 1009 2881 1497 
Q 2881 1984 2565 2268 
Q 2250 2553 1709 2553 
Q 1456 2553 1204 2497 
Q 953 2441 691 2322 
L 691 4666 
z
" transform="scale(0.015625)"/>
       </defs>
       <use xlink:href="#DejaVuSans-35"/>
       <use xlink:href="#DejaVuSans-30" x="63.623047"/>
      </g>
     </g>
    </g>
    <g id="xtick_3">
     <g id="line2d_3">
      <g>
       <use xlink:href="#maed800c0c2" x="349.03635" y="294.598125" style="stroke: #000000; stroke-width: 0.8"/>
      </g>
     </g>
     <g id="text_3">
      <!-- 100 -->
      <g transform="translate(339.4926 309.196562)scale(0.1 -0.1)">
       <defs>
        <path id="DejaVuSans-31" d="M 794 531 
L 1825 531 
L 1825 4091 
L 703 3866 
L 703 4441 
L 1819 4666 
L 2450 4666 
L 2450 531 
L 3481 531 
L 3481 0 
L 794 0 
L 794 531 
z
" transform="scale(0.015625)"/>
       </defs>
       <use xlink:href="#DejaVuSans-31"/>
       <use xlink:href="#DejaVuSans-30" x="63.623047"/>
       <use xlink:href="#DejaVuSans-30" x="127.246094"/>
      </g>
     </g>
    </g>
    <g id="xtick_4">
     <g id="line2d_4">
      <g>
       <use xlink:href="#maed800c0c2" x="476.278673" y="294.598125" style="stroke: #000000; stroke-width: 0.8"/>
      </g>
     </g>
     <g id="text_4">
      <!-- 150 -->
      <g transform="translate(466.734923 309.196562)scale(0.1 -0.1)">
       <use xlink:href="#DejaVuSans-31"/>
       <use xlink:href="#DejaVuSans-35" x="63.623047"/>
       <use xlink:href="#DejaVuSans-30" x="127.246094"/>
      </g>
     </g>
    </g>
    <g id="xtick_5">
     <g id="line2d_5">
      <g>
       <use xlink:href="#maed800c0c2" x="603.520996" y="294.598125" style="stroke: #000000; stroke-width: 0.8"/>
      </g>
     </g>
     <g id="text_5">
      <!-- 200 -->
      <g transform="translate(593.977246 309.196562)scale(0.1 -0.1)">
       <defs>
        <path id="DejaVuSans-32" d="M 1228 531 
L 3431 531 
L 3431 0 
L 469 0 
L 469 531 
Q 828 903 1448 1529 
Q 2069 2156 2228 2338 
Q 2531 2678 2651 2914 
Q 2772 3150 2772 3378 
Q 2772 3750 2511 3984 
Q 2250 4219 1831 4219 
Q 1534 4219 1204 4116 
Q 875 4013 500 3803 
L 500 4441 
Q 881 4594 1212 4672 
Q 1544 4750 1819 4750 
Q 2544 4750 2975 4387 
Q 3406 4025 3406 3419 
Q 3406 3131 3298 2873 
Q 3191 2616 2906 2266 
Q 2828 2175 2409 1742 
Q 1991 1309 1228 531 
z
" transform="scale(0.015625)"/>
       </defs>
       <use xlink:href="#DejaVuSans-32"/>
       <use xlink:href="#DejaVuSans-30" x="63.623047"/>
       <use xlink:href="#DejaVuSans-30" x="127.246094"/>
      </g>
     </g>
    </g>
    <g id="xtick_6">
     <g id="line2d_6">
      <g>
       <use xlink:href="#maed800c0c2" x="730.763319" y="294.598125" style="stroke: #000000; stroke-width: 0.8"/>
      </g>
     </g>
     <g id="text_6">
      <!-- 250 -->
      <g transform="translate(721.219569 309.196562)scale(0.1 -0.1)">
       <use xlink:href="#DejaVuSans-32"/>
       <use xlink:href="#DejaVuSans-35" x="63.623047"/>
       <use xlink:href="#DejaVuSans-30" x="127.246094"/>
      </g>
     </g>
    </g>
    <g id="xtick_7">
     <g id="line2d_7">
      <g>
       <use xlink:href="#maed800c0c2" x="858.005642" y="294.598125" style="stroke: #000000; stroke-width: 0.8"/>
      </g>
     </g>
     <g id="text_7">
      <!-- 300 -->
      <g transform="translate(848.461892 309.196562)scale(0.1 -0.1)">
       <defs>
        <path id="DejaVuSans-33" d="M 2597 2516 
Q 3050 2419 3304 2112 
Q 3559 1806 3559 1356 
Q 3559 666 3084 287 
Q 2609 -91 1734 -91 
Q 1441 -91 1130 -33 
Q 819 25 488 141 
L 488 750 
Q 750 597 1062 519 
Q 1375 441 1716 441 
Q 2309 441 2620 675 
Q 2931 909 2931 1356 
Q 2931 1769 2642 2001 
Q 2353 2234 1838 2234 
L 1294 2234 
L 1294 2753 
L 1863 2753 
Q 2328 2753 2575 2939 
Q 2822 3125 2822 3475 
Q 2822 3834 2567 4026 
Q 2313 4219 1838 4219 
Q 1578 4219 1281 4162 
Q 984 4106 628 3988 
L 628 4550 
Q 988 4650 1302 4700 
Q 1616 4750 1894 4750 
Q 2613 4750 3031 4423 
Q 3450 4097 3450 3541 
Q 3450 3153 3228 2886 
Q 3006 2619 2597 2516 
z
" transform="scale(0.015625)"/>
       </defs>
       <use xlink:href="#DejaVuSans-33"/>
       <use xlink:href="#DejaVuSans-30" x="63.623047"/>
       <use xlink:href="#DejaVuSans-30" x="127.246094"/>
      </g>
     </g>
    </g>
    <g id="text_8">
     <!-- Próbka -->
     <g transform="translate(458.030469 322.874687)scale(0.1 -0.1)">
      <defs>
       <path id="DejaVuSans-50" d="M 1259 4147 
L 1259 2394 
L 2053 2394 
Q 2494 2394 2734 2622 
Q 2975 2850 2975 3272 
Q 2975 3691 2734 3919 
Q 2494 4147 2053 4147 
L 1259 4147 
z
M 628 4666 
L 2053 4666 
Q 2838 4666 3239 4311 
Q 3641 3956 3641 3272 
Q 3641 2581 3239 2228 
Q 2838 1875 2053 1875 
L 1259 1875 
L 1259 0 
L 628 0 
L 628 4666 
z
" transform="scale(0.015625)"/>
       <path id="DejaVuSans-72" d="M 2631 2963 
Q 2534 3019 2420 3045 
Q 2306 3072 2169 3072 
Q 1681 3072 1420 2755 
Q 1159 2438 1159 1844 
L 1159 0 
L 581 0 
L 581 3500 
L 1159 3500 
L 1159 2956 
Q 1341 3275 1631 3429 
Q 1922 3584 2338 3584 
Q 2397 3584 2469 3576 
Q 2541 3569 2628 3553 
L 2631 2963 
z
" transform="scale(0.015625)"/>
       <path id="DejaVuSans-f3" d="M 1959 3097 
Q 1497 3097 1228 2736 
Q 959 2375 959 1747 
Q 959 1119 1226 758 
Q 1494 397 1959 397 
Q 2419 397 2687 759 
Q 2956 1122 2956 1747 
Q 2956 2369 2687 2733 
Q 2419 3097 1959 3097 
z
M 1959 3584 
Q 2709 3584 3137 3096 
Q 3566 2609 3566 1747 
Q 3566 888 3137 398 
Q 2709 -91 1959 -91 
Q 1206 -91 779 398 
Q 353 888 353 1747 
Q 353 2609 779 3096 
Q 1206 3584 1959 3584 
z
M 2394 5119 
L 3016 5119 
L 1998 3944 
L 1519 3944 
L 2394 5119 
z
" transform="scale(0.015625)"/>
       <path id="DejaVuSans-62" d="M 3116 1747 
Q 3116 2381 2855 2742 
Q 2594 3103 2138 3103 
Q 1681 3103 1420 2742 
Q 1159 2381 1159 1747 
Q 1159 1113 1420 752 
Q 1681 391 2138 391 
Q 2594 391 2855 752 
Q 3116 1113 3116 1747 
z
M 1159 2969 
Q 1341 3281 1617 3432 
Q 1894 3584 2278 3584 
Q 2916 3584 3314 3078 
Q 3713 2572 3713 1747 
Q 3713 922 3314 415 
Q 2916 -91 2278 -91 
Q 1894 -91 1617 61 
Q 1341 213 1159 525 
L 1159 0 
L 581 0 
L 581 4863 
L 1159 4863 
L 1159 2969 
z
" transform="scale(0.015625)"/>
       <path id="DejaVuSans-6b" d="M 581 4863 
L 1159 4863 
L 1159 1991 
L 2875 3500 
L 3609 3500 
L 1753 1863 
L 3688 0 
L 2938 0 
L 1159 1709 
L 1159 0 
L 581 0 
L 581 4863 
z
" transform="scale(0.015625)"/>
       <path id="DejaVuSans-61" d="M 2194 1759 
Q 1497 1759 1228 1600 
Q 959 1441 959 1056 
Q 959 750 1161 570 
Q 1363 391 1709 391 
Q 2188 391 2477 730 
Q 2766 1069 2766 1631 
L 2766 1759 
L 2194 1759 
z
M 3341 1997 
L 3341 0 
L 2766 0 
L 2766 531 
Q 2569 213 2275 61 
Q 1981 -91 1556 -91 
Q 1019 -91 701 211 
Q 384 513 384 1019 
Q 384 1609 779 1909 
Q 1175 2209 1959 2209 
L 2766 2209 
L 2766 2266 
Q 2766 2663 2505 2880 
Q 2244 3097 1772 3097 
Q 1472 3097 1187 3025 
Q 903 2953 641 2809 
L 641 3341 
Q 956 3463 1253 3523 
Q 1550 3584 1831 3584 
Q 2591 3584 2966 3190 
Q 3341 2797 3341 1997 
z
" transform="scale(0.015625)"/>
      </defs>
      <use xlink:href="#DejaVuSans-50"/>
      <use xlink:href="#DejaVuSans-72" x="58.552734"/>
      <use xlink:href="#DejaVuSans-f3" x="97.416016"/>
      <use xlink:href="#DejaVuSans-62" x="158.597656"/>
      <use xlink:href="#DejaVuSans-6b" x="222.074219"/>
      <use xlink:href="#DejaVuSans-61" x="278.234375"/>
     </g>
    </g>
   </g>
   <g id="matplotlib.axis_2">
    <g id="ytick_1">
     <g id="line2d_8">
      <defs>
       <path id="me5e09649bf" d="M 0 0 
L -3.5 0 
" style="stroke: #000000; stroke-width: 0.8"/>
      </defs>
      <g>
       <use xlink:href="#me5e09649bf" x="56.50625" y="282.309923" style="stroke: #000000; stroke-width: 0.8"/>
      </g>
     </g>
     <g id="text_9">
      <!-- 0.000 -->
      <g transform="translate(20.878125 286.109141)scale(0.1 -0.1)">
       <defs>
        <path id="DejaVuSans-2e" d="M 684 794 
L 1344 794 
L 1344 0 
L 684 0 
L 684 794 
z
" transform="scale(0.015625)"/>
       </defs>
       <use xlink:href="#DejaVuSans-30"/>
       <use xlink:href="#DejaVuSans-2e" x="63.623047"/>
       <use xlink:href="#DejaVuSans-30" x="95.410156"/>
       <use xlink:href="#DejaVuSans-30" x="159.033203"/>
       <use xlink:href="#DejaVuSans-30" x="222.65625"/>
      </g>
     </g>
    </g>
    <g id="ytick_2">
     <g id="line2d_9">
      <g>
       <use xlink:href="#me5e09649bf" x="56.50625" y="233.167613" style="stroke: #000000; stroke-width: 0.8"/>
      </g>
     </g>
     <g id="text_10">
      <!-- 0.005 -->
      <g transform="translate(20.878125 236.966832)scale(0.1 -0.1)">
       <use xlink:href="#DejaVuSans-30"/>
       <use xlink:href="#DejaVuSans-2e" x="63.623047"/>
       <use xlink:href="#DejaVuSans-30" x="95.410156"/>
       <use xlink:href="#DejaVuSans-30" x="159.033203"/>
       <use xlink:href="#DejaVuSans-35" x="222.65625"/>
      </g>
     </g>
    </g>
    <g id="ytick_3">
     <g id="line2d_10">
      <g>
       <use xlink:href="#me5e09649bf" x="56.50625" y="184.025304" style="stroke: #000000; stroke-width: 0.8"/>
      </g>
     </g>
     <g id="text_11">
      <!-- 0.010 -->
      <g transform="translate(20.878125 187.824522)scale(0.1 -0.1)">
       <use xlink:href="#DejaVuSans-30"/>
       <use xlink:href="#DejaVuSans-2e" x="63.623047"/>
       <use xlink:href="#DejaVuSans-30" x="95.410156"/>
       <use xlink:href="#DejaVuSans-31" x="159.033203"/>
       <use xlink:href="#DejaVuSans-30" x="222.65625"/>
      </g>
     </g>
    </g>
    <g id="ytick_4">
     <g id="line2d_11">
      <g>
       <use xlink:href="#me5e09649bf" x="56.50625" y="134.882994" style="stroke: #000000; stroke-width: 0.8"/>
      </g>
     </g>
     <g id="text_12">
      <!-- 0.015 -->
      <g transform="translate(20.878125 138.682213)scale(0.1 -0.1)">
       <use xlink:href="#DejaVuSans-30"/>
       <use xlink:href="#DejaVuSans-2e" x="63.623047"/>
       <use xlink:href="#DejaVuSans-30" x="95.410156"/>
       <use xlink:href="#DejaVuSans-31" x="159.033203"/>
       <use xlink:href="#DejaVuSans-35" x="222.65625"/>
      </g>
     </g>
    </g>
    <g id="ytick_5">
     <g id="line2d_12">
      <g>
       <use xlink:href="#me5e09649bf" x="56.50625" y="85.740684" style="stroke: #000000; stroke-width: 0.8"/>
      </g>
     </g>
     <g id="text_13">
      <!-- 0.020 -->
      <g transform="translate(20.878125 89.539903)scale(0.1 -0.1)">
       <use xlink:href="#DejaVuSans-30"/>
       <use xlink:href="#DejaVuSans-2e" x="63.623047"/>
       <use xlink:href="#DejaVuSans-30" x="95.410156"/>
       <use xlink:href="#DejaVuSans-32" x="159.033203"/>
       <use xlink:href="#DejaVuSans-30" x="222.65625"/>
      </g>
     </g>
    </g>
    <g id="ytick_6">
     <g id="line2d_13">
      <g>
       <use xlink:href="#me5e09649bf" x="56.50625" y="36.598375" style="stroke: #000000; stroke-width: 0.8"/>
      </g>
     </g>
     <g id="text_14">
      <!-- 0.025 -->
      <g transform="translate(20.878125 40.397594)scale(0.1 -0.1)">
       <use xlink:href="#DejaVuSans-30"/>
       <use xlink:href="#DejaVuSans-2e" x="63.623047"/>
       <use xlink:href="#DejaVuSans-30" x="95.410156"/>
       <use xlink:href="#DejaVuSans-32" x="159.033203"/>
       <use xlink:href="#DejaVuSans-35" x="222.65625"/>
      </g>
     </g>
    </g>
    <g id="text_15">
     <!-- Wartość -->
     <g transform="translate(14.798438 178.816094)rotate(-90)scale(0.1 -0.1)">
      <defs>
       <path id="DejaVuSans-57" d="M 213 4666 
L 850 4666 
L 1831 722 
L 2809 4666 
L 3519 4666 
L 4500 722 
L 5478 4666 
L 6119 4666 
L 4947 0 
L 4153 0 
L 3169 4050 
L 2175 0 
L 1381 0 
L 213 4666 
z
" transform="scale(0.015625)"/>
       <path id="DejaVuSans-74" d="M 1172 4494 
L 1172 3500 
L 2356 3500 
L 2356 3053 
L 1172 3053 
L 1172 1153 
Q 1172 725 1289 603 
Q 1406 481 1766 481 
L 2356 481 
L 2356 0 
L 1766 0 
Q 1100 0 847 248 
Q 594 497 594 1153 
L 594 3053 
L 172 3053 
L 172 3500 
L 594 3500 
L 594 4494 
L 1172 4494 
z
" transform="scale(0.015625)"/>
       <path id="DejaVuSans-6f" d="M 1959 3097 
Q 1497 3097 1228 2736 
Q 959 2375 959 1747 
Q 959 1119 1226 758 
Q 1494 397 1959 397 
Q 2419 397 2687 759 
Q 2956 1122 2956 1747 
Q 2956 2369 2687 2733 
Q 2419 3097 1959 3097 
z
M 1959 3584 
Q 2709 3584 3137 3096 
Q 3566 2609 3566 1747 
Q 3566 888 3137 398 
Q 2709 -91 1959 -91 
Q 1206 -91 779 398 
Q 353 888 353 1747 
Q 353 2609 779 3096 
Q 1206 3584 1959 3584 
z
" transform="scale(0.015625)"/>
       <path id="DejaVuSans-15b" d="M 2242 5119 
L 2864 5119 
L 1846 3944 
L 1367 3944 
L 2242 5119 
z
M 2834 3397 
L 2834 2853 
Q 2591 2978 2328 3040 
Q 2066 3103 1784 3103 
Q 1356 3103 1142 2972 
Q 928 2841 928 2578 
Q 928 2378 1081 2264 
Q 1234 2150 1697 2047 
L 1894 2003 
Q 2506 1872 2764 1633 
Q 3022 1394 3022 966 
Q 3022 478 2636 193 
Q 2250 -91 1575 -91 
Q 1294 -91 989 -36 
Q 684 19 347 128 
L 347 722 
Q 666 556 975 473 
Q 1284 391 1588 391 
Q 1994 391 2212 530 
Q 2431 669 2431 922 
Q 2431 1156 2273 1281 
Q 2116 1406 1581 1522 
L 1381 1569 
Q 847 1681 609 1914 
Q 372 2147 372 2553 
Q 372 3047 722 3315 
Q 1072 3584 1716 3584 
Q 2034 3584 2315 3537 
Q 2597 3491 2834 3397 
z
" transform="scale(0.015625)"/>
       <path id="DejaVuSans-107" d="M 3122 3366 
L 3122 2828 
Q 2878 2963 2633 3030 
Q 2388 3097 2138 3097 
Q 1578 3097 1268 2742 
Q 959 2388 959 1747 
Q 959 1106 1268 751 
Q 1578 397 2138 397 
Q 2388 397 2633 464 
Q 2878 531 3122 666 
L 3122 134 
Q 2881 22 2623 -34 
Q 2366 -91 2075 -91 
Q 1284 -91 818 406 
Q 353 903 353 1747 
Q 353 2603 823 3093 
Q 1294 3584 2113 3584 
Q 2378 3584 2631 3529 
Q 2884 3475 3122 3366 
z
M 2466 5119 
L 3088 5119 
L 2070 3944 
L 1591 3944 
L 2466 5119 
z
" transform="scale(0.015625)"/>
      </defs>
      <use xlink:href="#DejaVuSans-57"/>
      <use xlink:href="#DejaVuSans-61" x="92.501953"/>
      <use xlink:href="#DejaVuSans-72" x="153.78125"/>
      <use xlink:href="#DejaVuSans-74" x="194.894531"/>
      <use xlink:href="#DejaVuSans-6f" x="234.103516"/>
      <use xlink:href="#DejaVuSans-15b" x="295.285156"/>
      <use xlink:href="#DejaVuSans-107" x="347.384766"/>
     </g>
    </g>
   </g>
   <g id="line2d_14">
    <path d="M 94.551705 282.167379 
L 99.641397 282.213379 
L 104.73109 281.887316 
L 107.275937 282.194912 
L 114.910476 282.20314 
L 117.455323 282.235981 
L 120.000169 282.071821 
L 122.545016 282.217876 
L 130.179555 282.101208 
L 132.724401 281.973979 
L 135.269248 282.099965 
L 137.814094 282.049243 
L 140.358941 281.836628 
L 142.903787 282.097855 
L 147.99348 282.195166 
L 153.083173 282.060091 
L 155.62802 281.932361 
L 160.717712 281.822397 
L 163.262559 282.127361 
L 168.352252 282.08224 
L 170.897098 282.156592 
L 173.441945 282.028337 
L 175.986791 282.176914 
L 178.531638 282.09057 
L 181.076484 282.168617 
L 183.621331 281.909433 
L 191.25587 282.072902 
L 196.345563 281.954167 
L 201.435256 282.044179 
L 203.980102 281.968566 
L 206.524949 282.142216 
L 209.069795 281.915253 
L 211.614642 282.127245 
L 216.704335 281.812182 
L 219.249181 281.781475 
L 221.794027 281.530474 
L 229.428567 282.01765 
L 237.063106 282.139288 
L 239.607953 281.964085 
L 242.152799 282.02632 
L 244.697646 281.7696 
L 247.242492 282.093279 
L 252.332185 281.937658 
L 257.421878 281.878911 
L 262.511571 282.13541 
L 265.056417 281.991085 
L 275.235803 282.074725 
L 277.78065 281.995784 
L 280.325496 282.070542 
L 282.870342 281.885946 
L 285.415189 281.886803 
L 287.960035 282.099871 
L 293.049728 282.100066 
L 300.684268 282.228053 
L 303.229114 282.135313 
L 310.863653 282.221225 
L 336.312118 282.116735 
L 338.856965 282.237064 
L 354.126043 282.203916 
L 356.67089 282.198534 
L 359.215736 282.058424 
L 361.760583 282.199537 
L 379.574508 282.014112 
L 382.119354 282.186464 
L 387.209047 282.08195 
L 389.753894 282.180589 
L 392.29874 282.122113 
L 394.843587 282.200009 
L 397.388433 282.063974 
L 399.933279 282.22228 
L 415.202358 282.24358 
L 417.747205 282.137639 
L 420.292051 282.181363 
L 422.836898 281.899868 
L 425.381744 282.180198 
L 430.471437 282.101328 
L 433.016283 281.729892 
L 440.650823 282.224362 
L 450.830209 282.141683 
L 455.919902 282.209578 
L 458.464748 282.06796 
L 461.009594 282.197998 
L 471.18898 282.154451 
L 489.002906 282.119793 
L 491.547752 282.229613 
L 494.092598 282.081059 
L 496.637445 282.125006 
L 499.182291 281.946785 
L 501.727138 281.998475 
L 504.271984 281.930353 
L 506.816831 282.114248 
L 509.361677 282.001651 
L 514.45137 281.98389 
L 516.996217 281.900182 
L 519.541063 282.020674 
L 522.085909 281.792735 
L 524.630756 282.12721 
L 527.175602 282.14056 
L 529.720449 281.959572 
L 532.265295 282.09973 
L 534.810142 281.827934 
L 537.354988 282.100974 
L 539.899835 281.875532 
L 542.444681 282.063835 
L 544.989528 281.867314 
L 547.534374 281.876027 
L 552.624067 282.096562 
L 555.168913 281.832965 
L 557.71376 282.132111 
L 560.258606 281.730507 
L 562.803453 281.852579 
L 565.348299 282.129122 
L 567.893146 281.999329 
L 570.437992 282.115185 
L 572.982839 281.990656 
L 575.527685 282.149671 
L 578.072532 281.937914 
L 580.617378 282.101389 
L 583.162224 281.946102 
L 585.707071 282.112831 
L 590.796764 281.912156 
L 593.34161 282.157438 
L 595.886457 281.874343 
L 600.97615 282.014475 
L 603.520996 281.778659 
L 606.065843 281.658221 
L 611.155535 282.023766 
L 613.700382 281.806653 
L 618.790075 282.155475 
L 626.424614 281.66228 
L 628.969461 282.102766 
L 631.514307 281.866951 
L 634.059154 281.995882 
L 636.604 281.882842 
L 639.148847 281.998272 
L 641.693693 281.371666 
L 644.238539 281.823737 
L 646.783386 281.905667 
L 649.328232 282.143584 
L 651.873079 282.072187 
L 654.417925 282.158039 
L 656.962772 282.030067 
L 659.507618 282.121649 
L 662.052465 281.944436 
L 664.597311 282.149488 
L 667.142158 281.995934 
L 669.687004 282.16426 
L 672.23185 281.875936 
L 674.776697 281.982793 
L 677.321543 281.822362 
L 679.86639 282.163115 
L 682.411236 281.866397 
L 687.500929 282.096417 
L 695.135469 281.937191 
L 697.680315 282.030567 
L 700.225162 281.895609 
L 702.770008 282.020634 
L 705.314854 281.871102 
L 710.404547 282.0877 
L 712.949394 281.976116 
L 715.49424 281.989074 
L 718.039087 281.831634 
L 720.583933 282.091337 
L 723.12878 282.15877 
L 725.673626 281.90487 
L 728.218473 282.111785 
L 735.853012 282.058376 
L 738.397858 282.188857 
L 746.032398 281.963709 
L 753.666937 282.082416 
L 756.211784 282.131729 
L 758.75663 281.827744 
L 761.301477 281.816582 
L 763.846323 282.181438 
L 768.936016 282.117114 
L 771.480862 281.863786 
L 774.025709 282.02117 
L 776.570555 282.00891 
L 779.115402 281.881628 
L 781.660248 282.0514 
L 789.294788 281.872917 
L 791.839634 282.055638 
L 799.474173 282.026873 
L 802.01902 281.716239 
L 804.563866 282.056937 
L 809.653559 282.121941 
L 812.198406 282.1725 
L 817.288099 281.934033 
L 819.832945 282.067626 
L 822.377792 281.921551 
L 824.922638 282.114911 
L 827.467484 281.965885 
L 830.012331 282.078801 
L 832.557177 281.580455 
L 835.102024 282.163229 
L 840.191717 281.876546 
L 847.826256 282.089957 
L 850.371103 281.88611 
L 852.915949 281.86882 
L 855.460795 282.074622 
L 855.460795 282.074622 
" clip-path="url(#pf1d2cfe2ac)" style="fill: none; stroke: #ff00ff; stroke-width: 0.9; stroke-linecap: square"/>
   </g>
   <g id="line2d_15">
    <path d="M 94.551705 279.51222 
L 97.096551 278.951689 
L 99.641397 279.927053 
L 102.186244 278.492688 
L 104.73109 276.24492 
L 107.275937 280.684551 
L 109.820783 280.275621 
L 112.36563 278.730392 
L 114.910476 280.555247 
L 117.455323 281.32834 
L 120.000169 277.185943 
L 122.545016 280.217464 
L 125.089862 279.808423 
L 127.634708 281.283573 
L 130.179555 275.524311 
L 132.724401 274.992503 
L 135.269248 277.988041 
L 137.814094 275.904507 
L 140.358941 271.004031 
L 142.903787 279.244832 
L 145.448634 279.134159 
L 147.99348 279.65239 
L 150.538327 279.773858 
L 153.083173 277.038598 
L 155.62802 273.315356 
L 158.172866 272.354776 
L 160.717712 269.870552 
L 163.262559 276.618107 
L 165.807405 276.677391 
L 168.352252 277.21351 
L 170.897098 278.0018 
L 173.441945 276.268042 
L 175.986791 280.273804 
L 178.531638 278.19056 
L 181.076484 278.967475 
L 183.621331 272.435484 
L 186.166177 276.355676 
L 191.25587 276.955114 
L 193.800716 274.620923 
L 196.345563 273.005487 
L 198.890409 276.935667 
L 203.980102 274.080706 
L 206.524949 276.729119 
L 209.069795 273.476336 
L 211.614642 278.761102 
L 214.159488 275.274299 
L 216.704335 270.33409 
L 219.249181 269.241421 
L 221.794027 265.419148 
L 224.338874 266.687579 
L 226.88372 275.626543 
L 229.428567 274.98448 
L 231.973413 277.315035 
L 234.51826 275.836977 
L 237.063106 277.160722 
L 239.607953 274.451729 
L 242.152799 275.621124 
L 244.697646 271.012257 
L 247.242492 276.042573 
L 249.787338 270.691027 
L 252.332185 272.337736 
L 254.877031 269.756452 
L 257.421878 272.950189 
L 259.966724 278.402899 
L 262.511571 278.153542 
L 265.056417 276.153821 
L 267.601264 275.874388 
L 270.14611 274.066093 
L 272.690957 276.847565 
L 275.235803 277.740645 
L 277.78065 274.294158 
L 280.325496 277.602296 
L 282.870342 273.370759 
L 285.415189 271.583208 
L 287.960035 276.506006 
L 290.504882 274.273659 
L 293.049728 273.100958 
L 295.594575 278.247436 
L 298.139421 280.960236 
L 300.684268 280.503707 
L 303.229114 278.646665 
L 305.773961 280.586124 
L 308.318807 280.349637 
L 310.863653 281.506556 
L 313.4085 280.199953 
L 315.953346 280.792857 
L 318.498193 280.952627 
L 321.043039 277.786061 
L 323.587886 278.419693 
L 326.132732 280.565545 
L 328.677579 279.133272 
L 331.222425 280.384539 
L 333.767272 279.825239 
L 336.312118 279.850926 
L 338.856965 280.739292 
L 341.401811 280.56068 
L 343.946657 280.756652 
L 346.491504 281.23022 
L 349.03635 278.78412 
L 351.581197 280.579975 
L 356.67089 278.958234 
L 359.215736 277.557284 
L 361.760583 278.155237 
L 364.305429 279.87965 
L 366.850276 281.16621 
L 369.395122 279.399201 
L 371.939968 275.581508 
L 374.484815 280.927454 
L 377.029661 279.180714 
L 379.574508 277.706324 
L 382.119354 280.205583 
L 384.664201 278.977841 
L 387.209047 277.614274 
L 389.753894 279.302929 
L 394.843587 279.626045 
L 397.388433 276.462225 
L 399.933279 281.126455 
L 402.478126 280.971544 
L 405.022972 280.031893 
L 407.567819 277.560662 
L 410.112665 280.815656 
L 412.657512 278.55381 
L 415.202358 280.512038 
L 417.747205 279.168523 
L 420.292051 279.188723 
L 422.836898 274.104008 
L 425.381744 279.8611 
L 427.926591 278.429794 
L 430.471437 279.205344 
L 433.016283 271.218755 
L 435.56113 274.156345 
L 438.105976 280.268 
L 440.650823 280.572029 
L 443.195669 280.160813 
L 445.740516 281.063489 
L 448.285362 280.180403 
L 450.830209 278.231253 
L 453.375055 279.955606 
L 455.919902 280.804283 
L 458.464748 276.160996 
L 461.009594 280.292032 
L 463.554441 279.292223 
L 466.099287 279.090592 
L 473.733827 279.025631 
L 476.278673 278.064324 
L 478.82352 277.273468 
L 481.368366 280.198719 
L 483.913213 281.447818 
L 486.458059 280.693787 
L 489.002906 276.760535 
L 491.547752 280.484372 
L 494.092598 276.801368 
L 496.637445 279.929749 
L 499.182291 275.545594 
L 501.727138 276.745688 
L 504.271984 271.712386 
L 506.816831 278.175496 
L 509.361677 275.779776 
L 511.906524 276.879487 
L 514.45137 277.104969 
L 516.996217 276.08274 
L 519.541063 277.692659 
L 522.085909 273.460971 
L 524.630756 278.323967 
L 527.175602 280.207894 
L 529.720449 276.563626 
L 532.265295 277.869879 
L 534.810142 272.500414 
L 537.354988 279.706652 
L 539.899835 271.948136 
L 542.444681 277.493055 
L 544.989528 273.163261 
L 547.534374 276.844862 
L 550.079221 277.153726 
L 552.624067 278.630803 
L 555.168913 271.774486 
L 557.71376 279.341182 
L 560.258606 269.928008 
L 562.803453 272.160581 
L 565.348299 278.824458 
L 567.893146 273.52304 
L 570.437992 279.17567 
L 572.982839 276.484283 
L 575.527685 277.93816 
L 578.072532 276.024034 
L 580.617378 278.101374 
L 583.162224 272.566114 
L 585.707071 278.691724 
L 588.251917 277.028341 
L 590.796764 274.649806 
L 593.34161 279.140318 
L 595.886457 275.04214 
L 598.431303 272.637508 
L 600.97615 275.327736 
L 603.520996 272.155872 
L 606.065843 267.85615 
L 608.610689 273.23777 
L 611.155535 276.716886 
L 613.700382 273.666326 
L 616.245228 276.604234 
L 618.790075 279.220243 
L 621.334921 275.828928 
L 623.879768 272.887207 
L 626.424614 267.759694 
L 628.969461 277.445119 
L 631.514307 272.001385 
L 634.059154 276.325077 
L 636.604 274.038476 
L 639.148847 275.995925 
L 641.693693 265.010448 
L 644.238539 270.695186 
L 646.783386 269.196 
L 649.328232 279.126082 
L 651.873079 278.301077 
L 654.417925 278.803071 
L 656.962772 275.148319 
L 659.507618 279.498864 
L 662.052465 276.179803 
L 664.597311 278.456526 
L 667.142158 274.049166 
L 669.687004 278.67259 
L 672.23185 273.441895 
L 674.776697 276.266663 
L 677.321543 273.209884 
L 679.86639 280.1261 
L 682.411236 274.621412 
L 684.956083 278.400325 
L 687.500929 276.659977 
L 690.045776 275.915529 
L 692.590622 277.883369 
L 695.135469 275.502254 
L 697.680315 275.194062 
L 700.225162 271.501785 
L 702.770008 277.587873 
L 705.314854 272.32535 
L 707.859701 275.893674 
L 710.404547 277.276068 
L 712.949394 278.366597 
L 715.49424 274.709733 
L 718.039087 274.96795 
L 720.583933 276.408111 
L 723.12878 280.432359 
L 725.673626 274.512006 
L 728.218473 279.18026 
L 730.763319 277.500621 
L 733.308165 277.101543 
L 735.853012 276.103486 
L 738.397858 280.768931 
L 740.942705 278.140439 
L 743.487551 278.198574 
L 746.032398 276.379819 
L 748.577244 276.865907 
L 751.122091 277.619559 
L 753.666937 278.199581 
L 756.211784 279.134438 
L 758.75663 274.462313 
L 761.301477 273.386301 
L 763.846323 280.525159 
L 766.391169 278.873399 
L 768.936016 278.606769 
L 771.480862 272.595881 
L 774.025709 275.223444 
L 776.570555 276.959095 
L 779.115402 273.644125 
L 781.660248 277.244939 
L 784.205095 274.537109 
L 786.749941 277.291364 
L 789.294788 271.429493 
L 791.839634 278.460561 
L 794.38448 276.631133 
L 796.929327 276.63603 
L 799.474173 275.1201 
L 802.01902 268.931183 
L 804.563866 276.719477 
L 807.108713 275.697773 
L 809.653559 278.412874 
L 812.198406 279.172999 
L 814.743252 276.840684 
L 817.288099 273.401667 
L 819.832945 277.816345 
L 822.377792 275.036537 
L 824.922638 278.935149 
L 827.467484 276.16426 
L 830.012331 277.524206 
L 832.557177 264.38643 
L 835.102024 280.119718 
L 840.191717 272.342256 
L 842.736563 272.913913 
L 845.28141 276.801648 
L 847.826256 278.880562 
L 850.371103 274.23525 
L 852.915949 274.80587 
L 855.460795 277.424985 
L 855.460795 277.424985 
" clip-path="url(#pf1d2cfe2ac)" style="fill: none; stroke: #9400d3; stroke-width: 0.9; stroke-linecap: square"/>
   </g>
   <g id="line2d_16">
    <path d="M 94.551705 280.056887 
L 97.096551 277.522366 
L 99.641397 280.040397 
L 102.186244 277.001937 
L 104.73109 278.44734 
L 107.275937 280.6279 
L 109.820783 280.804825 
L 112.36563 278.498962 
L 114.910476 281.351226 
L 117.455323 281.272689 
L 120.000169 278.550918 
L 122.545016 279.790977 
L 125.089862 279.421273 
L 127.634708 281.508004 
L 130.179555 274.392356 
L 132.724401 276.068859 
L 135.269248 277.879732 
L 137.814094 275.370871 
L 140.358941 270.74045 
L 142.903787 280.063914 
L 145.448634 278.977368 
L 147.99348 279.411803 
L 150.538327 278.74717 
L 153.083173 277.056446 
L 155.62802 272.740236 
L 158.172866 271.45793 
L 160.717712 269.309096 
L 163.262559 275.661719 
L 165.807405 275.925284 
L 168.352252 276.798401 
L 170.897098 277.158897 
L 173.441945 274.812587 
L 175.986791 280.462999 
L 178.531638 276.535991 
L 181.076484 279.385133 
L 183.621331 271.409971 
L 186.166177 277.498845 
L 188.711023 276.451423 
L 191.25587 278.016362 
L 193.800716 274.191447 
L 196.345563 271.851099 
L 198.890409 277.251896 
L 201.435256 275.243385 
L 203.980102 273.976188 
L 209.069795 272.857105 
L 211.614642 278.616789 
L 214.159488 274.876366 
L 216.704335 269.42275 
L 219.249181 268.746389 
L 221.794027 263.605936 
L 224.338874 266.876956 
L 226.88372 276.025587 
L 229.428567 274.807169 
L 231.973413 276.272856 
L 234.51826 274.291055 
L 237.063106 276.204349 
L 239.607953 273.394542 
L 242.152799 275.900243 
L 244.697646 270.234131 
L 247.242492 275.961844 
L 249.787338 265.86059 
L 252.332185 272.530113 
L 254.877031 268.530601 
L 257.421878 272.915224 
L 259.966724 278.381429 
L 262.511571 278.012105 
L 265.056417 277.511121 
L 267.601264 273.993164 
L 270.14611 274.779565 
L 272.690957 276.49981 
L 275.235803 278.549954 
L 277.78065 273.388813 
L 280.325496 279.03293 
L 282.870342 272.950254 
L 285.415189 271.930933 
L 287.960035 274.516267 
L 293.049728 270.900856 
L 295.594575 278.686598 
L 298.139421 281.112635 
L 300.684268 280.798962 
L 303.229114 278.788296 
L 305.773961 280.426052 
L 308.318807 280.49085 
L 310.863653 281.31478 
L 313.4085 280.181156 
L 315.953346 280.054428 
L 318.498193 281.120518 
L 321.043039 277.66475 
L 323.587886 278.274851 
L 326.132732 280.803119 
L 328.677579 278.049703 
L 331.222425 280.596799 
L 333.767272 280.316143 
L 336.312118 280.199256 
L 338.856965 279.725825 
L 341.401811 279.069885 
L 343.946657 280.528261 
L 346.491504 281.117629 
L 349.03635 277.862546 
L 351.581197 280.648192 
L 354.126043 279.709235 
L 356.67089 278.221093 
L 359.215736 278.604142 
L 361.760583 276.257087 
L 364.305429 280.513539 
L 366.850276 281.034608 
L 369.395122 279.955316 
L 371.939968 276.925582 
L 374.484815 281.490486 
L 377.029661 279.975771 
L 379.574508 279.232681 
L 382.119354 280.050332 
L 384.664201 279.984263 
L 387.209047 277.992234 
L 389.753894 280.89113 
L 392.29874 279.888101 
L 394.843587 279.511817 
L 397.388433 276.175496 
L 399.933279 281.798409 
L 402.478126 280.982297 
L 405.022972 280.79293 
L 407.567819 277.829122 
L 410.112665 281.420384 
L 412.657512 279.73261 
L 415.202358 279.847099 
L 417.747205 279.522665 
L 420.292051 279.518967 
L 422.836898 275.417387 
L 425.381744 280.641128 
L 427.926591 277.942455 
L 430.471437 279.169196 
L 433.016283 274.855161 
L 435.56113 276.329971 
L 438.105976 280.640168 
L 440.650823 280.989643 
L 443.195669 280.159397 
L 445.740516 281.131718 
L 448.285362 280.323381 
L 450.830209 276.174795 
L 453.375055 279.888935 
L 455.919902 280.971117 
L 458.464748 277.484038 
L 461.009594 279.612198 
L 463.554441 279.074956 
L 466.099287 278.179626 
L 468.644134 279.773997 
L 471.18898 278.666826 
L 473.733827 279.561058 
L 476.278673 279.291567 
L 478.82352 278.341081 
L 481.368366 279.667743 
L 483.913213 281.877207 
L 486.458059 281.406018 
L 489.002906 277.475157 
L 491.547752 280.221794 
L 494.092598 275.305623 
L 496.637445 280.024509 
L 499.182291 275.923378 
L 501.727138 278.112666 
L 504.271984 270.086496 
L 506.816831 278.855386 
L 509.361677 276.331847 
L 511.906524 277.750919 
L 514.45137 277.762658 
L 519.541063 278.775805 
L 522.085909 275.164181 
L 524.630756 279.583452 
L 527.175602 280.953039 
L 529.720449 277.128289 
L 532.265295 279.069068 
L 534.810142 273.407974 
L 537.354988 281.145748 
L 539.899835 272.193822 
L 542.444681 278.447415 
L 544.989528 273.776991 
L 547.534374 278.693816 
L 550.079221 277.387922 
L 552.624067 279.198863 
L 555.168913 274.178165 
L 557.71376 280.060477 
L 560.258606 272.183995 
L 562.803453 271.223485 
L 565.348299 279.12805 
L 567.893146 271.214353 
L 570.437992 280.177134 
L 572.982839 276.865846 
L 575.527685 278.109774 
L 578.072532 277.420292 
L 580.617378 279.324243 
L 583.162224 271.186333 
L 585.707071 279.403782 
L 588.251917 277.823727 
L 590.796764 274.428951 
L 593.34161 278.828918 
L 595.886457 276.676246 
L 598.431303 273.105606 
L 600.97615 275.933328 
L 603.520996 274.117331 
L 606.065843 271.088069 
L 608.610689 275.079043 
L 611.155535 278.0894 
L 613.700382 276.195761 
L 616.245228 277.739585 
L 618.790075 279.82259 
L 621.334921 276.584153 
L 623.879768 273.827534 
L 626.424614 267.66837 
L 628.969461 277.480325 
L 631.514307 271.939236 
L 634.059154 277.324917 
L 636.604 274.974892 
L 639.148847 276.251294 
L 641.693693 268.963718 
L 644.238539 271.185136 
L 646.783386 268.301923 
L 649.328232 279.417501 
L 651.873079 279.2909 
L 654.417925 279.955768 
L 656.962772 273.808126 
L 659.507618 280.389022 
L 662.052465 277.539666 
L 664.597311 278.949965 
L 667.142158 273.995053 
L 669.687004 279.168334 
L 672.23185 274.892328 
L 674.776697 277.543834 
L 677.321543 274.840158 
L 679.86639 280.953597 
L 682.411236 275.164604 
L 684.956083 279.786939 
L 687.500929 276.509476 
L 690.045776 275.587491 
L 692.590622 277.900787 
L 695.135469 276.859393 
L 697.680315 275.392887 
L 700.225162 271.552447 
L 702.770008 277.754095 
L 705.314854 273.336405 
L 707.859701 276.977228 
L 710.404547 276.859479 
L 712.949394 279.633394 
L 715.49424 274.095114 
L 718.039087 277.645359 
L 720.583933 276.773181 
L 723.12878 280.803934 
L 725.673626 275.709967 
L 728.218473 280.133806 
L 730.763319 278.128121 
L 733.308165 278.664621 
L 735.853012 277.552008 
L 738.397858 281.429444 
L 740.942705 279.387027 
L 743.487551 279.565977 
L 746.032398 276.548728 
L 748.577244 278.706125 
L 751.122091 278.731185 
L 753.666937 279.573356 
L 756.211784 278.68498 
L 758.75663 276.493071 
L 761.301477 273.756143 
L 763.846323 281.219619 
L 766.391169 279.818211 
L 768.936016 279.013824 
L 771.480862 274.474519 
L 774.025709 276.476855 
L 776.570555 278.912258 
L 779.115402 275.383167 
L 781.660248 278.300665 
L 784.205095 274.825955 
L 786.749941 278.333161 
L 789.294788 270.905035 
L 791.839634 279.906636 
L 794.38448 277.617207 
L 796.929327 276.554306 
L 799.474173 276.05035 
L 802.01902 271.293743 
L 804.563866 277.682083 
L 807.108713 276.171571 
L 809.653559 278.749393 
L 812.198406 279.389382 
L 814.743252 278.183399 
L 817.288099 273.38213 
L 819.832945 279.268848 
L 822.377792 275.532258 
L 824.922638 280.094788 
L 827.467484 277.733811 
L 830.012331 277.663514 
L 832.557177 263.138422 
L 835.102024 280.773744 
L 837.64687 277.33062 
L 840.191717 271.9093 
L 842.736563 273.330484 
L 847.826256 279.827528 
L 850.371103 274.245968 
L 852.915949 277.449759 
L 855.460795 276.66691 
L 855.460795 276.66691 
" clip-path="url(#pf1d2cfe2ac)" style="fill: none; stroke: #00ffff; stroke-width: 0.9; stroke-linecap: square"/>
   </g>
   <g id="line2d_17">
    <path d="M 94.551705 280.397476 
L 97.096551 276.357849 
L 99.641397 280.626533 
L 102.186244 272.782868 
L 104.73109 280.061669 
L 107.275937 279.830891 
L 109.820783 281.223948 
L 112.36563 279.01681 
L 114.910476 281.873122 
L 117.455323 281.435795 
L 120.000169 279.323382 
L 122.545016 279.949711 
L 125.089862 279.101555 
L 127.634708 281.474695 
L 130.179555 273.919086 
L 132.724401 277.933772 
L 135.269248 277.115917 
L 137.814094 275.701207 
L 140.358941 272.761115 
L 142.903787 280.826504 
L 145.448634 279.333263 
L 147.99348 279.512032 
L 150.538327 278.130416 
L 153.083173 277.710998 
L 155.62802 272.33129 
L 158.172866 271.932361 
L 160.717712 270.754043 
L 163.262559 276.325089 
L 165.807405 274.780515 
L 168.352252 276.519054 
L 170.897098 277.283867 
L 173.441945 271.673058 
L 175.986791 280.993182 
L 178.531638 273.526237 
L 181.076484 280.145146 
L 183.621331 271.684094 
L 186.166177 278.669049 
L 188.711023 277.158439 
L 191.25587 279.573962 
L 193.800716 275.706233 
L 196.345563 272.994384 
L 198.890409 278.540265 
L 201.435256 276.440164 
L 203.980102 275.872559 
L 206.524949 269.848361 
L 209.069795 272.842863 
L 211.614642 277.118619 
L 214.159488 275.447077 
L 216.704335 270.465781 
L 219.249181 269.897539 
L 221.794027 264.321847 
L 224.338874 269.547859 
L 226.88372 277.530376 
L 229.428567 276.189419 
L 231.973413 275.669644 
L 234.51826 273.286638 
L 237.063106 276.805066 
L 239.607953 274.060827 
L 242.152799 277.630619 
L 244.697646 270.746475 
L 247.242492 275.677462 
L 249.787338 261.729352 
L 252.332185 273.121983 
L 254.877031 269.633698 
L 259.966724 278.974233 
L 262.511571 277.36551 
L 265.056417 279.248635 
L 267.601264 273.465109 
L 270.14611 276.923179 
L 272.690957 276.517272 
L 275.235803 280.078679 
L 277.78065 273.807147 
L 280.325496 280.458919 
L 282.870342 273.999316 
L 285.415189 273.460088 
L 287.960035 273.881632 
L 290.504882 270.971812 
L 293.049728 271.320631 
L 295.594575 279.063007 
L 298.139421 281.243966 
L 300.684268 280.866049 
L 303.229114 278.47972 
L 305.773961 280.336844 
L 308.318807 280.939202 
L 310.863653 281.058897 
L 313.4085 279.943431 
L 315.953346 279.503986 
L 318.498193 281.492058 
L 321.043039 278.063027 
L 323.587886 278.242246 
L 326.132732 281.296098 
L 328.677579 276.308693 
L 331.222425 280.934443 
L 333.767272 279.291453 
L 336.312118 280.306894 
L 338.856965 279.017987 
L 341.401811 276.051387 
L 343.946657 279.13416 
L 346.491504 281.023403 
L 349.03635 278.677123 
L 351.581197 280.122672 
L 354.126043 280.308896 
L 356.67089 276.638741 
L 359.215736 279.834519 
L 361.760583 275.370061 
L 364.305429 280.782984 
L 366.850276 280.893676 
L 369.395122 280.517926 
L 371.939968 278.35605 
L 374.484815 281.696608 
L 377.029661 280.519326 
L 382.119354 280.020093 
L 384.664201 280.98951 
L 387.209047 278.5243 
L 389.753894 281.635915 
L 392.29874 280.114069 
L 394.843587 280.10333 
L 397.388433 276.481742 
L 399.933279 282.091989 
L 402.478126 281.147807 
L 405.022972 281.292841 
L 407.567819 278.581997 
L 410.112665 281.713509 
L 412.657512 280.692723 
L 415.202358 279.195686 
L 417.747205 279.579276 
L 420.292051 280.237221 
L 422.836898 276.121826 
L 425.381744 281.310041 
L 427.926591 277.959995 
L 430.471437 279.262412 
L 433.016283 277.81017 
L 435.56113 277.751356 
L 438.105976 281.150759 
L 440.650823 281.534062 
L 443.195669 280.437969 
L 445.740516 281.403503 
L 448.285362 280.721689 
L 450.830209 274.923718 
L 453.375055 280.401957 
L 455.919902 281.369101 
L 458.464748 279.116792 
L 461.009594 279.045004 
L 463.554441 279.273811 
L 466.099287 277.67556 
L 468.644134 280.677421 
L 471.18898 278.499422 
L 473.733827 280.273167 
L 476.278673 280.327234 
L 478.82352 279.434543 
L 481.368366 279.860514 
L 483.913213 281.990988 
L 486.458059 281.715624 
L 489.002906 278.737718 
L 491.547752 280.634192 
L 494.092598 271.459758 
L 496.637445 280.283899 
L 499.182291 276.999059 
L 501.727138 279.631685 
L 504.271984 269.529296 
L 506.816831 279.825735 
L 509.361677 277.435625 
L 511.906524 278.92367 
L 514.45137 278.034674 
L 516.996217 279.768973 
L 519.541063 279.650196 
L 522.085909 277.023216 
L 524.630756 280.635608 
L 527.175602 281.468024 
L 529.720449 278.328203 
L 532.265295 279.808669 
L 534.810142 275.186805 
L 537.354988 281.713961 
L 539.899835 273.511052 
L 542.444681 279.283747 
L 544.989528 274.383217 
L 547.534374 280.211124 
L 550.079221 278.070618 
L 552.624067 279.920105 
L 555.168913 276.183514 
L 557.71376 280.765753 
L 560.258606 275.723675 
L 562.803453 271.321024 
L 565.348299 279.699555 
L 567.893146 269.948586 
L 570.437992 281.016416 
L 572.982839 277.3608 
L 575.527685 279.189792 
L 578.072532 279.447152 
L 580.617378 280.351782 
L 583.162224 270.78015 
L 585.707071 280.179959 
L 588.251917 278.456006 
L 590.796764 275.309235 
L 593.34161 278.758684 
L 595.886457 278.315524 
L 598.431303 274.129907 
L 600.97615 277.144459 
L 603.520996 275.744329 
L 606.065843 274.091637 
L 608.610689 277.332041 
L 611.155535 279.436563 
L 613.700382 277.565411 
L 616.245228 279.086326 
L 618.790075 280.884822 
L 621.334921 278.542327 
L 623.879768 276.040054 
L 626.424614 269.510382 
L 628.969461 277.173452 
L 631.514307 272.782139 
L 634.059154 278.012628 
L 636.604 275.842862 
L 639.148847 277.584503 
L 641.693693 272.228523 
L 644.238539 273.06272 
L 646.783386 268.939037 
L 649.328232 279.504288 
L 654.417925 281.017594 
L 656.962772 274.014699 
L 659.507618 281.153672 
L 662.052465 278.761221 
L 664.597311 279.244633 
L 667.142158 274.306696 
L 669.687004 279.832224 
L 672.23185 276.67635 
L 674.776697 279.003004 
L 677.321543 277.257909 
L 679.86639 281.361802 
L 682.411236 276.186644 
L 684.956083 281.113 
L 687.500929 276.87789 
L 690.045776 276.92849 
L 692.590622 278.348952 
L 695.135469 278.703392 
L 697.680315 277.019824 
L 700.225162 271.608514 
L 702.770008 278.071822 
L 705.314854 274.919708 
L 707.859701 278.415276 
L 710.404547 277.57746 
L 712.949394 280.18201 
L 715.49424 273.857648 
L 718.039087 279.409554 
L 720.583933 277.626148 
L 723.12878 280.847776 
L 725.673626 277.782022 
L 728.218473 281.074253 
L 730.763319 279.352617 
L 733.308165 279.89453 
L 735.853012 279.016158 
L 738.397858 281.628441 
L 740.942705 280.600724 
L 743.487551 280.52879 
L 746.032398 276.835706 
L 748.577244 280.074054 
L 751.122091 279.775923 
L 753.666937 280.686845 
L 756.211784 278.596725 
L 758.75663 277.952791 
L 761.301477 275.178308 
L 763.846323 281.532329 
L 766.391169 280.52745 
L 768.936016 279.961582 
L 771.480862 276.31485 
L 774.025709 277.69301 
L 776.570555 280.577058 
L 779.115402 277.94122 
L 781.660248 279.685905 
L 784.205095 275.415244 
L 786.749941 279.721351 
L 789.294788 273.094528 
L 791.839634 280.948551 
L 794.38448 278.912455 
L 796.929327 277.74222 
L 799.474173 278.114823 
L 802.01902 274.283181 
L 804.563866 279.164137 
L 807.108713 277.533344 
L 809.653559 279.521671 
L 812.198406 280.244955 
L 814.743252 279.149847 
L 817.288099 274.378405 
L 819.832945 280.411186 
L 822.377792 276.22265 
L 824.922638 280.800685 
L 827.467484 279.067926 
L 830.012331 278.55052 
L 832.557177 262.753447 
L 835.102024 281.427303 
L 837.64687 278.372581 
L 840.191717 272.22426 
L 842.736563 274.553553 
L 845.28141 276.573028 
L 847.826256 280.339283 
L 850.371103 274.749853 
L 852.915949 279.483611 
L 855.460795 276.404781 
L 855.460795 276.404781 
" clip-path="url(#pf1d2cfe2ac)" style="fill: none; stroke: #ffa500; stroke-width: 0.9; stroke-linecap: square"/>
   </g>
   <g id="line2d_18">
    <path d="M 94.551705 247.828687 
L 97.096551 227.453932 
L 99.641397 252.843864 
L 102.186244 212.348911 
L 104.73109 211.62396 
L 107.275937 260.387001 
L 109.820783 258.353249 
L 112.36563 233.129962 
L 114.910476 266.670238 
L 117.455323 270.791482 
L 120.000169 220.156761 
L 122.545016 255.468032 
L 125.089862 246.787764 
L 127.634708 270.381203 
L 130.179555 203.548385 
L 132.724401 202.176105 
L 135.269248 227.235196 
L 137.814094 202.123957 
L 140.358941 135.026066 
L 142.903787 252.798651 
L 145.448634 246.548639 
L 147.99348 253.989122 
L 150.538327 237.625722 
L 153.083173 223.527267 
L 155.62802 169.521588 
L 158.172866 157.259808 
L 160.717712 127.941456 
L 163.262559 208.668238 
L 165.807405 211.140786 
L 168.352252 222.739549 
L 170.897098 222.361201 
L 173.441945 197.239802 
L 175.986791 257.846865 
L 178.531638 215.421563 
L 181.076484 250.235848 
L 183.621331 147.396839 
L 186.166177 221.058574 
L 188.711023 210.073827 
L 191.25587 233.401319 
L 193.800716 186.308406 
L 196.345563 151.718537 
L 198.890409 221.683635 
L 201.435256 197.665056 
L 203.980102 175.209028 
L 206.524949 187.752263 
L 209.069795 161.209857 
L 211.614642 239.99223 
L 214.159488 188.55772 
L 216.704335 119.570353 
L 219.249181 111.467134 
L 221.794027 35.15267 
L 224.338874 81.076536 
L 226.88372 199.180403 
L 229.428567 194.546067 
L 231.973413 199.658822 
L 234.51826 184.561067 
L 237.063106 218.241918 
L 239.607953 170.691265 
L 242.152799 200.765165 
L 244.697646 130.07742 
L 247.242492 211.329554 
L 249.787338 91.797411 
L 252.332185 165.672737 
L 254.877031 122.251116 
L 257.421878 168.653008 
L 259.966724 235.891837 
L 262.511571 235.740456 
L 265.056417 215.933622 
L 267.601264 183.206403 
L 270.14611 188.761089 
L 272.690957 212.748826 
L 275.235803 239.31559 
L 277.78065 172.255867 
L 280.325496 234.91201 
L 282.870342 159.047595 
L 285.415189 146.10685 
L 287.960035 198.394974 
L 290.504882 180.751683 
L 293.049728 157.454915 
L 295.594575 228.150909 
L 298.139421 265.774047 
L 300.684268 262.524588 
L 303.229114 232.640852 
L 305.773961 257.018009 
L 308.318807 257.63626 
L 310.863653 270.323109 
L 313.4085 250.953194 
L 315.953346 257.293625 
L 318.498193 266.176336 
L 321.043039 215.052471 
L 323.587886 223.591449 
L 326.132732 264.559241 
L 328.677579 230.318788 
L 331.222425 258.84599 
L 333.767272 255.274116 
L 336.312118 250.216124 
L 338.856965 252.586457 
L 341.401811 243.091106 
L 343.946657 263.441372 
L 346.491504 266.810226 
L 349.03635 233.309243 
L 351.581197 259.486754 
L 354.126043 243.04543 
L 356.67089 229.851893 
L 359.215736 226.448901 
L 361.760583 216.998991 
L 364.305429 255.817911 
L 366.850276 269.730561 
L 369.395122 245.803116 
L 371.939968 195.558916 
L 374.484815 268.133006 
L 377.029661 243.7021 
L 379.574508 225.781018 
L 382.119354 251.649675 
L 384.664201 246.17101 
L 387.209047 220.918347 
L 389.753894 256.413628 
L 392.29874 246.370333 
L 394.843587 245.389471 
L 397.388433 198.724599 
L 399.933279 272.680374 
L 402.478126 263.121556 
L 405.022972 255.912837 
L 407.567819 215.763236 
L 410.112665 264.864166 
L 412.657512 240.23631 
L 415.202358 255.387647 
L 417.747205 243.8358 
L 420.292051 244.516796 
L 422.836898 172.560771 
L 425.381744 256.585373 
L 427.926591 226.022072 
L 430.471437 235.658691 
L 433.016283 156.219982 
L 435.56113 183.146286 
L 438.105976 258.056826 
L 440.650823 263.678248 
L 443.195669 252.717433 
L 445.740516 268.152031 
L 448.285362 255.513393 
L 450.830209 213.795868 
L 453.375055 248.316553 
L 455.919902 264.335002 
L 458.464748 214.84747 
L 461.009594 250.71936 
L 463.554441 237.602775 
L 466.099287 228.385201 
L 468.644134 246.170092 
L 471.18898 235.967239 
L 473.733827 244.309044 
L 476.278673 236.632692 
L 478.82352 219.123964 
L 483.913213 274.035071 
L 486.458059 267.219718 
L 489.002906 213.264643 
L 491.547752 258.938835 
L 494.092598 189.731611 
L 496.637445 245.988104 
L 499.182291 201.451463 
L 501.727138 221.149889 
L 504.271984 139.79783 
L 506.816831 238.563661 
L 509.361677 205.195873 
L 511.906524 224.737189 
L 514.45137 220.467885 
L 516.996217 218.381532 
L 519.541063 232.321916 
L 522.085909 186.553149 
L 524.630756 245.767956 
L 527.175602 265.244585 
L 529.720449 212.891665 
L 532.265295 238.610055 
L 534.810142 165.588424 
L 537.354988 263.84972 
L 539.899835 160.805233 
L 542.444681 231.76708 
L 544.989528 172.501978 
L 547.534374 223.091277 
L 550.079221 219.665523 
L 552.624067 245.424449 
L 555.168913 172.254313 
L 557.71376 252.649845 
L 560.258606 147.100915 
L 562.803453 136.383177 
L 565.348299 244.196249 
L 567.893146 154.395171 
L 570.437992 254.983979 
L 572.982839 211.631537 
L 575.527685 233.96498 
L 578.072532 208.358026 
L 580.617378 245.84635 
L 583.162224 153.598285 
L 585.707071 245.082847 
L 588.251917 217.370843 
L 590.796764 187.561596 
L 593.34161 245.557714 
L 598.431303 162.530773 
L 600.97615 199.961632 
L 603.520996 174.318124 
L 606.065843 128.471469 
L 608.610689 180.03622 
L 611.155535 224.999429 
L 613.700382 194.774515 
L 616.245228 217.162267 
L 618.790075 248.680573 
L 621.334921 209.625653 
L 623.879768 156.227931 
L 626.424614 89.734792 
L 628.969461 220.027447 
L 631.514307 157.078424 
L 634.059154 216.511051 
L 636.604 181.765949 
L 639.148847 211.601894 
L 641.693693 102.014279 
L 644.238539 134.085708 
L 646.783386 123.404987 
L 649.328232 246.312906 
L 651.873079 245.240711 
L 654.417925 253.355024 
L 656.962772 170.474262 
L 659.507618 259.13589 
L 662.052465 219.024698 
L 664.597311 241.612784 
L 667.142158 175.863882 
L 669.687004 248.192944 
L 672.23185 171.840353 
L 674.776697 216.148263 
L 677.321543 175.747674 
L 679.86639 262.960479 
L 682.411236 171.282818 
L 684.956083 243.286834 
L 687.500929 212.234185 
L 690.045776 204.304937 
L 692.590622 227.777628 
L 695.135469 202.606996 
L 697.680315 203.183099 
L 700.225162 141.571522 
L 702.770008 220.181474 
L 705.314854 164.450381 
L 707.859701 207.722092 
L 710.404547 218.26209 
L 712.949394 240.291257 
L 715.49424 172.967389 
L 718.039087 208.505628 
L 720.583933 218.382345 
L 723.12878 263.104188 
L 725.673626 192.783883 
L 728.218473 252.401443 
L 730.763319 228.111735 
L 733.308165 230.794701 
L 735.853012 223.699596 
L 738.397858 270.178864 
L 740.942705 244.426146 
L 743.487551 234.12386 
L 746.032398 212.113881 
L 748.577244 231.814243 
L 751.122091 233.76424 
L 753.666937 243.628814 
L 756.211784 236.512343 
L 761.301477 162.040407 
L 763.846323 266.698861 
L 766.391169 248.963139 
L 768.936016 239.269964 
L 771.480862 179.98565 
L 774.025709 201.926784 
L 776.570555 231.355089 
L 779.115402 182.797711 
L 781.660248 224.983987 
L 784.205095 189.257335 
L 786.749941 225.182301 
L 789.294788 139.085624 
L 791.839634 244.882359 
L 794.38448 227.919626 
L 796.929327 215.769171 
L 799.474173 207.900594 
L 802.01902 130.346389 
L 804.563866 223.134913 
L 807.108713 207.518666 
L 809.653559 236.710179 
L 812.198406 247.385859 
L 814.743252 219.205128 
L 817.288099 167.24611 
L 819.832945 237.683395 
L 822.377792 192.099176 
L 824.922638 250.447866 
L 827.467484 214.046148 
L 830.012331 229.138074 
L 832.557177 35.883176 
L 835.102024 261.56698 
L 837.64687 215.56038 
L 840.191717 149.896659 
L 842.736563 169.423167 
L 845.28141 206.562466 
L 847.826256 250.29283 
L 850.371103 178.378039 
L 852.915949 209.303895 
L 855.460795 214.067511 
L 855.460795 214.067511 
" clip-path="url(#pf1d2cfe2ac)" style="fill: none; stroke: #ff4500; stroke-width: 0.9; stroke-linecap: square"/>
   </g>
   <g id="patch_3">
    <path d="M 56.50625 294.598125 
L 56.50625 22.798125 
" style="fill: none; stroke: #000000; stroke-width: 0.8; stroke-linejoin: miter; stroke-linecap: square"/>
   </g>
   <g id="patch_4">
    <path d="M 893.50625 294.598125 
L 893.50625 22.798125 
" style="fill: none; stroke: #000000; stroke-width: 0.8; stroke-linejoin: miter; stroke-linecap: square"/>
   </g>
   <g id="patch_5">
    <path d="M 56.50625 294.598125 
L 893.50625 294.598125 
" style="fill: none; stroke: #000000; stroke-width: 0.8; stroke-linejoin: miter; stroke-linecap: square"/>
   </g>
   <g id="patch_6">
    <path d="M 56.50625 22.798125 
L 893.50625 22.798125 
" style="fill: none; stroke: #000000; stroke-width: 0.8; stroke-linejoin: miter; stroke-linecap: square"/>
   </g>
   <g id="text_16">
    <!-- Wariancja z próbki 1 sekunda -->
    <g transform="translate(386.972188 16.798125)scale(0.12 -0.12)">
     <defs>
      <path id="DejaVuSans-69" d="M 603 3500 
L 1178 3500 
L 1178 0 
L 603 0 
L 603 3500 
z
M 603 4863 
L 1178 4863 
L 1178 4134 
L 603 4134 
L 603 4863 
z
" transform="scale(0.015625)"/>
      <path id="DejaVuSans-6e" d="M 3513 2113 
L 3513 0 
L 2938 0 
L 2938 2094 
Q 2938 2591 2744 2837 
Q 2550 3084 2163 3084 
Q 1697 3084 1428 2787 
Q 1159 2491 1159 1978 
L 1159 0 
L 581 0 
L 581 3500 
L 1159 3500 
L 1159 2956 
Q 1366 3272 1645 3428 
Q 1925 3584 2291 3584 
Q 2894 3584 3203 3211 
Q 3513 2838 3513 2113 
z
" transform="scale(0.015625)"/>
      <path id="DejaVuSans-63" d="M 3122 3366 
L 3122 2828 
Q 2878 2963 2633 3030 
Q 2388 3097 2138 3097 
Q 1578 3097 1268 2742 
Q 959 2388 959 1747 
Q 959 1106 1268 751 
Q 1578 397 2138 397 
Q 2388 397 2633 464 
Q 2878 531 3122 666 
L 3122 134 
Q 2881 22 2623 -34 
Q 2366 -91 2075 -91 
Q 1284 -91 818 406 
Q 353 903 353 1747 
Q 353 2603 823 3093 
Q 1294 3584 2113 3584 
Q 2378 3584 2631 3529 
Q 2884 3475 3122 3366 
z
" transform="scale(0.015625)"/>
      <path id="DejaVuSans-6a" d="M 603 3500 
L 1178 3500 
L 1178 -63 
Q 1178 -731 923 -1031 
Q 669 -1331 103 -1331 
L -116 -1331 
L -116 -844 
L 38 -844 
Q 366 -844 484 -692 
Q 603 -541 603 -63 
L 603 3500 
z
M 603 4863 
L 1178 4863 
L 1178 4134 
L 603 4134 
L 603 4863 
z
" transform="scale(0.015625)"/>
      <path id="DejaVuSans-20" transform="scale(0.015625)"/>
      <path id="DejaVuSans-7a" d="M 353 3500 
L 3084 3500 
L 3084 2975 
L 922 459 
L 3084 459 
L 3084 0 
L 275 0 
L 275 525 
L 2438 3041 
L 353 3041 
L 353 3500 
z
" transform="scale(0.015625)"/>
      <path id="DejaVuSans-70" d="M 1159 525 
L 1159 -1331 
L 581 -1331 
L 581 3500 
L 1159 3500 
L 1159 2969 
Q 1341 3281 1617 3432 
Q 1894 3584 2278 3584 
Q 2916 3584 3314 3078 
Q 3713 2572 3713 1747 
Q 3713 922 3314 415 
Q 2916 -91 2278 -91 
Q 1894 -91 1617 61 
Q 1341 213 1159 525 
z
M 3116 1747 
Q 3116 2381 2855 2742 
Q 2594 3103 2138 3103 
Q 1681 3103 1420 2742 
Q 1159 2381 1159 1747 
Q 1159 1113 1420 752 
Q 1681 391 2138 391 
Q 2594 391 2855 752 
Q 3116 1113 3116 1747 
z
" transform="scale(0.015625)"/>
      <path id="DejaVuSans-73" d="M 2834 3397 
L 2834 2853 
Q 2591 2978 2328 3040 
Q 2066 3103 1784 3103 
Q 1356 3103 1142 2972 
Q 928 2841 928 2578 
Q 928 2378 1081 2264 
Q 1234 2150 1697 2047 
L 1894 2003 
Q 2506 1872 2764 1633 
Q 3022 1394 3022 966 
Q 3022 478 2636 193 
Q 2250 -91 1575 -91 
Q 1294 -91 989 -36 
Q 684 19 347 128 
L 347 722 
Q 666 556 975 473 
Q 1284 391 1588 391 
Q 1994 391 2212 530 
Q 2431 669 2431 922 
Q 2431 1156 2273 1281 
Q 2116 1406 1581 1522 
L 1381 1569 
Q 847 1681 609 1914 
Q 372 2147 372 2553 
Q 372 3047 722 3315 
Q 1072 3584 1716 3584 
Q 2034 3584 2315 3537 
Q 2597 3491 2834 3397 
z
" transform="scale(0.015625)"/>
      <path id="DejaVuSans-65" d="M 3597 1894 
L 3597 1613 
L 953 1613 
Q 991 1019 1311 708 
Q 1631 397 2203 397 
Q 2534 397 2845 478 
Q 3156 559 3463 722 
L 3463 178 
Q 3153 47 2828 -22 
Q 2503 -91 2169 -91 
Q 1331 -91 842 396 
Q 353 884 353 1716 
Q 353 2575 817 3079 
Q 1281 3584 2069 3584 
Q 2775 3584 3186 3129 
Q 3597 2675 3597 1894 
z
M 3022 2063 
Q 3016 2534 2758 2815 
Q 2500 3097 2075 3097 
Q 1594 3097 1305 2825 
Q 1016 2553 972 2059 
L 3022 2063 
z
" transform="scale(0.015625)"/>
      <path id="DejaVuSans-75" d="M 544 1381 
L 544 3500 
L 1119 3500 
L 1119 1403 
Q 1119 906 1312 657 
Q 1506 409 1894 409 
Q 2359 409 2629 706 
Q 2900 1003 2900 1516 
L 2900 3500 
L 3475 3500 
L 3475 0 
L 2900 0 
L 2900 538 
Q 2691 219 2414 64 
Q 2138 -91 1772 -91 
Q 1169 -91 856 284 
Q 544 659 544 1381 
z
M 1991 3584 
L 1991 3584 
z
" transform="scale(0.015625)"/>
      <path id="DejaVuSans-64" d="M 2906 2969 
L 2906 4863 
L 3481 4863 
L 3481 0 
L 2906 0 
L 2906 525 
Q 2725 213 2448 61 
Q 2172 -91 1784 -91 
Q 1150 -91 751 415 
Q 353 922 353 1747 
Q 353 2572 751 3078 
Q 1150 3584 1784 3584 
Q 2172 3584 2448 3432 
Q 2725 3281 2906 2969 
z
M 947 1747 
Q 947 1113 1208 752 
Q 1469 391 1925 391 
Q 2381 391 2643 752 
Q 2906 1113 2906 1747 
Q 2906 2381 2643 2742 
Q 2381 3103 1925 3103 
Q 1469 3103 1208 2742 
Q 947 2381 947 1747 
z
" transform="scale(0.015625)"/>
     </defs>
     <use xlink:href="#DejaVuSans-57"/>
     <use xlink:href="#DejaVuSans-61" x="92.501953"/>
     <use xlink:href="#DejaVuSans-72" x="153.78125"/>
     <use xlink:href="#DejaVuSans-69" x="194.894531"/>
     <use xlink:href="#DejaVuSans-61" x="222.677734"/>
     <use xlink:href="#DejaVuSans-6e" x="283.957031"/>
     <use xlink:href="#DejaVuSans-63" x="347.335938"/>
     <use xlink:href="#DejaVuSans-6a" x="402.316406"/>
     <use xlink:href="#DejaVuSans-61" x="430.099609"/>
     <use xlink:href="#DejaVuSans-20" x="491.378906"/>
     <use xlink:href="#DejaVuSans-7a" x="523.166016"/>
     <use xlink:href="#DejaVuSans-20" x="575.65625"/>
     <use xlink:href="#DejaVuSans-70" x="607.443359"/>
     <use xlink:href="#DejaVuSans-72" x="670.919922"/>
     <use xlink:href="#DejaVuSans-f3" x="709.783203"/>
     <use xlink:href="#DejaVuSans-62" x="770.964844"/>
     <use xlink:href="#DejaVuSans-6b" x="834.441406"/>
     <use xlink:href="#DejaVuSans-69" x="892.351562"/>
     <use xlink:href="#DejaVuSans-20" x="920.134766"/>
     <use xlink:href="#DejaVuSans-31" x="951.921875"/>
     <use xlink:href="#DejaVuSans-20" x="1015.544922"/>
     <use xlink:href="#DejaVuSans-73" x="1047.332031"/>
     <use xlink:href="#DejaVuSans-65" x="1099.431641"/>
     <use xlink:href="#DejaVuSans-6b" x="1160.955078"/>
     <use xlink:href="#DejaVuSans-75" x="1215.740234"/>
     <use xlink:href="#DejaVuSans-6e" x="1279.119141"/>
     <use xlink:href="#DejaVuSans-64" x="1342.498047"/>
     <use xlink:href="#DejaVuSans-61" x="1405.974609"/>
    </g>
   </g>
   <g id="legend_1">
    <g id="patch_7">
     <path d="M 809.371875 105.579375 
L 886.50625 105.579375 
Q 888.50625 105.579375 888.50625 103.579375 
L 888.50625 29.798125 
Q 888.50625 27.798125 886.50625 27.798125 
L 809.371875 27.798125 
Q 807.371875 27.798125 807.371875 29.798125 
L 807.371875 103.579375 
Q 807.371875 105.579375 809.371875 105.579375 
z
" style="fill: #ffffff; opacity: 0.8; stroke: #cccccc; stroke-linejoin: miter"/>
    </g>
    <g id="line2d_19">
     <path d="M 811.371875 35.896563 
L 821.371875 35.896563 
L 831.371875 35.896563 
" style="fill: none; stroke: #ff00ff; stroke-width: 0.9; stroke-linecap: square"/>
    </g>
    <g id="text_17">
     <!-- CH1_8KS -->
     <g transform="translate(839.371875 39.396563)scale(0.1 -0.1)">
      <defs>
       <path id="DejaVuSans-43" d="M 4122 4306 
L 4122 3641 
Q 3803 3938 3442 4084 
Q 3081 4231 2675 4231 
Q 1875 4231 1450 3742 
Q 1025 3253 1025 2328 
Q 1025 1406 1450 917 
Q 1875 428 2675 428 
Q 3081 428 3442 575 
Q 3803 722 4122 1019 
L 4122 359 
Q 3791 134 3420 21 
Q 3050 -91 2638 -91 
Q 1578 -91 968 557 
Q 359 1206 359 2328 
Q 359 3453 968 4101 
Q 1578 4750 2638 4750 
Q 3056 4750 3426 4639 
Q 3797 4528 4122 4306 
z
" transform="scale(0.015625)"/>
       <path id="DejaVuSans-48" d="M 628 4666 
L 1259 4666 
L 1259 2753 
L 3553 2753 
L 3553 4666 
L 4184 4666 
L 4184 0 
L 3553 0 
L 3553 2222 
L 1259 2222 
L 1259 0 
L 628 0 
L 628 4666 
z
" transform="scale(0.015625)"/>
       <path id="DejaVuSans-5f" d="M 3263 -1063 
L 3263 -1509 
L -63 -1509 
L -63 -1063 
L 3263 -1063 
z
" transform="scale(0.015625)"/>
       <path id="DejaVuSans-38" d="M 2034 2216 
Q 1584 2216 1326 1975 
Q 1069 1734 1069 1313 
Q 1069 891 1326 650 
Q 1584 409 2034 409 
Q 2484 409 2743 651 
Q 3003 894 3003 1313 
Q 3003 1734 2745 1975 
Q 2488 2216 2034 2216 
z
M 1403 2484 
Q 997 2584 770 2862 
Q 544 3141 544 3541 
Q 544 4100 942 4425 
Q 1341 4750 2034 4750 
Q 2731 4750 3128 4425 
Q 3525 4100 3525 3541 
Q 3525 3141 3298 2862 
Q 3072 2584 2669 2484 
Q 3125 2378 3379 2068 
Q 3634 1759 3634 1313 
Q 3634 634 3220 271 
Q 2806 -91 2034 -91 
Q 1263 -91 848 271 
Q 434 634 434 1313 
Q 434 1759 690 2068 
Q 947 2378 1403 2484 
z
M 1172 3481 
Q 1172 3119 1398 2916 
Q 1625 2713 2034 2713 
Q 2441 2713 2670 2916 
Q 2900 3119 2900 3481 
Q 2900 3844 2670 4047 
Q 2441 4250 2034 4250 
Q 1625 4250 1398 4047 
Q 1172 3844 1172 3481 
z
" transform="scale(0.015625)"/>
       <path id="DejaVuSans-4b" d="M 628 4666 
L 1259 4666 
L 1259 2694 
L 3353 4666 
L 4166 4666 
L 1850 2491 
L 4331 0 
L 3500 0 
L 1259 2247 
L 1259 0 
L 628 0 
L 628 4666 
z
" transform="scale(0.015625)"/>
       <path id="DejaVuSans-53" d="M 3425 4513 
L 3425 3897 
Q 3066 4069 2747 4153 
Q 2428 4238 2131 4238 
Q 1616 4238 1336 4038 
Q 1056 3838 1056 3469 
Q 1056 3159 1242 3001 
Q 1428 2844 1947 2747 
L 2328 2669 
Q 3034 2534 3370 2195 
Q 3706 1856 3706 1288 
Q 3706 609 3251 259 
Q 2797 -91 1919 -91 
Q 1588 -91 1214 -16 
Q 841 59 441 206 
L 441 856 
Q 825 641 1194 531 
Q 1563 422 1919 422 
Q 2459 422 2753 634 
Q 3047 847 3047 1241 
Q 3047 1584 2836 1778 
Q 2625 1972 2144 2069 
L 1759 2144 
Q 1053 2284 737 2584 
Q 422 2884 422 3419 
Q 422 4038 858 4394 
Q 1294 4750 2059 4750 
Q 2388 4750 2728 4690 
Q 3069 4631 3425 4513 
z
" transform="scale(0.015625)"/>
      </defs>
      <use xlink:href="#DejaVuSans-43"/>
      <use xlink:href="#DejaVuSans-48" x="69.824219"/>
      <use xlink:href="#DejaVuSans-31" x="145.019531"/>
      <use xlink:href="#DejaVuSans-5f" x="208.642578"/>
      <use xlink:href="#DejaVuSans-38" x="258.642578"/>
      <use xlink:href="#DejaVuSans-4b" x="322.265625"/>
      <use xlink:href="#DejaVuSans-53" x="387.841797"/>
     </g>
    </g>
    <g id="line2d_20">
     <path d="M 811.371875 50.852813 
L 821.371875 50.852813 
L 831.371875 50.852813 
" style="fill: none; stroke: #9400d3; stroke-width: 0.9; stroke-linecap: square"/>
    </g>
    <g id="text_18">
     <!-- CH2_8KS -->
     <g transform="translate(839.371875 54.352813)scale(0.1 -0.1)">
      <use xlink:href="#DejaVuSans-43"/>
      <use xlink:href="#DejaVuSans-48" x="69.824219"/>
      <use xlink:href="#DejaVuSans-32" x="145.019531"/>
      <use xlink:href="#DejaVuSans-5f" x="208.642578"/>
      <use xlink:href="#DejaVuSans-38" x="258.642578"/>
      <use xlink:href="#DejaVuSans-4b" x="322.265625"/>
      <use xlink:href="#DejaVuSans-53" x="387.841797"/>
     </g>
    </g>
    <g id="line2d_21">
     <path d="M 811.371875 65.809063 
L 821.371875 65.809063 
L 831.371875 65.809063 
" style="fill: none; stroke: #00ffff; stroke-width: 0.9; stroke-linecap: square"/>
    </g>
    <g id="text_19">
     <!-- CH3_8KS -->
     <g transform="translate(839.371875 69.309063)scale(0.1 -0.1)">
      <use xlink:href="#DejaVuSans-43"/>
      <use xlink:href="#DejaVuSans-48" x="69.824219"/>
      <use xlink:href="#DejaVuSans-33" x="145.019531"/>
      <use xlink:href="#DejaVuSans-5f" x="208.642578"/>
      <use xlink:href="#DejaVuSans-38" x="258.642578"/>
      <use xlink:href="#DejaVuSans-4b" x="322.265625"/>
      <use xlink:href="#DejaVuSans-53" x="387.841797"/>
     </g>
    </g>
    <g id="line2d_22">
     <path d="M 811.371875 80.765313 
L 821.371875 80.765313 
L 831.371875 80.765313 
" style="fill: none; stroke: #ffa500; stroke-width: 0.9; stroke-linecap: square"/>
    </g>
    <g id="text_20">
     <!-- CH4_8KS -->
     <g transform="translate(839.371875 84.265313)scale(0.1 -0.1)">
      <defs>
       <path id="DejaVuSans-34" d="M 2419 4116 
L 825 1625 
L 2419 1625 
L 2419 4116 
z
M 2253 4666 
L 3047 4666 
L 3047 1625 
L 3713 1625 
L 3713 1100 
L 3047 1100 
L 3047 0 
L 2419 0 
L 2419 1100 
L 313 1100 
L 313 1709 
L 2253 4666 
z
" transform="scale(0.015625)"/>
      </defs>
      <use xlink:href="#DejaVuSans-43"/>
      <use xlink:href="#DejaVuSans-48" x="69.824219"/>
      <use xlink:href="#DejaVuSans-34" x="145.019531"/>
      <use xlink:href="#DejaVuSans-5f" x="208.642578"/>
      <use xlink:href="#DejaVuSans-38" x="258.642578"/>
      <use xlink:href="#DejaVuSans-4b" x="322.265625"/>
      <use xlink:href="#DejaVuSans-53" x="387.841797"/>
     </g>
    </g>
    <g id="line2d_23">
     <path d="M 811.371875 95.721563 
L 821.371875 95.721563 
L 831.371875 95.721563 
" style="fill: none; stroke: #ff4500; stroke-width: 0.9; stroke-linecap: square"/>
    </g>
    <g id="text_21">
     <!-- CH5_8KS -->
     <g transform="translate(839.371875 99.221563)scale(0.1 -0.1)">
      <use xlink:href="#DejaVuSans-43"/>
      <use xlink:href="#DejaVuSans-48" x="69.824219"/>
      <use xlink:href="#DejaVuSans-35" x="145.019531"/>
      <use xlink:href="#DejaVuSans-5f" x="208.642578"/>
      <use xlink:href="#DejaVuSans-38" x="258.642578"/>
      <use xlink:href="#DejaVuSans-4b" x="322.265625"/>
      <use xlink:href="#DejaVuSans-53" x="387.841797"/>
     </g>
    </g>
   </g>
  </g>
 </g>
 <defs>
  <clipPath id="pf1d2cfe2ac">
   <rect x="56.50625" y="22.798125" width="837" height="271.8"/>
  </clipPath>
 </defs>
</svg>
