<?xml version="1.0" encoding="utf-8" standalone="no"?>
<!DOCTYPE svg PUBLIC "-//W3C//DTD SVG 1.1//EN"
  "http://www.w3.org/Graphics/SVG/1.1/DTD/svg11.dtd">
<svg xmlns:xlink="http://www.w3.org/1999/xlink" width="900.70625pt" height="332.154375pt" viewBox="0 0 900.70625 332.154375" xmlns="http://www.w3.org/2000/svg" version="1.1">
 <metadata>
  <rdf:RDF xmlns:dc="http://purl.org/dc/elements/1.1/" xmlns:cc="http://creativecommons.org/ns#" xmlns:rdf="http://www.w3.org/1999/02/22-rdf-syntax-ns#">
   <cc:Work>
    <dc:type rdf:resource="http://purl.org/dc/dcmitype/StillImage"/>
    <dc:date>2022-06-21T21:13:41.052563</dc:date>
    <dc:format>image/svg+xml</dc:format>
    <dc:creator>
     <cc:Agent>
      <dc:title>Matplotlib v3.5.2, https://matplotlib.org/</dc:title>
     </cc:Agent>
    </dc:creator>
   </cc:Work>
  </rdf:RDF>
 </metadata>
 <defs>
  <style type="text/css">*{stroke-linejoin: round; stroke-linecap: butt}</style>
 </defs>
 <g id="figure_1">
  <g id="patch_1">
   <path d="M 0 332.154375 
L 900.70625 332.154375 
L 900.70625 0 
L 0 0 
L 0 332.154375 
z
" style="fill: none"/>
  </g>
  <g id="axes_1">
   <g id="patch_2">
    <path d="M 56.50625 294.598125 
L 893.50625 294.598125 
L 893.50625 22.798125 
L 56.50625 22.798125 
z
" style="fill: #ffffff"/>
   </g>
   <g id="matplotlib.axis_1">
    <g id="xtick_1">
     <g id="line2d_1">
      <defs>
       <path id="me05438c6fb" d="M 0 0 
L 0 3.5 
" style="stroke: #000000; stroke-width: 0.8"/>
      </defs>
      <g>
       <use xlink:href="#me05438c6fb" x="94.551705" y="294.598125" style="stroke: #000000; stroke-width: 0.8"/>
      </g>
     </g>
     <g id="text_1">
      <!-- 0 -->
      <g transform="translate(91.370455 309.196562)scale(0.1 -0.1)">
       <defs>
        <path id="DejaVuSans-30" d="M 2034 4250 
Q 1547 4250 1301 3770 
Q 1056 3291 1056 2328 
Q 1056 1369 1301 889 
Q 1547 409 2034 409 
Q 2525 409 2770 889 
Q 3016 1369 3016 2328 
Q 3016 3291 2770 3770 
Q 2525 4250 2034 4250 
z
M 2034 4750 
Q 2819 4750 3233 4129 
Q 3647 3509 3647 2328 
Q 3647 1150 3233 529 
Q 2819 -91 2034 -91 
Q 1250 -91 836 529 
Q 422 1150 422 2328 
Q 422 3509 836 4129 
Q 1250 4750 2034 4750 
z
" transform="scale(0.015625)"/>
       </defs>
       <use xlink:href="#DejaVuSans-30"/>
      </g>
     </g>
    </g>
    <g id="xtick_2">
     <g id="line2d_2">
      <g>
       <use xlink:href="#me05438c6fb" x="221.794027" y="294.598125" style="stroke: #000000; stroke-width: 0.8"/>
      </g>
     </g>
     <g id="text_2">
      <!-- 50 -->
      <g transform="translate(215.431527 309.196562)scale(0.1 -0.1)">
       <defs>
        <path id="DejaVuSans-35" d="M 691 4666 
L 3169 4666 
L 3169 4134 
L 1269 4134 
L 1269 2991 
Q 1406 3038 1543 3061 
Q 1681 3084 1819 3084 
Q 2600 3084 3056 2656 
Q 3513 2228 3513 1497 
Q 3513 744 3044 326 
Q 2575 -91 1722 -91 
Q 1428 -91 1123 -41 
Q 819 9 494 109 
L 494 744 
Q 775 591 1075 516 
Q 1375 441 1709 441 
Q 2250 441 2565 725 
Q 2881 1009 2881 1497 
Q 2881 1984 2565 2268 
Q 2250 2553 1709 2553 
Q 1456 2553 1204 2497 
Q 953 2441 691 2322 
L 691 4666 
z
" transform="scale(0.015625)"/>
       </defs>
       <use xlink:href="#DejaVuSans-35"/>
       <use xlink:href="#DejaVuSans-30" x="63.623047"/>
      </g>
     </g>
    </g>
    <g id="xtick_3">
     <g id="line2d_3">
      <g>
       <use xlink:href="#me05438c6fb" x="349.03635" y="294.598125" style="stroke: #000000; stroke-width: 0.8"/>
      </g>
     </g>
     <g id="text_3">
      <!-- 100 -->
      <g transform="translate(339.4926 309.196562)scale(0.1 -0.1)">
       <defs>
        <path id="DejaVuSans-31" d="M 794 531 
L 1825 531 
L 1825 4091 
L 703 3866 
L 703 4441 
L 1819 4666 
L 2450 4666 
L 2450 531 
L 3481 531 
L 3481 0 
L 794 0 
L 794 531 
z
" transform="scale(0.015625)"/>
       </defs>
       <use xlink:href="#DejaVuSans-31"/>
       <use xlink:href="#DejaVuSans-30" x="63.623047"/>
       <use xlink:href="#DejaVuSans-30" x="127.246094"/>
      </g>
     </g>
    </g>
    <g id="xtick_4">
     <g id="line2d_4">
      <g>
       <use xlink:href="#me05438c6fb" x="476.278673" y="294.598125" style="stroke: #000000; stroke-width: 0.8"/>
      </g>
     </g>
     <g id="text_4">
      <!-- 150 -->
      <g transform="translate(466.734923 309.196562)scale(0.1 -0.1)">
       <use xlink:href="#DejaVuSans-31"/>
       <use xlink:href="#DejaVuSans-35" x="63.623047"/>
       <use xlink:href="#DejaVuSans-30" x="127.246094"/>
      </g>
     </g>
    </g>
    <g id="xtick_5">
     <g id="line2d_5">
      <g>
       <use xlink:href="#me05438c6fb" x="603.520996" y="294.598125" style="stroke: #000000; stroke-width: 0.8"/>
      </g>
     </g>
     <g id="text_5">
      <!-- 200 -->
      <g transform="translate(593.977246 309.196562)scale(0.1 -0.1)">
       <defs>
        <path id="DejaVuSans-32" d="M 1228 531 
L 3431 531 
L 3431 0 
L 469 0 
L 469 531 
Q 828 903 1448 1529 
Q 2069 2156 2228 2338 
Q 2531 2678 2651 2914 
Q 2772 3150 2772 3378 
Q 2772 3750 2511 3984 
Q 2250 4219 1831 4219 
Q 1534 4219 1204 4116 
Q 875 4013 500 3803 
L 500 4441 
Q 881 4594 1212 4672 
Q 1544 4750 1819 4750 
Q 2544 4750 2975 4387 
Q 3406 4025 3406 3419 
Q 3406 3131 3298 2873 
Q 3191 2616 2906 2266 
Q 2828 2175 2409 1742 
Q 1991 1309 1228 531 
z
" transform="scale(0.015625)"/>
       </defs>
       <use xlink:href="#DejaVuSans-32"/>
       <use xlink:href="#DejaVuSans-30" x="63.623047"/>
       <use xlink:href="#DejaVuSans-30" x="127.246094"/>
      </g>
     </g>
    </g>
    <g id="xtick_6">
     <g id="line2d_6">
      <g>
       <use xlink:href="#me05438c6fb" x="730.763319" y="294.598125" style="stroke: #000000; stroke-width: 0.8"/>
      </g>
     </g>
     <g id="text_6">
      <!-- 250 -->
      <g transform="translate(721.219569 309.196562)scale(0.1 -0.1)">
       <use xlink:href="#DejaVuSans-32"/>
       <use xlink:href="#DejaVuSans-35" x="63.623047"/>
       <use xlink:href="#DejaVuSans-30" x="127.246094"/>
      </g>
     </g>
    </g>
    <g id="xtick_7">
     <g id="line2d_7">
      <g>
       <use xlink:href="#me05438c6fb" x="858.005642" y="294.598125" style="stroke: #000000; stroke-width: 0.8"/>
      </g>
     </g>
     <g id="text_7">
      <!-- 300 -->
      <g transform="translate(848.461892 309.196562)scale(0.1 -0.1)">
       <defs>
        <path id="DejaVuSans-33" d="M 2597 2516 
Q 3050 2419 3304 2112 
Q 3559 1806 3559 1356 
Q 3559 666 3084 287 
Q 2609 -91 1734 -91 
Q 1441 -91 1130 -33 
Q 819 25 488 141 
L 488 750 
Q 750 597 1062 519 
Q 1375 441 1716 441 
Q 2309 441 2620 675 
Q 2931 909 2931 1356 
Q 2931 1769 2642 2001 
Q 2353 2234 1838 2234 
L 1294 2234 
L 1294 2753 
L 1863 2753 
Q 2328 2753 2575 2939 
Q 2822 3125 2822 3475 
Q 2822 3834 2567 4026 
Q 2313 4219 1838 4219 
Q 1578 4219 1281 4162 
Q 984 4106 628 3988 
L 628 4550 
Q 988 4650 1302 4700 
Q 1616 4750 1894 4750 
Q 2613 4750 3031 4423 
Q 3450 4097 3450 3541 
Q 3450 3153 3228 2886 
Q 3006 2619 2597 2516 
z
" transform="scale(0.015625)"/>
       </defs>
       <use xlink:href="#DejaVuSans-33"/>
       <use xlink:href="#DejaVuSans-30" x="63.623047"/>
       <use xlink:href="#DejaVuSans-30" x="127.246094"/>
      </g>
     </g>
    </g>
    <g id="text_8">
     <!-- Próbka -->
     <g transform="translate(458.030469 322.874687)scale(0.1 -0.1)">
      <defs>
       <path id="DejaVuSans-50" d="M 1259 4147 
L 1259 2394 
L 2053 2394 
Q 2494 2394 2734 2622 
Q 2975 2850 2975 3272 
Q 2975 3691 2734 3919 
Q 2494 4147 2053 4147 
L 1259 4147 
z
M 628 4666 
L 2053 4666 
Q 2838 4666 3239 4311 
Q 3641 3956 3641 3272 
Q 3641 2581 3239 2228 
Q 2838 1875 2053 1875 
L 1259 1875 
L 1259 0 
L 628 0 
L 628 4666 
z
" transform="scale(0.015625)"/>
       <path id="DejaVuSans-72" d="M 2631 2963 
Q 2534 3019 2420 3045 
Q 2306 3072 2169 3072 
Q 1681 3072 1420 2755 
Q 1159 2438 1159 1844 
L 1159 0 
L 581 0 
L 581 3500 
L 1159 3500 
L 1159 2956 
Q 1341 3275 1631 3429 
Q 1922 3584 2338 3584 
Q 2397 3584 2469 3576 
Q 2541 3569 2628 3553 
L 2631 2963 
z
" transform="scale(0.015625)"/>
       <path id="DejaVuSans-f3" d="M 1959 3097 
Q 1497 3097 1228 2736 
Q 959 2375 959 1747 
Q 959 1119 1226 758 
Q 1494 397 1959 397 
Q 2419 397 2687 759 
Q 2956 1122 2956 1747 
Q 2956 2369 2687 2733 
Q 2419 3097 1959 3097 
z
M 1959 3584 
Q 2709 3584 3137 3096 
Q 3566 2609 3566 1747 
Q 3566 888 3137 398 
Q 2709 -91 1959 -91 
Q 1206 -91 779 398 
Q 353 888 353 1747 
Q 353 2609 779 3096 
Q 1206 3584 1959 3584 
z
M 2394 5119 
L 3016 5119 
L 1998 3944 
L 1519 3944 
L 2394 5119 
z
" transform="scale(0.015625)"/>
       <path id="DejaVuSans-62" d="M 3116 1747 
Q 3116 2381 2855 2742 
Q 2594 3103 2138 3103 
Q 1681 3103 1420 2742 
Q 1159 2381 1159 1747 
Q 1159 1113 1420 752 
Q 1681 391 2138 391 
Q 2594 391 2855 752 
Q 3116 1113 3116 1747 
z
M 1159 2969 
Q 1341 3281 1617 3432 
Q 1894 3584 2278 3584 
Q 2916 3584 3314 3078 
Q 3713 2572 3713 1747 
Q 3713 922 3314 415 
Q 2916 -91 2278 -91 
Q 1894 -91 1617 61 
Q 1341 213 1159 525 
L 1159 0 
L 581 0 
L 581 4863 
L 1159 4863 
L 1159 2969 
z
" transform="scale(0.015625)"/>
       <path id="DejaVuSans-6b" d="M 581 4863 
L 1159 4863 
L 1159 1991 
L 2875 3500 
L 3609 3500 
L 1753 1863 
L 3688 0 
L 2938 0 
L 1159 1709 
L 1159 0 
L 581 0 
L 581 4863 
z
" transform="scale(0.015625)"/>
       <path id="DejaVuSans-61" d="M 2194 1759 
Q 1497 1759 1228 1600 
Q 959 1441 959 1056 
Q 959 750 1161 570 
Q 1363 391 1709 391 
Q 2188 391 2477 730 
Q 2766 1069 2766 1631 
L 2766 1759 
L 2194 1759 
z
M 3341 1997 
L 3341 0 
L 2766 0 
L 2766 531 
Q 2569 213 2275 61 
Q 1981 -91 1556 -91 
Q 1019 -91 701 211 
Q 384 513 384 1019 
Q 384 1609 779 1909 
Q 1175 2209 1959 2209 
L 2766 2209 
L 2766 2266 
Q 2766 2663 2505 2880 
Q 2244 3097 1772 3097 
Q 1472 3097 1187 3025 
Q 903 2953 641 2809 
L 641 3341 
Q 956 3463 1253 3523 
Q 1550 3584 1831 3584 
Q 2591 3584 2966 3190 
Q 3341 2797 3341 1997 
z
" transform="scale(0.015625)"/>
      </defs>
      <use xlink:href="#DejaVuSans-50"/>
      <use xlink:href="#DejaVuSans-72" x="58.552734"/>
      <use xlink:href="#DejaVuSans-f3" x="97.416016"/>
      <use xlink:href="#DejaVuSans-62" x="158.597656"/>
      <use xlink:href="#DejaVuSans-6b" x="222.074219"/>
      <use xlink:href="#DejaVuSans-61" x="278.234375"/>
     </g>
    </g>
   </g>
   <g id="matplotlib.axis_2">
    <g id="ytick_1">
     <g id="line2d_8">
      <defs>
       <path id="m499a9670a6" d="M 0 0 
L -3.5 0 
" style="stroke: #000000; stroke-width: 0.8"/>
      </defs>
      <g>
       <use xlink:href="#m499a9670a6" x="56.50625" y="282.30986" style="stroke: #000000; stroke-width: 0.8"/>
      </g>
     </g>
     <g id="text_9">
      <!-- 0.000 -->
      <g transform="translate(20.878125 286.109079)scale(0.1 -0.1)">
       <defs>
        <path id="DejaVuSans-2e" d="M 684 794 
L 1344 794 
L 1344 0 
L 684 0 
L 684 794 
z
" transform="scale(0.015625)"/>
       </defs>
       <use xlink:href="#DejaVuSans-30"/>
       <use xlink:href="#DejaVuSans-2e" x="63.623047"/>
       <use xlink:href="#DejaVuSans-30" x="95.410156"/>
       <use xlink:href="#DejaVuSans-30" x="159.033203"/>
       <use xlink:href="#DejaVuSans-30" x="222.65625"/>
      </g>
     </g>
    </g>
    <g id="ytick_2">
     <g id="line2d_9">
      <g>
       <use xlink:href="#m499a9670a6" x="56.50625" y="233.179682" style="stroke: #000000; stroke-width: 0.8"/>
      </g>
     </g>
     <g id="text_10">
      <!-- 0.005 -->
      <g transform="translate(20.878125 236.978901)scale(0.1 -0.1)">
       <use xlink:href="#DejaVuSans-30"/>
       <use xlink:href="#DejaVuSans-2e" x="63.623047"/>
       <use xlink:href="#DejaVuSans-30" x="95.410156"/>
       <use xlink:href="#DejaVuSans-30" x="159.033203"/>
       <use xlink:href="#DejaVuSans-35" x="222.65625"/>
      </g>
     </g>
    </g>
    <g id="ytick_3">
     <g id="line2d_10">
      <g>
       <use xlink:href="#m499a9670a6" x="56.50625" y="184.049504" style="stroke: #000000; stroke-width: 0.8"/>
      </g>
     </g>
     <g id="text_11">
      <!-- 0.010 -->
      <g transform="translate(20.878125 187.848723)scale(0.1 -0.1)">
       <use xlink:href="#DejaVuSans-30"/>
       <use xlink:href="#DejaVuSans-2e" x="63.623047"/>
       <use xlink:href="#DejaVuSans-30" x="95.410156"/>
       <use xlink:href="#DejaVuSans-31" x="159.033203"/>
       <use xlink:href="#DejaVuSans-30" x="222.65625"/>
      </g>
     </g>
    </g>
    <g id="ytick_4">
     <g id="line2d_11">
      <g>
       <use xlink:href="#m499a9670a6" x="56.50625" y="134.919326" style="stroke: #000000; stroke-width: 0.8"/>
      </g>
     </g>
     <g id="text_12">
      <!-- 0.015 -->
      <g transform="translate(20.878125 138.718545)scale(0.1 -0.1)">
       <use xlink:href="#DejaVuSans-30"/>
       <use xlink:href="#DejaVuSans-2e" x="63.623047"/>
       <use xlink:href="#DejaVuSans-30" x="95.410156"/>
       <use xlink:href="#DejaVuSans-31" x="159.033203"/>
       <use xlink:href="#DejaVuSans-35" x="222.65625"/>
      </g>
     </g>
    </g>
    <g id="ytick_5">
     <g id="line2d_12">
      <g>
       <use xlink:href="#m499a9670a6" x="56.50625" y="85.789148" style="stroke: #000000; stroke-width: 0.8"/>
      </g>
     </g>
     <g id="text_13">
      <!-- 0.020 -->
      <g transform="translate(20.878125 89.588367)scale(0.1 -0.1)">
       <use xlink:href="#DejaVuSans-30"/>
       <use xlink:href="#DejaVuSans-2e" x="63.623047"/>
       <use xlink:href="#DejaVuSans-30" x="95.410156"/>
       <use xlink:href="#DejaVuSans-32" x="159.033203"/>
       <use xlink:href="#DejaVuSans-30" x="222.65625"/>
      </g>
     </g>
    </g>
    <g id="ytick_6">
     <g id="line2d_13">
      <g>
       <use xlink:href="#m499a9670a6" x="56.50625" y="36.65897" style="stroke: #000000; stroke-width: 0.8"/>
      </g>
     </g>
     <g id="text_14">
      <!-- 0.025 -->
      <g transform="translate(20.878125 40.458189)scale(0.1 -0.1)">
       <use xlink:href="#DejaVuSans-30"/>
       <use xlink:href="#DejaVuSans-2e" x="63.623047"/>
       <use xlink:href="#DejaVuSans-30" x="95.410156"/>
       <use xlink:href="#DejaVuSans-32" x="159.033203"/>
       <use xlink:href="#DejaVuSans-35" x="222.65625"/>
      </g>
     </g>
    </g>
    <g id="text_15">
     <!-- Wartość -->
     <g transform="translate(14.798438 178.816094)rotate(-90)scale(0.1 -0.1)">
      <defs>
       <path id="DejaVuSans-57" d="M 213 4666 
L 850 4666 
L 1831 722 
L 2809 4666 
L 3519 4666 
L 4500 722 
L 5478 4666 
L 6119 4666 
L 4947 0 
L 4153 0 
L 3169 4050 
L 2175 0 
L 1381 0 
L 213 4666 
z
" transform="scale(0.015625)"/>
       <path id="DejaVuSans-74" d="M 1172 4494 
L 1172 3500 
L 2356 3500 
L 2356 3053 
L 1172 3053 
L 1172 1153 
Q 1172 725 1289 603 
Q 1406 481 1766 481 
L 2356 481 
L 2356 0 
L 1766 0 
Q 1100 0 847 248 
Q 594 497 594 1153 
L 594 3053 
L 172 3053 
L 172 3500 
L 594 3500 
L 594 4494 
L 1172 4494 
z
" transform="scale(0.015625)"/>
       <path id="DejaVuSans-6f" d="M 1959 3097 
Q 1497 3097 1228 2736 
Q 959 2375 959 1747 
Q 959 1119 1226 758 
Q 1494 397 1959 397 
Q 2419 397 2687 759 
Q 2956 1122 2956 1747 
Q 2956 2369 2687 2733 
Q 2419 3097 1959 3097 
z
M 1959 3584 
Q 2709 3584 3137 3096 
Q 3566 2609 3566 1747 
Q 3566 888 3137 398 
Q 2709 -91 1959 -91 
Q 1206 -91 779 398 
Q 353 888 353 1747 
Q 353 2609 779 3096 
Q 1206 3584 1959 3584 
z
" transform="scale(0.015625)"/>
       <path id="DejaVuSans-15b" d="M 2242 5119 
L 2864 5119 
L 1846 3944 
L 1367 3944 
L 2242 5119 
z
M 2834 3397 
L 2834 2853 
Q 2591 2978 2328 3040 
Q 2066 3103 1784 3103 
Q 1356 3103 1142 2972 
Q 928 2841 928 2578 
Q 928 2378 1081 2264 
Q 1234 2150 1697 2047 
L 1894 2003 
Q 2506 1872 2764 1633 
Q 3022 1394 3022 966 
Q 3022 478 2636 193 
Q 2250 -91 1575 -91 
Q 1294 -91 989 -36 
Q 684 19 347 128 
L 347 722 
Q 666 556 975 473 
Q 1284 391 1588 391 
Q 1994 391 2212 530 
Q 2431 669 2431 922 
Q 2431 1156 2273 1281 
Q 2116 1406 1581 1522 
L 1381 1569 
Q 847 1681 609 1914 
Q 372 2147 372 2553 
Q 372 3047 722 3315 
Q 1072 3584 1716 3584 
Q 2034 3584 2315 3537 
Q 2597 3491 2834 3397 
z
" transform="scale(0.015625)"/>
       <path id="DejaVuSans-107" d="M 3122 3366 
L 3122 2828 
Q 2878 2963 2633 3030 
Q 2388 3097 2138 3097 
Q 1578 3097 1268 2742 
Q 959 2388 959 1747 
Q 959 1106 1268 751 
Q 1578 397 2138 397 
Q 2388 397 2633 464 
Q 2878 531 3122 666 
L 3122 134 
Q 2881 22 2623 -34 
Q 2366 -91 2075 -91 
Q 1284 -91 818 406 
Q 353 903 353 1747 
Q 353 2603 823 3093 
Q 1294 3584 2113 3584 
Q 2378 3584 2631 3529 
Q 2884 3475 3122 3366 
z
M 2466 5119 
L 3088 5119 
L 2070 3944 
L 1591 3944 
L 2466 5119 
z
" transform="scale(0.015625)"/>
      </defs>
      <use xlink:href="#DejaVuSans-57"/>
      <use xlink:href="#DejaVuSans-61" x="92.501953"/>
      <use xlink:href="#DejaVuSans-72" x="153.78125"/>
      <use xlink:href="#DejaVuSans-74" x="194.894531"/>
      <use xlink:href="#DejaVuSans-6f" x="234.103516"/>
      <use xlink:href="#DejaVuSans-15b" x="295.285156"/>
      <use xlink:href="#DejaVuSans-107" x="347.384766"/>
     </g>
    </g>
   </g>
   <g id="line2d_14">
    <path d="M 94.551705 282.16722 
L 99.641397 282.21345 
L 104.73109 281.887514 
L 107.275937 282.194684 
L 114.910476 282.203067 
L 117.455323 282.236076 
L 120.000169 282.072325 
L 122.545016 282.217587 
L 130.179555 282.101561 
L 132.724401 281.976243 
L 135.269248 282.099539 
L 137.814094 282.049569 
L 140.358941 281.837535 
L 142.903787 282.097436 
L 147.99348 282.195709 
L 153.083173 282.060907 
L 155.62802 281.931446 
L 160.717712 281.820378 
L 163.262559 282.127117 
L 168.352252 282.081286 
L 170.897098 282.157342 
L 173.441945 282.027317 
L 175.986791 282.176138 
L 178.531638 282.089712 
L 181.076484 282.169262 
L 183.621331 281.91053 
L 191.25587 282.0719 
L 196.345563 281.954829 
L 201.435256 282.044136 
L 203.980102 281.967559 
L 206.524949 282.141628 
L 209.069795 281.91306 
L 211.614642 282.128535 
L 216.704335 281.809661 
L 219.249181 281.780162 
L 221.794027 281.528492 
L 229.428567 282.016848 
L 237.063106 282.138699 
L 239.607953 281.9653 
L 242.152799 282.026916 
L 244.697646 281.769902 
L 247.242492 282.093029 
L 252.332185 281.93608 
L 257.421878 281.877337 
L 262.511571 282.135222 
L 265.056417 281.9916 
L 275.235803 282.075082 
L 277.78065 281.994321 
L 280.325496 282.071151 
L 282.870342 281.885456 
L 285.415189 281.885565 
L 287.960035 282.099803 
L 293.049728 282.099783 
L 300.684268 282.228503 
L 303.229114 282.136167 
L 310.863653 282.221135 
L 336.312118 282.11624 
L 338.856965 282.237334 
L 354.126043 282.204053 
L 356.67089 282.198077 
L 359.215736 282.058282 
L 361.760583 282.198701 
L 379.574508 282.014343 
L 382.119354 282.187013 
L 387.209047 282.082039 
L 389.753894 282.180395 
L 392.29874 282.121972 
L 394.843587 282.200577 
L 397.388433 282.064105 
L 399.933279 282.221523 
L 415.202358 282.24358 
L 417.747205 282.137365 
L 420.292051 282.181274 
L 422.836898 281.899139 
L 425.381744 282.179292 
L 430.471437 282.103199 
L 433.016283 281.730196 
L 440.650823 282.224387 
L 450.830209 282.141118 
L 455.919902 282.210023 
L 458.464748 282.066854 
L 461.009594 282.1971 
L 471.18898 282.154394 
L 496.637445 282.125044 
L 499.182291 281.947554 
L 501.727138 281.998157 
L 504.271984 281.929859 
L 506.816831 282.113698 
L 509.361677 282.000531 
L 514.45137 281.984508 
L 516.996217 281.900415 
L 519.541063 282.020232 
L 522.085909 281.79208 
L 524.630756 282.126483 
L 527.175602 282.141222 
L 529.720449 281.959732 
L 532.265295 282.09964 
L 534.810142 281.828801 
L 537.354988 282.101321 
L 539.899835 281.874141 
L 542.444681 282.063364 
L 544.989528 281.866067 
L 547.534374 281.875624 
L 552.624067 282.09738 
L 555.168913 281.834167 
L 557.71376 282.132553 
L 560.258606 281.728661 
L 562.803453 281.853443 
L 565.348299 282.128567 
L 567.893146 281.999617 
L 570.437992 282.116468 
L 572.982839 281.989416 
L 575.527685 282.149875 
L 578.072532 281.937957 
L 580.617378 282.101598 
L 583.162224 281.945969 
L 585.707071 282.114207 
L 588.251917 281.957729 
L 590.796764 281.914969 
L 593.34161 282.156719 
L 595.886457 281.874897 
L 600.97615 282.014367 
L 603.520996 281.775642 
L 606.065843 281.659827 
L 611.155535 282.02352 
L 613.700382 281.804668 
L 618.790075 282.155952 
L 626.424614 281.65991 
L 628.969461 282.103271 
L 631.514307 281.867548 
L 634.059154 281.995442 
L 636.604 281.88355 
L 639.148847 281.997585 
L 641.693693 281.371003 
L 644.238539 281.824291 
L 646.783386 281.906322 
L 649.328232 282.144602 
L 651.873079 282.070619 
L 654.417925 282.157967 
L 656.962772 282.028491 
L 659.507618 282.121232 
L 662.052465 281.943363 
L 664.597311 282.147928 
L 667.142158 281.994922 
L 669.687004 282.165694 
L 672.23185 281.876043 
L 674.776697 281.983858 
L 677.321543 281.822917 
L 679.86639 282.163368 
L 682.411236 281.86731 
L 687.500929 282.095555 
L 700.225162 281.894412 
L 702.770008 282.019865 
L 705.314854 281.87026 
L 710.404547 282.087394 
L 712.949394 281.9759 
L 715.49424 281.98842 
L 718.039087 281.832486 
L 720.583933 282.090246 
L 723.12878 282.159182 
L 725.673626 281.904276 
L 728.218473 282.110419 
L 735.853012 282.058223 
L 738.397858 282.188151 
L 746.032398 281.9634 
L 753.666937 282.082303 
L 756.211784 282.131073 
L 758.75663 281.826984 
L 761.301477 281.816362 
L 763.846323 282.180391 
L 768.936016 282.116229 
L 771.480862 281.866076 
L 774.025709 282.021076 
L 776.570555 282.007816 
L 779.115402 281.880863 
L 781.660248 282.050638 
L 789.294788 281.870967 
L 791.839634 282.055438 
L 799.474173 282.027798 
L 802.01902 281.7142 
L 804.563866 282.057904 
L 809.653559 282.122141 
L 812.198406 282.172742 
L 817.288099 281.934289 
L 819.832945 282.068216 
L 822.377792 281.921288 
L 824.922638 282.113502 
L 827.467484 281.96566 
L 830.012331 282.07797 
L 832.557177 281.580089 
L 835.102024 282.162935 
L 840.191717 281.876547 
L 847.826256 282.091222 
L 850.371103 281.886867 
L 852.915949 281.869589 
L 855.460795 282.075484 
L 855.460795 282.075484 
" clip-path="url(#pbe5c137a7b)" style="fill: none; stroke: #ff00ff; stroke-width: 0.9; stroke-linecap: square"/>
   </g>
   <g id="line2d_15">
    <path d="M 94.551705 279.512014 
L 97.096551 278.941236 
L 99.641397 279.922671 
L 102.186244 278.500725 
L 104.73109 276.246825 
L 107.275937 280.681024 
L 109.820783 280.267092 
L 112.36563 278.726544 
L 114.910476 280.555809 
L 117.455323 281.331858 
L 120.000169 277.188574 
L 122.545016 280.214386 
L 125.089862 279.8034 
L 127.634708 281.282512 
L 130.179555 275.528816 
L 132.724401 274.983121 
L 135.269248 277.98106 
L 137.814094 275.888605 
L 140.358941 270.995539 
L 142.903787 279.239372 
L 145.448634 279.130262 
L 147.99348 279.654936 
L 150.538327 279.768102 
L 153.083173 277.03832 
L 155.62802 273.302653 
L 158.172866 272.354737 
L 160.717712 269.8719 
L 163.262559 276.629176 
L 165.807405 276.671353 
L 168.352252 277.210653 
L 170.897098 278.000412 
L 173.441945 276.268958 
L 175.986791 280.274119 
L 178.531638 278.201014 
L 181.076484 278.969316 
L 183.621331 272.429555 
L 186.166177 276.354049 
L 191.25587 276.942273 
L 193.800716 274.614917 
L 196.345563 273.004051 
L 198.890409 276.940075 
L 203.980102 274.062436 
L 206.524949 276.71372 
L 209.069795 273.483941 
L 211.614642 278.755938 
L 214.159488 275.279053 
L 216.704335 270.31774 
L 219.249181 269.247573 
L 221.794027 265.427049 
L 224.338874 266.676352 
L 226.88372 275.616682 
L 229.428567 274.990574 
L 231.973413 277.317492 
L 234.51826 275.836928 
L 237.063106 277.164456 
L 239.607953 274.446672 
L 242.152799 275.632648 
L 244.697646 271.014097 
L 247.242492 276.053693 
L 249.787338 270.695669 
L 252.332185 272.335197 
L 254.877031 269.738111 
L 257.421878 272.948602 
L 259.966724 278.397449 
L 262.511571 278.160999 
L 265.056417 276.158291 
L 267.601264 275.876264 
L 270.14611 274.06078 
L 272.690957 276.850483 
L 275.235803 277.740923 
L 277.78065 274.290971 
L 280.325496 277.595781 
L 282.870342 273.37167 
L 285.415189 271.589764 
L 287.960035 276.497619 
L 290.504882 274.274682 
L 293.049728 273.087699 
L 295.594575 278.239192 
L 298.139421 280.960104 
L 300.684268 280.502863 
L 303.229114 278.643886 
L 305.773961 280.583073 
L 308.318807 280.345338 
L 310.863653 281.510519 
L 313.4085 280.203581 
L 315.953346 280.79386 
L 318.498193 280.958009 
L 321.043039 277.784477 
L 323.587886 278.414736 
L 326.132732 280.567892 
L 328.677579 279.133645 
L 331.222425 280.384246 
L 333.767272 279.82447 
L 336.312118 279.852492 
L 338.856965 280.73503 
L 341.401811 280.563 
L 343.946657 280.753796 
L 346.491504 281.231588 
L 349.03635 278.789091 
L 351.581197 280.580759 
L 356.67089 278.955342 
L 359.215736 277.554096 
L 361.760583 278.152764 
L 364.305429 279.880751 
L 366.850276 281.165737 
L 369.395122 279.394845 
L 371.939968 275.577232 
L 374.484815 280.927658 
L 377.029661 279.177251 
L 379.574508 277.706182 
L 382.119354 280.205601 
L 384.664201 278.97857 
L 387.209047 277.613826 
L 389.753894 279.300252 
L 394.843587 279.623966 
L 397.388433 276.467738 
L 399.933279 281.127892 
L 402.478126 280.972343 
L 405.022972 280.035784 
L 407.567819 277.560185 
L 410.112665 280.814261 
L 412.657512 278.550725 
L 415.202358 280.511472 
L 417.747205 279.173056 
L 420.292051 279.19252 
L 422.836898 274.099525 
L 425.381744 279.864244 
L 427.926591 278.429805 
L 430.471437 279.204475 
L 433.016283 271.215501 
L 435.56113 274.148668 
L 438.105976 280.27318 
L 440.650823 280.56976 
L 443.195669 280.161994 
L 445.740516 281.063716 
L 448.285362 280.177126 
L 450.830209 278.22435 
L 453.375055 279.951493 
L 455.919902 280.803207 
L 458.464748 276.169921 
L 461.009594 280.288755 
L 463.554441 279.288401 
L 466.099287 279.093502 
L 473.733827 279.022646 
L 476.278673 278.061453 
L 478.82352 277.278414 
L 481.368366 280.199143 
L 483.913213 281.447559 
L 486.458059 280.694318 
L 489.002906 276.759768 
L 491.547752 280.48211 
L 494.092598 276.797757 
L 496.637445 279.933101 
L 499.182291 275.548654 
L 501.727138 276.744618 
L 504.271984 271.71601 
L 506.816831 278.174735 
L 509.361677 275.778351 
L 511.906524 276.876396 
L 514.45137 277.110567 
L 516.996217 276.088587 
L 519.541063 277.686003 
L 522.085909 273.457069 
L 524.630756 278.324512 
L 527.175602 280.214043 
L 529.720449 276.560476 
L 532.265295 277.865029 
L 534.810142 272.49801 
L 537.354988 279.705292 
L 539.899835 271.950183 
L 542.444681 277.499842 
L 544.989528 273.161214 
L 547.534374 276.842682 
L 550.079221 277.154172 
L 552.624067 278.629169 
L 555.168913 271.759938 
L 557.71376 279.34542 
L 560.258606 269.925857 
L 562.803453 272.15165 
L 565.348299 278.822908 
L 567.893146 273.522991 
L 570.437992 279.172787 
L 572.982839 276.488387 
L 575.527685 277.939888 
L 578.072532 276.016359 
L 580.617378 278.094052 
L 583.162224 272.563556 
L 585.707071 278.691607 
L 588.251917 277.031569 
L 590.796764 274.663294 
L 593.34161 279.14433 
L 595.886457 275.043709 
L 598.431303 272.640893 
L 600.97615 275.329493 
L 603.520996 272.154288 
L 606.065843 267.850723 
L 608.610689 273.237469 
L 611.155535 276.709539 
L 613.700382 273.651305 
L 616.245228 276.596233 
L 618.790075 279.217019 
L 621.334921 275.826044 
L 623.879768 272.880167 
L 626.424614 267.755281 
L 628.969461 277.427366 
L 631.514307 271.994444 
L 634.059154 276.317882 
L 636.604 274.041967 
L 639.148847 275.996529 
L 641.693693 265.011746 
L 644.238539 270.689535 
L 646.783386 269.198063 
L 649.328232 279.127562 
L 651.873079 278.301191 
L 654.417925 278.789658 
L 656.962772 275.146312 
L 659.507618 279.494308 
L 662.052465 276.18892 
L 664.597311 278.454273 
L 667.142158 274.04714 
L 669.687004 278.668873 
L 672.23185 273.427862 
L 674.776697 276.266073 
L 677.321543 273.203535 
L 679.86639 280.123193 
L 682.411236 274.619394 
L 684.956083 278.400467 
L 687.500929 276.669128 
L 690.045776 275.920443 
L 692.590622 277.880869 
L 695.135469 275.496717 
L 697.680315 275.196951 
L 700.225162 271.506444 
L 702.770008 277.581478 
L 705.314854 272.314328 
L 707.859701 275.887397 
L 710.404547 277.273986 
L 712.949394 278.364655 
L 715.49424 274.712435 
L 718.039087 274.967313 
L 720.583933 276.408747 
L 723.12878 280.436848 
L 725.673626 274.518604 
L 728.218473 279.180935 
L 730.763319 277.483848 
L 733.308165 277.103789 
L 735.853012 276.11336 
L 738.397858 280.767066 
L 740.942705 278.136396 
L 743.487551 278.200592 
L 746.032398 276.386827 
L 748.577244 276.870909 
L 751.122091 277.618893 
L 753.666937 278.2006 
L 756.211784 279.127788 
L 758.75663 274.473323 
L 761.301477 273.388116 
L 763.846323 280.520496 
L 766.391169 278.868621 
L 768.936016 278.610207 
L 771.480862 272.59034 
L 774.025709 275.221137 
L 776.570555 276.96071 
L 779.115402 273.643234 
L 781.660248 277.243182 
L 784.205095 274.539998 
L 786.749941 277.285804 
L 789.294788 271.427909 
L 791.839634 278.457635 
L 794.38448 276.631516 
L 796.929327 276.641107 
L 799.474173 275.11942 
L 802.01902 268.927579 
L 804.563866 276.718437 
L 807.108713 275.679095 
L 809.653559 278.414455 
L 812.198406 279.171739 
L 814.743252 276.843547 
L 817.288099 273.394239 
L 819.832945 277.812096 
L 822.377792 275.038713 
L 824.922638 278.936209 
L 827.467484 276.157507 
L 830.012331 277.525861 
L 832.557177 264.390008 
L 835.102024 280.124759 
L 840.191717 272.343778 
L 842.736563 272.910027 
L 845.28141 276.7982 
L 847.826256 278.880557 
L 850.371103 274.226275 
L 852.915949 274.803942 
L 855.460795 277.423157 
L 855.460795 277.423157 
" clip-path="url(#pbe5c137a7b)" style="fill: none; stroke: #9400d3; stroke-width: 0.9; stroke-linecap: square"/>
   </g>
   <g id="line2d_16">
    <path d="M 94.551705 280.05444 
L 97.096551 277.522833 
L 99.641397 280.040463 
L 102.186244 276.99502 
L 104.73109 278.450864 
L 107.275937 280.630475 
L 109.820783 280.805472 
L 112.36563 278.49792 
L 114.910476 281.352703 
L 117.455323 281.27018 
L 120.000169 278.550839 
L 122.545016 279.790229 
L 125.089862 279.419173 
L 127.634708 281.507791 
L 130.179555 274.392424 
L 135.269248 277.8771 
L 137.814094 275.36321 
L 140.358941 270.737664 
L 142.903787 280.063373 
L 145.448634 278.978984 
L 147.99348 279.408719 
L 150.538327 278.74849 
L 153.083173 277.05579 
L 155.62802 272.73064 
L 158.172866 271.460851 
L 160.717712 269.307845 
L 163.262559 275.664107 
L 165.807405 275.911197 
L 168.352252 276.788535 
L 170.897098 277.160441 
L 173.441945 274.81185 
L 175.986791 280.464895 
L 178.531638 276.536068 
L 181.076484 279.385658 
L 183.621331 271.409025 
L 186.166177 277.495991 
L 188.711023 276.448818 
L 191.25587 278.013436 
L 193.800716 274.189129 
L 196.345563 271.854605 
L 198.890409 277.254292 
L 201.435256 275.243576 
L 203.980102 273.979127 
L 209.069795 272.848978 
L 211.614642 278.619264 
L 214.159488 274.872385 
L 216.704335 269.42178 
L 219.249181 268.749571 
L 221.794027 263.611499 
L 224.338874 266.874365 
L 226.88372 276.028198 
L 229.428567 274.80828 
L 231.973413 276.270488 
L 234.51826 274.289805 
L 237.063106 276.203843 
L 239.607953 273.398237 
L 242.152799 275.896901 
L 244.697646 270.234189 
L 247.242492 275.959189 
L 249.787338 265.85476 
L 252.332185 272.525923 
L 254.877031 268.521624 
L 257.421878 272.904836 
L 259.966724 278.38519 
L 262.511571 278.020637 
L 265.056417 277.511158 
L 267.601264 273.996765 
L 270.14611 274.785036 
L 272.690957 276.504345 
L 275.235803 278.543003 
L 277.78065 273.390157 
L 280.325496 279.031726 
L 282.870342 272.947989 
L 285.415189 271.936084 
L 287.960035 274.510555 
L 293.049728 270.897275 
L 295.594575 278.687833 
L 298.139421 281.11261 
L 300.684268 280.793861 
L 303.229114 278.789933 
L 305.773961 280.428917 
L 308.318807 280.496639 
L 310.863653 281.31231 
L 313.4085 280.182716 
L 315.953346 280.057193 
L 318.498193 281.124663 
L 321.043039 277.668619 
L 323.587886 278.274206 
L 326.132732 280.805169 
L 328.677579 278.049106 
L 331.222425 280.597363 
L 333.767272 280.316526 
L 336.312118 280.201179 
L 338.856965 279.724348 
L 341.401811 279.072071 
L 343.946657 280.526297 
L 346.491504 281.117956 
L 349.03635 277.859686 
L 351.581197 280.649186 
L 354.126043 279.711031 
L 356.67089 278.220249 
L 359.215736 278.600183 
L 361.760583 276.25784 
L 364.305429 280.510212 
L 366.850276 281.032964 
L 369.395122 279.949682 
L 371.939968 276.924289 
L 374.484815 281.491695 
L 377.029661 279.974457 
L 379.574508 279.236107 
L 382.119354 280.051756 
L 384.664201 279.985141 
L 387.209047 277.985574 
L 389.753894 280.893387 
L 392.29874 279.887471 
L 394.843587 279.515137 
L 397.388433 276.175492 
L 399.933279 281.796671 
L 402.478126 280.980534 
L 405.022972 280.791435 
L 407.567819 277.829991 
L 410.112665 281.420082 
L 412.657512 279.733344 
L 415.202358 279.847603 
L 417.747205 279.524533 
L 420.292051 279.518806 
L 422.836898 275.414639 
L 425.381744 280.640354 
L 427.926591 277.942502 
L 430.471437 279.164106 
L 433.016283 274.852559 
L 435.56113 276.330346 
L 438.105976 280.642084 
L 440.650823 280.988519 
L 443.195669 280.158338 
L 445.740516 281.135244 
L 448.285362 280.32384 
L 450.830209 276.170016 
L 453.375055 279.887008 
L 455.919902 280.970751 
L 458.464748 277.48367 
L 461.009594 279.610814 
L 463.554441 279.074293 
L 466.099287 278.175413 
L 468.644134 279.777727 
L 471.18898 278.664579 
L 473.733827 279.558525 
L 476.278673 279.289732 
L 478.82352 278.344338 
L 481.368366 279.668521 
L 483.913213 281.876552 
L 486.458059 281.404231 
L 489.002906 277.473197 
L 491.547752 280.219691 
L 494.092598 275.30755 
L 496.637445 280.023042 
L 499.182291 275.921036 
L 501.727138 278.10838 
L 504.271984 270.075201 
L 506.816831 278.853072 
L 509.361677 276.329122 
L 511.906524 277.751886 
L 514.45137 277.756533 
L 519.541063 278.768531 
L 522.085909 275.165978 
L 524.630756 279.589397 
L 527.175602 280.956482 
L 529.720449 277.128597 
L 532.265295 279.061087 
L 534.810142 273.413088 
L 537.354988 281.146698 
L 539.899835 272.187463 
L 542.444681 278.454505 
L 544.989528 273.782321 
L 547.534374 278.693314 
L 550.079221 277.386462 
L 552.624067 279.195652 
L 555.168913 274.179246 
L 557.71376 280.060808 
L 560.258606 272.189665 
L 562.803453 271.214068 
L 565.348299 279.129842 
L 567.893146 271.210053 
L 570.437992 280.180264 
L 572.982839 276.863973 
L 575.527685 278.109566 
L 578.072532 277.4215 
L 580.617378 279.325043 
L 583.162224 271.185134 
L 585.707071 279.40083 
L 588.251917 277.822669 
L 590.796764 274.43678 
L 593.34161 278.827038 
L 595.886457 276.676017 
L 598.431303 273.11357 
L 600.97615 275.938841 
L 603.520996 274.122663 
L 606.065843 271.097043 
L 608.610689 275.079547 
L 611.155535 278.092941 
L 613.700382 276.199746 
L 616.245228 277.733047 
L 618.790075 279.823913 
L 621.334921 276.586061 
L 623.879768 273.819896 
L 626.424614 267.664166 
L 628.969461 277.473313 
L 631.514307 271.937412 
L 634.059154 277.322441 
L 636.604 274.978285 
L 639.148847 276.254754 
L 641.693693 268.979236 
L 644.238539 271.178781 
L 646.783386 268.307303 
L 649.328232 279.417427 
L 651.873079 279.291605 
L 654.417925 279.957612 
L 656.962772 273.809052 
L 659.507618 280.392989 
L 662.052465 277.539703 
L 664.597311 278.954114 
L 667.142158 273.986234 
L 669.687004 279.166618 
L 672.23185 274.890589 
L 674.776697 277.545518 
L 677.321543 274.843637 
L 679.86639 280.950982 
L 682.411236 275.169931 
L 684.956083 279.788326 
L 687.500929 276.515641 
L 690.045776 275.591324 
L 692.590622 277.898903 
L 695.135469 276.859756 
L 697.680315 275.392923 
L 700.225162 271.549051 
L 702.770008 277.744454 
L 705.314854 273.327472 
L 707.859701 276.968754 
L 710.404547 276.857492 
L 712.949394 279.631898 
L 715.49424 274.096226 
L 718.039087 277.642594 
L 720.583933 276.77718 
L 723.12878 280.8017 
L 725.673626 275.711785 
L 728.218473 280.136212 
L 730.763319 278.125903 
L 733.308165 278.662976 
L 735.853012 277.550019 
L 738.397858 281.428813 
L 740.942705 279.381602 
L 743.487551 279.562245 
L 746.032398 276.549872 
L 748.577244 278.706778 
L 751.122091 278.731971 
L 753.666937 279.572287 
L 756.211784 278.684239 
L 758.75663 276.486725 
L 761.301477 273.757064 
L 763.846323 281.21964 
L 766.391169 279.81848 
L 768.936016 279.013785 
L 771.480862 274.472784 
L 774.025709 276.475375 
L 776.570555 278.913485 
L 779.115402 275.381526 
L 781.660248 278.29946 
L 784.205095 274.839525 
L 786.749941 278.332094 
L 789.294788 270.90042 
L 791.839634 279.907713 
L 794.38448 277.610041 
L 796.929327 276.555162 
L 799.474173 276.049061 
L 802.01902 271.295125 
L 804.563866 277.684666 
L 807.108713 276.174228 
L 809.653559 278.749699 
L 812.198406 279.385611 
L 814.743252 278.183453 
L 817.288099 273.373222 
L 819.832945 279.270474 
L 822.377792 275.526644 
L 824.922638 280.095294 
L 827.467484 277.726435 
L 830.012331 277.670526 
L 832.557177 263.145144 
L 835.102024 280.775158 
L 837.64687 277.327367 
L 840.191717 271.91408 
L 842.736563 273.322641 
L 847.826256 279.824097 
L 850.371103 274.241814 
L 852.915949 277.453153 
L 855.460795 276.661284 
L 855.460795 276.661284 
" clip-path="url(#pbe5c137a7b)" style="fill: none; stroke: #00ffff; stroke-width: 0.9; stroke-linecap: square"/>
   </g>
   <g id="line2d_17">
    <path d="M 94.551705 280.39474 
L 97.096551 276.355979 
L 99.641397 280.624364 
L 102.186244 272.783643 
L 104.73109 280.063039 
L 107.275937 279.831619 
L 109.820783 281.223708 
L 112.36563 279.016006 
L 114.910476 281.874968 
L 117.455323 281.436419 
L 120.000169 279.314393 
L 122.545016 279.947517 
L 125.089862 279.101602 
L 127.634708 281.474778 
L 130.179555 273.916946 
L 132.724401 277.931345 
L 135.269248 277.109617 
L 137.814094 275.696663 
L 140.358941 272.754747 
L 142.903787 280.823949 
L 145.448634 279.331784 
L 147.99348 279.512596 
L 150.538327 278.126992 
L 153.083173 277.724327 
L 155.62802 272.32748 
L 158.172866 271.937013 
L 160.717712 270.748606 
L 163.262559 276.346088 
L 165.807405 274.765452 
L 168.352252 276.512286 
L 170.897098 277.286026 
L 173.441945 271.671035 
L 175.986791 280.993011 
L 178.531638 273.531709 
L 181.076484 280.143707 
L 183.621331 271.680682 
L 186.166177 278.673105 
L 188.711023 277.16068 
L 191.25587 279.574509 
L 193.800716 275.711438 
L 196.345563 272.993153 
L 198.890409 278.538771 
L 201.435256 276.440035 
L 203.980102 275.867594 
L 206.524949 269.837021 
L 209.069795 272.827585 
L 211.614642 277.113238 
L 214.159488 275.442315 
L 216.704335 270.453377 
L 219.249181 269.894492 
L 221.794027 264.324812 
L 224.338874 269.545906 
L 226.88372 277.527935 
L 229.428567 276.188283 
L 231.973413 275.669792 
L 234.51826 273.283672 
L 237.063106 276.805516 
L 239.607953 274.063104 
L 242.152799 277.631143 
L 244.697646 270.745515 
L 247.242492 275.685692 
L 249.787338 261.731334 
L 252.332185 273.118497 
L 254.877031 269.624865 
L 257.421878 274.420731 
L 259.966724 278.973002 
L 262.511571 277.366656 
L 265.056417 279.249995 
L 267.601264 273.46509 
L 270.14611 276.918861 
L 272.690957 276.511804 
L 275.235803 280.082652 
L 277.78065 273.809403 
L 280.325496 280.456196 
L 282.870342 273.997302 
L 285.415189 273.468822 
L 287.960035 273.868871 
L 290.504882 270.967543 
L 293.049728 271.310611 
L 295.594575 279.056191 
L 298.139421 281.24306 
L 300.684268 280.867157 
L 303.229114 278.482909 
L 305.773961 280.33526 
L 308.318807 280.936498 
L 310.863653 281.06093 
L 313.4085 279.940075 
L 315.953346 279.504196 
L 318.498193 281.493186 
L 321.043039 278.06358 
L 323.587886 278.235494 
L 326.132732 281.294948 
L 328.677579 276.31271 
L 331.222425 280.932409 
L 333.767272 279.295733 
L 336.312118 280.308464 
L 338.856965 279.019579 
L 341.401811 276.062545 
L 343.946657 279.128469 
L 346.491504 281.021899 
L 349.03635 278.682192 
L 351.581197 280.126456 
L 354.126043 280.307691 
L 356.67089 276.638163 
L 359.215736 279.834315 
L 361.760583 275.374656 
L 364.305429 280.777709 
L 366.850276 280.894252 
L 369.395122 280.511941 
L 371.939968 278.361359 
L 374.484815 281.697375 
L 377.029661 280.519455 
L 382.119354 280.020982 
L 384.664201 280.989345 
L 387.209047 278.519888 
L 389.753894 281.63474 
L 392.29874 280.110481 
L 394.843587 280.10455 
L 397.388433 276.48482 
L 399.933279 282.092631 
L 402.478126 281.147677 
L 405.022972 281.293873 
L 407.567819 278.583337 
L 410.112665 281.711706 
L 412.657512 280.68964 
L 415.202358 279.195822 
L 417.747205 279.57752 
L 420.292051 280.236514 
L 422.836898 276.115037 
L 425.381744 281.308749 
L 427.926591 277.960587 
L 430.471437 279.259571 
L 433.016283 277.803369 
L 435.56113 277.750865 
L 438.105976 281.152437 
L 440.650823 281.534871 
L 443.195669 280.436192 
L 445.740516 281.402516 
L 448.285362 280.720385 
L 450.830209 274.923948 
L 453.375055 280.400617 
L 455.919902 281.369227 
L 458.464748 279.122442 
L 461.009594 279.047377 
L 463.554441 279.267916 
L 466.099287 277.67931 
L 468.644134 280.680641 
L 471.18898 278.499543 
L 473.733827 280.268717 
L 476.278673 280.324787 
L 478.82352 279.43785 
L 481.368366 279.854479 
L 483.913213 281.992052 
L 486.458059 281.714542 
L 489.002906 278.743718 
L 491.547752 280.630501 
L 494.092598 271.466689 
L 496.637445 280.282467 
L 499.182291 276.999707 
L 501.727138 279.628036 
L 504.271984 269.521612 
L 506.816831 279.820909 
L 509.361677 277.435995 
L 511.906524 278.920664 
L 514.45137 278.037772 
L 516.996217 279.770757 
L 519.541063 279.647121 
L 522.085909 277.022432 
L 524.630756 280.632326 
L 527.175602 281.469415 
L 529.720449 278.326903 
L 532.265295 279.805567 
L 534.810142 275.188263 
L 537.354988 281.714434 
L 539.899835 273.507348 
L 542.444681 279.288964 
L 544.989528 274.384252 
L 547.534374 280.20859 
L 550.079221 278.067464 
L 552.624067 279.917877 
L 555.168913 276.184926 
L 557.71376 280.765706 
L 560.258606 275.721987 
L 562.803453 271.31438 
L 565.348299 279.704212 
L 567.893146 269.946968 
L 570.437992 281.014625 
L 572.982839 277.365849 
L 575.527685 279.191012 
L 578.072532 279.444565 
L 580.617378 280.352691 
L 583.162224 270.781708 
L 585.707071 280.184169 
L 588.251917 278.454668 
L 590.796764 275.318347 
L 593.34161 278.753917 
L 595.886457 278.314177 
L 598.431303 274.127028 
L 600.97615 277.142428 
L 603.520996 275.743212 
L 606.065843 274.098242 
L 608.610689 277.330124 
L 611.155535 279.440133 
L 613.700382 277.561394 
L 616.245228 279.084347 
L 618.790075 280.886504 
L 621.334921 278.541001 
L 623.879768 276.040853 
L 626.424614 269.510001 
L 628.969461 277.168178 
L 631.514307 272.783515 
L 634.059154 278.010503 
L 636.604 275.836477 
L 639.148847 277.585356 
L 641.693693 272.227345 
L 644.238539 273.059525 
L 646.783386 268.944749 
L 649.328232 279.503661 
L 654.417925 281.014466 
L 656.962772 274.010991 
L 659.507618 281.151328 
L 662.052465 278.758653 
L 664.597311 279.240066 
L 667.142158 274.301299 
L 669.687004 279.833128 
L 672.23185 276.673185 
L 674.776697 279.000849 
L 677.321543 277.251358 
L 679.86639 281.361028 
L 682.411236 276.194186 
L 684.956083 281.112162 
L 687.500929 276.88396 
L 690.045776 276.93967 
L 692.590622 278.338204 
L 695.135469 278.706171 
L 697.680315 277.019752 
L 700.225162 271.600897 
L 702.770008 278.06071 
L 705.314854 274.926127 
L 707.859701 278.406967 
L 710.404547 277.581932 
L 712.949394 280.179084 
L 715.49424 273.857633 
L 718.039087 279.412125 
L 720.583933 277.625558 
L 723.12878 280.847497 
L 725.673626 277.785596 
L 728.218473 281.073016 
L 730.763319 279.345833 
L 733.308165 279.892247 
L 735.853012 279.015509 
L 738.397858 281.62702 
L 740.942705 280.597416 
L 743.487551 280.528066 
L 746.032398 276.833067 
L 748.577244 280.072283 
L 751.122091 279.776314 
L 753.666937 280.685158 
L 756.211784 278.59287 
L 758.75663 277.947901 
L 761.301477 275.174181 
L 763.846323 281.532469 
L 766.391169 280.526652 
L 768.936016 279.96011 
L 771.480862 276.307107 
L 774.025709 277.695287 
L 776.570555 280.576589 
L 779.115402 277.942392 
L 781.660248 279.683876 
L 784.205095 275.41713 
L 786.749941 279.718387 
L 789.294788 273.088103 
L 791.839634 280.951923 
L 794.38448 278.910283 
L 796.929327 277.73957 
L 799.474173 278.113466 
L 802.01902 274.28593 
L 804.563866 279.166091 
L 807.108713 277.529282 
L 809.653559 279.522756 
L 812.198406 280.24298 
L 814.743252 279.150893 
L 817.288099 274.367931 
L 819.832945 280.413365 
L 822.377792 276.225742 
L 824.922638 280.801483 
L 827.467484 279.060472 
L 830.012331 278.553597 
L 832.557177 262.755562 
L 835.102024 281.425868 
L 837.64687 278.375582 
L 840.191717 272.233862 
L 842.736563 274.539008 
L 845.28141 276.585472 
L 847.826256 280.330691 
L 850.371103 274.752185 
L 852.915949 279.48712 
L 855.460795 276.403097 
L 855.460795 276.403097 
" clip-path="url(#pbe5c137a7b)" style="fill: none; stroke: #ffa500; stroke-width: 0.9; stroke-linecap: square"/>
   </g>
   <g id="line2d_18">
    <path d="M 94.551705 247.800009 
L 97.096551 227.424198 
L 99.641397 252.843928 
L 102.186244 212.329099 
L 104.73109 211.681339 
L 107.275937 260.388079 
L 109.820783 258.322907 
L 112.36563 233.150663 
L 114.910476 266.678154 
L 117.455323 270.790989 
L 120.000169 220.15848 
L 122.545016 255.4688 
L 125.089862 246.797522 
L 127.634708 270.381657 
L 130.179555 203.541795 
L 132.724401 202.117595 
L 135.269248 227.132318 
L 137.814094 202.015206 
L 140.358941 134.953038 
L 142.903787 252.798089 
L 145.448634 246.540296 
L 147.99348 253.972546 
L 150.538327 237.626576 
L 153.083173 223.583345 
L 155.62802 169.4021 
L 158.172866 157.323474 
L 160.717712 127.929283 
L 163.262559 208.755523 
L 165.807405 211.015463 
L 168.352252 222.670232 
L 170.897098 222.342398 
L 173.441945 197.256891 
L 175.986791 257.858761 
L 178.531638 215.446731 
L 181.076484 250.236133 
L 183.621331 147.352797 
L 186.166177 221.054447 
L 188.711023 210.095949 
L 191.25587 233.37678 
L 193.800716 186.318586 
L 196.345563 151.71843 
L 198.890409 221.651119 
L 201.435256 197.710386 
L 203.980102 175.145705 
L 206.524949 187.616558 
L 209.069795 161.156836 
L 211.614642 240.000779 
L 214.159488 188.491055 
L 216.704335 119.540941 
L 219.249181 111.47258 
L 221.794027 35.15267 
L 224.338874 81.009171 
L 226.88372 199.128442 
L 229.428567 194.534997 
L 231.973413 199.672877 
L 234.51826 184.505392 
L 237.063106 218.233784 
L 239.607953 170.692884 
L 242.152799 200.811461 
L 244.697646 130.055441 
L 247.242492 211.355737 
L 249.787338 91.77358 
L 252.332185 165.668471 
L 254.877031 122.142357 
L 257.421878 168.630254 
L 259.966724 235.913309 
L 262.511571 235.792337 
L 265.056417 215.978032 
L 267.601264 183.204938 
L 270.14611 188.787504 
L 272.690957 212.762666 
L 275.235803 239.303809 
L 277.78065 172.219322 
L 280.325496 234.8904 
L 282.870342 159.043861 
L 285.415189 146.119622 
L 287.960035 198.345587 
L 290.504882 180.758639 
L 293.049728 157.374754 
L 295.594575 228.126065 
L 298.139421 265.771034 
L 300.684268 262.502482 
L 303.229114 232.643835 
L 305.773961 257.014782 
L 308.318807 257.65862 
L 310.863653 270.30447 
L 313.4085 250.969571 
L 315.953346 257.298995 
L 318.498193 266.212968 
L 321.043039 215.080544 
L 323.587886 223.552068 
L 326.132732 264.571461 
L 328.677579 230.28893 
L 331.222425 258.849786 
L 333.767272 255.267155 
L 336.312118 250.225556 
L 338.856965 252.573052 
L 341.401811 243.132401 
L 343.946657 263.423121 
L 346.491504 266.814594 
L 349.03635 233.349237 
L 351.581197 259.496426 
L 354.126043 243.052618 
L 356.67089 229.82815 
L 359.215736 226.434824 
L 361.760583 217.000732 
L 364.305429 255.776465 
L 366.850276 269.739413 
L 369.395122 245.721496 
L 371.939968 195.55304 
L 374.484815 268.137224 
L 377.029661 243.663575 
L 379.574508 225.776768 
L 382.119354 251.664867 
L 384.664201 246.181723 
L 387.209047 220.871575 
L 389.753894 256.4119 
L 392.29874 246.325229 
L 394.843587 245.404047 
L 397.388433 198.705102 
L 399.933279 272.668623 
L 402.478126 263.106116 
L 405.022972 255.925653 
L 407.567819 215.782591 
L 410.112665 264.867487 
L 412.657512 240.239642 
L 415.202358 255.374023 
L 417.747205 243.847488 
L 420.292051 244.533447 
L 422.836898 172.49267 
L 425.381744 256.598795 
L 427.926591 226.008652 
L 430.471437 235.642277 
L 433.016283 156.153568 
L 435.56113 183.098325 
L 438.105976 258.047764 
L 440.650823 263.683622 
L 443.195669 252.699187 
L 445.740516 268.176031 
L 448.285362 255.494666 
L 450.830209 213.775582 
L 453.375055 248.309221 
L 455.919902 264.329059 
L 458.464748 214.917529 
L 461.009594 250.690419 
L 463.554441 237.61411 
L 466.099287 228.384418 
L 468.644134 246.185023 
L 471.18898 235.952353 
L 473.733827 244.295744 
L 476.278673 236.633802 
L 478.82352 219.159876 
L 483.913213 274.031967 
L 486.458059 267.222599 
L 489.002906 213.252639 
L 491.547752 258.930581 
L 494.092598 189.736581 
L 496.637445 245.988841 
L 499.182291 201.470022 
L 501.727138 221.129681 
L 504.271984 139.749668 
L 506.816831 238.533861 
L 509.361677 205.212877 
L 511.906524 224.715196 
L 514.45137 220.493715 
L 516.996217 218.482761 
L 519.541063 232.288017 
L 522.085909 186.571838 
L 524.630756 245.797357 
L 527.175602 265.292404 
L 529.720449 212.89031 
L 532.265295 238.533597 
L 534.810142 165.604844 
L 537.354988 263.849206 
L 539.899835 160.738434 
L 542.444681 231.812452 
L 544.989528 172.495931 
L 547.534374 223.118481 
L 550.079221 219.641011 
L 552.624067 245.438282 
L 555.168913 172.181812 
L 557.71376 252.668881 
L 560.258606 147.082939 
L 562.803453 136.302689 
L 565.348299 244.196633 
L 567.893146 154.37675 
L 570.437992 254.996145 
L 572.982839 211.634876 
L 575.527685 233.961797 
L 578.072532 208.330094 
L 580.617378 245.822129 
L 583.162224 153.593798 
L 585.707071 245.070258 
L 588.251917 217.387594 
L 590.796764 187.616212 
L 593.34161 245.563206 
L 598.431303 162.549769 
L 600.97615 199.961167 
L 603.520996 174.32132 
L 606.065843 128.526435 
L 608.610689 179.985803 
L 611.155535 225.024098 
L 613.700382 194.759328 
L 616.245228 217.116449 
L 618.790075 248.691842 
L 621.334921 209.668759 
L 623.879768 156.240317 
L 626.424614 89.713975 
L 628.969461 219.899731 
L 631.514307 157.000769 
L 634.059154 216.46009 
L 636.604 181.747123 
L 639.148847 211.589424 
L 641.693693 102.1156 
L 644.238539 133.966348 
L 646.783386 123.375631 
L 649.328232 246.273581 
L 651.873079 245.241421 
L 654.417925 253.345375 
L 656.962772 170.441197 
L 659.507618 259.141691 
L 662.052465 219.037198 
L 664.597311 241.578233 
L 667.142158 175.815426 
L 669.687004 248.19314 
L 672.23185 171.796062 
L 674.776697 216.142447 
L 677.321543 175.687297 
L 679.86639 262.942285 
L 682.411236 171.2625 
L 684.956083 243.302807 
L 687.500929 212.283238 
L 690.045776 204.410698 
L 692.590622 227.730817 
L 695.135469 202.593654 
L 697.680315 203.199501 
L 700.225162 141.530892 
L 702.770008 220.111352 
L 705.314854 164.402605 
L 707.859701 207.614786 
L 710.404547 218.226149 
L 712.949394 240.286951 
L 715.49424 172.953956 
L 718.039087 208.535159 
L 720.583933 218.406379 
L 723.12878 263.089408 
L 725.673626 192.78033 
L 728.218473 252.436134 
L 730.763319 228.030352 
L 733.308165 230.794886 
L 735.853012 223.704009 
L 738.397858 270.170445 
L 740.942705 244.398917 
L 743.487551 234.135586 
L 746.032398 212.176271 
L 748.577244 231.789039 
L 751.122091 233.763664 
L 753.666937 243.622405 
L 756.211784 236.4687 
L 761.301477 162.053545 
L 763.846323 266.668166 
L 766.391169 248.948751 
L 768.936016 239.274915 
L 771.480862 179.946431 
L 774.025709 201.87351 
L 776.570555 231.340412 
L 779.115402 182.786855 
L 781.660248 224.982247 
L 784.205095 189.329652 
L 786.749941 225.159796 
L 789.294788 139.078103 
L 791.839634 244.900678 
L 794.38448 227.917674 
L 796.929327 215.742779 
L 799.474173 207.872923 
L 802.01902 130.357399 
L 804.563866 223.149298 
L 807.108713 207.430699 
L 809.653559 236.710895 
L 812.198406 247.328809 
L 814.743252 219.187728 
L 817.288099 167.120531 
L 819.832945 237.684878 
L 822.377792 192.085408 
L 824.922638 250.430443 
L 827.467484 214.007701 
L 830.012331 229.171855 
L 832.557177 35.928009 
L 835.102024 261.565934 
L 837.64687 215.551775 
L 840.191717 149.951635 
L 842.736563 169.32636 
L 845.28141 206.635107 
L 847.826256 250.223469 
L 850.371103 178.397539 
L 852.915949 209.359564 
L 855.460795 214.084267 
L 855.460795 214.084267 
" clip-path="url(#pbe5c137a7b)" style="fill: none; stroke: #ff4500; stroke-width: 0.9; stroke-linecap: square"/>
   </g>
   <g id="patch_3">
    <path d="M 56.50625 294.598125 
L 56.50625 22.798125 
" style="fill: none; stroke: #000000; stroke-width: 0.8; stroke-linejoin: miter; stroke-linecap: square"/>
   </g>
   <g id="patch_4">
    <path d="M 893.50625 294.598125 
L 893.50625 22.798125 
" style="fill: none; stroke: #000000; stroke-width: 0.8; stroke-linejoin: miter; stroke-linecap: square"/>
   </g>
   <g id="patch_5">
    <path d="M 56.50625 294.598125 
L 893.50625 294.598125 
" style="fill: none; stroke: #000000; stroke-width: 0.8; stroke-linejoin: miter; stroke-linecap: square"/>
   </g>
   <g id="patch_6">
    <path d="M 56.50625 22.798125 
L 893.50625 22.798125 
" style="fill: none; stroke: #000000; stroke-width: 0.8; stroke-linejoin: miter; stroke-linecap: square"/>
   </g>
   <g id="text_16">
    <!-- Wariancja z próbki 1 sekunda -->
    <g transform="translate(386.972188 16.798125)scale(0.12 -0.12)">
     <defs>
      <path id="DejaVuSans-69" d="M 603 3500 
L 1178 3500 
L 1178 0 
L 603 0 
L 603 3500 
z
M 603 4863 
L 1178 4863 
L 1178 4134 
L 603 4134 
L 603 4863 
z
" transform="scale(0.015625)"/>
      <path id="DejaVuSans-6e" d="M 3513 2113 
L 3513 0 
L 2938 0 
L 2938 2094 
Q 2938 2591 2744 2837 
Q 2550 3084 2163 3084 
Q 1697 3084 1428 2787 
Q 1159 2491 1159 1978 
L 1159 0 
L 581 0 
L 581 3500 
L 1159 3500 
L 1159 2956 
Q 1366 3272 1645 3428 
Q 1925 3584 2291 3584 
Q 2894 3584 3203 3211 
Q 3513 2838 3513 2113 
z
" transform="scale(0.015625)"/>
      <path id="DejaVuSans-63" d="M 3122 3366 
L 3122 2828 
Q 2878 2963 2633 3030 
Q 2388 3097 2138 3097 
Q 1578 3097 1268 2742 
Q 959 2388 959 1747 
Q 959 1106 1268 751 
Q 1578 397 2138 397 
Q 2388 397 2633 464 
Q 2878 531 3122 666 
L 3122 134 
Q 2881 22 2623 -34 
Q 2366 -91 2075 -91 
Q 1284 -91 818 406 
Q 353 903 353 1747 
Q 353 2603 823 3093 
Q 1294 3584 2113 3584 
Q 2378 3584 2631 3529 
Q 2884 3475 3122 3366 
z
" transform="scale(0.015625)"/>
      <path id="DejaVuSans-6a" d="M 603 3500 
L 1178 3500 
L 1178 -63 
Q 1178 -731 923 -1031 
Q 669 -1331 103 -1331 
L -116 -1331 
L -116 -844 
L 38 -844 
Q 366 -844 484 -692 
Q 603 -541 603 -63 
L 603 3500 
z
M 603 4863 
L 1178 4863 
L 1178 4134 
L 603 4134 
L 603 4863 
z
" transform="scale(0.015625)"/>
      <path id="DejaVuSans-20" transform="scale(0.015625)"/>
      <path id="DejaVuSans-7a" d="M 353 3500 
L 3084 3500 
L 3084 2975 
L 922 459 
L 3084 459 
L 3084 0 
L 275 0 
L 275 525 
L 2438 3041 
L 353 3041 
L 353 3500 
z
" transform="scale(0.015625)"/>
      <path id="DejaVuSans-70" d="M 1159 525 
L 1159 -1331 
L 581 -1331 
L 581 3500 
L 1159 3500 
L 1159 2969 
Q 1341 3281 1617 3432 
Q 1894 3584 2278 3584 
Q 2916 3584 3314 3078 
Q 3713 2572 3713 1747 
Q 3713 922 3314 415 
Q 2916 -91 2278 -91 
Q 1894 -91 1617 61 
Q 1341 213 1159 525 
z
M 3116 1747 
Q 3116 2381 2855 2742 
Q 2594 3103 2138 3103 
Q 1681 3103 1420 2742 
Q 1159 2381 1159 1747 
Q 1159 1113 1420 752 
Q 1681 391 2138 391 
Q 2594 391 2855 752 
Q 3116 1113 3116 1747 
z
" transform="scale(0.015625)"/>
      <path id="DejaVuSans-73" d="M 2834 3397 
L 2834 2853 
Q 2591 2978 2328 3040 
Q 2066 3103 1784 3103 
Q 1356 3103 1142 2972 
Q 928 2841 928 2578 
Q 928 2378 1081 2264 
Q 1234 2150 1697 2047 
L 1894 2003 
Q 2506 1872 2764 1633 
Q 3022 1394 3022 966 
Q 3022 478 2636 193 
Q 2250 -91 1575 -91 
Q 1294 -91 989 -36 
Q 684 19 347 128 
L 347 722 
Q 666 556 975 473 
Q 1284 391 1588 391 
Q 1994 391 2212 530 
Q 2431 669 2431 922 
Q 2431 1156 2273 1281 
Q 2116 1406 1581 1522 
L 1381 1569 
Q 847 1681 609 1914 
Q 372 2147 372 2553 
Q 372 3047 722 3315 
Q 1072 3584 1716 3584 
Q 2034 3584 2315 3537 
Q 2597 3491 2834 3397 
z
" transform="scale(0.015625)"/>
      <path id="DejaVuSans-65" d="M 3597 1894 
L 3597 1613 
L 953 1613 
Q 991 1019 1311 708 
Q 1631 397 2203 397 
Q 2534 397 2845 478 
Q 3156 559 3463 722 
L 3463 178 
Q 3153 47 2828 -22 
Q 2503 -91 2169 -91 
Q 1331 -91 842 396 
Q 353 884 353 1716 
Q 353 2575 817 3079 
Q 1281 3584 2069 3584 
Q 2775 3584 3186 3129 
Q 3597 2675 3597 1894 
z
M 3022 2063 
Q 3016 2534 2758 2815 
Q 2500 3097 2075 3097 
Q 1594 3097 1305 2825 
Q 1016 2553 972 2059 
L 3022 2063 
z
" transform="scale(0.015625)"/>
      <path id="DejaVuSans-75" d="M 544 1381 
L 544 3500 
L 1119 3500 
L 1119 1403 
Q 1119 906 1312 657 
Q 1506 409 1894 409 
Q 2359 409 2629 706 
Q 2900 1003 2900 1516 
L 2900 3500 
L 3475 3500 
L 3475 0 
L 2900 0 
L 2900 538 
Q 2691 219 2414 64 
Q 2138 -91 1772 -91 
Q 1169 -91 856 284 
Q 544 659 544 1381 
z
M 1991 3584 
L 1991 3584 
z
" transform="scale(0.015625)"/>
      <path id="DejaVuSans-64" d="M 2906 2969 
L 2906 4863 
L 3481 4863 
L 3481 0 
L 2906 0 
L 2906 525 
Q 2725 213 2448 61 
Q 2172 -91 1784 -91 
Q 1150 -91 751 415 
Q 353 922 353 1747 
Q 353 2572 751 3078 
Q 1150 3584 1784 3584 
Q 2172 3584 2448 3432 
Q 2725 3281 2906 2969 
z
M 947 1747 
Q 947 1113 1208 752 
Q 1469 391 1925 391 
Q 2381 391 2643 752 
Q 2906 1113 2906 1747 
Q 2906 2381 2643 2742 
Q 2381 3103 1925 3103 
Q 1469 3103 1208 2742 
Q 947 2381 947 1747 
z
" transform="scale(0.015625)"/>
     </defs>
     <use xlink:href="#DejaVuSans-57"/>
     <use xlink:href="#DejaVuSans-61" x="92.501953"/>
     <use xlink:href="#DejaVuSans-72" x="153.78125"/>
     <use xlink:href="#DejaVuSans-69" x="194.894531"/>
     <use xlink:href="#DejaVuSans-61" x="222.677734"/>
     <use xlink:href="#DejaVuSans-6e" x="283.957031"/>
     <use xlink:href="#DejaVuSans-63" x="347.335938"/>
     <use xlink:href="#DejaVuSans-6a" x="402.316406"/>
     <use xlink:href="#DejaVuSans-61" x="430.099609"/>
     <use xlink:href="#DejaVuSans-20" x="491.378906"/>
     <use xlink:href="#DejaVuSans-7a" x="523.166016"/>
     <use xlink:href="#DejaVuSans-20" x="575.65625"/>
     <use xlink:href="#DejaVuSans-70" x="607.443359"/>
     <use xlink:href="#DejaVuSans-72" x="670.919922"/>
     <use xlink:href="#DejaVuSans-f3" x="709.783203"/>
     <use xlink:href="#DejaVuSans-62" x="770.964844"/>
     <use xlink:href="#DejaVuSans-6b" x="834.441406"/>
     <use xlink:href="#DejaVuSans-69" x="892.351562"/>
     <use xlink:href="#DejaVuSans-20" x="920.134766"/>
     <use xlink:href="#DejaVuSans-31" x="951.921875"/>
     <use xlink:href="#DejaVuSans-20" x="1015.544922"/>
     <use xlink:href="#DejaVuSans-73" x="1047.332031"/>
     <use xlink:href="#DejaVuSans-65" x="1099.431641"/>
     <use xlink:href="#DejaVuSans-6b" x="1160.955078"/>
     <use xlink:href="#DejaVuSans-75" x="1215.740234"/>
     <use xlink:href="#DejaVuSans-6e" x="1279.119141"/>
     <use xlink:href="#DejaVuSans-64" x="1342.498047"/>
     <use xlink:href="#DejaVuSans-61" x="1405.974609"/>
    </g>
   </g>
   <g id="legend_1">
    <g id="patch_7">
     <path d="M 809.371875 105.579375 
L 886.50625 105.579375 
Q 888.50625 105.579375 888.50625 103.579375 
L 888.50625 29.798125 
Q 888.50625 27.798125 886.50625 27.798125 
L 809.371875 27.798125 
Q 807.371875 27.798125 807.371875 29.798125 
L 807.371875 103.579375 
Q 807.371875 105.579375 809.371875 105.579375 
z
" style="fill: #ffffff; opacity: 0.8; stroke: #cccccc; stroke-linejoin: miter"/>
    </g>
    <g id="line2d_19">
     <path d="M 811.371875 35.896563 
L 821.371875 35.896563 
L 831.371875 35.896563 
" style="fill: none; stroke: #ff00ff; stroke-width: 0.9; stroke-linecap: square"/>
    </g>
    <g id="text_17">
     <!-- CH1_2KS -->
     <g transform="translate(839.371875 39.396563)scale(0.1 -0.1)">
      <defs>
       <path id="DejaVuSans-43" d="M 4122 4306 
L 4122 3641 
Q 3803 3938 3442 4084 
Q 3081 4231 2675 4231 
Q 1875 4231 1450 3742 
Q 1025 3253 1025 2328 
Q 1025 1406 1450 917 
Q 1875 428 2675 428 
Q 3081 428 3442 575 
Q 3803 722 4122 1019 
L 4122 359 
Q 3791 134 3420 21 
Q 3050 -91 2638 -91 
Q 1578 -91 968 557 
Q 359 1206 359 2328 
Q 359 3453 968 4101 
Q 1578 4750 2638 4750 
Q 3056 4750 3426 4639 
Q 3797 4528 4122 4306 
z
" transform="scale(0.015625)"/>
       <path id="DejaVuSans-48" d="M 628 4666 
L 1259 4666 
L 1259 2753 
L 3553 2753 
L 3553 4666 
L 4184 4666 
L 4184 0 
L 3553 0 
L 3553 2222 
L 1259 2222 
L 1259 0 
L 628 0 
L 628 4666 
z
" transform="scale(0.015625)"/>
       <path id="DejaVuSans-5f" d="M 3263 -1063 
L 3263 -1509 
L -63 -1509 
L -63 -1063 
L 3263 -1063 
z
" transform="scale(0.015625)"/>
       <path id="DejaVuSans-4b" d="M 628 4666 
L 1259 4666 
L 1259 2694 
L 3353 4666 
L 4166 4666 
L 1850 2491 
L 4331 0 
L 3500 0 
L 1259 2247 
L 1259 0 
L 628 0 
L 628 4666 
z
" transform="scale(0.015625)"/>
       <path id="DejaVuSans-53" d="M 3425 4513 
L 3425 3897 
Q 3066 4069 2747 4153 
Q 2428 4238 2131 4238 
Q 1616 4238 1336 4038 
Q 1056 3838 1056 3469 
Q 1056 3159 1242 3001 
Q 1428 2844 1947 2747 
L 2328 2669 
Q 3034 2534 3370 2195 
Q 3706 1856 3706 1288 
Q 3706 609 3251 259 
Q 2797 -91 1919 -91 
Q 1588 -91 1214 -16 
Q 841 59 441 206 
L 441 856 
Q 825 641 1194 531 
Q 1563 422 1919 422 
Q 2459 422 2753 634 
Q 3047 847 3047 1241 
Q 3047 1584 2836 1778 
Q 2625 1972 2144 2069 
L 1759 2144 
Q 1053 2284 737 2584 
Q 422 2884 422 3419 
Q 422 4038 858 4394 
Q 1294 4750 2059 4750 
Q 2388 4750 2728 4690 
Q 3069 4631 3425 4513 
z
" transform="scale(0.015625)"/>
      </defs>
      <use xlink:href="#DejaVuSans-43"/>
      <use xlink:href="#DejaVuSans-48" x="69.824219"/>
      <use xlink:href="#DejaVuSans-31" x="145.019531"/>
      <use xlink:href="#DejaVuSans-5f" x="208.642578"/>
      <use xlink:href="#DejaVuSans-32" x="258.642578"/>
      <use xlink:href="#DejaVuSans-4b" x="322.265625"/>
      <use xlink:href="#DejaVuSans-53" x="387.841797"/>
     </g>
    </g>
    <g id="line2d_20">
     <path d="M 811.371875 50.852813 
L 821.371875 50.852813 
L 831.371875 50.852813 
" style="fill: none; stroke: #9400d3; stroke-width: 0.9; stroke-linecap: square"/>
    </g>
    <g id="text_18">
     <!-- CH2_2KS -->
     <g transform="translate(839.371875 54.352813)scale(0.1 -0.1)">
      <use xlink:href="#DejaVuSans-43"/>
      <use xlink:href="#DejaVuSans-48" x="69.824219"/>
      <use xlink:href="#DejaVuSans-32" x="145.019531"/>
      <use xlink:href="#DejaVuSans-5f" x="208.642578"/>
      <use xlink:href="#DejaVuSans-32" x="258.642578"/>
      <use xlink:href="#DejaVuSans-4b" x="322.265625"/>
      <use xlink:href="#DejaVuSans-53" x="387.841797"/>
     </g>
    </g>
    <g id="line2d_21">
     <path d="M 811.371875 65.809063 
L 821.371875 65.809063 
L 831.371875 65.809063 
" style="fill: none; stroke: #00ffff; stroke-width: 0.9; stroke-linecap: square"/>
    </g>
    <g id="text_19">
     <!-- CH3_2KS -->
     <g transform="translate(839.371875 69.309063)scale(0.1 -0.1)">
      <use xlink:href="#DejaVuSans-43"/>
      <use xlink:href="#DejaVuSans-48" x="69.824219"/>
      <use xlink:href="#DejaVuSans-33" x="145.019531"/>
      <use xlink:href="#DejaVuSans-5f" x="208.642578"/>
      <use xlink:href="#DejaVuSans-32" x="258.642578"/>
      <use xlink:href="#DejaVuSans-4b" x="322.265625"/>
      <use xlink:href="#DejaVuSans-53" x="387.841797"/>
     </g>
    </g>
    <g id="line2d_22">
     <path d="M 811.371875 80.765313 
L 821.371875 80.765313 
L 831.371875 80.765313 
" style="fill: none; stroke: #ffa500; stroke-width: 0.9; stroke-linecap: square"/>
    </g>
    <g id="text_20">
     <!-- CH4_2KS -->
     <g transform="translate(839.371875 84.265313)scale(0.1 -0.1)">
      <defs>
       <path id="DejaVuSans-34" d="M 2419 4116 
L 825 1625 
L 2419 1625 
L 2419 4116 
z
M 2253 4666 
L 3047 4666 
L 3047 1625 
L 3713 1625 
L 3713 1100 
L 3047 1100 
L 3047 0 
L 2419 0 
L 2419 1100 
L 313 1100 
L 313 1709 
L 2253 4666 
z
" transform="scale(0.015625)"/>
      </defs>
      <use xlink:href="#DejaVuSans-43"/>
      <use xlink:href="#DejaVuSans-48" x="69.824219"/>
      <use xlink:href="#DejaVuSans-34" x="145.019531"/>
      <use xlink:href="#DejaVuSans-5f" x="208.642578"/>
      <use xlink:href="#DejaVuSans-32" x="258.642578"/>
      <use xlink:href="#DejaVuSans-4b" x="322.265625"/>
      <use xlink:href="#DejaVuSans-53" x="387.841797"/>
     </g>
    </g>
    <g id="line2d_23">
     <path d="M 811.371875 95.721563 
L 821.371875 95.721563 
L 831.371875 95.721563 
" style="fill: none; stroke: #ff4500; stroke-width: 0.9; stroke-linecap: square"/>
    </g>
    <g id="text_21">
     <!-- CH5_2KS -->
     <g transform="translate(839.371875 99.221563)scale(0.1 -0.1)">
      <use xlink:href="#DejaVuSans-43"/>
      <use xlink:href="#DejaVuSans-48" x="69.824219"/>
      <use xlink:href="#DejaVuSans-35" x="145.019531"/>
      <use xlink:href="#DejaVuSans-5f" x="208.642578"/>
      <use xlink:href="#DejaVuSans-32" x="258.642578"/>
      <use xlink:href="#DejaVuSans-4b" x="322.265625"/>
      <use xlink:href="#DejaVuSans-53" x="387.841797"/>
     </g>
    </g>
   </g>
  </g>
 </g>
 <defs>
  <clipPath id="pbe5c137a7b">
   <rect x="56.50625" y="22.798125" width="837" height="271.8"/>
  </clipPath>
 </defs>
</svg>
