<?xml version="1.0" encoding="utf-8" standalone="no"?>
<!DOCTYPE svg PUBLIC "-//W3C//DTD SVG 1.1//EN"
  "http://www.w3.org/Graphics/SVG/1.1/DTD/svg11.dtd">
<svg xmlns:xlink="http://www.w3.org/1999/xlink" width="887.98125pt" height="332.154375pt" viewBox="0 0 887.98125 332.154375" xmlns="http://www.w3.org/2000/svg" version="1.1">
 <metadata>
  <rdf:RDF xmlns:dc="http://purl.org/dc/elements/1.1/" xmlns:cc="http://creativecommons.org/ns#" xmlns:rdf="http://www.w3.org/1999/02/22-rdf-syntax-ns#">
   <cc:Work>
    <dc:type rdf:resource="http://purl.org/dc/dcmitype/StillImage"/>
    <dc:date>2022-06-21T21:13:40.105420</dc:date>
    <dc:format>image/svg+xml</dc:format>
    <dc:creator>
     <cc:Agent>
      <dc:title>Matplotlib v3.5.2, https://matplotlib.org/</dc:title>
     </cc:Agent>
    </dc:creator>
   </cc:Work>
  </rdf:RDF>
 </metadata>
 <defs>
  <style type="text/css">*{stroke-linejoin: round; stroke-linecap: butt}</style>
 </defs>
 <g id="figure_1">
  <g id="patch_1">
   <path d="M 0 332.154375 
L 887.98125 332.154375 
L 887.98125 0 
L 0 0 
L 0 332.154375 
z
" style="fill: none"/>
  </g>
  <g id="axes_1">
   <g id="patch_2">
    <path d="M 43.78125 294.598125 
L 880.78125 294.598125 
L 880.78125 22.798125 
L 43.78125 22.798125 
z
" style="fill: #ffffff"/>
   </g>
   <g id="matplotlib.axis_1">
    <g id="xtick_1">
     <g id="line2d_1">
      <defs>
       <path id="m6b2cd78109" d="M 0 0 
L 0 3.5 
" style="stroke: #000000; stroke-width: 0.8"/>
      </defs>
      <g>
       <use xlink:href="#m6b2cd78109" x="81.826705" y="294.598125" style="stroke: #000000; stroke-width: 0.8"/>
      </g>
     </g>
     <g id="text_1">
      <!-- 0 -->
      <g transform="translate(78.645455 309.196562)scale(0.1 -0.1)">
       <defs>
        <path id="DejaVuSans-30" d="M 2034 4250 
Q 1547 4250 1301 3770 
Q 1056 3291 1056 2328 
Q 1056 1369 1301 889 
Q 1547 409 2034 409 
Q 2525 409 2770 889 
Q 3016 1369 3016 2328 
Q 3016 3291 2770 3770 
Q 2525 4250 2034 4250 
z
M 2034 4750 
Q 2819 4750 3233 4129 
Q 3647 3509 3647 2328 
Q 3647 1150 3233 529 
Q 2819 -91 2034 -91 
Q 1250 -91 836 529 
Q 422 1150 422 2328 
Q 422 3509 836 4129 
Q 1250 4750 2034 4750 
z
" transform="scale(0.015625)"/>
       </defs>
       <use xlink:href="#DejaVuSans-30"/>
      </g>
     </g>
    </g>
    <g id="xtick_2">
     <g id="line2d_2">
      <g>
       <use xlink:href="#m6b2cd78109" x="209.069027" y="294.598125" style="stroke: #000000; stroke-width: 0.8"/>
      </g>
     </g>
     <g id="text_2">
      <!-- 50 -->
      <g transform="translate(202.706527 309.196562)scale(0.1 -0.1)">
       <defs>
        <path id="DejaVuSans-35" d="M 691 4666 
L 3169 4666 
L 3169 4134 
L 1269 4134 
L 1269 2991 
Q 1406 3038 1543 3061 
Q 1681 3084 1819 3084 
Q 2600 3084 3056 2656 
Q 3513 2228 3513 1497 
Q 3513 744 3044 326 
Q 2575 -91 1722 -91 
Q 1428 -91 1123 -41 
Q 819 9 494 109 
L 494 744 
Q 775 591 1075 516 
Q 1375 441 1709 441 
Q 2250 441 2565 725 
Q 2881 1009 2881 1497 
Q 2881 1984 2565 2268 
Q 2250 2553 1709 2553 
Q 1456 2553 1204 2497 
Q 953 2441 691 2322 
L 691 4666 
z
" transform="scale(0.015625)"/>
       </defs>
       <use xlink:href="#DejaVuSans-35"/>
       <use xlink:href="#DejaVuSans-30" x="63.623047"/>
      </g>
     </g>
    </g>
    <g id="xtick_3">
     <g id="line2d_3">
      <g>
       <use xlink:href="#m6b2cd78109" x="336.31135" y="294.598125" style="stroke: #000000; stroke-width: 0.8"/>
      </g>
     </g>
     <g id="text_3">
      <!-- 100 -->
      <g transform="translate(326.7676 309.196562)scale(0.1 -0.1)">
       <defs>
        <path id="DejaVuSans-31" d="M 794 531 
L 1825 531 
L 1825 4091 
L 703 3866 
L 703 4441 
L 1819 4666 
L 2450 4666 
L 2450 531 
L 3481 531 
L 3481 0 
L 794 0 
L 794 531 
z
" transform="scale(0.015625)"/>
       </defs>
       <use xlink:href="#DejaVuSans-31"/>
       <use xlink:href="#DejaVuSans-30" x="63.623047"/>
       <use xlink:href="#DejaVuSans-30" x="127.246094"/>
      </g>
     </g>
    </g>
    <g id="xtick_4">
     <g id="line2d_4">
      <g>
       <use xlink:href="#m6b2cd78109" x="463.553673" y="294.598125" style="stroke: #000000; stroke-width: 0.8"/>
      </g>
     </g>
     <g id="text_4">
      <!-- 150 -->
      <g transform="translate(454.009923 309.196562)scale(0.1 -0.1)">
       <use xlink:href="#DejaVuSans-31"/>
       <use xlink:href="#DejaVuSans-35" x="63.623047"/>
       <use xlink:href="#DejaVuSans-30" x="127.246094"/>
      </g>
     </g>
    </g>
    <g id="xtick_5">
     <g id="line2d_5">
      <g>
       <use xlink:href="#m6b2cd78109" x="590.795996" y="294.598125" style="stroke: #000000; stroke-width: 0.8"/>
      </g>
     </g>
     <g id="text_5">
      <!-- 200 -->
      <g transform="translate(581.252246 309.196562)scale(0.1 -0.1)">
       <defs>
        <path id="DejaVuSans-32" d="M 1228 531 
L 3431 531 
L 3431 0 
L 469 0 
L 469 531 
Q 828 903 1448 1529 
Q 2069 2156 2228 2338 
Q 2531 2678 2651 2914 
Q 2772 3150 2772 3378 
Q 2772 3750 2511 3984 
Q 2250 4219 1831 4219 
Q 1534 4219 1204 4116 
Q 875 4013 500 3803 
L 500 4441 
Q 881 4594 1212 4672 
Q 1544 4750 1819 4750 
Q 2544 4750 2975 4387 
Q 3406 4025 3406 3419 
Q 3406 3131 3298 2873 
Q 3191 2616 2906 2266 
Q 2828 2175 2409 1742 
Q 1991 1309 1228 531 
z
" transform="scale(0.015625)"/>
       </defs>
       <use xlink:href="#DejaVuSans-32"/>
       <use xlink:href="#DejaVuSans-30" x="63.623047"/>
       <use xlink:href="#DejaVuSans-30" x="127.246094"/>
      </g>
     </g>
    </g>
    <g id="xtick_6">
     <g id="line2d_6">
      <g>
       <use xlink:href="#m6b2cd78109" x="718.038319" y="294.598125" style="stroke: #000000; stroke-width: 0.8"/>
      </g>
     </g>
     <g id="text_6">
      <!-- 250 -->
      <g transform="translate(708.494569 309.196562)scale(0.1 -0.1)">
       <use xlink:href="#DejaVuSans-32"/>
       <use xlink:href="#DejaVuSans-35" x="63.623047"/>
       <use xlink:href="#DejaVuSans-30" x="127.246094"/>
      </g>
     </g>
    </g>
    <g id="xtick_7">
     <g id="line2d_7">
      <g>
       <use xlink:href="#m6b2cd78109" x="845.280642" y="294.598125" style="stroke: #000000; stroke-width: 0.8"/>
      </g>
     </g>
     <g id="text_7">
      <!-- 300 -->
      <g transform="translate(835.736892 309.196562)scale(0.1 -0.1)">
       <defs>
        <path id="DejaVuSans-33" d="M 2597 2516 
Q 3050 2419 3304 2112 
Q 3559 1806 3559 1356 
Q 3559 666 3084 287 
Q 2609 -91 1734 -91 
Q 1441 -91 1130 -33 
Q 819 25 488 141 
L 488 750 
Q 750 597 1062 519 
Q 1375 441 1716 441 
Q 2309 441 2620 675 
Q 2931 909 2931 1356 
Q 2931 1769 2642 2001 
Q 2353 2234 1838 2234 
L 1294 2234 
L 1294 2753 
L 1863 2753 
Q 2328 2753 2575 2939 
Q 2822 3125 2822 3475 
Q 2822 3834 2567 4026 
Q 2313 4219 1838 4219 
Q 1578 4219 1281 4162 
Q 984 4106 628 3988 
L 628 4550 
Q 988 4650 1302 4700 
Q 1616 4750 1894 4750 
Q 2613 4750 3031 4423 
Q 3450 4097 3450 3541 
Q 3450 3153 3228 2886 
Q 3006 2619 2597 2516 
z
" transform="scale(0.015625)"/>
       </defs>
       <use xlink:href="#DejaVuSans-33"/>
       <use xlink:href="#DejaVuSans-30" x="63.623047"/>
       <use xlink:href="#DejaVuSans-30" x="127.246094"/>
      </g>
     </g>
    </g>
    <g id="text_8">
     <!-- Próbka -->
     <g transform="translate(445.305469 322.874687)scale(0.1 -0.1)">
      <defs>
       <path id="DejaVuSans-50" d="M 1259 4147 
L 1259 2394 
L 2053 2394 
Q 2494 2394 2734 2622 
Q 2975 2850 2975 3272 
Q 2975 3691 2734 3919 
Q 2494 4147 2053 4147 
L 1259 4147 
z
M 628 4666 
L 2053 4666 
Q 2838 4666 3239 4311 
Q 3641 3956 3641 3272 
Q 3641 2581 3239 2228 
Q 2838 1875 2053 1875 
L 1259 1875 
L 1259 0 
L 628 0 
L 628 4666 
z
" transform="scale(0.015625)"/>
       <path id="DejaVuSans-72" d="M 2631 2963 
Q 2534 3019 2420 3045 
Q 2306 3072 2169 3072 
Q 1681 3072 1420 2755 
Q 1159 2438 1159 1844 
L 1159 0 
L 581 0 
L 581 3500 
L 1159 3500 
L 1159 2956 
Q 1341 3275 1631 3429 
Q 1922 3584 2338 3584 
Q 2397 3584 2469 3576 
Q 2541 3569 2628 3553 
L 2631 2963 
z
" transform="scale(0.015625)"/>
       <path id="DejaVuSans-f3" d="M 1959 3097 
Q 1497 3097 1228 2736 
Q 959 2375 959 1747 
Q 959 1119 1226 758 
Q 1494 397 1959 397 
Q 2419 397 2687 759 
Q 2956 1122 2956 1747 
Q 2956 2369 2687 2733 
Q 2419 3097 1959 3097 
z
M 1959 3584 
Q 2709 3584 3137 3096 
Q 3566 2609 3566 1747 
Q 3566 888 3137 398 
Q 2709 -91 1959 -91 
Q 1206 -91 779 398 
Q 353 888 353 1747 
Q 353 2609 779 3096 
Q 1206 3584 1959 3584 
z
M 2394 5119 
L 3016 5119 
L 1998 3944 
L 1519 3944 
L 2394 5119 
z
" transform="scale(0.015625)"/>
       <path id="DejaVuSans-62" d="M 3116 1747 
Q 3116 2381 2855 2742 
Q 2594 3103 2138 3103 
Q 1681 3103 1420 2742 
Q 1159 2381 1159 1747 
Q 1159 1113 1420 752 
Q 1681 391 2138 391 
Q 2594 391 2855 752 
Q 3116 1113 3116 1747 
z
M 1159 2969 
Q 1341 3281 1617 3432 
Q 1894 3584 2278 3584 
Q 2916 3584 3314 3078 
Q 3713 2572 3713 1747 
Q 3713 922 3314 415 
Q 2916 -91 2278 -91 
Q 1894 -91 1617 61 
Q 1341 213 1159 525 
L 1159 0 
L 581 0 
L 581 4863 
L 1159 4863 
L 1159 2969 
z
" transform="scale(0.015625)"/>
       <path id="DejaVuSans-6b" d="M 581 4863 
L 1159 4863 
L 1159 1991 
L 2875 3500 
L 3609 3500 
L 1753 1863 
L 3688 0 
L 2938 0 
L 1159 1709 
L 1159 0 
L 581 0 
L 581 4863 
z
" transform="scale(0.015625)"/>
       <path id="DejaVuSans-61" d="M 2194 1759 
Q 1497 1759 1228 1600 
Q 959 1441 959 1056 
Q 959 750 1161 570 
Q 1363 391 1709 391 
Q 2188 391 2477 730 
Q 2766 1069 2766 1631 
L 2766 1759 
L 2194 1759 
z
M 3341 1997 
L 3341 0 
L 2766 0 
L 2766 531 
Q 2569 213 2275 61 
Q 1981 -91 1556 -91 
Q 1019 -91 701 211 
Q 384 513 384 1019 
Q 384 1609 779 1909 
Q 1175 2209 1959 2209 
L 2766 2209 
L 2766 2266 
Q 2766 2663 2505 2880 
Q 2244 3097 1772 3097 
Q 1472 3097 1187 3025 
Q 903 2953 641 2809 
L 641 3341 
Q 956 3463 1253 3523 
Q 1550 3584 1831 3584 
Q 2591 3584 2966 3190 
Q 3341 2797 3341 1997 
z
" transform="scale(0.015625)"/>
      </defs>
      <use xlink:href="#DejaVuSans-50"/>
      <use xlink:href="#DejaVuSans-72" x="58.552734"/>
      <use xlink:href="#DejaVuSans-f3" x="97.416016"/>
      <use xlink:href="#DejaVuSans-62" x="158.597656"/>
      <use xlink:href="#DejaVuSans-6b" x="222.074219"/>
      <use xlink:href="#DejaVuSans-61" x="278.234375"/>
     </g>
    </g>
   </g>
   <g id="matplotlib.axis_2">
    <g id="ytick_1">
     <g id="line2d_8">
      <defs>
       <path id="m321a9cdbeb" d="M 0 0 
L -3.5 0 
" style="stroke: #000000; stroke-width: 0.8"/>
      </defs>
      <g>
       <use xlink:href="#m321a9cdbeb" x="43.78125" y="293.919636" style="stroke: #000000; stroke-width: 0.8"/>
      </g>
     </g>
     <g id="text_9">
      <!-- 0.0 -->
      <g transform="translate(20.878125 297.718855)scale(0.1 -0.1)">
       <defs>
        <path id="DejaVuSans-2e" d="M 684 794 
L 1344 794 
L 1344 0 
L 684 0 
L 684 794 
z
" transform="scale(0.015625)"/>
       </defs>
       <use xlink:href="#DejaVuSans-30"/>
       <use xlink:href="#DejaVuSans-2e" x="63.623047"/>
       <use xlink:href="#DejaVuSans-30" x="95.410156"/>
      </g>
     </g>
    </g>
    <g id="ytick_2">
     <g id="line2d_9">
      <g>
       <use xlink:href="#m321a9cdbeb" x="43.78125" y="261.140485" style="stroke: #000000; stroke-width: 0.8"/>
      </g>
     </g>
     <g id="text_10">
      <!-- 0.1 -->
      <g transform="translate(20.878125 264.939703)scale(0.1 -0.1)">
       <use xlink:href="#DejaVuSans-30"/>
       <use xlink:href="#DejaVuSans-2e" x="63.623047"/>
       <use xlink:href="#DejaVuSans-31" x="95.410156"/>
      </g>
     </g>
    </g>
    <g id="ytick_3">
     <g id="line2d_10">
      <g>
       <use xlink:href="#m321a9cdbeb" x="43.78125" y="228.361333" style="stroke: #000000; stroke-width: 0.8"/>
      </g>
     </g>
     <g id="text_11">
      <!-- 0.2 -->
      <g transform="translate(20.878125 232.160552)scale(0.1 -0.1)">
       <use xlink:href="#DejaVuSans-30"/>
       <use xlink:href="#DejaVuSans-2e" x="63.623047"/>
       <use xlink:href="#DejaVuSans-32" x="95.410156"/>
      </g>
     </g>
    </g>
    <g id="ytick_4">
     <g id="line2d_11">
      <g>
       <use xlink:href="#m321a9cdbeb" x="43.78125" y="195.582182" style="stroke: #000000; stroke-width: 0.8"/>
      </g>
     </g>
     <g id="text_12">
      <!-- 0.3 -->
      <g transform="translate(20.878125 199.3814)scale(0.1 -0.1)">
       <use xlink:href="#DejaVuSans-30"/>
       <use xlink:href="#DejaVuSans-2e" x="63.623047"/>
       <use xlink:href="#DejaVuSans-33" x="95.410156"/>
      </g>
     </g>
    </g>
    <g id="ytick_5">
     <g id="line2d_12">
      <g>
       <use xlink:href="#m321a9cdbeb" x="43.78125" y="162.80303" style="stroke: #000000; stroke-width: 0.8"/>
      </g>
     </g>
     <g id="text_13">
      <!-- 0.4 -->
      <g transform="translate(20.878125 166.602249)scale(0.1 -0.1)">
       <defs>
        <path id="DejaVuSans-34" d="M 2419 4116 
L 825 1625 
L 2419 1625 
L 2419 4116 
z
M 2253 4666 
L 3047 4666 
L 3047 1625 
L 3713 1625 
L 3713 1100 
L 3047 1100 
L 3047 0 
L 2419 0 
L 2419 1100 
L 313 1100 
L 313 1709 
L 2253 4666 
z
" transform="scale(0.015625)"/>
       </defs>
       <use xlink:href="#DejaVuSans-30"/>
       <use xlink:href="#DejaVuSans-2e" x="63.623047"/>
       <use xlink:href="#DejaVuSans-34" x="95.410156"/>
      </g>
     </g>
    </g>
    <g id="ytick_6">
     <g id="line2d_13">
      <g>
       <use xlink:href="#m321a9cdbeb" x="43.78125" y="130.023879" style="stroke: #000000; stroke-width: 0.8"/>
      </g>
     </g>
     <g id="text_14">
      <!-- 0.5 -->
      <g transform="translate(20.878125 133.823098)scale(0.1 -0.1)">
       <use xlink:href="#DejaVuSans-30"/>
       <use xlink:href="#DejaVuSans-2e" x="63.623047"/>
       <use xlink:href="#DejaVuSans-35" x="95.410156"/>
      </g>
     </g>
    </g>
    <g id="ytick_7">
     <g id="line2d_14">
      <g>
       <use xlink:href="#m321a9cdbeb" x="43.78125" y="97.244727" style="stroke: #000000; stroke-width: 0.8"/>
      </g>
     </g>
     <g id="text_15">
      <!-- 0.6 -->
      <g transform="translate(20.878125 101.043946)scale(0.1 -0.1)">
       <defs>
        <path id="DejaVuSans-36" d="M 2113 2584 
Q 1688 2584 1439 2293 
Q 1191 2003 1191 1497 
Q 1191 994 1439 701 
Q 1688 409 2113 409 
Q 2538 409 2786 701 
Q 3034 994 3034 1497 
Q 3034 2003 2786 2293 
Q 2538 2584 2113 2584 
z
M 3366 4563 
L 3366 3988 
Q 3128 4100 2886 4159 
Q 2644 4219 2406 4219 
Q 1781 4219 1451 3797 
Q 1122 3375 1075 2522 
Q 1259 2794 1537 2939 
Q 1816 3084 2150 3084 
Q 2853 3084 3261 2657 
Q 3669 2231 3669 1497 
Q 3669 778 3244 343 
Q 2819 -91 2113 -91 
Q 1303 -91 875 529 
Q 447 1150 447 2328 
Q 447 3434 972 4092 
Q 1497 4750 2381 4750 
Q 2619 4750 2861 4703 
Q 3103 4656 3366 4563 
z
" transform="scale(0.015625)"/>
       </defs>
       <use xlink:href="#DejaVuSans-30"/>
       <use xlink:href="#DejaVuSans-2e" x="63.623047"/>
       <use xlink:href="#DejaVuSans-36" x="95.410156"/>
      </g>
     </g>
    </g>
    <g id="ytick_8">
     <g id="line2d_15">
      <g>
       <use xlink:href="#m321a9cdbeb" x="43.78125" y="64.465576" style="stroke: #000000; stroke-width: 0.8"/>
      </g>
     </g>
     <g id="text_16">
      <!-- 0.7 -->
      <g transform="translate(20.878125 68.264795)scale(0.1 -0.1)">
       <defs>
        <path id="DejaVuSans-37" d="M 525 4666 
L 3525 4666 
L 3525 4397 
L 1831 0 
L 1172 0 
L 2766 4134 
L 525 4134 
L 525 4666 
z
" transform="scale(0.015625)"/>
       </defs>
       <use xlink:href="#DejaVuSans-30"/>
       <use xlink:href="#DejaVuSans-2e" x="63.623047"/>
       <use xlink:href="#DejaVuSans-37" x="95.410156"/>
      </g>
     </g>
    </g>
    <g id="ytick_9">
     <g id="line2d_16">
      <g>
       <use xlink:href="#m321a9cdbeb" x="43.78125" y="31.686425" style="stroke: #000000; stroke-width: 0.8"/>
      </g>
     </g>
     <g id="text_17">
      <!-- 0.8 -->
      <g transform="translate(20.878125 35.485643)scale(0.1 -0.1)">
       <defs>
        <path id="DejaVuSans-38" d="M 2034 2216 
Q 1584 2216 1326 1975 
Q 1069 1734 1069 1313 
Q 1069 891 1326 650 
Q 1584 409 2034 409 
Q 2484 409 2743 651 
Q 3003 894 3003 1313 
Q 3003 1734 2745 1975 
Q 2488 2216 2034 2216 
z
M 1403 2484 
Q 997 2584 770 2862 
Q 544 3141 544 3541 
Q 544 4100 942 4425 
Q 1341 4750 2034 4750 
Q 2731 4750 3128 4425 
Q 3525 4100 3525 3541 
Q 3525 3141 3298 2862 
Q 3072 2584 2669 2484 
Q 3125 2378 3379 2068 
Q 3634 1759 3634 1313 
Q 3634 634 3220 271 
Q 2806 -91 2034 -91 
Q 1263 -91 848 271 
Q 434 634 434 1313 
Q 434 1759 690 2068 
Q 947 2378 1403 2484 
z
M 1172 3481 
Q 1172 3119 1398 2916 
Q 1625 2713 2034 2713 
Q 2441 2713 2670 2916 
Q 2900 3119 2900 3481 
Q 2900 3844 2670 4047 
Q 2441 4250 2034 4250 
Q 1625 4250 1398 4047 
Q 1172 3844 1172 3481 
z
" transform="scale(0.015625)"/>
       </defs>
       <use xlink:href="#DejaVuSans-30"/>
       <use xlink:href="#DejaVuSans-2e" x="63.623047"/>
       <use xlink:href="#DejaVuSans-38" x="95.410156"/>
      </g>
     </g>
    </g>
    <g id="text_18">
     <!-- Wartość -->
     <g transform="translate(14.798438 178.816094)rotate(-90)scale(0.1 -0.1)">
      <defs>
       <path id="DejaVuSans-57" d="M 213 4666 
L 850 4666 
L 1831 722 
L 2809 4666 
L 3519 4666 
L 4500 722 
L 5478 4666 
L 6119 4666 
L 4947 0 
L 4153 0 
L 3169 4050 
L 2175 0 
L 1381 0 
L 213 4666 
z
" transform="scale(0.015625)"/>
       <path id="DejaVuSans-74" d="M 1172 4494 
L 1172 3500 
L 2356 3500 
L 2356 3053 
L 1172 3053 
L 1172 1153 
Q 1172 725 1289 603 
Q 1406 481 1766 481 
L 2356 481 
L 2356 0 
L 1766 0 
Q 1100 0 847 248 
Q 594 497 594 1153 
L 594 3053 
L 172 3053 
L 172 3500 
L 594 3500 
L 594 4494 
L 1172 4494 
z
" transform="scale(0.015625)"/>
       <path id="DejaVuSans-6f" d="M 1959 3097 
Q 1497 3097 1228 2736 
Q 959 2375 959 1747 
Q 959 1119 1226 758 
Q 1494 397 1959 397 
Q 2419 397 2687 759 
Q 2956 1122 2956 1747 
Q 2956 2369 2687 2733 
Q 2419 3097 1959 3097 
z
M 1959 3584 
Q 2709 3584 3137 3096 
Q 3566 2609 3566 1747 
Q 3566 888 3137 398 
Q 2709 -91 1959 -91 
Q 1206 -91 779 398 
Q 353 888 353 1747 
Q 353 2609 779 3096 
Q 1206 3584 1959 3584 
z
" transform="scale(0.015625)"/>
       <path id="DejaVuSans-15b" d="M 2242 5119 
L 2864 5119 
L 1846 3944 
L 1367 3944 
L 2242 5119 
z
M 2834 3397 
L 2834 2853 
Q 2591 2978 2328 3040 
Q 2066 3103 1784 3103 
Q 1356 3103 1142 2972 
Q 928 2841 928 2578 
Q 928 2378 1081 2264 
Q 1234 2150 1697 2047 
L 1894 2003 
Q 2506 1872 2764 1633 
Q 3022 1394 3022 966 
Q 3022 478 2636 193 
Q 2250 -91 1575 -91 
Q 1294 -91 989 -36 
Q 684 19 347 128 
L 347 722 
Q 666 556 975 473 
Q 1284 391 1588 391 
Q 1994 391 2212 530 
Q 2431 669 2431 922 
Q 2431 1156 2273 1281 
Q 2116 1406 1581 1522 
L 1381 1569 
Q 847 1681 609 1914 
Q 372 2147 372 2553 
Q 372 3047 722 3315 
Q 1072 3584 1716 3584 
Q 2034 3584 2315 3537 
Q 2597 3491 2834 3397 
z
" transform="scale(0.015625)"/>
       <path id="DejaVuSans-107" d="M 3122 3366 
L 3122 2828 
Q 2878 2963 2633 3030 
Q 2388 3097 2138 3097 
Q 1578 3097 1268 2742 
Q 959 2388 959 1747 
Q 959 1106 1268 751 
Q 1578 397 2138 397 
Q 2388 397 2633 464 
Q 2878 531 3122 666 
L 3122 134 
Q 2881 22 2623 -34 
Q 2366 -91 2075 -91 
Q 1284 -91 818 406 
Q 353 903 353 1747 
Q 353 2603 823 3093 
Q 1294 3584 2113 3584 
Q 2378 3584 2631 3529 
Q 2884 3475 3122 3366 
z
M 2466 5119 
L 3088 5119 
L 2070 3944 
L 1591 3944 
L 2466 5119 
z
" transform="scale(0.015625)"/>
      </defs>
      <use xlink:href="#DejaVuSans-57"/>
      <use xlink:href="#DejaVuSans-61" x="92.501953"/>
      <use xlink:href="#DejaVuSans-72" x="153.78125"/>
      <use xlink:href="#DejaVuSans-74" x="194.894531"/>
      <use xlink:href="#DejaVuSans-6f" x="234.103516"/>
      <use xlink:href="#DejaVuSans-15b" x="295.285156"/>
      <use xlink:href="#DejaVuSans-107" x="347.384766"/>
     </g>
    </g>
   </g>
   <g id="line2d_17">
    <path d="M 81.826705 279.646299 
L 84.371551 278.603732 
L 86.916397 278.966257 
L 89.461244 278.489927 
L 92.00609 280.072737 
L 94.550937 278.148199 
L 97.095783 279.202636 
L 99.64063 278.412412 
L 102.185476 280.419349 
L 104.730323 278.930755 
L 107.275169 279.330304 
L 109.820016 278.662026 
L 112.364862 278.940628 
L 114.909708 278.263369 
L 117.454555 277.820546 
L 119.999401 279.29307 
L 122.544248 276.025567 
L 125.089094 280.134707 
L 127.633941 278.203657 
L 130.178787 280.388417 
L 132.723634 278.392771 
L 135.26848 279.428354 
L 137.813327 277.031951 
L 140.358173 278.196935 
L 142.90302 278.755821 
L 145.447866 279.477877 
L 147.992712 279.00911 
L 150.537559 279.056008 
L 153.082405 279.723814 
L 155.627252 277.651704 
L 158.172098 278.624791 
L 160.716945 276.94619 
L 163.261791 278.366197 
L 165.806638 277.819075 
L 168.351484 279.016358 
L 170.896331 277.690251 
L 173.441177 280.047424 
L 175.986023 278.309479 
L 178.53087 279.652391 
L 181.075716 279.570885 
L 183.620563 278.391038 
L 186.165409 278.744687 
L 188.710256 279.885567 
L 191.255102 280.199303 
L 193.799949 277.122963 
L 196.344795 278.491345 
L 198.889642 276.332162 
L 201.434488 277.774751 
L 203.979335 278.978966 
L 206.524181 278.551425 
L 209.069027 278.799252 
L 211.613874 278.927184 
L 214.15872 279.438542 
L 216.703567 278.517971 
L 219.248413 279.651551 
L 221.79326 278.138851 
L 226.882953 278.037966 
L 229.427799 278.886378 
L 231.972646 278.477586 
L 234.517492 278.433787 
L 237.062338 278.184646 
L 239.607185 277.404979 
L 242.152031 279.50214 
L 247.241724 277.713201 
L 249.786571 277.652229 
L 252.331417 280.149885 
L 254.876264 277.41522 
L 257.42111 280.007721 
L 259.965957 277.550661 
L 262.510803 279.724812 
L 265.05565 278.185066 
L 267.600496 279.85915 
L 270.145342 278.293094 
L 272.690189 279.050861 
L 275.235035 279.020559 
L 277.779882 277.974473 
L 280.324728 279.038835 
L 282.869575 278.929495 
L 285.414421 280.036028 
L 287.959268 279.172071 
L 290.504114 280.20508 
L 293.048961 279.976473 
L 295.593807 279.245647 
L 298.138653 279.116875 
L 300.6835 279.724812 
L 303.228346 279.70412 
L 305.773193 279.553764 
L 308.318039 279.645564 
L 310.862886 279.255415 
L 315.952579 278.830185 
L 318.497425 278.195097 
L 321.042272 278.136383 
L 323.587118 278.362521 
L 326.131965 278.923403 
L 328.676811 278.40674 
L 331.221657 278.554313 
L 333.766504 278.483993 
L 336.31135 279.117138 
L 338.856197 277.868914 
L 341.401043 278.732976 
L 343.94589 278.484466 
L 346.490736 280.233334 
L 349.035583 278.979858 
L 354.125276 278.468448 
L 356.670122 281.05638 
L 359.214968 279.046503 
L 361.759815 280.820001 
L 364.304661 278.954178 
L 366.849508 280.511727 
L 369.394354 278.890107 
L 371.939201 279.708427 
L 374.484047 278.643592 
L 377.028894 280.261641 
L 379.57374 277.391745 
L 382.118587 278.596222 
L 384.663433 279.497098 
L 387.208279 280.712499 
L 389.753126 278.88496 
L 392.297972 279.675499 
L 394.842819 279.771605 
L 397.387665 280.713654 
L 399.932512 279.603445 
L 402.477358 279.377307 
L 405.022205 278.953337 
L 407.567051 278.867997 
L 410.111898 280.729357 
L 412.656744 280.411892 
L 415.201591 278.541447 
L 417.746437 278.5123 
L 420.291283 281.056223 
L 422.83613 280.092694 
L 425.380976 279.543156 
L 427.925823 279.308562 
L 430.470669 279.684216 
L 433.015516 279.198382 
L 438.105209 279.110678 
L 440.650055 279.791561 
L 443.194902 279.080691 
L 445.739748 280.061866 
L 448.284594 278.950134 
L 450.829441 279.710632 
L 453.374287 279.098284 
L 455.919134 279.458656 
L 458.46398 278.524484 
L 461.008827 278.68424 
L 463.553673 279.590736 
L 466.09852 280.326972 
L 468.643366 279.770397 
L 471.188213 280.834286 
L 473.733059 280.393721 
L 476.277906 278.964523 
L 478.822752 279.496626 
L 481.367598 279.779745 
L 483.912445 279.521571 
L 486.457291 279.601397 
L 489.002138 279.514114 
L 491.546984 277.689831 
L 494.091831 279.612111 
L 496.636677 278.097258 
L 499.181524 279.068507 
L 501.72637 276.99813 
L 504.271217 281.183051 
L 506.816063 279.023868 
L 509.360909 280.286954 
L 511.905756 279.296063 
L 514.450602 281.067251 
L 516.995449 277.792502 
L 519.540295 279.54053 
L 522.085142 279.893969 
L 524.629988 281.84256 
L 527.174835 279.484127 
L 529.719681 278.839796 
L 532.264528 278.49124 
L 534.809374 280.478431 
L 537.354221 277.897326 
L 539.899067 278.867052 
L 542.443913 280.993833 
L 544.98876 280.66056 
L 547.533606 280.077464 
L 550.078453 277.569672 
L 552.623299 280.031721 
L 555.168146 277.711626 
L 557.712992 280.934383 
L 560.257839 277.57046 
L 562.802685 279.615262 
L 565.347532 278.001624 
L 567.892378 280.005515 
L 570.437224 277.528866 
L 572.982071 279.389544 
L 575.526917 279.192027 
L 578.071764 280.247986 
L 580.61661 278.87577 
L 583.161457 279.894494 
L 585.706303 278.36042 
L 588.25115 279.104061 
L 590.795996 279.393797 
L 593.340843 281.085737 
L 595.885689 279.683639 
L 598.430535 279.917759 
L 600.975382 281.028861 
L 603.520228 280.413047 
L 606.065075 279.089671 
L 608.609921 279.245962 
L 611.154768 279.001548 
L 613.699614 278.624318 
L 616.244461 281.374633 
L 618.789307 279.313919 
L 621.334154 280.999557 
L 623.879 279.818765 
L 626.423847 278.891367 
L 628.968693 280.794478 
L 631.513539 280.093429 
L 634.058386 279.840192 
L 636.603232 280.023003 
L 639.148079 279.535173 
L 641.692925 281.091934 
L 644.237772 278.617649 
L 646.782618 279.962556 
L 649.327465 279.633695 
L 651.872311 280.985903 
L 654.417158 278.739803 
L 656.962004 280.657776 
L 659.50685 278.663759 
L 662.051697 279.930679 
L 664.596543 279.695823 
L 667.14139 282.141959 
L 669.686236 278.114483 
L 672.231083 279.388283 
L 674.775929 278.123044 
L 677.320776 279.234986 
L 679.865622 277.90951 
L 682.410469 279.271643 
L 684.955315 278.841371 
L 687.500162 277.136302 
L 690.045008 279.100385 
L 692.589854 278.097415 
L 695.134701 280.288634 
L 697.679547 278.399231 
L 700.224394 281.055278 
L 702.76924 278.297348 
L 705.314087 280.788071 
L 707.858933 278.597167 
L 710.40378 279.093033 
L 712.948626 278.383265 
L 715.493473 280.226822 
L 718.038319 278.410154 
L 720.583165 281.026183 
L 723.128012 278.986371 
L 725.672858 282.24358 
L 728.217705 279.537957 
L 730.762551 280.770583 
L 733.307398 278.972243 
L 735.852244 280.927241 
L 738.397091 279.784366 
L 740.941937 281.701814 
L 743.486784 278.487407 
L 746.03163 280.52202 
L 748.576477 278.454636 
L 751.121323 281.898123 
L 753.666169 279.128797 
L 756.211016 278.225557 
L 758.755862 280.858654 
L 761.300709 279.051492 
L 763.845555 280.568445 
L 766.390402 279.745871 
L 768.935248 279.649293 
L 771.480095 277.541733 
L 774.024941 279.518158 
L 776.569788 280.086234 
L 779.114634 281.368069 
L 781.65948 278.150037 
L 784.204327 278.064487 
L 786.749173 279.64236 
L 791.838866 279.724759 
L 794.383713 277.825115 
L 796.928559 280.231916 
L 799.473406 277.817342 
L 802.018252 282.171054 
L 804.563099 278.80671 
L 807.107945 281.456245 
L 809.652792 278.56114 
L 812.197638 282.004732 
L 814.742484 278.928864 
L 819.832177 278.509831 
L 822.377024 281.138937 
L 824.92187 278.944672 
L 827.466717 277.958718 
L 832.55641 279.084682 
L 835.101256 278.46057 
L 837.646103 277.640623 
L 840.190949 280.385896 
L 842.735795 278.046736 
L 842.735795 278.046736 
" clip-path="url(#pc9d8a36f16)" style="fill: none; stroke: #ff00ff; stroke-width: 0.9; stroke-linecap: square"/>
   </g>
   <g id="line2d_18">
    <path d="M 81.826705 246.924169 
L 84.371551 241.333052 
L 86.916397 243.439614 
L 89.461244 239.696833 
L 92.00609 250.270604 
L 94.550937 237.843666 
L 97.095783 245.281017 
L 99.64063 239.312829 
L 102.185476 252.049565 
L 104.730323 242.045288 
L 107.275169 246.114252 
L 109.820016 241.220036 
L 112.364862 241.648312 
L 114.909708 238.445038 
L 117.454555 234.069427 
L 119.999401 240.714087 
L 122.544248 225.94778 
L 125.089094 243.699941 
L 127.633941 234.78744 
L 130.178787 247.21233 
L 132.723634 235.977265 
L 135.26848 241.453001 
L 137.813327 229.901416 
L 140.358173 235.58554 
L 142.90302 236.176724 
L 145.447866 241.502892 
L 147.992712 237.207213 
L 150.537559 240.355133 
L 153.082405 241.911369 
L 155.627252 231.828947 
L 158.172098 236.389103 
L 160.716945 228.432989 
L 163.261791 236.251508 
L 165.806638 233.022133 
L 168.351484 241.870354 
L 170.896331 231.371104 
L 173.441177 245.405115 
L 175.986023 234.899143 
L 178.53087 242.814819 
L 181.075716 241.303538 
L 183.620563 237.018939 
L 186.165409 238.481747 
L 188.710256 243.906385 
L 191.255102 245.008927 
L 193.799949 227.96501 
L 196.344795 236.25781 
L 198.889642 224.081483 
L 203.979335 238.45801 
L 206.524181 238.050688 
L 209.069027 237.894712 
L 211.613874 240.106466 
L 214.15872 241.195668 
L 216.703567 237.691052 
L 219.248413 242.581854 
L 221.79326 233.841346 
L 224.338106 231.933404 
L 226.882953 234.008508 
L 229.427799 239.845929 
L 231.972646 235.979785 
L 234.517492 235.664736 
L 237.062338 233.587636 
L 239.607185 231.926419 
L 242.152031 241.833014 
L 244.696878 237.637904 
L 247.241724 233.11887 
L 249.786571 229.816654 
L 252.331417 245.87572 
L 254.876264 232.16201 
L 257.42111 244.911508 
L 259.965957 230.697942 
L 262.510803 243.654251 
L 265.05565 233.818921 
L 267.600496 245.185751 
L 270.145342 235.974796 
L 272.690189 240.118072 
L 275.235035 237.581974 
L 277.779882 232.811908 
L 280.324728 240.323046 
L 282.869575 241.799246 
L 285.414421 247.429277 
L 287.959268 241.436511 
L 290.504114 248.015577 
L 293.048961 244.632012 
L 295.593807 243.961738 
L 298.138653 242.842233 
L 300.6835 245.021688 
L 303.228346 246.052387 
L 305.773193 247.628317 
L 308.318039 244.042772 
L 310.862886 245.224614 
L 313.407732 240.828574 
L 315.952579 239.040108 
L 318.497425 239.700667 
L 321.042272 235.953474 
L 323.587118 240.035305 
L 326.131965 241.086853 
L 328.676811 239.90354 
L 331.221657 238.067756 
L 333.766504 240.798167 
L 336.31135 243.162639 
L 338.856197 234.206759 
L 341.401043 242.088352 
L 343.94589 240.958344 
L 346.490736 250.278797 
L 349.035583 241.651358 
L 351.580429 242.83404 
L 354.125276 239.916617 
L 356.670122 253.805628 
L 359.214968 244.277575 
L 361.759815 252.974494 
L 364.304661 244.154528 
L 366.849508 251.229932 
L 369.394354 240.732573 
L 371.939201 248.081171 
L 374.484047 240.143805 
L 377.028894 248.92869 
L 379.57374 236.658252 
L 382.118587 240.230143 
L 384.663433 245.101672 
L 387.208279 253.53338 
L 389.753126 242.552234 
L 392.297972 247.479063 
L 394.842819 246.65045 
L 397.387665 253.786197 
L 399.932512 248.669624 
L 402.477358 243.915943 
L 405.022205 241.70503 
L 407.567051 242.70821 
L 410.111898 248.941452 
L 412.656744 250.795144 
L 415.201591 240.437638 
L 417.746437 241.947291 
L 420.291283 252.111692 
L 422.83613 249.524968 
L 425.380976 246.54069 
L 427.925823 244.487958 
L 430.470669 247.011557 
L 433.015516 243.471912 
L 435.560362 244.118606 
L 438.105209 240.069021 
L 440.650055 246.685269 
L 443.194902 243.120048 
L 445.739748 249.502228 
L 448.284594 240.688931 
L 450.829441 246.506291 
L 453.374287 241.766107 
L 455.919134 245.772471 
L 458.46398 240.331028 
L 461.008827 242.335759 
L 463.553673 245.628102 
L 466.09852 251.88214 
L 468.643366 246.772132 
L 471.188213 253.422464 
L 473.733059 251.182667 
L 476.277906 243.719424 
L 478.822752 244.034001 
L 481.367598 245.56004 
L 483.912445 242.643351 
L 486.457291 243.786856 
L 489.002138 243.382213 
L 491.546984 231.740982 
L 494.091831 243.660815 
L 496.636677 238.198313 
L 499.181524 240.259342 
L 501.72637 229.554962 
L 504.271217 250.633549 
L 506.816063 241.392397 
L 509.360909 247.548806 
L 511.905756 242.87973 
L 514.450602 252.031079 
L 516.995449 233.760365 
L 519.540295 242.721181 
L 522.085142 244.196331 
L 524.629988 254.941098 
L 527.174835 242.118654 
L 529.719681 241.551996 
L 532.264528 238.603167 
L 534.809374 249.789864 
L 537.354221 235.328417 
L 539.899067 240.206143 
L 542.443913 249.907607 
L 544.98876 249.867431 
L 547.533606 245.601844 
L 550.078453 233.230889 
L 552.623299 244.416745 
L 555.168146 234.53268 
L 557.712992 250.028448 
L 560.257839 234.361632 
L 562.802685 243.048047 
L 565.347532 237.244079 
L 567.892378 246.230209 
L 570.437224 233.336658 
L 572.982071 244.291229 
L 575.526917 238.749952 
L 578.071764 246.603973 
L 580.61661 237.163833 
L 583.161457 245.148569 
L 585.706303 235.655756 
L 588.25115 240.76319 
L 590.795996 242.601495 
L 593.340843 249.885602 
L 595.885689 244.447468 
L 598.430535 246.051652 
L 600.975382 249.687823 
L 603.520228 248.155062 
L 606.065075 240.408596 
L 608.609921 241.97418 
L 611.154768 238.594396 
L 613.699614 237.756278 
L 616.244461 250.714425 
L 618.789307 240.456229 
L 621.334154 249.097952 
L 623.879 245.79852 
L 626.423847 240.127472 
L 628.968693 248.478882 
L 631.513539 245.531786 
L 634.058386 243.829553 
L 636.603232 244.868549 
L 639.148079 243.134228 
L 641.692925 248.930108 
L 644.237772 237.178433 
L 646.782618 245.064595 
L 649.327465 243.805762 
L 651.872311 251.451974 
L 654.417158 238.91496 
L 656.962004 248.285567 
L 659.50685 240.086509 
L 662.051697 245.76223 
L 664.596543 244.210038 
L 667.14139 255.127375 
L 669.686236 235.985825 
L 672.231083 243.132547 
L 674.775929 233.787621 
L 677.320776 240.794228 
L 679.865622 234.257858 
L 682.410469 243.267883 
L 684.955315 237.954162 
L 687.500162 231.374255 
L 690.045008 240.960077 
L 692.589854 235.331568 
L 695.134701 245.330908 
L 697.679547 237.441701 
L 700.224394 251.015085 
L 702.76924 237.797556 
L 705.314087 250.574888 
L 707.858933 235.870498 
L 710.40378 241.068524 
L 712.948626 237.804751 
L 715.493473 246.4491 
L 718.038319 238.656104 
L 720.583165 251.093283 
L 723.128012 240.49903 
L 725.672858 256.219151 
L 728.217705 244.740355 
L 730.762551 250.211838 
L 733.307398 239.744203 
L 735.852244 249.775631 
L 738.397091 242.744079 
L 740.941937 253.164921 
L 743.486784 236.347877 
L 746.03163 248.541325 
L 748.576477 237.752759 
L 751.121323 254.441346 
L 753.666169 242.179731 
L 756.211016 236.755881 
L 758.755862 248.219711 
L 761.300709 240.346101 
L 763.845555 247.579476 
L 766.390402 243.644745 
L 768.935248 243.166998 
L 771.480095 231.511902 
L 774.024941 242.718135 
L 776.569788 244.499512 
L 779.114634 252.619321 
L 781.65948 234.861909 
L 784.204327 235.740518 
L 786.749173 242.462798 
L 789.29402 245.178399 
L 791.838866 243.275446 
L 794.383713 234.50952 
L 796.928559 246.868501 
L 799.473406 234.553529 
L 802.018252 254.063224 
L 804.563099 239.189992 
L 807.107945 251.836661 
L 809.652792 238.402604 
L 812.197638 255.07239 
L 814.742484 241.2266 
L 817.287331 239.383359 
L 819.832177 235.955365 
L 822.377024 251.013719 
L 824.92187 240.882141 
L 827.466717 235.472471 
L 830.011563 238.256975 
L 832.55641 241.354164 
L 835.101256 237.280946 
L 837.646103 233.465272 
L 840.190949 247.601375 
L 842.735795 235.494161 
L 842.735795 235.494161 
" clip-path="url(#pc9d8a36f16)" style="fill: none; stroke: #9400d3; stroke-width: 0.9; stroke-linecap: square"/>
   </g>
   <g id="line2d_19">
    <path d="M 81.826705 250.800711 
L 84.371551 244.762202 
L 86.916397 247.926561 
L 89.461244 241.801241 
L 92.00609 254.320504 
L 94.550937 241.421596 
L 97.095783 250.29807 
L 99.64063 243.28952 
L 102.185476 255.772022 
L 104.730323 246.006434 
L 107.275169 250.921079 
L 109.820016 244.632485 
L 112.364862 246.03075 
L 114.909708 242.833725 
L 117.454555 237.282627 
L 119.999401 244.45461 
L 122.544248 229.265173 
L 125.089094 247.127777 
L 127.633941 237.758063 
L 130.178787 251.063716 
L 132.723634 239.571685 
L 135.26848 245.062179 
L 137.813327 233.297375 
L 140.358173 238.96002 
L 142.90302 238.31968 
L 145.447866 244.711838 
L 147.992712 238.854828 
L 150.537559 243.982377 
L 153.082405 244.746867 
L 155.627252 234.329491 
L 158.172098 239.291664 
L 160.716945 230.101769 
L 163.261791 239.555562 
L 165.806638 234.538036 
L 168.351484 246.167977 
L 170.896331 234.167897 
L 173.441177 249.084928 
L 175.986023 237.788996 
L 178.53087 246.596095 
L 181.075716 244.555758 
L 183.620563 239.837211 
L 186.165409 242.016088 
L 188.710256 246.60413 
L 191.255102 248.166931 
L 193.799949 229.955929 
L 196.344795 239.273231 
L 198.889642 225.325033 
L 201.434488 233.684635 
L 203.979335 241.209112 
L 206.524181 241.244456 
L 209.069027 239.921868 
L 211.613874 243.367456 
L 214.15872 244.173959 
L 216.703567 241.288991 
L 219.248413 245.928079 
L 221.79326 236.183446 
L 224.338106 234.45611 
L 226.882953 236.625692 
L 229.427799 243.596167 
L 231.972646 238.920369 
L 234.517492 237.976009 
L 237.062338 234.877034 
L 239.607185 235.460445 
L 242.152031 244.791821 
L 244.696878 240.810666 
L 247.241724 237.036532 
L 249.786571 232.261687 
L 252.331417 249.841278 
L 254.876264 235.681909 
L 257.42111 248.172393 
L 259.965957 233.512747 
L 262.510803 247.40575 
L 265.05565 236.319728 
L 267.600496 248.972069 
L 270.145342 239.545374 
L 272.690189 244.195754 
L 277.779882 235.996591 
L 280.324728 243.928495 
L 282.869575 245.555366 
L 285.414421 251.09302 
L 287.959268 244.705746 
L 290.504114 250.997754 
L 293.048961 246.460601 
L 295.593807 248.803647 
L 298.138653 246.662477 
L 300.6835 248.773029 
L 303.228346 249.640138 
L 305.773193 251.883873 
L 308.318039 247.131086 
L 310.862886 248.830431 
L 315.952579 241.091789 
L 318.497425 243.648001 
L 321.042272 237.422217 
L 323.587118 243.677096 
L 326.131965 244.100225 
L 328.676811 243.250553 
L 331.221657 239.57284 
L 333.766504 244.073389 
L 336.31135 246.088151 
L 338.856197 235.527299 
L 341.401043 246.106164 
L 343.94589 244.306249 
L 346.490736 253.719027 
L 349.035583 244.668512 
L 351.580429 248.017415 
L 354.125276 243.500061 
L 356.670122 256.598692 
L 359.214968 248.721038 
L 361.759815 256.027307 
L 364.304661 248.754281 
L 366.849508 254.694898 
L 369.394354 243.823145 
L 371.939201 251.872897 
L 374.484047 244.164138 
L 377.028894 253.283399 
L 379.57374 242.106155 
L 382.118587 244.519153 
L 384.663433 247.556894 
L 387.208279 257.225587 
L 389.753126 247.172312 
L 392.297972 251.639564 
L 394.842819 249.347198 
L 397.387665 257.847651 
L 399.932512 253.695342 
L 402.477358 247.539773 
L 405.022205 244.537009 
L 407.567051 247.177773 
L 410.111898 251.554434 
L 412.656744 254.570905 
L 415.201591 244.590891 
L 417.746437 246.220599 
L 420.291283 255.159673 
L 422.83613 253.435278 
L 425.380976 251.295 
L 427.925823 248.735217 
L 430.470669 251.477497 
L 433.015516 247.163594 
L 435.560362 248.623829 
L 438.105209 242.868124 
L 440.650055 250.399008 
L 443.194902 247.524911 
L 445.739748 253.659788 
L 448.284594 243.225292 
L 450.829441 249.95046 
L 453.374287 245.390305 
L 455.919134 249.898259 
L 458.46398 243.687967 
L 461.008827 247.192531 
L 463.553673 249.767544 
L 466.09852 255.497253 
L 468.643366 249.94253 
L 471.188213 257.26613 
L 473.733059 254.929491 
L 476.277906 248.690473 
L 478.822752 247.770007 
L 481.367598 248.364552 
L 483.912445 246.294805 
L 486.457291 247.393723 
L 489.002138 247.039759 
L 491.546984 234.067537 
L 494.091831 247.3828 
L 496.636677 242.026277 
L 499.181524 243.244356 
L 501.72637 231.801218 
L 504.271217 253.105681 
L 506.816063 244.480186 
L 509.360909 250.750662 
L 511.905756 246.682748 
L 514.450602 255.124224 
L 516.995449 236.93591 
L 519.540295 246.1403 
L 522.085142 247.33002 
L 524.629988 257.815405 
L 527.174835 245.036866 
L 529.719681 245.895256 
L 532.264528 241.090424 
L 534.809374 253.357343 
L 537.354221 239.317083 
L 539.899067 244.425725 
L 542.443913 252.827972 
L 544.98876 254.024204 
L 547.533606 249.011352 
L 550.078453 237.258522 
L 552.623299 246.937561 
L 555.168146 237.817618 
L 557.712992 252.995711 
L 560.257839 237.872498 
L 562.802685 246.709899 
L 565.347532 241.657817 
L 567.892378 250.158218 
L 570.437224 236.556212 
L 572.982071 248.495215 
L 575.526917 242.359287 
L 578.071764 249.617923 
L 580.61661 239.345599 
L 583.161457 248.257575 
L 585.706303 238.873051 
L 588.25115 244.714989 
L 590.795996 245.731508 
L 593.340843 252.923868 
L 595.885689 248.342968 
L 598.430535 250.364399 
L 600.975382 252.680556 
L 603.520228 251.896478 
L 606.065075 244.460072 
L 608.609921 245.775097 
L 611.154768 240.627014 
L 613.699614 241.025408 
L 616.244461 253.204781 
L 618.789307 243.97471 
L 621.334154 252.189155 
L 623.879 249.370463 
L 626.423847 244.281304 
L 628.968693 251.60984 
L 631.513539 248.862729 
L 634.058386 246.880475 
L 636.603232 248.657019 
L 639.148079 247.097842 
L 641.692925 251.925362 
L 644.237772 240.858719 
L 646.782618 249.068333 
L 649.327465 247.53032 
L 651.872311 254.838742 
L 654.417158 242.759624 
L 656.962004 250.832903 
L 659.50685 244.565526 
L 662.051697 249.504906 
L 664.596543 248.282626 
L 667.14139 258.125255 
L 669.686236 239.676614 
L 672.231083 247.573804 
L 674.775929 236.578584 
L 677.320776 244.380981 
L 679.865622 237.915667 
L 682.410469 247.365732 
L 687.500162 234.729303 
L 690.045008 244.902842 
L 692.589854 239.219716 
L 695.134701 248.851805 
L 697.679547 241.480888 
L 700.224394 254.263944 
L 702.76924 241.548687 
L 705.314087 254.265519 
L 707.858933 240.105048 
L 710.40378 245.625686 
L 712.948626 241.858275 
L 715.493473 250.569163 
L 718.038319 243.141685 
L 720.583165 254.676412 
L 723.128012 245.103457 
L 725.672858 258.905185 
L 728.217705 249.072954 
L 730.762551 253.964964 
L 733.307398 243.385994 
L 735.852244 253.723754 
L 738.397091 246.484812 
L 740.941937 256.250084 
L 743.486784 240.278196 
L 746.03163 252.037486 
L 748.576477 241.609344 
L 751.121323 257.446946 
L 753.666169 247.203349 
L 756.211016 241.293455 
L 758.755862 251.198054 
L 761.300709 244.963552 
L 763.845555 251.373198 
L 766.390402 247.299035 
L 768.935248 247.303394 
L 771.480095 234.240108 
L 774.024941 246.529504 
L 776.569788 246.911302 
L 779.114634 256.002046 
L 781.65948 238.833191 
L 784.204327 239.429837 
L 786.749173 245.402174 
L 789.29402 249.052893 
L 791.838866 246.590108 
L 794.383713 238.585994 
L 796.928559 250.471061 
L 799.473406 239.211366 
L 802.018252 256.610928 
L 804.563099 243.20229 
L 807.107945 254.851556 
L 809.652792 242.37751 
L 812.197638 257.817716 
L 814.742484 246.188406 
L 817.287331 243.587974 
L 819.832177 238.018495 
L 822.377024 254.431315 
L 824.92187 245.354646 
L 827.466717 239.565225 
L 830.011563 241.85985 
L 832.55641 245.220675 
L 835.101256 241.850555 
L 837.646103 236.858447 
L 840.190949 251.452709 
L 842.735795 239.113212 
L 842.735795 239.113212 
" clip-path="url(#pc9d8a36f16)" style="fill: none; stroke: #00ffff; stroke-width: 0.9; stroke-linecap: square"/>
   </g>
   <g id="line2d_20">
    <path d="M 81.826705 250.568638 
L 84.371551 244.529394 
L 86.916397 248.401629 
L 89.461244 240.314958 
L 92.00609 254.024151 
L 94.550937 241.018213 
L 97.095783 250.883687 
L 99.64063 243.428375 
L 102.185476 255.34968 
L 104.730323 246.684009 
L 107.275169 251.008783 
L 109.820016 244.762359 
L 112.364862 247.09716 
L 114.909708 243.956171 
L 117.454555 237.591899 
L 119.999401 244.312394 
L 122.544248 229.702272 
L 125.089094 245.907597 
L 127.633941 237.606552 
L 130.178787 250.292504 
L 132.723634 240.07527 
L 135.26848 243.951392 
L 137.813327 233.14266 
L 140.358173 239.518958 
L 142.90302 237.083062 
L 145.447866 244.372631 
L 147.992712 236.779041 
L 150.537559 243.710864 
L 153.082405 243.527737 
L 155.627252 234.045059 
L 158.172098 238.932711 
L 160.716945 228.150395 
L 163.261791 239.084537 
L 165.806638 232.636186 
L 168.351484 245.987003 
L 170.896331 233.49174 
L 173.441177 248.267606 
L 175.986023 237.500993 
L 178.53087 245.967834 
L 181.075716 244.136724 
L 183.620563 239.632867 
L 186.165409 242.016298 
L 188.710256 245.399023 
L 191.255102 247.215586 
L 193.799949 229.385857 
L 196.344795 238.633521 
L 198.889642 224.383666 
L 201.434488 233.591785 
L 203.979335 239.790051 
L 206.524181 240.373777 
L 209.069027 238.139652 
L 211.613874 242.795283 
L 214.15872 243.117632 
L 216.703567 241.712908 
L 219.248413 245.139274 
L 221.79326 235.886358 
L 224.338106 234.238427 
L 226.882953 236.379965 
L 229.427799 243.178447 
L 231.972646 237.739682 
L 234.517492 237.662325 
L 237.062338 232.092268 
L 239.607185 236.190116 
L 242.152031 243.480052 
L 244.696878 240.189862 
L 247.241724 237.997173 
L 249.786571 232.415615 
L 252.331417 249.065339 
L 254.876264 235.759424 
L 257.42111 247.15246 
L 259.965957 233.578709 
L 262.510803 246.92107 
L 265.05565 236.240742 
L 267.600496 248.300849 
L 270.145342 239.707231 
L 272.690189 244.441008 
L 275.235035 239.351324 
L 277.779882 235.634066 
L 280.324728 243.953703 
L 282.869575 245.554788 
L 285.414421 250.543272 
L 287.959268 244.381506 
L 290.504114 249.742073 
L 293.048961 245.397447 
L 295.593807 249.181297 
L 298.138653 246.336871 
L 300.6835 248.003025 
L 303.228346 248.709431 
L 305.773193 251.706891 
L 308.318039 246.565793 
L 310.862886 247.991051 
L 313.407732 246.213929 
L 315.952579 239.870769 
L 318.497425 243.90523 
L 321.042272 236.152356 
L 323.587118 243.670058 
L 326.131965 243.4675 
L 328.676811 242.597241 
L 331.221657 238.186024 
L 333.766504 243.742007 
L 336.31135 245.927344 
L 338.856197 234.611298 
L 341.401043 246.196546 
L 343.94589 243.425644 
L 346.490736 252.758386 
L 349.035583 244.535801 
L 351.580429 248.224437 
L 354.125276 243.474905 
L 356.670122 254.976337 
L 359.214968 249.021382 
L 361.759815 254.838479 
L 364.304661 249.125366 
L 366.849508 254.090743 
L 369.394354 244.11619 
L 371.939201 251.796905 
L 374.484047 244.808207 
L 377.028894 253.337071 
L 379.57374 243.88375 
L 382.118587 245.60032 
L 384.663433 246.314499 
L 387.208279 256.330277 
L 389.753126 247.838752 
L 392.297972 251.585367 
L 394.842819 248.320491 
L 397.387665 257.042513 
L 399.932512 253.92148 
L 402.477358 247.210281 
L 405.022205 244.220384 
L 407.567051 247.696431 
L 410.111898 250.368601 
L 412.656744 254.17519 
L 415.201591 244.56978 
L 417.746437 246.306832 
L 420.291283 254.320662 
L 422.83613 253.114609 
L 425.380976 251.646287 
L 427.925823 249.31553 
L 430.470669 251.459746 
L 433.015516 247.558364 
L 435.560362 248.988717 
L 438.105209 242.596244 
L 440.650055 250.296127 
L 443.194902 248.399214 
L 445.739748 253.308029 
L 448.284594 242.99532 
L 450.829441 249.468775 
L 453.374287 245.581992 
L 455.919134 249.987695 
L 458.46398 243.387044 
L 461.008827 247.880713 
L 463.553673 250.191776 
L 466.09852 254.957903 
L 468.643366 249.583052 
L 471.188213 256.69548 
L 473.733059 254.293563 
L 476.277906 249.819483 
L 481.367598 246.952003 
L 483.912445 245.565239 
L 486.457291 246.506239 
L 489.002138 246.034741 
L 491.546984 232.651259 
L 494.091831 246.249693 
L 496.636677 241.204753 
L 499.181524 241.981637 
L 501.72637 230.223083 
L 504.271217 250.497372 
L 506.816063 242.439795 
L 509.360909 249.240903 
L 511.905756 245.470446 
L 514.450602 252.941828 
L 516.995449 236.72101 
L 519.540295 244.459494 
L 522.085142 245.459575 
L 524.629988 255.37951 
L 527.174835 243.210377 
L 529.719681 244.993959 
L 532.264528 238.748481 
L 534.809374 251.872792 
L 537.354221 238.856614 
L 539.899067 243.996136 
L 542.443913 250.415131 
L 544.98876 252.889994 
L 547.533606 248.099709 
L 550.078453 237.451889 
L 552.623299 244.484492 
L 555.168146 236.477541 
L 557.712992 250.7911 
L 560.257839 237.43272 
L 562.802685 245.483523 
L 565.347532 241.394235 
L 567.892378 249.324195 
L 570.437224 235.473627 
L 572.982071 247.277293 
L 575.526917 241.210058 
L 578.071764 248.065258 
L 580.61661 237.516853 
L 583.161457 246.249956 
L 585.706303 236.838858 
L 588.25115 243.578784 
L 590.795996 243.778191 
L 593.340843 251.467309 
L 595.885689 247.670068 
L 598.430535 249.670177 
L 600.975382 250.653926 
L 603.520228 250.52904 
L 606.065075 244.128217 
L 608.609921 245.217051 
L 611.154768 238.654843 
L 613.699614 239.858743 
L 616.244461 250.538231 
L 618.789307 242.734626 
L 621.334154 249.789601 
L 623.879 247.521077 
L 626.423847 243.732291 
L 628.968693 250.017577 
L 631.513539 247.523545 
L 634.058386 245.740698 
L 636.603232 247.335797 
L 639.148079 246.530291 
L 641.692925 250.333047 
L 644.237772 240.443415 
L 646.782618 248.18111 
L 649.327465 246.656595 
L 651.872311 253.112771 
L 654.417158 242.331715 
L 656.962004 248.624616 
L 659.50685 244.479503 
L 662.051697 248.591846 
L 664.596543 247.694541 
L 667.14139 256.182599 
L 669.686236 239.298544 
L 672.231083 247.315893 
L 674.775929 235.943023 
L 677.320776 243.771784 
L 679.865622 237.802282 
L 682.410469 246.777016 
L 684.955315 239.746987 
L 687.500162 233.993068 
L 690.045008 243.731083 
L 692.589854 239.051872 
L 695.134701 247.618759 
L 697.679547 240.837712 
L 700.224394 252.240989 
L 702.76924 240.345103 
L 705.314087 252.564966 
L 707.858933 239.644263 
L 710.40378 244.868864 
L 712.948626 241.589913 
L 715.493473 249.265271 
L 718.038319 243.278334 
L 720.583165 253.362594 
L 723.128012 244.986712 
L 725.672858 256.827666 
L 728.217705 248.814045 
L 730.762551 252.565334 
L 733.307398 242.23645 
L 735.852244 252.654508 
L 738.397091 245.764646 
L 740.941937 254.486773 
L 743.486784 240.354503 
L 746.03163 250.751817 
L 748.576477 240.864811 
L 751.121323 255.352306 
L 753.666169 246.946541 
L 756.211016 241.663752 
L 758.755862 249.428809 
L 761.300709 245.091746 
L 763.845555 250.936099 
L 766.390402 246.849805 
L 768.935248 246.747974 
L 771.480095 233.429875 
L 774.024941 246.761681 
L 776.569788 245.022213 
L 779.114634 254.302176 
L 781.65948 238.713925 
L 784.204327 239.139785 
L 786.749173 243.997607 
L 789.29402 247.986693 
L 791.838866 245.058135 
L 794.383713 238.300669 
L 796.928559 248.93809 
L 799.473406 239.722829 
L 802.018252 254.144205 
L 804.563099 242.775484 
L 807.107945 252.577938 
L 809.652792 242.077271 
L 812.197638 255.577341 
L 814.742484 246.060317 
L 817.287331 243.122201 
L 819.832177 235.209624 
L 822.377024 253.255775 
L 824.92187 245.066328 
L 827.466717 239.824712 
L 830.011563 241.023255 
L 832.55641 244.278415 
L 835.101256 241.687069 
L 837.646103 236.247044 
L 840.190949 250.103337 
L 842.735795 238.402657 
L 842.735795 238.402657 
" clip-path="url(#pc9d8a36f16)" style="fill: none; stroke: #ffa500; stroke-width: 0.9; stroke-linecap: square"/>
   </g>
   <g id="line2d_21">
    <path d="M 81.826705 117.473993 
L 84.371551 94.710242 
L 86.916397 105.799467 
L 89.461244 84.609335 
L 92.00609 130.705018 
L 94.550937 80.839928 
L 97.095783 114.813902 
L 99.64063 88.492441 
L 102.185476 137.582432 
L 104.730323 99.141888 
L 107.275169 115.822124 
L 109.820016 93.818189 
L 112.364862 100.011465 
L 117.454555 72.117277 
L 119.999401 102.728273 
L 122.544248 44.546069 
L 125.089094 112.723674 
L 127.633941 77.994138 
L 130.178787 125.090427 
L 132.723634 83.982177 
L 135.26848 104.7444 
L 137.813327 59.658987 
L 140.358173 81.717435 
L 142.90302 81.642861 
L 145.447866 102.80395 
L 147.992712 83.055568 
L 150.537559 99.6815 
L 153.082405 104.37279 
L 155.627252 66.840318 
L 158.172098 84.811526 
L 160.716945 51.037641 
L 163.261791 85.406385 
L 165.806638 66.929334 
L 168.351484 105.589924 
L 170.896331 66.04416 
L 173.441177 118.498232 
L 175.986023 80.224902 
L 178.53087 110.504884 
L 181.075716 102.938394 
L 183.620563 84.875386 
L 186.165409 91.72066 
L 188.710256 110.657603 
L 191.255102 116.479794 
L 193.799949 53.319242 
L 196.344795 83.438259 
L 198.889642 35.15267 
L 201.434488 66.059968 
L 203.979335 90.934481 
L 206.524181 90.647318 
L 209.069027 85.889542 
L 211.613874 98.556849 
L 214.15872 100.896376 
L 216.703567 89.395628 
L 219.248413 106.548727 
L 221.79326 73.818985 
L 224.338106 69.703176 
L 226.882953 73.153857 
L 229.427799 98.553856 
L 231.972646 82.719196 
L 234.517492 80.958617 
L 237.062338 68.656618 
L 239.607185 68.300185 
L 242.152031 104.023237 
L 244.696878 90.945352 
L 247.241724 75.456832 
L 249.786571 62.881062 
L 252.331417 120.61015 
L 254.876264 69.384871 
L 257.42111 116.335425 
L 259.965957 64.601413 
L 262.510803 113.069603 
L 265.05565 74.145956 
L 267.600496 117.734005 
L 270.145342 84.836261 
L 272.690189 101.336048 
L 275.235035 87.999622 
L 277.779882 73.789418 
L 280.324728 96.664925 
L 282.869575 96.835762 
L 285.414421 117.748657 
L 287.959268 94.300557 
L 290.504114 118.040546 
L 293.048961 103.380534 
L 295.593807 107.519871 
L 298.138653 100.595033 
L 300.6835 108.956 
L 303.228346 112.48845 
L 305.773193 119.849284 
L 308.318039 104.049653 
L 310.862886 108.153803 
L 313.407732 96.402182 
L 315.952579 81.999871 
L 318.497425 89.334919 
L 321.042272 69.632121 
L 323.587118 89.759151 
L 326.131965 93.840404 
L 328.676811 89.309921 
L 331.221657 77.848771 
L 333.766504 91.468894 
L 336.31135 101.899975 
L 338.856197 63.349514 
L 341.401043 99.027401 
L 343.94589 92.42402 
L 346.490736 129.185439 
L 349.035583 96.461159 
L 351.580429 105.119109 
L 354.125276 89.552287 
L 356.670122 141.274534 
L 359.214968 107.704258 
L 361.759815 139.044137 
L 364.304661 107.994414 
L 366.849508 132.699718 
L 369.394354 92.432948 
L 371.939201 121.70744 
L 374.484047 92.822519 
L 377.028894 126.65475 
L 379.57374 81.899564 
L 384.663433 106.92916 
L 387.208279 142.135865 
L 389.753126 101.895196 
L 392.297972 119.713685 
L 394.842819 112.245349 
L 397.387665 143.497893 
L 399.932512 125.92823 
L 402.477358 105.295566 
L 405.022205 94.663975 
L 407.567051 102.526346 
L 410.111898 122.662251 
L 412.656744 131.321147 
L 415.201591 92.811491 
L 417.746437 97.653032 
L 420.291283 135.577964 
L 422.83613 126.623765 
L 425.380976 118.22299 
L 427.925823 108.772191 
L 430.470669 119.279369 
L 433.015516 103.455739 
L 435.560362 107.573123 
L 438.105209 89.626388 
L 440.650055 115.644354 
L 443.194902 105.084448 
L 445.739748 128.078381 
L 448.284594 91.180786 
L 450.829441 114.433102 
L 453.374287 97.821244 
L 455.919134 113.601968 
L 458.46398 90.976915 
L 463.553673 114.503002 
L 466.09852 134.905799 
L 468.643366 115.196699 
L 471.188213 143.035901 
L 473.733059 132.749504 
L 476.277906 108.643997 
L 478.822752 107.015445 
L 481.367598 109.6967 
L 483.912445 103.693851 
L 486.457291 111.690665 
L 489.002138 109.877411 
L 491.546984 64.52248 
L 494.091831 110.414502 
L 496.636677 90.16747 
L 499.181524 96.610727 
L 501.72637 55.336734 
L 504.271217 132.401947 
L 506.816063 99.319448 
L 509.360909 123.236052 
L 511.905756 108.009119 
L 514.450602 138.83575 
L 516.995449 71.715102 
L 519.540295 106.751022 
L 522.085142 112.622526 
L 524.629988 150.003382 
L 527.174835 104.178057 
L 529.719681 104.868025 
L 532.264528 88.754343 
L 534.809374 132.090311 
L 537.354221 82.273432 
L 539.899067 100.080314 
L 542.443913 132.047089 
L 544.98876 135.289541 
L 547.533606 117.672927 
L 550.078453 73.853646 
L 552.623299 110.342606 
L 555.168146 75.805387 
L 557.712992 133.219426 
L 560.257839 75.74347 
L 562.802685 110.211839 
L 565.347532 89.158567 
L 567.892378 121.278796 
L 570.437224 70.93617 
L 572.982071 113.5776 
L 575.526917 94.645331 
L 578.071764 119.424211 
L 580.61661 86.360094 
L 583.161457 114.350703 
L 585.706303 80.823491 
L 588.25115 102.658006 
L 590.795996 105.747422 
L 593.340843 133.093963 
L 595.885689 113.781209 
L 598.430535 121.805909 
L 600.975382 131.986327 
L 603.520228 127.619435 
L 606.065075 101.131862 
L 608.609921 105.799677 
L 611.154768 88.028191 
L 613.699614 88.893829 
L 616.244461 135.066921 
L 618.789307 101.819362 
L 621.334154 130.390861 
L 623.879 118.134447 
L 626.423847 99.989565 
L 628.968693 128.522307 
L 631.513539 116.632251 
L 634.058386 111.905197 
L 636.603232 116.078879 
L 639.148079 111.406233 
L 641.692925 129.790907 
L 644.237772 89.436119 
L 646.782618 117.441905 
L 649.327465 111.065555 
L 651.872311 138.699153 
L 654.417158 94.557628 
L 656.962004 124.6538 
L 659.50685 98.750059 
L 662.051697 119.338609 
L 664.596543 113.729584 
L 667.14139 152.174907 
L 669.686236 81.041331 
L 672.231083 110.947707 
L 674.775929 73.652506 
L 677.320776 100.993795 
L 679.865622 77.271452 
L 682.410469 108.347223 
L 684.955315 89.425931 
L 687.500162 64.399748 
L 690.045008 101.87692 
L 692.589854 81.687605 
L 695.134701 118.199725 
L 697.679547 89.037883 
L 700.224394 137.803844 
L 702.76924 90.041167 
L 705.314087 135.956874 
L 707.858933 86.489496 
L 710.40378 104.902634 
L 712.948626 90.054979 
L 715.493473 123.085118 
L 718.038319 94.645857 
L 720.583165 138.245459 
L 723.128012 102.636001 
L 725.672858 155.001529 
L 728.217705 117.707221 
L 730.762551 133.838181 
L 733.307398 96.927299 
L 735.852244 134.772301 
L 738.397091 110.410353 
L 740.941937 145.67656 
L 743.486784 86.656447 
L 746.03163 128.753749 
L 748.576477 89.174794 
L 751.121323 148.507173 
L 753.666169 109.850312 
L 756.211016 88.432047 
L 758.755862 126.761255 
L 761.300709 103.448281 
L 763.845555 125.852448 
L 766.390402 111.090868 
L 768.935248 110.803915 
L 771.480095 64.799928 
L 774.024941 107.602322 
L 776.569788 110.671573 
L 779.114634 143.50325 
L 781.65948 81.578317 
L 784.204327 82.97091 
L 786.749173 104.960928 
L 789.29402 116.76118 
L 791.838866 109.72133 
L 794.383713 79.705824 
L 796.928559 122.848371 
L 799.473406 81.644489 
L 802.018252 146.333548 
L 804.563099 97.009751 
L 807.107945 139.137933 
L 809.652792 93.904422 
L 812.197638 150.401146 
L 814.742484 105.84043 
L 817.287331 96.970941 
L 819.832177 78.792869 
L 822.377024 138.611503 
L 824.92187 102.823487 
L 827.466717 82.499885 
L 830.011563 91.386442 
L 832.55641 102.562845 
L 835.101256 90.865684 
L 837.646103 72.868322 
L 840.190949 126.259507 
L 842.735795 81.112544 
L 842.735795 81.112544 
" clip-path="url(#pc9d8a36f16)" style="fill: none; stroke: #ff4500; stroke-width: 0.9; stroke-linecap: square"/>
   </g>
   <g id="patch_3">
    <path d="M 43.78125 294.598125 
L 43.78125 22.798125 
" style="fill: none; stroke: #000000; stroke-width: 0.8; stroke-linejoin: miter; stroke-linecap: square"/>
   </g>
   <g id="patch_4">
    <path d="M 880.78125 294.598125 
L 880.78125 22.798125 
" style="fill: none; stroke: #000000; stroke-width: 0.8; stroke-linejoin: miter; stroke-linecap: square"/>
   </g>
   <g id="patch_5">
    <path d="M 43.78125 294.598125 
L 880.78125 294.598125 
" style="fill: none; stroke: #000000; stroke-width: 0.8; stroke-linejoin: miter; stroke-linecap: square"/>
   </g>
   <g id="patch_6">
    <path d="M 43.78125 22.798125 
L 880.78125 22.798125 
" style="fill: none; stroke: #000000; stroke-width: 0.8; stroke-linejoin: miter; stroke-linecap: square"/>
   </g>
   <g id="text_19">
    <!-- Wartość średnia z próbki 1 sekunda -->
    <g transform="translate(355.576875 16.798125)scale(0.12 -0.12)">
     <defs>
      <path id="DejaVuSans-20" transform="scale(0.015625)"/>
      <path id="DejaVuSans-65" d="M 3597 1894 
L 3597 1613 
L 953 1613 
Q 991 1019 1311 708 
Q 1631 397 2203 397 
Q 2534 397 2845 478 
Q 3156 559 3463 722 
L 3463 178 
Q 3153 47 2828 -22 
Q 2503 -91 2169 -91 
Q 1331 -91 842 396 
Q 353 884 353 1716 
Q 353 2575 817 3079 
Q 1281 3584 2069 3584 
Q 2775 3584 3186 3129 
Q 3597 2675 3597 1894 
z
M 3022 2063 
Q 3016 2534 2758 2815 
Q 2500 3097 2075 3097 
Q 1594 3097 1305 2825 
Q 1016 2553 972 2059 
L 3022 2063 
z
" transform="scale(0.015625)"/>
      <path id="DejaVuSans-64" d="M 2906 2969 
L 2906 4863 
L 3481 4863 
L 3481 0 
L 2906 0 
L 2906 525 
Q 2725 213 2448 61 
Q 2172 -91 1784 -91 
Q 1150 -91 751 415 
Q 353 922 353 1747 
Q 353 2572 751 3078 
Q 1150 3584 1784 3584 
Q 2172 3584 2448 3432 
Q 2725 3281 2906 2969 
z
M 947 1747 
Q 947 1113 1208 752 
Q 1469 391 1925 391 
Q 2381 391 2643 752 
Q 2906 1113 2906 1747 
Q 2906 2381 2643 2742 
Q 2381 3103 1925 3103 
Q 1469 3103 1208 2742 
Q 947 2381 947 1747 
z
" transform="scale(0.015625)"/>
      <path id="DejaVuSans-6e" d="M 3513 2113 
L 3513 0 
L 2938 0 
L 2938 2094 
Q 2938 2591 2744 2837 
Q 2550 3084 2163 3084 
Q 1697 3084 1428 2787 
Q 1159 2491 1159 1978 
L 1159 0 
L 581 0 
L 581 3500 
L 1159 3500 
L 1159 2956 
Q 1366 3272 1645 3428 
Q 1925 3584 2291 3584 
Q 2894 3584 3203 3211 
Q 3513 2838 3513 2113 
z
" transform="scale(0.015625)"/>
      <path id="DejaVuSans-69" d="M 603 3500 
L 1178 3500 
L 1178 0 
L 603 0 
L 603 3500 
z
M 603 4863 
L 1178 4863 
L 1178 4134 
L 603 4134 
L 603 4863 
z
" transform="scale(0.015625)"/>
      <path id="DejaVuSans-7a" d="M 353 3500 
L 3084 3500 
L 3084 2975 
L 922 459 
L 3084 459 
L 3084 0 
L 275 0 
L 275 525 
L 2438 3041 
L 353 3041 
L 353 3500 
z
" transform="scale(0.015625)"/>
      <path id="DejaVuSans-70" d="M 1159 525 
L 1159 -1331 
L 581 -1331 
L 581 3500 
L 1159 3500 
L 1159 2969 
Q 1341 3281 1617 3432 
Q 1894 3584 2278 3584 
Q 2916 3584 3314 3078 
Q 3713 2572 3713 1747 
Q 3713 922 3314 415 
Q 2916 -91 2278 -91 
Q 1894 -91 1617 61 
Q 1341 213 1159 525 
z
M 3116 1747 
Q 3116 2381 2855 2742 
Q 2594 3103 2138 3103 
Q 1681 3103 1420 2742 
Q 1159 2381 1159 1747 
Q 1159 1113 1420 752 
Q 1681 391 2138 391 
Q 2594 391 2855 752 
Q 3116 1113 3116 1747 
z
" transform="scale(0.015625)"/>
      <path id="DejaVuSans-73" d="M 2834 3397 
L 2834 2853 
Q 2591 2978 2328 3040 
Q 2066 3103 1784 3103 
Q 1356 3103 1142 2972 
Q 928 2841 928 2578 
Q 928 2378 1081 2264 
Q 1234 2150 1697 2047 
L 1894 2003 
Q 2506 1872 2764 1633 
Q 3022 1394 3022 966 
Q 3022 478 2636 193 
Q 2250 -91 1575 -91 
Q 1294 -91 989 -36 
Q 684 19 347 128 
L 347 722 
Q 666 556 975 473 
Q 1284 391 1588 391 
Q 1994 391 2212 530 
Q 2431 669 2431 922 
Q 2431 1156 2273 1281 
Q 2116 1406 1581 1522 
L 1381 1569 
Q 847 1681 609 1914 
Q 372 2147 372 2553 
Q 372 3047 722 3315 
Q 1072 3584 1716 3584 
Q 2034 3584 2315 3537 
Q 2597 3491 2834 3397 
z
" transform="scale(0.015625)"/>
      <path id="DejaVuSans-75" d="M 544 1381 
L 544 3500 
L 1119 3500 
L 1119 1403 
Q 1119 906 1312 657 
Q 1506 409 1894 409 
Q 2359 409 2629 706 
Q 2900 1003 2900 1516 
L 2900 3500 
L 3475 3500 
L 3475 0 
L 2900 0 
L 2900 538 
Q 2691 219 2414 64 
Q 2138 -91 1772 -91 
Q 1169 -91 856 284 
Q 544 659 544 1381 
z
M 1991 3584 
L 1991 3584 
z
" transform="scale(0.015625)"/>
     </defs>
     <use xlink:href="#DejaVuSans-57"/>
     <use xlink:href="#DejaVuSans-61" x="92.501953"/>
     <use xlink:href="#DejaVuSans-72" x="153.78125"/>
     <use xlink:href="#DejaVuSans-74" x="194.894531"/>
     <use xlink:href="#DejaVuSans-6f" x="234.103516"/>
     <use xlink:href="#DejaVuSans-15b" x="295.285156"/>
     <use xlink:href="#DejaVuSans-107" x="347.384766"/>
     <use xlink:href="#DejaVuSans-20" x="402.365234"/>
     <use xlink:href="#DejaVuSans-15b" x="434.152344"/>
     <use xlink:href="#DejaVuSans-72" x="486.251953"/>
     <use xlink:href="#DejaVuSans-65" x="525.115234"/>
     <use xlink:href="#DejaVuSans-64" x="586.638672"/>
     <use xlink:href="#DejaVuSans-6e" x="650.115234"/>
     <use xlink:href="#DejaVuSans-69" x="713.494141"/>
     <use xlink:href="#DejaVuSans-61" x="741.277344"/>
     <use xlink:href="#DejaVuSans-20" x="802.556641"/>
     <use xlink:href="#DejaVuSans-7a" x="834.34375"/>
     <use xlink:href="#DejaVuSans-20" x="886.833984"/>
     <use xlink:href="#DejaVuSans-70" x="918.621094"/>
     <use xlink:href="#DejaVuSans-72" x="982.097656"/>
     <use xlink:href="#DejaVuSans-f3" x="1020.960938"/>
     <use xlink:href="#DejaVuSans-62" x="1082.142578"/>
     <use xlink:href="#DejaVuSans-6b" x="1145.619141"/>
     <use xlink:href="#DejaVuSans-69" x="1203.529297"/>
     <use xlink:href="#DejaVuSans-20" x="1231.3125"/>
     <use xlink:href="#DejaVuSans-31" x="1263.099609"/>
     <use xlink:href="#DejaVuSans-20" x="1326.722656"/>
     <use xlink:href="#DejaVuSans-73" x="1358.509766"/>
     <use xlink:href="#DejaVuSans-65" x="1410.609375"/>
     <use xlink:href="#DejaVuSans-6b" x="1472.132812"/>
     <use xlink:href="#DejaVuSans-75" x="1526.917969"/>
     <use xlink:href="#DejaVuSans-6e" x="1590.296875"/>
     <use xlink:href="#DejaVuSans-64" x="1653.675781"/>
     <use xlink:href="#DejaVuSans-61" x="1717.152344"/>
    </g>
   </g>
   <g id="legend_1">
    <g id="patch_7">
     <path d="M 796.646875 105.579375 
L 873.78125 105.579375 
Q 875.78125 105.579375 875.78125 103.579375 
L 875.78125 29.798125 
Q 875.78125 27.798125 873.78125 27.798125 
L 796.646875 27.798125 
Q 794.646875 27.798125 794.646875 29.798125 
L 794.646875 103.579375 
Q 794.646875 105.579375 796.646875 105.579375 
z
" style="fill: #ffffff; opacity: 0.8; stroke: #cccccc; stroke-linejoin: miter"/>
    </g>
    <g id="line2d_22">
     <path d="M 798.646875 35.896563 
L 808.646875 35.896563 
L 818.646875 35.896563 
" style="fill: none; stroke: #ff00ff; stroke-width: 0.9; stroke-linecap: square"/>
    </g>
    <g id="text_20">
     <!-- CH1_2KS -->
     <g transform="translate(826.646875 39.396563)scale(0.1 -0.1)">
      <defs>
       <path id="DejaVuSans-43" d="M 4122 4306 
L 4122 3641 
Q 3803 3938 3442 4084 
Q 3081 4231 2675 4231 
Q 1875 4231 1450 3742 
Q 1025 3253 1025 2328 
Q 1025 1406 1450 917 
Q 1875 428 2675 428 
Q 3081 428 3442 575 
Q 3803 722 4122 1019 
L 4122 359 
Q 3791 134 3420 21 
Q 3050 -91 2638 -91 
Q 1578 -91 968 557 
Q 359 1206 359 2328 
Q 359 3453 968 4101 
Q 1578 4750 2638 4750 
Q 3056 4750 3426 4639 
Q 3797 4528 4122 4306 
z
" transform="scale(0.015625)"/>
       <path id="DejaVuSans-48" d="M 628 4666 
L 1259 4666 
L 1259 2753 
L 3553 2753 
L 3553 4666 
L 4184 4666 
L 4184 0 
L 3553 0 
L 3553 2222 
L 1259 2222 
L 1259 0 
L 628 0 
L 628 4666 
z
" transform="scale(0.015625)"/>
       <path id="DejaVuSans-5f" d="M 3263 -1063 
L 3263 -1509 
L -63 -1509 
L -63 -1063 
L 3263 -1063 
z
" transform="scale(0.015625)"/>
       <path id="DejaVuSans-4b" d="M 628 4666 
L 1259 4666 
L 1259 2694 
L 3353 4666 
L 4166 4666 
L 1850 2491 
L 4331 0 
L 3500 0 
L 1259 2247 
L 1259 0 
L 628 0 
L 628 4666 
z
" transform="scale(0.015625)"/>
       <path id="DejaVuSans-53" d="M 3425 4513 
L 3425 3897 
Q 3066 4069 2747 4153 
Q 2428 4238 2131 4238 
Q 1616 4238 1336 4038 
Q 1056 3838 1056 3469 
Q 1056 3159 1242 3001 
Q 1428 2844 1947 2747 
L 2328 2669 
Q 3034 2534 3370 2195 
Q 3706 1856 3706 1288 
Q 3706 609 3251 259 
Q 2797 -91 1919 -91 
Q 1588 -91 1214 -16 
Q 841 59 441 206 
L 441 856 
Q 825 641 1194 531 
Q 1563 422 1919 422 
Q 2459 422 2753 634 
Q 3047 847 3047 1241 
Q 3047 1584 2836 1778 
Q 2625 1972 2144 2069 
L 1759 2144 
Q 1053 2284 737 2584 
Q 422 2884 422 3419 
Q 422 4038 858 4394 
Q 1294 4750 2059 4750 
Q 2388 4750 2728 4690 
Q 3069 4631 3425 4513 
z
" transform="scale(0.015625)"/>
      </defs>
      <use xlink:href="#DejaVuSans-43"/>
      <use xlink:href="#DejaVuSans-48" x="69.824219"/>
      <use xlink:href="#DejaVuSans-31" x="145.019531"/>
      <use xlink:href="#DejaVuSans-5f" x="208.642578"/>
      <use xlink:href="#DejaVuSans-32" x="258.642578"/>
      <use xlink:href="#DejaVuSans-4b" x="322.265625"/>
      <use xlink:href="#DejaVuSans-53" x="387.841797"/>
     </g>
    </g>
    <g id="line2d_23">
     <path d="M 798.646875 50.852813 
L 808.646875 50.852813 
L 818.646875 50.852813 
" style="fill: none; stroke: #9400d3; stroke-width: 0.9; stroke-linecap: square"/>
    </g>
    <g id="text_21">
     <!-- CH2_2KS -->
     <g transform="translate(826.646875 54.352813)scale(0.1 -0.1)">
      <use xlink:href="#DejaVuSans-43"/>
      <use xlink:href="#DejaVuSans-48" x="69.824219"/>
      <use xlink:href="#DejaVuSans-32" x="145.019531"/>
      <use xlink:href="#DejaVuSans-5f" x="208.642578"/>
      <use xlink:href="#DejaVuSans-32" x="258.642578"/>
      <use xlink:href="#DejaVuSans-4b" x="322.265625"/>
      <use xlink:href="#DejaVuSans-53" x="387.841797"/>
     </g>
    </g>
    <g id="line2d_24">
     <path d="M 798.646875 65.809063 
L 808.646875 65.809063 
L 818.646875 65.809063 
" style="fill: none; stroke: #00ffff; stroke-width: 0.9; stroke-linecap: square"/>
    </g>
    <g id="text_22">
     <!-- CH3_2KS -->
     <g transform="translate(826.646875 69.309063)scale(0.1 -0.1)">
      <use xlink:href="#DejaVuSans-43"/>
      <use xlink:href="#DejaVuSans-48" x="69.824219"/>
      <use xlink:href="#DejaVuSans-33" x="145.019531"/>
      <use xlink:href="#DejaVuSans-5f" x="208.642578"/>
      <use xlink:href="#DejaVuSans-32" x="258.642578"/>
      <use xlink:href="#DejaVuSans-4b" x="322.265625"/>
      <use xlink:href="#DejaVuSans-53" x="387.841797"/>
     </g>
    </g>
    <g id="line2d_25">
     <path d="M 798.646875 80.765313 
L 808.646875 80.765313 
L 818.646875 80.765313 
" style="fill: none; stroke: #ffa500; stroke-width: 0.9; stroke-linecap: square"/>
    </g>
    <g id="text_23">
     <!-- CH4_2KS -->
     <g transform="translate(826.646875 84.265313)scale(0.1 -0.1)">
      <use xlink:href="#DejaVuSans-43"/>
      <use xlink:href="#DejaVuSans-48" x="69.824219"/>
      <use xlink:href="#DejaVuSans-34" x="145.019531"/>
      <use xlink:href="#DejaVuSans-5f" x="208.642578"/>
      <use xlink:href="#DejaVuSans-32" x="258.642578"/>
      <use xlink:href="#DejaVuSans-4b" x="322.265625"/>
      <use xlink:href="#DejaVuSans-53" x="387.841797"/>
     </g>
    </g>
    <g id="line2d_26">
     <path d="M 798.646875 95.721563 
L 808.646875 95.721563 
L 818.646875 95.721563 
" style="fill: none; stroke: #ff4500; stroke-width: 0.9; stroke-linecap: square"/>
    </g>
    <g id="text_24">
     <!-- CH5_2KS -->
     <g transform="translate(826.646875 99.221563)scale(0.1 -0.1)">
      <use xlink:href="#DejaVuSans-43"/>
      <use xlink:href="#DejaVuSans-48" x="69.824219"/>
      <use xlink:href="#DejaVuSans-35" x="145.019531"/>
      <use xlink:href="#DejaVuSans-5f" x="208.642578"/>
      <use xlink:href="#DejaVuSans-32" x="258.642578"/>
      <use xlink:href="#DejaVuSans-4b" x="322.265625"/>
      <use xlink:href="#DejaVuSans-53" x="387.841797"/>
     </g>
    </g>
   </g>
  </g>
 </g>
 <defs>
  <clipPath id="pc9d8a36f16">
   <rect x="43.78125" y="22.798125" width="837" height="271.8"/>
  </clipPath>
 </defs>
</svg>
