<?xml version="1.0" encoding="utf-8" standalone="no"?>
<!DOCTYPE svg PUBLIC "-//W3C//DTD SVG 1.1//EN"
  "http://www.w3.org/Graphics/SVG/1.1/DTD/svg11.dtd">
<svg xmlns:xlink="http://www.w3.org/1999/xlink" width="887.98125pt" height="332.154375pt" viewBox="0 0 887.98125 332.154375" xmlns="http://www.w3.org/2000/svg" version="1.1">
 <metadata>
  <rdf:RDF xmlns:dc="http://purl.org/dc/elements/1.1/" xmlns:cc="http://creativecommons.org/ns#" xmlns:rdf="http://www.w3.org/1999/02/22-rdf-syntax-ns#">
   <cc:Work>
    <dc:type rdf:resource="http://purl.org/dc/dcmitype/StillImage"/>
    <dc:date>2022-06-21T21:13:39.808182</dc:date>
    <dc:format>image/svg+xml</dc:format>
    <dc:creator>
     <cc:Agent>
      <dc:title>Matplotlib v3.5.2, https://matplotlib.org/</dc:title>
     </cc:Agent>
    </dc:creator>
   </cc:Work>
  </rdf:RDF>
 </metadata>
 <defs>
  <style type="text/css">*{stroke-linejoin: round; stroke-linecap: butt}</style>
 </defs>
 <g id="figure_1">
  <g id="patch_1">
   <path d="M 0 332.154375 
L 887.98125 332.154375 
L 887.98125 0 
L 0 0 
L 0 332.154375 
z
" style="fill: none"/>
  </g>
  <g id="axes_1">
   <g id="patch_2">
    <path d="M 43.78125 294.598125 
L 880.78125 294.598125 
L 880.78125 22.798125 
L 43.78125 22.798125 
z
" style="fill: #ffffff"/>
   </g>
   <g id="matplotlib.axis_1">
    <g id="xtick_1">
     <g id="line2d_1">
      <defs>
       <path id="m96e91804de" d="M 0 0 
L 0 3.5 
" style="stroke: #000000; stroke-width: 0.8"/>
      </defs>
      <g>
       <use xlink:href="#m96e91804de" x="81.826705" y="294.598125" style="stroke: #000000; stroke-width: 0.8"/>
      </g>
     </g>
     <g id="text_1">
      <!-- 0 -->
      <g transform="translate(78.645455 309.196562)scale(0.1 -0.1)">
       <defs>
        <path id="DejaVuSans-30" d="M 2034 4250 
Q 1547 4250 1301 3770 
Q 1056 3291 1056 2328 
Q 1056 1369 1301 889 
Q 1547 409 2034 409 
Q 2525 409 2770 889 
Q 3016 1369 3016 2328 
Q 3016 3291 2770 3770 
Q 2525 4250 2034 4250 
z
M 2034 4750 
Q 2819 4750 3233 4129 
Q 3647 3509 3647 2328 
Q 3647 1150 3233 529 
Q 2819 -91 2034 -91 
Q 1250 -91 836 529 
Q 422 1150 422 2328 
Q 422 3509 836 4129 
Q 1250 4750 2034 4750 
z
" transform="scale(0.015625)"/>
       </defs>
       <use xlink:href="#DejaVuSans-30"/>
      </g>
     </g>
    </g>
    <g id="xtick_2">
     <g id="line2d_2">
      <g>
       <use xlink:href="#m96e91804de" x="209.069027" y="294.598125" style="stroke: #000000; stroke-width: 0.8"/>
      </g>
     </g>
     <g id="text_2">
      <!-- 50 -->
      <g transform="translate(202.706527 309.196562)scale(0.1 -0.1)">
       <defs>
        <path id="DejaVuSans-35" d="M 691 4666 
L 3169 4666 
L 3169 4134 
L 1269 4134 
L 1269 2991 
Q 1406 3038 1543 3061 
Q 1681 3084 1819 3084 
Q 2600 3084 3056 2656 
Q 3513 2228 3513 1497 
Q 3513 744 3044 326 
Q 2575 -91 1722 -91 
Q 1428 -91 1123 -41 
Q 819 9 494 109 
L 494 744 
Q 775 591 1075 516 
Q 1375 441 1709 441 
Q 2250 441 2565 725 
Q 2881 1009 2881 1497 
Q 2881 1984 2565 2268 
Q 2250 2553 1709 2553 
Q 1456 2553 1204 2497 
Q 953 2441 691 2322 
L 691 4666 
z
" transform="scale(0.015625)"/>
       </defs>
       <use xlink:href="#DejaVuSans-35"/>
       <use xlink:href="#DejaVuSans-30" x="63.623047"/>
      </g>
     </g>
    </g>
    <g id="xtick_3">
     <g id="line2d_3">
      <g>
       <use xlink:href="#m96e91804de" x="336.31135" y="294.598125" style="stroke: #000000; stroke-width: 0.8"/>
      </g>
     </g>
     <g id="text_3">
      <!-- 100 -->
      <g transform="translate(326.7676 309.196562)scale(0.1 -0.1)">
       <defs>
        <path id="DejaVuSans-31" d="M 794 531 
L 1825 531 
L 1825 4091 
L 703 3866 
L 703 4441 
L 1819 4666 
L 2450 4666 
L 2450 531 
L 3481 531 
L 3481 0 
L 794 0 
L 794 531 
z
" transform="scale(0.015625)"/>
       </defs>
       <use xlink:href="#DejaVuSans-31"/>
       <use xlink:href="#DejaVuSans-30" x="63.623047"/>
       <use xlink:href="#DejaVuSans-30" x="127.246094"/>
      </g>
     </g>
    </g>
    <g id="xtick_4">
     <g id="line2d_4">
      <g>
       <use xlink:href="#m96e91804de" x="463.553673" y="294.598125" style="stroke: #000000; stroke-width: 0.8"/>
      </g>
     </g>
     <g id="text_4">
      <!-- 150 -->
      <g transform="translate(454.009923 309.196562)scale(0.1 -0.1)">
       <use xlink:href="#DejaVuSans-31"/>
       <use xlink:href="#DejaVuSans-35" x="63.623047"/>
       <use xlink:href="#DejaVuSans-30" x="127.246094"/>
      </g>
     </g>
    </g>
    <g id="xtick_5">
     <g id="line2d_5">
      <g>
       <use xlink:href="#m96e91804de" x="590.795996" y="294.598125" style="stroke: #000000; stroke-width: 0.8"/>
      </g>
     </g>
     <g id="text_5">
      <!-- 200 -->
      <g transform="translate(581.252246 309.196562)scale(0.1 -0.1)">
       <defs>
        <path id="DejaVuSans-32" d="M 1228 531 
L 3431 531 
L 3431 0 
L 469 0 
L 469 531 
Q 828 903 1448 1529 
Q 2069 2156 2228 2338 
Q 2531 2678 2651 2914 
Q 2772 3150 2772 3378 
Q 2772 3750 2511 3984 
Q 2250 4219 1831 4219 
Q 1534 4219 1204 4116 
Q 875 4013 500 3803 
L 500 4441 
Q 881 4594 1212 4672 
Q 1544 4750 1819 4750 
Q 2544 4750 2975 4387 
Q 3406 4025 3406 3419 
Q 3406 3131 3298 2873 
Q 3191 2616 2906 2266 
Q 2828 2175 2409 1742 
Q 1991 1309 1228 531 
z
" transform="scale(0.015625)"/>
       </defs>
       <use xlink:href="#DejaVuSans-32"/>
       <use xlink:href="#DejaVuSans-30" x="63.623047"/>
       <use xlink:href="#DejaVuSans-30" x="127.246094"/>
      </g>
     </g>
    </g>
    <g id="xtick_6">
     <g id="line2d_6">
      <g>
       <use xlink:href="#m96e91804de" x="718.038319" y="294.598125" style="stroke: #000000; stroke-width: 0.8"/>
      </g>
     </g>
     <g id="text_6">
      <!-- 250 -->
      <g transform="translate(708.494569 309.196562)scale(0.1 -0.1)">
       <use xlink:href="#DejaVuSans-32"/>
       <use xlink:href="#DejaVuSans-35" x="63.623047"/>
       <use xlink:href="#DejaVuSans-30" x="127.246094"/>
      </g>
     </g>
    </g>
    <g id="xtick_7">
     <g id="line2d_7">
      <g>
       <use xlink:href="#m96e91804de" x="845.280642" y="294.598125" style="stroke: #000000; stroke-width: 0.8"/>
      </g>
     </g>
     <g id="text_7">
      <!-- 300 -->
      <g transform="translate(835.736892 309.196562)scale(0.1 -0.1)">
       <defs>
        <path id="DejaVuSans-33" d="M 2597 2516 
Q 3050 2419 3304 2112 
Q 3559 1806 3559 1356 
Q 3559 666 3084 287 
Q 2609 -91 1734 -91 
Q 1441 -91 1130 -33 
Q 819 25 488 141 
L 488 750 
Q 750 597 1062 519 
Q 1375 441 1716 441 
Q 2309 441 2620 675 
Q 2931 909 2931 1356 
Q 2931 1769 2642 2001 
Q 2353 2234 1838 2234 
L 1294 2234 
L 1294 2753 
L 1863 2753 
Q 2328 2753 2575 2939 
Q 2822 3125 2822 3475 
Q 2822 3834 2567 4026 
Q 2313 4219 1838 4219 
Q 1578 4219 1281 4162 
Q 984 4106 628 3988 
L 628 4550 
Q 988 4650 1302 4700 
Q 1616 4750 1894 4750 
Q 2613 4750 3031 4423 
Q 3450 4097 3450 3541 
Q 3450 3153 3228 2886 
Q 3006 2619 2597 2516 
z
" transform="scale(0.015625)"/>
       </defs>
       <use xlink:href="#DejaVuSans-33"/>
       <use xlink:href="#DejaVuSans-30" x="63.623047"/>
       <use xlink:href="#DejaVuSans-30" x="127.246094"/>
      </g>
     </g>
    </g>
    <g id="text_8">
     <!-- Próbka -->
     <g transform="translate(445.305469 322.874687)scale(0.1 -0.1)">
      <defs>
       <path id="DejaVuSans-50" d="M 1259 4147 
L 1259 2394 
L 2053 2394 
Q 2494 2394 2734 2622 
Q 2975 2850 2975 3272 
Q 2975 3691 2734 3919 
Q 2494 4147 2053 4147 
L 1259 4147 
z
M 628 4666 
L 2053 4666 
Q 2838 4666 3239 4311 
Q 3641 3956 3641 3272 
Q 3641 2581 3239 2228 
Q 2838 1875 2053 1875 
L 1259 1875 
L 1259 0 
L 628 0 
L 628 4666 
z
" transform="scale(0.015625)"/>
       <path id="DejaVuSans-72" d="M 2631 2963 
Q 2534 3019 2420 3045 
Q 2306 3072 2169 3072 
Q 1681 3072 1420 2755 
Q 1159 2438 1159 1844 
L 1159 0 
L 581 0 
L 581 3500 
L 1159 3500 
L 1159 2956 
Q 1341 3275 1631 3429 
Q 1922 3584 2338 3584 
Q 2397 3584 2469 3576 
Q 2541 3569 2628 3553 
L 2631 2963 
z
" transform="scale(0.015625)"/>
       <path id="DejaVuSans-f3" d="M 1959 3097 
Q 1497 3097 1228 2736 
Q 959 2375 959 1747 
Q 959 1119 1226 758 
Q 1494 397 1959 397 
Q 2419 397 2687 759 
Q 2956 1122 2956 1747 
Q 2956 2369 2687 2733 
Q 2419 3097 1959 3097 
z
M 1959 3584 
Q 2709 3584 3137 3096 
Q 3566 2609 3566 1747 
Q 3566 888 3137 398 
Q 2709 -91 1959 -91 
Q 1206 -91 779 398 
Q 353 888 353 1747 
Q 353 2609 779 3096 
Q 1206 3584 1959 3584 
z
M 2394 5119 
L 3016 5119 
L 1998 3944 
L 1519 3944 
L 2394 5119 
z
" transform="scale(0.015625)"/>
       <path id="DejaVuSans-62" d="M 3116 1747 
Q 3116 2381 2855 2742 
Q 2594 3103 2138 3103 
Q 1681 3103 1420 2742 
Q 1159 2381 1159 1747 
Q 1159 1113 1420 752 
Q 1681 391 2138 391 
Q 2594 391 2855 752 
Q 3116 1113 3116 1747 
z
M 1159 2969 
Q 1341 3281 1617 3432 
Q 1894 3584 2278 3584 
Q 2916 3584 3314 3078 
Q 3713 2572 3713 1747 
Q 3713 922 3314 415 
Q 2916 -91 2278 -91 
Q 1894 -91 1617 61 
Q 1341 213 1159 525 
L 1159 0 
L 581 0 
L 581 4863 
L 1159 4863 
L 1159 2969 
z
" transform="scale(0.015625)"/>
       <path id="DejaVuSans-6b" d="M 581 4863 
L 1159 4863 
L 1159 1991 
L 2875 3500 
L 3609 3500 
L 1753 1863 
L 3688 0 
L 2938 0 
L 1159 1709 
L 1159 0 
L 581 0 
L 581 4863 
z
" transform="scale(0.015625)"/>
       <path id="DejaVuSans-61" d="M 2194 1759 
Q 1497 1759 1228 1600 
Q 959 1441 959 1056 
Q 959 750 1161 570 
Q 1363 391 1709 391 
Q 2188 391 2477 730 
Q 2766 1069 2766 1631 
L 2766 1759 
L 2194 1759 
z
M 3341 1997 
L 3341 0 
L 2766 0 
L 2766 531 
Q 2569 213 2275 61 
Q 1981 -91 1556 -91 
Q 1019 -91 701 211 
Q 384 513 384 1019 
Q 384 1609 779 1909 
Q 1175 2209 1959 2209 
L 2766 2209 
L 2766 2266 
Q 2766 2663 2505 2880 
Q 2244 3097 1772 3097 
Q 1472 3097 1187 3025 
Q 903 2953 641 2809 
L 641 3341 
Q 956 3463 1253 3523 
Q 1550 3584 1831 3584 
Q 2591 3584 2966 3190 
Q 3341 2797 3341 1997 
z
" transform="scale(0.015625)"/>
      </defs>
      <use xlink:href="#DejaVuSans-50"/>
      <use xlink:href="#DejaVuSans-72" x="58.552734"/>
      <use xlink:href="#DejaVuSans-f3" x="97.416016"/>
      <use xlink:href="#DejaVuSans-62" x="158.597656"/>
      <use xlink:href="#DejaVuSans-6b" x="222.074219"/>
      <use xlink:href="#DejaVuSans-61" x="278.234375"/>
     </g>
    </g>
   </g>
   <g id="matplotlib.axis_2">
    <g id="ytick_1">
     <g id="line2d_8">
      <defs>
       <path id="m7e86af6eae" d="M 0 0 
L -3.5 0 
" style="stroke: #000000; stroke-width: 0.8"/>
      </defs>
      <g>
       <use xlink:href="#m7e86af6eae" x="43.78125" y="293.917942" style="stroke: #000000; stroke-width: 0.8"/>
      </g>
     </g>
     <g id="text_9">
      <!-- 0.0 -->
      <g transform="translate(20.878125 297.717161)scale(0.1 -0.1)">
       <defs>
        <path id="DejaVuSans-2e" d="M 684 794 
L 1344 794 
L 1344 0 
L 684 0 
L 684 794 
z
" transform="scale(0.015625)"/>
       </defs>
       <use xlink:href="#DejaVuSans-30"/>
       <use xlink:href="#DejaVuSans-2e" x="63.623047"/>
       <use xlink:href="#DejaVuSans-30" x="95.410156"/>
      </g>
     </g>
    </g>
    <g id="ytick_2">
     <g id="line2d_9">
      <g>
       <use xlink:href="#m7e86af6eae" x="43.78125" y="261.139566" style="stroke: #000000; stroke-width: 0.8"/>
      </g>
     </g>
     <g id="text_10">
      <!-- 0.1 -->
      <g transform="translate(20.878125 264.938784)scale(0.1 -0.1)">
       <use xlink:href="#DejaVuSans-30"/>
       <use xlink:href="#DejaVuSans-2e" x="63.623047"/>
       <use xlink:href="#DejaVuSans-31" x="95.410156"/>
      </g>
     </g>
    </g>
    <g id="ytick_3">
     <g id="line2d_10">
      <g>
       <use xlink:href="#m7e86af6eae" x="43.78125" y="228.361189" style="stroke: #000000; stroke-width: 0.8"/>
      </g>
     </g>
     <g id="text_11">
      <!-- 0.2 -->
      <g transform="translate(20.878125 232.160408)scale(0.1 -0.1)">
       <use xlink:href="#DejaVuSans-30"/>
       <use xlink:href="#DejaVuSans-2e" x="63.623047"/>
       <use xlink:href="#DejaVuSans-32" x="95.410156"/>
      </g>
     </g>
    </g>
    <g id="ytick_4">
     <g id="line2d_11">
      <g>
       <use xlink:href="#m7e86af6eae" x="43.78125" y="195.582813" style="stroke: #000000; stroke-width: 0.8"/>
      </g>
     </g>
     <g id="text_12">
      <!-- 0.3 -->
      <g transform="translate(20.878125 199.382032)scale(0.1 -0.1)">
       <use xlink:href="#DejaVuSans-30"/>
       <use xlink:href="#DejaVuSans-2e" x="63.623047"/>
       <use xlink:href="#DejaVuSans-33" x="95.410156"/>
      </g>
     </g>
    </g>
    <g id="ytick_5">
     <g id="line2d_12">
      <g>
       <use xlink:href="#m7e86af6eae" x="43.78125" y="162.804436" style="stroke: #000000; stroke-width: 0.8"/>
      </g>
     </g>
     <g id="text_13">
      <!-- 0.4 -->
      <g transform="translate(20.878125 166.603655)scale(0.1 -0.1)">
       <defs>
        <path id="DejaVuSans-34" d="M 2419 4116 
L 825 1625 
L 2419 1625 
L 2419 4116 
z
M 2253 4666 
L 3047 4666 
L 3047 1625 
L 3713 1625 
L 3713 1100 
L 3047 1100 
L 3047 0 
L 2419 0 
L 2419 1100 
L 313 1100 
L 313 1709 
L 2253 4666 
z
" transform="scale(0.015625)"/>
       </defs>
       <use xlink:href="#DejaVuSans-30"/>
       <use xlink:href="#DejaVuSans-2e" x="63.623047"/>
       <use xlink:href="#DejaVuSans-34" x="95.410156"/>
      </g>
     </g>
    </g>
    <g id="ytick_6">
     <g id="line2d_13">
      <g>
       <use xlink:href="#m7e86af6eae" x="43.78125" y="130.02606" style="stroke: #000000; stroke-width: 0.8"/>
      </g>
     </g>
     <g id="text_14">
      <!-- 0.5 -->
      <g transform="translate(20.878125 133.825279)scale(0.1 -0.1)">
       <use xlink:href="#DejaVuSans-30"/>
       <use xlink:href="#DejaVuSans-2e" x="63.623047"/>
       <use xlink:href="#DejaVuSans-35" x="95.410156"/>
      </g>
     </g>
    </g>
    <g id="ytick_7">
     <g id="line2d_14">
      <g>
       <use xlink:href="#m7e86af6eae" x="43.78125" y="97.247684" style="stroke: #000000; stroke-width: 0.8"/>
      </g>
     </g>
     <g id="text_15">
      <!-- 0.6 -->
      <g transform="translate(20.878125 101.046903)scale(0.1 -0.1)">
       <defs>
        <path id="DejaVuSans-36" d="M 2113 2584 
Q 1688 2584 1439 2293 
Q 1191 2003 1191 1497 
Q 1191 994 1439 701 
Q 1688 409 2113 409 
Q 2538 409 2786 701 
Q 3034 994 3034 1497 
Q 3034 2003 2786 2293 
Q 2538 2584 2113 2584 
z
M 3366 4563 
L 3366 3988 
Q 3128 4100 2886 4159 
Q 2644 4219 2406 4219 
Q 1781 4219 1451 3797 
Q 1122 3375 1075 2522 
Q 1259 2794 1537 2939 
Q 1816 3084 2150 3084 
Q 2853 3084 3261 2657 
Q 3669 2231 3669 1497 
Q 3669 778 3244 343 
Q 2819 -91 2113 -91 
Q 1303 -91 875 529 
Q 447 1150 447 2328 
Q 447 3434 972 4092 
Q 1497 4750 2381 4750 
Q 2619 4750 2861 4703 
Q 3103 4656 3366 4563 
z
" transform="scale(0.015625)"/>
       </defs>
       <use xlink:href="#DejaVuSans-30"/>
       <use xlink:href="#DejaVuSans-2e" x="63.623047"/>
       <use xlink:href="#DejaVuSans-36" x="95.410156"/>
      </g>
     </g>
    </g>
    <g id="ytick_8">
     <g id="line2d_15">
      <g>
       <use xlink:href="#m7e86af6eae" x="43.78125" y="64.469307" style="stroke: #000000; stroke-width: 0.8"/>
      </g>
     </g>
     <g id="text_16">
      <!-- 0.7 -->
      <g transform="translate(20.878125 68.268526)scale(0.1 -0.1)">
       <defs>
        <path id="DejaVuSans-37" d="M 525 4666 
L 3525 4666 
L 3525 4397 
L 1831 0 
L 1172 0 
L 2766 4134 
L 525 4134 
L 525 4666 
z
" transform="scale(0.015625)"/>
       </defs>
       <use xlink:href="#DejaVuSans-30"/>
       <use xlink:href="#DejaVuSans-2e" x="63.623047"/>
       <use xlink:href="#DejaVuSans-37" x="95.410156"/>
      </g>
     </g>
    </g>
    <g id="ytick_9">
     <g id="line2d_16">
      <g>
       <use xlink:href="#m7e86af6eae" x="43.78125" y="31.690931" style="stroke: #000000; stroke-width: 0.8"/>
      </g>
     </g>
     <g id="text_17">
      <!-- 0.8 -->
      <g transform="translate(20.878125 35.49015)scale(0.1 -0.1)">
       <defs>
        <path id="DejaVuSans-38" d="M 2034 2216 
Q 1584 2216 1326 1975 
Q 1069 1734 1069 1313 
Q 1069 891 1326 650 
Q 1584 409 2034 409 
Q 2484 409 2743 651 
Q 3003 894 3003 1313 
Q 3003 1734 2745 1975 
Q 2488 2216 2034 2216 
z
M 1403 2484 
Q 997 2584 770 2862 
Q 544 3141 544 3541 
Q 544 4100 942 4425 
Q 1341 4750 2034 4750 
Q 2731 4750 3128 4425 
Q 3525 4100 3525 3541 
Q 3525 3141 3298 2862 
Q 3072 2584 2669 2484 
Q 3125 2378 3379 2068 
Q 3634 1759 3634 1313 
Q 3634 634 3220 271 
Q 2806 -91 2034 -91 
Q 1263 -91 848 271 
Q 434 634 434 1313 
Q 434 1759 690 2068 
Q 947 2378 1403 2484 
z
M 1172 3481 
Q 1172 3119 1398 2916 
Q 1625 2713 2034 2713 
Q 2441 2713 2670 2916 
Q 2900 3119 2900 3481 
Q 2900 3844 2670 4047 
Q 2441 4250 2034 4250 
Q 1625 4250 1398 4047 
Q 1172 3844 1172 3481 
z
" transform="scale(0.015625)"/>
       </defs>
       <use xlink:href="#DejaVuSans-30"/>
       <use xlink:href="#DejaVuSans-2e" x="63.623047"/>
       <use xlink:href="#DejaVuSans-38" x="95.410156"/>
      </g>
     </g>
    </g>
    <g id="text_18">
     <!-- Wartość -->
     <g transform="translate(14.798438 178.816094)rotate(-90)scale(0.1 -0.1)">
      <defs>
       <path id="DejaVuSans-57" d="M 213 4666 
L 850 4666 
L 1831 722 
L 2809 4666 
L 3519 4666 
L 4500 722 
L 5478 4666 
L 6119 4666 
L 4947 0 
L 4153 0 
L 3169 4050 
L 2175 0 
L 1381 0 
L 213 4666 
z
" transform="scale(0.015625)"/>
       <path id="DejaVuSans-74" d="M 1172 4494 
L 1172 3500 
L 2356 3500 
L 2356 3053 
L 1172 3053 
L 1172 1153 
Q 1172 725 1289 603 
Q 1406 481 1766 481 
L 2356 481 
L 2356 0 
L 1766 0 
Q 1100 0 847 248 
Q 594 497 594 1153 
L 594 3053 
L 172 3053 
L 172 3500 
L 594 3500 
L 594 4494 
L 1172 4494 
z
" transform="scale(0.015625)"/>
       <path id="DejaVuSans-6f" d="M 1959 3097 
Q 1497 3097 1228 2736 
Q 959 2375 959 1747 
Q 959 1119 1226 758 
Q 1494 397 1959 397 
Q 2419 397 2687 759 
Q 2956 1122 2956 1747 
Q 2956 2369 2687 2733 
Q 2419 3097 1959 3097 
z
M 1959 3584 
Q 2709 3584 3137 3096 
Q 3566 2609 3566 1747 
Q 3566 888 3137 398 
Q 2709 -91 1959 -91 
Q 1206 -91 779 398 
Q 353 888 353 1747 
Q 353 2609 779 3096 
Q 1206 3584 1959 3584 
z
" transform="scale(0.015625)"/>
       <path id="DejaVuSans-15b" d="M 2242 5119 
L 2864 5119 
L 1846 3944 
L 1367 3944 
L 2242 5119 
z
M 2834 3397 
L 2834 2853 
Q 2591 2978 2328 3040 
Q 2066 3103 1784 3103 
Q 1356 3103 1142 2972 
Q 928 2841 928 2578 
Q 928 2378 1081 2264 
Q 1234 2150 1697 2047 
L 1894 2003 
Q 2506 1872 2764 1633 
Q 3022 1394 3022 966 
Q 3022 478 2636 193 
Q 2250 -91 1575 -91 
Q 1294 -91 989 -36 
Q 684 19 347 128 
L 347 722 
Q 666 556 975 473 
Q 1284 391 1588 391 
Q 1994 391 2212 530 
Q 2431 669 2431 922 
Q 2431 1156 2273 1281 
Q 2116 1406 1581 1522 
L 1381 1569 
Q 847 1681 609 1914 
Q 372 2147 372 2553 
Q 372 3047 722 3315 
Q 1072 3584 1716 3584 
Q 2034 3584 2315 3537 
Q 2597 3491 2834 3397 
z
" transform="scale(0.015625)"/>
       <path id="DejaVuSans-107" d="M 3122 3366 
L 3122 2828 
Q 2878 2963 2633 3030 
Q 2388 3097 2138 3097 
Q 1578 3097 1268 2742 
Q 959 2388 959 1747 
Q 959 1106 1268 751 
Q 1578 397 2138 397 
Q 2388 397 2633 464 
Q 2878 531 3122 666 
L 3122 134 
Q 2881 22 2623 -34 
Q 2366 -91 2075 -91 
Q 1284 -91 818 406 
Q 353 903 353 1747 
Q 353 2603 823 3093 
Q 1294 3584 2113 3584 
Q 2378 3584 2631 3529 
Q 2884 3475 3122 3366 
z
M 2466 5119 
L 3088 5119 
L 2070 3944 
L 1591 3944 
L 2466 5119 
z
" transform="scale(0.015625)"/>
      </defs>
      <use xlink:href="#DejaVuSans-57"/>
      <use xlink:href="#DejaVuSans-61" x="92.501953"/>
      <use xlink:href="#DejaVuSans-72" x="153.78125"/>
      <use xlink:href="#DejaVuSans-74" x="194.894531"/>
      <use xlink:href="#DejaVuSans-6f" x="234.103516"/>
      <use xlink:href="#DejaVuSans-15b" x="295.285156"/>
      <use xlink:href="#DejaVuSans-107" x="347.384766"/>
     </g>
    </g>
   </g>
   <g id="line2d_17">
    <path d="M 81.826705 279.644916 
L 84.371551 278.594838 
L 86.916397 278.966452 
L 89.461244 278.48613 
L 92.00609 280.073156 
L 94.550937 278.145382 
L 97.095783 279.202668 
L 99.64063 278.41098 
L 102.185476 280.420009 
L 104.730323 278.931385 
L 107.275169 279.324295 
L 109.820016 278.663751 
L 112.364862 278.937267 
L 114.909708 278.264605 
L 117.454555 277.816029 
L 119.999401 279.291393 
L 122.544248 276.025452 
L 125.089094 280.131475 
L 127.633941 278.204107 
L 130.178787 280.391559 
L 132.723634 278.391273 
L 135.26848 279.425624 
L 137.813327 277.03445 
L 140.358173 278.194195 
L 142.90302 278.759973 
L 145.447866 279.476196 
L 147.992712 279.010158 
L 150.537559 279.053681 
L 153.082405 279.722994 
L 155.627252 277.651537 
L 158.172098 278.61868 
L 160.716945 276.944661 
L 163.261791 278.363873 
L 165.806638 277.818681 
L 168.351484 279.017484 
L 170.896331 277.688494 
L 173.441177 280.042723 
L 175.986023 278.309099 
L 178.53087 279.647778 
L 181.075716 279.57293 
L 183.620563 278.391536 
L 186.165409 278.743641 
L 188.710256 279.878388 
L 191.255102 280.197737 
L 193.799949 277.119959 
L 196.344795 278.489557 
L 198.889642 276.334271 
L 201.434488 277.773058 
L 203.979335 278.977087 
L 206.524181 278.549858 
L 209.069027 278.798848 
L 211.613874 278.923179 
L 214.15872 279.439816 
L 216.703567 278.520449 
L 219.248413 279.648947 
L 221.79326 278.137058 
L 226.882953 278.034875 
L 229.427799 278.884002 
L 231.972646 278.475522 
L 234.517492 278.430792 
L 237.062338 278.186738 
L 239.607185 277.402323 
L 242.152031 279.504778 
L 244.696878 278.54542 
L 247.241724 277.711536 
L 249.786571 277.654451 
L 252.331417 280.14505 
L 254.876264 277.413811 
L 257.42111 280.003454 
L 259.965957 277.548382 
L 262.510803 279.72537 
L 265.05565 278.186042 
L 267.600496 279.855898 
L 270.145342 278.293502 
L 272.690189 279.047116 
L 275.235035 279.019703 
L 277.779882 277.971778 
L 280.324728 279.037243 
L 282.869575 278.926068 
L 285.414421 280.036251 
L 287.959268 279.166747 
L 290.504114 280.204747 
L 293.048961 279.978234 
L 295.593807 279.248239 
L 298.138653 279.117645 
L 300.6835 279.72327 
L 303.228346 279.703603 
L 305.773193 279.552961 
L 308.318039 279.64468 
L 310.862886 279.25265 
L 315.952579 278.827469 
L 318.497425 278.191727 
L 321.042272 278.134773 
L 323.587118 278.359633 
L 326.131965 278.920645 
L 328.676811 278.404284 
L 331.221657 278.553035 
L 333.766504 278.482664 
L 336.31135 279.117527 
L 338.856197 277.867626 
L 341.401043 278.733269 
L 343.94589 278.480892 
L 346.490736 280.228511 
L 349.035583 278.978557 
L 354.125276 278.470428 
L 356.670122 281.051249 
L 359.214968 279.044727 
L 361.759815 280.819864 
L 364.304661 278.952772 
L 366.849508 280.509693 
L 369.394354 278.891998 
L 371.939201 279.704797 
L 374.484047 278.641577 
L 377.028894 280.263053 
L 379.57374 277.386673 
L 382.118587 278.593603 
L 384.663433 279.498542 
L 387.208279 280.711682 
L 389.753126 278.886865 
L 392.297972 279.672553 
L 394.842819 279.768932 
L 397.387665 280.711708 
L 399.932512 279.603875 
L 402.477358 279.374066 
L 405.022205 278.952732 
L 407.567051 278.865425 
L 410.111898 280.729327 
L 412.656744 280.41015 
L 415.201591 278.539132 
L 417.746437 278.512112 
L 420.291283 281.053861 
L 422.83613 280.091208 
L 425.380976 279.543692 
L 427.925823 279.309026 
L 430.470669 279.679459 
L 433.015516 279.196497 
L 438.105209 279.106879 
L 440.650055 279.792394 
L 443.194902 279.073821 
L 445.739748 280.06348 
L 448.284594 278.947533 
L 450.829441 279.708421 
L 453.374287 279.099356 
L 455.919134 279.456674 
L 458.46398 278.523731 
L 461.008827 278.681764 
L 463.553673 279.590983 
L 466.09852 280.323197 
L 468.643366 279.768827 
L 471.188213 280.833059 
L 473.733059 280.393725 
L 476.277906 278.961122 
L 478.822752 279.494367 
L 481.367598 279.776534 
L 483.912445 279.519561 
L 486.457291 279.596983 
L 489.002138 279.514717 
L 491.546984 277.690241 
L 494.091831 279.612028 
L 496.636677 278.095019 
L 499.181524 279.067834 
L 501.72637 276.995168 
L 504.271217 281.186083 
L 506.816063 279.023852 
L 509.360909 280.284624 
L 511.905756 279.2918 
L 514.450602 281.064785 
L 516.995449 277.792476 
L 519.540295 279.539504 
L 522.085142 279.891609 
L 524.629988 281.843121 
L 527.174835 279.484481 
L 529.719681 278.8388 
L 532.264528 278.491828 
L 534.809374 280.475545 
L 537.354221 277.895196 
L 539.899067 278.869692 
L 542.443913 280.990724 
L 544.98876 280.659757 
L 547.533606 280.074561 
L 550.078453 277.570334 
L 552.623299 280.030592 
L 555.168146 277.711575 
L 557.712992 280.931421 
L 560.257839 277.572395 
L 562.802685 279.617385 
L 565.347532 277.99927 
L 567.892378 280.004767 
L 570.437224 277.530488 
L 572.982071 279.387655 
L 575.526917 279.190353 
L 578.071764 280.246812 
L 580.61661 278.873066 
L 583.161457 279.892896 
L 585.706303 278.358582 
L 588.25115 279.100079 
L 590.795996 279.392893 
L 593.340843 281.082259 
L 595.885689 279.682373 
L 598.430535 279.914125 
L 600.975382 281.03086 
L 603.520228 280.407156 
L 606.065075 279.090521 
L 608.609921 279.244641 
L 611.154768 279.000679 
L 613.699614 278.622527 
L 616.244461 281.37468 
L 618.789307 279.314894 
L 621.334154 280.996278 
L 623.879 279.818297 
L 626.423847 278.889819 
L 628.968693 280.795156 
L 631.513539 280.088661 
L 634.058386 279.837754 
L 636.603232 280.023082 
L 639.148079 279.534791 
L 641.692925 281.089244 
L 644.237772 278.618181 
L 646.782618 279.960352 
L 649.327465 279.636343 
L 651.872311 280.985604 
L 654.417158 278.738547 
L 656.962004 280.655648 
L 659.50685 278.665498 
L 662.051697 279.927241 
L 664.596543 279.69499 
L 667.14139 282.142749 
L 669.686236 278.111785 
L 672.231083 279.386329 
L 674.775929 278.123798 
L 677.320776 279.231932 
L 679.865622 277.906855 
L 682.410469 279.272567 
L 684.955315 278.838747 
L 687.500162 277.13402 
L 690.045008 279.096258 
L 692.589854 278.095557 
L 695.134701 280.28746 
L 697.679547 278.393308 
L 700.224394 281.051341 
L 702.76924 278.296154 
L 705.314087 280.791165 
L 707.858933 278.592724 
L 710.40378 279.093173 
L 712.948626 278.382306 
L 715.493473 280.224086 
L 718.038319 278.409286 
L 720.583165 281.024965 
L 723.128012 278.983782 
L 725.672858 282.24358 
L 728.217705 279.537705 
L 730.762551 280.767834 
L 733.307398 278.976404 
L 735.852244 280.922165 
L 738.397091 279.784136 
L 740.941937 281.700173 
L 743.486784 278.487338 
L 746.03163 280.517361 
L 748.576477 278.452139 
L 751.121323 281.893982 
L 753.666169 279.128975 
L 756.211016 278.224365 
L 758.755862 280.858831 
L 761.300709 279.046985 
L 763.845555 280.571229 
L 766.390402 279.746035 
L 768.935248 279.647897 
L 771.480095 277.540085 
L 774.024941 279.518642 
L 776.569788 280.083633 
L 779.114634 281.366212 
L 781.65948 278.150371 
L 784.204327 278.065623 
L 786.749173 279.640439 
L 791.838866 279.722745 
L 794.383713 277.822515 
L 796.928559 280.231123 
L 799.473406 277.814191 
L 802.018252 282.171922 
L 804.563099 278.802367 
L 807.107945 281.454123 
L 809.652792 278.561726 
L 812.197638 282.004147 
L 814.742484 278.926356 
L 819.832177 278.509276 
L 822.377024 281.136863 
L 824.92187 278.943634 
L 827.466717 277.959791 
L 832.55641 279.084744 
L 835.101256 278.460515 
L 837.646103 277.641979 
L 840.190949 280.385638 
L 842.735795 278.046941 
L 842.735795 278.046941 
" clip-path="url(#pad780fdabc)" style="fill: none; stroke: #ff00ff; stroke-width: 0.9; stroke-linecap: square"/>
   </g>
   <g id="line2d_18">
    <path d="M 81.826705 246.928693 
L 84.371551 241.330606 
L 86.916397 243.441582 
L 89.461244 239.699467 
L 92.00609 250.266883 
L 94.550937 237.841683 
L 97.095783 245.282587 
L 99.64063 239.311074 
L 102.185476 252.046051 
L 104.730323 242.044361 
L 107.275169 246.117167 
L 109.820016 241.21733 
L 112.364862 241.650007 
L 114.909708 238.445758 
L 117.454555 234.066654 
L 119.999401 240.713205 
L 122.544248 225.946984 
L 125.089094 243.704003 
L 127.633941 234.78524 
L 130.178787 247.21342 
L 132.723634 235.978884 
L 135.26848 241.450972 
L 137.813327 229.898925 
L 140.358173 235.580709 
L 142.90302 236.18019 
L 145.447866 241.499917 
L 147.992712 237.209945 
L 150.537559 240.348299 
L 153.082405 241.915356 
L 155.627252 231.825925 
L 158.172098 236.386498 
L 160.716945 228.435141 
L 163.261791 236.247804 
L 165.806638 233.018308 
L 168.351484 241.870009 
L 170.896331 231.366622 
L 173.441177 245.402152 
L 175.986023 234.902416 
L 178.53087 242.812981 
L 181.075716 241.305241 
L 183.620563 237.014875 
L 186.165409 238.48827 
L 188.710256 243.902788 
L 191.255102 245.014744 
L 193.799949 227.957864 
L 196.344795 236.254854 
L 198.889642 224.082347 
L 203.979335 238.467855 
L 206.524181 238.04291 
L 209.069027 237.900763 
L 211.613874 240.10183 
L 214.15872 241.197557 
L 216.703567 237.693011 
L 219.248413 242.581046 
L 221.79326 233.835532 
L 224.338106 231.937022 
L 226.882953 234.011499 
L 229.427799 239.840747 
L 231.972646 235.976639 
L 234.517492 235.662634 
L 237.062338 233.59157 
L 239.607185 231.92027 
L 242.152031 241.837961 
L 244.696878 237.631305 
L 247.241724 233.118666 
L 249.786571 229.823788 
L 252.331417 245.873429 
L 254.876264 232.167803 
L 257.42111 244.907244 
L 259.965957 230.699121 
L 262.510803 243.660323 
L 265.05565 233.819068 
L 267.600496 245.184041 
L 270.145342 235.970849 
L 272.690189 240.112937 
L 275.235035 237.584474 
L 277.779882 232.807392 
L 280.324728 240.327477 
L 282.869575 241.799913 
L 285.414421 247.433553 
L 287.959268 241.431476 
L 290.504114 248.01724 
L 293.048961 244.627899 
L 295.593807 243.959938 
L 298.138653 242.842535 
L 300.6835 245.020139 
L 303.228346 246.052337 
L 305.773193 247.626693 
L 308.318039 244.046983 
L 310.862886 245.221603 
L 313.407732 240.827768 
L 315.952579 239.035983 
L 318.497425 239.694084 
L 321.042272 235.955947 
L 323.587118 240.033887 
L 326.131965 241.090898 
L 328.676811 239.899801 
L 331.221657 238.071124 
L 333.766504 240.795956 
L 336.31135 243.157577 
L 338.856197 234.211322 
L 341.401043 242.085218 
L 343.94589 240.957482 
L 346.490736 250.278463 
L 349.035583 241.649981 
L 351.580429 242.835576 
L 354.125276 239.913429 
L 356.670122 253.807705 
L 359.214968 244.276451 
L 361.759815 252.972705 
L 364.304661 244.151227 
L 366.849508 251.227029 
L 369.394354 240.734894 
L 371.939201 248.07993 
L 374.484047 240.140993 
L 377.028894 248.93062 
L 379.57374 236.654473 
L 382.118587 240.232476 
L 384.663433 245.102957 
L 387.208279 253.531183 
L 389.753126 242.550061 
L 392.297972 247.474594 
L 394.842819 246.653051 
L 397.387665 253.785491 
L 399.932512 248.664181 
L 402.477358 243.913252 
L 405.022205 241.706842 
L 407.567051 242.704458 
L 410.111898 248.94493 
L 412.656744 250.791122 
L 415.201591 240.432456 
L 417.746437 241.948769 
L 420.291283 252.114939 
L 422.83613 249.521973 
L 425.380976 246.539538 
L 427.925823 244.485214 
L 430.470669 247.011064 
L 433.015516 243.46826 
L 435.560362 244.118523 
L 438.105209 240.066053 
L 440.650055 246.685138 
L 443.194902 243.122535 
L 445.739748 249.501965 
L 448.284594 240.693091 
L 450.829441 246.506598 
L 453.374287 241.766001 
L 455.919134 245.769736 
L 458.46398 240.333634 
L 461.008827 242.337333 
L 463.553673 245.633287 
L 466.09852 251.876635 
L 468.643366 246.773102 
L 471.188213 253.423986 
L 473.733059 251.183874 
L 476.277906 243.713298 
L 478.822752 244.033474 
L 481.367598 245.557179 
L 483.912445 242.644642 
L 486.457291 243.786794 
L 489.002138 243.386283 
L 491.546984 231.736661 
L 494.091831 243.660835 
L 496.636677 238.202939 
L 499.181524 240.2583 
L 501.72637 229.557717 
L 504.271217 250.627745 
L 506.816063 241.393809 
L 509.360909 247.541552 
L 511.905756 242.88414 
L 514.450602 252.026909 
L 516.995449 233.75731 
L 519.540295 242.727026 
L 522.085142 244.198255 
L 524.629988 254.940719 
L 527.174835 242.112237 
L 529.719681 241.545803 
L 532.264528 238.610198 
L 534.809374 249.785432 
L 537.354221 235.327767 
L 539.899067 240.206572 
L 542.443913 249.910039 
L 544.98876 249.866004 
L 547.533606 245.606163 
L 550.078453 233.232743 
L 552.623299 244.417639 
L 555.168146 234.534359 
L 557.712992 250.023683 
L 560.257839 234.363552 
L 562.802685 243.045652 
L 565.347532 237.242518 
L 567.892378 246.226807 
L 570.437224 233.337945 
L 572.982071 244.28937 
L 575.526917 238.752634 
L 578.071764 246.598763 
L 580.61661 237.16637 
L 583.161457 245.146637 
L 585.706303 235.656109 
L 588.25115 240.756662 
L 590.795996 242.602183 
L 593.340843 249.884897 
L 595.885689 244.450107 
L 598.430535 246.052192 
L 600.975382 249.69433 
L 603.520228 248.147216 
L 606.065075 240.413261 
L 608.609921 241.971338 
L 611.154768 238.594706 
L 613.699614 237.752144 
L 616.244461 250.717166 
L 618.789307 240.450967 
L 621.334154 249.101756 
L 623.879 245.795456 
L 626.423847 240.124214 
L 628.968693 248.477291 
L 631.513539 245.531092 
L 634.058386 243.826982 
L 636.603232 244.870023 
L 639.148079 243.132028 
L 641.692925 248.930896 
L 644.237772 237.176151 
L 646.782618 245.061798 
L 649.327465 243.804715 
L 651.872311 251.453174 
L 654.417158 238.910707 
L 656.962004 248.290322 
L 659.50685 240.078119 
L 662.051697 245.769237 
L 664.596543 244.205778 
L 667.14139 255.126402 
L 669.686236 235.985251 
L 672.231083 243.129599 
L 674.775929 233.785944 
L 677.320776 240.786687 
L 679.865622 234.263837 
L 682.410469 243.265273 
L 684.955315 237.951756 
L 687.500162 231.371677 
L 690.045008 240.96746 
L 692.589854 235.325798 
L 695.134701 245.336928 
L 697.679547 237.443351 
L 700.224394 251.016178 
L 702.76924 237.795522 
L 705.314087 250.570634 
L 707.858933 235.872027 
L 710.40378 241.067397 
L 712.948626 237.803662 
L 715.493473 246.453439 
L 718.038319 238.652644 
L 720.583165 251.090383 
L 723.128012 240.504271 
L 725.672858 256.21743 
L 728.217705 244.741662 
L 730.762551 250.210009 
L 733.307398 239.741519 
L 735.852244 249.771581 
L 738.397091 242.746247 
L 740.941937 253.16209 
L 743.486784 236.349435 
L 746.03163 248.534375 
L 748.576477 237.756647 
L 751.121323 254.442725 
L 753.666169 242.176806 
L 756.211016 236.7508 
L 758.755862 248.224401 
L 761.300709 240.339398 
L 763.845555 247.583276 
L 766.390402 243.638332 
L 768.935248 243.168762 
L 771.480095 231.516397 
L 774.024941 242.714816 
L 776.569788 244.501743 
L 779.114634 252.617015 
L 781.65948 234.860653 
L 784.204327 235.740278 
L 786.749173 242.463476 
L 789.29402 245.17258 
L 791.838866 243.278363 
L 794.383713 234.51078 
L 796.928559 246.8709 
L 799.473406 234.554657 
L 802.018252 254.063063 
L 804.563099 239.191876 
L 807.107945 251.839205 
L 809.652792 238.40544 
L 812.197638 255.073492 
L 814.742484 241.22119 
L 817.287331 239.384648 
L 819.832177 235.962315 
L 822.377024 251.012016 
L 824.92187 240.878485 
L 827.466717 235.471962 
L 830.011563 238.265091 
L 832.55641 241.349236 
L 835.101256 237.278596 
L 837.646103 233.468893 
L 840.190949 247.596405 
L 842.735795 235.492457 
L 842.735795 235.492457 
" clip-path="url(#pad780fdabc)" style="fill: none; stroke: #9400d3; stroke-width: 0.9; stroke-linecap: square"/>
   </g>
   <g id="line2d_19">
    <path d="M 81.826705 250.802924 
L 84.371551 244.759543 
L 86.916397 247.931258 
L 89.461244 241.802145 
L 92.00609 254.319432 
L 94.550937 241.42092 
L 97.095783 250.301294 
L 99.64063 243.290546 
L 102.185476 255.766713 
L 104.730323 246.008473 
L 107.275169 250.918105 
L 109.820016 244.628818 
L 112.364862 246.02835 
L 114.909708 242.833423 
L 117.454555 237.278819 
L 119.999401 244.457354 
L 122.544248 229.261712 
L 125.089094 247.132979 
L 127.633941 237.753351 
L 130.178787 251.063468 
L 132.723634 239.57339 
L 135.26848 245.061456 
L 137.813327 233.298952 
L 140.358173 238.957826 
L 142.90302 238.323948 
L 145.447866 244.710625 
L 147.992712 238.856799 
L 150.537559 243.977781 
L 153.082405 244.748961 
L 155.627252 234.326436 
L 158.172098 239.29335 
L 160.716945 230.101951 
L 163.261791 239.554904 
L 165.806638 234.536079 
L 168.351484 246.166624 
L 170.896331 234.166171 
L 173.441177 249.082167 
L 175.986023 237.790664 
L 178.53087 246.592868 
L 181.075716 244.554272 
L 183.620563 239.832699 
L 186.165409 242.019193 
L 188.710256 246.600391 
L 191.255102 248.170559 
L 193.799949 229.949997 
L 196.344795 239.269586 
L 198.889642 225.321561 
L 201.434488 233.686125 
L 203.979335 241.215439 
L 206.524181 241.238861 
L 209.069027 239.927766 
L 211.613874 243.363543 
L 214.15872 244.176225 
L 216.703567 241.290025 
L 219.248413 245.927782 
L 221.79326 236.179599 
L 224.338106 234.456439 
L 226.882953 236.628005 
L 229.427799 243.595729 
L 231.972646 238.920055 
L 234.517492 237.968994 
L 237.062338 234.880281 
L 239.607185 235.455472 
L 242.152031 244.795845 
L 244.696878 240.807838 
L 247.241724 237.033242 
L 249.786571 232.266939 
L 252.331417 249.838053 
L 254.876264 235.683824 
L 257.42111 248.166673 
L 259.965957 233.509291 
L 262.510803 247.404131 
L 265.05565 236.320761 
L 267.600496 248.971608 
L 270.145342 239.548786 
L 272.690189 244.194316 
L 277.779882 235.989045 
L 280.324728 243.934298 
L 282.869575 245.552557 
L 285.414421 251.08987 
L 287.959268 244.703207 
L 290.504114 250.995447 
L 293.048961 246.462931 
L 295.593807 248.80554 
L 298.138653 246.662793 
L 300.6835 248.77025 
L 303.228346 249.637495 
L 305.773193 251.882517 
L 308.318039 247.133885 
L 310.862886 248.827439 
L 315.952579 241.088955 
L 318.497425 243.64961 
L 321.042272 237.42073 
L 323.587118 243.676393 
L 326.131965 244.102217 
L 328.676811 243.246893 
L 331.221657 239.573639 
L 333.766504 244.074764 
L 336.31135 246.082415 
L 338.856197 235.529848 
L 341.401043 246.107412 
L 343.94589 244.310481 
L 346.490736 253.716406 
L 349.035583 244.664306 
L 351.580429 248.015034 
L 354.125276 243.499507 
L 356.670122 256.601727 
L 359.214968 248.720465 
L 361.759815 256.031301 
L 364.304661 248.753812 
L 366.849508 254.69232 
L 369.394354 243.82706 
L 371.939201 251.870215 
L 374.484047 244.163686 
L 377.028894 253.28453 
L 379.57374 242.106579 
L 382.118587 244.516435 
L 384.663433 247.562388 
L 387.208279 257.227531 
L 389.753126 247.171565 
L 392.297972 251.636559 
L 394.842819 249.350483 
L 397.387665 257.844341 
L 399.932512 253.692446 
L 402.477358 247.538874 
L 405.022205 244.541156 
L 407.567051 247.172563 
L 410.111898 251.554766 
L 412.656744 254.564838 
L 415.201591 244.588434 
L 417.746437 246.222278 
L 420.291283 255.160747 
L 422.83613 253.428751 
L 425.380976 251.297229 
L 427.925823 248.73127 
L 430.470669 251.477699 
L 433.015516 247.157977 
L 435.560362 248.623009 
L 438.105209 242.866337 
L 440.650055 250.401415 
L 443.194902 247.520073 
L 445.739748 253.654477 
L 448.284594 243.228026 
L 450.829441 249.951211 
L 453.374287 245.394419 
L 455.919134 249.891737 
L 458.46398 243.686436 
L 461.008827 247.193491 
L 463.553673 249.768351 
L 466.09852 255.493868 
L 468.643366 249.941561 
L 471.188213 257.269412 
L 473.733059 254.927761 
L 476.277906 248.686264 
L 478.822752 247.772766 
L 481.367598 248.363305 
L 483.912445 246.296666 
L 486.457291 247.389755 
L 489.002138 247.043506 
L 491.546984 234.063542 
L 494.091831 247.384267 
L 496.636677 242.028475 
L 499.181524 243.240066 
L 501.72637 231.800626 
L 504.271217 253.104558 
L 506.816063 244.484545 
L 509.360909 250.748347 
L 511.905756 246.6859 
L 514.450602 255.121531 
L 516.995449 236.934053 
L 519.540295 246.141443 
L 522.085142 247.334167 
L 524.629988 257.817283 
L 527.174835 245.029921 
L 529.719681 245.893253 
L 532.264528 241.096386 
L 534.809374 253.354245 
L 537.354221 239.317336 
L 539.899067 244.424729 
L 542.443913 252.831227 
L 544.98876 254.02214 
L 547.533606 249.012242 
L 550.078453 237.255437 
L 552.623299 246.941126 
L 555.168146 237.81788 
L 557.712992 252.994761 
L 560.257839 237.8723 
L 562.802685 246.713274 
L 565.347532 241.657044 
L 567.892378 250.162666 
L 570.437224 236.554903 
L 572.982071 248.496144 
L 575.526917 242.357184 
L 578.071764 249.615675 
L 580.61661 239.349095 
L 583.161457 248.256974 
L 585.706303 238.874261 
L 588.25115 244.713067 
L 590.795996 245.732161 
L 593.340843 252.921817 
L 595.885689 248.344505 
L 598.430535 250.362173 
L 600.975382 252.686047 
L 603.520228 251.887887 
L 606.065075 244.461346 
L 608.609921 245.768896 
L 611.154768 240.630269 
L 613.699614 241.024046 
L 616.244461 253.207292 
L 618.789307 243.971702 
L 621.334154 252.188356 
L 623.879 249.368877 
L 626.423847 244.276306 
L 628.968693 251.608267 
L 631.513539 248.862966 
L 634.058386 246.880694 
L 636.603232 248.657709 
L 639.148079 247.094341 
L 641.692925 251.92814 
L 644.237772 240.856323 
L 646.782618 249.069025 
L 649.327465 247.532664 
L 651.872311 254.839587 
L 654.417158 242.756474 
L 656.962004 250.834276 
L 659.50685 244.56278 
L 662.051697 249.506127 
L 664.596543 248.279884 
L 667.14139 258.125826 
L 669.686236 239.676557 
L 672.231083 247.574886 
L 674.775929 236.580649 
L 677.320776 244.379264 
L 679.865622 237.919787 
L 682.410469 247.369786 
L 687.500162 234.723836 
L 690.045008 244.904657 
L 692.589854 239.214865 
L 695.134701 248.853198 
L 697.679547 241.483992 
L 700.224394 254.259577 
L 702.76924 241.549203 
L 705.314087 254.265918 
L 707.858933 240.105243 
L 710.40378 245.627615 
L 712.948626 241.856446 
L 715.493473 250.570805 
L 718.038319 243.13787 
L 720.583165 254.678639 
L 723.128012 245.105307 
L 725.672858 258.902678 
L 728.217705 249.071086 
L 730.762551 253.961629 
L 733.307398 243.3916 
L 735.852244 253.722314 
L 738.397091 246.487495 
L 740.941937 256.251525 
L 743.486784 240.27307 
L 746.03163 252.038042 
L 748.576477 241.613417 
L 751.121323 257.444985 
L 753.666169 247.196655 
L 756.211016 241.294764 
L 758.755862 251.201204 
L 761.300709 244.960757 
L 763.845555 251.372773 
L 766.390402 247.295765 
L 768.935248 247.302474 
L 771.480095 234.238958 
L 774.024941 246.528405 
L 776.569788 246.910812 
L 779.114634 256.002548 
L 781.65948 238.833797 
L 784.204327 239.430442 
L 786.749173 245.401338 
L 789.29402 249.052877 
L 791.838866 246.590728 
L 794.383713 238.583153 
L 796.928559 250.471524 
L 799.473406 239.210335 
L 802.018252 256.614252 
L 804.563099 243.199931 
L 807.107945 254.84883 
L 809.652792 242.374212 
L 812.197638 257.819068 
L 814.742484 246.184794 
L 817.287331 243.585147 
L 819.832177 238.022823 
L 822.377024 254.432669 
L 824.92187 245.352459 
L 827.466717 239.56202 
L 830.011563 241.862459 
L 832.55641 245.217599 
L 835.101256 241.853584 
L 837.646103 236.860925 
L 840.190949 251.445757 
L 842.735795 239.116897 
L 842.735795 239.116897 
" clip-path="url(#pad780fdabc)" style="fill: none; stroke: #00ffff; stroke-width: 0.9; stroke-linecap: square"/>
   </g>
   <g id="line2d_20">
    <path d="M 81.826705 250.568534 
L 84.371551 244.5264 
L 86.916397 248.404635 
L 89.461244 240.314151 
L 92.00609 254.02193 
L 94.550937 241.019555 
L 97.095783 250.889155 
L 99.64063 243.427337 
L 102.185476 255.344093 
L 104.730323 246.685388 
L 107.275169 251.009009 
L 109.820016 244.762734 
L 112.364862 247.096258 
L 114.909708 243.957234 
L 117.454555 237.58941 
L 119.999401 244.317768 
L 122.544248 229.697777 
L 125.089094 245.90906 
L 127.633941 237.606124 
L 130.178787 250.292209 
L 132.723634 240.075467 
L 135.26848 243.951391 
L 137.813327 233.142035 
L 140.358173 239.513128 
L 142.90302 237.087806 
L 145.447866 244.369574 
L 147.992712 236.786156 
L 150.537559 243.702493 
L 153.082405 243.530832 
L 155.627252 234.039254 
L 158.172098 238.934903 
L 160.716945 228.151083 
L 163.261791 239.085308 
L 165.806638 232.634142 
L 168.351484 245.987165 
L 170.896331 233.487182 
L 173.441177 248.266453 
L 175.986023 237.505096 
L 178.53087 245.964491 
L 181.075716 244.138925 
L 183.620563 239.629765 
L 186.165409 242.021451 
L 188.710256 245.395443 
L 191.255102 247.222322 
L 193.799949 229.376591 
L 196.344795 238.638386 
L 198.889642 224.378601 
L 201.434488 233.59182 
L 203.979335 239.795426 
L 206.524181 240.369463 
L 209.069027 238.142257 
L 211.613874 242.79271 
L 214.15872 243.116811 
L 216.703567 241.709717 
L 219.248413 245.139311 
L 221.79326 235.88127 
L 224.338106 234.242175 
L 226.882953 236.382192 
L 229.427799 243.176548 
L 231.972646 237.741286 
L 234.517492 237.657143 
L 237.062338 232.09625 
L 239.607185 236.186702 
L 242.152031 243.483332 
L 244.696878 240.187667 
L 247.241724 237.995081 
L 249.786571 232.419497 
L 252.331417 249.062145 
L 254.876264 235.760064 
L 257.42111 247.149076 
L 259.965957 233.579859 
L 262.510803 246.922024 
L 265.05565 236.240123 
L 267.600496 248.297503 
L 270.145342 239.709734 
L 272.690189 244.437582 
L 275.235035 239.35864 
L 277.779882 235.628289 
L 280.324728 243.959426 
L 282.869575 245.552636 
L 285.414421 250.54116 
L 287.959268 244.377859 
L 290.504114 249.735909 
L 293.048961 245.398253 
L 295.593807 249.178035 
L 298.138653 246.338482 
L 300.6835 248.000894 
L 303.228346 248.707992 
L 305.773193 251.705788 
L 308.318039 246.567962 
L 310.862886 247.988527 
L 313.407732 246.211407 
L 315.952579 239.868003 
L 318.497425 243.901344 
L 321.042272 236.154247 
L 323.587118 243.668213 
L 326.131965 243.465857 
L 328.676811 242.593203 
L 331.221657 238.189587 
L 333.766504 243.739976 
L 336.31135 245.924605 
L 338.856197 234.611544 
L 341.401043 246.19535 
L 343.94589 243.428243 
L 346.490736 252.753714 
L 349.035583 244.5285 
L 351.580429 248.225399 
L 354.125276 243.477686 
L 356.670122 254.978872 
L 359.214968 249.019358 
L 361.759815 254.835307 
L 364.304661 249.121895 
L 366.849508 254.089925 
L 369.394354 244.119875 
L 371.939201 251.795945 
L 374.484047 244.80686 
L 377.028894 253.340249 
L 379.57374 243.881992 
L 382.118587 245.596776 
L 384.663433 246.318578 
L 387.208279 256.326544 
L 389.753126 247.835771 
L 392.297972 251.580604 
L 394.842819 248.319481 
L 397.387665 257.043161 
L 399.932512 253.921388 
L 402.477358 247.207762 
L 405.022205 244.223725 
L 407.567051 247.69088 
L 410.111898 250.375092 
L 412.656744 254.176694 
L 415.201591 244.565458 
L 417.746437 246.309808 
L 420.291283 254.322162 
L 422.83613 253.113696 
L 425.380976 251.646984 
L 427.925823 249.3143 
L 430.470669 251.455564 
L 433.015516 247.552331 
L 435.560362 248.990567 
L 438.105209 242.595212 
L 440.650055 250.296305 
L 443.194902 248.396285 
L 445.739748 253.30165 
L 448.284594 242.997469 
L 450.829441 249.469234 
L 453.374287 245.583909 
L 455.919134 249.982812 
L 458.46398 243.389814 
L 461.008827 247.880384 
L 463.553673 250.191786 
L 466.09852 254.952168 
L 468.643366 249.587382 
L 471.188213 256.69636 
L 473.733059 254.294329 
L 476.277906 249.813239 
L 481.367598 246.946509 
L 483.912445 245.565056 
L 486.457291 246.502528 
L 489.002138 246.039615 
L 491.546984 232.647258 
L 494.091831 246.249704 
L 496.636677 241.207194 
L 499.181524 241.978821 
L 501.72637 230.222396 
L 504.271217 250.495523 
L 506.816063 242.440448 
L 509.360909 249.233307 
L 511.905756 245.474138 
L 514.450602 252.938254 
L 516.995449 236.719146 
L 519.540295 244.46258 
L 522.085142 245.46072 
L 524.629988 255.381523 
L 527.174835 243.207073 
L 529.719681 244.989615 
L 532.264528 238.752201 
L 534.809374 251.870964 
L 537.354221 238.854843 
L 539.899067 243.995505 
L 542.443913 250.420649 
L 544.98876 252.886119 
L 547.533606 248.1007 
L 550.078453 237.447001 
L 552.623299 244.482706 
L 555.168146 236.479792 
L 557.712992 250.791266 
L 560.257839 237.431509 
L 562.802685 245.48711 
L 565.347532 241.391393 
L 567.892378 249.320707 
L 570.437224 235.473236 
L 572.982071 247.269586 
L 575.526917 241.209872 
L 578.071764 248.063348 
L 580.61661 237.520864 
L 583.161457 246.247826 
L 585.706303 236.841324 
L 588.25115 243.573357 
L 590.795996 243.781346 
L 593.340843 251.46331 
L 595.885689 247.67334 
L 598.430535 249.664409 
L 600.975382 250.658388 
L 603.520228 250.526521 
L 606.065075 244.128265 
L 608.609921 245.213896 
L 611.154768 238.656412 
L 613.699614 239.859089 
L 616.244461 250.541934 
L 618.789307 242.725621 
L 621.334154 249.793874 
L 623.879 247.519298 
L 626.423847 243.730287 
L 628.968693 250.018418 
L 631.513539 247.530931 
L 634.058386 245.733724 
L 636.603232 247.336557 
L 639.148079 246.528996 
L 641.692925 250.335652 
L 644.237772 240.441843 
L 646.782618 248.180091 
L 649.327465 246.656189 
L 651.872311 253.112554 
L 654.417158 242.330585 
L 656.962004 248.627315 
L 659.50685 244.477258 
L 662.051697 248.594401 
L 664.596543 247.69692 
L 667.14139 256.18248 
L 669.686236 239.294833 
L 672.231083 247.315852 
L 674.775929 235.939996 
L 677.320776 243.76693 
L 679.865622 237.807324 
L 682.410469 246.778944 
L 684.955315 239.743869 
L 687.500162 233.987132 
L 690.045008 243.730602 
L 692.589854 239.049571 
L 695.134701 247.61984 
L 697.679547 240.835278 
L 700.224394 252.2399 
L 702.76924 240.344977 
L 705.314087 252.561296 
L 707.858933 239.64296 
L 710.40378 244.868487 
L 712.948626 241.589312 
L 715.493473 249.267666 
L 718.038319 243.277037 
L 720.583165 253.360822 
L 723.128012 244.987672 
L 725.672858 256.828437 
L 728.217705 248.81158 
L 730.762551 252.563883 
L 733.307398 242.237002 
L 735.852244 252.651492 
L 738.397091 245.763552 
L 740.941937 254.489176 
L 743.486784 240.350885 
L 746.03163 250.753691 
L 748.576477 240.865382 
L 751.121323 255.350526 
L 753.666169 246.947428 
L 756.211016 241.661902 
L 758.755862 249.431423 
L 761.300709 245.088042 
L 763.845555 250.938218 
L 766.390402 246.848672 
L 768.935248 246.746569 
L 771.480095 233.430281 
L 774.024941 246.760091 
L 776.569788 245.020652 
L 779.114634 254.302167 
L 781.65948 238.712223 
L 784.204327 239.140634 
L 786.749173 243.997999 
L 789.29402 247.982816 
L 791.838866 245.057938 
L 794.383713 238.30155 
L 796.928559 248.937014 
L 799.473406 239.724806 
L 802.018252 254.145867 
L 804.563099 242.773398 
L 807.107945 252.579112 
L 809.652792 242.079546 
L 812.197638 255.578379 
L 814.742484 246.055816 
L 817.287331 243.113621 
L 819.832177 235.216959 
L 822.377024 253.251182 
L 824.92187 245.065395 
L 827.466717 239.819899 
L 830.011563 241.025122 
L 832.55641 244.27351 
L 835.101256 241.693858 
L 837.646103 236.246701 
L 840.190949 250.100474 
L 842.735795 238.403024 
L 842.735795 238.403024 
" clip-path="url(#pad780fdabc)" style="fill: none; stroke: #ffa500; stroke-width: 0.9; stroke-linecap: square"/>
   </g>
   <g id="line2d_21">
    <path d="M 81.826705 117.485083 
L 84.371551 94.700353 
L 86.916397 105.812947 
L 89.461244 84.608835 
L 92.00609 130.701669 
L 94.550937 80.844533 
L 97.095783 114.820907 
L 99.64063 88.499241 
L 102.185476 137.580325 
L 104.730323 99.146086 
L 107.275169 115.822199 
L 109.820016 93.819677 
L 112.364862 100.009563 
L 117.454555 72.113974 
L 119.999401 102.747196 
L 122.544248 44.535672 
L 125.089094 112.742111 
L 127.633941 77.99063 
L 130.178787 125.095363 
L 132.723634 83.984095 
L 135.26848 104.748978 
L 137.813327 59.660088 
L 140.358173 81.710203 
L 142.90302 81.663726 
L 145.447866 102.794421 
L 147.992712 83.079262 
L 150.537559 99.662119 
L 153.082405 104.393105 
L 155.627252 66.83177 
L 158.172098 84.819148 
L 160.716945 51.044145 
L 163.261791 85.407967 
L 165.806638 66.936079 
L 168.351484 105.592013 
L 170.896331 66.043942 
L 173.441177 118.50171 
L 175.986023 80.241061 
L 178.53087 110.502459 
L 181.075716 102.94459 
L 183.620563 84.857839 
L 186.165409 91.738307 
L 188.710256 110.647021 
L 191.255102 116.496409 
L 193.799949 53.302217 
L 196.344795 83.444719 
L 198.889642 35.15267 
L 201.434488 66.067574 
L 203.979335 90.952803 
L 206.524181 90.630028 
L 209.069027 85.92056 
L 211.613874 98.538689 
L 214.15872 100.905902 
L 216.703567 89.393243 
L 219.248413 106.555756 
L 221.79326 73.811165 
L 224.338106 69.715147 
L 226.882953 73.163016 
L 229.427799 98.547223 
L 231.972646 82.726527 
L 234.517492 80.949893 
L 237.062338 68.672499 
L 239.607185 68.289134 
L 242.152031 104.046055 
L 244.696878 90.937823 
L 247.241724 75.451035 
L 249.786571 62.903526 
L 252.331417 120.601814 
L 254.876264 69.396416 
L 257.42111 116.33189 
L 259.965957 64.6108 
L 262.510803 113.075888 
L 265.05565 74.149117 
L 267.600496 117.739509 
L 270.145342 84.84236 
L 272.690189 101.319713 
L 275.235035 88.018223 
L 277.779882 73.774955 
L 280.324728 96.684975 
L 282.869575 96.832387 
L 285.414421 117.755894 
L 287.959268 94.298305 
L 290.504114 118.043168 
L 293.048961 103.38844 
L 295.593807 107.514497 
L 298.138653 100.604856 
L 300.6835 108.95629 
L 303.228346 112.497519 
L 305.773193 119.844708 
L 308.318039 104.067704 
L 310.862886 108.14655 
L 313.407732 96.406786 
L 315.952579 81.998855 
L 318.497425 89.33776 
L 321.042272 69.635691 
L 323.587118 89.754958 
L 326.131965 93.852841 
L 328.676811 89.302062 
L 331.221657 77.862571 
L 333.766504 91.477632 
L 336.31135 101.892949 
L 338.856197 63.360899 
L 341.401043 99.035869 
L 343.94589 92.421773 
L 346.490736 129.194112 
L 349.035583 96.451123 
L 351.580429 105.130295 
L 354.125276 89.550436 
L 356.670122 141.289762 
L 359.214968 107.706836 
L 361.759815 139.051488 
L 364.304661 107.989541 
L 366.849508 132.699827 
L 369.394354 92.435716 
L 371.939201 121.71461 
L 374.484047 92.820119 
L 377.028894 126.660083 
L 379.57374 81.894257 
L 384.663433 106.943821 
L 387.208279 142.136368 
L 389.753126 101.894012 
L 392.297972 119.714127 
L 394.842819 112.25336 
L 397.387665 143.502723 
L 399.932512 125.923143 
L 402.477358 105.29673 
L 405.022205 94.673439 
L 407.567051 102.516941 
L 410.111898 122.681293 
L 412.656744 131.313595 
L 415.201591 92.810981 
L 417.746437 97.652118 
L 420.291283 135.597449 
L 422.83613 126.611257 
L 425.380976 118.227144 
L 427.925823 108.770752 
L 430.470669 119.286163 
L 433.015516 103.451563 
L 435.560362 107.581796 
L 438.105209 89.626636 
L 440.650055 115.648674 
L 443.194902 105.0863 
L 445.739748 128.074398 
L 448.284594 91.192787 
L 450.829441 114.432658 
L 453.374287 97.827009 
L 455.919134 113.594336 
L 458.46398 90.988776 
L 463.553673 114.512994 
L 466.09852 134.896364 
L 468.643366 115.209471 
L 471.188213 143.042094 
L 473.733059 132.751004 
L 476.277906 108.631651 
L 478.822752 107.024157 
L 481.367598 109.692062 
L 483.912445 103.701184 
L 486.457291 111.685652 
L 489.002138 109.885661 
L 491.546984 64.523493 
L 494.091831 110.421676 
L 496.636677 90.17771 
L 499.181524 96.60821 
L 501.72637 55.346064 
L 504.271217 132.393175 
L 506.816063 99.333029 
L 509.360909 123.234744 
L 511.905756 108.022586 
L 514.450602 138.826275 
L 516.995449 71.708946 
L 519.540295 106.762602 
L 522.085142 112.63834 
L 524.629988 150.00429 
L 527.174835 104.169099 
L 529.719681 104.866968 
L 532.264528 88.772257 
L 534.809374 132.083253 
L 537.354221 82.273736 
L 539.899067 100.080223 
L 542.443913 132.063455 
L 544.98876 135.278586 
L 547.533606 117.683186 
L 550.078453 73.853151 
L 552.623299 110.350898 
L 555.168146 75.806212 
L 557.712992 133.218197 
L 560.257839 75.744059 
L 562.802685 110.22037 
L 565.347532 89.153876 
L 567.892378 121.286948 
L 570.437224 70.940641 
L 572.982071 113.57358 
L 575.526917 94.651776 
L 578.071764 119.413278 
L 580.61661 86.369137 
L 583.161457 114.355552 
L 585.706303 80.829356 
L 588.25115 102.65079 
L 590.795996 105.758134 
L 593.340843 133.0831 
L 595.885689 113.790036 
L 598.430535 121.797978 
L 600.975382 132.009153 
L 603.520228 127.601572 
L 606.065075 101.137444 
L 608.609921 105.786939 
L 611.154768 88.04431 
L 613.699614 88.885508 
L 616.244461 135.091486 
L 618.789307 101.808333 
L 621.334154 130.404495 
L 623.879 118.131382 
L 626.423847 99.988268 
L 628.968693 128.51771 
L 631.513539 116.643256 
L 634.058386 111.902135 
L 636.603232 116.08655 
L 639.148079 111.403681 
L 641.692925 129.800643 
L 644.237772 89.433943 
L 646.782618 117.444069 
L 649.327465 111.059966 
L 651.872311 138.716215 
L 654.417158 94.552101 
L 656.962004 124.661859 
L 659.50685 98.738184 
L 662.051697 119.353935 
L 664.596543 113.725639 
L 667.14139 152.181908 
L 669.686236 81.043003 
L 672.231083 110.940847 
L 674.775929 73.661574 
L 677.320776 100.977993 
L 679.865622 77.287261 
L 682.410469 108.347646 
L 684.955315 89.432302 
L 687.500162 64.387411 
L 690.045008 101.901456 
L 692.589854 81.673822 
L 695.134701 118.218558 
L 697.679547 89.041243 
L 700.224394 137.807916 
L 702.76924 90.047944 
L 705.314087 135.955698 
L 707.858933 86.497984 
L 710.40378 104.907326 
L 712.948626 90.06337 
L 715.493473 123.091993 
L 718.038319 94.638936 
L 720.583165 138.247801 
L 723.128012 102.64181 
L 725.672858 155.011365 
L 728.217705 117.706582 
L 730.762551 133.826789 
L 733.307398 96.945125 
L 735.852244 134.766085 
L 738.397091 110.41674 
L 740.941937 145.674984 
L 743.486784 86.650136 
L 746.03163 128.751444 
L 748.576477 89.185635 
L 751.121323 148.514392 
L 753.666169 109.848874 
L 756.211016 88.432677 
L 758.755862 126.77999 
L 761.300709 103.444842 
L 763.845555 125.861424 
L 766.390402 111.087707 
L 768.935248 110.807601 
L 771.480095 64.810806 
L 774.024941 107.597012 
L 776.569788 110.676798 
L 779.114634 143.498141 
L 781.65948 81.584125 
L 784.204327 82.970095 
L 786.749173 104.976673 
L 789.29402 116.751399 
L 791.838866 109.734193 
L 794.383713 79.702591 
L 796.928559 122.853282 
L 799.473406 81.645122 
L 802.018252 146.347527 
L 804.563099 97.004416 
L 807.107945 139.141054 
L 809.652792 93.905711 
L 812.197638 150.40983 
L 814.742484 105.833284 
L 817.287331 96.96239 
L 819.832177 78.816112 
L 822.377024 138.608978 
L 824.92187 102.814521 
L 827.466717 82.49291 
L 830.011563 91.408915 
L 832.55641 102.545063 
L 835.101256 90.880292 
L 837.646103 72.878997 
L 840.190949 126.247309 
L 842.735795 81.119151 
L 842.735795 81.119151 
" clip-path="url(#pad780fdabc)" style="fill: none; stroke: #ff4500; stroke-width: 0.9; stroke-linecap: square"/>
   </g>
   <g id="patch_3">
    <path d="M 43.78125 294.598125 
L 43.78125 22.798125 
" style="fill: none; stroke: #000000; stroke-width: 0.8; stroke-linejoin: miter; stroke-linecap: square"/>
   </g>
   <g id="patch_4">
    <path d="M 880.78125 294.598125 
L 880.78125 22.798125 
" style="fill: none; stroke: #000000; stroke-width: 0.8; stroke-linejoin: miter; stroke-linecap: square"/>
   </g>
   <g id="patch_5">
    <path d="M 43.78125 294.598125 
L 880.78125 294.598125 
" style="fill: none; stroke: #000000; stroke-width: 0.8; stroke-linejoin: miter; stroke-linecap: square"/>
   </g>
   <g id="patch_6">
    <path d="M 43.78125 22.798125 
L 880.78125 22.798125 
" style="fill: none; stroke: #000000; stroke-width: 0.8; stroke-linejoin: miter; stroke-linecap: square"/>
   </g>
   <g id="text_19">
    <!-- Wartość średnia z próbki 1 sekunda -->
    <g transform="translate(355.576875 16.798125)scale(0.12 -0.12)">
     <defs>
      <path id="DejaVuSans-20" transform="scale(0.015625)"/>
      <path id="DejaVuSans-65" d="M 3597 1894 
L 3597 1613 
L 953 1613 
Q 991 1019 1311 708 
Q 1631 397 2203 397 
Q 2534 397 2845 478 
Q 3156 559 3463 722 
L 3463 178 
Q 3153 47 2828 -22 
Q 2503 -91 2169 -91 
Q 1331 -91 842 396 
Q 353 884 353 1716 
Q 353 2575 817 3079 
Q 1281 3584 2069 3584 
Q 2775 3584 3186 3129 
Q 3597 2675 3597 1894 
z
M 3022 2063 
Q 3016 2534 2758 2815 
Q 2500 3097 2075 3097 
Q 1594 3097 1305 2825 
Q 1016 2553 972 2059 
L 3022 2063 
z
" transform="scale(0.015625)"/>
      <path id="DejaVuSans-64" d="M 2906 2969 
L 2906 4863 
L 3481 4863 
L 3481 0 
L 2906 0 
L 2906 525 
Q 2725 213 2448 61 
Q 2172 -91 1784 -91 
Q 1150 -91 751 415 
Q 353 922 353 1747 
Q 353 2572 751 3078 
Q 1150 3584 1784 3584 
Q 2172 3584 2448 3432 
Q 2725 3281 2906 2969 
z
M 947 1747 
Q 947 1113 1208 752 
Q 1469 391 1925 391 
Q 2381 391 2643 752 
Q 2906 1113 2906 1747 
Q 2906 2381 2643 2742 
Q 2381 3103 1925 3103 
Q 1469 3103 1208 2742 
Q 947 2381 947 1747 
z
" transform="scale(0.015625)"/>
      <path id="DejaVuSans-6e" d="M 3513 2113 
L 3513 0 
L 2938 0 
L 2938 2094 
Q 2938 2591 2744 2837 
Q 2550 3084 2163 3084 
Q 1697 3084 1428 2787 
Q 1159 2491 1159 1978 
L 1159 0 
L 581 0 
L 581 3500 
L 1159 3500 
L 1159 2956 
Q 1366 3272 1645 3428 
Q 1925 3584 2291 3584 
Q 2894 3584 3203 3211 
Q 3513 2838 3513 2113 
z
" transform="scale(0.015625)"/>
      <path id="DejaVuSans-69" d="M 603 3500 
L 1178 3500 
L 1178 0 
L 603 0 
L 603 3500 
z
M 603 4863 
L 1178 4863 
L 1178 4134 
L 603 4134 
L 603 4863 
z
" transform="scale(0.015625)"/>
      <path id="DejaVuSans-7a" d="M 353 3500 
L 3084 3500 
L 3084 2975 
L 922 459 
L 3084 459 
L 3084 0 
L 275 0 
L 275 525 
L 2438 3041 
L 353 3041 
L 353 3500 
z
" transform="scale(0.015625)"/>
      <path id="DejaVuSans-70" d="M 1159 525 
L 1159 -1331 
L 581 -1331 
L 581 3500 
L 1159 3500 
L 1159 2969 
Q 1341 3281 1617 3432 
Q 1894 3584 2278 3584 
Q 2916 3584 3314 3078 
Q 3713 2572 3713 1747 
Q 3713 922 3314 415 
Q 2916 -91 2278 -91 
Q 1894 -91 1617 61 
Q 1341 213 1159 525 
z
M 3116 1747 
Q 3116 2381 2855 2742 
Q 2594 3103 2138 3103 
Q 1681 3103 1420 2742 
Q 1159 2381 1159 1747 
Q 1159 1113 1420 752 
Q 1681 391 2138 391 
Q 2594 391 2855 752 
Q 3116 1113 3116 1747 
z
" transform="scale(0.015625)"/>
      <path id="DejaVuSans-73" d="M 2834 3397 
L 2834 2853 
Q 2591 2978 2328 3040 
Q 2066 3103 1784 3103 
Q 1356 3103 1142 2972 
Q 928 2841 928 2578 
Q 928 2378 1081 2264 
Q 1234 2150 1697 2047 
L 1894 2003 
Q 2506 1872 2764 1633 
Q 3022 1394 3022 966 
Q 3022 478 2636 193 
Q 2250 -91 1575 -91 
Q 1294 -91 989 -36 
Q 684 19 347 128 
L 347 722 
Q 666 556 975 473 
Q 1284 391 1588 391 
Q 1994 391 2212 530 
Q 2431 669 2431 922 
Q 2431 1156 2273 1281 
Q 2116 1406 1581 1522 
L 1381 1569 
Q 847 1681 609 1914 
Q 372 2147 372 2553 
Q 372 3047 722 3315 
Q 1072 3584 1716 3584 
Q 2034 3584 2315 3537 
Q 2597 3491 2834 3397 
z
" transform="scale(0.015625)"/>
      <path id="DejaVuSans-75" d="M 544 1381 
L 544 3500 
L 1119 3500 
L 1119 1403 
Q 1119 906 1312 657 
Q 1506 409 1894 409 
Q 2359 409 2629 706 
Q 2900 1003 2900 1516 
L 2900 3500 
L 3475 3500 
L 3475 0 
L 2900 0 
L 2900 538 
Q 2691 219 2414 64 
Q 2138 -91 1772 -91 
Q 1169 -91 856 284 
Q 544 659 544 1381 
z
M 1991 3584 
L 1991 3584 
z
" transform="scale(0.015625)"/>
     </defs>
     <use xlink:href="#DejaVuSans-57"/>
     <use xlink:href="#DejaVuSans-61" x="92.501953"/>
     <use xlink:href="#DejaVuSans-72" x="153.78125"/>
     <use xlink:href="#DejaVuSans-74" x="194.894531"/>
     <use xlink:href="#DejaVuSans-6f" x="234.103516"/>
     <use xlink:href="#DejaVuSans-15b" x="295.285156"/>
     <use xlink:href="#DejaVuSans-107" x="347.384766"/>
     <use xlink:href="#DejaVuSans-20" x="402.365234"/>
     <use xlink:href="#DejaVuSans-15b" x="434.152344"/>
     <use xlink:href="#DejaVuSans-72" x="486.251953"/>
     <use xlink:href="#DejaVuSans-65" x="525.115234"/>
     <use xlink:href="#DejaVuSans-64" x="586.638672"/>
     <use xlink:href="#DejaVuSans-6e" x="650.115234"/>
     <use xlink:href="#DejaVuSans-69" x="713.494141"/>
     <use xlink:href="#DejaVuSans-61" x="741.277344"/>
     <use xlink:href="#DejaVuSans-20" x="802.556641"/>
     <use xlink:href="#DejaVuSans-7a" x="834.34375"/>
     <use xlink:href="#DejaVuSans-20" x="886.833984"/>
     <use xlink:href="#DejaVuSans-70" x="918.621094"/>
     <use xlink:href="#DejaVuSans-72" x="982.097656"/>
     <use xlink:href="#DejaVuSans-f3" x="1020.960938"/>
     <use xlink:href="#DejaVuSans-62" x="1082.142578"/>
     <use xlink:href="#DejaVuSans-6b" x="1145.619141"/>
     <use xlink:href="#DejaVuSans-69" x="1203.529297"/>
     <use xlink:href="#DejaVuSans-20" x="1231.3125"/>
     <use xlink:href="#DejaVuSans-31" x="1263.099609"/>
     <use xlink:href="#DejaVuSans-20" x="1326.722656"/>
     <use xlink:href="#DejaVuSans-73" x="1358.509766"/>
     <use xlink:href="#DejaVuSans-65" x="1410.609375"/>
     <use xlink:href="#DejaVuSans-6b" x="1472.132812"/>
     <use xlink:href="#DejaVuSans-75" x="1526.917969"/>
     <use xlink:href="#DejaVuSans-6e" x="1590.296875"/>
     <use xlink:href="#DejaVuSans-64" x="1653.675781"/>
     <use xlink:href="#DejaVuSans-61" x="1717.152344"/>
    </g>
   </g>
   <g id="legend_1">
    <g id="patch_7">
     <path d="M 796.646875 105.579375 
L 873.78125 105.579375 
Q 875.78125 105.579375 875.78125 103.579375 
L 875.78125 29.798125 
Q 875.78125 27.798125 873.78125 27.798125 
L 796.646875 27.798125 
Q 794.646875 27.798125 794.646875 29.798125 
L 794.646875 103.579375 
Q 794.646875 105.579375 796.646875 105.579375 
z
" style="fill: #ffffff; opacity: 0.8; stroke: #cccccc; stroke-linejoin: miter"/>
    </g>
    <g id="line2d_22">
     <path d="M 798.646875 35.896563 
L 808.646875 35.896563 
L 818.646875 35.896563 
" style="fill: none; stroke: #ff00ff; stroke-width: 0.9; stroke-linecap: square"/>
    </g>
    <g id="text_20">
     <!-- CH1_8KS -->
     <g transform="translate(826.646875 39.396563)scale(0.1 -0.1)">
      <defs>
       <path id="DejaVuSans-43" d="M 4122 4306 
L 4122 3641 
Q 3803 3938 3442 4084 
Q 3081 4231 2675 4231 
Q 1875 4231 1450 3742 
Q 1025 3253 1025 2328 
Q 1025 1406 1450 917 
Q 1875 428 2675 428 
Q 3081 428 3442 575 
Q 3803 722 4122 1019 
L 4122 359 
Q 3791 134 3420 21 
Q 3050 -91 2638 -91 
Q 1578 -91 968 557 
Q 359 1206 359 2328 
Q 359 3453 968 4101 
Q 1578 4750 2638 4750 
Q 3056 4750 3426 4639 
Q 3797 4528 4122 4306 
z
" transform="scale(0.015625)"/>
       <path id="DejaVuSans-48" d="M 628 4666 
L 1259 4666 
L 1259 2753 
L 3553 2753 
L 3553 4666 
L 4184 4666 
L 4184 0 
L 3553 0 
L 3553 2222 
L 1259 2222 
L 1259 0 
L 628 0 
L 628 4666 
z
" transform="scale(0.015625)"/>
       <path id="DejaVuSans-5f" d="M 3263 -1063 
L 3263 -1509 
L -63 -1509 
L -63 -1063 
L 3263 -1063 
z
" transform="scale(0.015625)"/>
       <path id="DejaVuSans-4b" d="M 628 4666 
L 1259 4666 
L 1259 2694 
L 3353 4666 
L 4166 4666 
L 1850 2491 
L 4331 0 
L 3500 0 
L 1259 2247 
L 1259 0 
L 628 0 
L 628 4666 
z
" transform="scale(0.015625)"/>
       <path id="DejaVuSans-53" d="M 3425 4513 
L 3425 3897 
Q 3066 4069 2747 4153 
Q 2428 4238 2131 4238 
Q 1616 4238 1336 4038 
Q 1056 3838 1056 3469 
Q 1056 3159 1242 3001 
Q 1428 2844 1947 2747 
L 2328 2669 
Q 3034 2534 3370 2195 
Q 3706 1856 3706 1288 
Q 3706 609 3251 259 
Q 2797 -91 1919 -91 
Q 1588 -91 1214 -16 
Q 841 59 441 206 
L 441 856 
Q 825 641 1194 531 
Q 1563 422 1919 422 
Q 2459 422 2753 634 
Q 3047 847 3047 1241 
Q 3047 1584 2836 1778 
Q 2625 1972 2144 2069 
L 1759 2144 
Q 1053 2284 737 2584 
Q 422 2884 422 3419 
Q 422 4038 858 4394 
Q 1294 4750 2059 4750 
Q 2388 4750 2728 4690 
Q 3069 4631 3425 4513 
z
" transform="scale(0.015625)"/>
      </defs>
      <use xlink:href="#DejaVuSans-43"/>
      <use xlink:href="#DejaVuSans-48" x="69.824219"/>
      <use xlink:href="#DejaVuSans-31" x="145.019531"/>
      <use xlink:href="#DejaVuSans-5f" x="208.642578"/>
      <use xlink:href="#DejaVuSans-38" x="258.642578"/>
      <use xlink:href="#DejaVuSans-4b" x="322.265625"/>
      <use xlink:href="#DejaVuSans-53" x="387.841797"/>
     </g>
    </g>
    <g id="line2d_23">
     <path d="M 798.646875 50.852813 
L 808.646875 50.852813 
L 818.646875 50.852813 
" style="fill: none; stroke: #9400d3; stroke-width: 0.9; stroke-linecap: square"/>
    </g>
    <g id="text_21">
     <!-- CH2_8KS -->
     <g transform="translate(826.646875 54.352813)scale(0.1 -0.1)">
      <use xlink:href="#DejaVuSans-43"/>
      <use xlink:href="#DejaVuSans-48" x="69.824219"/>
      <use xlink:href="#DejaVuSans-32" x="145.019531"/>
      <use xlink:href="#DejaVuSans-5f" x="208.642578"/>
      <use xlink:href="#DejaVuSans-38" x="258.642578"/>
      <use xlink:href="#DejaVuSans-4b" x="322.265625"/>
      <use xlink:href="#DejaVuSans-53" x="387.841797"/>
     </g>
    </g>
    <g id="line2d_24">
     <path d="M 798.646875 65.809063 
L 808.646875 65.809063 
L 818.646875 65.809063 
" style="fill: none; stroke: #00ffff; stroke-width: 0.9; stroke-linecap: square"/>
    </g>
    <g id="text_22">
     <!-- CH3_8KS -->
     <g transform="translate(826.646875 69.309063)scale(0.1 -0.1)">
      <use xlink:href="#DejaVuSans-43"/>
      <use xlink:href="#DejaVuSans-48" x="69.824219"/>
      <use xlink:href="#DejaVuSans-33" x="145.019531"/>
      <use xlink:href="#DejaVuSans-5f" x="208.642578"/>
      <use xlink:href="#DejaVuSans-38" x="258.642578"/>
      <use xlink:href="#DejaVuSans-4b" x="322.265625"/>
      <use xlink:href="#DejaVuSans-53" x="387.841797"/>
     </g>
    </g>
    <g id="line2d_25">
     <path d="M 798.646875 80.765313 
L 808.646875 80.765313 
L 818.646875 80.765313 
" style="fill: none; stroke: #ffa500; stroke-width: 0.9; stroke-linecap: square"/>
    </g>
    <g id="text_23">
     <!-- CH4_8KS -->
     <g transform="translate(826.646875 84.265313)scale(0.1 -0.1)">
      <use xlink:href="#DejaVuSans-43"/>
      <use xlink:href="#DejaVuSans-48" x="69.824219"/>
      <use xlink:href="#DejaVuSans-34" x="145.019531"/>
      <use xlink:href="#DejaVuSans-5f" x="208.642578"/>
      <use xlink:href="#DejaVuSans-38" x="258.642578"/>
      <use xlink:href="#DejaVuSans-4b" x="322.265625"/>
      <use xlink:href="#DejaVuSans-53" x="387.841797"/>
     </g>
    </g>
    <g id="line2d_26">
     <path d="M 798.646875 95.721563 
L 808.646875 95.721563 
L 818.646875 95.721563 
" style="fill: none; stroke: #ff4500; stroke-width: 0.9; stroke-linecap: square"/>
    </g>
    <g id="text_24">
     <!-- CH5_8KS -->
     <g transform="translate(826.646875 99.221563)scale(0.1 -0.1)">
      <use xlink:href="#DejaVuSans-43"/>
      <use xlink:href="#DejaVuSans-48" x="69.824219"/>
      <use xlink:href="#DejaVuSans-35" x="145.019531"/>
      <use xlink:href="#DejaVuSans-5f" x="208.642578"/>
      <use xlink:href="#DejaVuSans-38" x="258.642578"/>
      <use xlink:href="#DejaVuSans-4b" x="322.265625"/>
      <use xlink:href="#DejaVuSans-53" x="387.841797"/>
     </g>
    </g>
   </g>
  </g>
 </g>
 <defs>
  <clipPath id="pad780fdabc">
   <rect x="43.78125" y="22.798125" width="837" height="271.8"/>
  </clipPath>
 </defs>
</svg>
