<?xml version="1.0" encoding="utf-8" standalone="no"?>
<!DOCTYPE svg PUBLIC "-//W3C//DTD SVG 1.1//EN"
  "http://www.w3.org/Graphics/SVG/1.1/DTD/svg11.dtd">
<svg xmlns:xlink="http://www.w3.org/1999/xlink" width="887.98125pt" height="332.154375pt" viewBox="0 0 887.98125 332.154375" xmlns="http://www.w3.org/2000/svg" version="1.1">
 <metadata>
  <rdf:RDF xmlns:dc="http://purl.org/dc/elements/1.1/" xmlns:cc="http://creativecommons.org/ns#" xmlns:rdf="http://www.w3.org/1999/02/22-rdf-syntax-ns#">
   <cc:Work>
    <dc:type rdf:resource="http://purl.org/dc/dcmitype/StillImage"/>
    <dc:date>2022-06-21T21:13:40.470104</dc:date>
    <dc:format>image/svg+xml</dc:format>
    <dc:creator>
     <cc:Agent>
      <dc:title>Matplotlib v3.5.2, https://matplotlib.org/</dc:title>
     </cc:Agent>
    </dc:creator>
   </cc:Work>
  </rdf:RDF>
 </metadata>
 <defs>
  <style type="text/css">*{stroke-linejoin: round; stroke-linecap: butt}</style>
 </defs>
 <g id="figure_1">
  <g id="patch_1">
   <path d="M 0 332.154375 
L 887.98125 332.154375 
L 887.98125 0 
L 0 0 
L 0 332.154375 
z
" style="fill: none"/>
  </g>
  <g id="axes_1">
   <g id="patch_2">
    <path d="M 43.78125 294.598125 
L 880.78125 294.598125 
L 880.78125 22.798125 
L 43.78125 22.798125 
z
" style="fill: #ffffff"/>
   </g>
   <g id="matplotlib.axis_1">
    <g id="xtick_1">
     <g id="line2d_1">
      <defs>
       <path id="m0eebdf2548" d="M 0 0 
L 0 3.5 
" style="stroke: #000000; stroke-width: 0.8"/>
      </defs>
      <g>
       <use xlink:href="#m0eebdf2548" x="81.826705" y="294.598125" style="stroke: #000000; stroke-width: 0.8"/>
      </g>
     </g>
     <g id="text_1">
      <!-- 0 -->
      <g transform="translate(78.645455 309.196562)scale(0.1 -0.1)">
       <defs>
        <path id="DejaVuSans-30" d="M 2034 4250 
Q 1547 4250 1301 3770 
Q 1056 3291 1056 2328 
Q 1056 1369 1301 889 
Q 1547 409 2034 409 
Q 2525 409 2770 889 
Q 3016 1369 3016 2328 
Q 3016 3291 2770 3770 
Q 2525 4250 2034 4250 
z
M 2034 4750 
Q 2819 4750 3233 4129 
Q 3647 3509 3647 2328 
Q 3647 1150 3233 529 
Q 2819 -91 2034 -91 
Q 1250 -91 836 529 
Q 422 1150 422 2328 
Q 422 3509 836 4129 
Q 1250 4750 2034 4750 
z
" transform="scale(0.015625)"/>
       </defs>
       <use xlink:href="#DejaVuSans-30"/>
      </g>
     </g>
    </g>
    <g id="xtick_2">
     <g id="line2d_2">
      <g>
       <use xlink:href="#m0eebdf2548" x="209.069027" y="294.598125" style="stroke: #000000; stroke-width: 0.8"/>
      </g>
     </g>
     <g id="text_2">
      <!-- 50 -->
      <g transform="translate(202.706527 309.196562)scale(0.1 -0.1)">
       <defs>
        <path id="DejaVuSans-35" d="M 691 4666 
L 3169 4666 
L 3169 4134 
L 1269 4134 
L 1269 2991 
Q 1406 3038 1543 3061 
Q 1681 3084 1819 3084 
Q 2600 3084 3056 2656 
Q 3513 2228 3513 1497 
Q 3513 744 3044 326 
Q 2575 -91 1722 -91 
Q 1428 -91 1123 -41 
Q 819 9 494 109 
L 494 744 
Q 775 591 1075 516 
Q 1375 441 1709 441 
Q 2250 441 2565 725 
Q 2881 1009 2881 1497 
Q 2881 1984 2565 2268 
Q 2250 2553 1709 2553 
Q 1456 2553 1204 2497 
Q 953 2441 691 2322 
L 691 4666 
z
" transform="scale(0.015625)"/>
       </defs>
       <use xlink:href="#DejaVuSans-35"/>
       <use xlink:href="#DejaVuSans-30" x="63.623047"/>
      </g>
     </g>
    </g>
    <g id="xtick_3">
     <g id="line2d_3">
      <g>
       <use xlink:href="#m0eebdf2548" x="336.31135" y="294.598125" style="stroke: #000000; stroke-width: 0.8"/>
      </g>
     </g>
     <g id="text_3">
      <!-- 100 -->
      <g transform="translate(326.7676 309.196562)scale(0.1 -0.1)">
       <defs>
        <path id="DejaVuSans-31" d="M 794 531 
L 1825 531 
L 1825 4091 
L 703 3866 
L 703 4441 
L 1819 4666 
L 2450 4666 
L 2450 531 
L 3481 531 
L 3481 0 
L 794 0 
L 794 531 
z
" transform="scale(0.015625)"/>
       </defs>
       <use xlink:href="#DejaVuSans-31"/>
       <use xlink:href="#DejaVuSans-30" x="63.623047"/>
       <use xlink:href="#DejaVuSans-30" x="127.246094"/>
      </g>
     </g>
    </g>
    <g id="xtick_4">
     <g id="line2d_4">
      <g>
       <use xlink:href="#m0eebdf2548" x="463.553673" y="294.598125" style="stroke: #000000; stroke-width: 0.8"/>
      </g>
     </g>
     <g id="text_4">
      <!-- 150 -->
      <g transform="translate(454.009923 309.196562)scale(0.1 -0.1)">
       <use xlink:href="#DejaVuSans-31"/>
       <use xlink:href="#DejaVuSans-35" x="63.623047"/>
       <use xlink:href="#DejaVuSans-30" x="127.246094"/>
      </g>
     </g>
    </g>
    <g id="xtick_5">
     <g id="line2d_5">
      <g>
       <use xlink:href="#m0eebdf2548" x="590.795996" y="294.598125" style="stroke: #000000; stroke-width: 0.8"/>
      </g>
     </g>
     <g id="text_5">
      <!-- 200 -->
      <g transform="translate(581.252246 309.196562)scale(0.1 -0.1)">
       <defs>
        <path id="DejaVuSans-32" d="M 1228 531 
L 3431 531 
L 3431 0 
L 469 0 
L 469 531 
Q 828 903 1448 1529 
Q 2069 2156 2228 2338 
Q 2531 2678 2651 2914 
Q 2772 3150 2772 3378 
Q 2772 3750 2511 3984 
Q 2250 4219 1831 4219 
Q 1534 4219 1204 4116 
Q 875 4013 500 3803 
L 500 4441 
Q 881 4594 1212 4672 
Q 1544 4750 1819 4750 
Q 2544 4750 2975 4387 
Q 3406 4025 3406 3419 
Q 3406 3131 3298 2873 
Q 3191 2616 2906 2266 
Q 2828 2175 2409 1742 
Q 1991 1309 1228 531 
z
" transform="scale(0.015625)"/>
       </defs>
       <use xlink:href="#DejaVuSans-32"/>
       <use xlink:href="#DejaVuSans-30" x="63.623047"/>
       <use xlink:href="#DejaVuSans-30" x="127.246094"/>
      </g>
     </g>
    </g>
    <g id="xtick_6">
     <g id="line2d_6">
      <g>
       <use xlink:href="#m0eebdf2548" x="718.038319" y="294.598125" style="stroke: #000000; stroke-width: 0.8"/>
      </g>
     </g>
     <g id="text_6">
      <!-- 250 -->
      <g transform="translate(708.494569 309.196562)scale(0.1 -0.1)">
       <use xlink:href="#DejaVuSans-32"/>
       <use xlink:href="#DejaVuSans-35" x="63.623047"/>
       <use xlink:href="#DejaVuSans-30" x="127.246094"/>
      </g>
     </g>
    </g>
    <g id="xtick_7">
     <g id="line2d_7">
      <g>
       <use xlink:href="#m0eebdf2548" x="845.280642" y="294.598125" style="stroke: #000000; stroke-width: 0.8"/>
      </g>
     </g>
     <g id="text_7">
      <!-- 300 -->
      <g transform="translate(835.736892 309.196562)scale(0.1 -0.1)">
       <defs>
        <path id="DejaVuSans-33" d="M 2597 2516 
Q 3050 2419 3304 2112 
Q 3559 1806 3559 1356 
Q 3559 666 3084 287 
Q 2609 -91 1734 -91 
Q 1441 -91 1130 -33 
Q 819 25 488 141 
L 488 750 
Q 750 597 1062 519 
Q 1375 441 1716 441 
Q 2309 441 2620 675 
Q 2931 909 2931 1356 
Q 2931 1769 2642 2001 
Q 2353 2234 1838 2234 
L 1294 2234 
L 1294 2753 
L 1863 2753 
Q 2328 2753 2575 2939 
Q 2822 3125 2822 3475 
Q 2822 3834 2567 4026 
Q 2313 4219 1838 4219 
Q 1578 4219 1281 4162 
Q 984 4106 628 3988 
L 628 4550 
Q 988 4650 1302 4700 
Q 1616 4750 1894 4750 
Q 2613 4750 3031 4423 
Q 3450 4097 3450 3541 
Q 3450 3153 3228 2886 
Q 3006 2619 2597 2516 
z
" transform="scale(0.015625)"/>
       </defs>
       <use xlink:href="#DejaVuSans-33"/>
       <use xlink:href="#DejaVuSans-30" x="63.623047"/>
       <use xlink:href="#DejaVuSans-30" x="127.246094"/>
      </g>
     </g>
    </g>
    <g id="text_8">
     <!-- Próbka -->
     <g transform="translate(445.305469 322.874687)scale(0.1 -0.1)">
      <defs>
       <path id="DejaVuSans-50" d="M 1259 4147 
L 1259 2394 
L 2053 2394 
Q 2494 2394 2734 2622 
Q 2975 2850 2975 3272 
Q 2975 3691 2734 3919 
Q 2494 4147 2053 4147 
L 1259 4147 
z
M 628 4666 
L 2053 4666 
Q 2838 4666 3239 4311 
Q 3641 3956 3641 3272 
Q 3641 2581 3239 2228 
Q 2838 1875 2053 1875 
L 1259 1875 
L 1259 0 
L 628 0 
L 628 4666 
z
" transform="scale(0.015625)"/>
       <path id="DejaVuSans-72" d="M 2631 2963 
Q 2534 3019 2420 3045 
Q 2306 3072 2169 3072 
Q 1681 3072 1420 2755 
Q 1159 2438 1159 1844 
L 1159 0 
L 581 0 
L 581 3500 
L 1159 3500 
L 1159 2956 
Q 1341 3275 1631 3429 
Q 1922 3584 2338 3584 
Q 2397 3584 2469 3576 
Q 2541 3569 2628 3553 
L 2631 2963 
z
" transform="scale(0.015625)"/>
       <path id="DejaVuSans-f3" d="M 1959 3097 
Q 1497 3097 1228 2736 
Q 959 2375 959 1747 
Q 959 1119 1226 758 
Q 1494 397 1959 397 
Q 2419 397 2687 759 
Q 2956 1122 2956 1747 
Q 2956 2369 2687 2733 
Q 2419 3097 1959 3097 
z
M 1959 3584 
Q 2709 3584 3137 3096 
Q 3566 2609 3566 1747 
Q 3566 888 3137 398 
Q 2709 -91 1959 -91 
Q 1206 -91 779 398 
Q 353 888 353 1747 
Q 353 2609 779 3096 
Q 1206 3584 1959 3584 
z
M 2394 5119 
L 3016 5119 
L 1998 3944 
L 1519 3944 
L 2394 5119 
z
" transform="scale(0.015625)"/>
       <path id="DejaVuSans-62" d="M 3116 1747 
Q 3116 2381 2855 2742 
Q 2594 3103 2138 3103 
Q 1681 3103 1420 2742 
Q 1159 2381 1159 1747 
Q 1159 1113 1420 752 
Q 1681 391 2138 391 
Q 2594 391 2855 752 
Q 3116 1113 3116 1747 
z
M 1159 2969 
Q 1341 3281 1617 3432 
Q 1894 3584 2278 3584 
Q 2916 3584 3314 3078 
Q 3713 2572 3713 1747 
Q 3713 922 3314 415 
Q 2916 -91 2278 -91 
Q 1894 -91 1617 61 
Q 1341 213 1159 525 
L 1159 0 
L 581 0 
L 581 4863 
L 1159 4863 
L 1159 2969 
z
" transform="scale(0.015625)"/>
       <path id="DejaVuSans-6b" d="M 581 4863 
L 1159 4863 
L 1159 1991 
L 2875 3500 
L 3609 3500 
L 1753 1863 
L 3688 0 
L 2938 0 
L 1159 1709 
L 1159 0 
L 581 0 
L 581 4863 
z
" transform="scale(0.015625)"/>
       <path id="DejaVuSans-61" d="M 2194 1759 
Q 1497 1759 1228 1600 
Q 959 1441 959 1056 
Q 959 750 1161 570 
Q 1363 391 1709 391 
Q 2188 391 2477 730 
Q 2766 1069 2766 1631 
L 2766 1759 
L 2194 1759 
z
M 3341 1997 
L 3341 0 
L 2766 0 
L 2766 531 
Q 2569 213 2275 61 
Q 1981 -91 1556 -91 
Q 1019 -91 701 211 
Q 384 513 384 1019 
Q 384 1609 779 1909 
Q 1175 2209 1959 2209 
L 2766 2209 
L 2766 2266 
Q 2766 2663 2505 2880 
Q 2244 3097 1772 3097 
Q 1472 3097 1187 3025 
Q 903 2953 641 2809 
L 641 3341 
Q 956 3463 1253 3523 
Q 1550 3584 1831 3584 
Q 2591 3584 2966 3190 
Q 3341 2797 3341 1997 
z
" transform="scale(0.015625)"/>
      </defs>
      <use xlink:href="#DejaVuSans-50"/>
      <use xlink:href="#DejaVuSans-72" x="58.552734"/>
      <use xlink:href="#DejaVuSans-f3" x="97.416016"/>
      <use xlink:href="#DejaVuSans-62" x="158.597656"/>
      <use xlink:href="#DejaVuSans-6b" x="222.074219"/>
      <use xlink:href="#DejaVuSans-61" x="278.234375"/>
     </g>
    </g>
   </g>
   <g id="matplotlib.axis_2">
    <g id="ytick_1">
     <g id="line2d_8">
      <defs>
       <path id="m34997dd794" d="M 0 0 
L -3.5 0 
" style="stroke: #000000; stroke-width: 0.8"/>
      </defs>
      <g>
       <use xlink:href="#m34997dd794" x="43.78125" y="293.924798" style="stroke: #000000; stroke-width: 0.8"/>
      </g>
     </g>
     <g id="text_9">
      <!-- 0.0 -->
      <g transform="translate(20.878125 297.724016)scale(0.1 -0.1)">
       <defs>
        <path id="DejaVuSans-2e" d="M 684 794 
L 1344 794 
L 1344 0 
L 684 0 
L 684 794 
z
" transform="scale(0.015625)"/>
       </defs>
       <use xlink:href="#DejaVuSans-30"/>
       <use xlink:href="#DejaVuSans-2e" x="63.623047"/>
       <use xlink:href="#DejaVuSans-30" x="95.410156"/>
      </g>
     </g>
    </g>
    <g id="ytick_2">
     <g id="line2d_9">
      <g>
       <use xlink:href="#m34997dd794" x="43.78125" y="261.140887" style="stroke: #000000; stroke-width: 0.8"/>
      </g>
     </g>
     <g id="text_10">
      <!-- 0.1 -->
      <g transform="translate(20.878125 264.940106)scale(0.1 -0.1)">
       <use xlink:href="#DejaVuSans-30"/>
       <use xlink:href="#DejaVuSans-2e" x="63.623047"/>
       <use xlink:href="#DejaVuSans-31" x="95.410156"/>
      </g>
     </g>
    </g>
    <g id="ytick_3">
     <g id="line2d_10">
      <g>
       <use xlink:href="#m34997dd794" x="43.78125" y="228.356977" style="stroke: #000000; stroke-width: 0.8"/>
      </g>
     </g>
     <g id="text_11">
      <!-- 0.2 -->
      <g transform="translate(20.878125 232.156195)scale(0.1 -0.1)">
       <use xlink:href="#DejaVuSans-30"/>
       <use xlink:href="#DejaVuSans-2e" x="63.623047"/>
       <use xlink:href="#DejaVuSans-32" x="95.410156"/>
      </g>
     </g>
    </g>
    <g id="ytick_4">
     <g id="line2d_11">
      <g>
       <use xlink:href="#m34997dd794" x="43.78125" y="195.573066" style="stroke: #000000; stroke-width: 0.8"/>
      </g>
     </g>
     <g id="text_12">
      <!-- 0.3 -->
      <g transform="translate(20.878125 199.372285)scale(0.1 -0.1)">
       <use xlink:href="#DejaVuSans-30"/>
       <use xlink:href="#DejaVuSans-2e" x="63.623047"/>
       <use xlink:href="#DejaVuSans-33" x="95.410156"/>
      </g>
     </g>
    </g>
    <g id="ytick_5">
     <g id="line2d_12">
      <g>
       <use xlink:href="#m34997dd794" x="43.78125" y="162.789156" style="stroke: #000000; stroke-width: 0.8"/>
      </g>
     </g>
     <g id="text_13">
      <!-- 0.4 -->
      <g transform="translate(20.878125 166.588374)scale(0.1 -0.1)">
       <defs>
        <path id="DejaVuSans-34" d="M 2419 4116 
L 825 1625 
L 2419 1625 
L 2419 4116 
z
M 2253 4666 
L 3047 4666 
L 3047 1625 
L 3713 1625 
L 3713 1100 
L 3047 1100 
L 3047 0 
L 2419 0 
L 2419 1100 
L 313 1100 
L 313 1709 
L 2253 4666 
z
" transform="scale(0.015625)"/>
       </defs>
       <use xlink:href="#DejaVuSans-30"/>
       <use xlink:href="#DejaVuSans-2e" x="63.623047"/>
       <use xlink:href="#DejaVuSans-34" x="95.410156"/>
      </g>
     </g>
    </g>
    <g id="ytick_6">
     <g id="line2d_13">
      <g>
       <use xlink:href="#m34997dd794" x="43.78125" y="130.005245" style="stroke: #000000; stroke-width: 0.8"/>
      </g>
     </g>
     <g id="text_14">
      <!-- 0.5 -->
      <g transform="translate(20.878125 133.804464)scale(0.1 -0.1)">
       <use xlink:href="#DejaVuSans-30"/>
       <use xlink:href="#DejaVuSans-2e" x="63.623047"/>
       <use xlink:href="#DejaVuSans-35" x="95.410156"/>
      </g>
     </g>
    </g>
    <g id="ytick_7">
     <g id="line2d_14">
      <g>
       <use xlink:href="#m34997dd794" x="43.78125" y="97.221335" style="stroke: #000000; stroke-width: 0.8"/>
      </g>
     </g>
     <g id="text_15">
      <!-- 0.6 -->
      <g transform="translate(20.878125 101.020553)scale(0.1 -0.1)">
       <defs>
        <path id="DejaVuSans-36" d="M 2113 2584 
Q 1688 2584 1439 2293 
Q 1191 2003 1191 1497 
Q 1191 994 1439 701 
Q 1688 409 2113 409 
Q 2538 409 2786 701 
Q 3034 994 3034 1497 
Q 3034 2003 2786 2293 
Q 2538 2584 2113 2584 
z
M 3366 4563 
L 3366 3988 
Q 3128 4100 2886 4159 
Q 2644 4219 2406 4219 
Q 1781 4219 1451 3797 
Q 1122 3375 1075 2522 
Q 1259 2794 1537 2939 
Q 1816 3084 2150 3084 
Q 2853 3084 3261 2657 
Q 3669 2231 3669 1497 
Q 3669 778 3244 343 
Q 2819 -91 2113 -91 
Q 1303 -91 875 529 
Q 447 1150 447 2328 
Q 447 3434 972 4092 
Q 1497 4750 2381 4750 
Q 2619 4750 2861 4703 
Q 3103 4656 3366 4563 
z
" transform="scale(0.015625)"/>
       </defs>
       <use xlink:href="#DejaVuSans-30"/>
       <use xlink:href="#DejaVuSans-2e" x="63.623047"/>
       <use xlink:href="#DejaVuSans-36" x="95.410156"/>
      </g>
     </g>
    </g>
    <g id="ytick_8">
     <g id="line2d_15">
      <g>
       <use xlink:href="#m34997dd794" x="43.78125" y="64.437424" style="stroke: #000000; stroke-width: 0.8"/>
      </g>
     </g>
     <g id="text_16">
      <!-- 0.7 -->
      <g transform="translate(20.878125 68.236643)scale(0.1 -0.1)">
       <defs>
        <path id="DejaVuSans-37" d="M 525 4666 
L 3525 4666 
L 3525 4397 
L 1831 0 
L 1172 0 
L 2766 4134 
L 525 4134 
L 525 4666 
z
" transform="scale(0.015625)"/>
       </defs>
       <use xlink:href="#DejaVuSans-30"/>
       <use xlink:href="#DejaVuSans-2e" x="63.623047"/>
       <use xlink:href="#DejaVuSans-37" x="95.410156"/>
      </g>
     </g>
    </g>
    <g id="ytick_9">
     <g id="line2d_16">
      <g>
       <use xlink:href="#m34997dd794" x="43.78125" y="31.653514" style="stroke: #000000; stroke-width: 0.8"/>
      </g>
     </g>
     <g id="text_17">
      <!-- 0.8 -->
      <g transform="translate(20.878125 35.452732)scale(0.1 -0.1)">
       <defs>
        <path id="DejaVuSans-38" d="M 2034 2216 
Q 1584 2216 1326 1975 
Q 1069 1734 1069 1313 
Q 1069 891 1326 650 
Q 1584 409 2034 409 
Q 2484 409 2743 651 
Q 3003 894 3003 1313 
Q 3003 1734 2745 1975 
Q 2488 2216 2034 2216 
z
M 1403 2484 
Q 997 2584 770 2862 
Q 544 3141 544 3541 
Q 544 4100 942 4425 
Q 1341 4750 2034 4750 
Q 2731 4750 3128 4425 
Q 3525 4100 3525 3541 
Q 3525 3141 3298 2862 
Q 3072 2584 2669 2484 
Q 3125 2378 3379 2068 
Q 3634 1759 3634 1313 
Q 3634 634 3220 271 
Q 2806 -91 2034 -91 
Q 1263 -91 848 271 
Q 434 634 434 1313 
Q 434 1759 690 2068 
Q 947 2378 1403 2484 
z
M 1172 3481 
Q 1172 3119 1398 2916 
Q 1625 2713 2034 2713 
Q 2441 2713 2670 2916 
Q 2900 3119 2900 3481 
Q 2900 3844 2670 4047 
Q 2441 4250 2034 4250 
Q 1625 4250 1398 4047 
Q 1172 3844 1172 3481 
z
" transform="scale(0.015625)"/>
       </defs>
       <use xlink:href="#DejaVuSans-30"/>
       <use xlink:href="#DejaVuSans-2e" x="63.623047"/>
       <use xlink:href="#DejaVuSans-38" x="95.410156"/>
      </g>
     </g>
    </g>
    <g id="text_18">
     <!-- Wartość -->
     <g transform="translate(14.798438 178.816094)rotate(-90)scale(0.1 -0.1)">
      <defs>
       <path id="DejaVuSans-57" d="M 213 4666 
L 850 4666 
L 1831 722 
L 2809 4666 
L 3519 4666 
L 4500 722 
L 5478 4666 
L 6119 4666 
L 4947 0 
L 4153 0 
L 3169 4050 
L 2175 0 
L 1381 0 
L 213 4666 
z
" transform="scale(0.015625)"/>
       <path id="DejaVuSans-74" d="M 1172 4494 
L 1172 3500 
L 2356 3500 
L 2356 3053 
L 1172 3053 
L 1172 1153 
Q 1172 725 1289 603 
Q 1406 481 1766 481 
L 2356 481 
L 2356 0 
L 1766 0 
Q 1100 0 847 248 
Q 594 497 594 1153 
L 594 3053 
L 172 3053 
L 172 3500 
L 594 3500 
L 594 4494 
L 1172 4494 
z
" transform="scale(0.015625)"/>
       <path id="DejaVuSans-6f" d="M 1959 3097 
Q 1497 3097 1228 2736 
Q 959 2375 959 1747 
Q 959 1119 1226 758 
Q 1494 397 1959 397 
Q 2419 397 2687 759 
Q 2956 1122 2956 1747 
Q 2956 2369 2687 2733 
Q 2419 3097 1959 3097 
z
M 1959 3584 
Q 2709 3584 3137 3096 
Q 3566 2609 3566 1747 
Q 3566 888 3137 398 
Q 2709 -91 1959 -91 
Q 1206 -91 779 398 
Q 353 888 353 1747 
Q 353 2609 779 3096 
Q 1206 3584 1959 3584 
z
" transform="scale(0.015625)"/>
       <path id="DejaVuSans-15b" d="M 2242 5119 
L 2864 5119 
L 1846 3944 
L 1367 3944 
L 2242 5119 
z
M 2834 3397 
L 2834 2853 
Q 2591 2978 2328 3040 
Q 2066 3103 1784 3103 
Q 1356 3103 1142 2972 
Q 928 2841 928 2578 
Q 928 2378 1081 2264 
Q 1234 2150 1697 2047 
L 1894 2003 
Q 2506 1872 2764 1633 
Q 3022 1394 3022 966 
Q 3022 478 2636 193 
Q 2250 -91 1575 -91 
Q 1294 -91 989 -36 
Q 684 19 347 128 
L 347 722 
Q 666 556 975 473 
Q 1284 391 1588 391 
Q 1994 391 2212 530 
Q 2431 669 2431 922 
Q 2431 1156 2273 1281 
Q 2116 1406 1581 1522 
L 1381 1569 
Q 847 1681 609 1914 
Q 372 2147 372 2553 
Q 372 3047 722 3315 
Q 1072 3584 1716 3584 
Q 2034 3584 2315 3537 
Q 2597 3491 2834 3397 
z
" transform="scale(0.015625)"/>
       <path id="DejaVuSans-107" d="M 3122 3366 
L 3122 2828 
Q 2878 2963 2633 3030 
Q 2388 3097 2138 3097 
Q 1578 3097 1268 2742 
Q 959 2388 959 1747 
Q 959 1106 1268 751 
Q 1578 397 2138 397 
Q 2388 397 2633 464 
Q 2878 531 3122 666 
L 3122 134 
Q 2881 22 2623 -34 
Q 2366 -91 2075 -91 
Q 1284 -91 818 406 
Q 353 903 353 1747 
Q 353 2603 823 3093 
Q 1294 3584 2113 3584 
Q 2378 3584 2631 3529 
Q 2884 3475 3122 3366 
z
M 2466 5119 
L 3088 5119 
L 2070 3944 
L 1591 3944 
L 2466 5119 
z
" transform="scale(0.015625)"/>
      </defs>
      <use xlink:href="#DejaVuSans-57"/>
      <use xlink:href="#DejaVuSans-61" x="92.501953"/>
      <use xlink:href="#DejaVuSans-72" x="153.78125"/>
      <use xlink:href="#DejaVuSans-74" x="194.894531"/>
      <use xlink:href="#DejaVuSans-6f" x="234.103516"/>
      <use xlink:href="#DejaVuSans-15b" x="295.285156"/>
      <use xlink:href="#DejaVuSans-107" x="347.384766"/>
     </g>
    </g>
   </g>
   <g id="line2d_17">
    <path d="M 81.826705 279.64088 
L 84.371551 278.613498 
L 86.916397 278.964363 
L 89.461244 278.490801 
L 92.00609 280.076204 
L 94.550937 278.14813 
L 97.095783 279.19337 
L 99.64063 278.417056 
L 102.185476 280.420345 
L 104.730323 278.939991 
L 107.275169 279.329934 
L 109.820016 278.669174 
L 112.364862 278.944403 
L 114.909708 278.262844 
L 117.454555 277.817225 
L 119.999401 279.3001 
L 122.544248 276.03559 
L 125.089094 280.143855 
L 127.633941 278.210949 
L 130.178787 280.395133 
L 132.723634 278.406761 
L 135.26848 279.434563 
L 137.813327 277.037129 
L 140.358173 278.207378 
L 142.90302 278.768761 
L 145.447866 279.480995 
L 147.992712 278.998399 
L 150.537559 279.063109 
L 153.082405 279.725549 
L 155.627252 277.65755 
L 158.172098 278.630726 
L 160.716945 276.947417 
L 163.261791 278.365792 
L 165.806638 277.824788 
L 168.351484 279.025291 
L 170.896331 277.692426 
L 173.441177 280.050362 
L 175.986023 278.305914 
L 178.53087 279.658528 
L 181.075716 279.565664 
L 183.620563 278.400878 
L 186.165409 278.755525 
L 188.710256 279.884384 
L 191.255102 280.195119 
L 193.799949 277.122849 
L 196.344795 278.498154 
L 198.889642 276.327837 
L 201.434488 277.768902 
L 203.979335 278.977599 
L 206.524181 278.564755 
L 211.613874 278.93852 
L 214.15872 279.436664 
L 216.703567 278.515592 
L 219.248413 279.655376 
L 221.79326 278.151071 
L 226.882953 278.039089 
L 229.427799 278.899232 
L 231.972646 278.481136 
L 234.517492 278.435545 
L 237.062338 278.19078 
L 239.607185 277.404591 
L 242.152031 279.507677 
L 244.696878 278.546687 
L 247.241724 277.714907 
L 249.786571 277.647255 
L 252.331417 280.154991 
L 254.876264 277.42329 
L 257.42111 280.013804 
L 259.965957 277.548509 
L 262.510803 279.731012 
L 265.05565 278.194772 
L 267.600496 279.861063 
L 270.145342 278.305704 
L 272.690189 279.053234 
L 275.235035 279.020459 
L 277.779882 277.988455 
L 280.324728 279.04504 
L 282.869575 278.932217 
L 285.414421 280.028511 
L 287.959268 279.176352 
L 290.504114 280.209826 
L 293.048961 279.975356 
L 295.593807 279.242113 
L 298.138653 279.124668 
L 300.6835 279.732483 
L 303.228346 279.707901 
L 305.773193 279.563773 
L 308.318039 279.648443 
L 310.862886 279.249886 
L 315.952579 278.840825 
L 318.497425 278.195822 
L 321.042272 278.131322 
L 323.587118 278.356968 
L 326.131965 278.920242 
L 328.676811 278.413064 
L 331.221657 278.555721 
L 333.766504 278.480506 
L 336.31135 279.118365 
L 338.856197 277.875002 
L 341.401043 278.733674 
L 343.94589 278.485758 
L 346.490736 280.23861 
L 349.035583 278.984532 
L 354.125276 278.46895 
L 356.670122 281.054002 
L 359.214968 279.051974 
L 361.759815 280.818061 
L 364.304661 278.95974 
L 366.849508 280.51699 
L 369.394354 278.890198 
L 371.939201 279.717145 
L 374.484047 278.647534 
L 377.028894 280.270545 
L 379.57374 277.396398 
L 382.118587 278.608456 
L 384.663433 279.491079 
L 387.208279 280.717214 
L 389.753126 278.887256 
L 392.297972 279.683109 
L 394.842819 279.771351 
L 397.387665 280.712592 
L 399.932512 279.605373 
L 402.477358 279.383299 
L 405.022205 278.948605 
L 407.567051 278.878222 
L 410.111898 280.736753 
L 412.656744 280.424127 
L 415.201591 278.545216 
L 417.746437 278.519584 
L 420.291283 281.05064 
L 422.83613 280.102466 
L 425.380976 279.544865 
L 427.925823 279.319429 
L 430.470669 279.690043 
L 433.015516 279.199883 
L 438.105209 279.10891 
L 440.650055 279.777234 
L 443.194902 279.080967 
L 445.739748 280.066119 
L 448.284594 278.947134 
L 450.829441 279.712313 
L 453.374287 279.100506 
L 455.919134 279.461876 
L 458.46398 278.529249 
L 461.008827 278.692705 
L 463.553673 279.594868 
L 466.09852 280.320758 
L 468.643366 279.772191 
L 471.188213 280.839281 
L 473.733059 280.401436 
L 476.277906 278.971506 
L 478.822752 279.503895 
L 481.367598 279.780385 
L 483.912445 279.530788 
L 486.457291 279.603482 
L 489.002138 279.520073 
L 491.546984 277.690325 
L 494.091831 279.609365 
L 496.636677 278.098757 
L 499.181524 279.078026 
L 501.72637 276.998471 
L 504.271217 281.196239 
L 506.816063 279.02193 
L 509.360909 280.294286 
L 511.905756 279.305983 
L 514.450602 281.078583 
L 516.995449 277.793064 
L 519.540295 279.541923 
L 522.085142 279.892368 
L 524.629988 281.852796 
L 527.174835 279.49297 
L 529.719681 278.847128 
L 532.264528 278.498784 
L 534.809374 280.481694 
L 537.354221 277.890969 
L 539.899067 278.885155 
L 542.443913 280.995805 
L 544.98876 280.66553 
L 547.533606 280.084187 
L 550.078453 277.577923 
L 552.623299 280.034814 
L 555.168146 277.706713 
L 557.712992 280.935927 
L 560.257839 277.575822 
L 562.802685 279.626803 
L 565.347532 278.002532 
L 567.892378 280.005611 
L 570.437224 277.539895 
L 572.982071 279.395064 
L 575.526917 279.201984 
L 578.071764 280.249955 
L 580.61661 278.880743 
L 583.161457 279.902032 
L 585.706303 278.363691 
L 588.25115 279.105969 
L 590.795996 279.394434 
L 593.340843 281.089088 
L 595.885689 279.681429 
L 598.430535 279.91842 
L 600.975382 281.02774 
L 603.520228 280.412361 
L 606.065075 279.080967 
L 608.609921 279.253248 
L 611.154768 279.003231 
L 613.699614 278.631777 
L 616.244461 281.362637 
L 618.789307 279.314597 
L 621.334154 280.998956 
L 623.879 279.814421 
L 626.423847 278.893559 
L 628.968693 280.804615 
L 631.513539 280.096373 
L 634.058386 279.837322 
L 636.603232 280.034604 
L 639.148079 279.543394 
L 641.692925 281.090349 
L 644.237772 278.631777 
L 646.782618 279.968633 
L 649.327465 279.643821 
L 651.872311 280.992023 
L 654.417158 278.755945 
L 656.962004 280.672253 
L 659.50685 278.668334 
L 662.051697 279.925563 
L 664.596543 279.702438 
L 667.14139 282.141892 
L 669.686236 278.122708 
L 672.231083 279.394224 
L 674.775929 278.120397 
L 677.320776 279.238541 
L 679.865622 277.91387 
L 682.410469 279.275939 
L 684.955315 278.841245 
L 687.500162 277.137766 
L 690.045008 279.093993 
L 692.589854 278.108211 
L 695.134701 280.283991 
L 697.679547 278.406341 
L 700.224394 281.05064 
L 702.76924 278.303393 
L 705.314087 280.784446 
L 707.858933 278.592488 
L 710.40378 279.090632 
L 712.948626 278.369364 
L 715.493473 280.225584 
L 718.038319 278.415795 
L 720.583165 281.021647 
L 723.128012 278.989574 
L 725.672858 282.24358 
L 728.217705 279.543394 
L 730.762551 280.785916 
L 733.307398 278.968565 
L 735.852244 280.92248 
L 738.397091 279.779335 
L 740.941937 281.704887 
L 743.486784 278.48996 
L 746.03163 280.524344 
L 748.576477 278.451092 
L 751.121323 281.910363 
L 753.666169 279.138744 
L 756.211016 278.240363 
L 758.755862 280.862602 
L 761.300709 279.059117 
L 763.845555 280.572246 
L 766.390402 279.74908 
L 768.935248 279.648023 
L 771.480095 277.541366 
L 774.024941 279.517762 
L 776.569788 280.082507 
L 779.114634 281.372511 
L 781.65948 278.149601 
L 784.204327 278.065561 
L 786.749173 279.649494 
L 791.838866 279.734373 
L 794.383713 277.831722 
L 796.928559 280.230206 
L 799.473406 277.824788 
L 802.018252 282.167944 
L 804.563099 278.813302 
L 807.107945 281.465795 
L 809.652792 278.572529 
L 812.197638 282.01016 
L 814.742484 278.942722 
L 819.832177 278.502776 
L 822.377024 281.137411 
L 824.92187 278.951757 
L 827.466717 277.957571 
L 832.55641 279.092523 
L 835.101256 278.46811 
L 837.646103 277.643473 
L 840.190949 280.385259 
L 842.735795 278.048123 
L 842.735795 278.048123 
" clip-path="url(#pa97d0e28a1)" style="fill: none; stroke: #ff00ff; stroke-width: 0.9; stroke-linecap: square"/>
   </g>
   <g id="line2d_18">
    <path d="M 81.826705 246.913421 
L 84.371551 241.335727 
L 86.916397 243.429778 
L 89.461244 239.681411 
L 92.00609 250.274786 
L 94.550937 237.838428 
L 97.095783 245.26856 
L 99.64063 239.306386 
L 102.185476 252.065876 
L 104.730323 242.050482 
L 107.275169 246.115677 
L 109.820016 241.221013 
L 112.364862 241.649824 
L 114.909708 238.435527 
L 117.454555 234.071572 
L 119.999401 240.70228 
L 122.544248 225.975008 
L 125.089094 243.684628 
L 127.633941 234.798303 
L 130.178787 247.212811 
L 132.723634 235.989771 
L 135.26848 241.45044 
L 137.813327 229.911623 
L 140.358173 235.597307 
L 142.90302 236.165204 
L 145.447866 241.51347 
L 147.992712 237.186072 
L 150.537559 240.358349 
L 153.082405 241.8969 
L 155.627252 231.835074 
L 158.172098 236.376352 
L 160.716945 228.422235 
L 163.261791 236.252394 
L 165.806638 233.024021 
L 168.351484 241.870847 
L 170.896331 231.370336 
L 173.441177 245.41899 
L 175.986023 234.87688 
L 178.53087 242.828897 
L 181.075716 241.294547 
L 183.620563 237.027868 
L 186.165409 238.476287 
L 188.710256 243.92456 
L 191.255102 244.985767 
L 193.799949 227.983339 
L 196.344795 236.253655 
L 198.889642 224.085382 
L 203.979335 238.427334 
L 206.524181 238.074368 
L 209.069027 237.874565 
L 211.613874 240.1264 
L 214.15872 241.180254 
L 216.703567 237.69409 
L 219.248413 242.560181 
L 221.79326 233.845506 
L 224.338106 231.923736 
L 226.882953 233.998248 
L 229.427799 239.838775 
L 231.972646 235.983678 
L 234.517492 235.659707 
L 237.062338 233.573639 
L 239.607185 231.937392 
L 242.152031 241.802355 
L 244.696878 237.633372 
L 247.241724 233.116465 
L 249.786571 229.787455 
L 252.331417 245.881207 
L 254.876264 232.14665 
L 257.42111 244.917275 
L 259.965957 230.684995 
L 262.510803 243.64807 
L 265.05565 233.823656 
L 267.600496 245.18305 
L 270.145342 235.969392 
L 272.690189 240.1264 
L 275.235035 237.561518 
L 277.779882 232.822747 
L 280.324728 240.299731 
L 282.869575 241.804877 
L 285.414421 247.414295 
L 287.959268 241.421657 
L 290.504114 248.006563 
L 293.048961 244.625659 
L 295.593807 243.96805 
L 298.138653 242.838981 
L 300.6835 245.026526 
L 303.228346 246.057269 
L 305.773193 247.639521 
L 308.318039 244.024777 
L 310.862886 245.228641 
L 313.407732 240.827288 
L 315.952579 239.053217 
L 318.497425 239.693387 
L 321.042272 235.942499 
L 323.587118 240.023242 
L 326.131965 241.079196 
L 328.676811 239.911679 
L 331.221657 238.060292 
L 333.766504 240.798505 
L 336.31135 243.165894 
L 338.856197 234.185656 
L 341.401043 242.077584 
L 343.94589 240.960281 
L 346.490736 250.269324 
L 349.035583 241.670834 
L 351.580429 242.826165 
L 354.125276 239.916091 
L 356.670122 253.794356 
L 359.214968 244.275214 
L 361.759815 252.967408 
L 364.304661 244.163232 
L 366.849508 251.22107 
L 369.394354 240.729803 
L 371.939201 248.082409 
L 374.484047 240.152242 
L 377.028894 248.925324 
L 379.57374 236.665868 
L 382.118587 240.226407 
L 384.663433 245.095859 
L 387.208279 253.528371 
L 389.753126 242.55997 
L 392.297972 247.475434 
L 394.842819 246.637351 
L 397.387665 253.791834 
L 399.932512 248.676147 
L 402.477358 243.905441 
L 405.022205 241.688902 
L 407.567051 242.724898 
L 410.111898 248.923223 
L 412.656744 250.809697 
L 415.201591 240.440077 
L 417.746437 241.946063 
L 420.291283 252.087516 
L 422.83613 249.53629 
L 425.380976 246.532092 
L 427.925823 244.495187 
L 430.470669 247.003973 
L 433.015516 243.479151 
L 435.560362 244.111758 
L 438.105209 240.074926 
L 440.650055 246.685884 
L 443.194902 243.117572 
L 445.739748 249.51549 
L 448.284594 240.676858 
L 450.829441 246.520747 
L 453.374287 241.755714 
L 455.919134 245.78015 
L 458.46398 240.332086 
L 461.008827 242.332014 
L 463.553673 245.620685 
L 466.09852 251.895906 
L 468.643366 246.760049 
L 471.188213 253.415548 
L 473.733059 251.181991 
L 476.277906 243.721395 
L 478.822752 244.019735 
L 481.367598 245.558496 
L 483.912445 242.639388 
L 486.457291 243.790517 
L 489.002138 243.375573 
L 491.546984 231.74032 
L 494.091831 243.654163 
L 496.636677 238.18404 
L 499.181524 240.2554 
L 501.72637 229.552985 
L 504.271217 250.641408 
L 506.816063 241.368922 
L 509.360909 247.550019 
L 511.905756 242.867555 
L 514.450602 252.049068 
L 516.995449 233.76882 
L 519.540295 242.714393 
L 522.085142 244.177308 
L 524.629988 254.947166 
L 527.174835 242.144816 
L 529.719681 241.554649 
L 532.264528 238.570831 
L 534.809374 249.79324 
L 537.354221 235.322078 
L 539.899067 240.220944 
L 542.443913 249.87728 
L 544.98876 249.885894 
L 547.533606 245.591691 
L 550.078453 233.226556 
L 552.623299 244.419972 
L 555.168146 234.528326 
L 557.712992 250.038215 
L 560.257839 234.351003 
L 562.802685 243.045508 
L 565.347532 237.243849 
L 567.892378 246.232492 
L 570.437224 233.338539 
L 572.982071 244.294753 
L 575.526917 238.748574 
L 578.071764 246.626006 
L 580.61661 237.15981 
L 583.161457 245.147333 
L 585.706303 235.653404 
L 588.25115 240.777705 
L 590.795996 242.597998 
L 593.340843 249.885894 
L 595.885689 244.440982 
L 598.430535 246.053908 
L 600.975382 249.661929 
L 603.520228 248.164347 
L 606.065075 240.394275 
L 608.609921 241.990183 
L 611.154768 238.575453 
L 613.699614 237.770146 
L 616.244461 250.683218 
L 618.789307 240.46718 
L 621.334154 249.092352 
L 623.879 245.815656 
L 626.423847 240.129551 
L 628.968693 248.483277 
L 631.513539 245.532023 
L 634.058386 243.83863 
L 636.603232 244.859918 
L 639.148079 243.138582 
L 641.692925 248.926584 
L 644.237772 237.185652 
L 646.782618 245.058672 
L 649.327465 243.815729 
L 651.872311 251.453649 
L 654.417158 238.93136 
L 656.962004 248.271287 
L 659.50685 240.107281 
L 662.051697 245.749055 
L 664.596543 244.219328 
L 667.14139 255.128901 
L 669.686236 235.980947 
L 672.231083 243.139632 
L 674.775929 233.772602 
L 677.320776 240.80985 
L 679.865622 234.236079 
L 682.410469 243.275776 
L 684.955315 237.945158 
L 687.500162 231.383993 
L 690.045008 240.933808 
L 692.589854 235.351492 
L 695.134701 245.305117 
L 697.679547 237.441972 
L 700.224394 251.004458 
L 702.76924 237.791366 
L 705.314087 250.58237 
L 707.858933 235.863922 
L 710.40378 241.067431 
L 712.948626 237.796618 
L 715.493473 246.436077 
L 718.038319 238.670208 
L 720.583165 251.089128 
L 723.128012 240.491341 
L 725.672858 256.216161 
L 728.217705 244.738902 
L 730.762551 250.232346 
L 733.307398 239.725952 
L 735.852244 249.790299 
L 738.397091 242.722587 
L 740.941937 253.166371 
L 743.486784 236.345468 
L 746.03163 248.539373 
L 748.576477 237.732538 
L 751.121323 254.437467 
L 753.666169 242.176331 
L 756.211016 236.761253 
L 758.755862 248.193971 
L 761.300709 240.356878 
L 763.845555 247.565566 
L 766.390402 243.645339 
L 768.935248 243.163583 
L 771.480095 231.496185 
L 774.024941 242.723847 
L 776.569788 244.496868 
L 779.114634 252.618645 
L 781.65948 234.85545 
L 784.204327 235.750259 
L 786.749173 242.445257 
L 789.29402 245.178428 
L 791.838866 243.258548 
L 794.383713 234.51488 
L 796.928559 246.84829 
L 799.473406 234.5569 
L 802.018252 254.043112 
L 804.563099 239.201126 
L 807.107945 251.834347 
L 809.652792 238.404223 
L 812.197638 255.070494 
L 814.742484 241.242443 
L 817.287331 239.383072 
L 819.832177 235.933675 
L 822.377024 251.013492 
L 824.92187 240.900613 
L 827.466717 235.470198 
L 830.011563 238.222278 
L 832.55641 241.379427 
L 835.101256 237.268431 
L 837.646103 233.449051 
L 840.190949 247.601703 
L 842.735795 235.49604 
L 842.735795 235.49604 
" clip-path="url(#pa97d0e28a1)" style="fill: none; stroke: #9400d3; stroke-width: 0.9; stroke-linecap: square"/>
   </g>
   <g id="line2d_19">
    <path d="M 81.826705 250.791208 
L 84.371551 244.773358 
L 86.916397 247.910758 
L 89.461244 241.798153 
L 92.00609 254.333889 
L 94.550937 241.420396 
L 97.095783 250.287182 
L 99.64063 243.282709 
L 102.185476 255.768441 
L 104.730323 246.013989 
L 107.275169 250.912015 
L 109.820016 244.632382 
L 112.364862 246.032478 
L 114.909708 242.833309 
L 117.454555 237.294693 
L 119.999401 244.443083 
L 122.544248 229.276495 
L 125.089094 247.10293 
L 127.633941 237.772457 
L 130.178787 251.060764 
L 132.723634 239.576572 
L 135.26848 245.059092 
L 137.813327 233.307024 
L 140.358173 238.968547 
L 142.90302 238.2914 
L 145.447866 244.723354 
L 147.992712 238.821689 
L 150.537559 244.006288 
L 153.082405 244.721463 
L 155.627252 234.34386 
L 158.172098 239.278443 
L 160.716945 230.080962 
L 163.261791 239.555773 
L 165.806638 234.528957 
L 168.351484 246.170723 
L 170.896331 234.161495 
L 173.441177 249.091722 
L 175.986023 237.768675 
L 178.53087 246.604156 
L 181.075716 244.54351 
L 183.620563 239.850331 
L 186.165409 242.000058 
L 188.710256 246.614451 
L 191.255102 248.137665 
L 193.799949 229.975073 
L 196.344795 239.254701 
L 198.889642 225.324333 
L 201.434488 233.684991 
L 203.979335 241.178783 
L 206.524181 241.274378 
L 209.069027 239.888148 
L 211.613874 243.39028 
L 214.15872 244.162181 
L 216.703567 241.290556 
L 219.248413 245.910621 
L 221.79326 236.192096 
L 224.338106 234.442606 
L 226.882953 236.625739 
L 229.427799 243.603109 
L 231.972646 238.904677 
L 234.517492 237.982345 
L 237.062338 234.850197 
L 239.607185 235.469778 
L 242.152031 244.774408 
L 247.241724 237.035641 
L 249.786571 232.229639 
L 252.331417 249.843454 
L 254.876264 235.679666 
L 257.42111 248.181785 
L 259.965957 233.520064 
L 262.510803 247.405892 
L 265.05565 236.317105 
L 267.600496 248.977428 
L 270.145342 239.542746 
L 272.690189 244.209874 
L 277.779882 236.013302 
L 280.324728 243.90271 
L 282.869575 245.558076 
L 285.414421 251.086607 
L 287.959268 244.690579 
L 290.504114 250.999206 
L 293.048961 246.44259 
L 295.593807 248.816072 
L 298.138653 246.651428 
L 300.6835 248.786028 
L 303.228346 249.633145 
L 305.773193 251.895906 
L 308.318039 247.112384 
L 310.862886 248.839603 
L 315.952579 241.097685 
L 318.497425 243.642818 
L 321.042272 237.429996 
L 323.587118 243.686098 
L 326.131965 244.084235 
L 328.676811 243.277457 
L 331.221657 239.561445 
L 333.766504 244.068057 
L 336.31135 246.098449 
L 338.856197 235.519571 
L 341.401043 246.094667 
L 343.94589 244.312612 
L 346.490736 253.711997 
L 349.035583 244.687007 
L 351.580429 248.005933 
L 354.125276 243.517179 
L 356.670122 256.591607 
L 359.214968 248.728882 
L 361.759815 256.029173 
L 364.304661 248.758926 
L 366.849508 254.691896 
L 369.394354 243.824553 
L 371.939201 251.869223 
L 374.484047 244.170165 
L 377.028894 253.282136 
L 379.57374 242.120024 
L 382.118587 244.517038 
L 384.663433 247.541825 
L 387.208279 257.214338 
L 389.753126 247.172892 
L 392.297972 251.639796 
L 394.842819 249.339638 
L 397.387665 257.846105 
L 399.932512 253.706955 
L 402.477358 247.533631 
L 405.022205 244.527753 
L 407.567051 247.190331 
L 410.111898 251.54084 
L 412.656744 254.578023 
L 415.201591 244.60801 
L 417.746437 246.214213 
L 420.291283 255.138776 
L 422.83613 253.432566 
L 425.380976 251.2862 
L 427.925823 248.737916 
L 430.470669 251.479071 
L 433.015516 247.16701 
L 435.560362 248.605974 
L 438.105209 242.871126 
L 440.650055 250.390971 
L 443.194902 247.522496 
L 445.739748 253.672499 
L 448.284594 243.216738 
L 450.829441 249.956277 
L 453.374287 245.381383 
L 455.919134 249.906273 
L 458.46398 243.677274 
L 461.008827 247.180036 
L 463.553673 249.758574 
L 466.09852 255.508759 
L 468.643366 249.935477 
L 471.188213 257.25972 
L 473.733059 254.93414 
L 476.277906 248.70304 
L 478.822752 247.76516 
L 481.367598 248.370244 
L 483.912445 246.294471 
L 486.457291 247.388874 
L 489.002138 247.033177 
L 491.546984 234.070102 
L 494.091831 247.371435 
L 496.636677 242.011403 
L 499.181524 243.248463 
L 501.72637 231.784861 
L 504.271217 253.116158 
L 506.816063 244.466614 
L 509.360909 250.750449 
L 511.905756 246.667816 
L 514.450602 255.142557 
L 516.995449 236.94719 
L 519.540295 246.130594 
L 522.085142 247.312818 
L 524.629988 257.819002 
L 527.174835 245.042494 
L 529.719681 245.907049 
L 532.264528 241.076255 
L 534.809374 253.363234 
L 537.354221 239.317941 
L 539.899067 244.442243 
L 542.443913 252.807733 
L 544.98876 254.023993 
L 547.533606 249.00222 
L 550.078453 237.259606 
L 552.623299 246.928128 
L 555.168146 237.82141 
L 557.712992 252.997242 
L 560.257839 237.870783 
L 562.802685 246.705213 
L 565.347532 241.664111 
L 567.892378 250.149778 
L 570.437224 236.549894 
L 572.982071 248.496303 
L 575.526917 242.351553 
L 578.071764 249.630204 
L 580.61661 239.334119 
L 583.161457 248.251538 
L 585.706303 238.869171 
L 588.25115 244.722094 
L 590.795996 245.723003 
L 593.340843 252.923918 
L 595.885689 248.3423 
L 598.430535 250.369961 
L 600.975382 252.662975 
L 603.520228 251.913764 
L 606.065075 244.461782 
L 608.609921 245.787713 
L 611.154768 240.602903 
L 613.699614 241.039278 
L 616.244461 253.1857 
L 618.789307 243.999145 
L 621.334154 252.179959 
L 623.879 249.378926 
L 626.423847 244.288661 
L 628.968693 251.617315 
L 631.513539 248.849688 
L 634.058386 246.89052 
L 636.603232 248.64085 
L 639.148079 247.101249 
L 641.692925 251.911453 
L 644.237772 240.871199 
L 646.782618 249.065669 
L 649.327465 247.540355 
L 651.872311 254.826569 
L 654.417158 242.7728 
L 656.962004 250.827975 
L 659.50685 244.588471 
L 662.051697 249.495741 
L 664.596543 248.29902 
L 667.14139 258.123224 
L 669.686236 239.67868 
L 672.231083 247.589518 
L 674.775929 236.570694 
L 677.320776 244.403374 
L 679.865622 237.892423 
L 682.410469 247.360931 
L 687.500162 234.743467 
L 690.045008 244.872524 
L 692.589854 239.241675 
L 695.134701 248.825317 
L 697.679547 241.478173 
L 700.224394 254.253001 
L 702.76924 241.547926 
L 705.314087 254.263506 
L 707.858933 240.103919 
L 710.40378 245.633081 
L 712.948626 241.857191 
L 715.493473 250.55989 
L 718.038319 243.148666 
L 720.583165 254.67866 
L 723.128012 245.106364 
L 725.672858 258.897437 
L 728.217705 249.078065 
L 730.762551 253.977772 
L 733.307398 243.373682 
L 735.852244 253.735528 
L 738.397091 246.473685 
L 740.941937 256.243684 
L 743.486784 240.294269 
L 746.03163 252.041924 
L 748.576477 241.601081 
L 751.121323 257.438514 
L 753.666169 247.208399 
L 756.211016 241.297489 
L 758.755862 251.175898 
L 761.300709 244.97043 
L 763.845555 251.368349 
L 766.390402 247.289707 
L 768.935248 247.300002 
L 771.480095 234.224944 
L 774.024941 246.536294 
L 776.569788 246.901655 
L 779.114634 256.006482 
L 781.65948 238.827991 
L 784.204327 239.436016 
L 786.749173 245.383904 
L 789.29402 249.063779 
L 791.838866 246.571801 
L 794.383713 238.592471 
L 796.928559 250.465976 
L 799.473406 239.222766 
L 802.018252 256.601061 
L 804.563099 243.209385 
L 807.107945 254.8501 
L 809.652792 242.383488 
L 812.197638 257.817951 
L 814.742484 246.197615 
L 817.287331 243.600588 
L 819.832177 237.995581 
L 822.377024 254.434526 
L 824.92187 245.357852 
L 827.466717 239.577623 
L 830.011563 241.825466 
L 832.55641 245.237675 
L 835.101256 241.831979 
L 837.646103 236.846553 
L 840.190949 251.469196 
L 842.735795 239.113305 
L 842.735795 239.113305 
" clip-path="url(#pa97d0e28a1)" style="fill: none; stroke: #00ffff; stroke-width: 0.9; stroke-linecap: square"/>
   </g>
   <g id="line2d_20">
    <path d="M 81.826705 250.558419 
L 84.371551 244.527333 
L 86.916397 248.397136 
L 89.461244 240.312547 
L 92.00609 254.032817 
L 94.550937 241.008183 
L 97.095783 250.882391 
L 99.64063 243.419063 
L 102.185476 255.360009 
L 104.730323 246.684413 
L 107.275169 251.012022 
L 109.820016 244.758861 
L 112.364862 247.100829 
L 114.909708 243.957335 
L 117.454555 237.604588 
L 119.999401 244.298325 
L 122.544248 229.710979 
L 125.089094 245.879736 
L 127.633941 237.618665 
L 130.178787 250.288653 
L 132.723634 240.086901 
L 135.26848 243.956285 
L 137.813327 233.138105 
L 140.358173 239.537494 
L 142.90302 237.050138 
L 145.447866 244.390348 
L 147.992712 236.740033 
L 150.537559 243.73274 
L 153.082405 243.485874 
L 155.627252 234.047831 
L 158.172098 238.921485 
L 160.716945 228.13419 
L 163.261791 239.082841 
L 165.806638 232.627986 
L 168.351484 245.979953 
L 170.896331 233.492121 
L 173.441177 248.275699 
L 175.986023 237.486093 
L 178.53087 245.968818 
L 181.075716 244.130457 
L 183.620563 239.648216 
L 186.165409 241.998587 
L 188.710256 245.400922 
L 191.255102 247.200205 
L 193.799949 229.407807 
L 196.344795 238.603396 
L 198.889642 224.388975 
L 201.434488 233.581413 
L 203.979335 239.765661 
L 206.524181 240.389443 
L 209.069027 238.111136 
L 211.613874 242.804315 
L 214.15872 243.111269 
L 216.703567 241.721468 
L 219.248413 245.1196 
L 221.79326 235.890395 
L 224.338106 234.228306 
L 226.882953 236.372781 
L 229.427799 243.181232 
L 231.972646 237.716781 
L 234.517492 237.681484 
L 237.062338 232.068494 
L 239.607185 236.202811 
L 242.152031 243.464655 
L 244.696878 240.194682 
L 247.241724 238.007557 
L 249.786571 232.397718 
L 252.331417 249.069451 
L 254.876264 235.754671 
L 257.42111 247.155454 
L 259.965957 233.582463 
L 262.510803 246.920564 
L 265.05565 236.231595 
L 267.600496 248.300491 
L 270.145342 239.692967 
L 272.690189 244.463463 
L 275.235035 239.329286 
L 277.779882 235.642899 
L 280.324728 243.926871 
L 282.869575 245.559966 
L 285.414421 250.53846 
L 287.959268 244.370809 
L 290.504114 249.745338 
L 293.048961 245.381383 
L 295.593807 249.199712 
L 298.138653 246.330608 
L 300.6835 248.010555 
L 303.228346 248.696106 
L 305.773193 251.719003 
L 308.318039 246.543017 
L 310.862886 247.993957 
L 313.407732 246.214843 
L 315.952579 239.880795 
L 318.497425 243.900399 
L 321.042272 236.15869 
L 323.587118 243.683157 
L 326.131965 243.4552 
L 328.676811 242.626151 
L 331.221657 238.160509 
L 333.766504 243.739673 
L 336.31135 245.93058 
L 338.856197 234.614047 
L 341.401043 246.193623 
L 343.94589 243.429988 
L 346.490736 252.752267 
L 349.035583 244.552754 
L 351.580429 248.211409 
L 354.125276 243.486084 
L 356.670122 254.962503 
L 359.214968 249.021969 
L 361.759815 254.837284 
L 364.304661 249.127018 
L 366.849508 254.083241 
L 369.394354 244.113228 
L 371.939201 251.785814 
L 374.484047 244.824412 
L 377.028894 253.328567 
L 379.57374 243.890944 
L 382.118587 245.601566 
L 384.663433 246.301194 
L 387.208279 256.326672 
L 389.753126 247.833442 
L 392.297972 251.58517 
L 394.842819 248.312887 
L 397.387665 257.045419 
L 399.932512 253.920625 
L 402.477358 247.213441 
L 405.022205 244.199159 
L 407.567051 247.706332 
L 410.111898 250.356725 
L 412.656744 254.178836 
L 415.201591 244.576285 
L 417.746437 246.297412 
L 420.291283 254.305525 
L 422.83613 253.114267 
L 425.380976 251.645469 
L 427.925823 249.314216 
L 430.470669 251.448186 
L 433.015516 247.57229 
L 435.560362 248.986883 
L 438.105209 242.596107 
L 440.650055 250.295166 
L 443.194902 248.400918 
L 445.739748 253.315541 
L 448.284594 242.994034 
L 450.829441 249.468008 
L 453.374287 245.56732 
L 455.919134 249.994305 
L 458.46398 243.378094 
L 461.008827 247.874411 
L 463.553673 250.187175 
L 466.09852 254.963344 
L 468.643366 249.576629 
L 471.188213 256.697496 
L 473.733059 254.29418 
L 476.277906 249.830638 
L 478.822752 248.316668 
L 483.912445 245.557025 
L 486.457291 246.514864 
L 489.002138 246.03752 
L 491.546984 232.662652 
L 494.091831 246.238374 
L 496.636677 241.197272 
L 499.181524 241.985771 
L 501.72637 230.218787 
L 504.271217 250.494549 
L 506.816063 242.421726 
L 509.360909 249.23837 
L 511.905756 245.449875 
L 514.450602 252.94934 
L 516.995449 236.723645 
L 519.540295 244.446865 
L 522.085142 245.448614 
L 524.629988 255.377027 
L 527.174835 243.21968 
L 529.719681 245.005727 
L 532.264528 238.729455 
L 534.809374 251.88309 
L 537.354221 238.863498 
L 539.899067 243.999775 
L 542.443913 250.387399 
L 544.98876 252.898916 
L 547.533606 248.092073 
L 550.078453 237.462772 
L 552.623299 244.486783 
L 555.168146 236.476569 
L 557.712992 250.792679 
L 560.257839 237.430627 
L 562.802685 245.476978 
L 565.347532 241.392663 
L 567.892378 249.321359 
L 570.437224 235.466416 
L 572.982071 247.283404 
L 575.526917 241.196852 
L 578.071764 248.079257 
L 580.61661 237.507943 
L 583.161457 246.245938 
L 585.706303 236.832896 
L 588.25115 243.58294 
L 590.795996 243.760473 
L 593.340843 251.473818 
L 595.885689 247.666624 
L 598.430535 249.668232 
L 600.975382 250.636155 
L 603.520228 250.537409 
L 606.065075 244.128145 
L 608.609921 245.223179 
L 611.154768 238.642054 
L 613.699614 239.865458 
L 616.244461 250.526484 
L 618.789307 242.748429 
L 621.334154 249.774962 
L 623.879 247.518084 
L 626.423847 243.727278 
L 628.968693 250.02645 
L 631.513539 247.50968 
L 634.058386 245.751156 
L 636.603232 247.307355 
L 639.148079 246.525789 
L 641.692925 250.32626 
L 644.237772 240.455414 
L 646.782618 248.174642 
L 649.327465 246.662143 
L 651.872311 253.10019 
L 654.417158 242.343569 
L 656.962004 248.608705 
L 659.50685 244.489095 
L 662.051697 248.580342 
L 664.596543 247.704231 
L 667.14139 256.182335 
L 669.686236 239.303234 
L 672.231083 247.31807 
L 674.775929 235.941239 
L 677.320776 243.798291 
L 679.865622 237.770146 
L 682.410469 246.768453 
L 684.955315 239.74234 
L 687.500162 234.014005 
L 690.045008 243.692191 
L 692.589854 239.063932 
L 695.134701 247.609897 
L 697.679547 240.835482 
L 700.224394 252.231643 
L 702.76924 240.3407 
L 705.314087 252.570742 
L 707.858933 239.641493 
L 710.40378 244.869163 
L 712.948626 241.583223 
L 715.493473 249.263582 
L 718.038319 243.282709 
L 720.583165 253.362393 
L 723.128012 244.983666 
L 725.672858 256.822715 
L 728.217705 248.815862 
L 730.762551 252.562969 
L 733.307398 242.227595 
L 735.852244 252.667808 
L 738.397091 245.755778 
L 740.941937 254.479697 
L 743.486784 240.371795 
L 746.03163 250.738684 
L 748.576477 240.859013 
L 751.121323 255.351185 
L 753.666169 246.95355 
L 756.211016 241.656127 
L 758.755862 249.410651 
L 761.300709 245.09775 
L 763.845555 250.937437 
L 766.390402 246.845139 
L 768.935248 246.744502 
L 771.480095 233.410392 
L 774.024941 246.76215 
L 776.569788 245.009298 
L 779.114634 254.310778 
L 781.65948 238.705714 
L 784.204327 239.14503 
L 786.749173 243.983388 
L 789.29402 247.99984 
L 791.838866 245.038082 
L 794.383713 238.308418 
L 796.928559 248.930366 
L 799.473406 239.729524 
L 802.018252 254.139758 
L 804.563099 242.788137 
L 807.107945 252.571793 
L 809.652792 242.065609 
L 812.197638 255.579562 
L 814.742484 246.060211 
L 817.287331 243.140052 
L 819.832177 235.184884 
L 822.377024 253.257554 
L 824.92187 245.066655 
L 827.466717 239.847809 
L 830.011563 240.994527 
L 832.55641 244.293283 
L 835.101256 241.671044 
L 837.646103 236.237267 
L 840.190949 250.102715 
L 842.735795 238.400861 
L 842.735795 238.400861 
" clip-path="url(#pa97d0e28a1)" style="fill: none; stroke: #ffa500; stroke-width: 0.9; stroke-linecap: square"/>
   </g>
   <g id="line2d_21">
    <path d="M 81.826705 117.409574 
L 84.371551 94.717891 
L 86.916397 105.745959 
L 89.461244 84.595138 
L 92.00609 130.727715 
L 94.550937 80.807483 
L 97.095783 114.771998 
L 99.64063 88.455067 
L 102.185476 137.585328 
L 104.730323 99.114622 
L 107.275169 115.817658 
L 109.820016 93.795349 
L 112.364862 100.003128 
L 117.454555 72.118862 
L 119.999401 102.656041 
L 122.544248 44.56256 
L 125.089094 112.639919 
L 127.633941 78.008762 
L 130.178787 125.058628 
L 132.723634 83.964843 
L 135.26848 104.715216 
L 137.813327 59.645527 
L 140.358173 81.726454 
L 142.90302 81.550601 
L 145.447866 102.820338 
L 147.992712 82.972338 
L 150.537559 99.745547 
L 153.082405 104.260773 
L 155.627252 66.857997 
L 158.172098 84.765108 
L 160.716945 50.995354 
L 163.261791 85.373763 
L 165.806638 66.878166 
L 168.351484 105.564224 
L 170.896331 66.044286 
L 173.441177 118.498514 
L 175.986023 80.13937 
L 178.53087 110.504479 
L 181.075716 102.898495 
L 183.620563 84.927514 
L 186.165409 91.630074 
L 188.710256 110.687054 
L 191.255102 116.393328 
L 193.799949 53.380392 
L 196.344795 83.378038 
L 198.889642 35.15267 
L 201.434488 66.008779 
L 203.979335 90.843466 
L 206.524181 90.70333 
L 209.069027 85.750049 
L 211.613874 98.622991 
L 214.15872 100.857598 
L 216.703567 89.378029 
L 219.248413 106.481724 
L 221.79326 73.828433 
L 224.338106 69.659029 
L 226.882953 73.113888 
L 229.427799 98.558701 
L 231.972646 82.677149 
L 234.517492 80.955393 
L 237.062338 68.580804 
L 239.607185 68.339401 
L 242.152031 103.926086 
L 244.696878 90.965533 
L 247.241724 75.463209 
L 249.786571 62.795533 
L 252.331417 120.628703 
L 254.876264 69.331486 
L 257.42111 116.344375 
L 259.965957 64.562251 
L 262.510803 113.036585 
L 265.05565 74.128244 
L 267.600496 117.701611 
L 270.145342 84.81196 
L 272.690189 101.383475 
L 275.235035 87.918265 
L 277.779882 73.818138 
L 280.324728 96.564026 
L 282.869575 96.829801 
L 285.414421 117.72157 
L 287.959268 94.282147 
L 290.504114 118.031886 
L 293.048961 103.332558 
L 295.593807 107.547343 
L 298.138653 100.531105 
L 300.6835 108.944498 
L 303.228346 112.442847 
L 305.773193 119.864154 
L 308.318039 103.958441 
L 310.862886 108.177848 
L 313.407732 96.365273 
L 315.952579 81.993909 
L 318.497425 89.327396 
L 321.042272 69.615959 
L 323.587118 89.761669 
L 326.131965 93.77497 
L 328.676811 89.340001 
L 331.221657 77.782066 
L 333.766504 91.441826 
L 336.31135 101.920066 
L 338.856197 63.284643 
L 341.401043 98.994655 
L 343.94589 92.421515 
L 346.490736 129.128866 
L 349.035583 96.495744 
L 351.580429 105.071333 
L 354.125276 89.548629 
L 356.670122 141.222973 
L 359.214968 107.686428 
L 361.759815 139.015678 
L 364.304661 108.002626 
L 366.849508 132.677849 
L 369.394354 92.396304 
L 371.939201 121.665959 
L 374.484047 92.834149 
L 377.028894 126.61945 
L 379.57374 81.897684 
L 384.663433 106.849816 
L 387.208279 142.120303 
L 389.753126 101.874685 
L 392.297972 119.712673 
L 394.842819 112.181905 
L 397.387665 143.481111 
L 399.932512 125.957219 
L 402.477358 105.272187 
L 405.022205 94.613472 
L 407.567051 102.552673 
L 410.111898 122.577156 
L 412.656744 131.346665 
L 415.201591 92.802634 
L 417.746437 97.633428 
L 420.291283 135.487705 
L 427.925823 108.771587 
L 430.470669 119.246045 
L 433.015516 103.463029 
L 435.560362 107.525493 
L 438.105209 89.596322 
L 440.650055 115.625838 
L 443.194902 105.058307 
L 445.739748 128.105266 
L 448.284594 91.138444 
L 450.829441 114.418403 
L 453.374287 97.760537 
L 455.919134 113.617927 
L 458.46398 90.935909 
L 463.553673 114.452228 
L 466.09852 134.941869 
L 468.643366 115.134208 
L 471.188213 143.007549 
L 473.733059 132.726381 
L 476.277906 108.670949 
L 478.822752 106.969782 
L 481.367598 109.701692 
L 483.912445 103.645815 
L 486.457291 111.698678 
L 489.002138 109.835525 
L 491.546984 64.518551 
L 494.091831 110.390815 
L 496.636677 90.108121 
L 499.181524 96.612139 
L 501.72637 55.281152 
L 504.271217 132.423839 
L 506.816063 99.246353 
L 509.360909 123.22678 
L 511.905756 107.938546 
L 514.450602 138.858104 
L 516.995449 71.724507 
L 519.540295 106.693293 
L 522.085142 112.553359 
L 524.629988 149.997944 
L 527.174835 104.206988 
L 529.719681 104.87384 
L 532.264528 88.65445 
L 534.809374 132.103649 
L 537.354221 82.246658 
L 539.899067 100.084016 
L 542.443913 131.945655 
L 544.98876 135.324879 
L 547.533606 117.604335 
L 550.078453 73.853855 
L 552.623299 110.300263 
L 555.168146 75.787811 
L 557.712992 133.224525 
L 560.257839 75.704192 
L 562.802685 110.172523 
L 565.347532 89.136836 
L 567.892378 121.240929 
L 570.437224 70.8984 
L 572.982071 113.592926 
L 575.526917 94.600656 
L 578.071764 119.455723 
L 580.61661 86.300927 
L 583.161457 114.333103 
L 585.706303 80.777859 
L 588.25115 102.661714 
L 590.795996 105.701628 
L 593.340843 133.109601 
L 595.885689 113.736213 
L 598.430535 121.821221 
L 600.975382 131.887668 
L 603.520228 127.658176 
L 606.065075 101.104674 
L 608.609921 105.824536 
L 611.154768 87.947049 
L 613.699614 88.93073 
L 616.244461 134.975485 
L 618.789307 101.859348 
L 621.334154 130.324116 
L 623.879 118.143658 
L 626.423847 99.974765 
L 628.968693 128.531556 
L 631.513539 116.566029 
L 634.058386 111.908567 
L 636.603232 116.010739 
L 639.148079 111.402229 
L 641.692925 129.749496 
L 644.237772 89.438117 
L 646.782618 117.408524 
L 649.327465 111.063971 
L 651.872311 138.636661 
L 654.417158 94.574184 
L 656.962004 124.596202 
L 659.50685 98.776573 
L 662.051697 119.267475 
L 664.596543 113.736423 
L 667.14139 152.148302 
L 669.686236 81.023044 
L 672.231083 110.968166 
L 674.775929 73.596695 
L 677.320776 101.049838 
L 679.865622 77.166897 
L 682.410469 108.335632 
L 684.955315 89.390005 
L 687.500162 64.443966 
L 690.045008 101.765854 
L 692.589854 81.73927 
L 695.134701 118.117396 
L 697.679547 89.029266 
L 700.224394 137.768114 
L 702.76924 90.012316 
L 705.314087 135.979336 
L 707.858933 86.436441 
L 710.40378 104.888337 
L 712.948626 90.021981 
L 715.493473 123.052188 
L 718.038319 94.67209 
L 720.583165 138.226128 
L 723.128012 102.593011 
L 725.672858 154.966142 
L 728.217705 117.697619 
L 730.762551 133.857131 
L 733.307398 96.852281 
L 735.852244 134.791859 
L 738.397091 110.37905 
L 740.941937 145.666555 
L 743.486784 86.67028 
L 746.03163 128.744596 
L 748.576477 89.135996 
L 751.121323 148.460024 
L 753.666169 109.872502 
L 756.211016 88.41935 
L 758.755862 126.674075 
L 761.300709 103.471433 
L 763.845555 125.80994 
L 766.390402 111.081829 
L 768.935248 110.791683 
L 771.480095 64.739574 
L 774.024941 107.614154 
L 776.569788 110.626336 
L 779.114634 143.506112 
L 781.65948 81.54661 
L 784.204327 82.958261 
L 786.749173 104.89464 
L 789.29402 116.775707 
L 791.838866 109.644966 
L 794.383713 79.705307 
L 796.928559 122.79986 
L 799.473406 81.6317 
L 802.018252 146.267226 
L 804.563099 97.021621 
L 807.107945 139.130812 
L 809.652792 93.879388 
L 812.197638 150.362045 
L 814.742484 105.840713 
L 817.287331 96.989686 
L 819.832177 78.695574 
L 822.377024 138.624475 
L 824.92187 102.830633 
L 827.466717 82.521676 
L 830.011563 91.264713 
L 832.55641 102.617803 
L 835.101256 90.793462 
L 837.646103 72.815759 
L 840.190949 126.283922 
L 842.735795 81.09952 
L 842.735795 81.09952 
" clip-path="url(#pa97d0e28a1)" style="fill: none; stroke: #ff4500; stroke-width: 0.9; stroke-linecap: square"/>
   </g>
   <g id="patch_3">
    <path d="M 43.78125 294.598125 
L 43.78125 22.798125 
" style="fill: none; stroke: #000000; stroke-width: 0.8; stroke-linejoin: miter; stroke-linecap: square"/>
   </g>
   <g id="patch_4">
    <path d="M 880.78125 294.598125 
L 880.78125 22.798125 
" style="fill: none; stroke: #000000; stroke-width: 0.8; stroke-linejoin: miter; stroke-linecap: square"/>
   </g>
   <g id="patch_5">
    <path d="M 43.78125 294.598125 
L 880.78125 294.598125 
" style="fill: none; stroke: #000000; stroke-width: 0.8; stroke-linejoin: miter; stroke-linecap: square"/>
   </g>
   <g id="patch_6">
    <path d="M 43.78125 22.798125 
L 880.78125 22.798125 
" style="fill: none; stroke: #000000; stroke-width: 0.8; stroke-linejoin: miter; stroke-linecap: square"/>
   </g>
   <g id="text_19">
    <!-- Wartość średnia z próbki 1 sekunda -->
    <g transform="translate(355.576875 16.798125)scale(0.12 -0.12)">
     <defs>
      <path id="DejaVuSans-20" transform="scale(0.015625)"/>
      <path id="DejaVuSans-65" d="M 3597 1894 
L 3597 1613 
L 953 1613 
Q 991 1019 1311 708 
Q 1631 397 2203 397 
Q 2534 397 2845 478 
Q 3156 559 3463 722 
L 3463 178 
Q 3153 47 2828 -22 
Q 2503 -91 2169 -91 
Q 1331 -91 842 396 
Q 353 884 353 1716 
Q 353 2575 817 3079 
Q 1281 3584 2069 3584 
Q 2775 3584 3186 3129 
Q 3597 2675 3597 1894 
z
M 3022 2063 
Q 3016 2534 2758 2815 
Q 2500 3097 2075 3097 
Q 1594 3097 1305 2825 
Q 1016 2553 972 2059 
L 3022 2063 
z
" transform="scale(0.015625)"/>
      <path id="DejaVuSans-64" d="M 2906 2969 
L 2906 4863 
L 3481 4863 
L 3481 0 
L 2906 0 
L 2906 525 
Q 2725 213 2448 61 
Q 2172 -91 1784 -91 
Q 1150 -91 751 415 
Q 353 922 353 1747 
Q 353 2572 751 3078 
Q 1150 3584 1784 3584 
Q 2172 3584 2448 3432 
Q 2725 3281 2906 2969 
z
M 947 1747 
Q 947 1113 1208 752 
Q 1469 391 1925 391 
Q 2381 391 2643 752 
Q 2906 1113 2906 1747 
Q 2906 2381 2643 2742 
Q 2381 3103 1925 3103 
Q 1469 3103 1208 2742 
Q 947 2381 947 1747 
z
" transform="scale(0.015625)"/>
      <path id="DejaVuSans-6e" d="M 3513 2113 
L 3513 0 
L 2938 0 
L 2938 2094 
Q 2938 2591 2744 2837 
Q 2550 3084 2163 3084 
Q 1697 3084 1428 2787 
Q 1159 2491 1159 1978 
L 1159 0 
L 581 0 
L 581 3500 
L 1159 3500 
L 1159 2956 
Q 1366 3272 1645 3428 
Q 1925 3584 2291 3584 
Q 2894 3584 3203 3211 
Q 3513 2838 3513 2113 
z
" transform="scale(0.015625)"/>
      <path id="DejaVuSans-69" d="M 603 3500 
L 1178 3500 
L 1178 0 
L 603 0 
L 603 3500 
z
M 603 4863 
L 1178 4863 
L 1178 4134 
L 603 4134 
L 603 4863 
z
" transform="scale(0.015625)"/>
      <path id="DejaVuSans-7a" d="M 353 3500 
L 3084 3500 
L 3084 2975 
L 922 459 
L 3084 459 
L 3084 0 
L 275 0 
L 275 525 
L 2438 3041 
L 353 3041 
L 353 3500 
z
" transform="scale(0.015625)"/>
      <path id="DejaVuSans-70" d="M 1159 525 
L 1159 -1331 
L 581 -1331 
L 581 3500 
L 1159 3500 
L 1159 2969 
Q 1341 3281 1617 3432 
Q 1894 3584 2278 3584 
Q 2916 3584 3314 3078 
Q 3713 2572 3713 1747 
Q 3713 922 3314 415 
Q 2916 -91 2278 -91 
Q 1894 -91 1617 61 
Q 1341 213 1159 525 
z
M 3116 1747 
Q 3116 2381 2855 2742 
Q 2594 3103 2138 3103 
Q 1681 3103 1420 2742 
Q 1159 2381 1159 1747 
Q 1159 1113 1420 752 
Q 1681 391 2138 391 
Q 2594 391 2855 752 
Q 3116 1113 3116 1747 
z
" transform="scale(0.015625)"/>
      <path id="DejaVuSans-73" d="M 2834 3397 
L 2834 2853 
Q 2591 2978 2328 3040 
Q 2066 3103 1784 3103 
Q 1356 3103 1142 2972 
Q 928 2841 928 2578 
Q 928 2378 1081 2264 
Q 1234 2150 1697 2047 
L 1894 2003 
Q 2506 1872 2764 1633 
Q 3022 1394 3022 966 
Q 3022 478 2636 193 
Q 2250 -91 1575 -91 
Q 1294 -91 989 -36 
Q 684 19 347 128 
L 347 722 
Q 666 556 975 473 
Q 1284 391 1588 391 
Q 1994 391 2212 530 
Q 2431 669 2431 922 
Q 2431 1156 2273 1281 
Q 2116 1406 1581 1522 
L 1381 1569 
Q 847 1681 609 1914 
Q 372 2147 372 2553 
Q 372 3047 722 3315 
Q 1072 3584 1716 3584 
Q 2034 3584 2315 3537 
Q 2597 3491 2834 3397 
z
" transform="scale(0.015625)"/>
      <path id="DejaVuSans-75" d="M 544 1381 
L 544 3500 
L 1119 3500 
L 1119 1403 
Q 1119 906 1312 657 
Q 1506 409 1894 409 
Q 2359 409 2629 706 
Q 2900 1003 2900 1516 
L 2900 3500 
L 3475 3500 
L 3475 0 
L 2900 0 
L 2900 538 
Q 2691 219 2414 64 
Q 2138 -91 1772 -91 
Q 1169 -91 856 284 
Q 544 659 544 1381 
z
M 1991 3584 
L 1991 3584 
z
" transform="scale(0.015625)"/>
     </defs>
     <use xlink:href="#DejaVuSans-57"/>
     <use xlink:href="#DejaVuSans-61" x="92.501953"/>
     <use xlink:href="#DejaVuSans-72" x="153.78125"/>
     <use xlink:href="#DejaVuSans-74" x="194.894531"/>
     <use xlink:href="#DejaVuSans-6f" x="234.103516"/>
     <use xlink:href="#DejaVuSans-15b" x="295.285156"/>
     <use xlink:href="#DejaVuSans-107" x="347.384766"/>
     <use xlink:href="#DejaVuSans-20" x="402.365234"/>
     <use xlink:href="#DejaVuSans-15b" x="434.152344"/>
     <use xlink:href="#DejaVuSans-72" x="486.251953"/>
     <use xlink:href="#DejaVuSans-65" x="525.115234"/>
     <use xlink:href="#DejaVuSans-64" x="586.638672"/>
     <use xlink:href="#DejaVuSans-6e" x="650.115234"/>
     <use xlink:href="#DejaVuSans-69" x="713.494141"/>
     <use xlink:href="#DejaVuSans-61" x="741.277344"/>
     <use xlink:href="#DejaVuSans-20" x="802.556641"/>
     <use xlink:href="#DejaVuSans-7a" x="834.34375"/>
     <use xlink:href="#DejaVuSans-20" x="886.833984"/>
     <use xlink:href="#DejaVuSans-70" x="918.621094"/>
     <use xlink:href="#DejaVuSans-72" x="982.097656"/>
     <use xlink:href="#DejaVuSans-f3" x="1020.960938"/>
     <use xlink:href="#DejaVuSans-62" x="1082.142578"/>
     <use xlink:href="#DejaVuSans-6b" x="1145.619141"/>
     <use xlink:href="#DejaVuSans-69" x="1203.529297"/>
     <use xlink:href="#DejaVuSans-20" x="1231.3125"/>
     <use xlink:href="#DejaVuSans-31" x="1263.099609"/>
     <use xlink:href="#DejaVuSans-20" x="1326.722656"/>
     <use xlink:href="#DejaVuSans-73" x="1358.509766"/>
     <use xlink:href="#DejaVuSans-65" x="1410.609375"/>
     <use xlink:href="#DejaVuSans-6b" x="1472.132812"/>
     <use xlink:href="#DejaVuSans-75" x="1526.917969"/>
     <use xlink:href="#DejaVuSans-6e" x="1590.296875"/>
     <use xlink:href="#DejaVuSans-64" x="1653.675781"/>
     <use xlink:href="#DejaVuSans-61" x="1717.152344"/>
    </g>
   </g>
   <g id="legend_1">
    <g id="patch_7">
     <path d="M 787.10625 105.579375 
L 873.78125 105.579375 
Q 875.78125 105.579375 875.78125 103.579375 
L 875.78125 29.798125 
Q 875.78125 27.798125 873.78125 27.798125 
L 787.10625 27.798125 
Q 785.10625 27.798125 785.10625 29.798125 
L 785.10625 103.579375 
Q 785.10625 105.579375 787.10625 105.579375 
z
" style="fill: #ffffff; opacity: 0.8; stroke: #cccccc; stroke-linejoin: miter"/>
    </g>
    <g id="line2d_22">
     <path d="M 789.10625 35.896563 
L 799.10625 35.896563 
L 809.10625 35.896563 
" style="fill: none; stroke: #ff00ff; stroke-width: 0.9; stroke-linecap: square"/>
    </g>
    <g id="text_20">
     <!-- CH1_0.5KS -->
     <g transform="translate(817.10625 39.396563)scale(0.1 -0.1)">
      <defs>
       <path id="DejaVuSans-43" d="M 4122 4306 
L 4122 3641 
Q 3803 3938 3442 4084 
Q 3081 4231 2675 4231 
Q 1875 4231 1450 3742 
Q 1025 3253 1025 2328 
Q 1025 1406 1450 917 
Q 1875 428 2675 428 
Q 3081 428 3442 575 
Q 3803 722 4122 1019 
L 4122 359 
Q 3791 134 3420 21 
Q 3050 -91 2638 -91 
Q 1578 -91 968 557 
Q 359 1206 359 2328 
Q 359 3453 968 4101 
Q 1578 4750 2638 4750 
Q 3056 4750 3426 4639 
Q 3797 4528 4122 4306 
z
" transform="scale(0.015625)"/>
       <path id="DejaVuSans-48" d="M 628 4666 
L 1259 4666 
L 1259 2753 
L 3553 2753 
L 3553 4666 
L 4184 4666 
L 4184 0 
L 3553 0 
L 3553 2222 
L 1259 2222 
L 1259 0 
L 628 0 
L 628 4666 
z
" transform="scale(0.015625)"/>
       <path id="DejaVuSans-5f" d="M 3263 -1063 
L 3263 -1509 
L -63 -1509 
L -63 -1063 
L 3263 -1063 
z
" transform="scale(0.015625)"/>
       <path id="DejaVuSans-4b" d="M 628 4666 
L 1259 4666 
L 1259 2694 
L 3353 4666 
L 4166 4666 
L 1850 2491 
L 4331 0 
L 3500 0 
L 1259 2247 
L 1259 0 
L 628 0 
L 628 4666 
z
" transform="scale(0.015625)"/>
       <path id="DejaVuSans-53" d="M 3425 4513 
L 3425 3897 
Q 3066 4069 2747 4153 
Q 2428 4238 2131 4238 
Q 1616 4238 1336 4038 
Q 1056 3838 1056 3469 
Q 1056 3159 1242 3001 
Q 1428 2844 1947 2747 
L 2328 2669 
Q 3034 2534 3370 2195 
Q 3706 1856 3706 1288 
Q 3706 609 3251 259 
Q 2797 -91 1919 -91 
Q 1588 -91 1214 -16 
Q 841 59 441 206 
L 441 856 
Q 825 641 1194 531 
Q 1563 422 1919 422 
Q 2459 422 2753 634 
Q 3047 847 3047 1241 
Q 3047 1584 2836 1778 
Q 2625 1972 2144 2069 
L 1759 2144 
Q 1053 2284 737 2584 
Q 422 2884 422 3419 
Q 422 4038 858 4394 
Q 1294 4750 2059 4750 
Q 2388 4750 2728 4690 
Q 3069 4631 3425 4513 
z
" transform="scale(0.015625)"/>
      </defs>
      <use xlink:href="#DejaVuSans-43"/>
      <use xlink:href="#DejaVuSans-48" x="69.824219"/>
      <use xlink:href="#DejaVuSans-31" x="145.019531"/>
      <use xlink:href="#DejaVuSans-5f" x="208.642578"/>
      <use xlink:href="#DejaVuSans-30" x="258.642578"/>
      <use xlink:href="#DejaVuSans-2e" x="322.265625"/>
      <use xlink:href="#DejaVuSans-35" x="354.052734"/>
      <use xlink:href="#DejaVuSans-4b" x="417.675781"/>
      <use xlink:href="#DejaVuSans-53" x="483.251953"/>
     </g>
    </g>
    <g id="line2d_23">
     <path d="M 789.10625 50.852813 
L 799.10625 50.852813 
L 809.10625 50.852813 
" style="fill: none; stroke: #9400d3; stroke-width: 0.9; stroke-linecap: square"/>
    </g>
    <g id="text_21">
     <!-- CH2_0.5KS -->
     <g transform="translate(817.10625 54.352813)scale(0.1 -0.1)">
      <use xlink:href="#DejaVuSans-43"/>
      <use xlink:href="#DejaVuSans-48" x="69.824219"/>
      <use xlink:href="#DejaVuSans-32" x="145.019531"/>
      <use xlink:href="#DejaVuSans-5f" x="208.642578"/>
      <use xlink:href="#DejaVuSans-30" x="258.642578"/>
      <use xlink:href="#DejaVuSans-2e" x="322.265625"/>
      <use xlink:href="#DejaVuSans-35" x="354.052734"/>
      <use xlink:href="#DejaVuSans-4b" x="417.675781"/>
      <use xlink:href="#DejaVuSans-53" x="483.251953"/>
     </g>
    </g>
    <g id="line2d_24">
     <path d="M 789.10625 65.809063 
L 799.10625 65.809063 
L 809.10625 65.809063 
" style="fill: none; stroke: #00ffff; stroke-width: 0.9; stroke-linecap: square"/>
    </g>
    <g id="text_22">
     <!-- CH3_0.5KS -->
     <g transform="translate(817.10625 69.309063)scale(0.1 -0.1)">
      <use xlink:href="#DejaVuSans-43"/>
      <use xlink:href="#DejaVuSans-48" x="69.824219"/>
      <use xlink:href="#DejaVuSans-33" x="145.019531"/>
      <use xlink:href="#DejaVuSans-5f" x="208.642578"/>
      <use xlink:href="#DejaVuSans-30" x="258.642578"/>
      <use xlink:href="#DejaVuSans-2e" x="322.265625"/>
      <use xlink:href="#DejaVuSans-35" x="354.052734"/>
      <use xlink:href="#DejaVuSans-4b" x="417.675781"/>
      <use xlink:href="#DejaVuSans-53" x="483.251953"/>
     </g>
    </g>
    <g id="line2d_25">
     <path d="M 789.10625 80.765313 
L 799.10625 80.765313 
L 809.10625 80.765313 
" style="fill: none; stroke: #ffa500; stroke-width: 0.9; stroke-linecap: square"/>
    </g>
    <g id="text_23">
     <!-- CH4_0.5KS -->
     <g transform="translate(817.10625 84.265313)scale(0.1 -0.1)">
      <use xlink:href="#DejaVuSans-43"/>
      <use xlink:href="#DejaVuSans-48" x="69.824219"/>
      <use xlink:href="#DejaVuSans-34" x="145.019531"/>
      <use xlink:href="#DejaVuSans-5f" x="208.642578"/>
      <use xlink:href="#DejaVuSans-30" x="258.642578"/>
      <use xlink:href="#DejaVuSans-2e" x="322.265625"/>
      <use xlink:href="#DejaVuSans-35" x="354.052734"/>
      <use xlink:href="#DejaVuSans-4b" x="417.675781"/>
      <use xlink:href="#DejaVuSans-53" x="483.251953"/>
     </g>
    </g>
    <g id="line2d_26">
     <path d="M 789.10625 95.721563 
L 799.10625 95.721563 
L 809.10625 95.721563 
" style="fill: none; stroke: #ff4500; stroke-width: 0.9; stroke-linecap: square"/>
    </g>
    <g id="text_24">
     <!-- CH5_0.5KS -->
     <g transform="translate(817.10625 99.221563)scale(0.1 -0.1)">
      <use xlink:href="#DejaVuSans-43"/>
      <use xlink:href="#DejaVuSans-48" x="69.824219"/>
      <use xlink:href="#DejaVuSans-35" x="145.019531"/>
      <use xlink:href="#DejaVuSans-5f" x="208.642578"/>
      <use xlink:href="#DejaVuSans-30" x="258.642578"/>
      <use xlink:href="#DejaVuSans-2e" x="322.265625"/>
      <use xlink:href="#DejaVuSans-35" x="354.052734"/>
      <use xlink:href="#DejaVuSans-4b" x="417.675781"/>
      <use xlink:href="#DejaVuSans-53" x="483.251953"/>
     </g>
    </g>
   </g>
  </g>
 </g>
 <defs>
  <clipPath id="pa97d0e28a1">
   <rect x="43.78125" y="22.798125" width="837" height="271.8"/>
  </clipPath>
 </defs>
</svg>
