<?xml version="1.0" encoding="utf-8" standalone="no"?>
<!DOCTYPE svg PUBLIC "-//W3C//DTD SVG 1.1//EN"
  "http://www.w3.org/Graphics/SVG/1.1/DTD/svg11.dtd">
<svg xmlns:xlink="http://www.w3.org/1999/xlink" width="878.440625pt" height="332.154375pt" viewBox="0 0 878.440625 332.154375" xmlns="http://www.w3.org/2000/svg" version="1.1">
 <metadata>
  <rdf:RDF xmlns:dc="http://purl.org/dc/elements/1.1/" xmlns:cc="http://creativecommons.org/ns#" xmlns:rdf="http://www.w3.org/1999/02/22-rdf-syntax-ns#">
   <cc:Work>
    <dc:type rdf:resource="http://purl.org/dc/dcmitype/StillImage"/>
    <dc:date>2022-06-21T09:46:19.476644</dc:date>
    <dc:format>image/svg+xml</dc:format>
    <dc:creator>
     <cc:Agent>
      <dc:title>Matplotlib v3.5.2, https://matplotlib.org/</dc:title>
     </cc:Agent>
    </dc:creator>
   </cc:Work>
  </rdf:RDF>
 </metadata>
 <defs>
  <style type="text/css">*{stroke-linejoin: round; stroke-linecap: butt}</style>
 </defs>
 <g id="figure_1">
  <g id="patch_1">
   <path d="M 0 332.154375 
L 878.440625 332.154375 
L 878.440625 0 
L 0 0 
L 0 332.154375 
z
" style="fill: none"/>
  </g>
  <g id="axes_1">
   <g id="patch_2">
    <path d="M 34.240625 294.598125 
L 871.240625 294.598125 
L 871.240625 22.798125 
L 34.240625 22.798125 
z
" style="fill: #ffffff"/>
   </g>
   <g id="matplotlib.axis_1">
    <g id="xtick_1">
     <g id="line2d_1">
      <defs>
       <path id="m686291ce13" d="M 0 0 
L 0 3.5 
" style="stroke: #000000; stroke-width: 0.8"/>
      </defs>
      <g>
       <use xlink:href="#m686291ce13" x="72.28608" y="294.598125" style="stroke: #000000; stroke-width: 0.8"/>
      </g>
     </g>
     <g id="text_1">
      <!-- 0 -->
      <g transform="translate(69.10483 309.196562)scale(0.1 -0.1)">
       <defs>
        <path id="DejaVuSans-30" d="M 2034 4250 
Q 1547 4250 1301 3770 
Q 1056 3291 1056 2328 
Q 1056 1369 1301 889 
Q 1547 409 2034 409 
Q 2525 409 2770 889 
Q 3016 1369 3016 2328 
Q 3016 3291 2770 3770 
Q 2525 4250 2034 4250 
z
M 2034 4750 
Q 2819 4750 3233 4129 
Q 3647 3509 3647 2328 
Q 3647 1150 3233 529 
Q 2819 -91 2034 -91 
Q 1250 -91 836 529 
Q 422 1150 422 2328 
Q 422 3509 836 4129 
Q 1250 4750 2034 4750 
z
" transform="scale(0.015625)"/>
       </defs>
       <use xlink:href="#DejaVuSans-30"/>
      </g>
     </g>
    </g>
    <g id="xtick_2">
     <g id="line2d_2">
      <g>
       <use xlink:href="#m686291ce13" x="199.528402" y="294.598125" style="stroke: #000000; stroke-width: 0.8"/>
      </g>
     </g>
     <g id="text_2">
      <!-- 50 -->
      <g transform="translate(193.165902 309.196562)scale(0.1 -0.1)">
       <defs>
        <path id="DejaVuSans-35" d="M 691 4666 
L 3169 4666 
L 3169 4134 
L 1269 4134 
L 1269 2991 
Q 1406 3038 1543 3061 
Q 1681 3084 1819 3084 
Q 2600 3084 3056 2656 
Q 3513 2228 3513 1497 
Q 3513 744 3044 326 
Q 2575 -91 1722 -91 
Q 1428 -91 1123 -41 
Q 819 9 494 109 
L 494 744 
Q 775 591 1075 516 
Q 1375 441 1709 441 
Q 2250 441 2565 725 
Q 2881 1009 2881 1497 
Q 2881 1984 2565 2268 
Q 2250 2553 1709 2553 
Q 1456 2553 1204 2497 
Q 953 2441 691 2322 
L 691 4666 
z
" transform="scale(0.015625)"/>
       </defs>
       <use xlink:href="#DejaVuSans-35"/>
       <use xlink:href="#DejaVuSans-30" x="63.623047"/>
      </g>
     </g>
    </g>
    <g id="xtick_3">
     <g id="line2d_3">
      <g>
       <use xlink:href="#m686291ce13" x="326.770725" y="294.598125" style="stroke: #000000; stroke-width: 0.8"/>
      </g>
     </g>
     <g id="text_3">
      <!-- 100 -->
      <g transform="translate(317.226975 309.196562)scale(0.1 -0.1)">
       <defs>
        <path id="DejaVuSans-31" d="M 794 531 
L 1825 531 
L 1825 4091 
L 703 3866 
L 703 4441 
L 1819 4666 
L 2450 4666 
L 2450 531 
L 3481 531 
L 3481 0 
L 794 0 
L 794 531 
z
" transform="scale(0.015625)"/>
       </defs>
       <use xlink:href="#DejaVuSans-31"/>
       <use xlink:href="#DejaVuSans-30" x="63.623047"/>
       <use xlink:href="#DejaVuSans-30" x="127.246094"/>
      </g>
     </g>
    </g>
    <g id="xtick_4">
     <g id="line2d_4">
      <g>
       <use xlink:href="#m686291ce13" x="454.013048" y="294.598125" style="stroke: #000000; stroke-width: 0.8"/>
      </g>
     </g>
     <g id="text_4">
      <!-- 150 -->
      <g transform="translate(444.469298 309.196562)scale(0.1 -0.1)">
       <use xlink:href="#DejaVuSans-31"/>
       <use xlink:href="#DejaVuSans-35" x="63.623047"/>
       <use xlink:href="#DejaVuSans-30" x="127.246094"/>
      </g>
     </g>
    </g>
    <g id="xtick_5">
     <g id="line2d_5">
      <g>
       <use xlink:href="#m686291ce13" x="581.255371" y="294.598125" style="stroke: #000000; stroke-width: 0.8"/>
      </g>
     </g>
     <g id="text_5">
      <!-- 200 -->
      <g transform="translate(571.711621 309.196562)scale(0.1 -0.1)">
       <defs>
        <path id="DejaVuSans-32" d="M 1228 531 
L 3431 531 
L 3431 0 
L 469 0 
L 469 531 
Q 828 903 1448 1529 
Q 2069 2156 2228 2338 
Q 2531 2678 2651 2914 
Q 2772 3150 2772 3378 
Q 2772 3750 2511 3984 
Q 2250 4219 1831 4219 
Q 1534 4219 1204 4116 
Q 875 4013 500 3803 
L 500 4441 
Q 881 4594 1212 4672 
Q 1544 4750 1819 4750 
Q 2544 4750 2975 4387 
Q 3406 4025 3406 3419 
Q 3406 3131 3298 2873 
Q 3191 2616 2906 2266 
Q 2828 2175 2409 1742 
Q 1991 1309 1228 531 
z
" transform="scale(0.015625)"/>
       </defs>
       <use xlink:href="#DejaVuSans-32"/>
       <use xlink:href="#DejaVuSans-30" x="63.623047"/>
       <use xlink:href="#DejaVuSans-30" x="127.246094"/>
      </g>
     </g>
    </g>
    <g id="xtick_6">
     <g id="line2d_6">
      <g>
       <use xlink:href="#m686291ce13" x="708.497694" y="294.598125" style="stroke: #000000; stroke-width: 0.8"/>
      </g>
     </g>
     <g id="text_6">
      <!-- 250 -->
      <g transform="translate(698.953944 309.196562)scale(0.1 -0.1)">
       <use xlink:href="#DejaVuSans-32"/>
       <use xlink:href="#DejaVuSans-35" x="63.623047"/>
       <use xlink:href="#DejaVuSans-30" x="127.246094"/>
      </g>
     </g>
    </g>
    <g id="xtick_7">
     <g id="line2d_7">
      <g>
       <use xlink:href="#m686291ce13" x="835.740017" y="294.598125" style="stroke: #000000; stroke-width: 0.8"/>
      </g>
     </g>
     <g id="text_7">
      <!-- 300 -->
      <g transform="translate(826.196267 309.196562)scale(0.1 -0.1)">
       <defs>
        <path id="DejaVuSans-33" d="M 2597 2516 
Q 3050 2419 3304 2112 
Q 3559 1806 3559 1356 
Q 3559 666 3084 287 
Q 2609 -91 1734 -91 
Q 1441 -91 1130 -33 
Q 819 25 488 141 
L 488 750 
Q 750 597 1062 519 
Q 1375 441 1716 441 
Q 2309 441 2620 675 
Q 2931 909 2931 1356 
Q 2931 1769 2642 2001 
Q 2353 2234 1838 2234 
L 1294 2234 
L 1294 2753 
L 1863 2753 
Q 2328 2753 2575 2939 
Q 2822 3125 2822 3475 
Q 2822 3834 2567 4026 
Q 2313 4219 1838 4219 
Q 1578 4219 1281 4162 
Q 984 4106 628 3988 
L 628 4550 
Q 988 4650 1302 4700 
Q 1616 4750 1894 4750 
Q 2613 4750 3031 4423 
Q 3450 4097 3450 3541 
Q 3450 3153 3228 2886 
Q 3006 2619 2597 2516 
z
" transform="scale(0.015625)"/>
       </defs>
       <use xlink:href="#DejaVuSans-33"/>
       <use xlink:href="#DejaVuSans-30" x="63.623047"/>
       <use xlink:href="#DejaVuSans-30" x="127.246094"/>
      </g>
     </g>
    </g>
    <g id="text_8">
     <!-- Próbka -->
     <g transform="translate(435.764844 322.874687)scale(0.1 -0.1)">
      <defs>
       <path id="DejaVuSans-50" d="M 1259 4147 
L 1259 2394 
L 2053 2394 
Q 2494 2394 2734 2622 
Q 2975 2850 2975 3272 
Q 2975 3691 2734 3919 
Q 2494 4147 2053 4147 
L 1259 4147 
z
M 628 4666 
L 2053 4666 
Q 2838 4666 3239 4311 
Q 3641 3956 3641 3272 
Q 3641 2581 3239 2228 
Q 2838 1875 2053 1875 
L 1259 1875 
L 1259 0 
L 628 0 
L 628 4666 
z
" transform="scale(0.015625)"/>
       <path id="DejaVuSans-72" d="M 2631 2963 
Q 2534 3019 2420 3045 
Q 2306 3072 2169 3072 
Q 1681 3072 1420 2755 
Q 1159 2438 1159 1844 
L 1159 0 
L 581 0 
L 581 3500 
L 1159 3500 
L 1159 2956 
Q 1341 3275 1631 3429 
Q 1922 3584 2338 3584 
Q 2397 3584 2469 3576 
Q 2541 3569 2628 3553 
L 2631 2963 
z
" transform="scale(0.015625)"/>
       <path id="DejaVuSans-f3" d="M 1959 3097 
Q 1497 3097 1228 2736 
Q 959 2375 959 1747 
Q 959 1119 1226 758 
Q 1494 397 1959 397 
Q 2419 397 2687 759 
Q 2956 1122 2956 1747 
Q 2956 2369 2687 2733 
Q 2419 3097 1959 3097 
z
M 1959 3584 
Q 2709 3584 3137 3096 
Q 3566 2609 3566 1747 
Q 3566 888 3137 398 
Q 2709 -91 1959 -91 
Q 1206 -91 779 398 
Q 353 888 353 1747 
Q 353 2609 779 3096 
Q 1206 3584 1959 3584 
z
M 2394 5119 
L 3016 5119 
L 1998 3944 
L 1519 3944 
L 2394 5119 
z
" transform="scale(0.015625)"/>
       <path id="DejaVuSans-62" d="M 3116 1747 
Q 3116 2381 2855 2742 
Q 2594 3103 2138 3103 
Q 1681 3103 1420 2742 
Q 1159 2381 1159 1747 
Q 1159 1113 1420 752 
Q 1681 391 2138 391 
Q 2594 391 2855 752 
Q 3116 1113 3116 1747 
z
M 1159 2969 
Q 1341 3281 1617 3432 
Q 1894 3584 2278 3584 
Q 2916 3584 3314 3078 
Q 3713 2572 3713 1747 
Q 3713 922 3314 415 
Q 2916 -91 2278 -91 
Q 1894 -91 1617 61 
Q 1341 213 1159 525 
L 1159 0 
L 581 0 
L 581 4863 
L 1159 4863 
L 1159 2969 
z
" transform="scale(0.015625)"/>
       <path id="DejaVuSans-6b" d="M 581 4863 
L 1159 4863 
L 1159 1991 
L 2875 3500 
L 3609 3500 
L 1753 1863 
L 3688 0 
L 2938 0 
L 1159 1709 
L 1159 0 
L 581 0 
L 581 4863 
z
" transform="scale(0.015625)"/>
       <path id="DejaVuSans-61" d="M 2194 1759 
Q 1497 1759 1228 1600 
Q 959 1441 959 1056 
Q 959 750 1161 570 
Q 1363 391 1709 391 
Q 2188 391 2477 730 
Q 2766 1069 2766 1631 
L 2766 1759 
L 2194 1759 
z
M 3341 1997 
L 3341 0 
L 2766 0 
L 2766 531 
Q 2569 213 2275 61 
Q 1981 -91 1556 -91 
Q 1019 -91 701 211 
Q 384 513 384 1019 
Q 384 1609 779 1909 
Q 1175 2209 1959 2209 
L 2766 2209 
L 2766 2266 
Q 2766 2663 2505 2880 
Q 2244 3097 1772 3097 
Q 1472 3097 1187 3025 
Q 903 2953 641 2809 
L 641 3341 
Q 956 3463 1253 3523 
Q 1550 3584 1831 3584 
Q 2591 3584 2966 3190 
Q 3341 2797 3341 1997 
z
" transform="scale(0.015625)"/>
      </defs>
      <use xlink:href="#DejaVuSans-50"/>
      <use xlink:href="#DejaVuSans-72" x="58.552734"/>
      <use xlink:href="#DejaVuSans-f3" x="97.416016"/>
      <use xlink:href="#DejaVuSans-62" x="158.597656"/>
      <use xlink:href="#DejaVuSans-6b" x="222.074219"/>
      <use xlink:href="#DejaVuSans-61" x="278.234375"/>
     </g>
    </g>
   </g>
   <g id="matplotlib.axis_2">
    <g id="ytick_1">
     <g id="line2d_8">
      <defs>
       <path id="mcc332d17d0" d="M 0 0 
L -3.5 0 
" style="stroke: #000000; stroke-width: 0.8"/>
      </defs>
      <g>
       <use xlink:href="#mcc332d17d0" x="34.240625" y="245.338897" style="stroke: #000000; stroke-width: 0.8"/>
      </g>
     </g>
     <g id="text_9">
      <!-- 2 -->
      <g transform="translate(20.878125 249.138116)scale(0.1 -0.1)">
       <use xlink:href="#DejaVuSans-32"/>
      </g>
     </g>
    </g>
    <g id="ytick_2">
     <g id="line2d_9">
      <g>
       <use xlink:href="#mcc332d17d0" x="34.240625" y="189.633315" style="stroke: #000000; stroke-width: 0.8"/>
      </g>
     </g>
     <g id="text_10">
      <!-- 4 -->
      <g transform="translate(20.878125 193.432533)scale(0.1 -0.1)">
       <defs>
        <path id="DejaVuSans-34" d="M 2419 4116 
L 825 1625 
L 2419 1625 
L 2419 4116 
z
M 2253 4666 
L 3047 4666 
L 3047 1625 
L 3713 1625 
L 3713 1100 
L 3047 1100 
L 3047 0 
L 2419 0 
L 2419 1100 
L 313 1100 
L 313 1709 
L 2253 4666 
z
" transform="scale(0.015625)"/>
       </defs>
       <use xlink:href="#DejaVuSans-34"/>
      </g>
     </g>
    </g>
    <g id="ytick_3">
     <g id="line2d_10">
      <g>
       <use xlink:href="#mcc332d17d0" x="34.240625" y="133.927732" style="stroke: #000000; stroke-width: 0.8"/>
      </g>
     </g>
     <g id="text_11">
      <!-- 6 -->
      <g transform="translate(20.878125 137.726951)scale(0.1 -0.1)">
       <defs>
        <path id="DejaVuSans-36" d="M 2113 2584 
Q 1688 2584 1439 2293 
Q 1191 2003 1191 1497 
Q 1191 994 1439 701 
Q 1688 409 2113 409 
Q 2538 409 2786 701 
Q 3034 994 3034 1497 
Q 3034 2003 2786 2293 
Q 2538 2584 2113 2584 
z
M 3366 4563 
L 3366 3988 
Q 3128 4100 2886 4159 
Q 2644 4219 2406 4219 
Q 1781 4219 1451 3797 
Q 1122 3375 1075 2522 
Q 1259 2794 1537 2939 
Q 1816 3084 2150 3084 
Q 2853 3084 3261 2657 
Q 3669 2231 3669 1497 
Q 3669 778 3244 343 
Q 2819 -91 2113 -91 
Q 1303 -91 875 529 
Q 447 1150 447 2328 
Q 447 3434 972 4092 
Q 1497 4750 2381 4750 
Q 2619 4750 2861 4703 
Q 3103 4656 3366 4563 
z
" transform="scale(0.015625)"/>
       </defs>
       <use xlink:href="#DejaVuSans-36"/>
      </g>
     </g>
    </g>
    <g id="ytick_4">
     <g id="line2d_11">
      <g>
       <use xlink:href="#mcc332d17d0" x="34.240625" y="78.22215" style="stroke: #000000; stroke-width: 0.8"/>
      </g>
     </g>
     <g id="text_12">
      <!-- 8 -->
      <g transform="translate(20.878125 82.021369)scale(0.1 -0.1)">
       <defs>
        <path id="DejaVuSans-38" d="M 2034 2216 
Q 1584 2216 1326 1975 
Q 1069 1734 1069 1313 
Q 1069 891 1326 650 
Q 1584 409 2034 409 
Q 2484 409 2743 651 
Q 3003 894 3003 1313 
Q 3003 1734 2745 1975 
Q 2488 2216 2034 2216 
z
M 1403 2484 
Q 997 2584 770 2862 
Q 544 3141 544 3541 
Q 544 4100 942 4425 
Q 1341 4750 2034 4750 
Q 2731 4750 3128 4425 
Q 3525 4100 3525 3541 
Q 3525 3141 3298 2862 
Q 3072 2584 2669 2484 
Q 3125 2378 3379 2068 
Q 3634 1759 3634 1313 
Q 3634 634 3220 271 
Q 2806 -91 2034 -91 
Q 1263 -91 848 271 
Q 434 634 434 1313 
Q 434 1759 690 2068 
Q 947 2378 1403 2484 
z
M 1172 3481 
Q 1172 3119 1398 2916 
Q 1625 2713 2034 2713 
Q 2441 2713 2670 2916 
Q 2900 3119 2900 3481 
Q 2900 3844 2670 4047 
Q 2441 4250 2034 4250 
Q 1625 4250 1398 4047 
Q 1172 3844 1172 3481 
z
" transform="scale(0.015625)"/>
       </defs>
       <use xlink:href="#DejaVuSans-38"/>
      </g>
     </g>
    </g>
    <g id="text_13">
     <!-- Wartość -->
     <g transform="translate(14.798438 178.816094)rotate(-90)scale(0.1 -0.1)">
      <defs>
       <path id="DejaVuSans-57" d="M 213 4666 
L 850 4666 
L 1831 722 
L 2809 4666 
L 3519 4666 
L 4500 722 
L 5478 4666 
L 6119 4666 
L 4947 0 
L 4153 0 
L 3169 4050 
L 2175 0 
L 1381 0 
L 213 4666 
z
" transform="scale(0.015625)"/>
       <path id="DejaVuSans-74" d="M 1172 4494 
L 1172 3500 
L 2356 3500 
L 2356 3053 
L 1172 3053 
L 1172 1153 
Q 1172 725 1289 603 
Q 1406 481 1766 481 
L 2356 481 
L 2356 0 
L 1766 0 
Q 1100 0 847 248 
Q 594 497 594 1153 
L 594 3053 
L 172 3053 
L 172 3500 
L 594 3500 
L 594 4494 
L 1172 4494 
z
" transform="scale(0.015625)"/>
       <path id="DejaVuSans-6f" d="M 1959 3097 
Q 1497 3097 1228 2736 
Q 959 2375 959 1747 
Q 959 1119 1226 758 
Q 1494 397 1959 397 
Q 2419 397 2687 759 
Q 2956 1122 2956 1747 
Q 2956 2369 2687 2733 
Q 2419 3097 1959 3097 
z
M 1959 3584 
Q 2709 3584 3137 3096 
Q 3566 2609 3566 1747 
Q 3566 888 3137 398 
Q 2709 -91 1959 -91 
Q 1206 -91 779 398 
Q 353 888 353 1747 
Q 353 2609 779 3096 
Q 1206 3584 1959 3584 
z
" transform="scale(0.015625)"/>
       <path id="DejaVuSans-15b" d="M 2242 5119 
L 2864 5119 
L 1846 3944 
L 1367 3944 
L 2242 5119 
z
M 2834 3397 
L 2834 2853 
Q 2591 2978 2328 3040 
Q 2066 3103 1784 3103 
Q 1356 3103 1142 2972 
Q 928 2841 928 2578 
Q 928 2378 1081 2264 
Q 1234 2150 1697 2047 
L 1894 2003 
Q 2506 1872 2764 1633 
Q 3022 1394 3022 966 
Q 3022 478 2636 193 
Q 2250 -91 1575 -91 
Q 1294 -91 989 -36 
Q 684 19 347 128 
L 347 722 
Q 666 556 975 473 
Q 1284 391 1588 391 
Q 1994 391 2212 530 
Q 2431 669 2431 922 
Q 2431 1156 2273 1281 
Q 2116 1406 1581 1522 
L 1381 1569 
Q 847 1681 609 1914 
Q 372 2147 372 2553 
Q 372 3047 722 3315 
Q 1072 3584 1716 3584 
Q 2034 3584 2315 3537 
Q 2597 3491 2834 3397 
z
" transform="scale(0.015625)"/>
       <path id="DejaVuSans-107" d="M 3122 3366 
L 3122 2828 
Q 2878 2963 2633 3030 
Q 2388 3097 2138 3097 
Q 1578 3097 1268 2742 
Q 959 2388 959 1747 
Q 959 1106 1268 751 
Q 1578 397 2138 397 
Q 2388 397 2633 464 
Q 2878 531 3122 666 
L 3122 134 
Q 2881 22 2623 -34 
Q 2366 -91 2075 -91 
Q 1284 -91 818 406 
Q 353 903 353 1747 
Q 353 2603 823 3093 
Q 1294 3584 2113 3584 
Q 2378 3584 2631 3529 
Q 2884 3475 3122 3366 
z
M 2466 5119 
L 3088 5119 
L 2070 3944 
L 1591 3944 
L 2466 5119 
z
" transform="scale(0.015625)"/>
      </defs>
      <use xlink:href="#DejaVuSans-57"/>
      <use xlink:href="#DejaVuSans-61" x="92.501953"/>
      <use xlink:href="#DejaVuSans-72" x="153.78125"/>
      <use xlink:href="#DejaVuSans-74" x="194.894531"/>
      <use xlink:href="#DejaVuSans-6f" x="234.103516"/>
      <use xlink:href="#DejaVuSans-15b" x="295.285156"/>
      <use xlink:href="#DejaVuSans-107" x="347.384766"/>
     </g>
    </g>
    <g id="text_14">
     <!-- 1e−5 -->
     <g transform="translate(34.240625 19.798125)scale(0.1 -0.1)">
      <defs>
       <path id="DejaVuSans-65" d="M 3597 1894 
L 3597 1613 
L 953 1613 
Q 991 1019 1311 708 
Q 1631 397 2203 397 
Q 2534 397 2845 478 
Q 3156 559 3463 722 
L 3463 178 
Q 3153 47 2828 -22 
Q 2503 -91 2169 -91 
Q 1331 -91 842 396 
Q 353 884 353 1716 
Q 353 2575 817 3079 
Q 1281 3584 2069 3584 
Q 2775 3584 3186 3129 
Q 3597 2675 3597 1894 
z
M 3022 2063 
Q 3016 2534 2758 2815 
Q 2500 3097 2075 3097 
Q 1594 3097 1305 2825 
Q 1016 2553 972 2059 
L 3022 2063 
z
" transform="scale(0.015625)"/>
       <path id="DejaVuSans-2212" d="M 678 2272 
L 4684 2272 
L 4684 1741 
L 678 1741 
L 678 2272 
z
" transform="scale(0.015625)"/>
      </defs>
      <use xlink:href="#DejaVuSans-31"/>
      <use xlink:href="#DejaVuSans-65" x="63.623047"/>
      <use xlink:href="#DejaVuSans-2212" x="125.146484"/>
      <use xlink:href="#DejaVuSans-35" x="208.935547"/>
     </g>
    </g>
   </g>
   <g id="line2d_12">
    <path d="M 72.28608 260.649065 
L 74.830926 270.719949 
L 77.375772 273.685175 
L 79.920619 240.264238 
L 82.465465 181.282412 
L 85.010312 268.451712 
L 87.555158 262.753278 
L 90.100005 266.432206 
L 92.644851 270.783488 
L 95.189698 280.090367 
L 97.734544 233.569022 
L 100.279391 274.959616 
L 102.824237 266.026906 
L 105.369083 272.888224 
L 107.91393 241.896975 
L 110.458776 205.841671 
L 113.003623 241.544854 
L 115.548469 227.170757 
L 118.093316 166.917978 
L 120.638162 240.946811 
L 123.183009 261.524368 
L 125.727855 268.523714 
L 128.272702 254.603388 
L 130.817548 230.245046 
L 133.362395 194.047725 
L 135.907241 193.267843 
L 138.452087 162.884998 
L 140.996934 249.308607 
L 143.54178 231.91784 
L 146.086627 236.5217 
L 148.631473 257.592191 
L 151.17632 221.246227 
L 153.721166 263.351166 
L 156.266013 238.882385 
L 158.810859 260.999871 
L 161.355706 187.550185 
L 163.900552 211.681747 
L 166.445398 221.702432 
L 168.990245 233.875389 
L 171.535091 213.465591 
L 174.079938 200.227248 
L 176.624784 227.887804 
L 179.169631 225.735519 
L 181.714477 204.307842 
L 184.259324 253.518268 
L 186.80417 189.1995 
L 189.349017 249.275569 
L 191.893863 190.270725 
L 194.43871 159.990084 
L 196.983556 151.288214 
L 199.528402 80.157174 
L 202.073249 129.418026 
L 204.618095 200.057384 
L 207.162942 218.217483 
L 209.707788 223.070456 
L 212.252635 229.548464 
L 214.797481 252.688397 
L 217.342328 203.03793 
L 219.887174 220.674608 
L 222.432021 147.923017 
L 224.976867 239.65016 
L 227.521713 205.849106 
L 230.06656 195.54881 
L 232.611406 184.216692 
L 235.156253 178.900423 
L 237.701099 230.205287 
L 240.245946 251.589529 
L 242.790792 210.689362 
L 245.335639 222.853039 
L 247.880485 210.655047 
L 250.425332 237.327061 
L 252.970178 234.391914 
L 255.515025 212.021139 
L 258.059871 233.206561 
L 260.604717 180.894093 
L 263.149564 181.136895 
L 265.69441 241.518242 
L 268.239257 229.307029 
L 270.784103 241.57349 
L 273.32895 257.378847 
L 275.873796 274.899111 
L 278.418643 277.843635 
L 280.963489 251.562022 
L 283.508336 267.992705 
L 286.053182 275.759662 
L 288.598028 275.908504 
L 291.142875 272.673881 
L 293.687721 280.72171 
L 296.232568 278.304592 
L 298.777414 248.481318 
L 301.322261 261.857691 
L 303.867107 269.776588 
L 306.411954 257.016205 
L 308.9568 262.716241 
L 311.501647 253.983314 
L 314.046493 246.297102 
L 316.59134 280.39707 
L 319.136186 273.971964 
L 321.681032 279.028245 
L 324.225879 278.371115 
L 326.770725 266.986839 
L 329.315572 262.002297 
L 331.860418 271.003441 
L 334.405265 269.478023 
L 336.950111 229.772542 
L 339.494958 269.762346 
L 342.039804 264.154418 
L 344.584651 277.397334 
L 347.129497 257.155553 
L 349.674343 219.007969 
L 352.21919 271.448637 
L 354.764036 263.962639 
L 357.308883 217.21491 
L 359.853729 266.057673 
L 362.398576 248.869468 
L 364.943422 236.439633 
L 367.488269 264.392806 
L 370.033115 247.821154 
L 372.577962 269.896187 
L 375.122808 231.345447 
L 377.667654 276.207398 
L 380.212501 277.351298 
L 382.757347 266.028423 
L 385.302194 250.646376 
L 387.84704 268.38999 
L 390.391887 254.717264 
L 392.936733 282.24358 
L 395.48158 252.221287 
L 398.026426 264.611979 
L 400.571273 184.839555 
L 403.116119 264.281946 
L 405.660966 250.404978 
L 408.205812 241.930927 
L 410.750658 136.670225 
L 413.295505 190.094595 
L 415.840351 265.21979 
L 418.385198 276.79746 
L 420.930044 267.511997 
L 423.474891 277.37135 
L 426.019737 275.845515 
L 428.564584 253.367112 
L 431.10943 269.738854 
L 433.654277 272.607804 
L 436.199123 232.474811 
L 438.743969 269.326227 
L 441.288816 258.553046 
L 443.833662 241.1639 
L 446.378509 265.737867 
L 448.923355 256.985532 
L 451.468202 255.410605 
L 454.013048 247.661824 
L 456.557895 240.592853 
L 459.102741 272.119996 
L 461.647588 277.45971 
L 464.192434 269.249155 
L 466.737281 247.163736 
L 469.282127 278.285733 
L 471.826973 236.187142 
L 474.37182 248.641086 
L 476.916666 198.135147 
L 479.461513 212.783663 
L 482.006359 193.478587 
L 484.551206 245.592379 
L 487.096052 213.683786 
L 489.640899 224.383485 
L 492.185745 208.650402 
L 494.730592 184.928453 
L 497.275438 219.074586 
L 499.820284 154.479152 
L 502.365131 249.265684 
L 504.909977 253.048905 
L 507.454824 201.759046 
L 509.99967 241.478185 
L 512.544517 164.45421 
L 515.089363 241.830665 
L 517.63421 177.942963 
L 520.179056 231.305869 
L 522.723903 175.614009 
L 525.268749 178.083063 
L 527.813596 222.844826 
L 530.358442 240.580296 
L 532.903288 165.879774 
L 535.448135 250.654466 
L 537.992981 136.844377 
L 540.537828 171.438336 
L 543.082674 249.807684 
L 545.627521 213.0256 
L 548.172367 245.858063 
L 550.717214 210.567781 
L 553.26206 255.630954 
L 555.806907 195.621367 
L 558.351753 241.948463 
L 560.896599 197.941556 
L 563.441446 245.190949 
L 565.986292 201.437979 
L 568.531139 188.321833 
L 571.075985 257.832018 
L 573.620832 177.605854 
L 576.165678 190.832925 
L 578.710525 217.31782 
L 581.255371 150.490191 
L 583.800218 116.359273 
L 586.345064 164.342098 
L 588.88991 219.950951 
L 591.434757 158.423246 
L 593.979603 221.521431 
L 596.52445 257.275669 
L 599.069296 216.187603 
L 601.614143 152.118546 
L 604.158989 117.509692 
L 606.703836 242.338443 
L 609.248682 175.51109 
L 611.793529 212.048872 
L 614.338375 180.014392 
L 616.883222 212.725964 
L 619.428068 35.15267 
L 621.972914 163.264805 
L 624.517761 186.482957 
L 627.062607 253.905881 
L 629.607454 233.672677 
L 632.1523 258.002274 
L 634.697147 221.736318 
L 637.241993 247.689725 
L 639.78684 197.469591 
L 642.331686 255.579067 
L 644.876533 212.063603 
L 647.421379 259.765356 
L 649.966225 178.057341 
L 652.511072 208.339443 
L 655.055918 162.875074 
L 657.600765 259.44075 
L 660.145611 175.354158 
L 662.690458 215.564341 
L 665.235304 240.539432 
L 667.780151 227.619236 
L 670.324997 244.558077 
L 672.869844 195.416313 
L 675.41469 221.878181 
L 677.959537 183.632524 
L 680.504383 219.063229 
L 683.049229 176.687394 
L 685.594076 208.494375 
L 688.138922 238.068925 
L 690.683769 206.447391 
L 693.228615 210.119514 
L 695.773462 165.502792 
L 698.318308 239.099821 
L 700.863155 258.209338 
L 703.408001 186.257115 
L 705.952848 244.8943 
L 708.497694 240.34931 
L 711.04254 211.149456 
L 713.587387 229.758865 
L 716.132233 266.735797 
L 718.67708 242.827181 
L 721.221926 214.3477 
L 723.766773 202.931416 
L 726.311619 223.410915 
L 728.856466 232.622431 
L 731.401312 236.571526 
L 733.946159 250.546358 
L 736.491005 164.400181 
L 739.035852 161.237156 
L 741.580698 264.633295 
L 744.125544 245.609757 
L 746.670391 246.404574 
L 749.215237 174.614228 
L 751.760084 219.215101 
L 754.30493 215.74077 
L 756.849777 179.670477 
L 759.394623 227.781985 
L 761.93947 202.944399 
L 764.484316 209.100192 
L 767.029163 177.201954 
L 769.574009 228.98305 
L 772.118855 235.695398 
L 774.663702 233.241213 
L 777.208548 220.831275 
L 779.753395 132.800972 
L 782.298241 229.351026 
L 784.843088 225.816455 
L 787.387934 247.772411 
L 789.932781 262.100441 
L 792.477627 217.995112 
L 795.022474 194.521529 
L 797.56732 232.380262 
L 800.112167 190.984134 
L 802.657013 245.780358 
L 805.201859 203.548004 
L 807.746706 235.54708 
L 810.291552 94.321393 
L 812.836399 259.4732 
L 815.381245 211.348875 
L 817.926092 178.230337 
L 820.470938 188.503023 
L 823.015785 223.617298 
L 825.560631 238.708544 
L 828.105478 180.940634 
L 830.650324 176.040745 
L 833.19517 234.362959 
L 833.19517 234.362959 
" clip-path="url(#pd154d8ded6)" style="fill: none; stroke: #1f77b4; stroke-width: 0.9; stroke-linecap: square"/>
   </g>
   <g id="patch_3">
    <path d="M 34.240625 294.598125 
L 34.240625 22.798125 
" style="fill: none; stroke: #000000; stroke-width: 0.8; stroke-linejoin: miter; stroke-linecap: square"/>
   </g>
   <g id="patch_4">
    <path d="M 871.240625 294.598125 
L 871.240625 22.798125 
" style="fill: none; stroke: #000000; stroke-width: 0.8; stroke-linejoin: miter; stroke-linecap: square"/>
   </g>
   <g id="patch_5">
    <path d="M 34.240625 294.598125 
L 871.240625 294.598125 
" style="fill: none; stroke: #000000; stroke-width: 0.8; stroke-linejoin: miter; stroke-linecap: square"/>
   </g>
   <g id="patch_6">
    <path d="M 34.240625 22.798125 
L 871.240625 22.798125 
" style="fill: none; stroke: #000000; stroke-width: 0.8; stroke-linejoin: miter; stroke-linecap: square"/>
   </g>
   <g id="text_15">
    <!-- Wariancja z próbki CH1 -->
    <g transform="translate(383.106875 16.798125)scale(0.12 -0.12)">
     <defs>
      <path id="DejaVuSans-69" d="M 603 3500 
L 1178 3500 
L 1178 0 
L 603 0 
L 603 3500 
z
M 603 4863 
L 1178 4863 
L 1178 4134 
L 603 4134 
L 603 4863 
z
" transform="scale(0.015625)"/>
      <path id="DejaVuSans-6e" d="M 3513 2113 
L 3513 0 
L 2938 0 
L 2938 2094 
Q 2938 2591 2744 2837 
Q 2550 3084 2163 3084 
Q 1697 3084 1428 2787 
Q 1159 2491 1159 1978 
L 1159 0 
L 581 0 
L 581 3500 
L 1159 3500 
L 1159 2956 
Q 1366 3272 1645 3428 
Q 1925 3584 2291 3584 
Q 2894 3584 3203 3211 
Q 3513 2838 3513 2113 
z
" transform="scale(0.015625)"/>
      <path id="DejaVuSans-63" d="M 3122 3366 
L 3122 2828 
Q 2878 2963 2633 3030 
Q 2388 3097 2138 3097 
Q 1578 3097 1268 2742 
Q 959 2388 959 1747 
Q 959 1106 1268 751 
Q 1578 397 2138 397 
Q 2388 397 2633 464 
Q 2878 531 3122 666 
L 3122 134 
Q 2881 22 2623 -34 
Q 2366 -91 2075 -91 
Q 1284 -91 818 406 
Q 353 903 353 1747 
Q 353 2603 823 3093 
Q 1294 3584 2113 3584 
Q 2378 3584 2631 3529 
Q 2884 3475 3122 3366 
z
" transform="scale(0.015625)"/>
      <path id="DejaVuSans-6a" d="M 603 3500 
L 1178 3500 
L 1178 -63 
Q 1178 -731 923 -1031 
Q 669 -1331 103 -1331 
L -116 -1331 
L -116 -844 
L 38 -844 
Q 366 -844 484 -692 
Q 603 -541 603 -63 
L 603 3500 
z
M 603 4863 
L 1178 4863 
L 1178 4134 
L 603 4134 
L 603 4863 
z
" transform="scale(0.015625)"/>
      <path id="DejaVuSans-20" transform="scale(0.015625)"/>
      <path id="DejaVuSans-7a" d="M 353 3500 
L 3084 3500 
L 3084 2975 
L 922 459 
L 3084 459 
L 3084 0 
L 275 0 
L 275 525 
L 2438 3041 
L 353 3041 
L 353 3500 
z
" transform="scale(0.015625)"/>
      <path id="DejaVuSans-70" d="M 1159 525 
L 1159 -1331 
L 581 -1331 
L 581 3500 
L 1159 3500 
L 1159 2969 
Q 1341 3281 1617 3432 
Q 1894 3584 2278 3584 
Q 2916 3584 3314 3078 
Q 3713 2572 3713 1747 
Q 3713 922 3314 415 
Q 2916 -91 2278 -91 
Q 1894 -91 1617 61 
Q 1341 213 1159 525 
z
M 3116 1747 
Q 3116 2381 2855 2742 
Q 2594 3103 2138 3103 
Q 1681 3103 1420 2742 
Q 1159 2381 1159 1747 
Q 1159 1113 1420 752 
Q 1681 391 2138 391 
Q 2594 391 2855 752 
Q 3116 1113 3116 1747 
z
" transform="scale(0.015625)"/>
      <path id="DejaVuSans-43" d="M 4122 4306 
L 4122 3641 
Q 3803 3938 3442 4084 
Q 3081 4231 2675 4231 
Q 1875 4231 1450 3742 
Q 1025 3253 1025 2328 
Q 1025 1406 1450 917 
Q 1875 428 2675 428 
Q 3081 428 3442 575 
Q 3803 722 4122 1019 
L 4122 359 
Q 3791 134 3420 21 
Q 3050 -91 2638 -91 
Q 1578 -91 968 557 
Q 359 1206 359 2328 
Q 359 3453 968 4101 
Q 1578 4750 2638 4750 
Q 3056 4750 3426 4639 
Q 3797 4528 4122 4306 
z
" transform="scale(0.015625)"/>
      <path id="DejaVuSans-48" d="M 628 4666 
L 1259 4666 
L 1259 2753 
L 3553 2753 
L 3553 4666 
L 4184 4666 
L 4184 0 
L 3553 0 
L 3553 2222 
L 1259 2222 
L 1259 0 
L 628 0 
L 628 4666 
z
" transform="scale(0.015625)"/>
     </defs>
     <use xlink:href="#DejaVuSans-57"/>
     <use xlink:href="#DejaVuSans-61" x="92.501953"/>
     <use xlink:href="#DejaVuSans-72" x="153.78125"/>
     <use xlink:href="#DejaVuSans-69" x="194.894531"/>
     <use xlink:href="#DejaVuSans-61" x="222.677734"/>
     <use xlink:href="#DejaVuSans-6e" x="283.957031"/>
     <use xlink:href="#DejaVuSans-63" x="347.335938"/>
     <use xlink:href="#DejaVuSans-6a" x="402.316406"/>
     <use xlink:href="#DejaVuSans-61" x="430.099609"/>
     <use xlink:href="#DejaVuSans-20" x="491.378906"/>
     <use xlink:href="#DejaVuSans-7a" x="523.166016"/>
     <use xlink:href="#DejaVuSans-20" x="575.65625"/>
     <use xlink:href="#DejaVuSans-70" x="607.443359"/>
     <use xlink:href="#DejaVuSans-72" x="670.919922"/>
     <use xlink:href="#DejaVuSans-f3" x="709.783203"/>
     <use xlink:href="#DejaVuSans-62" x="770.964844"/>
     <use xlink:href="#DejaVuSans-6b" x="834.441406"/>
     <use xlink:href="#DejaVuSans-69" x="892.351562"/>
     <use xlink:href="#DejaVuSans-20" x="920.134766"/>
     <use xlink:href="#DejaVuSans-43" x="951.921875"/>
     <use xlink:href="#DejaVuSans-48" x="1021.746094"/>
     <use xlink:href="#DejaVuSans-31" x="1096.941406"/>
    </g>
   </g>
   <g id="legend_1">
    <g id="patch_7">
     <path d="M 860.240625 35.798125 
L 864.240625 35.798125 
Q 866.240625 35.798125 866.240625 33.798125 
L 866.240625 29.798125 
Q 866.240625 27.798125 864.240625 27.798125 
L 860.240625 27.798125 
Q 858.240625 27.798125 858.240625 29.798125 
L 858.240625 33.798125 
Q 858.240625 35.798125 860.240625 35.798125 
z
" style="fill: #ffffff; opacity: 0.8; stroke: #cccccc; stroke-linejoin: miter"/>
    </g>
   </g>
  </g>
 </g>
 <defs>
  <clipPath id="pd154d8ded6">
   <rect x="34.240625" y="22.798125" width="837" height="271.8"/>
  </clipPath>
 </defs>
</svg>
