<?xml version="1.0" encoding="utf-8" standalone="no"?>
<!DOCTYPE svg PUBLIC "-//W3C//DTD SVG 1.1//EN"
  "http://www.w3.org/Graphics/SVG/1.1/DTD/svg11.dtd">
<svg xmlns:xlink="http://www.w3.org/1999/xlink" width="894.34375pt" height="333.658125pt" viewBox="0 0 894.34375 333.658125" xmlns="http://www.w3.org/2000/svg" version="1.1">
 <metadata>
  <rdf:RDF xmlns:dc="http://purl.org/dc/elements/1.1/" xmlns:cc="http://creativecommons.org/ns#" xmlns:rdf="http://www.w3.org/1999/02/22-rdf-syntax-ns#">
   <cc:Work>
    <dc:type rdf:resource="http://purl.org/dc/dcmitype/StillImage"/>
    <dc:date>2022-06-21T09:48:02.758360</dc:date>
    <dc:format>image/svg+xml</dc:format>
    <dc:creator>
     <cc:Agent>
      <dc:title>Matplotlib v3.5.2, https://matplotlib.org/</dc:title>
     </cc:Agent>
    </dc:creator>
   </cc:Work>
  </rdf:RDF>
 </metadata>
 <defs>
  <style type="text/css">*{stroke-linejoin: round; stroke-linecap: butt}</style>
 </defs>
 <g id="figure_1">
  <g id="patch_1">
   <path d="M 0 333.658125 
L 894.34375 333.658125 
L 894.34375 0 
L 0 0 
L 0 333.658125 
z
" style="fill: none"/>
  </g>
  <g id="axes_1">
   <g id="patch_2">
    <path d="M 50.14375 296.101875 
L 887.14375 296.101875 
L 887.14375 24.301875 
L 50.14375 24.301875 
z
" style="fill: #ffffff"/>
   </g>
   <g id="matplotlib.axis_1">
    <g id="xtick_1">
     <g id="line2d_1">
      <defs>
       <path id="m3286a2f412" d="M 0 0 
L 0 3.5 
" style="stroke: #000000; stroke-width: 0.8"/>
      </defs>
      <g>
       <use xlink:href="#m3286a2f412" x="88.189205" y="296.101875" style="stroke: #000000; stroke-width: 0.8"/>
      </g>
     </g>
     <g id="text_1">
      <!-- 0 -->
      <g transform="translate(85.007955 310.700312)scale(0.1 -0.1)">
       <defs>
        <path id="DejaVuSans-30" d="M 2034 4250 
Q 1547 4250 1301 3770 
Q 1056 3291 1056 2328 
Q 1056 1369 1301 889 
Q 1547 409 2034 409 
Q 2525 409 2770 889 
Q 3016 1369 3016 2328 
Q 3016 3291 2770 3770 
Q 2525 4250 2034 4250 
z
M 2034 4750 
Q 2819 4750 3233 4129 
Q 3647 3509 3647 2328 
Q 3647 1150 3233 529 
Q 2819 -91 2034 -91 
Q 1250 -91 836 529 
Q 422 1150 422 2328 
Q 422 3509 836 4129 
Q 1250 4750 2034 4750 
z
" transform="scale(0.015625)"/>
       </defs>
       <use xlink:href="#DejaVuSans-30"/>
      </g>
     </g>
    </g>
    <g id="xtick_2">
     <g id="line2d_2">
      <g>
       <use xlink:href="#m3286a2f412" x="215.431527" y="296.101875" style="stroke: #000000; stroke-width: 0.8"/>
      </g>
     </g>
     <g id="text_2">
      <!-- 50 -->
      <g transform="translate(209.069027 310.700312)scale(0.1 -0.1)">
       <defs>
        <path id="DejaVuSans-35" d="M 691 4666 
L 3169 4666 
L 3169 4134 
L 1269 4134 
L 1269 2991 
Q 1406 3038 1543 3061 
Q 1681 3084 1819 3084 
Q 2600 3084 3056 2656 
Q 3513 2228 3513 1497 
Q 3513 744 3044 326 
Q 2575 -91 1722 -91 
Q 1428 -91 1123 -41 
Q 819 9 494 109 
L 494 744 
Q 775 591 1075 516 
Q 1375 441 1709 441 
Q 2250 441 2565 725 
Q 2881 1009 2881 1497 
Q 2881 1984 2565 2268 
Q 2250 2553 1709 2553 
Q 1456 2553 1204 2497 
Q 953 2441 691 2322 
L 691 4666 
z
" transform="scale(0.015625)"/>
       </defs>
       <use xlink:href="#DejaVuSans-35"/>
       <use xlink:href="#DejaVuSans-30" x="63.623047"/>
      </g>
     </g>
    </g>
    <g id="xtick_3">
     <g id="line2d_3">
      <g>
       <use xlink:href="#m3286a2f412" x="342.67385" y="296.101875" style="stroke: #000000; stroke-width: 0.8"/>
      </g>
     </g>
     <g id="text_3">
      <!-- 100 -->
      <g transform="translate(333.1301 310.700312)scale(0.1 -0.1)">
       <defs>
        <path id="DejaVuSans-31" d="M 794 531 
L 1825 531 
L 1825 4091 
L 703 3866 
L 703 4441 
L 1819 4666 
L 2450 4666 
L 2450 531 
L 3481 531 
L 3481 0 
L 794 0 
L 794 531 
z
" transform="scale(0.015625)"/>
       </defs>
       <use xlink:href="#DejaVuSans-31"/>
       <use xlink:href="#DejaVuSans-30" x="63.623047"/>
       <use xlink:href="#DejaVuSans-30" x="127.246094"/>
      </g>
     </g>
    </g>
    <g id="xtick_4">
     <g id="line2d_4">
      <g>
       <use xlink:href="#m3286a2f412" x="469.916173" y="296.101875" style="stroke: #000000; stroke-width: 0.8"/>
      </g>
     </g>
     <g id="text_4">
      <!-- 150 -->
      <g transform="translate(460.372423 310.700312)scale(0.1 -0.1)">
       <use xlink:href="#DejaVuSans-31"/>
       <use xlink:href="#DejaVuSans-35" x="63.623047"/>
       <use xlink:href="#DejaVuSans-30" x="127.246094"/>
      </g>
     </g>
    </g>
    <g id="xtick_5">
     <g id="line2d_5">
      <g>
       <use xlink:href="#m3286a2f412" x="597.158496" y="296.101875" style="stroke: #000000; stroke-width: 0.8"/>
      </g>
     </g>
     <g id="text_5">
      <!-- 200 -->
      <g transform="translate(587.614746 310.700312)scale(0.1 -0.1)">
       <defs>
        <path id="DejaVuSans-32" d="M 1228 531 
L 3431 531 
L 3431 0 
L 469 0 
L 469 531 
Q 828 903 1448 1529 
Q 2069 2156 2228 2338 
Q 2531 2678 2651 2914 
Q 2772 3150 2772 3378 
Q 2772 3750 2511 3984 
Q 2250 4219 1831 4219 
Q 1534 4219 1204 4116 
Q 875 4013 500 3803 
L 500 4441 
Q 881 4594 1212 4672 
Q 1544 4750 1819 4750 
Q 2544 4750 2975 4387 
Q 3406 4025 3406 3419 
Q 3406 3131 3298 2873 
Q 3191 2616 2906 2266 
Q 2828 2175 2409 1742 
Q 1991 1309 1228 531 
z
" transform="scale(0.015625)"/>
       </defs>
       <use xlink:href="#DejaVuSans-32"/>
       <use xlink:href="#DejaVuSans-30" x="63.623047"/>
       <use xlink:href="#DejaVuSans-30" x="127.246094"/>
      </g>
     </g>
    </g>
    <g id="xtick_6">
     <g id="line2d_6">
      <g>
       <use xlink:href="#m3286a2f412" x="724.400819" y="296.101875" style="stroke: #000000; stroke-width: 0.8"/>
      </g>
     </g>
     <g id="text_6">
      <!-- 250 -->
      <g transform="translate(714.857069 310.700312)scale(0.1 -0.1)">
       <use xlink:href="#DejaVuSans-32"/>
       <use xlink:href="#DejaVuSans-35" x="63.623047"/>
       <use xlink:href="#DejaVuSans-30" x="127.246094"/>
      </g>
     </g>
    </g>
    <g id="xtick_7">
     <g id="line2d_7">
      <g>
       <use xlink:href="#m3286a2f412" x="851.643142" y="296.101875" style="stroke: #000000; stroke-width: 0.8"/>
      </g>
     </g>
     <g id="text_7">
      <!-- 300 -->
      <g transform="translate(842.099392 310.700312)scale(0.1 -0.1)">
       <defs>
        <path id="DejaVuSans-33" d="M 2597 2516 
Q 3050 2419 3304 2112 
Q 3559 1806 3559 1356 
Q 3559 666 3084 287 
Q 2609 -91 1734 -91 
Q 1441 -91 1130 -33 
Q 819 25 488 141 
L 488 750 
Q 750 597 1062 519 
Q 1375 441 1716 441 
Q 2309 441 2620 675 
Q 2931 909 2931 1356 
Q 2931 1769 2642 2001 
Q 2353 2234 1838 2234 
L 1294 2234 
L 1294 2753 
L 1863 2753 
Q 2328 2753 2575 2939 
Q 2822 3125 2822 3475 
Q 2822 3834 2567 4026 
Q 2313 4219 1838 4219 
Q 1578 4219 1281 4162 
Q 984 4106 628 3988 
L 628 4550 
Q 988 4650 1302 4700 
Q 1616 4750 1894 4750 
Q 2613 4750 3031 4423 
Q 3450 4097 3450 3541 
Q 3450 3153 3228 2886 
Q 3006 2619 2597 2516 
z
" transform="scale(0.015625)"/>
       </defs>
       <use xlink:href="#DejaVuSans-33"/>
       <use xlink:href="#DejaVuSans-30" x="63.623047"/>
       <use xlink:href="#DejaVuSans-30" x="127.246094"/>
      </g>
     </g>
    </g>
    <g id="text_8">
     <!-- Próbka -->
     <g transform="translate(451.667969 324.378437)scale(0.1 -0.1)">
      <defs>
       <path id="DejaVuSans-50" d="M 1259 4147 
L 1259 2394 
L 2053 2394 
Q 2494 2394 2734 2622 
Q 2975 2850 2975 3272 
Q 2975 3691 2734 3919 
Q 2494 4147 2053 4147 
L 1259 4147 
z
M 628 4666 
L 2053 4666 
Q 2838 4666 3239 4311 
Q 3641 3956 3641 3272 
Q 3641 2581 3239 2228 
Q 2838 1875 2053 1875 
L 1259 1875 
L 1259 0 
L 628 0 
L 628 4666 
z
" transform="scale(0.015625)"/>
       <path id="DejaVuSans-72" d="M 2631 2963 
Q 2534 3019 2420 3045 
Q 2306 3072 2169 3072 
Q 1681 3072 1420 2755 
Q 1159 2438 1159 1844 
L 1159 0 
L 581 0 
L 581 3500 
L 1159 3500 
L 1159 2956 
Q 1341 3275 1631 3429 
Q 1922 3584 2338 3584 
Q 2397 3584 2469 3576 
Q 2541 3569 2628 3553 
L 2631 2963 
z
" transform="scale(0.015625)"/>
       <path id="DejaVuSans-f3" d="M 1959 3097 
Q 1497 3097 1228 2736 
Q 959 2375 959 1747 
Q 959 1119 1226 758 
Q 1494 397 1959 397 
Q 2419 397 2687 759 
Q 2956 1122 2956 1747 
Q 2956 2369 2687 2733 
Q 2419 3097 1959 3097 
z
M 1959 3584 
Q 2709 3584 3137 3096 
Q 3566 2609 3566 1747 
Q 3566 888 3137 398 
Q 2709 -91 1959 -91 
Q 1206 -91 779 398 
Q 353 888 353 1747 
Q 353 2609 779 3096 
Q 1206 3584 1959 3584 
z
M 2394 5119 
L 3016 5119 
L 1998 3944 
L 1519 3944 
L 2394 5119 
z
" transform="scale(0.015625)"/>
       <path id="DejaVuSans-62" d="M 3116 1747 
Q 3116 2381 2855 2742 
Q 2594 3103 2138 3103 
Q 1681 3103 1420 2742 
Q 1159 2381 1159 1747 
Q 1159 1113 1420 752 
Q 1681 391 2138 391 
Q 2594 391 2855 752 
Q 3116 1113 3116 1747 
z
M 1159 2969 
Q 1341 3281 1617 3432 
Q 1894 3584 2278 3584 
Q 2916 3584 3314 3078 
Q 3713 2572 3713 1747 
Q 3713 922 3314 415 
Q 2916 -91 2278 -91 
Q 1894 -91 1617 61 
Q 1341 213 1159 525 
L 1159 0 
L 581 0 
L 581 4863 
L 1159 4863 
L 1159 2969 
z
" transform="scale(0.015625)"/>
       <path id="DejaVuSans-6b" d="M 581 4863 
L 1159 4863 
L 1159 1991 
L 2875 3500 
L 3609 3500 
L 1753 1863 
L 3688 0 
L 2938 0 
L 1159 1709 
L 1159 0 
L 581 0 
L 581 4863 
z
" transform="scale(0.015625)"/>
       <path id="DejaVuSans-61" d="M 2194 1759 
Q 1497 1759 1228 1600 
Q 959 1441 959 1056 
Q 959 750 1161 570 
Q 1363 391 1709 391 
Q 2188 391 2477 730 
Q 2766 1069 2766 1631 
L 2766 1759 
L 2194 1759 
z
M 3341 1997 
L 3341 0 
L 2766 0 
L 2766 531 
Q 2569 213 2275 61 
Q 1981 -91 1556 -91 
Q 1019 -91 701 211 
Q 384 513 384 1019 
Q 384 1609 779 1909 
Q 1175 2209 1959 2209 
L 2766 2209 
L 2766 2266 
Q 2766 2663 2505 2880 
Q 2244 3097 1772 3097 
Q 1472 3097 1187 3025 
Q 903 2953 641 2809 
L 641 3341 
Q 956 3463 1253 3523 
Q 1550 3584 1831 3584 
Q 2591 3584 2966 3190 
Q 3341 2797 3341 1997 
z
" transform="scale(0.015625)"/>
      </defs>
      <use xlink:href="#DejaVuSans-50"/>
      <use xlink:href="#DejaVuSans-72" x="58.552734"/>
      <use xlink:href="#DejaVuSans-f3" x="97.416016"/>
      <use xlink:href="#DejaVuSans-62" x="158.597656"/>
      <use xlink:href="#DejaVuSans-6b" x="222.074219"/>
      <use xlink:href="#DejaVuSans-61" x="278.234375"/>
     </g>
    </g>
   </g>
   <g id="matplotlib.axis_2">
    <g id="ytick_1">
     <g id="line2d_8">
      <defs>
       <path id="m7cad708730" d="M 0 0 
L -3.5 0 
" style="stroke: #000000; stroke-width: 0.8"/>
      </defs>
      <g>
       <use xlink:href="#m7cad708730" x="50.14375" y="251.969554" style="stroke: #000000; stroke-width: 0.8"/>
      </g>
     </g>
     <g id="text_9">
      <!-- 0.12 -->
      <g transform="translate(20.878125 255.768773)scale(0.1 -0.1)">
       <defs>
        <path id="DejaVuSans-2e" d="M 684 794 
L 1344 794 
L 1344 0 
L 684 0 
L 684 794 
z
" transform="scale(0.015625)"/>
       </defs>
       <use xlink:href="#DejaVuSans-30"/>
       <use xlink:href="#DejaVuSans-2e" x="63.623047"/>
       <use xlink:href="#DejaVuSans-31" x="95.410156"/>
       <use xlink:href="#DejaVuSans-32" x="159.033203"/>
      </g>
     </g>
    </g>
    <g id="ytick_2">
     <g id="line2d_9">
      <g>
       <use xlink:href="#m7cad708730" x="50.14375" y="203.732691" style="stroke: #000000; stroke-width: 0.8"/>
      </g>
     </g>
     <g id="text_10">
      <!-- 0.14 -->
      <g transform="translate(20.878125 207.53191)scale(0.1 -0.1)">
       <defs>
        <path id="DejaVuSans-34" d="M 2419 4116 
L 825 1625 
L 2419 1625 
L 2419 4116 
z
M 2253 4666 
L 3047 4666 
L 3047 1625 
L 3713 1625 
L 3713 1100 
L 3047 1100 
L 3047 0 
L 2419 0 
L 2419 1100 
L 313 1100 
L 313 1709 
L 2253 4666 
z
" transform="scale(0.015625)"/>
       </defs>
       <use xlink:href="#DejaVuSans-30"/>
       <use xlink:href="#DejaVuSans-2e" x="63.623047"/>
       <use xlink:href="#DejaVuSans-31" x="95.410156"/>
       <use xlink:href="#DejaVuSans-34" x="159.033203"/>
      </g>
     </g>
    </g>
    <g id="ytick_3">
     <g id="line2d_10">
      <g>
       <use xlink:href="#m7cad708730" x="50.14375" y="155.495828" style="stroke: #000000; stroke-width: 0.8"/>
      </g>
     </g>
     <g id="text_11">
      <!-- 0.16 -->
      <g transform="translate(20.878125 159.295047)scale(0.1 -0.1)">
       <defs>
        <path id="DejaVuSans-36" d="M 2113 2584 
Q 1688 2584 1439 2293 
Q 1191 2003 1191 1497 
Q 1191 994 1439 701 
Q 1688 409 2113 409 
Q 2538 409 2786 701 
Q 3034 994 3034 1497 
Q 3034 2003 2786 2293 
Q 2538 2584 2113 2584 
z
M 3366 4563 
L 3366 3988 
Q 3128 4100 2886 4159 
Q 2644 4219 2406 4219 
Q 1781 4219 1451 3797 
Q 1122 3375 1075 2522 
Q 1259 2794 1537 2939 
Q 1816 3084 2150 3084 
Q 2853 3084 3261 2657 
Q 3669 2231 3669 1497 
Q 3669 778 3244 343 
Q 2819 -91 2113 -91 
Q 1303 -91 875 529 
Q 447 1150 447 2328 
Q 447 3434 972 4092 
Q 1497 4750 2381 4750 
Q 2619 4750 2861 4703 
Q 3103 4656 3366 4563 
z
" transform="scale(0.015625)"/>
       </defs>
       <use xlink:href="#DejaVuSans-30"/>
       <use xlink:href="#DejaVuSans-2e" x="63.623047"/>
       <use xlink:href="#DejaVuSans-31" x="95.410156"/>
       <use xlink:href="#DejaVuSans-36" x="159.033203"/>
      </g>
     </g>
    </g>
    <g id="ytick_4">
     <g id="line2d_11">
      <g>
       <use xlink:href="#m7cad708730" x="50.14375" y="107.258965" style="stroke: #000000; stroke-width: 0.8"/>
      </g>
     </g>
     <g id="text_12">
      <!-- 0.18 -->
      <g transform="translate(20.878125 111.058183)scale(0.1 -0.1)">
       <defs>
        <path id="DejaVuSans-38" d="M 2034 2216 
Q 1584 2216 1326 1975 
Q 1069 1734 1069 1313 
Q 1069 891 1326 650 
Q 1584 409 2034 409 
Q 2484 409 2743 651 
Q 3003 894 3003 1313 
Q 3003 1734 2745 1975 
Q 2488 2216 2034 2216 
z
M 1403 2484 
Q 997 2584 770 2862 
Q 544 3141 544 3541 
Q 544 4100 942 4425 
Q 1341 4750 2034 4750 
Q 2731 4750 3128 4425 
Q 3525 4100 3525 3541 
Q 3525 3141 3298 2862 
Q 3072 2584 2669 2484 
Q 3125 2378 3379 2068 
Q 3634 1759 3634 1313 
Q 3634 634 3220 271 
Q 2806 -91 2034 -91 
Q 1263 -91 848 271 
Q 434 634 434 1313 
Q 434 1759 690 2068 
Q 947 2378 1403 2484 
z
M 1172 3481 
Q 1172 3119 1398 2916 
Q 1625 2713 2034 2713 
Q 2441 2713 2670 2916 
Q 2900 3119 2900 3481 
Q 2900 3844 2670 4047 
Q 2441 4250 2034 4250 
Q 1625 4250 1398 4047 
Q 1172 3844 1172 3481 
z
" transform="scale(0.015625)"/>
       </defs>
       <use xlink:href="#DejaVuSans-30"/>
       <use xlink:href="#DejaVuSans-2e" x="63.623047"/>
       <use xlink:href="#DejaVuSans-31" x="95.410156"/>
       <use xlink:href="#DejaVuSans-38" x="159.033203"/>
      </g>
     </g>
    </g>
    <g id="ytick_5">
     <g id="line2d_12">
      <g>
       <use xlink:href="#m7cad708730" x="50.14375" y="59.022101" style="stroke: #000000; stroke-width: 0.8"/>
      </g>
     </g>
     <g id="text_13">
      <!-- 0.20 -->
      <g transform="translate(20.878125 62.82132)scale(0.1 -0.1)">
       <use xlink:href="#DejaVuSans-30"/>
       <use xlink:href="#DejaVuSans-2e" x="63.623047"/>
       <use xlink:href="#DejaVuSans-32" x="95.410156"/>
       <use xlink:href="#DejaVuSans-30" x="159.033203"/>
      </g>
     </g>
    </g>
    <g id="text_14">
     <!-- Wartość -->
     <g transform="translate(14.798438 180.319844)rotate(-90)scale(0.1 -0.1)">
      <defs>
       <path id="DejaVuSans-57" d="M 213 4666 
L 850 4666 
L 1831 722 
L 2809 4666 
L 3519 4666 
L 4500 722 
L 5478 4666 
L 6119 4666 
L 4947 0 
L 4153 0 
L 3169 4050 
L 2175 0 
L 1381 0 
L 213 4666 
z
" transform="scale(0.015625)"/>
       <path id="DejaVuSans-74" d="M 1172 4494 
L 1172 3500 
L 2356 3500 
L 2356 3053 
L 1172 3053 
L 1172 1153 
Q 1172 725 1289 603 
Q 1406 481 1766 481 
L 2356 481 
L 2356 0 
L 1766 0 
Q 1100 0 847 248 
Q 594 497 594 1153 
L 594 3053 
L 172 3053 
L 172 3500 
L 594 3500 
L 594 4494 
L 1172 4494 
z
" transform="scale(0.015625)"/>
       <path id="DejaVuSans-6f" d="M 1959 3097 
Q 1497 3097 1228 2736 
Q 959 2375 959 1747 
Q 959 1119 1226 758 
Q 1494 397 1959 397 
Q 2419 397 2687 759 
Q 2956 1122 2956 1747 
Q 2956 2369 2687 2733 
Q 2419 3097 1959 3097 
z
M 1959 3584 
Q 2709 3584 3137 3096 
Q 3566 2609 3566 1747 
Q 3566 888 3137 398 
Q 2709 -91 1959 -91 
Q 1206 -91 779 398 
Q 353 888 353 1747 
Q 353 2609 779 3096 
Q 1206 3584 1959 3584 
z
" transform="scale(0.015625)"/>
       <path id="DejaVuSans-15b" d="M 2242 5119 
L 2864 5119 
L 1846 3944 
L 1367 3944 
L 2242 5119 
z
M 2834 3397 
L 2834 2853 
Q 2591 2978 2328 3040 
Q 2066 3103 1784 3103 
Q 1356 3103 1142 2972 
Q 928 2841 928 2578 
Q 928 2378 1081 2264 
Q 1234 2150 1697 2047 
L 1894 2003 
Q 2506 1872 2764 1633 
Q 3022 1394 3022 966 
Q 3022 478 2636 193 
Q 2250 -91 1575 -91 
Q 1294 -91 989 -36 
Q 684 19 347 128 
L 347 722 
Q 666 556 975 473 
Q 1284 391 1588 391 
Q 1994 391 2212 530 
Q 2431 669 2431 922 
Q 2431 1156 2273 1281 
Q 2116 1406 1581 1522 
L 1381 1569 
Q 847 1681 609 1914 
Q 372 2147 372 2553 
Q 372 3047 722 3315 
Q 1072 3584 1716 3584 
Q 2034 3584 2315 3537 
Q 2597 3491 2834 3397 
z
" transform="scale(0.015625)"/>
       <path id="DejaVuSans-107" d="M 3122 3366 
L 3122 2828 
Q 2878 2963 2633 3030 
Q 2388 3097 2138 3097 
Q 1578 3097 1268 2742 
Q 959 2388 959 1747 
Q 959 1106 1268 751 
Q 1578 397 2138 397 
Q 2388 397 2633 464 
Q 2878 531 3122 666 
L 3122 134 
Q 2881 22 2623 -34 
Q 2366 -91 2075 -91 
Q 1284 -91 818 406 
Q 353 903 353 1747 
Q 353 2603 823 3093 
Q 1294 3584 2113 3584 
Q 2378 3584 2631 3529 
Q 2884 3475 3122 3366 
z
M 2466 5119 
L 3088 5119 
L 2070 3944 
L 1591 3944 
L 2466 5119 
z
" transform="scale(0.015625)"/>
      </defs>
      <use xlink:href="#DejaVuSans-57"/>
      <use xlink:href="#DejaVuSans-61" x="92.501953"/>
      <use xlink:href="#DejaVuSans-72" x="153.78125"/>
      <use xlink:href="#DejaVuSans-74" x="194.894531"/>
      <use xlink:href="#DejaVuSans-6f" x="234.103516"/>
      <use xlink:href="#DejaVuSans-15b" x="295.285156"/>
      <use xlink:href="#DejaVuSans-107" x="347.384766"/>
     </g>
    </g>
   </g>
   <g id="line2d_13">
    <path d="M 88.189205 224.14909 
L 90.734051 179.681702 
L 93.278897 203.01928 
L 95.823744 157.921074 
L 98.36859 250.023659 
L 100.913437 155.116009 
L 103.458283 220.458077 
L 106.00313 168.872778 
L 108.547976 260.672802 
L 111.092823 188.871365 
L 113.637669 224.996589 
L 116.182516 178.719825 
L 118.727362 189.017622 
L 121.272208 165.50925 
L 123.817055 124.638301 
L 126.361901 177.458188 
L 128.906748 65.648179 
L 131.451594 197.14552 
L 133.996441 128.129925 
L 136.541287 226.066179 
L 139.086134 141.521823 
L 141.63098 181.903188 
L 144.175827 95.354318 
L 146.720673 136.992489 
L 149.26552 132.328393 
L 151.810366 179.321759 
L 154.355212 136.249128 
L 156.900059 173.929469 
L 159.444905 179.60384 
L 161.989752 102.914575 
L 164.534598 139.461278 
L 167.079445 71.830683 
L 169.624291 141.385806 
L 172.169138 104.457134 
L 174.713984 190.035046 
L 177.258831 101.735341 
L 179.803677 211.487704 
L 182.348523 128.40447 
L 184.89337 193.171363 
L 187.438216 178.171312 
L 189.983063 143.429832 
L 192.527909 159.518117 
L 195.072756 193.226717 
L 197.617602 204.780065 
L 200.162449 70.712598 
L 202.707295 139.286427 
L 205.252142 36.65642 
L 207.796988 98.203144 
L 210.341835 153.604074 
L 212.886681 153.776414 
L 215.431527 144.129335 
L 217.976374 169.409892 
L 220.52122 175.389625 
L 223.066067 154.152876 
L 225.610913 188.277642 
L 228.15576 116.550204 
L 230.700606 103.871139 
L 233.245453 119.849587 
L 235.790299 171.118318 
L 238.335146 136.714562 
L 240.879992 129.716631 
L 243.424838 106.989779 
L 245.969685 111.222058 
L 248.514531 179.94881 
L 251.059378 150.604933 
L 253.604224 122.831339 
L 256.149071 87.760732 
L 258.693917 217.049532 
L 261.238764 112.902276 
L 263.78361 204.751471 
L 266.328457 96.901996 
L 268.873303 199.140664 
L 271.41815 117.588881 
L 273.962996 210.674209 
L 276.507842 141.340789 
L 279.052689 175.522744 
L 281.597535 146.036571 
L 284.142382 115.148106 
L 286.687228 173.609519 
L 289.232075 185.516724 
L 291.776921 226.260448 
L 294.321768 179.267178 
L 296.866614 225.565678 
L 299.411461 192.215282 
L 301.956307 209.452275 
L 304.501153 193.685872 
L 307.046 209.192606 
L 309.590846 215.573823 
L 312.135693 232.092765 
L 314.680539 197.152185 
L 317.225386 209.61341 
L 322.315079 152.673399 
L 324.859925 171.514777 
L 327.404772 125.682484 
L 329.949618 171.711847 
L 332.494465 174.845073 
L 335.039311 168.551572 
L 337.584157 141.523658 
L 340.129004 174.643076 
L 342.67385 189.415434 
L 345.218697 111.769315 
L 347.763543 189.599366 
L 350.30839 176.377489 
L 352.853236 245.586581 
L 355.398083 178.980943 
L 357.942929 203.635704 
L 360.487776 170.410313 
L 363.032622 266.816858 
L 365.577468 208.826287 
L 368.122315 262.619645 
L 370.667161 209.071659 
L 373.212008 252.767381 
L 375.756854 172.820465 
L 378.301701 232.002248 
L 380.846547 175.297369 
L 383.391394 242.40882 
L 385.93624 160.161107 
L 388.481087 177.892902 
L 391.025933 200.305118 
L 393.570779 271.421543 
L 396.115626 197.429436 
L 398.660472 230.283002 
L 401.205319 213.461982 
L 403.750165 275.960054 
L 406.295012 245.41028 
L 408.839858 200.132102 
L 411.384705 178.074806 
L 413.929551 197.436778 
L 416.474398 229.681165 
L 419.019244 251.829365 
L 421.564091 178.422674 
L 424.108937 190.444547 
L 426.653783 256.214085 
L 429.19863 243.470006 
L 431.743476 227.786197 
L 434.288323 208.905792 
L 436.833169 229.114104 
L 439.378016 197.329452 
L 441.922862 208.109202 
L 444.467709 165.751434 
L 447.012555 221.194773 
L 449.557402 199.993766 
L 452.102248 245.130904 
L 454.647094 168.412754 
L 457.191941 217.882155 
L 459.736787 184.35314 
L 462.281634 217.444542 
L 464.82648 171.785749 
L 467.371327 197.590763 
L 469.916173 216.536666 
L 472.46102 258.665196 
L 475.005866 217.811151 
L 477.550713 271.729707 
L 480.095559 254.499765 
L 482.640406 208.574636 
L 485.185252 201.853087 
L 487.730098 206.198296 
L 490.274945 190.9919 
L 492.819791 199.034884 
L 495.364638 196.487169 
L 497.909484 100.980194 
L 500.454331 198.994504 
L 502.999177 159.586415 
L 505.544024 168.501339 
L 508.08887 84.329582 
L 510.633717 241.084585 
L 513.178563 177.658253 
L 515.723409 223.747511 
L 518.268256 193.855893 
L 520.813102 255.925531 
L 523.357949 122.101503 
L 525.902795 189.849761 
L 528.447642 198.625866 
L 530.992488 275.760955 
L 533.537335 181.671147 
L 536.082181 188.023576 
L 538.627028 152.728076 
L 541.171874 242.921783 
L 543.716721 139.637772 
L 546.261567 177.218129 
L 548.806413 239.073404 
L 551.35126 247.836178 
L 553.896106 210.973196 
L 556.440953 124.466251 
L 558.985799 195.733858 
L 561.530646 128.604729 
L 564.075492 240.276693 
L 566.620339 129.005149 
L 569.165185 194.057311 
L 571.710032 156.853416 
L 574.254878 219.438045 
L 576.799724 119.311701 
L 579.344571 207.175726 
L 581.889417 162.005068 
L 584.434264 215.413269 
L 586.97911 139.871455 
L 589.523957 205.415907 
L 592.068803 136.37761 
L 594.61365 179.339727 
L 597.158496 186.838255 
L 599.703343 239.739966 
L 602.248189 206.05996 
L 604.793035 220.906026 
L 607.337882 238.005167 
L 609.882728 232.132276 
L 612.427575 177.487555 
L 614.972421 187.108551 
L 617.517268 149.298375 
L 620.062114 152.195793 
L 622.606961 241.840504 
L 625.151807 173.884742 
L 627.696654 234.343135 
L 630.2415 213.597323 
L 632.786347 176.126031 
L 635.331193 230.074823 
L 637.876039 209.874818 
L 640.420886 195.289194 
L 642.965732 208.364524 
L 645.510579 196.861217 
L 648.055425 232.428461 
L 650.600272 150.961688 
L 653.145118 211.391004 
L 655.689965 200.086409 
L 658.234811 253.850979 
L 660.779658 164.943059 
L 663.324504 224.379778 
L 665.86935 178.233911 
L 668.414197 214.607212 
L 670.959043 205.58448 
L 673.50389 278.031226 
L 676.048736 142.280931 
L 678.593583 200.397084 
L 681.138429 119.501139 
L 683.683276 176.883593 
L 686.228122 129.354562 
L 688.772969 198.88795 
L 693.862662 105.838656 
L 696.407508 180.749457 
L 698.952354 138.883785 
L 701.497201 209.802945 
L 704.042047 155.58009 
L 706.586894 249.583245 
L 709.13174 156.059918 
L 711.676587 249.629905 
L 714.221433 145.435216 
L 716.76628 186.069004 
L 719.311126 158.320625 
L 721.855973 222.441146 
L 724.400819 167.74938 
L 726.945665 252.666721 
L 729.490512 182.225842 
L 732.035358 283.74733 
L 734.580205 211.40617 
L 737.125051 247.390934 
L 739.669898 169.616332 
L 742.214744 245.630052 
L 744.759591 192.396027 
L 747.304437 264.240066 
L 749.849284 146.670094 
L 752.39413 233.237126 
L 754.938977 156.532404 
L 757.483823 273.02158 
L 760.028669 197.614045 
L 762.573516 154.187749 
L 765.118362 227.079642 
L 767.663209 181.162242 
L 770.208055 228.342052 
L 772.752902 198.343302 
L 775.297748 198.392666 
L 777.842595 102.270909 
L 780.387441 192.697042 
L 782.932288 195.510802 
L 785.477134 262.408084 
L 788.02198 136.079879 
L 790.566827 140.470008 
L 793.111673 184.40405 
L 795.65652 211.272182 
L 798.201366 193.155617 
L 800.746213 134.235629 
L 803.291059 221.710633 
L 805.835906 138.850457 
L 808.380752 266.909017 
L 810.925599 168.206023 
L 813.470445 253.918987 
L 816.015292 162.130362 
L 818.560138 275.774093 
L 821.104984 190.168745 
L 823.649831 171.040455 
L 826.194677 130.112704 
L 828.739524 250.856861 
L 831.28437 184.044396 
L 833.829217 141.438165 
L 836.374063 158.364869 
L 838.91891 183.052089 
L 841.463756 158.299565 
L 844.008603 121.563423 
L 846.553449 228.879069 
L 849.098295 138.162932 
L 849.098295 138.162932 
" clip-path="url(#pb27157645f)" style="fill: none; stroke: #1f77b4; stroke-width: 0.9; stroke-linecap: square"/>
   </g>
   <g id="patch_3">
    <path d="M 50.14375 296.101875 
L 50.14375 24.301875 
" style="fill: none; stroke: #000000; stroke-width: 0.8; stroke-linejoin: miter; stroke-linecap: square"/>
   </g>
   <g id="patch_4">
    <path d="M 887.14375 296.101875 
L 887.14375 24.301875 
" style="fill: none; stroke: #000000; stroke-width: 0.8; stroke-linejoin: miter; stroke-linecap: square"/>
   </g>
   <g id="patch_5">
    <path d="M 50.14375 296.101875 
L 887.14375 296.101875 
" style="fill: none; stroke: #000000; stroke-width: 0.8; stroke-linejoin: miter; stroke-linecap: square"/>
   </g>
   <g id="patch_6">
    <path d="M 50.14375 24.301875 
L 887.14375 24.301875 
" style="fill: none; stroke: #000000; stroke-width: 0.8; stroke-linejoin: miter; stroke-linecap: square"/>
   </g>
   <g id="text_15">
    <!-- Średnia z próbki CH3 -->
    <g transform="translate(405.704688 18.301875)scale(0.12 -0.12)">
     <defs>
      <path id="DejaVuSans-15a" d="M 2236 5921 
L 2814 5921 
L 2102 5096 
L 1623 5096 
L 2236 5921 
z
M 3425 4513 
L 3425 3897 
Q 3066 4069 2747 4153 
Q 2428 4238 2131 4238 
Q 1616 4238 1336 4038 
Q 1056 3838 1056 3469 
Q 1056 3159 1242 3001 
Q 1428 2844 1947 2747 
L 2328 2669 
Q 3034 2534 3370 2195 
Q 3706 1856 3706 1288 
Q 3706 609 3251 259 
Q 2797 -91 1919 -91 
Q 1588 -91 1214 -16 
Q 841 59 441 206 
L 441 856 
Q 825 641 1194 531 
Q 1563 422 1919 422 
Q 2459 422 2753 634 
Q 3047 847 3047 1241 
Q 3047 1584 2836 1778 
Q 2625 1972 2144 2069 
L 1759 2144 
Q 1053 2284 737 2584 
Q 422 2884 422 3419 
Q 422 4038 858 4394 
Q 1294 4750 2059 4750 
Q 2388 4750 2728 4690 
Q 3069 4631 3425 4513 
z
" transform="scale(0.015625)"/>
      <path id="DejaVuSans-65" d="M 3597 1894 
L 3597 1613 
L 953 1613 
Q 991 1019 1311 708 
Q 1631 397 2203 397 
Q 2534 397 2845 478 
Q 3156 559 3463 722 
L 3463 178 
Q 3153 47 2828 -22 
Q 2503 -91 2169 -91 
Q 1331 -91 842 396 
Q 353 884 353 1716 
Q 353 2575 817 3079 
Q 1281 3584 2069 3584 
Q 2775 3584 3186 3129 
Q 3597 2675 3597 1894 
z
M 3022 2063 
Q 3016 2534 2758 2815 
Q 2500 3097 2075 3097 
Q 1594 3097 1305 2825 
Q 1016 2553 972 2059 
L 3022 2063 
z
" transform="scale(0.015625)"/>
      <path id="DejaVuSans-64" d="M 2906 2969 
L 2906 4863 
L 3481 4863 
L 3481 0 
L 2906 0 
L 2906 525 
Q 2725 213 2448 61 
Q 2172 -91 1784 -91 
Q 1150 -91 751 415 
Q 353 922 353 1747 
Q 353 2572 751 3078 
Q 1150 3584 1784 3584 
Q 2172 3584 2448 3432 
Q 2725 3281 2906 2969 
z
M 947 1747 
Q 947 1113 1208 752 
Q 1469 391 1925 391 
Q 2381 391 2643 752 
Q 2906 1113 2906 1747 
Q 2906 2381 2643 2742 
Q 2381 3103 1925 3103 
Q 1469 3103 1208 2742 
Q 947 2381 947 1747 
z
" transform="scale(0.015625)"/>
      <path id="DejaVuSans-6e" d="M 3513 2113 
L 3513 0 
L 2938 0 
L 2938 2094 
Q 2938 2591 2744 2837 
Q 2550 3084 2163 3084 
Q 1697 3084 1428 2787 
Q 1159 2491 1159 1978 
L 1159 0 
L 581 0 
L 581 3500 
L 1159 3500 
L 1159 2956 
Q 1366 3272 1645 3428 
Q 1925 3584 2291 3584 
Q 2894 3584 3203 3211 
Q 3513 2838 3513 2113 
z
" transform="scale(0.015625)"/>
      <path id="DejaVuSans-69" d="M 603 3500 
L 1178 3500 
L 1178 0 
L 603 0 
L 603 3500 
z
M 603 4863 
L 1178 4863 
L 1178 4134 
L 603 4134 
L 603 4863 
z
" transform="scale(0.015625)"/>
      <path id="DejaVuSans-20" transform="scale(0.015625)"/>
      <path id="DejaVuSans-7a" d="M 353 3500 
L 3084 3500 
L 3084 2975 
L 922 459 
L 3084 459 
L 3084 0 
L 275 0 
L 275 525 
L 2438 3041 
L 353 3041 
L 353 3500 
z
" transform="scale(0.015625)"/>
      <path id="DejaVuSans-70" d="M 1159 525 
L 1159 -1331 
L 581 -1331 
L 581 3500 
L 1159 3500 
L 1159 2969 
Q 1341 3281 1617 3432 
Q 1894 3584 2278 3584 
Q 2916 3584 3314 3078 
Q 3713 2572 3713 1747 
Q 3713 922 3314 415 
Q 2916 -91 2278 -91 
Q 1894 -91 1617 61 
Q 1341 213 1159 525 
z
M 3116 1747 
Q 3116 2381 2855 2742 
Q 2594 3103 2138 3103 
Q 1681 3103 1420 2742 
Q 1159 2381 1159 1747 
Q 1159 1113 1420 752 
Q 1681 391 2138 391 
Q 2594 391 2855 752 
Q 3116 1113 3116 1747 
z
" transform="scale(0.015625)"/>
      <path id="DejaVuSans-43" d="M 4122 4306 
L 4122 3641 
Q 3803 3938 3442 4084 
Q 3081 4231 2675 4231 
Q 1875 4231 1450 3742 
Q 1025 3253 1025 2328 
Q 1025 1406 1450 917 
Q 1875 428 2675 428 
Q 3081 428 3442 575 
Q 3803 722 4122 1019 
L 4122 359 
Q 3791 134 3420 21 
Q 3050 -91 2638 -91 
Q 1578 -91 968 557 
Q 359 1206 359 2328 
Q 359 3453 968 4101 
Q 1578 4750 2638 4750 
Q 3056 4750 3426 4639 
Q 3797 4528 4122 4306 
z
" transform="scale(0.015625)"/>
      <path id="DejaVuSans-48" d="M 628 4666 
L 1259 4666 
L 1259 2753 
L 3553 2753 
L 3553 4666 
L 4184 4666 
L 4184 0 
L 3553 0 
L 3553 2222 
L 1259 2222 
L 1259 0 
L 628 0 
L 628 4666 
z
" transform="scale(0.015625)"/>
     </defs>
     <use xlink:href="#DejaVuSans-15a"/>
     <use xlink:href="#DejaVuSans-72" x="63.476562"/>
     <use xlink:href="#DejaVuSans-65" x="102.339844"/>
     <use xlink:href="#DejaVuSans-64" x="163.863281"/>
     <use xlink:href="#DejaVuSans-6e" x="227.339844"/>
     <use xlink:href="#DejaVuSans-69" x="290.71875"/>
     <use xlink:href="#DejaVuSans-61" x="318.501953"/>
     <use xlink:href="#DejaVuSans-20" x="379.78125"/>
     <use xlink:href="#DejaVuSans-7a" x="411.568359"/>
     <use xlink:href="#DejaVuSans-20" x="464.058594"/>
     <use xlink:href="#DejaVuSans-70" x="495.845703"/>
     <use xlink:href="#DejaVuSans-72" x="559.322266"/>
     <use xlink:href="#DejaVuSans-f3" x="598.185547"/>
     <use xlink:href="#DejaVuSans-62" x="659.367188"/>
     <use xlink:href="#DejaVuSans-6b" x="722.84375"/>
     <use xlink:href="#DejaVuSans-69" x="780.753906"/>
     <use xlink:href="#DejaVuSans-20" x="808.537109"/>
     <use xlink:href="#DejaVuSans-43" x="840.324219"/>
     <use xlink:href="#DejaVuSans-48" x="910.148438"/>
     <use xlink:href="#DejaVuSans-33" x="985.34375"/>
    </g>
   </g>
   <g id="legend_1">
    <g id="patch_7">
     <path d="M 876.14375 37.301875 
L 880.14375 37.301875 
Q 882.14375 37.301875 882.14375 35.301875 
L 882.14375 31.301875 
Q 882.14375 29.301875 880.14375 29.301875 
L 876.14375 29.301875 
Q 874.14375 29.301875 874.14375 31.301875 
L 874.14375 35.301875 
Q 874.14375 37.301875 876.14375 37.301875 
z
" style="fill: #ffffff; opacity: 0.8; stroke: #cccccc; stroke-linejoin: miter"/>
    </g>
   </g>
  </g>
 </g>
 <defs>
  <clipPath id="pb27157645f">
   <rect x="50.14375" y="24.301875" width="837" height="271.8"/>
  </clipPath>
 </defs>
</svg>
